<svg width="765" height="113" viewBox="0 0 765 113" fill="none" xmlns="http://www.w3.org/2000/svg"><path opacity="0.2" d="M63.24 6.95999L65.0862 7.72922L65.855 5.88401L64.0102 5.11423L63.24 6.95999ZM46.56 -3.8147e-06L47.3302 -1.84576L45.8464 -2.46489L44.9229 -1.14885L46.56 -3.8147e-06ZM18.36 23.4L17.6405 21.5339L17.5858 21.555L17.5324 21.5793L18.36 23.4ZM14.28 24.36L14.0213 22.3768L11.3765 22.7218L12.4487 25.164L14.28 24.36ZM20.76 39.12L18.9287 39.924L19.7334 41.7568L21.5655 40.9506L20.76 39.12ZM26.4 26.16L28.3956 26.293L28.5378 24.16H26.4V26.16ZM20.16 26.16V24.16H17.95L18.1699 26.359L20.16 26.16ZM20.28 27.36L18.2899 27.559L18.5341 30.001L20.8766 29.269L20.28 27.36ZM60.24 7.55999L61.4921 9.11958L67.2339 4.50998L59.949 5.58128L60.24 7.55999ZM56.16 8.15999L55.869 6.18127L55.5114 10.0519L56.16 8.15999ZM17.88 24.24L17.9196 22.2404L15.0347 22.1833L15.9937 24.9047L17.88 24.24ZM22.32 36.84L20.4337 37.5047L20.9822 39.0613L22.6146 38.8182L22.32 36.84ZM87 25.32L87.4447 27.2699L89 26.9152V25.32H87ZM87 23.4H89V21.3498L86.9504 21.4006L87 23.4ZM101.28 90L102.694 91.4142L104.172 89.9365L102.631 88.5251L101.28 90ZM88.44 78.24L89.7908 76.7651L88.4295 75.5183L87.0778 76.7756L88.44 78.24ZM10.08 110.88L9.77468 108.903L7.57369 109.243L8.14753 111.395L10.08 110.88ZM10.56 112.68L8.62753 113.195L9.02344 114.68H10.56V112.68ZM96.72 90.24L97.4449 88.376L96.4687 87.9964L95.6007 88.5826L96.72 90.24ZM85.8 73.68L87.3052 74.997L88.696 73.4075L87.033 72.1053L85.8 73.68ZM73.08 63.72L74.313 62.1453L72.9254 61.0588L71.6729 62.2987L73.08 63.72ZM14.16 96L13.5756 94.0873L11.4951 94.723L12.303 96.7428L14.16 96ZM14.88 97.8L13.023 98.5428L13.6039 99.9949L15.1533 99.7812L14.88 97.8ZM81.48 74.04L82.2415 72.1906L81.2276 71.7731L80.3304 72.4034L81.48 74.04ZM72.12 58.44L73.72 59.64L74.9569 57.9908L73.271 56.8044L72.12 58.44ZM59.16 49.32L60.311 47.6844L58.7847 46.6103L57.6078 48.0588L59.16 49.32ZM12.96 82.44L12.1537 80.6097L10.2321 81.4563L11.1711 83.3344L12.96 82.44ZM13.8 84.12L12.0111 85.0144L12.7173 86.4267L14.2548 86.0676L13.8 84.12ZM67.92 58.92L68.4553 56.993L67.4438 56.712L66.6381 57.3848L67.92 58.92ZM71.64 42.72L73.1359 41.3924L72.0044 40.1175L70.5663 41.0327L71.64 42.72ZM70.32 43.56L69.2463 41.8727L67.7646 42.8155L68.508 44.4066L70.32 43.56ZM103.68 75L102.93 76.8539L105.09 77.7284L105.626 75.4601L103.68 75ZM113.88 62.88L114.343 64.8256L115.742 64.4927L115.872 63.0611L113.88 62.88ZM114 61.56L115.992 61.7411L116.161 59.8831L114.319 59.5856L114 61.56ZM62.88 35.52L64.7007 36.3476L65.5096 34.5682L63.7491 33.7187L62.88 35.52ZM45.72 27.24L46.5891 25.4387L44.6976 24.526L43.8784 26.4599L45.72 27.24ZM0.12 74.76L-0.778331 72.9731L-2.79805 73.9885L-1.5441 75.8694L0.12 74.76ZM1.08 76.2L-0.584101 77.3094L0.209118 78.4992L1.59155 78.1335L1.08 76.2ZM58.2 37.08L58.4481 35.0954L57.2145 34.9412L56.5302 35.9792L58.2 37.08ZM98.76 32.4L99.9879 30.8213L98.4118 29.5955L97.1834 31.1695L98.76 32.4ZM91.08 42.24V44.24H92.0561L92.6566 43.4705L91.08 42.24ZM1.92 42.24V40.24H-0.706429L-0.00798512 42.7719L1.92 42.24ZM2.88 45.72L0.952015 46.2519L1.35702 47.72H2.88V45.72ZM112.68 43.8L114.61 44.3262L114.936 43.1275L114.007 42.3033L112.68 43.8ZM69.24 11.04L69.4281 9.04886L68.4912 8.96036L67.8258 9.62578L69.24 11.04ZM68.28 12L66.8658 10.5858L65.2398 12.2118L67.0755 13.5966L68.28 12ZM87.48 33.48L85.6797 34.3511L85.991 34.9946L86.6398 35.2949L87.48 33.48ZM64.0102 5.11423L47.3302 -1.84576L45.7898 1.84576L62.4698 8.80576L64.0102 5.11423ZM44.9229 -1.14885C42.6482 2.09255 38.2163 6.86268 33.0845 11.3142C27.9358 15.7803 22.295 19.7394 17.6405 21.5339L19.0795 25.2661C24.385 23.2206 30.4442 18.8997 35.7055 14.3358C40.9837 9.75731 45.6718 4.74744 48.1971 1.14885L44.9229 -1.14885ZM17.5324 21.5793C17.1105 21.771 16.3015 21.9761 15.446 22.1412C15.049 22.2178 14.6883 22.2774 14.4268 22.3178C14.2965 22.3379 14.1921 22.353 14.1217 22.363C14.0865 22.368 14.0598 22.3716 14.0427 22.3739C14.0342 22.3751 14.0281 22.3759 14.0244 22.3764C14.0226 22.3766 14.0215 22.3768 14.0209 22.3768C14.0207 22.3769 14.0206 22.3769 14.0206 22.3769C14.0207 22.3769 14.0207 22.3769 14.0209 22.3769C14.0209 22.3769 14.021 22.3768 14.0211 22.3768C14.0212 22.3768 14.0213 22.3768 14.28 24.36C14.5387 26.3432 14.5388 26.3432 14.539 26.3432C14.5391 26.3431 14.5393 26.3431 14.5394 26.3431C14.5397 26.3431 14.54 26.343 14.5404 26.343C14.5411 26.3429 14.542 26.3428 14.5431 26.3426C14.5452 26.3423 14.548 26.342 14.5515 26.3415C14.5584 26.3406 14.5679 26.3393 14.5799 26.3377C14.6039 26.3344 14.6378 26.3298 14.6807 26.3237C14.7663 26.3116 14.8879 26.294 15.037 26.271C15.3342 26.2251 15.746 26.1572 16.204 26.0688C17.0585 25.9039 18.2895 25.629 19.1876 25.2207L17.5324 21.5793ZM12.4487 25.164L18.9287 39.924L22.5913 38.316L16.1113 23.556L12.4487 25.164ZM21.5655 40.9506C23.6738 40.023 25.2542 38.1076 26.35 35.6631C27.4513 33.2063 28.1454 30.0458 28.3956 26.293L24.4044 26.027C24.1746 29.4742 23.5487 32.1337 22.7 34.0269C21.8458 35.9324 20.8462 36.897 19.9545 37.2894L21.5655 40.9506ZM26.4 24.16H20.16V28.16H26.4V24.16ZM18.1699 26.359L18.2899 27.559L22.2701 27.161L22.1501 25.961L18.1699 26.359ZM20.8766 29.269C34.4656 25.0224 52.7156 16.1655 61.4921 9.11958L58.9879 6.0004C50.7244 12.6345 32.9744 21.2976 19.6835 25.451L20.8766 29.269ZM59.949 5.58128L55.869 6.18127L56.451 10.1387L60.531 9.53871L59.949 5.58128ZM55.5114 10.0519C60.0633 11.6125 63.8623 10.6666 65.0862 7.72922L61.3939 6.19077C61.3754 6.23509 61.2234 6.53082 60.5533 6.70267C59.8691 6.87808 58.6611 6.90323 56.8087 6.2681L55.5114 10.0519ZM15.9937 24.9047L20.4337 37.5047L24.2063 36.1753L19.7663 23.5753L15.9937 24.9047ZM22.6146 38.8182C50.8409 34.6143 73.6959 30.4056 87.4447 27.2699L86.5553 23.3701C72.9441 26.4744 50.1991 30.6657 22.0254 34.8618L22.6146 38.8182ZM89 25.32V23.4H85V25.32H89ZM86.9504 21.4006C57.908 22.1207 29.9894 22.4794 17.9196 22.2404L17.8404 26.2396C30.0106 26.4806 58.012 26.1193 87.0496 25.3994L86.9504 21.4006ZM102.631 88.5251L89.7908 76.7651L87.0892 79.7149L99.9292 91.4749L102.631 88.5251ZM87.0778 76.7756C79.5843 83.7463 67.6186 90.6562 53.759 96.4025C39.9288 102.137 24.3631 106.65 9.77468 108.903L10.3853 112.857C25.3169 110.55 41.1912 105.943 55.291 100.098C69.3614 94.2638 81.8157 87.1337 89.8022 79.7044L87.0778 76.7756ZM8.14753 111.395L8.62753 113.195L12.4925 112.165L12.0125 110.365L8.14753 111.395ZM10.56 114.68C43.1311 114.68 78.9494 104.654 97.8393 91.8974L95.6007 88.5826C77.5306 100.786 42.5489 110.68 10.56 110.68V114.68ZM95.9951 92.104C98.4748 93.0683 101.032 93.0759 102.694 91.4142L99.8658 88.5858C99.8475 88.6041 99.2852 89.0917 97.4449 88.376L95.9951 92.104ZM87.033 72.1053L74.313 62.1453L71.847 65.2947L84.567 75.2547L87.033 72.1053ZM71.6729 62.2987C59.9716 73.883 34.9728 87.5493 13.5756 94.0873L14.7444 97.9127C36.5472 91.2507 62.1884 77.317 74.4871 65.1413L71.6729 62.2987ZM12.303 96.7428L13.023 98.5428L16.737 97.0572L16.017 95.2572L12.303 96.7428ZM15.1533 99.7812C39.7448 96.3893 67.7877 86.1027 82.6297 75.6766L80.3304 72.4034C66.1323 82.3773 38.7352 92.4907 14.6067 95.8188L15.1533 99.7812ZM80.7185 75.8894C83.1323 76.8833 85.6524 76.8859 87.3052 74.997L84.2948 72.363C84.2239 72.444 84.1267 72.5204 83.8828 72.5458C83.5927 72.576 83.0645 72.5295 82.2415 72.1906L80.7185 75.8894ZM73.271 56.8044L60.311 47.6844L58.009 50.9556L70.969 60.0756L73.271 56.8044ZM57.6078 48.0588C48.4971 59.2719 29.1047 73.1418 12.1537 80.6097L13.7663 84.2702C31.1353 76.6182 51.1029 62.4081 60.7122 50.5812L57.6078 48.0588ZM11.1711 83.3344L12.0111 85.0144L15.5889 83.2256L14.7489 81.5456L11.1711 83.3344ZM14.2548 86.0676C34.5345 81.3316 57.2761 70.4138 69.2019 60.4551L66.6381 57.3848C55.2839 66.8662 33.1455 77.5484 13.3452 82.1724L14.2548 86.0676ZM67.3847 60.847C68.56 61.1735 69.716 61.3685 70.7761 61.2533C71.9232 61.1286 72.9753 60.633 73.72 59.64L70.52 57.24C70.5127 57.2497 70.5115 57.2495 70.5169 57.2449C70.5192 57.2429 70.5219 57.2408 70.5245 57.2391C70.5271 57.2373 70.5286 57.2365 70.5286 57.2365C70.5285 57.2365 70.5259 57.2379 70.5201 57.2402C70.5142 57.2426 70.5046 57.2461 70.4904 57.2502C70.462 57.2583 70.4148 57.269 70.3439 57.2767C70.0241 57.3115 69.44 57.2665 68.4553 56.993L67.3847 60.847ZM70.5663 41.0327L69.2463 41.8727L71.3937 45.2473L72.7138 44.4073L70.5663 41.0327ZM68.508 44.4066C75.5669 59.5151 87.3523 70.5488 102.93 76.8539L104.43 73.1461C89.7677 67.2112 78.7531 56.8849 72.132 42.7134L68.508 44.4066ZM105.626 75.4601C107.079 69.3147 110.283 65.7924 114.343 64.8256L113.417 60.9344C107.397 62.3676 103.401 67.4853 101.734 74.5399L105.626 75.4601ZM115.872 63.0611L115.992 61.7411L112.008 61.3789L111.888 62.6989L115.872 63.0611ZM114.319 59.5856C106.661 58.3485 98.3565 56.0794 90.9423 52.9522C83.4955 49.8113 77.1139 45.8748 73.1359 41.3924L70.1442 44.0476C74.6861 49.1652 81.6845 53.3887 89.3877 56.6378C97.1235 59.9006 105.739 62.2515 113.681 63.5344L114.319 59.5856ZM63.7491 33.7187L46.5891 25.4387L44.8509 29.0413L62.0109 37.3213L63.7491 33.7187ZM43.8784 26.4599C36.7382 43.3155 20.7459 62.1522 -0.778331 72.9731L1.01833 76.5469C23.4141 65.2878 40.0618 45.7245 47.5616 28.0201L43.8784 26.4599ZM-1.5441 75.8694L-0.584101 77.3094L2.7441 75.0906L1.7841 73.6506L-1.5441 75.8694ZM1.59155 78.1335C28.8209 70.9293 48.9158 54.7964 59.8698 38.1808L56.5302 35.9792C46.1242 51.7636 26.8591 67.3107 0.568453 74.2665L1.59155 78.1335ZM57.9519 39.0646C59.5113 39.2595 60.907 39.24 62.0846 38.8073C63.3891 38.3282 64.2108 37.4255 64.7007 36.3476L61.0593 34.6924C60.9492 34.9345 60.871 34.9918 60.7054 35.0527C60.4131 35.16 59.7688 35.2605 58.4481 35.0954L57.9519 39.0646ZM97.1834 31.1695L89.5034 41.0095L92.6566 43.4705L100.337 33.6305L97.1834 31.1695ZM91.08 40.24H1.92V44.24H91.08V40.24ZM-0.00798512 42.7719L0.952015 46.2519L4.80799 45.1881L3.84799 41.7081L-0.00798512 42.7719ZM2.88 47.72H109.32V43.72H2.88V47.72ZM109.32 47.72C110.413 47.72 111.536 47.5424 112.507 47.0055C113.543 46.4333 114.285 45.5157 114.61 44.3262L110.75 43.2738C110.726 43.3633 110.699 43.4012 110.687 43.4164C110.675 43.4321 110.646 43.4639 110.573 43.5045C110.404 43.5976 110.027 43.72 109.32 43.72V47.72ZM114.007 42.3033C111.329 39.9296 107.817 37.0546 104.992 34.7857C103.576 33.6484 102.326 32.6582 101.43 31.9521C100.982 31.599 100.622 31.3168 100.374 31.1227C100.25 31.0256 100.154 30.9505 100.088 30.8996C100.056 30.8741 100.031 30.8547 100.014 30.8415C100.005 30.835 99.999 30.83 99.9947 30.8266C99.9925 30.8249 99.9909 30.8236 99.9897 30.8227C99.9892 30.8223 99.9887 30.8219 99.9884 30.8217C99.9883 30.8216 99.9881 30.8215 99.9881 30.8214C99.988 30.8213 99.9879 30.8213 98.76 32.4C97.5321 33.9787 97.5321 33.9787 97.5322 33.9787C97.5322 33.9788 97.5323 33.9788 97.5324 33.9789C97.5326 33.9791 97.533 33.9794 97.5334 33.9797C97.5344 33.9805 97.5359 33.9816 97.5379 33.9832C97.5419 33.9863 97.548 33.991 97.556 33.9973C97.5722 34.0099 97.5964 34.0288 97.6283 34.0536C97.6921 34.1034 97.7868 34.1773 97.9092 34.2731C98.1542 34.4648 98.5105 34.7441 98.9548 35.0942C99.8436 35.7943 101.084 36.7766 102.488 37.9043C105.303 40.1654 108.751 42.9904 111.353 45.2967L114.007 42.3033ZM67.8258 9.62578L66.8658 10.5858L69.6942 13.4142L70.6542 12.4542L67.8258 9.62578ZM67.0755 13.5966C73.8008 18.6701 82.2777 27.3203 85.6797 34.3511L89.2803 32.6089C85.4823 24.7597 76.4392 15.6499 69.4845 10.4034L67.0755 13.5966ZM86.6398 35.2949C90.4299 37.0496 94.0965 36.6815 96.5937 34.5008C99.0465 32.3588 99.913 28.8568 98.9679 25.3012C97.0657 18.1452 88.1407 10.8165 69.4281 9.04886L69.0519 13.0311C87.1793 14.7435 93.8544 21.6348 95.1021 26.3288C95.732 28.6982 95.061 30.5287 93.9626 31.4879C92.9085 32.4085 91.0101 32.9104 88.3203 31.6651L86.6398 35.2949ZM203.28 92.52V90.52H201.28V92.52H203.28ZM203.28 96H201.28V98H203.28V96ZM232.44 96V98H234.44V96H232.44ZM232.44 92.52H234.44V90.52H232.44V92.52ZM225.36 20.52H227.36V18.52H225.36V20.52ZM225.36 108.12H223.36V110.12H225.36V108.12ZM239.64 103.08L241.632 103.261L241.64 103.171V103.08H239.64ZM239.64 26.4L239.177 24.4544L237.64 24.8203V26.4H239.64ZM244.68 23.76L246.259 24.9879L247.478 23.4206L245.919 22.1902L244.68 23.76ZM231 12.96L232.239 11.3902L230.772 10.2315L229.517 11.6182L231 12.96ZM224.16 20.52L222.677 19.1782L219.653 22.52H224.16V20.52ZM133.92 26.76V24.76H131.176L132.016 27.372L133.92 26.76ZM135 30.12L133.096 30.732L133.542 32.12H135V30.12ZM180.12 30.12V32.12H182.12V30.12H180.12ZM180.12 26.76H182.12V24.76H180.12V26.76ZM150.12 1.08L150.301 -0.911789L148.12 -1.11007V1.08H150.12ZM130.8 111.12L129.113 110.045L128.251 111.399L129.386 112.534L130.8 111.12ZM132.48 112.8L131.066 114.214L132.401 115.55L133.811 114.293L132.48 112.8ZM164.16 6.12L163.844 4.14511L162.188 4.41014L162.16 6.08743L164.16 6.12ZM168.6 2.76L170.561 3.15223L170.998 0.969719L168.781 0.768211L168.6 2.76ZM175.08 26.76L177.08 26.7998L177.12 24.76H175.08V26.76ZM168.72 93.72L167.37 92.2439L167.337 92.2741L167.306 92.3058L168.72 93.72ZM152.04 94.44L152.227 92.4487L150.191 92.2579L150.045 94.2975L152.04 94.44ZM151.92 96.12L149.925 95.9775L149.803 97.6841L151.47 98.0688L151.92 96.12ZM161.76 100.92L163.36 99.72L163.329 99.679L163.296 99.6396L161.76 100.92ZM163.56 110.76H161.56V112.76H163.56V110.76ZM179.4 104.76L177.986 103.346L177.965 103.367L177.945 103.388L179.4 104.76ZM188.64 32.52L188.282 30.5523L186.673 30.8448L186.64 32.4801L188.64 32.52ZM193.8 30.12L195.362 31.3694L196.562 29.869L195.111 28.6096L193.8 30.12ZM181.08 19.08L182.391 17.5696L180.961 16.3284L179.644 17.6884L181.08 19.08ZM173.64 26.76L172.204 25.3684L168.918 28.76H173.64V26.76ZM197.04 110.28H195.04V112.28H197.04V110.28ZM210.72 24V22H208.72V24H210.72ZM233.16 24V26H235.16V24H233.16ZM233.16 20.52H235.16V18.52H233.16V20.52ZM211.32 20.52L210.545 22.3638L210.917 22.52H211.32V20.52ZM197.04 14.52L197.815 12.6761L195.04 11.5103V14.52H197.04ZM201.28 92.52V96H205.28V92.52H201.28ZM203.28 98H232.44V94H203.28V98ZM234.44 96V92.52H230.44V96H234.44ZM232.44 90.52H203.28V94.52H232.44V90.52ZM223.36 20.52V108.12H227.36V20.52H223.36ZM225.36 110.12H227.64V106.12H225.36V110.12ZM227.64 110.12C230.684 110.12 233.957 109.068 236.427 107.904C237.677 107.316 238.8 106.662 239.651 106.029C240.072 105.716 240.477 105.37 240.803 105.003C241.062 104.711 241.556 104.097 241.632 103.261L237.648 102.899C237.694 102.393 237.956 102.184 237.81 102.348C237.732 102.437 237.56 102.599 237.263 102.82C236.678 103.255 235.798 103.779 234.723 104.286C232.543 105.312 229.876 106.12 227.64 106.12V110.12ZM241.64 103.08V26.4H237.64V103.08H241.64ZM240.103 28.3456C242.821 27.6984 245.017 26.5849 246.259 24.9879L243.101 22.5321C242.663 23.0951 241.499 23.9015 239.177 24.4544L240.103 28.3456ZM245.919 22.1902L232.239 11.3902L229.761 14.5298L243.441 25.3298L245.919 22.1902ZM229.517 11.6182L222.677 19.1782L225.643 21.8618L232.483 14.3018L229.517 11.6182ZM224.16 22.52H225.36V18.52H224.16V22.52ZM132.016 27.372L133.096 30.732L136.904 29.508L135.824 26.148L132.016 27.372ZM135 32.12H180.12V28.12H135V32.12ZM182.12 30.12V26.76H178.12V30.12H182.12ZM180.12 24.76H133.92V28.76H180.12V24.76ZM148.12 1.08C148.12 38.8477 149.613 77.8825 129.113 110.045L132.487 112.195C153.747 78.8375 152.12 38.4323 152.12 1.08H148.12ZM129.386 112.534L131.066 114.214L133.894 111.386L132.214 109.706L129.386 112.534ZM133.811 114.293C166.748 84.9195 165.564 42.733 166.16 6.15257L162.16 6.08743C161.556 43.187 162.532 83.3205 131.149 111.307L133.811 114.293ZM164.476 8.09488C166.132 7.82987 167.546 7.36046 168.624 6.49342C169.768 5.57249 170.315 4.38473 170.561 3.15223L166.639 2.36777C166.525 2.93526 166.352 3.1875 166.116 3.37657C165.814 3.61953 165.188 3.93012 163.844 4.14511L164.476 8.09488ZM168.781 0.768211L150.301 -0.911789L149.939 3.07178L168.419 4.75179L168.781 0.768211ZM173.08 26.7202C172.66 47.844 172.121 63.5614 171.168 74.4658C170.69 79.9231 170.115 84.1055 169.419 87.1285C169.07 88.6392 168.703 89.8094 168.328 90.6817C167.944 91.5729 167.602 92.0322 167.37 92.2439L170.07 95.1961C170.888 94.4478 171.506 93.4146 172.002 92.2639C172.505 91.0943 172.937 89.6733 173.316 88.0265C174.075 84.7345 174.67 80.3369 175.152 74.8142C176.119 63.7586 176.66 47.916 177.08 26.7998L173.08 26.7202ZM167.306 92.3058C166.907 92.705 166.594 92.9101 166.259 93.0394C165.905 93.1764 165.39 93.28 164.52 93.28V97.28C165.69 97.28 166.735 97.1436 167.701 96.7706C168.686 96.3899 169.453 95.815 170.134 95.1342L167.306 92.3058ZM164.52 93.28C162.23 93.28 156.083 92.8103 152.227 92.4487L151.853 96.4313C155.677 96.7897 162.01 97.28 164.52 97.28V93.28ZM150.045 94.2975L149.925 95.9775L153.915 96.2625L154.035 94.5825L150.045 94.2975ZM151.47 98.0688C156.048 99.1251 158.859 100.563 160.224 102.2L163.296 99.6396C161.061 96.9568 157.152 95.2749 152.37 94.1712L151.47 98.0688ZM160.16 102.12C160.609 102.718 160.983 103.653 161.227 105.131C161.47 106.602 161.56 108.451 161.56 110.76H165.56C165.56 108.389 165.47 106.278 165.173 104.479C164.877 102.687 164.351 101.042 163.36 99.72L160.16 102.12ZM163.56 112.76C170.42 112.76 176.414 110.842 180.855 106.132L177.945 103.388C174.466 107.078 169.66 108.76 163.56 108.76V112.76ZM180.814 106.174C184.644 102.344 186.755 95.6709 188.12 84.4515C189.499 73.116 190.16 56.6078 190.64 32.5599L186.64 32.4801C186.16 56.5522 185.501 72.864 184.15 83.9685C182.785 95.1891 180.756 100.576 177.986 103.346L180.814 106.174ZM188.998 34.4877C191.784 33.9812 193.942 33.1438 195.362 31.3694L192.238 28.8706C191.738 29.4962 190.776 30.0988 188.282 30.5523L188.998 34.4877ZM195.111 28.6096L182.391 17.5696L179.769 20.5904L192.489 31.6304L195.111 28.6096ZM179.644 17.6884L172.204 25.3684L175.076 28.1516L182.516 20.4716L179.644 17.6884ZM173.64 28.76H175.08V24.76H173.64V28.76ZM195.04 20.52V110.28H199.04V20.52H195.04ZM197.04 112.28H199.44V108.28H197.04V112.28ZM199.44 112.28C202.781 112.28 205.901 111.384 208.214 110.244C209.368 109.675 210.388 109.014 211.153 108.311C211.535 107.961 211.898 107.561 212.177 107.115C212.446 106.685 212.72 106.08 212.72 105.36H208.72C208.72 105.06 208.829 104.924 208.786 104.993C208.753 105.045 208.656 105.174 208.449 105.364C208.037 105.742 207.362 106.205 206.446 106.656C204.619 107.556 202.099 108.28 199.44 108.28V112.28ZM212.72 105.36V24H208.72V105.36H212.72ZM210.72 26H233.16V22H210.72V26ZM235.16 24V20.52H231.16V24H235.16ZM233.16 18.52H211.32V22.52H233.16V18.52ZM212.095 18.6761L197.815 12.6761L196.265 16.3638L210.545 22.3638L212.095 18.6761ZM195.04 14.52V20.52H199.04V14.52H195.04ZM278.76 20.76L280.2 19.3717L279.266 18.4035L278.017 18.903L278.76 20.76ZM276.96 21.48L276.217 19.623L274.96 20.1259V21.48H276.96ZM277.8 29.76L279.734 29.251L279.73 29.2358L279.726 29.2207L277.8 29.76ZM299.4 39L299.885 40.9403L299.897 40.9373L299.909 40.9341L299.4 39ZM341.88 33L339.94 32.5149L339.933 32.54L339.928 32.5652L341.88 33ZM279.48 106.08L278.552 104.308L276.704 105.276L277.749 107.082L279.48 106.08ZM280.8 108.36L279.069 109.362L279.877 110.757L281.411 110.264L280.8 108.36ZM356.04 43.92L354.251 43.0256L354.245 43.0374L356.04 43.92ZM335.76 22.44L335.341 20.4844L335.33 20.4868L335.318 20.4894L335.76 22.44ZM351.88 13.68C351.88 22.2482 358.679 28.88 367.2 28.88V24.88C360.841 24.88 355.88 19.9918 355.88 13.68H351.88ZM367.2 28.88C375.613 28.88 382.4 22.2364 382.4 13.68H378.4C378.4 20.0035 373.427 24.88 367.2 24.88V28.88ZM382.4 13.68C382.4 5.12355 375.613 -1.52 367.2 -1.52V2.48C373.427 2.48 378.4 7.35645 378.4 13.68H382.4ZM367.2 -1.52C358.679 -1.52 351.88 5.11178 351.88 13.68H355.88C355.88 7.36821 360.841 2.48 367.2 2.48V-1.52ZM360.8 13.68C360.8 10.1421 363.587 7.39999 367.2 7.39999V3.39999C361.453 3.39999 356.8 7.85791 356.8 13.68H360.8ZM367.2 7.39999C370.674 7.39999 373.48 10.1235 373.48 13.68H377.48C377.48 7.87652 372.846 3.39999 367.2 3.39999V7.39999ZM373.48 13.68C373.48 17.2365 370.674 19.96 367.2 19.96V23.96C372.846 23.96 377.48 19.4835 377.48 13.68H373.48ZM367.2 19.96C363.587 19.96 360.8 17.2179 360.8 13.68H356.8C356.8 19.5021 361.453 23.96 367.2 23.96V19.96ZM289.44 25C285.962 25 283.517 22.8118 280.2 19.3717L277.32 22.1483C280.483 25.4282 284.038 29 289.44 29V25ZM278.017 18.903L276.217 19.623L277.703 23.337L279.503 22.6169L278.017 18.903ZM274.96 21.48C274.96 24.6001 274.952 27.0079 275.874 30.2993L279.726 29.2207C278.967 26.5121 278.96 24.5999 278.96 21.48H274.96ZM275.866 30.269C276.583 32.993 278.741 36.3734 281.31 39.0383C282.618 40.394 284.101 41.6385 285.665 42.5553C287.214 43.4637 288.962 44.12 290.76 44.12V40.12C289.918 40.12 288.876 39.8012 287.688 39.1047C286.514 38.4165 285.312 37.426 284.19 36.2617C281.899 33.8866 280.217 31.087 279.734 29.251L275.866 30.269ZM290.76 44.12C292.646 44.12 294.463 43.3146 295.892 42.6371C297.485 41.8816 298.695 41.2377 299.885 40.9403L298.915 37.0597C297.225 37.4823 295.495 38.3984 294.178 39.0229C292.697 39.7254 291.634 40.12 290.76 40.12V44.12ZM299.909 40.9341C303.268 40.0503 311.529 38.1999 319.984 36.5688C328.512 34.9236 336.95 33.56 340.8 33.56V29.56C336.49 29.56 327.648 31.0164 319.226 32.6412C310.731 34.2801 302.372 36.1497 298.891 37.0658L299.909 40.9341ZM340.8 33.56C340.888 33.56 340.52 33.5843 340.193 33.1812C339.846 32.7546 339.973 32.3823 339.94 32.5149L343.82 33.4851C344.027 32.6577 344.034 31.5653 343.297 30.6588C342.58 29.7757 341.552 29.56 340.8 29.56V33.56ZM339.928 32.5652C334.203 58.2682 310.913 87.3575 278.552 104.308L280.408 107.852C313.567 90.4825 337.797 60.5318 343.832 33.4348L339.928 32.5652ZM277.749 107.082L279.069 109.362L282.531 107.358L281.211 105.078L277.749 107.082ZM281.411 110.264C320.858 97.6023 343.219 74.5202 357.835 44.8026L354.245 43.0374C340.061 71.8798 318.502 94.1577 280.189 106.456L281.411 110.264ZM357.829 44.8144C358.594 43.2833 359.813 42.3115 361.338 40.82C362.752 39.4372 364.4 37.5832 364.4 34.68H360.4C360.4 35.8568 359.828 36.7028 358.542 37.96C357.367 39.1085 355.406 40.7167 354.251 43.0256L357.829 44.8144ZM364.4 34.68C364.4 33.6959 364.055 32.7291 363.637 31.8918C363.205 31.0254 362.609 30.1309 361.924 29.2491C360.553 27.4837 358.702 25.6164 356.707 23.9173C354.709 22.2165 352.509 20.6351 350.414 19.4669C348.393 18.3403 346.195 17.44 344.28 17.44V21.44C345.125 21.44 346.572 21.9047 348.466 22.9606C350.286 23.9749 352.271 25.3935 354.113 26.9627C355.958 28.5336 357.602 30.2063 358.766 31.7034C359.348 32.4528 359.78 33.1203 360.058 33.6779C360.351 34.2646 360.4 34.5841 360.4 34.68H364.4ZM344.28 17.44C342.07 17.44 340.828 18.1321 339.66 18.797C338.648 19.3734 337.566 20.0076 335.341 20.4844L336.179 24.3956C338.994 23.7924 340.492 22.9266 341.64 22.273C342.632 21.7079 343.13 21.44 344.28 21.44V17.44ZM335.318 20.4894C332.283 21.1766 323.237 22.3063 313.616 23.27C304.021 24.231 294.126 25 289.44 25V29C294.354 29 304.439 28.209 314.014 27.25C323.563 26.2937 332.877 25.1434 336.202 24.3906L335.318 20.4894ZM482.88 80.04L482.784 82.0377L484.422 82.1165L484.82 80.5251L482.88 80.04ZM490.44 47.88L488.488 47.4461L488.486 47.4526L490.44 47.88ZM469.44 28.32L469.164 26.3392L469.137 26.3428L469.111 26.3472L469.44 28.32ZM426.72 32.52L426.619 30.5226L424.72 30.6187V32.52H426.72ZM426.72 35.4H424.72V36.4065L425.528 37.0062L426.72 35.4ZM447.84 39.12L448.096 41.1035L448.112 41.1015L448.128 41.0992L447.84 39.12ZM470.4 79.44L468.437 79.0578L467.995 81.3267L470.304 81.4377L470.4 79.44ZM409.68 25.32L409.549 23.3243L408.444 23.3967L407.919 24.3718L409.68 25.32ZM408.84 26.88L407.079 25.9318L406.333 27.3174L407.504 28.3685L408.84 26.88ZM416.4 37.68L418.357 37.2666L418.355 37.2563L418.352 37.2461L416.4 37.68ZM432.72 80.76H434.72V80.7326L434.719 80.7052L432.72 80.76ZM431.64 35.64L429.642 35.7351L429.642 35.7399L431.64 35.64ZM429.84 30.96L428.546 32.4846L428.582 32.5158L428.621 32.5452L429.84 30.96ZM428.76 88.68H426.76V90.8398L428.913 90.6741L428.76 88.68ZM428.76 79.32L428.594 77.3269L426.76 77.4797V79.32H428.76ZM484.82 80.5251C487.705 68.9852 490.71 56.006 492.394 48.3074L488.486 47.4526C486.81 55.114 483.815 68.0548 480.94 79.5549L484.82 80.5251ZM492.392 48.3139C492.724 46.8228 493.721 45.8053 495.138 44.42C496.362 43.2236 498.32 41.4171 498.32 38.64H494.32C494.32 39.4629 493.818 40.1164 492.342 41.56C491.059 42.8147 489.116 44.6172 488.488 47.4461L492.392 48.3139ZM498.32 38.64C498.32 36.6707 497.141 34.6358 495.835 32.9335C494.453 31.1329 492.605 29.2978 490.664 27.6611C488.72 26.0212 486.622 24.5301 484.705 23.4366C483.748 22.8901 482.805 22.4257 481.927 22.0928C481.079 21.7712 480.156 21.52 479.28 21.52V25.52C479.454 25.52 479.851 25.5838 480.509 25.8331C481.137 26.0712 481.887 26.4336 482.723 26.9109C484.395 27.8649 486.295 29.2088 488.086 30.7189C489.88 32.2321 491.505 33.862 492.662 35.369C493.894 36.9742 494.32 38.0893 494.32 38.64H498.32ZM479.28 21.52C476.701 21.52 474.961 23.1065 473.736 24.0916C472.416 25.1533 471.182 26.0575 469.164 26.3392L469.716 30.3008C472.858 29.8624 474.804 28.3667 476.244 27.2084C477.779 25.9735 478.379 25.52 479.28 25.52V21.52ZM469.111 26.3472C463.449 27.291 436.049 30.0451 426.619 30.5226L426.821 34.5174C436.351 34.0349 463.911 31.269 469.769 30.2928L469.111 26.3472ZM424.72 32.52V35.4H428.72V32.52H424.72ZM425.528 37.0062C427.43 38.4173 429.534 39.8344 431.583 40.9069C433.575 41.9498 435.76 42.8 437.76 42.8V38.8C436.76 38.8 435.285 38.3302 433.438 37.3631C431.646 36.4256 429.73 35.1427 427.912 33.7938L425.528 37.0062ZM437.76 42.8C439.142 42.8 440.945 42.4483 442.659 42.0999C444.467 41.7321 446.327 41.3318 448.096 41.1035L447.584 37.1364C445.633 37.3881 443.593 37.8279 441.861 38.1801C440.035 38.5517 438.658 38.8 437.76 38.8V42.8ZM448.128 41.0992C454.65 40.1505 467.993 39.08 474 39.08V35.08C467.767 35.08 454.23 36.1695 447.552 37.1408L448.128 41.0992ZM474 39.08C474.188 39.08 474.245 39.1026 474.22 39.0945C474.203 39.0892 474.164 39.0744 474.111 39.0424C474.057 39.0096 473.999 38.9647 473.945 38.9075C473.83 38.7867 473.791 38.6763 473.784 38.6525C473.781 38.6413 473.8 38.7031 473.8 38.88H477.8C477.8 38.076 477.65 36.9999 476.845 36.1525C476.02 35.284 474.916 35.08 474 35.08V39.08ZM473.8 38.88C473.8 44.7935 471.074 65.5118 468.437 79.0578L472.363 79.8222C475.006 66.2482 477.8 45.2065 477.8 38.88H473.8ZM470.304 81.4377L482.784 82.0377L482.976 78.0423L470.496 77.4423L470.304 81.4377ZM407.919 24.3718L407.079 25.9318L410.601 27.8282L411.441 26.2682L407.919 24.3718ZM407.504 28.3685C409.837 30.4621 411.346 31.9606 412.396 33.4087C413.404 34.8001 414.021 36.1923 414.448 38.1139L418.352 37.2461C417.819 34.8477 416.996 32.9399 415.634 31.0613C414.314 29.2394 412.523 27.4979 410.176 25.3915L407.504 28.3685ZM414.443 38.0934C416.208 46.4453 418 68.2617 418 74.88H422C422 68.0583 420.192 45.9547 418.357 37.2666L414.443 38.0934ZM418 74.88C418 76.9752 417.883 79.1421 417.763 81.2142C417.645 83.2547 417.52 85.2471 417.52 86.88H421.52C421.52 85.3928 421.635 83.5453 421.757 81.4457C421.877 79.3779 422 77.1048 422 74.88H418ZM417.52 86.88C417.52 90.0507 418.546 93.1518 420.193 95.4986C421.812 97.807 424.266 99.68 427.2 99.68V95.68C426.054 95.68 424.668 94.913 423.467 93.2014C422.294 91.5282 421.52 89.2293 421.52 86.88H417.52ZM427.2 99.68C429.933 99.68 432.011 98.6149 433.327 96.7725C434.565 95.04 434.96 92.856 434.96 90.84H430.96C430.96 92.424 430.635 93.66 430.073 94.4475C429.589 95.1252 428.787 95.68 427.2 95.68V99.68ZM434.96 90.84C434.96 88.6413 434.899 86.8711 434.839 85.2746C434.778 83.6719 434.72 82.2741 434.72 80.76H430.72C430.72 82.3659 430.782 83.8481 430.841 85.4254C430.901 87.0089 430.96 88.7187 430.96 90.84H434.96ZM434.719 80.7052C434.481 72.0142 433.999 42.7654 433.638 35.5401L429.642 35.7399C430.001 42.9146 430.479 71.9858 430.721 80.8148L434.719 80.7052ZM433.638 35.5449C433.581 34.3528 433.521 33.183 433.173 32.1605C432.772 30.9822 432.056 30.1412 431.059 29.3747L428.621 32.5452C429.184 32.9788 429.308 33.2178 429.387 33.4495C429.519 33.837 429.579 34.4072 429.642 35.7351L433.638 35.5449ZM431.134 29.4354C424.212 23.5579 417.118 22.8279 409.549 23.3243L409.811 27.3157C416.882 26.8521 422.748 27.562 428.546 32.4846L431.134 29.4354ZM428.913 90.6741C442.948 89.5945 459.083 88.64 469.2 88.64V84.64C458.917 84.64 442.652 85.6055 428.607 86.6859L428.913 90.6741ZM469.2 88.64C472.462 88.64 475.654 88.9022 478.587 89.1716C481.467 89.4361 484.202 89.72 486.36 89.72V85.72C484.438 85.72 481.953 85.4639 478.953 85.1884C476.006 84.9178 472.658 84.64 469.2 84.64V88.64ZM486.36 89.72C488.671 89.72 490.63 88.9592 491.994 87.4614C493.33 85.9939 493.88 84.0538 493.88 82.08H489.88C489.88 83.3461 489.53 84.2261 489.036 84.7686C488.57 85.2808 487.769 85.72 486.36 85.72V89.72ZM493.88 82.08C493.88 79.046 491.83 76.7962 489.536 75.4162C487.206 74.0147 484.235 73.24 481.44 73.24V77.24C483.565 77.24 485.814 77.8453 487.474 78.8438C489.17 79.8638 489.88 81.034 489.88 82.08H493.88ZM481.44 73.24C471.129 73.24 442.868 76.1374 428.594 77.3269L428.926 81.3131C443.452 80.1026 471.351 77.24 481.44 77.24V73.24ZM426.76 79.32V88.68H430.76V79.32H426.76ZM558.6 12.72L557.818 10.8793L556.51 11.4352L556.604 12.853L558.6 12.72ZM558.72 14.52L556.724 14.653L556.817 16.0371L558.145 16.4356L558.72 14.52ZM568.56 20.4L570.552 20.2189L570.548 20.18L570.543 20.1413L568.56 20.4ZM568.8 51.96L570.8 51.9882L570.8 51.9833L568.8 51.96ZM568.44 81.72H566.44L566.44 81.7336L568.44 81.72ZM623.28 99L623.775 100.938L623.782 100.936L623.28 99ZM579.6 78.12H581.6V78.1121L581.6 78.1041L579.6 78.12ZM582.72 28.56L584.697 28.8641L584.698 28.8567L582.72 28.56ZM533.76 46.32L535.237 44.9715L534.316 43.9632L533.042 44.4533L533.76 46.32ZM532.2 46.92L531.482 45.0533L530.299 45.5083L530.205 46.7723L532.2 46.92ZM532.8 55.68L530.962 56.4678L530.964 56.4738L532.8 55.68ZM557.76 61.44L558.638 63.2371L558.646 63.233L558.654 63.2289L557.76 61.44ZM574.44 54.48L575.161 56.3456L575.165 56.344L574.44 54.48ZM611.4 42.12L611.729 44.0928L611.774 44.0852L611.819 44.0756L611.4 42.12ZM613.08 44.16L611.291 43.2656L611.285 43.2776L611.279 43.2897L613.08 44.16ZM596.52 68.52L594.98 67.244L593.818 68.6464L595.106 69.9342L596.52 68.52ZM598.2 70.2L596.786 71.6142L597.863 72.6916L599.188 71.9389L598.2 70.2ZM625.68 50.76L626.97 52.2886L626.992 52.2699L627.014 52.2505L625.68 50.76ZM609.48 34.44L610.025 36.3643L610.043 36.3593L610.06 36.354L609.48 34.44ZM573.48 44.76L574.017 46.6866L574.031 46.6826L574.046 46.6783L573.48 44.76ZM556.604 12.853L556.724 14.653L560.716 14.387L560.596 12.587L556.604 12.853ZM558.145 16.4356C561.176 17.3448 563.348 18.0726 564.804 18.8594C566.238 19.6347 566.519 20.2167 566.577 20.6587L570.543 20.1413C570.241 17.8233 568.602 16.3653 566.706 15.3406C564.832 14.3274 562.264 13.4951 559.295 12.6043L558.145 16.4356ZM566.568 20.5811C567.036 25.7303 566.921 41.5505 566.8 51.9367L570.8 51.9833C570.919 41.7295 571.044 25.6297 570.552 20.2189L566.568 20.5811ZM566.8 51.9318C566.68 60.4341 566.44 73.9012 566.44 81.72H570.44C570.44 73.9388 570.68 60.5259 570.8 51.9882L566.8 51.9318ZM566.44 81.7336C566.501 90.7641 568.469 96.6829 574.028 100.011C576.681 101.6 579.986 102.486 583.894 102.992C587.81 103.498 592.484 103.64 597.96 103.64V99.64C592.516 99.64 588.055 99.4967 584.407 99.0247C580.752 98.5516 578.064 97.7654 576.082 96.579C572.371 94.3571 570.499 90.3159 570.44 81.7064L566.44 81.7336ZM597.96 103.64C605.257 103.64 617.917 102.433 623.775 100.938L622.785 97.0622C617.363 98.4466 605.063 99.64 597.96 99.64V103.64ZM623.782 100.936C625.48 100.496 627.373 99.8341 628.853 98.5714C630.435 97.2212 631.4 95.3096 631.4 92.76H627.4C627.4 94.1704 626.925 94.9588 626.257 95.5286C625.487 96.1859 624.32 96.6643 622.778 97.064L623.782 100.936ZM631.4 92.76C631.4 89.1852 628.761 86.9816 626.061 85.7743C623.317 84.5468 619.929 84.04 617.04 84.04V88.04C619.551 88.04 622.343 88.4932 624.429 89.4258C626.559 90.3784 627.4 91.5348 627.4 92.76H631.4ZM617.04 84.04C616.589 84.04 616.086 84.1538 615.729 84.2394C615.313 84.339 614.794 84.4794 614.22 84.6327C613.05 84.9451 611.499 85.3536 609.537 85.762C605.619 86.5777 600.026 87.4 592.68 87.4V91.4C600.334 91.4 606.201 90.5423 610.353 89.678C612.426 89.2464 614.062 88.8149 615.252 88.4973C615.857 88.3356 616.309 88.2135 616.661 88.1294C617.071 88.0312 617.131 88.04 617.04 88.04V84.04ZM592.68 87.4C589.888 87.4 587.805 87.3378 586.212 87.1091C584.618 86.8801 583.75 86.5131 583.219 86.0804C582.732 85.6827 582.314 85.0517 582.023 83.7881C581.723 82.4797 581.6 80.6749 581.6 78.12H577.6C577.6 80.7251 577.717 82.9103 578.125 84.6844C578.543 86.5033 579.303 88.0473 580.691 89.1796C582.035 90.2769 583.739 90.7949 585.644 91.0684C587.55 91.3422 589.892 91.4 592.68 91.4V87.4ZM581.6 78.1041C581.481 63.0782 583.515 36.5461 584.697 28.8641L580.743 28.2559C579.525 36.1739 577.479 62.9218 577.6 78.1359L581.6 78.1041ZM584.698 28.8567C585 26.8451 585.706 25.5876 586.471 24.2341C587.244 22.8676 588.2 21.2219 588.2 18.84H584.2C584.2 20.0581 583.776 20.8724 582.989 22.2659C582.194 23.6724 581.16 25.4749 580.742 28.2633L584.698 28.8567ZM588.2 18.84C588.2 17.1382 587.232 15.5977 586.158 14.4023C585.032 13.1484 583.513 11.9651 581.836 10.9494C578.516 8.9378 574.197 7.36 570.36 7.36V11.36C573.243 11.36 576.844 12.6022 579.764 14.3706C581.207 15.2449 582.388 16.1916 583.182 17.0752C584.028 18.0173 584.2 18.6218 584.2 18.84H588.2ZM570.36 7.36C566.903 7.36 562.596 8.8486 557.818 10.8793L559.382 14.5607C564.204 12.5114 567.817 11.36 570.36 11.36V7.36ZM533.042 44.4533L531.482 45.0533L532.918 48.7867L534.478 48.1867L533.042 44.4533ZM530.205 46.7723C529.977 49.8622 529.65 53.4076 530.962 56.4678L534.638 54.8922C533.79 52.9124 533.943 50.4578 534.195 47.0677L530.205 46.7723ZM530.964 56.4738C532.123 59.1532 534.896 62.0755 537.763 64.2725C539.231 65.3968 540.806 66.396 542.338 67.1227C543.836 67.8329 545.453 68.36 546.96 68.36V64.36C546.307 64.36 545.314 64.1071 544.052 63.5085C542.824 62.9264 541.489 62.0882 540.196 61.0975C537.544 59.0645 535.397 56.6468 534.636 54.8862L530.964 56.4738ZM546.96 68.36C549.541 68.36 551.308 67.589 553.026 66.5615C554.756 65.5273 556.148 64.4531 558.638 63.2371L556.882 59.6429C554.212 60.9469 552.304 62.3327 550.974 63.1285C549.632 63.931 548.579 64.36 546.96 64.36V68.36ZM558.654 63.2289C563.349 60.8814 569.844 58.3999 575.161 56.3456L573.719 52.6144C568.476 54.6401 561.771 57.1986 556.866 59.6511L558.654 63.2289ZM575.165 56.344C579.466 54.6713 586.883 51.8901 594.116 49.3794C601.417 46.845 608.328 44.6595 611.729 44.0928L611.071 40.1472C607.272 40.7805 600.023 43.095 592.804 45.6006C585.517 48.1299 578.054 50.9287 573.715 52.616L575.165 56.344ZM611.819 44.0756C612.046 44.0269 612.112 44.0524 612.059 44.0411C611.989 44.0264 611.771 43.9551 611.578 43.7144C611.384 43.4713 611.356 43.2301 611.358 43.1309C611.36 43.0504 611.378 43.0914 611.291 43.2656L614.869 45.0544C615.373 44.0468 615.722 42.4909 614.702 41.2156C613.695 39.9575 612.108 39.923 610.981 40.1644L611.819 44.0756ZM611.279 43.2897C607.9 50.282 601.893 58.9001 594.98 67.244L598.06 69.796C605.067 61.3399 611.3 52.438 614.881 45.0303L611.279 43.2897ZM595.106 69.9342L596.786 71.6142L599.614 68.7858L597.934 67.1058L595.106 69.9342ZM599.188 71.9389C609.886 65.8605 619.228 58.8207 626.97 52.2886L624.39 49.2314C616.772 55.6593 607.634 62.5395 597.212 68.4611L599.188 71.9389ZM627.014 52.2505C627.404 51.9009 628.019 51.5128 628.878 51.0297C629.661 50.5898 630.696 50.0453 631.595 49.4984C632.508 48.9426 633.495 48.2615 634.265 47.4134C635.056 46.5423 635.72 45.3793 635.72 43.92H631.72C631.72 44.0807 631.664 44.3277 631.304 44.7241C630.923 45.1435 630.327 45.5874 629.515 46.0816C628.689 46.5847 627.857 47.0152 626.918 47.5428C626.056 48.0272 625.096 48.5991 624.346 49.2695L627.014 52.2505ZM635.72 43.92C635.72 42.9757 635.401 42.0655 635.011 41.2834C634.609 40.4787 634.059 39.6647 633.433 38.8748C632.179 37.2943 630.498 35.6572 628.704 34.1842C626.907 32.7086 624.936 31.3489 623.075 30.3466C621.292 29.3865 619.332 28.6 617.64 28.6V32.6C618.288 32.6 619.508 32.9685 621.179 33.8684C622.771 34.7261 624.528 35.9314 626.166 37.2758C627.807 38.6228 629.268 40.0607 630.299 41.3602C630.814 42.0103 631.191 42.5875 631.431 43.0691C631.683 43.5732 631.72 43.8443 631.72 43.92H635.72ZM617.64 28.6C615.687 28.6 614.145 29.6456 613 30.3997C611.748 31.2244 610.564 32.0217 608.9 32.5259L610.06 36.354C612.356 35.6583 613.992 34.5356 615.2 33.7403C616.515 32.8744 617.073 32.6 617.64 32.6V28.6ZM608.935 32.5157C601.738 34.5547 582.287 40.078 572.914 42.8417L574.046 46.6783C583.393 43.922 602.822 38.4053 610.025 36.3643L608.935 32.5157ZM572.943 42.8334C569.255 43.8614 562.874 45.7104 556.759 47.3101C553.704 48.1092 550.743 48.839 548.243 49.3677C545.686 49.9085 543.784 50.2 542.76 50.2V54.2C544.256 54.2 546.539 53.8165 549.071 53.2811C551.66 52.7335 554.691 51.9857 557.771 51.1799C563.926 49.5696 570.385 47.6986 574.017 46.6866L572.943 42.8334ZM542.76 50.2C541.361 50.2 540.163 49.6655 538.951 48.7189C537.68 47.726 536.567 46.428 535.237 44.9715L532.283 47.6685C533.473 48.972 534.88 50.614 536.489 51.871C538.157 53.1745 540.199 54.2 542.76 54.2V50.2ZM681.6 20.4L680.798 18.5677L679.694 19.0506L679.605 20.2523L681.6 20.4ZM682.44 29.16L680.517 29.7094L680.529 29.7512L680.543 29.7924L682.44 29.16ZM703.56 36.36L704.192 38.2574L704.209 38.2518L704.226 38.246L703.56 36.36ZM729.84 29.28L729.659 27.2882L729.65 27.289L729.641 27.2899L729.84 29.28ZM731.16 31.44L733.008 32.2039L733.013 32.1934L733.017 32.1828L731.16 31.44ZM663.6 100.2L662.682 98.4234L660.789 99.4019L661.885 101.229L663.6 100.2ZM665.04 102.6L663.325 103.629L664.128 104.966L665.62 104.514L665.04 102.6ZM725.4 64.08L723.967 62.6853L723.963 62.6889L725.4 64.08ZM745.32 37.2L746.956 38.351L746.978 38.3192L746.999 38.2865L745.32 37.2ZM728.76 21.12L729.207 23.0695L729.217 23.0672L729.227 23.0648L728.76 21.12ZM683.52 19.56L685.065 18.2905L684.105 17.1211L682.718 17.7277L683.52 19.56ZM719.4 62.88L717.838 61.6306L716.368 63.4682L718.419 64.6228L719.4 62.88ZM745.2 90.84L743.489 91.8748L743.507 91.905L743.526 91.9345L745.2 90.84ZM721.32 60.48L721.81 58.541L720.562 58.2256L719.758 59.2306L721.32 60.48ZM679.605 20.2523C679.348 23.7257 679.732 26.9618 680.517 29.7094L684.363 28.6105C683.708 26.3182 683.372 23.5543 683.595 20.5477L679.605 20.2523ZM680.543 29.7924C681.376 32.2939 683.332 35.3955 685.747 37.8755C688.11 40.3012 691.333 42.56 694.8 42.56V38.56C692.987 38.56 690.75 37.2788 688.613 35.0845C686.528 32.9445 684.944 30.3461 684.337 28.5275L680.543 29.7924ZM694.8 42.56C697.187 42.56 698.819 41.5264 700.15 40.5916C701.503 39.6413 702.554 38.8037 704.192 38.2574L702.928 34.4626C700.606 35.2363 699.018 36.4986 697.85 37.3184C696.661 38.1536 695.893 38.56 694.8 38.56V42.56ZM704.226 38.246C707.225 37.1873 712.547 35.5511 717.728 34.1176C722.971 32.6671 727.84 31.4899 730.039 31.2701L729.641 27.2899C727.04 27.5501 721.829 28.8329 716.662 30.2624C711.433 31.7089 706.015 33.3727 702.894 34.474L704.226 38.246ZM730.021 31.2718C730.237 31.2521 730.296 31.2721 730.251 31.2618C730.192 31.2479 729.917 31.1665 729.682 30.8629C729.444 30.5541 729.444 30.271 729.445 30.2377C729.446 30.2261 729.438 30.3608 729.303 30.6972L733.017 32.1828C733.399 31.2273 733.822 29.6787 732.848 28.4171C732.358 27.7835 731.701 27.4921 731.157 27.3657C730.629 27.2429 730.103 27.2479 729.659 27.2882L730.021 31.2718ZM729.312 30.6761C724.584 42.1149 714.959 55.4348 702.924 67.7523C690.904 80.0547 676.612 91.2219 662.682 98.4234L664.518 101.977C678.908 94.5381 693.536 83.0853 705.786 70.5477C718.021 58.0252 728.016 44.2851 733.008 32.2039L729.312 30.6761ZM661.885 101.229L663.325 103.629L666.755 101.571L665.315 99.171L661.885 101.229ZM665.62 104.514C696.587 95.1263 715.835 76.8354 726.837 65.4711L723.963 62.6889C713.125 73.8846 694.453 91.5937 664.46 100.686L665.62 104.514ZM726.833 65.4747C735.621 56.4435 742.538 44.628 746.956 38.351L743.684 36.049C738.982 42.732 732.459 53.9565 723.967 62.6853L726.833 65.4747ZM746.999 38.2865C747.101 38.1295 747.409 37.8246 748.124 37.3167C748.453 37.0827 748.812 36.8427 749.214 36.5738C749.607 36.3111 750.035 36.0241 750.457 35.7225C751.286 35.1306 752.207 34.4033 752.928 33.5202C753.664 32.6174 754.28 31.4421 754.28 30H750.28C750.28 30.2379 750.191 30.5476 749.829 30.991C749.451 31.4542 748.879 31.9344 748.133 32.4675C747.767 32.7284 747.388 32.9832 746.99 33.2489C746.603 33.5082 746.191 33.7829 745.805 34.0571C745.091 34.5653 744.199 35.2505 743.641 36.1135L746.999 38.2865ZM754.28 30C754.28 29.0783 753.973 28.1862 753.598 27.4183C753.212 26.6273 752.682 25.824 752.076 25.042C750.864 23.4773 749.232 21.8491 747.472 20.3797C745.709 18.9081 743.759 17.5471 741.884 16.5427C740.073 15.5723 738.087 14.8 736.32 14.8V18.8C737.073 18.8 738.342 19.1827 739.996 20.0686C741.586 20.9204 743.311 22.1168 744.908 23.4503C746.508 24.7859 747.921 26.2102 748.914 27.4917C749.411 28.1329 749.773 28.7011 750.004 29.1734C750.246 29.6688 750.28 29.9317 750.28 30H754.28ZM736.32 14.8C735.202 14.8 734.246 15.2011 733.483 15.6502C732.734 16.0909 732.034 16.6634 731.447 17.1473C730.133 18.2312 729.25 18.9455 728.293 19.1752L729.227 23.0648C731.27 22.5745 732.907 21.1288 733.993 20.2327C734.606 19.7266 735.076 19.3541 735.512 19.0973C735.934 18.8489 736.178 18.8 736.32 18.8V14.8ZM728.313 19.1705C725.486 19.8185 718.839 21.1309 711.845 22.2815C704.806 23.4397 697.612 24.4 693.6 24.4V28.4C697.988 28.4 705.494 27.3802 712.495 26.2285C719.541 25.0691 726.274 23.7415 729.207 23.0695L728.313 19.1705ZM693.6 24.4C692.159 24.4 690.752 23.7914 689.29 22.659C687.815 21.5166 686.435 19.9583 685.065 18.2905L681.975 20.8295C683.365 22.5217 684.984 24.3834 686.84 25.821C688.708 27.2686 690.961 28.4 693.6 28.4V24.4ZM682.718 17.7277L680.798 18.5677L682.402 22.2323L684.322 21.3923L682.718 17.7277ZM718.419 64.6228C732.19 72.3765 737.238 81.5377 743.489 91.8748L746.911 89.8052C740.682 79.5023 735.17 69.4635 720.381 61.1372L718.419 64.6228ZM743.526 91.9345C745.563 95.0503 747.456 97.7118 749.529 99.5842C751.678 101.524 754.087 102.68 757.08 102.68V98.68C755.273 98.68 753.782 98.0356 752.211 96.6158C750.564 95.1282 748.917 92.8697 746.874 89.7455L743.526 91.9345ZM757.08 102.68C763.122 102.68 766.52 97.4279 766.52 93H762.52C762.52 95.7721 760.398 98.68 757.08 98.68V102.68ZM766.52 93C766.52 84.6717 760.483 77.3998 752.252 71.6778C743.933 65.8953 732.895 61.3426 721.81 58.541L720.83 62.419C731.585 65.1374 742.147 69.5247 749.968 74.9622C757.877 80.4602 762.52 86.6883 762.52 93H766.52ZM719.758 59.2306L717.838 61.6306L720.962 64.1294L722.882 61.7294L719.758 59.2306Z" fill="#C2724A"></path></svg>