<svg width="548" height="121" viewBox="0 0 548 121" fill="none" xmlns="http://www.w3.org/2000/svg"><path opacity="0.3" d="M78.232 98.888V97.888H77.232V98.888H78.232ZM78.232 102.6H77.232V103.6H78.232V102.6ZM109.336 102.6V103.6H110.336V102.6H109.336ZM109.336 98.888H110.336V97.888H109.336V98.888ZM101.784 22.088H102.784V21.088H101.784V22.088ZM101.784 115.528H100.784V116.528H101.784V115.528ZM117.016 110.152L118.012 110.243L118.016 110.197V110.152H117.016ZM117.016 28.36L116.784 27.3872L116.016 27.5701V28.36H117.016ZM122.392 25.544L123.181 26.1579L123.791 25.3743L123.012 24.7591L122.392 25.544ZM107.8 14.024L108.42 13.2391L107.686 12.6597L107.058 13.3531L107.8 14.024ZM100.504 22.088L99.7625 21.4171L98.2507 23.088H100.504V22.088ZM4.248 28.744V27.744H2.87618L3.29597 29.05L4.248 28.744ZM5.4 32.328L4.44797 32.634L4.67104 33.328H5.4V32.328ZM53.528 32.328V33.328H54.528V32.328H53.528ZM53.528 28.744H54.528V27.744H53.528V28.744ZM21.528 1.352L21.6185 0.356106L20.528 0.256966V1.352H21.528ZM0.92 118.728L0.0767204 118.191L-0.354741 118.867L0.212893 119.435L0.92 118.728ZM2.712 120.52L2.00489 121.227L2.67271 121.895L3.37757 121.266L2.712 120.52ZM36.504 6.728L36.346 5.74055L35.5178 5.87307L35.5041 6.71171L36.504 6.728ZM41.24 3.144L42.2206 3.34011L42.4388 2.24886L41.3305 2.14811L41.24 3.144ZM48.152 28.744L49.1518 28.7639L49.1721 27.744H48.152V28.744ZM41.368 100.168L40.6932 99.43L40.6767 99.4451L40.6609 99.4609L41.368 100.168ZM23.576 100.936L23.6693 99.9404L22.6514 99.8449L22.5785 100.865L23.576 100.936ZM23.448 102.728L22.4505 102.657L22.3896 103.51L23.2231 103.702L23.448 102.728ZM33.944 107.848L34.744 107.248L34.7286 107.227L34.7122 107.208L33.944 107.848ZM35.864 118.344H34.864V119.344H35.864V118.344ZM52.76 111.944L52.0529 111.237L52.0425 111.247L52.0324 111.258L52.76 111.944ZM62.616 34.888L62.4371 33.9041L61.6325 34.0504L61.6162 34.868L62.616 34.888ZM68.12 32.328L68.9009 32.9527L69.501 32.2025L68.7755 31.5728L68.12 32.328ZM54.552 20.552L55.2075 19.7968L54.4925 19.1762L53.8338 19.8562L54.552 20.552ZM46.616 28.744L45.8978 28.0482L44.255 29.744H46.616V28.744ZM71.576 117.832H70.576V118.832H71.576V117.832ZM86.168 25.8V24.8H85.168V25.8H86.168ZM110.104 25.8V26.8H111.104V25.8H110.104ZM110.104 22.088H111.104V21.088H110.104V22.088ZM86.808 22.088L86.4206 23.0099L86.6065 23.088H86.808V22.088ZM71.576 15.688L71.9634 14.7661L70.576 14.1831V15.688H71.576ZM77.232 98.888V102.6H79.232V98.888H77.232ZM78.232 103.6H109.336V101.6H78.232V103.6ZM110.336 102.6V98.888H108.336V102.6H110.336ZM109.336 97.888H78.232V99.888H109.336V97.888ZM100.784 22.088V115.528H102.784V22.088H100.784ZM101.784 116.528H104.216V114.528H101.784V116.528ZM104.216 116.528C107.234 116.528 110.553 115.475 113.106 114.273C114.39 113.668 115.519 113.008 116.351 112.388C116.765 112.08 117.131 111.764 117.408 111.451C117.652 111.176 117.965 110.754 118.012 110.243L116.02 110.061C116.035 109.902 116.1 109.912 115.912 110.124C115.758 110.297 115.509 110.522 115.157 110.784C114.457 111.304 113.45 111.9 112.254 112.463C109.847 113.597 106.83 114.528 104.216 114.528V116.528ZM118.016 110.152V28.36H116.016V110.152H118.016ZM117.248 29.3328C120.035 28.6692 122.084 27.5685 123.181 26.1579L121.603 24.9301C120.908 25.8235 119.373 26.7708 116.784 27.3872L117.248 29.3328ZM123.012 24.7591L108.42 13.2391L107.18 14.8089L121.772 26.3289L123.012 24.7591ZM107.058 13.3531L99.7625 21.4171L101.246 22.7589L108.542 14.6949L107.058 13.3531ZM100.504 23.088H101.784V21.088H100.504V23.088ZM3.29597 29.05L4.44797 32.634L6.35203 32.022L5.20003 28.438L3.29597 29.05ZM5.4 33.328H53.528V31.328H5.4V33.328ZM54.528 32.328V28.744H52.528V32.328H54.528ZM53.528 27.744H4.248V29.744H53.528V27.744ZM20.528 1.352C20.528 41.5199 22.1583 83.5453 0.0767204 118.191L1.76328 119.265C24.2257 84.0227 22.528 41.3121 22.528 1.352H20.528ZM0.212893 119.435L2.00489 121.227L3.41911 119.813L1.62711 118.021L0.212893 119.435ZM3.37757 121.266C38.0702 90.3278 36.866 45.9105 37.5039 6.74428L35.5041 6.71171C34.862 46.1375 35.9618 89.5282 2.04643 119.774L3.37757 121.266ZM36.662 7.71544C38.3401 7.44693 39.6248 6.99123 40.5548 6.24321C41.5182 5.46824 41.9953 4.46636 42.2206 3.34011L40.2594 2.94788C40.1007 3.74163 39.8098 4.27575 39.3012 4.68478C38.7592 5.12076 37.8679 5.49706 36.346 5.74055L36.662 7.71544ZM41.3305 2.14811L21.6185 0.356106L21.4375 2.34789L41.1495 4.13989L41.3305 2.14811ZM47.1522 28.7241C46.7042 51.254 46.1285 68.0547 45.1078 79.7289C44.5972 85.5686 43.978 90.0907 43.2175 93.3915C42.8374 95.0414 42.4275 96.3608 41.9906 97.3755C41.5495 98.3996 41.1066 99.0521 40.6932 99.43L42.0428 100.906C42.7495 100.26 43.3305 99.3204 43.8274 98.1665C44.3285 97.0032 44.7706 95.5585 45.1665 93.8405C45.958 90.4052 46.5868 85.7754 47.1002 79.9031C48.1275 68.1533 48.7038 51.29 49.1518 28.7639L47.1522 28.7241ZM40.6609 99.4609C40.1553 99.9665 39.6929 100.29 39.1516 100.499C38.6003 100.712 37.9011 100.832 36.888 100.832V102.832C38.0509 102.832 39.0157 102.696 39.8724 102.365C40.7391 102.03 41.4287 101.521 42.0751 100.875L40.6609 99.4609ZM36.888 100.832C34.3828 100.832 27.7737 100.325 23.6693 99.9404L23.4827 101.932C27.5703 102.315 34.2733 102.832 36.888 102.832V100.832ZM22.5785 100.865L22.4505 102.657L24.4455 102.799L24.5735 101.007L22.5785 100.865ZM23.2231 103.702C28.1639 104.843 31.4736 106.446 33.1758 108.488L34.7122 107.208C32.5744 104.642 28.7161 102.917 23.6729 101.754L23.2231 103.702ZM33.144 108.448C33.7764 109.291 34.2183 110.489 34.4934 112.155C34.7678 113.817 34.864 115.864 34.864 118.344H36.864C36.864 115.832 36.7682 113.655 36.4666 111.829C36.1657 110.007 35.6476 108.453 34.744 107.248L33.144 108.448ZM35.864 119.344C42.9658 119.344 49.023 117.365 53.4876 112.63L52.0324 111.258C48.049 115.483 42.5862 117.344 35.864 117.344V119.344ZM53.4671 112.651C57.2521 108.866 59.4807 102.112 60.9367 90.1448C62.3997 78.119 63.1039 60.5659 63.6158 34.9079L61.6162 34.868C61.1041 60.5381 60.4003 77.993 58.9513 89.9032C57.4953 101.872 55.3079 107.982 52.0529 111.237L53.4671 112.651ZM62.7949 35.8719C65.684 35.3466 67.6471 34.5199 68.9009 32.9527L67.3391 31.7033C66.5449 32.6961 65.18 33.4054 62.4371 33.9041L62.7949 35.8719ZM68.7755 31.5728L55.2075 19.7968L53.8965 21.3072L67.4645 33.0832L68.7755 31.5728ZM53.8338 19.8562L45.8978 28.0482L47.3342 29.4398L55.2702 21.2478L53.8338 19.8562ZM46.616 29.744H48.152V27.744H46.616V29.744ZM70.576 22.088V117.832H72.576V22.088H70.576ZM71.576 118.832H74.136V116.832H71.576V118.832ZM74.136 118.832C77.5063 118.832 80.6646 117.925 82.994 116.777C84.1575 116.204 85.1476 115.554 85.8639 114.897C86.2218 114.569 86.5331 114.219 86.7611 113.855C86.9842 113.498 87.168 113.063 87.168 112.584H85.168C85.168 112.553 85.1758 112.618 85.0659 112.793C84.9609 112.961 84.7822 113.175 84.5121 113.423C83.9724 113.918 83.1545 114.468 82.11 114.983C80.0234 116.011 77.1657 116.832 74.136 116.832V118.832ZM87.168 112.584V25.8H85.168V112.584H87.168ZM86.168 26.8H110.104V24.8H86.168V26.8ZM111.104 25.8V22.088H109.104V25.8H111.104ZM110.104 21.088H86.808V23.088H110.104V21.088ZM87.1954 21.1661L71.9634 14.7661L71.1886 16.6099L86.4206 23.0099L87.1954 21.1661ZM70.576 15.688V22.088H72.576V15.688H70.576ZM159.256 10.184V9.184H158.256V10.184H159.256ZM159.256 13.768H158.256V14.768H159.256V13.768ZM185.752 13.768V14.768H186.752V13.768H185.752ZM185.752 10.184H186.752V9.184H185.752V10.184ZM159.256 30.536V29.536H158.256V30.536H159.256ZM159.256 34.12H158.256V35.12H159.256V34.12ZM185.752 34.12V35.12H186.752V34.12H185.752ZM185.752 30.536H186.752V29.536H185.752V30.536ZM159.256 51.272V50.272H158.256V51.272H159.256ZM159.256 54.984H158.256V55.984H159.256V54.984ZM185.752 54.984V55.984H186.752V54.984H185.752ZM185.752 51.272H186.752V50.272H185.752V51.272ZM212.632 8.77599V7.77599H211.632V8.77599H212.632ZM212.632 12.36H211.632V13.36H212.632V12.36ZM249.112 12.36V13.36H250.112V12.36H249.112ZM249.112 8.77599H250.112V7.77599H249.112V8.77599ZM212.632 24.008V23.008H211.632V24.008H212.632ZM212.632 27.592H211.632V28.592H212.632V27.592ZM249.112 27.592V28.592H250.112V27.592H249.112ZM249.112 24.008H250.112V23.008H249.112V24.008ZM212.12 39.24V38.24H211.12V39.24H212.12ZM212.12 42.824H211.12V43.824H212.12V42.824ZM249.112 42.824V43.824H250.112V42.824H249.112ZM249.112 39.24H250.112V38.24H249.112V39.24ZM152.6 67.144H151.6V68.144H152.6V67.144ZM166.168 10.184V9.184H165.168V10.184H166.168ZM167.704 10.184V11.184L168.067 9.25229L167.704 10.184ZM152.6 4.296L152.963 3.36429L151.6 2.83287V4.296H152.6ZM181.016 10.184H182.016V9.184H181.016V10.184ZM181.016 62.408H180.016V63.408H181.016V62.408ZM194.712 58.952L195.702 59.0934L195.712 59.0231V58.952H194.712ZM194.712 16.072L194.525 15.0897L193.712 15.2445V16.072H194.712ZM199.96 13.384L200.76 13.984L201.354 13.1923L200.568 12.5903L199.96 13.384ZM186.264 2.88799L186.872 2.09427L186.129 1.52497L185.512 2.22855L186.264 2.88799ZM179.864 10.184L179.112 9.52456L177.657 11.184H179.864V10.184ZM238.872 8.77599H239.872V7.77599H238.872V8.77599ZM223.768 56.392L223.817 55.3932L222.768 55.3414V56.392H223.768ZM223.768 58.056H222.768V58.9315L223.636 59.0472L223.768 58.056ZM233.24 62.024L232.533 62.7311L233.24 62.024ZM235.672 70.472L234.674 70.5408L234.743 71.5409L235.743 71.4695L235.672 70.472ZM253.976 14.664L253.78 13.6834L252.976 13.8442V14.664H253.976ZM258.968 12.104L259.768 12.704L260.37 11.9017L259.566 11.3023L258.968 12.104ZM244.376 1.22399L244.974 0.422306L244.235 -0.128479L243.626 0.56279L244.376 1.22399ZM237.72 8.77599L236.97 8.11479L235.506 9.77599H237.72V8.77599ZM190.872 71.624L190.211 70.8733L189.452 71.5413L190.129 72.293L190.872 71.624ZM192.024 72.904L191.281 73.573L191.754 74.099L192.408 73.8275L192.024 72.904ZM219.544 8.77599V7.77599H218.544V8.77599H219.544ZM221.848 8.77599V9.77599L222.188 7.83557L221.848 8.77599ZM205.208 2.75999L205.548 1.81957L204.208 1.33511V2.75999H205.208ZM144.024 112.84V111.84H142.711L143.06 113.106L144.024 112.84ZM145.048 116.552L144.084 116.818L144.287 117.552H145.048V116.552ZM263.704 114.504L264.669 114.767L264.808 114.257L264.465 113.855L263.704 114.504ZM253.08 103.624L253.767 102.897L252.888 102.067L252.237 103.086L253.08 103.624ZM247.192 112.84V113.84H247.74L248.035 113.378L247.192 112.84ZM184.728 76.488V75.488H183.728V76.488H184.728ZM184.728 114.76H183.728V115.76H184.728V114.76ZM198.424 114.76V115.76H199.424V114.76H198.424ZM198.424 76.488H199.424V75.488H198.424V76.488ZM208.28 76.488V75.488H207.28V76.488H208.28ZM208.28 114.76H207.28V115.76H208.28V114.76ZM221.976 114.76V115.76H222.976V114.76H221.976ZM221.976 76.488H222.976V75.488H221.976V76.488ZM160.664 114.76H159.664V115.76H160.664V114.76ZM174.744 114.76V115.76H175.744V114.76H174.744ZM174.744 80.2V79.2H173.744V80.2H174.744ZM231.96 80.2H232.96V79.2H231.96V80.2ZM231.96 114.76H230.96V115.76H231.96V114.76ZM246.808 114.76V115.76H247.808V114.76H246.808ZM246.808 81.608L246.65 80.6206L245.808 80.7553V81.608H246.808ZM252.568 79.048L253.349 79.6727L254.021 78.8322L253.134 78.2234L252.568 79.048ZM237.08 68.424L237.646 67.5994L236.869 67.0666L236.291 67.8101L237.08 68.424ZM230.808 76.488V77.488H231.297L231.597 77.1019L230.808 76.488ZM176.024 76.488L175.666 77.4217L175.839 77.488H176.024V76.488ZM160.664 70.6L161.022 69.6663L159.664 69.1457V70.6H160.664ZM158.256 10.184V13.768H160.256V10.184H158.256ZM159.256 14.768H185.752V12.768H159.256V14.768ZM186.752 13.768V10.184H184.752V13.768H186.752ZM185.752 9.184H159.256V11.184H185.752V9.184ZM158.256 30.536V34.12H160.256V30.536H158.256ZM159.256 35.12H185.752V33.12H159.256V35.12ZM186.752 34.12V30.536H184.752V34.12H186.752ZM185.752 29.536H159.256V31.536H185.752V29.536ZM158.256 51.272V54.984H160.256V51.272H158.256ZM159.256 55.984H185.752V53.984H159.256V55.984ZM186.752 54.984V51.272H184.752V54.984H186.752ZM185.752 50.272H159.256V52.272H185.752V50.272ZM211.632 8.77599V12.36H213.632V8.77599H211.632ZM212.632 13.36H249.112V11.36H212.632V13.36ZM250.112 12.36V8.77599H248.112V12.36H250.112ZM249.112 7.77599H212.632V9.77599H249.112V7.77599ZM211.632 24.008V27.592H213.632V24.008H211.632ZM212.632 28.592H249.112V26.592H212.632V28.592ZM250.112 27.592V24.008H248.112V27.592H250.112ZM249.112 23.008H212.632V25.008H249.112V23.008ZM211.12 39.24V42.824H213.12V39.24H211.12ZM212.12 43.824H249.112V41.824H212.12V43.824ZM250.112 42.824V39.24H248.112V42.824H250.112ZM249.112 38.24H212.12V40.24H249.112V38.24ZM151.6 10.184V67.144H153.6V10.184H151.6ZM152.6 68.144H155.032V66.144H152.6V68.144ZM155.032 68.144C158.635 68.144 161.561 67.3436 163.609 66.4051C164.629 65.9372 165.451 65.4264 166.035 64.9467C166.325 64.7085 166.578 64.4599 166.769 64.2088C166.931 63.9964 167.168 63.6281 167.168 63.176H165.168C165.168 62.9479 165.273 62.8716 165.177 62.9987C165.11 63.0871 164.979 63.2255 164.765 63.4013C164.341 63.7496 163.675 64.1748 162.775 64.5869C160.983 65.4084 158.341 66.144 155.032 66.144V68.144ZM167.168 63.176V10.184H165.168V63.176H167.168ZM166.168 11.184H167.704V9.184H166.168V11.184ZM168.067 9.25229L152.963 3.36429L152.237 5.22771L167.341 11.1157L168.067 9.25229ZM151.6 4.296V10.184H153.6V4.296H151.6ZM180.016 10.184V62.408H182.016V10.184H180.016ZM181.016 63.408H183.32V61.408H181.016V63.408ZM183.32 63.408C185.712 63.408 188.643 62.7329 190.962 61.9653C192.129 61.5792 193.178 61.1574 193.959 60.7624C194.346 60.5669 194.698 60.3627 194.972 60.1561C195.108 60.0535 195.251 59.9303 195.374 59.7864C195.484 59.6572 195.655 59.4207 195.702 59.0934L193.722 58.8106C193.739 58.6954 193.776 58.6126 193.8 58.5673C193.825 58.5215 193.846 58.496 193.85 58.4906C193.857 58.4826 193.838 58.5063 193.767 58.5594C193.628 58.6643 193.394 58.8071 193.057 58.9776C192.39 59.3146 191.439 59.7008 190.334 60.0667C188.109 60.8031 185.408 61.408 183.32 61.408V63.408ZM195.712 58.952V16.072H193.712V58.952H195.712ZM194.899 17.0543C197.744 16.5125 199.796 15.2691 200.76 13.984L199.16 12.784C198.588 13.5469 197.056 14.6075 194.525 15.0897L194.899 17.0543ZM200.568 12.5903L186.872 2.09427L185.656 3.68172L199.352 14.1777L200.568 12.5903ZM185.512 2.22855L179.112 9.52456L180.616 10.8434L187.016 3.54743L185.512 2.22855ZM179.864 11.184H181.016V9.184H179.864V11.184ZM237.872 8.77599V54.6H239.872V8.77599H237.872ZM237.872 54.6C237.872 55.3503 237.761 55.5855 237.687 55.6695C237.643 55.7204 237.442 55.904 236.568 55.904V57.904C237.614 57.904 238.565 57.7036 239.193 56.9865C239.791 56.3025 239.872 55.3857 239.872 54.6H237.872ZM236.568 55.904C235.38 55.904 232.207 55.7775 229.3 55.649C227.854 55.585 226.483 55.5211 225.473 55.4731C224.969 55.4491 224.555 55.4292 224.267 55.4152C224.123 55.4082 224.01 55.4027 223.934 55.3989C223.896 55.3971 223.867 55.3956 223.847 55.3947C223.837 55.3942 223.83 55.3938 223.825 55.3936C223.822 55.3935 223.82 55.3934 223.819 55.3933C223.819 55.3933 223.818 55.3932 223.818 55.3932C223.818 55.3932 223.818 55.3932 223.817 55.3932C223.817 55.3932 223.817 55.3932 223.768 56.392C223.719 57.3908 223.719 57.3908 223.719 57.3908C223.719 57.3908 223.719 57.3908 223.719 57.3908C223.719 57.3908 223.72 57.3908 223.721 57.3909C223.722 57.3909 223.724 57.391 223.726 57.3912C223.731 57.3914 223.739 57.3918 223.749 57.3923C223.768 57.3932 223.798 57.3947 223.836 57.3966C223.913 57.4003 224.025 57.4058 224.17 57.4128C224.458 57.4268 224.873 57.4469 225.379 57.4709C226.389 57.5189 227.762 57.583 229.212 57.647C232.097 57.7745 235.324 57.904 236.568 57.904V55.904ZM222.768 56.392V58.056H224.768V56.392H222.768ZM223.636 59.0472C226.44 59.4212 228.316 60.0059 229.653 60.6523C230.977 61.2927 231.816 62.0138 232.533 62.7311L233.947 61.3169C233.128 60.4982 232.111 59.6193 230.523 58.8517C228.948 58.0901 226.856 57.4588 223.9 57.0648L223.636 59.0472ZM232.533 62.7311C233.186 63.3842 233.669 64.3729 234.015 65.7276C234.36 67.0776 234.547 68.7008 234.674 70.5408L236.67 70.4032C236.541 68.5312 236.344 66.7624 235.953 65.2324C235.563 63.7071 234.958 62.3278 233.947 61.3169L232.533 62.7311ZM235.743 71.4695C243.835 70.8915 248.728 69.4079 251.561 66.717C254.445 63.9769 254.976 60.1988 254.976 55.752H252.976C252.976 60.1372 252.419 63.1431 250.183 65.267C247.896 67.4401 243.637 68.9005 235.601 69.4745L235.743 71.4695ZM254.976 55.752V14.664H252.976V55.752H254.976ZM254.172 15.6446C256.869 15.1052 258.799 13.9959 259.768 12.704L258.168 11.504C257.601 12.2601 256.203 13.1988 253.78 13.6834L254.172 15.6446ZM259.566 11.3023L244.974 0.422306L243.778 2.02568L258.37 12.9057L259.566 11.3023ZM243.626 0.56279L236.97 8.11479L238.47 9.43719L245.126 1.88519L243.626 0.56279ZM237.72 9.77599H238.872V7.77599H237.72V9.77599ZM204.208 8.77599V31.048H206.208V8.77599H204.208ZM204.208 31.048C204.208 45.4713 202.662 59.9168 190.211 70.8733L191.533 72.3747C204.682 60.8032 206.208 45.5527 206.208 31.048H204.208ZM190.129 72.293L191.281 73.573L192.767 72.235L191.615 70.955L190.129 72.293ZM192.408 73.8275C205.073 68.5665 212.152 61.5045 216.035 53.8694C219.904 46.2638 220.544 38.1994 220.544 31.048H218.544C218.544 38.1045 217.904 45.7842 214.253 52.9626C210.616 60.1115 203.935 66.8735 191.64 71.9805L192.408 73.8275ZM220.544 31.048V8.77599H218.544V31.048H220.544ZM219.544 9.77599H221.848V7.77599H219.544V9.77599ZM222.188 7.83557L205.548 1.81957L204.868 3.70042L221.508 9.71642L222.188 7.83557ZM204.208 2.75999V7.49599H206.208V2.75999H204.208ZM204.208 7.49599V8.77599H206.208V7.49599H204.208ZM143.06 113.106L144.084 116.818L146.012 116.286L144.988 112.574L143.06 113.106ZM145.048 117.552H260.376V115.552H145.048V117.552ZM260.376 117.552C261.378 117.552 262.313 117.375 263.082 116.913C263.88 116.435 264.414 115.701 264.669 114.767L262.739 114.241C262.61 114.715 262.376 115.005 262.053 115.199C261.703 115.409 261.166 115.552 260.376 115.552V117.552ZM264.465 113.855C262.58 111.645 259.899 108.901 257.705 106.722C256.604 105.63 255.62 104.674 254.912 103.992C254.557 103.65 254.272 103.377 254.074 103.189C253.975 103.095 253.899 103.022 253.847 102.973C253.821 102.948 253.801 102.929 253.787 102.917C253.781 102.91 253.775 102.905 253.772 102.902C253.77 102.9 253.769 102.899 253.768 102.898C253.768 102.898 253.767 102.898 253.767 102.897C253.767 102.897 253.767 102.897 253.767 102.897C253.767 102.897 253.767 102.897 253.08 103.624C252.393 104.351 252.393 104.351 252.393 104.351C252.393 104.351 252.394 104.351 252.394 104.351C252.394 104.351 252.394 104.352 252.394 104.352C252.395 104.353 252.396 104.354 252.398 104.355C252.401 104.358 252.406 104.363 252.413 104.369C252.426 104.381 252.445 104.4 252.47 104.424C252.521 104.472 252.597 104.544 252.694 104.637C252.89 104.823 253.173 105.094 253.524 105.432C254.228 106.11 255.204 107.058 256.296 108.142C258.485 110.315 261.116 113.011 262.943 115.153L264.465 113.855ZM252.237 103.086L246.349 112.302L248.035 113.378L253.923 104.162L252.237 103.086ZM247.192 111.84H144.024V113.84H247.192V111.84ZM183.728 76.488V114.76H185.728V76.488H183.728ZM184.728 115.76H198.424V113.76H184.728V115.76ZM199.424 114.76V76.488H197.424V114.76H199.424ZM198.424 75.488H184.728V77.488H198.424V75.488ZM207.28 76.488V114.76H209.28V76.488H207.28ZM208.28 115.76H221.976V113.76H208.28V115.76ZM222.976 114.76V76.488H220.976V114.76H222.976ZM221.976 75.488H208.28V77.488H221.976V75.488ZM159.664 76.488V114.76H161.664V76.488H159.664ZM160.664 115.76H174.744V113.76H160.664V115.76ZM175.744 114.76V80.2H173.744V114.76H175.744ZM174.744 81.2H231.96V79.2H174.744V81.2ZM230.96 80.2V114.76H232.96V80.2H230.96ZM231.96 115.76H246.808V113.76H231.96V115.76ZM247.808 114.76V81.608H245.808V114.76H247.808ZM246.966 82.5954C250.253 82.0695 252.092 81.2433 253.349 79.6727L251.787 78.4233C250.996 79.4127 249.763 80.1225 246.65 80.6206L246.966 82.5954ZM253.134 78.2234L237.646 67.5994L236.514 69.2486L252.002 79.8726L253.134 78.2234ZM236.291 67.8101L230.019 75.8741L231.597 77.1019L237.869 69.0379L236.291 67.8101ZM230.808 75.488H176.024V77.488H230.808V75.488ZM176.382 75.5543L161.022 69.6663L160.306 71.5337L175.666 77.4217L176.382 75.5543ZM159.664 70.6V76.488H161.664V70.6H159.664ZM346.392 40.776L347.039 40.0137L346.215 39.314L345.582 40.19L346.392 40.776ZM340.376 49.096V50.096H340.887L341.186 49.6819L340.376 49.096ZM326.68 49.096V48.096H325.354L325.718 49.3707L326.68 49.096ZM327.704 52.68L326.742 52.9547L326.95 53.68H327.704V52.68ZM357.144 50.632L358.109 50.8951L358.259 50.3454L357.862 49.9362L357.144 50.632ZM344.088 8.77599L344.733 8.01147L343.902 7.31081L343.272 8.19725L344.088 8.77599ZM338.456 16.712V17.712H338.973L339.272 17.2907L338.456 16.712ZM328.728 16.712V15.712H327.402L327.766 16.9867L328.728 16.712ZM329.752 20.296L328.79 20.5707L328.998 21.296H329.752V20.296ZM354.328 18.248L355.286 18.5353L355.451 17.9847L355.058 17.5648L354.328 18.248ZM386.968 106.312H387.968V105.312H386.968V106.312ZM345.88 106.312V105.312H344.88V106.312H345.88ZM345.88 109.896H344.88V110.896H345.88V109.896ZM386.968 109.896V110.896H387.968V109.896H386.968ZM379.16 73.416L378.414 72.75L376.927 74.416H379.16V73.416ZM380.44 73.416H381.44V72.416H380.44V73.416ZM380.44 119.496H379.44V120.496H380.44V119.496ZM394.264 116.04L395.254 116.181L395.264 116.111V116.04H394.264ZM394.264 79.304L394.058 78.3254L393.264 78.4926V79.304H394.264ZM399.384 76.744L400.184 77.344L400.78 76.5487L399.989 75.9476L399.384 76.744ZM385.56 66.248L386.165 65.4516L385.429 64.8931L384.814 65.582L385.56 66.248ZM353.688 77.128V76.128H352.688V77.128H353.688ZM387.864 77.128V78.128H388.864V77.128H387.864ZM387.864 73.416H388.864V72.416H387.864V73.416ZM354.328 73.416L353.958 74.345L354.136 74.416H354.328V73.416ZM339.864 67.656L340.234 66.727L338.864 66.1814V67.656H339.864ZM339.864 120.264H338.864V121.264H339.864V120.264ZM382.744 28.744L383.714 28.9865L383.967 27.9735L382.944 27.7643L382.744 28.744ZM365.848 25.288L366.048 24.3083L364.878 24.069L364.848 25.2628L365.848 25.288ZM343.064 66.504L342.619 65.6084L341.543 66.1428L342.264 67.104L343.064 66.504ZM344.216 68.04L343.416 68.64L343.836 69.1995L344.505 68.9973L344.216 68.04ZM378.264 31.432V30.432H377.423L377.279 31.2603L378.264 31.432ZM379.416 6.6L380.339 6.98462L380.755 5.98715L379.728 5.64994L379.416 6.6ZM361.88 0.839996L362.192 -0.110065L361.128 -0.45945L360.901 0.63678L361.88 0.839996ZM348.44 37.192L347.589 36.6665L347.073 37.5021L347.899 38.0332L348.44 37.192ZM350.232 38.344L349.691 39.1852L350.261 39.5513L350.812 39.1585L350.232 38.344ZM374.424 9.16L374.469 8.16103L373.823 8.13165L373.531 8.70911L374.424 9.16ZM377.368 31.944L378.356 31.788L378.183 30.6918L377.11 30.9778L377.368 31.944ZM375.448 32.456L375.19 31.4898L374.377 31.7066L374.452 32.5451L375.448 32.456ZM395.672 68.68L395.312 69.6129L396.558 70.0937L396.669 68.763L395.672 68.68ZM405.784 56.648L406.017 57.6204L406.721 57.4516L406.781 56.731L405.784 56.648ZM405.912 55.112L406.909 55.195L406.984 54.284L406.084 54.1269L405.912 55.112ZM387.48 16.712L386.759 16.0186L385.13 17.712H387.48V16.712ZM388.888 16.712L389.876 16.8657L390.056 15.712H388.888V16.712ZM383.512 38.472L382.569 38.1382L382.304 38.8884L382.975 39.3157L383.512 38.472ZM384.92 39.368L384.383 40.2117L384.976 40.5887L385.531 40.1593L384.92 39.368ZM401.048 22.728L400.943 21.7335L400.503 21.7799L400.241 22.1375L401.048 22.728ZM405.912 21.192L406.665 21.8505L407.298 21.1267L406.599 20.4656L405.912 21.192ZM394.008 9.92799L394.695 9.20163L393.975 8.52006L393.287 9.23462L394.008 9.92799ZM394.904 16.712H395.904V15.712H394.904V16.712ZM363.544 16.712V15.712H362.79L362.582 16.4373L363.544 16.712ZM362.52 20.296L361.559 20.0213L361.194 21.296H362.52V20.296ZM394.904 20.296V21.296H395.904V20.296H394.904ZM293.912 2.632L293.958 1.63306L293.612 1.6171L293.331 1.81826L293.912 2.632ZM293.016 3.272L292.435 2.45826L291.519 3.11219L292.276 3.94467L293.016 3.272ZM301.976 20.552L300.99 20.7164L301.061 21.145L301.423 21.3853L301.976 20.552ZM319.768 103.752H320.768V102.752H319.768V103.752ZM296.984 103.752V102.752H295.984V103.752H296.984ZM296.984 107.464H295.984V108.464H296.984V107.464ZM319.768 107.464V108.464H320.768V107.464H319.768ZM313.752 74.824L313.017 74.1463L311.471 75.824H313.752V74.824ZM314.904 74.824H315.904V73.824H314.904V74.824ZM314.904 115.528H313.904V116.528H314.904V115.528ZM327.832 111.688L328.824 111.812L328.832 111.75V111.688H327.832ZM327.832 80.2L327.615 79.2238L326.832 79.3978V80.2H327.832ZM332.44 77.896L333.254 78.4772L333.819 77.686L333.044 77.0989L332.44 77.896ZM319.768 68.296L320.372 67.4989L319.648 66.9506L319.033 67.6183L319.768 68.296ZM301.208 78.408V77.408H300.208V78.408H301.208ZM318.232 78.408V79.408H319.232V78.408H318.232ZM318.232 74.824H319.232V73.824H318.232V74.824ZM301.72 74.824L301.335 75.7468L301.52 75.824H301.72V74.824ZM288.536 69.32L288.921 68.3972L287.536 67.8189V69.32H288.536ZM288.536 119.624H287.536V120.624H288.536V119.624ZM320.152 17.352L320.777 16.5711L319.977 15.9315L319.357 16.746L320.152 17.352ZM314.008 25.416V26.416H314.503L314.803 26.022L314.008 25.416ZM284.44 25.416V24.416H283.114L283.478 25.6907L284.44 25.416ZM285.464 29L284.502 29.2747L284.71 30H285.464V29ZM331.544 26.952L332.509 27.2151L332.67 26.6251L332.218 26.213L331.544 26.952ZM318.104 50.632L318.725 49.8483L317.927 49.2155L317.309 50.0256L318.104 50.632ZM312.344 58.184V59.184H312.839L313.139 58.7904L312.344 58.184ZM289.304 58.184V57.184H287.991L288.34 58.4499L289.304 58.184ZM290.328 61.896L289.364 62.1619L289.567 62.896H290.328V61.896ZM328.984 59.848L329.949 60.1111L330.107 59.5303L329.668 59.1185L328.984 59.848ZM318.104 34.12L318.716 33.329L317.919 32.713L317.309 33.5135L318.104 34.12ZM312.344 41.672V42.672H312.839L313.139 42.2784L312.344 41.672ZM289.304 41.672V40.672H287.991L288.34 41.9379L289.304 41.672ZM290.328 45.384L289.364 45.6499L289.567 46.384H290.328V45.384ZM328.984 43.336L329.949 43.5991L330.104 43.029L329.68 42.6178L328.984 43.336ZM345.582 40.19L339.566 48.51L341.186 49.6819L347.202 41.3619L345.582 40.19ZM340.376 48.096H326.68V50.096H340.376V48.096ZM325.718 49.3707L326.742 52.9547L328.666 52.4053L327.642 48.8213L325.718 49.3707ZM327.704 53.68H353.816V51.68H327.704V53.68ZM353.816 53.68C354.766 53.68 355.691 53.4988 356.464 53.0478C357.26 52.5833 357.846 51.8588 358.109 50.8951L356.179 50.3689C356.058 50.8132 355.812 51.1127 355.456 51.3202C355.077 51.5412 354.53 51.68 353.816 51.68V53.68ZM357.862 49.9362C355.851 47.8604 353.14 45.3762 350.945 43.4212C349.845 42.4414 348.869 41.5902 348.168 40.9838C347.818 40.6806 347.536 40.4385 347.342 40.272C347.245 40.1887 347.169 40.1244 347.118 40.0807C347.092 40.0589 347.073 40.0422 347.06 40.031C347.053 40.0254 347.048 40.0211 347.045 40.0182C347.043 40.0168 347.042 40.0157 347.041 40.0149C347.04 40.0145 347.04 40.0142 347.04 40.014C347.04 40.0139 347.039 40.0139 347.039 40.0138C347.039 40.0137 347.039 40.0137 346.392 40.776C345.745 41.5383 345.745 41.5383 345.745 41.5383C345.745 41.5384 345.745 41.5384 345.745 41.5385C345.745 41.5386 345.745 41.5389 345.746 41.5392C345.747 41.5398 345.748 41.5408 345.749 41.5422C345.752 41.5448 345.757 41.5489 345.764 41.5543C345.776 41.5651 345.795 41.5813 345.82 41.6027C345.871 41.6454 345.945 41.7088 346.041 41.791C346.233 41.9555 346.512 42.1954 346.86 42.4962C347.555 43.0978 348.523 43.9426 349.615 44.9148C351.804 46.8637 354.469 49.3076 356.426 51.3278L357.862 49.9362ZM343.272 8.19725L337.641 16.1333L339.272 17.2907L344.904 9.35474L343.272 8.19725ZM338.456 15.712H328.728V17.712H338.456V15.712ZM327.766 16.9867L328.79 20.5707L330.714 20.0213L329.69 16.4373L327.766 16.9867ZM329.752 21.296H351.128V19.296H329.752V21.296ZM351.128 21.296C353.12 21.296 354.745 20.3377 355.286 18.5353L353.37 17.9606C353.143 18.7183 352.464 19.296 351.128 19.296V21.296ZM355.058 17.5648C353.17 15.5464 350.582 13.1538 348.482 11.2782C347.429 10.3375 346.492 9.52165 345.819 8.94081C345.483 8.65034 345.211 8.41849 345.024 8.25904C344.931 8.17931 344.858 8.11766 344.809 8.07583C344.784 8.05492 344.765 8.03895 344.752 8.02815C344.746 8.02275 344.741 8.01865 344.738 8.01586C344.736 8.01446 344.735 8.0134 344.734 8.01266C344.734 8.0123 344.733 8.01202 344.733 8.01182C344.733 8.01172 344.733 8.01163 344.733 8.01158C344.733 8.01152 344.733 8.01147 344.088 8.77599C343.443 9.54052 343.443 9.54051 343.443 9.54053C343.443 9.54057 343.444 9.5406 343.444 9.54067C343.444 9.54081 343.444 9.54103 343.444 9.54133C343.445 9.54193 343.446 9.54287 343.448 9.54414C343.451 9.54667 343.455 9.55052 343.461 9.55565C343.473 9.56593 343.492 9.58135 343.516 9.60172C343.564 9.64244 343.635 9.70293 343.727 9.78145C343.912 9.9385 344.18 10.1676 344.513 10.4552C345.18 11.0303 346.107 11.8385 347.15 12.7698C349.242 14.6382 351.774 16.9816 353.598 18.9312L355.058 17.5648ZM386.968 105.312H345.88V107.312H386.968V105.312ZM344.88 106.312V109.896H346.88V106.312H344.88ZM345.88 110.896H386.968V108.896H345.88V110.896ZM387.968 109.896V106.312H385.968V109.896H387.968ZM379.16 74.416H380.44V72.416H379.16V74.416ZM379.44 73.416V119.496H381.44V73.416H379.44ZM380.44 120.496H382.744V118.496H380.44V120.496ZM382.744 120.496C385.135 120.496 388.097 119.821 390.446 119.055C391.628 118.669 392.693 118.248 393.485 117.853C393.878 117.658 394.234 117.455 394.512 117.249C394.649 117.147 394.795 117.024 394.919 116.88C395.03 116.752 395.206 116.514 395.254 116.181L393.274 115.899C393.291 115.781 393.329 115.696 393.354 115.65C393.38 115.604 393.402 115.578 393.406 115.573C393.413 115.565 393.393 115.589 393.32 115.643C393.178 115.748 392.938 115.892 392.595 116.063C391.915 116.4 390.948 116.787 389.826 117.153C387.567 117.891 384.833 118.496 382.744 118.496V120.496ZM395.264 116.04V79.304H393.264V116.04H395.264ZM394.47 80.2825C395.762 80.0105 396.935 79.5994 397.902 79.1072C398.852 78.6233 399.673 78.026 400.184 77.344L398.584 76.144C398.328 76.486 397.804 76.9127 396.994 77.3248C396.201 77.7286 395.198 78.0855 394.058 78.3254L394.47 80.2825ZM399.989 75.9476L386.165 65.4516L384.955 67.0444L398.779 77.5404L399.989 75.9476ZM384.814 65.582L378.414 72.75L379.906 74.082L386.306 66.914L384.814 65.582ZM354.688 115.912V77.128H352.688V115.912H354.688ZM353.688 78.128H387.864V76.128H353.688V78.128ZM388.864 77.128V73.416H386.864V77.128H388.864ZM387.864 72.416H354.328V74.416H387.864V72.416ZM354.698 72.487L340.234 66.727L339.494 68.585L353.958 74.345L354.698 72.487ZM338.864 67.656V120.264H340.864V67.656H338.864ZM339.864 121.264H341.912V119.264H339.864V121.264ZM341.912 121.264C344.954 121.264 348.029 120.457 350.345 119.491C351.503 119.008 352.507 118.47 353.24 117.945C353.604 117.685 353.932 117.406 354.18 117.115C354.402 116.854 354.688 116.435 354.688 115.912H352.688C352.688 115.709 352.786 115.666 352.657 115.818C352.553 115.94 352.366 116.111 352.076 116.319C351.501 116.73 350.641 117.2 349.575 117.645C347.443 118.535 344.63 119.264 341.912 119.264V121.264ZM382.944 27.7643L366.048 24.3083L365.648 26.2677L382.544 29.7237L382.944 27.7643ZM364.848 25.2628C364.657 32.8344 363.798 40.5801 360.648 47.5985C357.511 54.5856 352.077 60.9106 342.619 65.6084L343.509 67.3996C353.379 62.4974 359.145 55.8304 362.472 48.4175C365.786 41.0359 366.655 32.9736 366.848 25.3132L364.848 25.2628ZM342.264 67.104L343.416 68.64L345.016 67.44L343.864 65.904L342.264 67.104ZM344.505 68.9973C357.588 65.0466 365.686 59.2817 370.815 52.6519C375.936 46.0329 378.021 38.6471 379.249 31.6037L377.279 31.2603C376.075 38.1689 374.064 45.1831 369.233 51.4281C364.41 57.6623 356.7 63.2254 343.927 67.0827L344.505 68.9973ZM378.264 32.432C379.855 32.432 381.1 32.1223 382.027 31.4902C382.976 30.8431 383.476 29.9372 383.714 28.9865L381.774 28.5015C381.628 29.0868 381.36 29.5249 380.901 29.8378C380.42 30.1657 379.617 30.432 378.264 30.432V32.432ZM379.728 5.64994L362.192 -0.110065L361.568 1.79006L379.104 7.55006L379.728 5.64994ZM360.901 0.63678C358.101 14.1248 352.888 28.0875 347.589 36.6665L349.291 37.7175C354.744 28.8885 360.027 14.6912 362.859 1.04321L360.901 0.63678ZM347.899 38.0332L349.691 39.1852L350.773 37.5028L348.981 36.3508L347.899 38.0332ZM350.812 39.1585C360.304 32.397 368.981 22.153 375.317 9.61089L373.531 8.70911C367.323 20.999 358.848 30.979 349.652 37.5295L350.812 39.1585ZM374.379 10.159C375.929 10.2294 377.214 9.95096 378.23 9.37328C379.254 8.79145 379.94 7.94123 380.339 6.98462L378.493 6.21538C378.252 6.79476 377.85 7.28854 377.242 7.6347C376.626 7.98503 375.735 8.21854 374.469 8.16103L374.379 10.159ZM377.11 30.9778L375.19 31.4898L375.706 33.4222L377.626 32.9102L377.11 30.9778ZM374.452 32.5451C375.862 48.309 380.121 63.7498 395.312 69.6129L396.032 67.7471C382.039 62.3462 377.85 48.091 376.444 32.3669L374.452 32.5451ZM396.669 68.763C396.979 65.0328 397.869 62.6538 399.316 61.024C400.766 59.3906 402.901 58.3683 406.017 57.6204L405.551 55.6756C402.267 56.4637 399.666 57.6174 397.82 59.696C395.971 61.7782 395.005 64.6472 394.675 68.597L396.669 68.763ZM406.781 56.731L406.909 55.195L404.915 55.029L404.787 56.565L406.781 56.731ZM406.084 54.1269C396.639 52.4788 390.18 49.7736 385.858 46.0798C381.563 42.4095 379.287 37.6846 378.356 31.788L376.38 32.1C377.369 38.3634 379.829 43.5585 384.558 47.6002C389.26 51.6184 396.113 54.4172 405.74 56.0971L406.084 54.1269ZM387.48 17.712H388.888V15.712H387.48V17.712ZM387.9 16.5583C387.011 22.2695 384.721 32.0635 382.569 38.1382L384.455 38.8058C386.655 32.5925 388.973 22.6745 389.876 16.8657L387.9 16.5583ZM382.975 39.3157L384.383 40.2117L385.457 38.5243L384.049 37.6283L382.975 39.3157ZM385.531 40.1593C391.244 35.7449 397.965 28.6354 401.855 23.3185L400.241 22.1375C396.451 27.3166 389.86 34.2871 384.309 38.5767L385.531 40.1593ZM401.153 23.7225C402.362 23.5952 403.434 23.4607 404.326 23.211C405.235 22.9563 406.044 22.5594 406.665 21.8505L405.159 20.5335C404.884 20.8485 404.477 21.0917 403.786 21.285C403.078 21.4833 402.166 21.6048 400.943 21.7335L401.153 23.7225ZM406.599 20.4656L394.695 9.20163L393.321 10.6544L405.225 21.9184L406.599 20.4656ZM393.287 9.23462L386.759 16.0186L388.201 17.4054L394.729 10.6214L393.287 9.23462ZM394.904 15.712H363.544V17.712H394.904V15.712ZM362.582 16.4373L361.559 20.0213L363.482 20.5707L364.506 16.9867L362.582 16.4373ZM362.52 21.296H394.904V19.296H362.52V21.296ZM395.904 20.296V16.712H393.904V20.296H395.904ZM293.331 1.81826L292.435 2.45826L293.597 4.08573L294.493 3.44573L293.331 1.81826ZM292.276 3.94467C296.03 8.07436 300.006 14.8171 300.99 20.7164L302.962 20.3876C301.898 13.9989 297.682 6.91763 293.756 2.59932L292.276 3.94467ZM301.423 21.3853C305.01 23.7651 308.618 23.9084 311.433 22.601C314.218 21.3079 316.14 18.6286 316.412 15.5687C316.688 12.4721 315.269 9.13033 311.672 6.5134C308.101 3.91462 302.388 2.02214 293.958 1.63306L293.866 3.63093C302.076 4.00985 307.355 5.84538 310.496 8.13058C313.611 10.3977 314.624 13.0959 314.42 15.3913C314.212 17.7234 312.742 19.788 310.591 20.787C308.47 21.7716 305.598 21.7549 302.529 19.7187L301.423 21.3853ZM319.768 102.752H296.984V104.752H319.768V102.752ZM295.984 103.752V107.464H297.984V103.752H295.984ZM296.984 108.464H319.768V106.464H296.984V108.464ZM320.768 107.464V103.752H318.768V107.464H320.768ZM313.752 75.824H314.904V73.824H313.752V75.824ZM313.904 74.824V115.528H315.904V74.824H313.904ZM314.904 116.528H317.08V114.528H314.904V116.528ZM317.08 116.528C319.432 116.528 322.22 115.777 324.404 114.923C325.504 114.493 326.491 114.021 327.228 113.575C327.593 113.354 327.926 113.122 328.185 112.887C328.314 112.769 328.446 112.631 328.556 112.475C328.66 112.327 328.788 112.1 328.824 111.812L326.84 111.564C326.85 111.479 326.873 111.417 326.889 111.382C326.905 111.347 326.918 111.327 326.92 111.325C326.922 111.322 326.901 111.35 326.839 111.408C326.713 111.522 326.501 111.678 326.192 111.865C325.581 112.235 324.704 112.659 323.676 113.061C321.604 113.871 319.08 114.528 317.08 114.528V116.528ZM328.832 111.688V80.2H326.832V111.688H328.832ZM328.049 81.1762C329.268 80.9053 330.342 80.5277 331.214 80.0828C332.069 79.6466 332.803 79.1085 333.254 78.4772L331.626 77.3148C331.437 77.5795 331.019 77.9374 330.306 78.3012C329.61 78.6563 328.7 78.9827 327.615 79.2238L328.049 81.1762ZM333.044 77.0989L320.372 67.4989L319.164 69.0931L331.836 78.6931L333.044 77.0989ZM319.033 67.6183L313.017 74.1463L314.487 75.5017L320.503 68.9737L319.033 67.6183ZM302.208 115.656V78.408H300.208V115.656H302.208ZM301.208 79.408H318.232V77.408H301.208V79.408ZM319.232 78.408V74.824H317.232V78.408H319.232ZM318.232 73.824H301.72V75.824H318.232V73.824ZM302.105 73.9012L288.921 68.3972L288.151 70.2428L301.335 75.7468L302.105 73.9012ZM287.536 69.32V119.624H289.536V69.32H287.536ZM288.536 120.624H290.328V118.624H288.536V120.624ZM290.328 120.624C293.175 120.624 296.026 119.882 298.167 118.996C299.237 118.553 300.164 118.059 300.843 117.577C301.18 117.338 301.486 117.08 301.719 116.809C301.925 116.57 302.208 116.168 302.208 115.656H300.208C300.208 115.432 300.319 115.37 300.203 115.505C300.114 115.609 299.948 115.76 299.685 115.947C299.164 116.317 298.379 116.743 297.401 117.148C295.446 117.958 292.857 118.624 290.328 118.624V120.624ZM319.357 16.746L313.213 24.8099L314.803 26.022L320.947 17.958L319.357 16.746ZM314.008 24.416H284.44V26.416H314.008V24.416ZM283.478 25.6907L284.502 29.2747L286.426 28.7253L285.402 25.1413L283.478 25.6907ZM285.464 30H328.216V28H285.464V30ZM328.216 30C329.218 30 330.153 29.823 330.923 29.3615C331.72 28.883 332.254 28.1488 332.509 27.2151L330.579 26.6889C330.45 27.1632 330.216 27.453 329.894 27.6465C329.543 27.857 329.006 28 328.216 28V30ZM332.218 26.213C330.023 24.2119 327.16 21.7993 324.853 19.8931C323.698 18.9387 322.68 18.1086 321.95 17.5171C321.585 17.2213 321.292 16.9851 321.09 16.8227C320.989 16.7415 320.911 16.6787 320.858 16.6362C320.831 16.6149 320.811 16.5987 320.798 16.5878C320.791 16.5824 320.786 16.5782 320.782 16.5754C320.78 16.574 320.779 16.573 320.778 16.5723C320.778 16.5719 320.777 16.5716 320.777 16.5714C320.777 16.5713 320.777 16.5713 320.777 16.5712C320.777 16.5712 320.777 16.5711 320.152 17.352C319.527 18.1329 319.527 18.1329 319.527 18.1329C319.527 18.1329 319.527 18.133 319.528 18.1331C319.528 18.1332 319.528 18.1335 319.528 18.1338C319.529 18.1344 319.531 18.1354 319.532 18.1368C319.535 18.1394 319.54 18.1434 319.547 18.1487C319.56 18.1594 319.58 18.1753 319.606 18.1962C319.659 18.2381 319.736 18.3003 319.836 18.3808C320.036 18.5419 320.327 18.7767 320.69 19.0709C321.417 19.6594 322.43 20.4853 323.579 21.4348C325.88 23.3367 328.713 25.724 330.87 27.6909L332.218 26.213ZM317.309 50.0256L311.549 57.5776L313.139 58.7904L318.899 51.2384L317.309 50.0256ZM312.344 57.184H289.304V59.184H312.344V57.184ZM288.34 58.4499L289.364 62.1619L291.292 61.6301L290.268 57.9181L288.34 58.4499ZM290.328 62.896H325.656V60.896H290.328V62.896ZM325.656 62.896C326.606 62.896 327.531 62.7148 328.304 62.2638C329.1 61.7993 329.686 61.0748 329.949 60.1111L328.019 59.5849C327.898 60.0292 327.652 60.3287 327.296 60.5362C326.917 60.7572 326.37 60.896 325.656 60.896V62.896ZM329.668 59.1185C327.596 57.176 324.856 54.8557 322.645 53.029C321.537 52.1139 320.558 51.3192 319.855 50.7533C319.504 50.4703 319.222 50.2444 319.027 50.089C318.93 50.0114 318.855 49.9513 318.804 49.9107C318.778 49.8903 318.759 49.8748 318.745 49.8643C318.739 49.8591 318.734 49.8551 318.73 49.8524C318.729 49.8511 318.727 49.8501 318.727 49.8494C318.726 49.849 318.726 49.8487 318.725 49.8486C318.725 49.8485 318.725 49.8484 318.725 49.8483C318.725 49.8483 318.725 49.8483 318.104 50.632C317.483 51.4157 317.483 51.4157 317.483 51.4158C317.483 51.4158 317.483 51.4158 317.483 51.4159C317.483 51.4161 317.484 51.4163 317.484 51.4166C317.485 51.4172 317.486 51.4181 317.488 51.4194C317.491 51.4219 317.495 51.4257 317.502 51.4307C317.515 51.4409 317.534 51.456 317.559 51.476C317.609 51.5159 317.683 51.5751 317.78 51.652C317.972 51.8056 318.252 52.0297 318.601 52.3107C319.298 52.8727 320.271 53.6621 321.371 54.571C323.576 56.3923 326.276 58.6799 328.3 60.5775L329.668 59.1185ZM317.309 33.5135L311.549 41.0656L313.139 42.2784L318.899 34.7264L317.309 33.5135ZM312.344 40.672H289.304V42.672H312.344V40.672ZM288.34 41.9379L289.364 45.6499L291.292 45.1181L290.268 41.4061L288.34 41.9379ZM290.328 46.384H325.656V44.384H290.328V46.384ZM325.656 46.384C326.606 46.384 327.531 46.2028 328.304 45.7518C329.1 45.2873 329.686 44.5628 329.949 43.5991L328.019 43.0729C327.898 43.5172 327.652 43.8167 327.296 44.0242C326.917 44.2452 326.37 44.384 325.656 44.384V46.384ZM329.68 42.6178C327.601 40.6036 324.854 38.2782 322.642 36.4663C321.532 35.558 320.552 34.7745 319.849 34.2179C319.497 33.9395 319.214 33.7177 319.019 33.5654C318.922 33.4892 318.846 33.4303 318.795 33.3904C318.769 33.3705 318.75 33.3552 318.736 33.3449C318.73 33.3398 318.725 33.3359 318.721 33.3332C318.72 33.3319 318.718 33.3309 318.717 33.3302C318.717 33.3298 318.717 33.3296 318.716 33.3294C318.716 33.3293 318.716 33.3292 318.716 33.3291C318.716 33.3291 318.716 33.329 318.104 34.12C317.492 34.9109 317.492 34.9109 317.492 34.911C317.492 34.911 317.492 34.911 317.492 34.9111C317.492 34.9112 317.493 34.9114 317.493 34.9117C317.494 34.9123 317.495 34.9132 317.497 34.9144C317.5 34.9168 317.504 34.9205 317.511 34.9254C317.523 34.9352 317.542 34.9499 317.567 34.9694C317.617 35.0083 317.692 35.0661 317.788 35.1411C317.98 35.2912 318.259 35.5105 318.607 35.7861C319.304 36.3375 320.276 37.114 321.374 38.0137C323.578 39.8178 326.271 42.1004 328.288 44.0542L329.68 42.6178ZM509.976 7.24L510.899 7.62461L511.316 6.62356L510.285 6.28883L509.976 7.24ZM490.648 0.967995L490.957 0.0168228L489.898 -0.326874L489.669 0.762985L490.648 0.967995ZM472.088 52.936L471.215 52.4474L470.747 53.2847L471.564 53.7877L472.088 52.936ZM473.752 53.96L473.228 54.8117L473.837 55.1868L474.389 54.7308L473.752 53.96ZM504.856 9.8V8.8H504.2L503.939 9.40221L504.856 9.8ZM526.104 23.368L525.38 22.6783L523.771 24.368H526.104V23.368ZM527.64 23.368L528.64 23.3734L528.645 22.368H527.64V23.368ZM523.032 102.6L522.314 101.904L522.301 101.917L522.289 101.931L523.032 102.6ZM500.504 103.112L500.612 102.118L499.576 102.005L499.506 103.045L500.504 103.112ZM500.376 105.032L499.378 104.965L499.319 105.851L500.192 106.015L500.376 105.032ZM513.944 110.408L513.237 111.115L513.248 111.127L513.26 111.138L513.944 110.408ZM516.632 120.648L515.632 120.62L515.604 121.648H516.632V120.648ZM534.424 113.864L535.171 114.528L535.179 114.52L535.187 114.511L534.424 113.864ZM541.592 29.384L541.457 28.3932L540.598 28.5102L540.592 29.3767L541.592 29.384ZM547.096 26.952L547.885 27.5659L548.465 26.8209L547.755 26.1994L547.096 26.952ZM533.784 15.304L534.443 14.5514L533.721 13.9201L533.06 14.6143L533.784 15.304ZM533.912 23.368H534.912V22.368H533.912V23.368ZM493.592 23.368V22.368H492.964L492.691 22.9332L493.592 23.368ZM491.8 27.08L490.899 26.6452L490.207 28.08H491.8V27.08ZM533.912 27.08V28.08H534.912V27.08H533.912ZM514.456 61.896H515.456V60.896H514.456V61.896ZM489.752 61.896V60.896H488.752V61.896H489.752ZM489.752 65.608H488.752V66.608H489.752V65.608ZM514.456 65.608V66.608H515.456V65.608H514.456ZM514.712 82.376H515.712V81.376H514.712V82.376ZM490.008 82.376V81.376H489.008V82.376H490.008ZM490.008 86.088H489.008V87.088H490.008V86.088ZM514.712 86.088V87.088H515.712V86.088H514.712ZM506.136 42.696L505.393 42.0262L503.887 43.696H506.136V42.696ZM507.416 42.696H508.416V41.696H507.416V42.696ZM507.416 92.872H506.416V93.872H507.416V92.872ZM519.448 89.672L520.434 89.8364L520.448 89.7548V89.672H519.448ZM519.448 48.456L519.261 47.4737L518.448 47.6285V48.456H519.448ZM524.824 45.768L525.624 46.368L526.224 45.568L525.424 44.968L524.824 45.768ZM512.024 36.168L512.624 35.368L511.893 34.8199L511.281 35.4982L512.024 36.168ZM495.768 46.408V45.408H494.768V46.408H495.768ZM513.304 46.408V47.408H514.304V46.408H513.304ZM513.304 42.696H514.304V41.696H513.304V42.696ZM496.28 42.696L495.896 43.6193L496.08 43.696H496.28V42.696ZM483.352 37.32L483.736 36.3967L482.352 35.8211V37.32H483.352ZM483.352 97.608H482.352V98.608H483.352V97.608ZM440.472 1.864L440.521 0.865208L440.208 0.849785L439.942 1.016L440.472 1.864ZM439.448 2.504L438.918 1.656L437.886 2.30128L438.719 3.18867L439.448 2.504ZM448.408 20.296L447.418 20.4346L447.48 20.8765L447.85 21.1257L448.408 20.296ZM466.072 104.392H467.072V103.392H466.072V104.392ZM440.984 104.392V103.392H439.984V104.392H440.984ZM440.984 108.104H439.984V109.104H440.984V108.104ZM466.072 108.104V109.104H467.072V108.104H466.072ZM457.88 75.976L457.146 75.2966L455.591 76.976H457.88V75.976ZM459.16 75.976H460.16V74.976H459.16V75.976ZM459.16 115.912H458.16V116.912H459.16V115.912ZM472.6 112.072L473.59 112.213L473.6 112.143V112.072H472.6ZM472.6 81.608L472.394 80.6294L471.6 80.7966V81.608H472.6ZM477.464 79.176L478.278 79.7572L478.84 78.9707L478.073 78.3825L477.464 79.176ZM464.28 69.064L464.889 68.2705L464.165 67.7159L463.546 68.3846L464.28 69.064ZM446.104 79.56V78.56H445.104V79.56H446.104ZM465.048 79.56V80.56H466.048V79.56H465.048ZM465.048 75.976H466.048V74.976H465.048V75.976ZM446.488 75.976L446.105 76.8996L446.289 76.976H446.488V75.976ZM432.92 70.344L433.303 69.4204L431.92 68.8462V70.344H432.92ZM432.92 120.008H431.92V121.008H432.92V120.008ZM467.992 17.352L468.609 16.5648L467.812 15.9409L467.198 16.7445L467.992 17.352ZM461.336 26.056V27.056H461.83L462.13 26.6635L461.336 26.056ZM425.368 26.056V25.056H424.055L424.404 26.3219L425.368 26.056ZM426.392 29.768L425.428 30.0339L425.63 30.768H426.392V29.768ZM480.28 27.72L481.264 27.8989L481.361 27.3653L480.967 26.993L480.28 27.72ZM462.744 50.632L463.364 49.8471L462.576 49.2256L461.957 50.0147L462.744 50.632ZM456.216 58.952V59.952H456.702L457.003 59.5693L456.216 58.952ZM431 58.952V57.952H429.687L430.036 59.2179L431 58.952ZM432.024 62.664L431.06 62.9299L431.263 63.664H432.024V62.664ZM474.392 60.616L475.376 60.7949L475.471 60.27L475.088 59.8984L474.392 60.616ZM462.744 34.12L463.364 33.3351L462.576 32.7136L461.957 33.5027L462.744 34.12ZM456.216 42.44V43.44H456.702L457.003 43.0573L456.216 42.44ZM431 42.44V41.44H429.674L430.038 42.7147L431 42.44ZM432.024 46.024L431.062 46.2987L431.27 47.024H432.024V46.024ZM474.392 43.976L475.376 44.1549L475.473 43.6202L475.077 43.2478L474.392 43.976ZM510.285 6.28883L490.957 0.0168228L490.339 1.91917L509.667 8.19117L510.285 6.28883ZM489.669 0.762985C485.718 19.6255 478.326 39.7506 471.215 52.4474L472.961 53.4246C480.186 40.5214 487.642 20.1985 491.627 1.173L489.669 0.762985ZM471.564 53.7877L473.228 54.8117L474.276 53.1083L472.612 52.0843L471.564 53.7877ZM474.389 54.7308C487.088 44.2346 497.795 28.6005 505.773 10.1978L503.939 9.40221C496.045 27.6075 485.504 42.9494 473.115 53.1892L474.389 54.7308ZM504.856 10.8C506.436 10.8 507.733 10.5262 508.754 9.97647C509.794 9.41667 510.493 8.59872 510.899 7.62461L509.053 6.85538C508.819 7.41727 508.43 7.87932 507.806 8.21552C507.163 8.56174 506.22 8.8 504.856 8.8V10.8ZM526.104 24.368H527.64V22.368H526.104V24.368ZM526.64 23.3626C526.512 47.0503 526.384 65.7792 525.777 79.1145C525.474 85.7846 525.051 91.0739 524.456 94.9459C524.158 96.8828 523.82 98.4378 523.443 99.6214C523.057 100.83 522.663 101.544 522.314 101.904L523.75 103.296C524.425 102.6 524.935 101.526 525.348 100.229C525.77 98.9072 526.126 97.2392 526.432 95.2501C527.045 91.2701 527.471 85.8954 527.775 79.2055C528.384 65.8208 528.512 47.0457 528.64 23.3734L526.64 23.3626ZM522.289 101.931C521.786 102.49 521.372 102.788 520.866 102.972C520.328 103.168 519.605 103.264 518.424 103.264V105.264C519.675 105.264 520.68 105.168 521.55 104.852C522.452 104.524 523.126 103.99 523.775 103.269L522.289 101.931ZM518.424 103.264C515.398 103.264 506.475 102.755 500.612 102.118L500.396 104.106C506.309 104.749 515.306 105.264 518.424 105.264V103.264ZM499.506 103.045L499.378 104.965L501.374 105.099L501.502 103.179L499.506 103.045ZM500.192 106.015C503.218 106.582 505.972 107.335 508.236 108.22C510.52 109.111 512.227 110.106 513.237 111.115L514.651 109.701C513.357 108.406 511.352 107.289 508.964 106.356C506.556 105.417 503.678 104.634 500.56 104.049L500.192 106.015ZM513.26 111.138C514.096 111.921 514.729 113.128 515.133 114.76C515.537 116.388 515.695 118.372 515.632 120.62L517.632 120.676C517.697 118.316 517.535 116.14 517.075 114.28C516.615 112.424 515.84 110.815 514.628 109.678L513.26 111.138ZM516.632 121.648C524.893 121.648 530.834 119.408 535.171 114.528L533.677 113.2C529.822 117.536 524.498 119.648 516.632 119.648V121.648ZM535.187 114.511C536.94 112.441 538.21 109.344 539.165 105.152C540.124 100.944 540.788 95.5291 541.262 88.7335C542.208 75.1432 542.4 55.8749 542.592 29.3912L540.592 29.3767C540.4 55.8851 540.208 75.0808 539.266 88.5945C538.796 95.351 538.14 100.648 537.215 104.708C536.286 108.784 535.108 111.511 533.661 113.217L535.187 114.511ZM541.727 30.3748C544.651 29.9761 546.755 29.0192 547.885 27.5659L546.307 26.3381C545.645 27.1888 544.164 28.0239 541.457 28.3932L541.727 30.3748ZM547.755 26.1994L534.443 14.5514L533.125 16.0566L546.438 27.7046L547.755 26.1994ZM533.06 14.6143L525.38 22.6783L526.828 24.0577L534.508 15.9936L533.06 14.6143ZM533.912 22.368H493.592V24.368H533.912V22.368ZM492.691 22.9332L490.899 26.6452L492.701 27.5147L494.493 23.8027L492.691 22.9332ZM491.8 28.08H533.912V26.08H491.8V28.08ZM534.912 27.08V23.368H532.912V27.08H534.912ZM514.456 60.896H489.752V62.896H514.456V60.896ZM488.752 61.896V65.608H490.752V61.896H488.752ZM489.752 66.608H514.456V64.608H489.752V66.608ZM515.456 65.608V61.896H513.456V65.608H515.456ZM514.712 81.376H490.008V83.376H514.712V81.376ZM489.008 82.376V86.088H491.008V82.376H489.008ZM490.008 87.088H514.712V85.088H490.008V87.088ZM515.712 86.088V82.376H513.712V86.088H515.712ZM506.136 43.696H507.416V41.696H506.136V43.696ZM506.416 42.696V92.872H508.416V42.696H506.416ZM507.416 93.872H509.336V91.872H507.416V93.872ZM509.336 93.872C511.482 93.872 514.101 93.2238 516.162 92.5041C517.201 92.1412 518.136 91.7471 518.835 91.3826C519.18 91.2022 519.496 91.0146 519.744 90.8266C519.867 90.7334 519.998 90.621 520.112 90.4899C520.211 90.3761 520.382 90.1525 520.434 89.8364L518.462 89.5076C518.482 89.3883 518.522 89.3034 518.547 89.2585C518.573 89.2124 518.596 89.1859 518.602 89.1791C518.611 89.168 518.597 89.1866 518.535 89.2334C518.414 89.3254 518.208 89.4538 517.909 89.6094C517.32 89.9169 516.479 90.2747 515.502 90.6159C513.531 91.3042 511.158 91.872 509.336 91.872V93.872ZM520.448 89.672V48.456H518.448V89.672H520.448ZM519.635 49.4383C522.455 48.9011 524.65 47.6672 525.624 46.368L524.024 45.168C523.462 45.9168 521.817 46.9868 519.261 47.4737L519.635 49.4383ZM525.424 44.968L512.624 35.368L511.424 36.968L524.224 46.568L525.424 44.968ZM511.281 35.4982L505.393 42.0262L506.879 43.3658L512.767 36.8378L511.281 35.4982ZM496.768 93.512V46.408H494.768V93.512H496.768ZM495.768 47.408H513.304V45.408H495.768V47.408ZM514.304 46.408V42.696H512.304V46.408H514.304ZM513.304 41.696H496.28V43.696H513.304V41.696ZM496.664 41.7727L483.736 36.3967L482.968 38.2433L495.896 43.6193L496.664 41.7727ZM482.352 37.32V97.608H484.352V37.32H482.352ZM483.352 98.608H485.272V96.608H483.352V98.608ZM485.272 98.608C488.122 98.608 490.884 97.8648 492.941 96.9544C493.968 96.4996 494.855 95.9878 495.503 95.4777C495.825 95.224 496.116 94.9489 496.336 94.6577C496.541 94.3855 496.768 93.9885 496.768 93.512H494.768C494.768 93.3555 494.835 93.3265 494.739 93.4533C494.658 93.5611 494.507 93.716 494.265 93.9063C493.785 94.2842 493.056 94.7164 492.131 95.1256C490.284 95.9432 487.798 96.608 485.272 96.608V98.608ZM439.942 1.016L438.918 1.656L439.978 3.352L441.002 2.712L439.942 1.016ZM438.719 3.18867C442.581 7.30005 446.557 14.2855 447.418 20.4346L449.398 20.1573C448.467 13.5065 444.251 6.15594 440.177 1.81932L438.719 3.18867ZM447.85 21.1257C451.53 23.6021 455.226 23.7741 458.115 22.4467C460.973 21.1337 462.945 18.3902 463.243 15.2547C463.545 12.0833 462.129 8.6443 458.491 5.93945C454.877 3.25289 449.082 1.28675 440.521 0.865208L440.423 2.86279C448.758 3.27325 454.115 5.1791 457.297 7.54454C460.455 9.89169 461.479 12.6847 461.253 15.0653C461.023 17.4818 459.499 19.6103 457.281 20.6293C455.094 21.6339 452.134 21.5979 448.966 19.4663L447.85 21.1257ZM466.072 103.392H440.984V105.392H466.072V103.392ZM439.984 104.392V108.104H441.984V104.392H439.984ZM440.984 109.104H466.072V107.104H440.984V109.104ZM467.072 108.104V104.392H465.072V108.104H467.072ZM457.88 76.976H459.16V74.976H457.88V76.976ZM458.16 75.976V115.912H460.16V75.976H458.16ZM459.16 116.912H461.464V114.912H459.16V116.912ZM461.464 116.912C463.943 116.912 466.827 116.129 469.073 115.261C470.204 114.823 471.21 114.349 471.957 113.914C472.328 113.698 472.661 113.476 472.92 113.257C473.049 113.148 473.182 113.021 473.294 112.877C473.395 112.747 473.546 112.519 473.59 112.213L471.61 111.931C471.625 111.826 471.657 111.752 471.676 111.713C471.696 111.673 471.713 111.652 471.715 111.649C471.717 111.646 471.695 111.674 471.627 111.731C471.493 111.845 471.27 112 470.951 112.186C470.318 112.555 469.412 112.985 468.351 113.395C466.213 114.223 463.593 114.912 461.464 114.912V116.912ZM473.6 112.072V81.608H471.6V112.072H473.6ZM472.806 82.5865C474.102 82.3137 475.245 81.9012 476.165 81.4235C477.064 80.9568 477.828 80.3874 478.278 79.7572L476.65 78.5948C476.46 78.8606 476.008 79.2512 475.243 79.6485C474.499 80.0348 473.53 80.3903 472.394 80.6294L472.806 82.5865ZM478.073 78.3825L464.889 68.2705L463.671 69.8575L476.855 79.9695L478.073 78.3825ZM463.546 68.3846L457.146 75.2966L458.614 76.6554L465.014 69.7434L463.546 68.3846ZM447.104 115.784V79.56H445.104V115.784H447.104ZM446.104 80.56H465.048V78.56H446.104V80.56ZM466.048 79.56V75.976H464.048V79.56H466.048ZM465.048 74.976H446.488V76.976H465.048V74.976ZM446.871 75.0524L433.303 69.4204L432.537 71.2676L446.105 76.8996L446.871 75.0524ZM431.92 70.344V120.008H433.92V70.344H431.92ZM432.92 121.008H434.84V119.008H432.92V121.008ZM434.84 121.008C437.754 121.008 440.703 120.233 442.924 119.298C444.035 118.83 445 118.307 445.707 117.792C446.058 117.537 446.375 117.261 446.616 116.971C446.834 116.708 447.104 116.295 447.104 115.784H445.104C445.104 115.593 445.194 115.552 445.076 115.695C444.98 115.811 444.804 115.975 444.529 116.176C443.984 116.573 443.165 117.026 442.148 117.454C440.113 118.311 437.43 119.008 434.84 119.008V121.008ZM467.198 16.7445L460.542 25.4486L462.13 26.6635L468.786 17.9594L467.198 16.7445ZM461.336 25.056H425.368V27.056H461.336V25.056ZM424.404 26.3219L425.428 30.0339L427.356 29.5021L426.332 25.7901L424.404 26.3219ZM426.392 30.768H476.824V28.768H426.392V30.768ZM476.824 30.768C477.823 30.768 478.807 30.592 479.612 30.1472C480.447 29.6856 481.075 28.9361 481.264 27.8989L479.296 27.5411C479.229 27.9119 479.025 28.1863 478.644 28.3968C478.233 28.624 477.617 28.768 476.824 28.768V30.768ZM480.967 26.993C478.636 24.792 475.542 22.1819 473.042 20.1309C471.79 19.1034 470.682 18.2125 469.888 17.5784C469.49 17.2612 469.171 17.0082 468.951 16.8343C468.841 16.7473 468.755 16.6801 468.698 16.6346C468.669 16.6118 468.647 16.5945 468.632 16.5827C468.624 16.5769 468.618 16.5724 468.615 16.5694C468.613 16.5679 468.611 16.5668 468.61 16.566C468.61 16.5656 468.609 16.5653 468.609 16.5651C468.609 16.565 468.609 16.5649 468.609 16.5649C468.609 16.5648 468.609 16.5648 467.992 17.352C467.375 18.1392 467.375 18.1392 467.375 18.1393C467.375 18.1393 467.375 18.1393 467.376 18.1394C467.376 18.1396 467.376 18.1398 467.377 18.1402C467.377 18.1409 467.379 18.1419 467.381 18.1433C467.384 18.1461 467.39 18.1504 467.397 18.156C467.411 18.1673 467.433 18.1843 467.461 18.2066C467.518 18.2514 467.602 18.3177 467.711 18.4037C467.929 18.5758 468.246 18.8268 468.64 19.1416C469.43 19.7715 470.53 20.6566 471.774 21.6771C474.266 23.7221 477.316 26.296 479.593 28.447L480.967 26.993ZM461.957 50.0147L455.429 58.3347L457.003 59.5693L463.531 51.2493L461.957 50.0147ZM456.216 57.952H431V59.952H456.216V57.952ZM430.036 59.2179L431.06 62.9299L432.988 62.3981L431.964 58.6861L430.036 59.2179ZM432.024 63.664H471.064V61.664H432.024V63.664ZM471.064 63.664C472.063 63.664 473.025 63.4882 473.808 63.0318C474.626 62.5547 475.193 61.7981 475.376 60.7949L473.408 60.4371C473.335 60.8419 473.134 61.1093 472.8 61.3042C472.431 61.5198 471.857 61.664 471.064 61.664V63.664ZM475.088 59.8984C472.884 57.7584 469.947 55.2423 467.575 53.2709C466.386 52.283 465.334 51.4278 464.579 50.8194C464.202 50.5151 463.898 50.2725 463.689 50.1057C463.585 50.0223 463.503 49.9579 463.448 49.9142C463.421 49.8923 463.4 49.8757 463.386 49.8644C463.378 49.8588 463.373 49.8545 463.369 49.8516C463.368 49.8502 463.366 49.8491 463.365 49.8483C463.365 49.8479 463.364 49.8477 463.364 49.8475C463.364 49.8474 463.364 49.8473 463.364 49.8472C463.364 49.8472 463.364 49.8471 462.744 50.632C462.124 51.4169 462.124 51.4169 462.124 51.4169C462.124 51.4169 462.124 51.417 462.125 51.4171C462.125 51.4172 462.125 51.4174 462.125 51.4178C462.126 51.4184 462.128 51.4194 462.129 51.4207C462.133 51.4234 462.138 51.4275 462.145 51.4329C462.158 51.4437 462.179 51.4599 462.206 51.4812C462.26 51.524 462.339 51.5874 462.443 51.6698C462.65 51.8345 462.95 52.0749 463.325 52.3766C464.074 52.9802 465.118 53.829 466.297 54.8091C468.661 56.7737 471.548 59.2496 473.696 61.3336L475.088 59.8984ZM461.957 33.5027L455.429 41.8227L457.003 43.0573L463.531 34.7373L461.957 33.5027ZM456.216 41.44H431V43.44H456.216V41.44ZM430.038 42.7147L431.062 46.2987L432.986 45.7493L431.962 42.1653L430.038 42.7147ZM432.024 47.024H471.064V45.024H432.024V47.024ZM471.064 47.024C472.063 47.024 473.025 46.8482 473.808 46.3918C474.626 45.9147 475.193 45.1581 475.376 44.1549L473.408 43.7971C473.335 44.2019 473.134 44.4693 472.8 44.6642C472.431 44.8798 471.857 45.024 471.064 45.024V47.024ZM475.077 43.2478C472.876 41.1762 469.943 38.695 467.572 36.7404C466.384 35.7611 465.333 34.9104 464.578 34.3043C464.201 34.0013 463.898 33.7593 463.689 33.593C463.584 33.5098 463.503 33.4455 463.448 33.4019C463.421 33.3801 463.4 33.3635 463.385 33.3523C463.378 33.3467 463.373 33.3425 463.369 33.3396C463.367 33.3381 463.366 33.337 463.365 33.3363C463.365 33.3359 463.364 33.3356 463.364 33.3354C463.364 33.3353 463.364 33.3353 463.364 33.3352C463.364 33.3352 463.364 33.3351 462.744 34.12C462.124 34.9049 462.124 34.9049 462.124 34.9049C462.124 34.9049 462.125 34.905 462.125 34.9051C462.125 34.9052 462.125 34.9055 462.126 34.9058C462.126 34.9064 462.128 34.9074 462.129 34.9088C462.133 34.9115 462.138 34.9156 462.145 34.921C462.158 34.9318 462.179 34.948 462.206 34.9694C462.26 35.0122 462.34 35.0757 462.443 35.158C462.65 35.3227 462.951 35.5627 463.326 35.8636C464.075 36.4656 465.12 37.3109 466.3 38.2836C468.665 40.233 471.556 42.6798 473.707 44.7042L475.077 43.2478Z" fill="#B04B19"></path></svg>