<svg width="51" height="40" fill="none" xmlns="http://www.w3.org/2000/svg"><path d="M27.491 17.5c-1-.25-2-.75-2.75-1.5-.75-.25-1-1-1-1.5s.25-1.25.75-1.5c.75-.5 1.5-1 2.25-.75 1.5 0 2.75.75 3.5 1.75l2.25-3c-.75-.75-1.5-1.25-2.25-1.75s-1.75-.75-2.75-.75V5h-3v3.5c-1.25.25-2.5 1-3.5 2-1 1.25-1.75 2.75-1.5 4.25 0 1.5.5 3 1.5 4 1.25 1.25 3 2 4.5 2.75.75.25 1.75.75 2.5 1.25.5.5.75 1.25.75 2s-.25 1.5-.75 2.25c-.75.75-1.75 1-2.5 1-1 0-2.25-.25-3-1-.75-.5-1.5-1.25-2-2l-2.5 2.75c.75 1 1.5 1.75 2.5 2.5 1.25.75 2.75 1.5 4.25 1.5V35h2.75v-3.75c1.5-.25 2.75-1 3.75-2 1.25-1.25 2-3.25 2-5 0-1.5-.5-3.25-1.75-4.25-1.25-1.25-2.5-2-4-2.5ZM25.991 0c-11 0-20 9-20 20s9 20 20 20 20-9 20-20-9-20-20-20Zm0 37.25c-9.5 0-17.25-7.75-17.25-17.25s7.75-17.25 17.25-17.25S43.241 10.5 43.241 20s-7.75 17.25-17.25 17.25Z" fill="#B04B19"/><path stroke="#C2724A" stroke-width="3" d="m45.023 1.089-38 36"/></svg>