<svg width="41" height="40" fill="none" xmlns="http://www.w3.org/2000/svg"><path d="M20.126 0c-11.045 0-20 8.955-20 20s8.955 20 20 20c11.044 0 20-8.955 20-20s-8.956-20-20-20Zm.24 29.91c-4.91 0-7.74-3.267-7.74-8.7v-2.335c0-5.473 2.83-8.786 7.736-8.786 4.21 0 7.264 2.71 7.264 6.58a.21.21 0 0 1-.21.21h-2.531a.36.36 0 0 1-.358-.33c-.178-2.21-1.785-3.723-4.151-3.723-2.915 0-4.558 2.165-4.558 6.049v2.348c0 3.826 1.647 5.965 4.558 5.965 2.357 0 3.96-1.416 4.151-3.474a.36.36 0 0 1 .358-.326h2.535a.21.21 0 0 1 .21.21c0 3.688-3.067 6.313-7.263 6.313Z" fill="#B04B19"/></svg>