<svg width="24" height="12" fill="none" xmlns="http://www.w3.org/2000/svg"><g clip-path="url(#a)" fill="#F1F1F1"><path d="M11.338 6.129c-.639.017-.984.11-1.253-.217-.232-.282.122-1.707.17-1.884.306-1.135.943-1.96 1.844-2.666a6.788 6.788 0 0 1 1.785-.999c.498-.19 1.044-.339 1.571-.344 1.293-.011 2.591.02 3.879.134.856.076 1.616.517 2.33 1.011a5.525 5.525 0 0 1 2.144 2.87c.12.36.197.754.193 1.131-.007.777-.015 1.567-.153 2.326-.091.503-.4 1.125-.642 1.591-.403.703-.754 1.055-1.266 1.582-.914.94-2.124 1.341-3.415 1.337-4.325-.011-8.65.009-12.974-.021-.506-.004-1.039-.18-1.508-.393-.672-.307-1.353-.65-1.926-1.114C1.44 9.93.832 9.283.459 8.448c-.507-1.13-.5-2.331-.419-3.519.06-.886.458-1.702 1.003-2.38.462-.575 1.004-1.12 1.608-1.524.554-.368 1.215-.6 1.862-.783C5.887-.147 6.95.058 8.272.02c.049-.002.065.001.182-.001 0 .42.032.878-.007 1.307-.01.098-.011.25-.137.254-.808.005-1.844.028-2.655.002-.953-.031-1.774.33-2.523.871-1.307.945-1.82 2.29-1.718 3.897.044.686.24 1.342.626 1.912.666.984 1.536 1.705 2.675 2.04.137.04.29.032.437.032 4.532.002 9.062.01 13.594 0 1.217-.003 2.134-.655 2.836-1.608.348-.473.726-1.024.806-1.583.138-.963.23-1.95-.155-2.933-.394-1.004-1.098-1.678-1.937-2.194-.597-.367-1.288-.602-2.02-.597-.93.006-1.86-.003-2.79.002-.941.003-1.722.433-2.462.98-.871.642-1.244 1.538-1.521 2.548-.124.452-.142.66-.166 1.18v-.001Z"/><path d="M8.467 2.458v1.304c0 .29-.143.384-.42.38-.841-.01-1.684.048-2.523 0-.874-.052-1.732 1.228-1.416 2.2.22.673.739 1.047 1.28 1.398.1.065 1.176.053 1.306.053 4.132.002 7.345.003 11.477.001.72 0 1.515-.826 1.54-1.566.026-.706-.045-1.362-.73-1.746-.217-.121-.445-.298-.674-.308-.898-.038-1.8-.038-2.698-.018-.786.017-1.567.876-1.577 1.69-.003.304-.023.61.005.91.043.482-.287.658-.62.752-.35.098-.693.009-.902-.371-.526-.957-.236-1.845.203-2.72.43-.86.78-1.24 1.595-1.6.233-.103.938-.186 1.198-.182 1.143.02 2.297-.024 3.423.136.464.066.982.422 1.338.8.498.443.71 1.087.86 1.711.218.9.141 1.997-.362 2.777a2.43 2.43 0 0 1-.6.665c-.604.494-1.27.71-1.97.715-4.147.022-8.293.001-12.44.022-.721.004-1.267-.373-1.762-.777-1.403-1.142-1.591-2.391-1.16-4.013.24-.9.888-1.585 1.748-1.966.486-.28 1.032-.243 1.533-.245.765-.003 1.53 0 2.348 0v-.002Z"/></g><defs><clipPath id="a"><path fill="#fff" d="M0 0h24v12H0z"/></clipPath></defs></svg>