<svg width="297" height="360" fill="none" xmlns="http://www.w3.org/2000/svg"><path d="m102.64 28.09-1.53 15.31-41.37 2.56" stroke="#F1F1F1" stroke-miterlimit="10"/><path d="M75.06 69.45s30.64 29.62 40.34 33.19c0 0 5.62 2.04 8.68-7.15 0 0-23.49-21.96-22.98-52.09M102.26 31.9l62.17 28.86-43.66 22.47s-.51 2.3 1.02 2.55l46.72-22.72v-4.22l-54.64-25.4" stroke="#F1F1F1" stroke-miterlimit="10"/><path d="m159.14 58.31-29.18-2.65s-2.3-1.79 0-4.09l21.93 3.37M131.58 51.57v-6.06M131.58 55.81s-5.83 10.83-4.36 24.11M126.98 83.26v8.14l-2.89 4.09" stroke="#F1F1F1" stroke-miterlimit="10"/><path d="M95.75 88.33s-5.37 8.95 1.27 16.61l18.13 12.51s12.26 4.85 17.62-4.34c0 0 14.18-15.51 7.51-36.31M173.11 188.43v8.34c0 1.55.67 3 1.79 3.87 2.35 1.83 6.51 3.64 9.42-3.11.44-1.01.67-2.14.67-3.27v-8.95M40.34 92.43l128.17 73.53-1.28 34.47-94.72-26.81" stroke="#F1F1F1" stroke-miterlimit="10"/><path d="m69.96 109.42 123.06 59.6-24.51 8.68" stroke="#F1F1F1" stroke-miterlimit="10"/><path d="M69.96 90.89v11.94l123.06 55.98v10.21s0 16.85-4.6 24l-3.45 1.24M73.53 183.2l64.8 9.05" stroke="#F1F1F1" stroke-miterlimit="10"/><path d="M173.87 186.33c1.27 0 2.3-.457 2.3-1.02s-1.03-1.02-2.3-1.02c-1.27 0-2.3.457-2.3 1.02s1.03 1.02 2.3 1.02ZM183.45 184.22c1.27 0 2.3-.457 2.3-1.02s-1.03-1.02-2.3-1.02c-1.27 0-2.3.457-2.3 1.02s1.03 1.02 2.3 1.02Z" stroke="#F1F1F1" stroke-miterlimit="10"/><path d="M171.57 185.31v2.41s2.17 1.34 4.6 0v-2.41M181.15 183.2v2.11s2.43 1.86 4.6 0v-2.11" stroke="#F1F1F1" stroke-miterlimit="10"/><path d="M175.05 188.32v6.67c0 1.7.76 3.21 1.9 4.25 1.31 1.19 5.09.85 5.48-5.42v-7.49M73.53 188.32l86.45 10.05M167.23 200.43l5.88-2.06M175.05 197.04l7.38-2.78M131.49 31.9s17.66 7.9 28.49 22.98M165.12 64.71s7.22 8.08 7.98 24.66l-1.53 59.68M189.78 190.35l74.48-17.24M176.17 151.14l64.34-7.58v-60.3c-3.06-11.97-9.19-21.99-9.19-21.99M240.51 83.26l6.64 7.38v51.94l-6.64.98M193.02 162.64l67.92-11.49M247.15 90.64l12-.26M247.15 142.58l13.49-1.41M79.06 297.56l-.86 1.63c-1.28 3.11-2.77 9.08-1.54 12.21.79 2.03 1.95 3.46 3.24 4.47 4.08 3.19 10.04 2.22 13.3-1.8 6.99-8.64 1.28-17.39 1.28-17.39l-.34-7.53 7.15-8.04h-6.3v-14.55l59.9 11.42.35 22.16-5.36 6.68 11.15 2.25" stroke="#F1F1F1" stroke-miterlimit="10"/><path d="m175.15 311.29-.68 14.16c-2.04 9.19-5.52 3.06-5.52 3.06-.59-.85 0-19.32 0-19.32l-3.15-.12h-4.77l-1.4 1.06c-3.45 2.72-4.95 12.07-4.95 12.07-.93 4.17-.23 8.6 2.2 12.11 5.73 8.27 13.44 3.39 13.44 3.39 8.76-3.23 4.85-18.21 4.85-18.21v-10.3l6-11.63-4.18.17.22-17.39L239 249.19l-.1 9.15 3.17 1.06v4.6s-10.04 9.53-2.38 18.38c0 0 7.1 9.59 15.66 1.65 8.56-7.94.64-23.99.64-23.99l4.47-2.68-2.81-3.83 1.53-79.24M184.31 197.53l74.77-19.83" stroke="#F1F1F1" stroke-miterlimit="10"/><path d="m238.35 183.2 14.8 1.09v48.82l-76.98-8.43" stroke="#F1F1F1" stroke-miterlimit="10"/><path d="M82.17 189.32v67.79l86.94-31.66-.6-25.22 4.45 2.09 3.2-.44 1.29 70.03 69.7-34.79-70.49-7.85M82.17 264.51l5.4 1.28.11 15.32h-5.41l-.1-16.6ZM162.64 279.57l6.47 2.98-.17 15.01h-6.47l.17-17.99ZM243.83 246.13v8.09l7.91 1.18v-13.36l-7.91 4.09Z" stroke="#F1F1F1" stroke-miterlimit="10"/><path d="M189.78 265.76v-5.85s.54 5.57 0-1.28c-.54-6.85-5.46-8.68-5.46-8.68v-2.04l2.85-4.14-.28-1.73v-11.63M176.97 245.88l4.18-2.31v-13.8M76.09 283.91s1.95 2.81 6.08 1.02v-3.83M87.57 281.11v4.42s4.05 3.21 7.4 0v-4.42" stroke="#F1F1F1" stroke-miterlimit="10"/><path d="m94.47 296.68-.13 8.81c-.07 5.6-2.02 6.22-3.79 5.61-1.77-.61-2.87-2.36-2.87-4.23l-.11-17.72H79.6l-9.39-.26 5.87-4.98-2.55-100.71-1.02-9.58-35.23-10.72 3.06-70.47 29.62-1.53 5.11-21.45-15.32-23.49 3.06-14.3 39.83-3.57 11.23 5.36s0-4.6 22.21 0l73.02 11.23s15.57 5.11 22.21 16.6l8.68 2.3 19.15 26.81 1.79 60.77 3.32 21.96" stroke="#F1F1F1" stroke-miterlimit="10"/><path d="M87.57 300.22s-5.02 3.37-2.04 10.12c0 0 3.96 6.24 7.15.95M79.06 297.56s3.02-5.13 8.62-2.92" stroke="#F1F1F1" stroke-miterlimit="10"/><path d="M92.3 309.07c1.01 0 1.83-1.007 1.83-2.25s-.82-2.25-1.83-2.25c-1.01 0-1.83 1.007-1.83 2.25s.82 2.25 1.83 2.25ZM172.13 328.21c1.011 0 1.83-1.007 1.83-2.25s-.819-2.25-1.83-2.25c-1.011 0-1.83 1.007-1.83 2.25s.819 2.25 1.83 2.25ZM87.57 289.15h6.55M76.09 289.15h.85v12.81M81.36 289.15v6.06M162.64 295.66v4.56c-.24 3.99-7.29 7.33-7.4-.08M168.94 297.56v4.12s4.16 4.05 7.22 0l.81-3.95M156.6 309.22v5.77" stroke="#F1F1F1" stroke-miterlimit="10"/><path d="M168.51 316.09s-5.61 9.19-2.72 14.64c0 0 3.32 4.94 6.34-.4M247.79 277.27a1.53 1.53 0 1 0 0-3.06 1.53 1.53 0 0 0 0 3.06ZM185.63 262.35a2.07 2.07 0 1 0 0-4.14 2.07 2.07 0 0 0 0 4.14Z" stroke="#F1F1F1" stroke-miterlimit="10"/><path d="m242.04 259.4 9.7 1.02v10.85l-3.96.64s-4.47.89-3.06 4.72c0 0 .64 2.81 5.23 1.66l4.47-2.55 2.3 1.53 2.67-5.36M177.03 249.03l3.4 2.59.72 6.42-3.93 1.36M177.31 264.51l5.12-.68 3.31.68 1.43 2.04M180.43 251.62l3.88-1.66M251.74 260.43l4.22-.39" stroke="#F1F1F1" stroke-miterlimit="10"/><path d="M242.04 264s2.38-2.41 9.7-.17M251.74 268.99s-5.39-.87-5.97 3.82M246.89 278.57s4.85 3.98 6.26-2.1M238.92 254.22s2.19 1.49 4.91 0v-2.05M251.74 255.4l2.15 1.7s2.19-.26 3.72-3.57M181.15 243.57s3.83 1.11 6.02.2M127.68 67.86s7.9.85 10.65 6.33M102.64 102.9a1.79 1.79 0 1 0 .001-3.579 1.79 1.79 0 0 0-.001 3.579ZM109.79 109.26a1.84 1.84 0 1 0 0-3.68 1.84 1.84 0 0 0 0 3.68ZM120.26 113.41a2.15 2.15 0 1 0 0-4.3 2.15 2.15 0 0 0 0 4.3ZM130.6 107.23a2.15 2.15 0 1 0-.001-4.301 2.15 2.15 0 0 0 .001 4.301ZM133.01 96.51a2.15 2.15 0 1 0 0-4.3 2.15 2.15 0 0 0 0 4.3ZM168.94 309.19h6.21M87.57 265.79l7.41.76M154.88 277.97l7.76 1.6M238.98 249.19l4.85-3.06M82.17 257.11l11.53 1.78 74.81-29.61v44.68l-75.83-15.07" stroke="#F1F1F1" stroke-miterlimit="10"/></svg>