<svg width="178" height="158" fill="none" xmlns="http://www.w3.org/2000/svg"><g clip-path="url(#a)" stroke="#F1F1F1" stroke-miterlimit="10"><path d="M28.133 102.08s-7.675-7.617-4.292-17.111c0 0 1.031-9.11 9.803-13.786 0 0 19.762-11.277 28.07 7.39 0 0 5.283 12.368-1.652 21.214"/><path d="M22.327 99.741c-.288 1.015-.308 1.967-.033 2.846 2.834 9.063 34.379 3.044 71.937-8.703 37.559-11.748 66.91-24.776 64.076-33.838a4.376 4.376 0 0 0-.521-1.085M24.227 96.203c-.943 1.243-1.586 2.428-1.902 3.539M157.788 58.96c-1.265-1.93-3.889-3.184-8.083-3.873"/><path d="M150.705 58.704c3.02.235 2.948 1.847 2.472 3.284-.61 1.829-1.814 3.398-3.359 4.556-10.962 8.204-31.545 16.481-55.6 24.005-28.587 8.942-53.772 14.488-66.118 11.684 0 0-5.04-.723-2.495-3.515"/><path d="M22.294 102.587s3.553 13.915 6.474 17.746c.378-.212 31.948 3.625 74.431-11.505 45.182-16.093 58.608-30.633 58.608-30.633s.433-10.856-3.498-18.15"/><path d="M97.54 110.768s15.768 10.363 19.111 10.898M110.245 106.237s10.009 7.006 10.813 6.754"/><path d="M123.302 105.704s-4.04 18.117-13.018 21.276M131.838 111.558s-3.867 9.89-15.126 16.222M119.109 102.719l17.155 11.78M129.989 97.927l11.026 8.563"/><path d="M122.51 123.702s2.424 1.674 3.483 1.019l14.477-6.636c-5.974 3.274-11.429-1.522-11.429-1.522M137.227 94.38s12.019 10.148 12.638 13.821M146.307 89.387s7.475 3.78 8.386 9.512"/><path d="M142.087 98.682c.174.055.366 15.699-11.384 19.018M147.647 104.416s-6.466 13.269-12.812 14.727"/><path d="m138.899 116.798 1.569 1.287s7.69-2.595 9.455-6.392c0 0-1.467.906-5.186-2.147"/><path d="M155.619 92.045s.419 12.128-8.804 18.959"/><path d="M150.97 86.505s8.301 6.986 6.721 14.769a9.805 9.805 0 0 1-.306 1.151s-.866 4.192-9.481 9.103"/><path d="M158.726 80.945s5.919 10.656 4.916 15.717c0 0-4.997 5.631-6.455 6.337M158.479 103.641s-.412 2.086-2.643 4.539c0 0-5.678 4.236-7.35 3.529"/><path d="M161.805 78.195s2.851 4.962.243 9.705"/><path d="M162.67 86.494s4.511 8.116 2.376 10.984c0 0-4.19 7.186-8.153 6.122M104.427 115.148s-1.986 9.969-3.958 12.694c0 0-2.393 4.094-7.652 6.267"/><path d="M111.112 119.112s-2.158 5.23-3.67 8.098a9.009 9.009 0 0 1-2.031 2.581c-1.841 1.611-6.109 3.157-11.071 4.583M95.933 111.271s5.946 4.082 8.266 4.958M85.037 114.396s5.448 5.024 8.158 6.17l8.53 3.582M101.862 113.546l-.468 1.229"/><path d="M84.175 114.666s5.63 5.967 8.306 7.004c0 0 7.05 2.795 9.428 3.065M114.803 121.016s-1.193 4.065-4.78 5.889M114.599 121.585l1.4.838M98.655 122.86l-.476.885M92.694 120.328l-.598 1.142M72.94 117.129s7.867 7.08 10.629 8.384c0 0 5.32 2.98 8.128 3.873 0 0 3.944 1.703 6.216 1.5"/><path d="M102.503 131.612s5.099.91 6.66.482c0 0 12.521-3.74 16.165-7.135.3-.28-6.871 2.473-6.871 2.473-2.427.701-4.657.341-5.066.352-.409.011-5.478-1.497-5.478-1.497M80.797 123.693s-2.177 10.506-3.772 12.256c0 0-3.657 3.823-5.147 3.628M90.983 129.135s-.812 4.806-2.945 6.469c0 0-1.718 1.989-2.79 2.325-1.073.335-11.055 2.184-11.979 2.17"/><path d="M72.229 117.352s5.096 6.934 6.905 7.695c0 0 .808.339 1.357.052M90.295 131.798s2.356-.055 5.142-1.177M89.72 133.256s3.969 1.165 5.022 1.27c0 0 7.902-1.476 9.389-2.68M62.936 118.808s8.667 8.938 9.84 11.224c0 0-.512.77 6.082 1.482M64.274 118.615l-.419 1.151M85.877 137.828l2.197.336s7.442-1.598 9.22-2.248c.291-.107.587-.197.887-.284 2.223-.642 9.483-2.771 9.991-3.355M56.197 119.641s.178 3.787-.324 4.96"/><path d="M56.19 122.618s4.464 5.522 5.83 6.949c0 0 4.989 4.914 7.351 5.345 0 0 5.81 1.113 7.45 1.245"/><path d="m60.886 128.292-1.813 7.46s-1.332 4.388-2.229 4.407M68.13 137.726s5.197 2.713 5.952 2.681c.755-.032 4.062 1.086 7.374.082l.19-.059c3.375-1.106 5.44-1.825 6.077-2.319"/><path d="M67.263 140.28s2.62.78 4.004.702c0 0 2.762.176 4-.402M68.429 137.031s4.755-.572 6.261-1.167M51.779 120.054s2.194 4.334 7.886 6.796M47.67 120.341l.52 4.779M44.946 120.477s4.354 6.437 5.284 6.959c0 0 4.51 5.176 8.75 6.436.082.025.163.048.245.068M41.74 120.581s.436 4.893.131 5.552"/><path d="M41.963 124.07s3.397 5.575 4.598 6.482c0 0 5.334 4.492 6.064 4.874.73.382 4.08 2.436 5.591 2.705"/><path d="M46.904 130.841s-1.446 7.439-.926 9.919c0 0 6.216 1.441 8.102.784 0 0-.457-2.413.512-4.875"/><path d="M53.99 140.705s4.77 1.443 5.894 1.447c0 0 8.969.345 11.385-1.173M54.116 138.394s2.333.11 2.849-.677M38.041 120.62s2.758 5.968 5.99 6.887M35.787 120.6l-.187 3.167M33.749 120.549s5.152 9.189 6.57 10.337c0 0 5.322 4.501 5.834 4.69"/><path d="m32.489 120.505 1.81 4.484s3.335 6.398 4.737 7.657c1.403 1.259 6.387 5.484 6.871 5.457"/><path d="M36.267 128.6s-.316 5.869.37 7.276c0 0 6.825 2.592 9.21 2.959M30.836 120.428s1.957 3.371 3.038 3.512"/><path d="M30.076 120.385s2.761 6.809 6.141 9.566M28.768 120.333s3.38 8.486 7.43 11.67M69.372 134.914s-2.303 5.055-2.29 5.618c.019.877-.54.717-.54.717-1.344-.303-7.422-.081-7.422-.081l-.684.168c-.685.168-1.35-.156-1.35-.156-.401-.028-.819-.604-.819-.604s-.297-.511-.46-.94"/><path d="M54.005 139.285s3.05.934 3.745-.141M42.094 68.212s-4.982-3.21-4.697-8.044l-.065-4.043a17.089 17.089 0 0 1 1.755-7.831c.954-1.941 2.262-4.019 3.861-5.152 0 0 8.354-5.252 19.045-.512"/><path d="M81.853 50.832s-4.155 1.3-7.689.53c-.9-.196-1.806-.36-2.718-.471-2.425-.295-7.2-1.474-9.413-6.163 0 0-.884-10.269 4.986-16.322 0 0 5.195-6.342 16.75-3.956a13.022 13.022 0 0 1 5.323 2.419c2.122 1.635 4.879 4.78 5.633 8.389M59.77 75.02s1.536-7.333 3.598-9.385c0 0 4.733-5.931 9.39-6.452 0 0 8.304-1.659 12.776 3.62 0 0 6.128 7.182 6.055 10.328"/><path d="M96.324 89.89s-2.045-2.524-2.777-4.108c-.733-1.583-1.826-6.73-2.254-9.083-.74-4.1 2.552-6.887 2.552-6.887s7.786-6.536 9.597-7.22c0 0 8.341-4.248 11.983-5.388 0 0 10.352-1.831 15.669 4.238 0 0 5.895 9.053-.241 14.253 0 0-2.41 2.76-3.575 3.233"/><path d="M86.782 64.34s-8.053-9.016-4.232-15.6c3.821-6.586 9.122-12.578 13.59-14.092 4.466-1.514 12.293-4.313 16.598-2.966 4.305 1.347 11.982 12.584 11.071 16.574a16.973 16.973 0 0 0-.283 1.739c-.255 2.188-1.248 6.608-5.115 6.955M89.852 68.718s2.152 1.21 5.116.162"/><path d="M92.025 29.639s1.414-4.457 2.501-5.266c1.088-.808 6.03-3.058 7.557-3.065 1.527-.008 5.41-.761 8.111-.02 0 0 8.251 2.166 11.432 6.21 0 0 7.425 9.746 2.241 19.1M123.873 47.761l9.507-2.973s6.519-2.973 10.15 1.866c0 0 5.642 4.924 6.872 10.874.162.784.407 1.545.674 2.302.531 1.513.955 4.276-1.966 6.167-4.207 2.722-6.723 5.856-15.96 6.46 0 0-2.812-2.93-8.121-3.73"/><path d="M125.67 40.433s6.309-.014 11.9 3.455M70.44 50.735s2.651 3.723 1.78 8.531M74.02 58.887s3.415-6.205 7.547-7.09M38.005 63.608s-4.156 5.116-4.973 7.916M61.186 69.897c-.447 1.207-5.436.846-5.436.846s1.69 2.51 1.844 3.503M63.442 91.543s4.587 6.431 7.35 5.716M93.942 86.524s.673 2.254-1.435 4.556M84.853 45.105s-.694-.618-1.762-1.22-2.244-2.462-2.62-3.515c-.375-1.053-.295-2.601-.534-3.35-.239-.75.162-2.04.162-2.04l1.045-2.202s1.342-2.294 3.297-2.437c0 0 3.347-.58 4.867-.233 0 0 3.85.748 4.25 2.027M96.717 67.454l-2.786-1.888s-2.063-1.698-2.443-4.04c0 0-.486-2.304 1.092-4.03 0 0 6.681-3.675 7.791-4.724 0 0 6.069-4.397 8.734-3.572 2.665.826 4.753 3.369 4.753 3.369s2.585 3.376 1.567 4.633M122.692 57.224l6.844-2.678s5.585-1.864 7.309-1.347c1.723.516 4.648 6.865 4.648 6.865s1.122 4.337.671 5.531c-.451 1.194-4.147 4.528-6.377 4.865l-2.297.757s-2.461-2.862-3.945-3.09"/><path d="M92.9 70.835s-.469 6.683 1.084 8.54c0 0 1.6 5.016 3.95 5.389 0 0 3.825-.556 5.326-2.9 1.501-2.345 5.87-5.234 5.87-5.234s4.275-4.736 4.39-6.295c.116-1.56.706-6.067-1.019-7.817-1.724-1.751-1.658-1.457-3.834-1.447l-3.621.72M87.897 65.812s-6.046-4.079-10.797-3.474M89.099 67.534s-2.577-1.37-4.313-1.139M93.549 85.782s-2.207 3.35-3.633 4.057M60.265 75.795s1.28-4.219 2.117-5.428M60.64 76.435s.935-1.997 1.285-2.89M63.575 90.272s3.81 3.675 5.266 4.105M63.637 88.74s2.206 2.254 3.314 2.335M69.63 69.027s3.327-3.076 8.546-3.247M72.536 68.118s1.42-.912 2.847-.89"/><path d="M113.084 63.218s2.376-2.147 6.702-2.979M131.565 62.25s-3.627-2.273-4.52-2.116M113.587 69.545s1.41-.962 5.04-.808M98.66 84.615s-.744 1.602-.477 2.638M93.984 79.373s-.608 1.674-.453 2.76M94.428 80.794s-.252 2.582-.14 3.328M99.36 88.94s-.58.043-.767-.376M112.102 50.88s4.314-4.17 3.707-7.363M112.055 31.508s3.306 4.053 2.628 6.399M112.924 51.594s2.789-2.373 3.343-4.106M115.96 33.898s3.209 4.317 1.724 10.1M92.185 63.43s-2.722-.427-3.583-1.264M81.886 50.248s.329 4.194 1.444 5.498M91.706 62.386s-1.225.19-2.225-1.016M115.304 55.005s2.009-.67 2.062-1.5M121.18 40.557s.983 5.108-1.435 7.408M89.485 68.126s3.404.633 4.77-.016M93.93 65.566s-1.712.18-2.547-.046M103.747 32.276s2.193.243 2.843 2.07M108.673 49.115s2.689-2.256 2.381-4.48a2.429 2.429 0 0 0-.121-.496M38.913 69s-3.847 4.166-4.042 6.547M31.364 102.754s2.86-1.943 6.516-2.038c0 0 4.8.564 5.959.123 0 0 1.732-.514 4.145 1.138"/><path d="M46.758 101.282s1.915-3.323 2.177-9.003M40.793 68.412s-1.787 1.289-2.448 4.075M48.542 67.941s3.529 7.593 3.368 10.768M45.389 100.845s1.707-2.987 1.944-4.926M49.432 68.076s1.512 1.704 1.93 4.04M56.404 100.539s2.536-3.329 2.26-5.273M28.904 74.772s-1.801 3.261-1.808 4.122M32.636 102.049s-2.122-2.983-2.742-6.145M44.729 67.865s2.56-1.57 4.419-1.86c0 0 6.394-.7 8.736-.297l4.569 1.212"/><path d="M45.579 67.386s-3.743-1.156-4.32-3.001M37.54 53.178s-.515 5.19.434 6.222M56.048 40.885s.816 5.109.657 7.657M56.366 65.494s1.437-5.118 1.104-6.182M57.33 41.115s.652 3.279.4 3.984M67.936 50.03s1.137 1.752 1.11 2.543M56.824 65.603s.94-1.118.89-2.015M41.472 44.521s-1.305 2.086-1.033 2.705M46.584 66.881s-2.66-1.178-2.717-1.766M43.352 56.546S45.267 63 48.755 65.92M61.991 42.63s5.965-1.824 8.471-1.513M80.47 40.368s-1.165.006-2.749-.042M79.68 23.935s2.692.803 4.108 2M83.766 24.45s2.031 1.325 2.878 2.779M86.528 30.071s-.458-1.415-.97-1.8M62.978 35.799s1.701-1.005 2.346-.734M79.928 35.717s-3.05-.852-5.262-.653M79.86 36.452s-1.82-.363-2.67-.33M71.822 50.943s5.24-1.033 6.087-1.535M74.164 51.362s2.13.192 3.14-.592M62.05 41.309s3.474-1.31 4.798-1.37M98.254 22.491s.107.878.315 1.008c.21.13.466.577 1.124.137.657-.44 1.11-.494 1.332-.534.223-.04 1.017-.416 1.501-.84.485-.425.889-1.047.889-1.047M101.439 32.908s-.738-1.68-.678-2.167"/><path d="M102.526 22.261s2.372.72 2.349 1.02M98.316 22.924s-1.033.44-1.46.954M95.052 35.096s-.384-1.956-.137-2.763M95.354 34.9s-.298-1.086-.088-1.445M103.067 21.686s5.398-.213 6.026.354M123.276 44.768s1.453-4.653 1.119-6.657M120.644 30.262s1.658 1.884 1.753 2.673M121.906 35.278s2.056 3.097.39 7.278M136.842 53.2s1.129-2.696 1.243-3.083M137.478 53.59s3.451-3.975 3.229-4.686M138.606 43.926s.645.785.365 1.167M142.258 65.065s3.097.585 4.618-.008M128.108 55.105s-.078-1.22.008-2.262M127.598 46.597s-.621 1.662-.508 2.212M133.076 53.551s-.048-1.772.7-3.13M138.386 69.275s.773 1.007 1.377 1.052"/></g><defs><clipPath id="a"><path fill="#fff" transform="rotate(-17.368 148.604 20.462)" d="M0 0h148.515v118.081H0z"/></clipPath></defs></svg>