<svg width="178" height="158" viewBox="0 0 178 158" fill="none" xmlns="http://www.w3.org/2000/svg">
<g clip-path="url(#clip0_113_212)">
<path d="M28.1332 102.08C28.1332 102.08 20.4577 94.4635 23.8407 84.9687C23.8407 84.9687 24.8724 75.8584 33.644 71.183C33.644 71.183 53.4063 59.9059 61.7139 78.5722C61.7139 78.5722 66.9969 90.9411 60.0618 99.787" stroke="#F1F1F1" stroke-miterlimit="10"/>
<path d="M22.3272 99.7411C22.0389 100.756 22.0187 101.708 22.2939 102.587C25.1283 111.65 56.6725 105.631 94.2311 93.8836C131.79 82.1362 161.141 69.1079 158.307 60.0458C158.187 59.6634 158.01 59.3035 157.786 58.9607" stroke="#F1F1F1" stroke-miterlimit="10"/>
<path d="M24.2266 96.2032C23.2839 97.4457 22.6411 98.6311 22.3251 99.7417" stroke="#F1F1F1" stroke-miterlimit="10"/>
<path d="M157.788 58.9601C156.523 57.0292 153.899 55.7758 149.705 55.0867" stroke="#F1F1F1" stroke-miterlimit="10"/>
<path d="M150.705 58.7042C153.725 58.9391 153.653 60.5515 153.177 61.9878C152.567 63.8166 151.363 65.3864 149.818 66.5442C138.856 74.7476 118.273 83.0255 94.2178 90.5494C65.6308 99.4907 40.4459 105.037 28.1003 102.233C28.1003 102.233 23.0602 101.51 25.6052 98.7182" stroke="#F1F1F1" stroke-miterlimit="10"/>
<path d="M22.2938 102.587C22.2938 102.587 25.8468 116.502 28.768 120.333C29.1462 120.121 60.7164 123.958 103.199 108.828C148.381 92.7346 161.807 78.1945 161.807 78.1945C161.807 78.1945 162.24 67.3394 158.309 60.0451" stroke="#F1F1F1" stroke-miterlimit="10"/>
<path d="M97.5404 110.768C97.5404 110.768 113.308 121.131 116.651 121.666" stroke="#F1F1F1" stroke-miterlimit="10"/>
<path d="M110.245 106.237C110.245 106.237 120.254 113.243 121.058 112.991" stroke="#F1F1F1" stroke-miterlimit="10"/>
<path d="M123.302 105.704C123.302 105.704 119.262 123.821 110.284 126.98" stroke="#F1F1F1" stroke-miterlimit="10"/>
<path d="M131.838 111.558C131.838 111.558 127.971 121.448 116.712 127.78" stroke="#F1F1F1" stroke-miterlimit="10"/>
<path d="M119.109 102.719L136.264 114.499" stroke="#F1F1F1" stroke-miterlimit="10"/>
<path d="M129.989 97.9274L141.015 106.49" stroke="#F1F1F1" stroke-miterlimit="10"/>
<path d="M122.51 123.702C122.51 123.702 124.934 125.376 125.993 124.721L140.47 118.085C134.496 121.359 129.041 116.563 129.041 116.563" stroke="#F1F1F1" stroke-miterlimit="10"/>
<path d="M137.227 94.3809C137.227 94.3809 149.246 104.528 149.865 108.201" stroke="#F1F1F1" stroke-miterlimit="10"/>
<path d="M146.307 89.3866C146.307 89.3866 153.782 93.1677 154.693 98.8989" stroke="#F1F1F1" stroke-miterlimit="10"/>
<path d="M142.087 98.6818C142.261 98.7375 142.453 114.381 130.703 117.7" stroke="#F1F1F1" stroke-miterlimit="10"/>
<path d="M147.647 104.416C147.647 104.416 141.181 117.685 134.835 119.143" stroke="#F1F1F1" stroke-miterlimit="10"/>
<path d="M138.899 116.798L140.468 118.085C140.468 118.085 148.158 115.49 149.923 111.693C149.923 111.693 148.456 112.599 144.737 109.546" stroke="#F1F1F1" stroke-miterlimit="10"/>
<path d="M155.619 92.0447C155.619 92.0447 156.038 104.173 146.815 111.004" stroke="#F1F1F1" stroke-miterlimit="10"/>
<path d="M150.97 86.5053C150.97 86.5053 159.271 93.4906 157.691 101.274C157.614 101.656 157.513 102.039 157.385 102.425C157.385 102.425 156.519 106.617 147.904 111.528" stroke="#F1F1F1" stroke-miterlimit="10"/>
<path d="M158.726 80.9454C158.726 80.9454 164.645 91.6009 163.642 96.662C163.642 96.662 158.645 102.293 157.187 102.999" stroke="#F1F1F1" stroke-miterlimit="10"/>
<path d="M158.479 103.641C158.479 103.641 158.067 105.727 155.836 108.18C155.836 108.18 150.158 112.416 148.486 111.709" stroke="#F1F1F1" stroke-miterlimit="10"/>
<path d="M161.805 78.1951C161.805 78.1951 164.656 83.1565 162.048 87.9" stroke="#F1F1F1" stroke-miterlimit="10"/>
<path d="M162.67 86.494C162.67 86.494 167.181 94.6098 165.046 97.4777C165.046 97.4777 160.856 104.664 156.893 103.6" stroke="#F1F1F1" stroke-miterlimit="10"/>
<path d="M104.427 115.148C104.427 115.148 102.441 125.117 100.469 127.842C100.469 127.842 98.0758 131.936 92.8172 134.109" stroke="#F1F1F1" stroke-miterlimit="10"/>
<path d="M111.112 119.112C111.112 119.112 108.954 124.342 107.442 127.21C106.927 128.186 106.243 129.063 105.411 129.791C103.57 131.402 99.302 132.948 94.3397 134.374" stroke="#F1F1F1" stroke-miterlimit="10"/>
<path d="M95.9332 111.271C95.9332 111.271 101.879 115.353 104.199 116.229" stroke="#F1F1F1" stroke-miterlimit="10"/>
<path d="M85.037 114.396C85.037 114.396 90.4848 119.42 93.195 120.566L101.725 124.148" stroke="#F1F1F1" stroke-miterlimit="10"/>
<path d="M101.862 113.546L101.394 114.775" stroke="#F1F1F1" stroke-miterlimit="10"/>
<path d="M84.1747 114.666C84.1747 114.666 89.8047 120.633 92.4809 121.67C92.4809 121.67 99.5304 124.465 101.909 124.735" stroke="#F1F1F1" stroke-miterlimit="10"/>
<path d="M114.803 121.016C114.803 121.016 113.61 125.081 110.023 126.905" stroke="#F1F1F1" stroke-miterlimit="10"/>
<path d="M114.599 121.585L115.999 122.423" stroke="#F1F1F1" stroke-miterlimit="10"/>
<path d="M98.6551 122.86L98.1788 123.745" stroke="#F1F1F1" stroke-miterlimit="10"/>
<path d="M92.6944 120.328L92.0956 121.47" stroke="#F1F1F1" stroke-miterlimit="10"/>
<path d="M72.9398 117.129C72.9398 117.129 80.8067 124.209 83.5687 125.513C83.5687 125.513 88.8887 128.493 91.6971 129.386C91.6971 129.386 95.6411 131.089 97.9131 130.886" stroke="#F1F1F1" stroke-miterlimit="10"/>
<path d="M102.503 131.612C102.503 131.612 107.602 132.522 109.163 132.094C109.163 132.094 121.684 128.354 125.328 124.959C125.628 124.679 118.457 127.432 118.457 127.432C116.03 128.133 113.8 127.773 113.391 127.784C112.982 127.795 107.913 126.287 107.913 126.287" stroke="#F1F1F1" stroke-miterlimit="10"/>
<path d="M80.7974 123.693C80.7974 123.693 78.6198 134.199 77.0248 135.949C77.0248 135.949 73.3676 139.772 71.8784 139.577" stroke="#F1F1F1" stroke-miterlimit="10"/>
<path d="M90.9827 129.135C90.9827 129.135 90.171 133.941 88.0377 135.604C88.0377 135.604 86.3198 137.593 85.2476 137.929C84.1755 138.264 74.1928 140.113 73.2693 140.099" stroke="#F1F1F1" stroke-miterlimit="10"/>
<path d="M72.2286 117.352C72.2286 117.352 77.3251 124.286 79.1338 125.047C79.1338 125.047 79.9424 125.386 80.4909 125.099" stroke="#F1F1F1" stroke-miterlimit="10"/>
<path d="M90.2954 131.798C90.2954 131.798 92.6506 131.743 95.437 130.621" stroke="#F1F1F1" stroke-miterlimit="10"/>
<path d="M89.7195 133.256C89.7195 133.256 93.6888 134.421 94.7418 134.526C94.7418 134.526 102.644 133.05 104.131 131.846" stroke="#F1F1F1" stroke-miterlimit="10"/>
<path d="M62.9362 118.808C62.9362 118.808 71.6031 127.746 72.7763 130.032C72.7763 130.032 72.2641 130.802 78.8578 131.514" stroke="#F1F1F1" stroke-miterlimit="10"/>
<path d="M64.2738 118.615L63.8555 119.766" stroke="#F1F1F1" stroke-miterlimit="10"/>
<path d="M85.8773 137.828L88.0739 138.164C88.0739 138.164 95.5161 136.566 97.2937 135.916C97.585 135.809 97.8814 135.719 98.1813 135.632C100.404 134.99 107.664 132.861 108.172 132.277" stroke="#F1F1F1" stroke-miterlimit="10"/>
<path d="M56.1965 119.641C56.1965 119.641 56.3746 123.428 55.8732 124.601" stroke="#F1F1F1" stroke-miterlimit="10"/>
<path d="M56.1904 122.618C56.1904 122.618 60.6539 128.14 62.0192 129.567C62.0192 129.567 67.009 134.481 69.3713 134.912C69.3713 134.912 75.1807 136.025 76.8205 136.157" stroke="#F1F1F1" stroke-miterlimit="10"/>
<path d="M60.8858 128.292L59.0728 135.752C59.0728 135.752 57.7412 140.14 56.8442 140.159" stroke="#F1F1F1" stroke-miterlimit="10"/>
<path d="M68.1299 137.726C68.1299 137.726 73.3273 140.439 74.082 140.407C74.8368 140.375 78.1439 141.493 81.4555 140.489C81.5185 140.47 81.5835 140.449 81.6465 140.43C85.0206 139.324 87.0852 138.605 87.7233 138.111" stroke="#F1F1F1" stroke-miterlimit="10"/>
<path d="M67.2633 140.28C67.2633 140.28 69.8821 141.06 71.2675 140.982C71.2675 140.982 74.0289 141.158 75.2671 140.58" stroke="#F1F1F1" stroke-miterlimit="10"/>
<path d="M68.4286 137.031C68.4286 137.031 73.1836 136.459 74.6904 135.864" stroke="#F1F1F1" stroke-miterlimit="10"/>
<path d="M51.779 120.054C51.779 120.054 53.973 124.388 59.6654 126.85" stroke="#F1F1F1" stroke-miterlimit="10"/>
<path d="M47.6697 120.341L48.1903 125.12" stroke="#F1F1F1" stroke-miterlimit="10"/>
<path d="M44.9459 120.477C44.9459 120.477 49.2995 126.914 50.2296 127.436C50.2296 127.436 54.7395 132.612 58.9801 133.872C59.0616 133.897 59.1425 133.92 59.2248 133.94" stroke="#F1F1F1" stroke-miterlimit="10"/>
<path d="M41.7397 120.581C41.7397 120.581 42.176 125.474 41.871 126.133" stroke="#F1F1F1" stroke-miterlimit="10"/>
<path d="M41.9626 124.07C41.9626 124.07 45.3602 129.645 46.5606 130.552C46.5606 130.552 51.8952 135.044 52.6251 135.426C53.355 135.808 56.7041 137.862 58.216 138.131" stroke="#F1F1F1" stroke-miterlimit="10"/>
<path d="M46.9045 130.841C46.9045 130.841 45.4583 138.28 45.9785 140.76C45.9785 140.76 52.1943 142.201 54.0804 141.544C54.0804 141.544 53.6229 139.131 54.5918 136.669" stroke="#F1F1F1" stroke-miterlimit="10"/>
<path d="M53.9907 140.705C53.9907 140.705 58.7607 142.148 59.8838 142.152C59.8838 142.152 68.8528 142.497 71.269 140.979" stroke="#F1F1F1" stroke-miterlimit="10"/>
<path d="M54.1156 138.394C54.1156 138.394 56.4488 138.504 56.9648 137.717" stroke="#F1F1F1" stroke-miterlimit="10"/>
<path d="M38.0413 120.62C38.0413 120.62 40.7993 126.588 44.0304 127.507" stroke="#F1F1F1" stroke-miterlimit="10"/>
<path d="M35.7869 120.6L35.6005 123.767" stroke="#F1F1F1" stroke-miterlimit="10"/>
<path d="M33.7487 120.549C33.7487 120.549 38.9007 129.738 40.3195 130.886C40.3195 130.886 45.6407 135.387 46.1534 135.576" stroke="#F1F1F1" stroke-miterlimit="10"/>
<path d="M32.4887 120.505L34.2989 124.989C34.2989 124.989 37.6336 131.387 39.0363 132.646C40.439 133.905 45.423 138.13 45.9073 138.103" stroke="#F1F1F1" stroke-miterlimit="10"/>
<path d="M36.2667 128.6C36.2667 128.6 35.9511 134.469 36.6377 135.876C36.6377 135.876 43.4625 138.468 45.8462 138.835" stroke="#F1F1F1" stroke-miterlimit="10"/>
<path d="M30.8361 120.428C30.8361 120.428 32.7933 123.799 33.8741 123.94" stroke="#F1F1F1" stroke-miterlimit="10"/>
<path d="M30.0765 120.385C30.0765 120.385 32.8373 127.194 36.217 129.951" stroke="#F1F1F1" stroke-miterlimit="10"/>
<path d="M28.7681 120.333C28.7681 120.333 32.1477 128.819 36.198 132.003" stroke="#F1F1F1" stroke-miterlimit="10"/>
<path d="M69.372 134.914C69.372 134.914 67.0693 139.969 67.0818 140.532C67.1006 141.409 66.5415 141.249 66.5415 141.249C65.1984 140.946 59.12 141.168 59.12 141.168L58.4355 141.336C57.7511 141.504 57.0854 141.18 57.0854 141.18C56.6849 141.152 56.2674 140.576 56.2674 140.576C56.2674 140.576 55.9696 140.065 55.8078 139.636" stroke="#F1F1F1" stroke-miterlimit="10"/>
<path d="M54.0049 139.285C54.0049 139.285 57.0543 140.219 57.7498 139.144" stroke="#F1F1F1" stroke-miterlimit="10"/>
<path d="M42.0941 68.2118C42.0941 68.2118 37.1123 65.0022 37.397 60.1683L37.3324 56.1251C37.2887 53.4152 37.8861 50.7298 39.0867 48.2939C40.0412 46.3525 41.3493 44.2753 42.9481 43.142C42.9481 43.142 51.3022 37.8904 61.9935 42.6297" stroke="#F1F1F1" stroke-miterlimit="10"/>
<path d="M81.8527 50.8318C81.8527 50.8318 77.6984 52.1311 74.164 51.3621C73.2643 51.1662 72.3584 51.0021 71.446 50.8906C69.0205 50.5961 64.2453 49.4167 62.0326 44.7283C62.0326 44.7283 61.1494 34.4594 67.0186 28.4065C67.0186 28.4065 72.2145 22.064 83.7683 24.4501C85.7065 24.8512 87.5295 25.6645 89.0924 26.869C91.214 28.5044 93.9709 31.6482 94.7245 35.2579" stroke="#F1F1F1" stroke-miterlimit="10"/>
<path d="M59.7692 75.0207C59.7692 75.0207 61.3058 67.6866 63.3683 65.635C63.3683 65.635 68.1008 59.7036 72.7589 59.1828C72.7589 59.1828 81.0621 57.5242 85.5345 62.8021C85.5345 62.8021 91.6624 69.9852 91.589 73.1308" stroke="#F1F1F1" stroke-miterlimit="10"/>
<path d="M96.3243 89.8904C96.3243 89.8904 94.2794 87.366 93.5469 85.7825C92.8143 84.199 91.7207 79.0528 91.2932 76.6993C90.5521 72.5993 93.8448 69.8119 93.8448 69.8119C93.8448 69.8119 101.631 63.2762 103.442 62.5928C103.442 62.5928 111.783 58.3436 115.425 57.2043C115.425 57.2043 125.777 55.3729 131.094 61.4422C131.094 61.4422 136.989 70.4947 130.853 75.6949C130.853 75.6949 128.443 78.4541 127.278 78.9284" stroke="#F1F1F1" stroke-miterlimit="10"/>
<path d="M86.7823 64.3392C86.7823 64.3392 78.7292 55.3239 82.5502 48.7391C86.3712 42.1544 91.672 36.1623 96.1392 34.648C100.606 33.1338 108.433 30.3348 112.738 31.6819C117.043 33.0291 124.72 44.2661 123.809 48.2563C123.68 48.8291 123.595 49.411 123.526 49.9946C123.271 52.183 122.278 56.6027 118.411 56.9496" stroke="#F1F1F1" stroke-miterlimit="10"/>
<path d="M89.8519 68.7181C89.8519 68.7181 92.0041 69.9287 94.9677 68.8802" stroke="#F1F1F1" stroke-miterlimit="10"/>
<path d="M92.0249 29.639C92.0249 29.639 93.4386 25.1816 94.5264 24.3733C95.6141 23.565 100.556 21.3149 102.083 21.3076C103.61 21.3003 107.493 20.547 110.194 21.2877C110.194 21.2877 118.445 23.4541 121.626 27.4977C121.626 27.4977 129.051 37.2441 123.867 46.5979" stroke="#F1F1F1" stroke-miterlimit="10"/>
<path d="M123.873 47.7613L133.38 44.7879C133.38 44.7879 139.899 41.815 143.53 46.6541C143.53 46.6541 149.172 51.5776 150.402 57.5278C150.564 58.3122 150.809 59.0731 151.076 59.8295C151.607 61.3429 152.031 64.1058 149.11 65.9969C144.903 68.7192 142.387 71.8534 133.15 72.4571C133.15 72.4571 130.338 69.5279 125.029 68.7265" stroke="#F1F1F1" stroke-miterlimit="10"/>
<path d="M125.67 40.4331C125.67 40.4331 131.979 40.4192 137.57 43.8881" stroke="#F1F1F1" stroke-miterlimit="10"/>
<path d="M70.4392 50.7353C70.4392 50.7353 73.0915 54.4578 72.2207 59.2663" stroke="#F1F1F1" stroke-miterlimit="10"/>
<path d="M74.0207 58.8868C74.0207 58.8868 77.4352 52.6816 81.5674 51.7976" stroke="#F1F1F1" stroke-miterlimit="10"/>
<path d="M38.0052 63.6079C38.0052 63.6079 33.8491 68.7235 33.0319 71.5236" stroke="#F1F1F1" stroke-miterlimit="10"/>
<path d="M61.1863 69.8968C60.7392 71.1036 55.7503 70.7435 55.7503 70.7435C55.7503 70.7435 57.4404 73.2527 57.5945 74.2462" stroke="#F1F1F1" stroke-miterlimit="10"/>
<path d="M63.4423 91.5435C63.4423 91.5435 68.0289 97.9742 70.7926 97.2589" stroke="#F1F1F1" stroke-miterlimit="10"/>
<path d="M93.9422 86.5238C93.9422 86.5238 94.6149 88.7776 92.5065 91.0799" stroke="#F1F1F1" stroke-miterlimit="10"/>
<path d="M84.8525 45.1051C84.8525 45.1051 84.1593 44.4868 83.0911 43.8847C82.0229 43.2827 80.8468 41.4227 80.4715 40.3699C80.0961 39.3171 80.1761 37.7686 79.9373 37.0196C79.6984 36.2707 80.0986 34.9799 80.0986 34.9799L81.1444 32.7783C81.1444 32.7783 82.486 30.4841 84.4406 30.3408C84.4406 30.3408 87.7882 29.7618 89.3084 30.1077C89.3084 30.1077 93.1588 30.856 93.5588 32.1351" stroke="#F1F1F1" stroke-miterlimit="10"/>
<path d="M96.7168 67.4544L93.9309 65.5656C93.9309 65.5656 91.8683 63.8682 91.4879 61.5252C91.4879 61.5252 91.0024 59.222 92.5796 57.4966C92.5796 57.4966 99.2615 53.8212 100.371 52.7722C100.371 52.7722 106.44 48.3752 109.105 49.2005C111.77 50.0258 113.858 52.569 113.858 52.569C113.858 52.569 116.443 55.9453 115.425 57.2024" stroke="#F1F1F1" stroke-miterlimit="10"/>
<path d="M122.692 57.2238L129.536 54.5461C129.536 54.5461 135.121 52.6821 136.845 53.1986C138.568 53.715 141.493 60.0641 141.493 60.0641C141.493 60.0641 142.615 64.4009 142.164 65.5951C141.713 66.7893 138.017 70.1226 135.787 70.4599L133.49 71.2173C133.49 71.2173 131.029 68.3551 129.545 68.1262" stroke="#F1F1F1" stroke-miterlimit="10"/>
<path d="M92.9002 70.8348C92.9002 70.8348 92.4315 77.5182 93.9843 79.3751C93.9843 79.3751 95.5831 84.3908 97.934 84.7637C97.934 84.7637 101.759 84.2076 103.26 81.8635C104.761 79.5195 109.13 76.6296 109.13 76.6296C109.13 76.6296 113.405 71.8944 113.52 70.3347C113.636 68.7751 114.226 64.2679 112.501 62.5175C110.777 60.767 110.843 61.0606 108.667 61.0711L105.046 61.7909" stroke="#F1F1F1" stroke-miterlimit="10"/>
<path d="M87.8972 65.8123C87.8972 65.8123 81.8511 61.7333 77.0996 62.3384" stroke="#F1F1F1" stroke-miterlimit="10"/>
<path d="M89.0989 67.5335C89.0989 67.5335 86.5217 66.1645 84.7858 66.3954" stroke="#F1F1F1" stroke-miterlimit="10"/>
<path d="M93.549 85.7819C93.549 85.7819 91.342 89.1314 89.9163 89.8389" stroke="#F1F1F1" stroke-miterlimit="10"/>
<path d="M60.2648 75.795C60.2648 75.795 61.5459 71.5764 62.3816 70.3674" stroke="#F1F1F1" stroke-miterlimit="10"/>
<path d="M60.6399 76.4347C60.6399 76.4347 61.5747 74.4376 61.9246 73.5458" stroke="#F1F1F1" stroke-miterlimit="10"/>
<path d="M63.5745 90.2723C63.5745 90.2723 67.3843 93.9472 68.8409 94.3772" stroke="#F1F1F1" stroke-miterlimit="10"/>
<path d="M63.6368 88.7408C63.6368 88.7408 65.8434 90.9944 66.9512 91.0747" stroke="#F1F1F1" stroke-miterlimit="10"/>
<path d="M69.6303 69.027C69.6303 69.027 72.9572 65.9512 78.1762 65.7804" stroke="#F1F1F1" stroke-miterlimit="10"/>
<path d="M72.5362 68.1182C72.5362 68.1182 73.9555 67.2062 75.3834 67.2277" stroke="#F1F1F1" stroke-miterlimit="10"/>
<path d="M113.084 63.2184C113.084 63.2184 115.46 61.0711 119.786 60.239" stroke="#F1F1F1" stroke-miterlimit="10"/>
<path d="M131.565 62.2493C131.565 62.2493 127.938 59.9765 127.045 60.1342" stroke="#F1F1F1" stroke-miterlimit="10"/>
<path d="M113.587 69.5453C113.587 69.5453 114.997 68.5833 118.627 68.7374" stroke="#F1F1F1" stroke-miterlimit="10"/>
<path d="M98.6591 84.6149C98.6591 84.6149 97.9163 86.217 98.1829 87.2533" stroke="#F1F1F1" stroke-miterlimit="10"/>
<path d="M93.9837 79.373C93.9837 79.373 93.3764 81.0474 93.5315 82.1323" stroke="#F1F1F1" stroke-miterlimit="10"/>
<path d="M94.4282 80.7941C94.4282 80.7941 94.1762 83.3761 94.2873 84.1215" stroke="#F1F1F1" stroke-miterlimit="10"/>
<path d="M99.3603 88.9409C99.3603 88.9409 98.7791 88.9827 98.5928 88.5637" stroke="#F1F1F1" stroke-miterlimit="10"/>
<path d="M112.102 50.8809C112.102 50.8809 116.416 46.7096 115.809 43.5175" stroke="#F1F1F1" stroke-miterlimit="10"/>
<path d="M112.055 31.5079C112.055 31.5079 115.361 35.5606 114.683 37.9066" stroke="#F1F1F1" stroke-miterlimit="10"/>
<path d="M112.924 51.5943C112.924 51.5943 115.713 49.2214 116.267 47.4879" stroke="#F1F1F1" stroke-miterlimit="10"/>
<path d="M115.96 33.8978C115.96 33.8978 119.169 38.2148 117.684 43.9978" stroke="#F1F1F1" stroke-miterlimit="10"/>
<path d="M92.1849 63.4295C92.1849 63.4295 89.4625 63.003 88.6019 62.1663" stroke="#F1F1F1" stroke-miterlimit="10"/>
<path d="M81.8865 50.2477C81.8865 50.2477 82.2149 54.4424 83.3297 55.7457" stroke="#F1F1F1" stroke-miterlimit="10"/>
<path d="M91.7064 62.386C91.7064 62.386 90.4807 62.5766 89.4815 61.3702" stroke="#F1F1F1" stroke-miterlimit="10"/>
<path d="M115.304 55.0053C115.304 55.0053 117.313 54.3357 117.366 53.5045" stroke="#F1F1F1" stroke-miterlimit="10"/>
<path d="M121.18 40.5572C121.18 40.5572 122.163 45.6647 119.745 47.9651" stroke="#F1F1F1" stroke-miterlimit="10"/>
<path d="M89.4847 68.1263C89.4847 68.1263 92.8891 68.7594 94.2545 68.1098" stroke="#F1F1F1" stroke-miterlimit="10"/>
<path d="M93.9309 65.5655C93.9309 65.5655 92.2182 65.7456 91.3831 65.5204" stroke="#F1F1F1" stroke-miterlimit="10"/>
<path d="M103.747 32.2755C103.747 32.2755 105.94 32.5189 106.59 34.3462" stroke="#F1F1F1" stroke-miterlimit="10"/>
<path d="M108.673 49.1154C108.673 49.1154 111.362 46.8586 111.054 44.6354C111.032 44.4701 110.992 44.3038 110.933 44.1386" stroke="#F1F1F1" stroke-miterlimit="10"/>
<path d="M38.9132 69.0004C38.9132 69.0004 35.0657 73.1659 34.8706 75.5466" stroke="#F1F1F1" stroke-miterlimit="10"/>
<path d="M31.3637 102.754C31.3637 102.754 34.2247 100.811 37.8804 100.716C37.8804 100.716 42.6797 101.28 43.8387 100.839C43.8387 100.839 45.5712 100.325 47.9837 101.977" stroke="#F1F1F1" stroke-miterlimit="10"/>
<path d="M46.7575 101.282C46.7575 101.282 48.6735 97.9593 48.9353 92.279" stroke="#F1F1F1" stroke-miterlimit="10"/>
<path d="M40.7932 68.4123C40.7932 68.4123 39.0057 69.701 38.3452 72.4865" stroke="#F1F1F1" stroke-miterlimit="10"/>
<path d="M48.5418 67.9413C48.5418 67.9413 52.0705 75.5335 51.9096 78.7088" stroke="#F1F1F1" stroke-miterlimit="10"/>
<path d="M45.3886 100.845C45.3886 100.845 47.0963 97.8584 47.3328 95.9191" stroke="#F1F1F1" stroke-miterlimit="10"/>
<path d="M49.4316 68.0759C49.4316 68.0759 50.9437 69.7804 51.3611 72.1164" stroke="#F1F1F1" stroke-miterlimit="10"/>
<path d="M56.4042 100.539C56.4042 100.539 58.9403 97.2101 58.6639 95.266" stroke="#F1F1F1" stroke-miterlimit="10"/>
<path d="M28.9044 74.7716C28.9044 74.7716 27.1029 78.0334 27.0956 78.8937" stroke="#F1F1F1" stroke-miterlimit="10"/>
<path d="M32.6357 102.049C32.6357 102.049 30.5143 99.0664 29.8937 95.9038" stroke="#F1F1F1" stroke-miterlimit="10"/>
<path d="M44.7289 67.865C44.7289 67.865 47.2899 66.2954 49.148 66.0056C49.148 66.0056 55.5417 65.3045 57.8837 65.7077L62.4525 66.9195" stroke="#F1F1F1" stroke-miterlimit="10"/>
<path d="M45.5787 67.3858C45.5787 67.3858 41.8358 66.23 41.2586 64.3845" stroke="#F1F1F1" stroke-miterlimit="10"/>
<path d="M37.5394 53.1785C37.5394 53.1785 37.0252 58.3687 37.9744 59.4003" stroke="#F1F1F1" stroke-miterlimit="10"/>
<path d="M56.0485 40.8845C56.0485 40.8845 56.8635 45.994 56.7046 48.5423" stroke="#F1F1F1" stroke-miterlimit="10"/>
<path d="M56.3658 65.4941C56.3658 65.4941 57.8029 60.3755 57.4702 59.3117" stroke="#F1F1F1" stroke-miterlimit="10"/>
<path d="M57.3298 41.1149C57.3298 41.1149 57.9822 44.3938 57.7305 45.0988" stroke="#F1F1F1" stroke-miterlimit="10"/>
<path d="M67.9357 50.0292C67.9357 50.0292 69.0735 51.7819 69.0468 52.5726" stroke="#F1F1F1" stroke-miterlimit="10"/>
<path d="M56.8237 65.6032C56.8237 65.6032 57.764 64.4854 57.7136 63.588" stroke="#F1F1F1" stroke-miterlimit="10"/>
<path d="M41.4723 44.5213C41.4723 44.5213 40.1668 46.6069 40.4388 47.2262" stroke="#F1F1F1" stroke-miterlimit="10"/>
<path d="M46.5841 66.8811C46.5841 66.8811 43.9238 65.7032 43.8666 65.1154" stroke="#F1F1F1" stroke-miterlimit="10"/>
<path d="M43.3515 56.5461C43.3515 56.5461 45.2666 63.0002 48.7549 65.9198" stroke="#F1F1F1" stroke-miterlimit="10"/>
<path d="M61.9914 42.6304C61.9914 42.6304 67.9555 40.8062 70.462 41.1167" stroke="#F1F1F1" stroke-miterlimit="10"/>
<path d="M80.4709 40.3678C80.4709 40.3678 79.3052 40.3745 77.7214 40.326" stroke="#F1F1F1" stroke-miterlimit="10"/>
<path d="M79.6798 23.9347C79.6798 23.9347 82.3725 24.7376 83.7883 25.9353" stroke="#F1F1F1" stroke-miterlimit="10"/>
<path d="M83.7662 24.4508C83.7662 24.4508 85.7973 25.775 86.6436 27.2288" stroke="#F1F1F1" stroke-miterlimit="10"/>
<path d="M86.5283 30.071C86.5283 30.071 86.0698 28.6565 85.5575 28.2706" stroke="#F1F1F1" stroke-miterlimit="10"/>
<path d="M62.978 35.7988C62.978 35.7988 64.6792 34.794 65.3237 35.0651" stroke="#F1F1F1" stroke-miterlimit="10"/>
<path d="M79.9283 35.7169C79.9283 35.7169 76.8772 34.8655 74.6658 35.0638" stroke="#F1F1F1" stroke-miterlimit="10"/>
<path d="M79.8609 36.4516C79.8609 36.4516 78.0408 36.0893 77.1895 36.1216" stroke="#F1F1F1" stroke-miterlimit="10"/>
<path d="M71.8217 50.943C71.8217 50.943 77.0613 49.9099 77.9087 49.4085" stroke="#F1F1F1" stroke-miterlimit="10"/>
<path d="M74.164 51.3622C74.164 51.3622 76.2947 51.5539 77.3048 50.7699" stroke="#F1F1F1" stroke-miterlimit="10"/>
<path d="M62.0502 41.3089C62.0502 41.3089 65.5243 39.9997 66.8481 39.939" stroke="#F1F1F1" stroke-miterlimit="10"/>
<path d="M98.2543 22.4914C98.2543 22.4914 98.3606 23.369 98.5694 23.4988C98.7781 23.6285 99.0355 24.0757 99.6926 23.6362C100.35 23.1966 100.803 23.1421 101.025 23.1024C101.248 23.0626 102.042 22.6857 102.526 22.2611C103.011 21.8365 103.415 21.2145 103.415 21.2145" stroke="#F1F1F1" stroke-miterlimit="10"/>
<path d="M101.439 32.9079C101.439 32.9079 100.701 31.2274 100.761 30.7406" stroke="#F1F1F1" stroke-miterlimit="10"/>
<path d="M102.526 22.2611C102.526 22.2611 104.898 22.9808 104.875 23.2818" stroke="#F1F1F1" stroke-miterlimit="10"/>
<path d="M98.3159 22.9242C98.3159 22.9242 97.2834 23.3642 96.8569 23.8785" stroke="#F1F1F1" stroke-miterlimit="10"/>
<path d="M95.0516 35.0961C95.0516 35.0961 94.6677 33.1397 94.9151 32.3327" stroke="#F1F1F1" stroke-miterlimit="10"/>
<path d="M95.3544 34.9004C95.3544 34.9004 95.0561 33.8143 95.2662 33.4549" stroke="#F1F1F1" stroke-miterlimit="10"/>
<path d="M103.067 21.6858C103.067 21.6858 108.465 21.473 109.093 22.0404" stroke="#F1F1F1" stroke-miterlimit="10"/>
<path d="M123.276 44.7682C123.276 44.7682 124.729 40.1147 124.395 38.1107" stroke="#F1F1F1" stroke-miterlimit="10"/>
<path d="M120.644 30.2623C120.644 30.2623 122.302 32.146 122.397 32.9355" stroke="#F1F1F1" stroke-miterlimit="10"/>
<path d="M121.906 35.2778C121.906 35.2778 123.962 38.3747 122.296 42.5555" stroke="#F1F1F1" stroke-miterlimit="10"/>
<path d="M136.842 53.1992C136.842 53.1992 137.971 50.5036 138.085 50.1169" stroke="#F1F1F1" stroke-miterlimit="10"/>
<path d="M137.478 53.5901C137.478 53.5901 140.929 49.6151 140.707 48.9045" stroke="#F1F1F1" stroke-miterlimit="10"/>
<path d="M138.606 43.9264C138.606 43.9264 139.251 44.7115 138.971 45.0926" stroke="#F1F1F1" stroke-miterlimit="10"/>
<path d="M142.258 65.0653C142.258 65.0653 145.355 65.6501 146.876 65.0572" stroke="#F1F1F1" stroke-miterlimit="10"/>
<path d="M128.108 55.1053C128.108 55.1053 128.03 53.8859 128.116 52.8425" stroke="#F1F1F1" stroke-miterlimit="10"/>
<path d="M127.598 46.5966C127.598 46.5966 126.977 48.259 127.09 48.809" stroke="#F1F1F1" stroke-miterlimit="10"/>
<path d="M133.076 53.5513C133.076 53.5513 133.028 51.7789 133.776 50.4208" stroke="#F1F1F1" stroke-miterlimit="10"/>
<path d="M138.386 69.2754C138.386 69.2754 139.159 70.2817 139.763 70.3269" stroke="#F1F1F1" stroke-miterlimit="10"/>
</g>
<defs>
<clipPath id="clip0_113_212">
<rect width="148.515" height="118.081" fill="white" transform="translate(0.667542 45.2935) rotate(-17.3684)"/>
</clipPath>
</defs>
</svg>
