<svg width="515" height="321" fill="none" xmlns="http://www.w3.org/2000/svg"><path d="m346.89 165.45 156.94-78.3V74.21s-1.02-2.04-8.51-3.06l-238.3-58.21s-4.43-1.36-7.83 0L84.43 61.28s-6.13 7.83-6.13 10.21v7.15l195.74 65.02 65.36 21.79s3.67 1.9 7.49 0Z" stroke="#F1F1F1" stroke-miterlimit="10"/><path d="m78.3 71.49 263.49 86.47s6.81-4.43 8.85-11.57l148.77-70.13M350.64 146.38 84.43 61.28M341.79 157.96v8.21M99.24 85.59v11.09l239.14 82.38 1.02-13.61" stroke="#F1F1F1" stroke-miterlimit="10"/><path d="m485.44 96.32 10.9 3.42s7.83 1.36-2.72 7.49l-154.21 75.91-60.6 119.15v6.13L20.77 192.68v-3.4L78.3 93.96l13.62-4.65s2.63-.81 7.33-1.48M99.24 91.23l-10.05 4.43M78.3 93.96l261.1 89.19" stroke="#F1F1F1" stroke-miterlimit="10"/><path d="M499.12 101.78s1.98-1.36 2.67 7.16l3.4 29.62s1.08 7.83-3.03 11.57l-147.77 87.49-20.77 40.51-54.81 30.3" stroke="#F1F1F1" stroke-miterlimit="10"/><path d="M504.84 135.45s-2.03 2.42-5.43 5.14c-3.4 2.72-150.13 84.77-150.13 84.77l-28.16 59.68" stroke="#F1F1F1" stroke-miterlimit="10"/><path d="M363.38 232.29V240s-1.82 4.11-13.09 5.61" stroke="#F1F1F1" stroke-miterlimit="10"/><path d="M361.36 242.04v5.11s-2.29 7.25-15.42 6.95M369.34 228.76l7.63 3.53s4.72.63 7.02-1.77l51.32-30.61 1.09-10.86M377.63 223.85v8.44M397.3 212.21v10.38M420.53 198.45v9.76M455.78 177.59l-.55 8.41s-4.07 6.13-18.82 7.53" stroke="#F1F1F1" stroke-miterlimit="10"/><path d="M452.74 188.33v5.2s-3.79 5.78-17.28 4.92M178.98 218.37 68.2 171.87a2.414 2.414 0 0 1-1.17-3.5l21.91-36.04c.61-1 1.84-1.43 2.94-1.03l112.01 42.91c1.4.51 2.02 2.13 1.31 3.43l-23.14 39.63a2.458 2.458 0 0 1-3.08 1.09v.01ZM86.183 192.726c1.454-1.273 1.844-3.208.87-4.322-.975-1.114-2.945-.985-4.4.287-1.455 1.273-1.844 3.208-.87 4.322.975 1.114 2.945.985 4.4-.287Z" stroke="#F1F1F1" stroke-miterlimit="10"/><path d="m84.43 174.85.85-6.51 5.78 3.26-6.63 3.25ZM166.87 180.01l-1.47 1.11.23-1.5 6.33-9.48 1.47-1.11-.23 1.5-6.33 9.48Zm-8.62 12.91-1.49 1.14.25-1.53 6.31-9.46 1.47-1.11-.23 1.5-6.31 9.46Zm19.86-23-1.49 1.03-2.8-.88.12-1.39 1.49-1.03 2.8.88-.12 1.39Zm-17.28 25.88-1.49 1.03-2.8-.88.12-1.39 1.49-1.03 2.8.88-.12 1.39Zm21.85-24.45-1.49 1.03-2.8-.88.12-1.39 1.49-1.03 2.8.88-.12 1.39Zm-17.28 25.88-1.49 1.03-2.8-.88.12-1.39 1.5-1.03 2.8.88-.12 1.39h-.01Zm10.59-14.36-1.47 1.11.23-1.5 6.37-9.54 1.47-1.11-.23 1.5-6.37 9.54Zm-8.62 12.91-1.49 1.14.25-1.53 6.31-9.46 1.47-1.11-.23 1.5-6.31 9.45v.01ZM152.44 174.01l-1.47 1.11.23-1.5 6.33-9.48 1.47-1.11-.23 1.5-6.33 9.48Zm-8.62 12.91-1.49 1.14.25-1.53 6.31-9.46 1.47-1.11-.23 1.5-6.31 9.46Zm19.86-23-1.49 1.03-2.8-.88.12-1.39 1.49-1.03 2.8.88-.12 1.39ZM146.4 189.8l-1.49 1.03-2.8-.88.12-1.39 1.49-1.03 2.8.88-.12 1.39Zm21.85-24.45-1.49 1.03-2.8-.88.12-1.39 1.49-1.03 2.8.88-.12 1.39Zm-17.28 25.88-1.49 1.03-2.8-.88.12-1.39 1.5-1.03 2.8.88-.12 1.39h-.01Zm10.59-14.36-1.47 1.11.23-1.5 6.37-9.54 1.47-1.11-.23 1.5-6.37 9.54Zm-8.62 12.91-1.49 1.14.25-1.53 6.31-9.46 1.47-1.11-.23 1.5-6.31 9.45v.01ZM137.28 168.01l-1.47 1.11.23-1.5 6.33-9.48 1.47-1.11-.23 1.5-6.33 9.48Zm-8.62 12.91-1.49 1.14.25-1.53 6.31-9.46 1.47-1.11-.23 1.5-6.31 9.46Zm19.86-23-1.49 1.03-2.8-.88.12-1.39 1.49-1.03 2.8.88-.12 1.39Zm-17.28 25.88-1.49 1.03-2.8-.88.12-1.39 1.49-1.03 2.8.88-.12 1.39Zm21.85-24.45-1.49 1.03-2.8-.88.12-1.39 1.49-1.03 2.8.88-.12 1.39Zm-17.28 25.88-1.49 1.03-2.8-.88.12-1.39 1.5-1.03 2.8.88-.12 1.39h-.01Zm10.59-14.36-1.47 1.11.23-1.5 6.37-9.54 1.47-1.11-.23 1.5-6.37 9.54Zm-8.62 12.91-1.49 1.14.25-1.53 6.31-9.46 1.47-1.11-.23 1.5-6.31 9.45v.01ZM121.9 162.64l-1.47 1.11.23-1.5 6.33-9.48 1.47-1.11-.23 1.5-6.33 9.48Zm-8.62 12.91-1.49 1.14.25-1.53 6.31-9.46 1.47-1.11-.23 1.5-6.31 9.46Zm19.86-23-1.49 1.03-2.8-.88.12-1.39 1.49-1.03 2.8.88-.12 1.39Zm-17.28 25.88-1.49 1.03-2.8-.88.12-1.39 1.49-1.03 2.8.88-.12 1.39Zm21.85-24.45-1.49 1.03-2.8-.88.12-1.39 1.49-1.03 2.8.88-.12 1.39Zm-17.28 25.88-1.49 1.03-2.8-.88.12-1.39 1.5-1.03 2.8.88-.12 1.39h-.01Zm10.59-14.36-1.47 1.11.23-1.5 6.37-9.54 1.47-1.11-.23 1.5-6.37 9.54Zm-8.62 12.91-1.49 1.14.25-1.53 6.31-9.46 1.47-1.11-.23 1.5-6.31 9.45v.01ZM124.94 180.5h-2.08v2.08h2.08v-2.08Z" fill="#F1F1F1"/><path d="m182.19 247.34-148-65.94a1.959 1.959 0 0 1-.88-2.79l44.16-73.4a1.95 1.95 0 0 1 2.34-.83l150.64 54.68a1.95 1.95 0 0 1 1.04 2.78l-46.79 84.67c-.49.89-1.58 1.25-2.51.84v-.01ZM195.66 249.29l47.28-84.47a2.392 2.392 0 0 1 2.91-1.08l77.33 28.29c1.38.5 1.98 2.11 1.28 3.4l-49.03 89.95c-.6 1.1-1.94 1.55-3.08 1.04l-75.58-33.77a2.391 2.391 0 0 1-1.11-3.36Z" stroke="#F1F1F1" stroke-miterlimit="10"/><path d="m234.79 185.24 7.51-13.51c.25-.45.79-.64 1.27-.46l19.88 7.57c.57.22.83.88.55 1.43l-7.06 13.87c-.24.47-.8.68-1.29.49l-20.33-7.93c-.58-.23-.83-.91-.53-1.46ZM260.09 194.93l7.93-13.51c.26-.45.83-.64 1.34-.46l21.01 7.57c.6.22.88.88.58 1.43l-7.46 13.87c-.25.47-.84.68-1.36.49l-21.48-7.93c-.61-.23-.87-.91-.56-1.46ZM286.66 204.97l8.01-13.51c.27-.45.84-.64 1.35-.46l21.22 7.57c.61.22.88.88.59 1.43l-7.53 13.87c-.26.47-.85.68-1.38.49l-21.7-7.93c-.62-.23-.88-.91-.56-1.46ZM223.86 205.58l7.51-13.51c.25-.45.79-.64 1.27-.46l18.6 7.39c.57.22.83.88.55 1.43l-7.06 13.87c-.24.47-.8.68-1.29.49l-19.05-7.75c-.58-.23-.83-.91-.53-1.46ZM247.88 215.09l7.93-13.51c.26-.45.83-.64 1.34-.46l21.01 7.57c.6.22.88.88.58 1.43l-7.46 13.87c-.25.47-.84.68-1.36.49l-21.48-7.93c-.61-.23-.87-.91-.56-1.46ZM274.46 225.13l8.01-13.51c.27-.45.84-.64 1.35-.46l21.22 7.57c.61.22.88.88.59 1.43l-7.53 13.87c-.26.47-.85.68-1.38.49l-21.7-7.93c-.62-.23-.88-.91-.56-1.46ZM212.19 225.61l7.9-13.28c.26-.44.81-.62 1.28-.42l19.65 8.15c.57.23.8.91.51 1.44l-7.46 13.66c-.25.46-.82.66-1.3.45l-20.09-8.53c-.57-.24-.8-.94-.48-1.47h-.01ZM237 236.6l7.03-14.08c.28-.44.85-.62 1.35-.42l22.27 8.43c.6.24.85.91.54 1.44l-7.86 13.65c-.27.46-.86.66-1.38.45l-21.44-8c-.61-.24-.85-.94-.51-1.47ZM263.47 246.85l7.17-13.52c.28-.44.86-.62 1.36-.42l22.23 8.44c.6.24.86.91.55 1.44l-7.94 13.65c-.27.46-.87.66-1.39.45l-21.46-8.57c-.61-.24-.86-.94-.52-1.47ZM200.37 246.07l7.9-13.28c.26-.44.81-.62 1.28-.42l19.65 8.15c.57.23.8.91.51 1.44l-7.46 13.66c-.25.46-.82.66-1.3.45l-20.09-8.53c-.57-.24-.8-.94-.48-1.47h-.01ZM225.38 256.5l8.32-13.27c.28-.44.85-.62 1.35-.42l20.78 8.18c.6.24.85.91.54 1.44l-7.86 13.65c-.27.46-.86.66-1.38.45l-21.24-8.56c-.61-.24-.85-.94-.51-1.47ZM251.72 267.74l7.66-13.95c.28-.44.86-.62 1.36-.42l21.67 8.44c.6.24.86.91.55 1.44l-7.94 14.18c-.27.46-.87.66-1.39.45l-21.39-8.67c-.61-.24-.86-.94-.52-1.47ZM186.04 171.21l-2.38 4.95M187.23 173.68l-2.38 1.17 1.19 1.84M190.47 177.6s-2.55-.29-2.38-1.71c0 0 .85-2.01 2.38-1.03 0 0 2.38.25 0 2.74Z" stroke="#F1F1F1" stroke-miterlimit="10"/><path d="M186.04 179.46s2.21 3.64 4.43-1.87" stroke="#F1F1F1" stroke-miterlimit="10"/></svg>