<svg width="28" height="28" viewBox="0 0 28 28" fill="none" xmlns="http://www.w3.org/2000/svg">
<path d="M17.8889 20.2223C17.8889 20.4286 17.8069 20.6264 17.6611 20.7723C17.5152 20.9182 17.3174 21.0001 17.1111 21.0001H6.22222C6.05111 21.0001 5.88778 21.1557 5.74778 21.2568L3.11111 23.3334V10.889C3.11111 10.6827 3.19306 10.4849 3.33892 10.339C3.48478 10.1932 3.68261 10.1112 3.88889 10.1112H6.89111V8.55566H3.88889C3.27005 8.55566 2.67656 8.8015 2.23897 9.23908C1.80139 9.67667 1.55556 10.2702 1.55556 10.889V24.889C1.55671 25.0334 1.59808 25.1747 1.67501 25.297C1.75194 25.4192 1.86139 25.5177 1.99111 25.5812C2.11609 25.6381 2.25387 25.6608 2.39048 25.6471C2.52709 25.6335 2.65765 25.5839 2.76889 25.5034L6.77445 22.5557H17.2278C17.5226 22.5644 17.816 22.5125 18.0899 22.4032C18.3638 22.2939 18.6124 22.1295 18.8202 21.9202C19.028 21.711 19.1906 21.4613 19.298 21.1866C19.4054 20.9119 19.4552 20.6182 19.4444 20.3234V19.4446H17.8889V20.2223Z" fill="#F1CE56"/>
<path d="M24.1111 3.11108H10.8889C10.2701 3.11108 9.67656 3.35692 9.23897 3.7945C8.80139 4.23209 8.55556 4.82558 8.55556 5.44442V14.7778C8.55556 15.3966 8.80139 15.9901 9.23897 16.4277C9.67656 16.8653 10.2701 17.1111 10.8889 17.1111H21.4278L25.1456 19.9966C25.2561 20.0784 25.3863 20.1293 25.5229 20.1443C25.6595 20.1594 25.7977 20.1379 25.9233 20.0822C26.0557 20.0192 26.1675 19.92 26.246 19.7961C26.3244 19.6723 26.3663 19.5288 26.3667 19.3822V5.44442C26.367 4.83882 26.1319 4.25682 25.711 3.8214C25.2901 3.38599 24.7164 3.13127 24.1111 3.11108ZM24.8889 17.8422L22.1667 15.7189C22.0309 15.6135 21.8641 15.5561 21.6922 15.5555H10.8889C10.6826 15.5555 10.4848 15.4736 10.3389 15.3277C10.1931 15.1819 10.1111 14.984 10.1111 14.7778V5.44442C10.1111 5.23814 10.1931 5.04031 10.3389 4.89445C10.4848 4.74858 10.6826 4.66664 10.8889 4.66664H24.1111C24.319 4.68551 24.5129 4.77974 24.6561 4.93159C24.7994 5.08344 24.8822 5.28243 24.8889 5.49108V17.8422Z" fill="#F1CE56"/>
</svg>
