<svg version="1.1" id="圖層_2" xmlns="http://www.w3.org/2000/svg" x="0" y="0" viewBox="0 0 350 203" style="enable-background:new 0 0 350 203" xml:space="preserve"><style>.st1{fill:#b94e1e}</style><path d="M164.21 74.05s-5.05-6.89-10.71-10.59c-5.66-3.69-6.65-1.35-6.65-1.35s-4.68 4.8-9.48 4.92c-.75.02-2.13.14-3.93.32l.42-6.66s1.66-11.08 1.85-17.36c0 0-1.48-2.77 5.17-10.34s-4.06-18.83-4.06-18.83-4.99-4.8-12.37-8.12-1.92-3.45-26.29-2.34c0 0-3.81.03-2.98 4.19 0 0-.46 1.38-1.48 2.03-1.02.65 1.02 3.6 1.02 3.6s4.43 5.26 4.25 10.43c-.18 5.17 3.69 16.06 1.48 47.73l.01.31c-3.05 1.5-12 5.28-28.54 7.54.2-5.26.4-9.59.58-11.26.62-5.66 2.58-9.85 2.58-9.85s5.54-3.82 4.06-8.99c0 0-.61-2.31-1.58-3.44-.97-1.13.62-2.84-3.9-5.33s-12-8.68-21.23-10.34c0 0-3.51-1.02-5.63 1.2 0 0-1.85.83-3.88-.55s-4.43-2.03-4.43-1.29c0 .74-.03 4.68-1.45 4.37 0 0-2.4.74-.37 3.57s2.77 4.86 4.55 6.89c1.78 2.03 1.91 4.43 1.85 4.86-.06.43 1.66 33.17 2.4 34.84.02.05.05.15.08.27-3.35 1.25-12.76 4.67-16.82 5.16-4.19.51-6.28 2.48-17.42 2.51 0 0-10.31-3.85-11.69 3.08 0 0-1.97 3.82 7.26 11.57s12.8 9.48 12.8 9.48 1.72.74 3.69 4.8c0 0 .62 2.34 5.66 1.11 5.05-1.23 6.82-.37 6.82-.37s.82.86 4.26-1.85c3.45-2.71 7.14-1.97 7.14-1.97l.58-.22c.37 9.81.52 19.95.15 27.67-.98 20.93-.98 24.13-.98 24.13s-.74 4.92 1.48 6.99c2.22 2.06 11.28 11.26 11.28 11.26s5.54 5.22 13.76 0c8.22-5.22 22.94-4.75 22.94-4.75s1.63-.08 1.85.2c.22.28-3.29 3.63-4.28 3.39 0 0-1.45.77 2.09 1.2 3.54.43 7.54 4.15 7.54 4.15s5.57 7.45 11.42.34c0 0 6.28-3.08 7.63-8.62 0 0 3.95-.86 3.94-7.14 0 0 3.88-37.05 3.69-53.48 0 0 .51-10.73 1.35-26.01 2.02-.11 6.57-.23 15.27.1 12.8.49 17.23-2.22 17.23-2.22s11.23-4.32.02-20.94zm-63.94 77.86s.92 4.49-2.15 5.26c-3.08.77-13.17-.06-13.69.09-.52.15-3.88-.49-6.34 1.85s-5.29.83-5.29.83-1.02-.03-.74-2.25-2.25-20.13-1.14-27.51v-.03c.47.5 1.03.92 1.66 1.07 1.94.46 1.57 2.86 2.22 3.42.65.55 4.25.28 4.52 2.86.28 2.59-4.25 15.23-4.99 16.25 0 0-.37 1.94 2.31-1.11s7.85-13.39 9.32-13.57 8.86-1.94 11.08-4.52c0 0 .74-.65 1.85-.46.42.07 1.09.02 1.75-.07-.32 8.05-.55 15.75-.37 17.89zm1.29-39.15c-.06 1.41-.28 6.02-.53 11.61-1.05-2.07-2.7-4.1-5.29-5.61-8.22-4.8-10.34-3.79-12.28-3.23-1.94.55-5.54 5.26-5.54 5.26s-3.53 2.94-6.5 1.44c.07-6.19-.4-12.25-.4-12.25s0-.1.01-.28c11.74-3.68 24.64-7 30.59-6.04.03 3.43.03 7.18-.06 9.1z" style="fill:#b64e1d"/><path class="st1" d="M347.5 134.27s-5.17-9.32-14.49-8.49c-9.32.83-12.93.28-48.75 6.65 0 0-3.04.3-6.23.38.21-2.69.98-13.18.57-16.82 5.88-1.45 11.44-2.39 15.35-2.12 0 0 5.63 1.38 8.03-4.99 0 0 .46-5.35-3.69-7.02 0 0 .83-.83.46-1.85 0 0 9.05-4.15 16.99-16.62 0 0 4.43-5.91 7.2-10.34 2.77-4.43 2.49-5.54 2.49-5.54s.57-5.54.01-6.65c-.56-1.11-3.89-9.51-12.1-12 0 0-3.88-1.85-13.29-.55 0 0-5.82 2.4-12.37 2.49 0 0-.83.18-1.48-.18-.65-.37-.37-1.2-.37-1.2s2.03-3.51 1.38-8.4 6.37-11.08 6.37-11.08 1.63-1.23 2.06-1.11c.43.12 3.77.62 3.77-3.77s1.43-6.29-1.52-9.99c-2.95-3.69-7.14-9.6-20.8-14.16 0 0-2.59-.74-3.57 2.09s-12.06 6.77-12.06 6.77-11.94 4.55-24.93 7.32c0 0 .74 1.02.83 1.94.09.92-1.29 5.08 4.34 15.69 0 0 4.43 3.51-3.79 10.34-8.22 6.83-15.33 14.68-29.82 24.74 0 0-5.45 4.71-7.02 7.48 0 0-2.03 2.58-1.11 5.91.92 3.32 1.2 5.63 10.99 23.45 0 0 3.17 5.63 10.35 11.82 0 0 2.11 1.38 3.12 1.48 1.02.09 3.69 0 3.69 0s3.14-.37 4.15-.37c0 0 2.49 5.91 5.08 6.46 2.59.55 6.92 1.75 15.23-1.57.96-.38 2.11-.83 3.4-1.32 1.03.18 2.17.33 3.29.39 0 0 .97 0 1.15 1.94.18 1.94-.46 4.06 0 6 .17.73.31 1.77.41 2.77-11.18 3.4-27.46 9.32-27.46 9.32s-10.99 4.25-18 6.83c0 0-5.08 2.03-8.49 2.95-3.42.92-10.16 1.02-17.63 5.45 0 0-5.82 2.49-7.39 8.68 0 0-1.48 3.88 8.68 9.14 0 0 6.92 4.25 10.43 1.11 3.51-3.14 5.54 2.4 5.54 2.4s1.29 2.4 2.4 5.63c1.11 3.23 6 4.15 6 4.15s6.55 2.58 11.45 0c4.89-2.58 22.06-26.87 22.06-26.87s-11.45 5.82-17.73 7.57c-6.28 1.75-9.97 2.49-9.97 2.49s-4.62 1.66-6 .09c0 0-.54-.74.38-1.38.91-.65 8.12-2.4 18.18-8.86 8.77-5.63 14.25-4.88 27.32-8.94l-.18 6.36s-.28 16.06.09 19.57c.37 3.51 0 5.26-.74 5.63-.74.37-6.92.65-11.91 0s-7.94-.83-7.2-.09c.74.74 17.63 14.4 24.37 16.71 0 0 7.48 2.86 12.37-2.4 0 0 1.02-.18 1.11-7.57.09-7.09.6-35.04.64-42.48 7.49-1.28 16.66-2.81 22.16-3.59 10.52-1.48 23.63-1.29 23.63-1.29s6.37 0 15.51 1.02c0 0 4.8 1.11 7.02-3.6 2.26-4.67.04-8 .04-8zm-73.02-53.82c3.51-6.55 10.99-9.42 10.99-9.42l4.99-1.11c4.99-1.11 1.66 3.07 1.66 3.07-8.03 13.5-15.33 17.24-19.85 19.28-4.52 2.04-2.68-2.64-2.68-2.64s1.38-2.62 4.89-9.18zm-22.75-30.1c-4.12-3.63-3.82-2.22-7.63 1.11-3.82 3.32-3.08 5.72-3.08 5.72.43 5.79-.55 4.55-1.85 7.02-1.29 2.46-4.49 3.2-6.28 4.8-1.78 1.6-3.2.37-3.82.49-.62.12-.63 2.43-.63 2.43-.35 1.37 2.17 2.57 2.17 2.57 5.31 2.31 8.43 7.55 8.43 7.55 6.4 9.11 4.43 15.51 4.43 15.51-3.32 8.74-8.99 3.69-8.99 3.69-7.02-11.32-21.79-26.1-23.39-26.59-1.6-.49-1.48-2.34-1.48-2.34.49-2.58 29.79-24.99 29.79-24.99s4.37-4.25 16.56-3.26c12.19.98 16.43-1.11 17.29-.74.86.37 0 3.32 0 3.32-1.48 9.29-11.39 12.43-14.03 13.29-2.65.86-2.28-.37-3.14-1.23-.86-.86-.18-2.77-.43-3.82-.22-1.02.21-.89-3.92-4.53zm4.74 41.92c-.43.18-.98-2.22-1.11-5.42-.12-3.2-.92-5.17-1.42-6.34-.49-1.17 0-1.35 0-1.35 4.25-3.26 6.03-1.91 9.17-2.46 3.14-.55 1.05 2.15 1.05 2.15-1.41 6.89-7.26 13.23-7.69 13.42z"/><path class="st1" d="M292.97 164.65s11.82 22.77 28.43 28.07c0 0 7.39 3.82 9.23-9.48 1.85-13.29-17.48-18.37-17.48-18.37s-6.8-2.18-17.91-1.6c.01-.01-2.95.13-2.27 1.38z"/></svg>