<svg width="257" height="379" viewBox="0 0 257 379" fill="none" xmlns="http://www.w3.org/2000/svg">
<g opacity="0.6">
<path d="M23.13 43.391L186.331 25.8435L232.605 53.1995L229.973 113.395L184.823 103.304L23.13 107.609L23.13 43.391Z" stroke="#B04B19" stroke-miterlimit="10"/>
<path d="M26.0445 46.669L184.011 29.3179L180.537 99.8956L26.0445 102.977L26.0445 46.669Z" stroke="#B04B19" stroke-miterlimit="10"/>
<path d="M189.417 32.3992L229.201 54.7703L226.882 109.538L185.943 99.5076L189.417 32.3992Z" stroke="#B04B19" stroke-miterlimit="10"/>
<path d="M26.0445 107.529L26.0445 222.537H29.9069L32.2264 107.529" stroke="#B04B19" stroke-miterlimit="10"/>
<path d="M178.974 103.46L173.967 246.061L176.473 247.607L182.469 103.365L184.823 103.304L179.448 246.272" stroke="#B04B19" stroke-miterlimit="10"/>
<path d="M222.863 112.121L219.263 228.403" stroke="#B04B19" stroke-miterlimit="10"/>
<path d="M35.7158 107.272L94.792 116.864V105.701" stroke="#B04B19" stroke-miterlimit="10"/>
<path d="M59.2686 106.648L92.0893 112.121V105.771" stroke="#B04B19" stroke-miterlimit="10"/>
<path d="M176.473 247.607L221.965 227.189L229.201 113.219" stroke="#B04B19" stroke-miterlimit="10"/>
<path d="M176.473 250.305L225.339 227.164V235.648L179.398 254.933L173.967 354.694L218.128 315.098L221.648 237.536" stroke="#B04B19" stroke-miterlimit="10"/>
<path d="M223.544 236.404L219.928 318.184L176.473 358.294V369.865L172.041 372.947L167.79 369.865V358.163L23.7301 314.972L21.4106 221.122H26.0445" stroke="#B04B19" stroke-miterlimit="10"/>
<path d="M225.339 227.164L221.965 227.189" stroke="#B04B19" stroke-miterlimit="10"/>
<path d="M29.9372 221.122H34.6468" stroke="#B04B19" stroke-miterlimit="10"/>
<path d="M34.6468 222.537H29.907" stroke="#B04B19" stroke-miterlimit="10"/>
<path d="M26.0445 222.537L24.673 222.778L115.859 237.003L173.967 246.061" stroke="#B04B19" stroke-miterlimit="10"/>
<path d="M21.5266 225.754L176.473 250.306" stroke="#B04B19" stroke-miterlimit="10"/>
<path d="M27.3354 231.021L172.938 255.446L169.848 354.694L26.3017 312.399L27.3354 231.021Z" stroke="#B04B19" stroke-miterlimit="10"/>
<path d="M30.1591 316.895V329.841L35.2317 332.237V318.416" stroke="#B04B19" stroke-miterlimit="10"/>
<path d="M35.2317 332.237L37.8033 330.354V319.191" stroke="#B04B19" stroke-miterlimit="10"/>
<path d="M217.972 319.992V331.381L215.123 335.153V323.114" stroke="#B04B19" stroke-miterlimit="10"/>
<path d="M211.023 326.402V333.783L215.123 335.153" stroke="#B04B19" stroke-miterlimit="10"/>
<path d="M37.1982 211.822L32.2164 212.31C31.46 212.471 31.1474 213.025 32.0601 213.554C32.0651 213.554 32.4635 213.74 32.4735 213.74C39.2404 214.959 73.9974 221.097 79.2263 219.702L91.3229 216.429" stroke="#B04B19" stroke-miterlimit="10"/>
<path d="M37.1982 212.713C37.1982 212.713 37.5663 212.874 37.5764 212.874C43.7532 213.932 75.4646 219.259 80.2347 218.05L92.0943 214.677" stroke="#B04B19" stroke-miterlimit="10"/>
<path d="M33.9005 214.002L34.6468 224.334" stroke="#B04B19" stroke-miterlimit="10"/>
<path d="M78.4901 219.833V231.021" stroke="#B04B19" stroke-miterlimit="10"/>
<path d="M96.2089 199.914L93.118 208.655C93.118 208.655 93.6323 209.556 94.4693 209.299L105.477 201.842C105.477 201.842 106.505 200.558 106.248 200.17C105.991 199.783 96.2089 199.914 96.2089 199.914Z" stroke="#B04B19" stroke-miterlimit="10"/>
<path d="M83.2097 231.907L87.0671 222.537H88.6151L94.4743 209.294" stroke="#B04B19" stroke-miterlimit="10"/>
<path d="M91.7666 233.241C91.7666 233.241 90.1581 224.591 88.6151 222.537" stroke="#B04B19" stroke-miterlimit="10"/>
<path d="M128.011 202.099L137.022 203.126C137.022 203.126 135.862 210.351 134.319 214.002H133.159L128.011 202.869C128.011 202.869 127.754 203.64 128.011 202.099V202.099Z" stroke="#B04B19" stroke-miterlimit="10"/>
<path d="M125.561 238.03L128.909 228.09C128.909 228.09 129.554 227.164 127.235 228.579C124.915 229.994 117.452 235.009 117.452 235.009C117.452 235.009 116.58 235.009 115.859 237.003" stroke="#B04B19" stroke-miterlimit="10"/>
<path d="M104.443 202.542L128.52 203.967" stroke="#B04B19" stroke-miterlimit="10"/>
<path d="M133.159 214.002L127.895 228.09" stroke="#B04B19" stroke-miterlimit="10"/>
<path d="M100.46 205.241L129.892 206.938" stroke="#B04B19" stroke-miterlimit="10"/>
<path d="M131.843 211.434L125.687 228.972" stroke="#B04B19" stroke-miterlimit="10"/>
<path d="M97.5855 207.184L89.8203 225.261" stroke="#B04B19" stroke-miterlimit="10"/>
<path d="M91.3127 231.021L118.335 234.414" stroke="#B04B19" stroke-miterlimit="10"/>
<path d="M137.022 203.126L148.221 203.967C148.221 203.967 148.992 205.709 148.221 206.087C147.449 206.465 137.022 213.997 137.022 213.997H134.319" stroke="#B04B19" stroke-miterlimit="10"/>
<path d="M128.994 228.971C128.994 228.971 130.658 227.693 131.843 228.971C131.843 228.971 135.706 237.627 135.736 238.866L135.761 240.104" stroke="#B04B19" stroke-miterlimit="10"/>
<path d="M161.281 244.082C161.281 244.082 172.167 236.65 173.972 234.415" stroke="#B04B19" stroke-miterlimit="10"/>
<path d="M175.142 212.713L172.172 206.938C172.172 206.938 172.142 206.495 175.142 206.938" stroke="#B04B19" stroke-miterlimit="10"/>
<path d="M180.9 207.648H184.269L180.477 218.931" stroke="#B04B19" stroke-miterlimit="10"/>
<path d="M148.221 206.087L172.167 207.648" stroke="#B04B19" stroke-miterlimit="10"/>
<path d="M135.217 214.002L129.892 228.402" stroke="#B04B19" stroke-miterlimit="10"/>
<path d="M143.582 209.294L174.683 211.822" stroke="#B04B19" stroke-miterlimit="10"/>
<path d="M135.217 237.078L164.543 241.811" stroke="#B04B19" stroke-miterlimit="10"/>
<path d="M140.592 211.434L133.472 232.718" stroke="#B04B19" stroke-miterlimit="10"/>
<path d="M137.022 214.002L131.843 228.971" stroke="#B04B19" stroke-miterlimit="10"/>
<path d="M207.958 233.241L208.472 208.564L184.269 220.2L183.674 244.374" stroke="#B04B19" stroke-miterlimit="10"/>
<path d="M183.109 216.092L206.511 205.991" stroke="#B04B19" stroke-miterlimit="10"/>
<path d="M128.011 202.099L133.472 195.025L153.112 196.57L148.221 203.967" stroke="#B04B19" stroke-miterlimit="10"/>
<path d="M137.793 195.024C137.793 195.024 138.171 190.911 143.582 191.042C143.582 191.042 149.209 190.473 149.34 196.273" stroke="#B04B19" stroke-miterlimit="10"/>
<path d="M175.54 201.228L172.938 205.241L150.54 203.967L155.043 197.21L175.54 198.242" stroke="#B04B19" stroke-miterlimit="10"/>
<path d="M160.196 197.21C160.196 197.21 160.328 192.839 165.219 192.965C165.219 192.965 171.123 192.175 171.516 198.036" stroke="#B04B19" stroke-miterlimit="10"/>
<path d="M155.043 197.21C155.043 197.21 154.443 190.407 165.214 189.496C165.214 189.496 173.347 189.108 175.137 194.511" stroke="#B04B19" stroke-miterlimit="10"/>
<path d="M180.436 219.913H181.309C182.191 219.601 184.823 209.727 184.823 209.727L184.269 207.648L197.142 208.564L200.233 201.228L181.193 199.894C181.193 199.894 183.628 195.085 188.802 195.085C188.802 195.085 194.056 195.488 195.422 200.89" stroke="#B04B19" stroke-miterlimit="10"/>
<path d="M197.142 208.564V209.727" stroke="#B04B19" stroke-miterlimit="10"/>
<path d="M172.938 205.241V206.736" stroke="#B04B19" stroke-miterlimit="10"/>
<path d="M150.54 203.967V205.991" stroke="#B04B19" stroke-miterlimit="10"/>
<path d="M181.4 194.39C181.4 194.39 183.114 191.812 189.679 192.195C189.679 192.195 199.85 193.026 200.238 201.223L203.747 207.184" stroke="#B04B19" stroke-miterlimit="10"/>
<path d="M201.872 204.007H208.472C208.472 204.007 210.272 204.168 210.272 206.087L209.642 232.718" stroke="#B04B19" stroke-miterlimit="10"/>
<path d="M203.036 205.991L206.072 206.112" stroke="#B04B19" stroke-miterlimit="10"/>
<path d="M181.929 218.931L181.4 245.396" stroke="#B04B19" stroke-miterlimit="10"/>
<path d="M130.527 198.836L128.762 199.496L120.412 202.542L119.641 203.257" stroke="#B04B19" stroke-miterlimit="10"/>
<path d="M122.424 203.609L128.994 200.825" stroke="#B04B19" stroke-miterlimit="10"/>
<path d="M115.859 187.885L117.967 160.317C122.712 164.446 127.855 159.733 126.66 159.814C126.564 159.819 126.836 159.789 126.826 159.879L125.081 186.415L115.854 187.885L92.0893 185.126V158.897L96.2089 153.112L122.424 153.626" stroke="#B04B19" stroke-miterlimit="10"/>
<path d="M92.0893 158.902L117.967 160.317L122.424 153.631L126.851 159.547" stroke="#B04B19" stroke-miterlimit="10"/>
<path d="M102.003 153.117C102.003 153.117 102.89 147.206 109.46 147.588C109.46 147.588 116.02 146.944 116.479 153.117" stroke="#B04B19" stroke-miterlimit="10"/>
<path d="M96.2089 153.117C96.2089 153.117 96.2089 145.016 108.442 143.349C108.442 143.349 121.733 143.349 122.424 153.636" stroke="#B04B19" stroke-miterlimit="10"/>
<path d="M92.0893 185.125L90.1884 186.284L115.173 188.6L130.527 186.863L131.425 186.022C132.005 185.478 132.211 184.647 131.949 183.897C131.884 183.711 131.712 183.585 131.516 183.585H125.273" stroke="#B04B19" stroke-miterlimit="10"/>
<path d="M125.243 184.743H132.181" stroke="#B04B19" stroke-miterlimit="10"/>
<path d="M90.1884 186.284V188.6L114.361 191.027L130.527 188.6L131.425 186.022" stroke="#B04B19" stroke-miterlimit="10"/>
<path d="M90.0219 190.015C90.0219 190.015 88.126 193.69 87.5209 196.555C87.4806 196.742 86.0435 200.135 90.7984 200.825L95.74 201.228" stroke="#B04B19" stroke-miterlimit="10"/>
<path d="M105.099 202.099L111.402 202.542L113.59 192.16L130.527 189.491L133.472 195.025C133.472 195.025 135.57 187.442 143.572 187.699C143.572 187.699 152.729 187.699 153.117 196.57V200.11" stroke="#B04B19" stroke-miterlimit="10"/>
<path d="M90.8035 188.6V189.994" stroke="#B04B19" stroke-miterlimit="10"/>
<path d="M129.892 188.695V189.592" stroke="#B04B19" stroke-miterlimit="10"/>
<path d="M115.173 188.6L114.361 191.027" stroke="#B04B19" stroke-miterlimit="10"/>
<path d="M113.761 203.096L122.081 201.933" stroke="#B04B19" stroke-miterlimit="10"/>
<path d="M106.021 201.047L109.98 201.399L111.997 193.212L90.8035 191.309C90.8035 191.309 88.484 196.807 88.6151 198.036C88.7462 198.897 89.4471 199.556 90.3093 199.637L96.103 200.216" stroke="#B04B19" stroke-miterlimit="10"/>
<path d="M66.5952 217.265V206.741C66.5952 206.741 69.0457 206.197 73.3368 206.741L78.4901 206.5L77.7993 213.936L76.8916 218.211" stroke="#B04B19" stroke-miterlimit="10"/>
<path d="M54.8767 215.649L54.3674 206.087C54.3674 206.087 58.4517 205.372 60.272 205.865C60.741 205.991 61.22 206.067 61.7041 206.042C63.2319 205.961 66.2271 205.79 66.8523 205.694V206.5" stroke="#B04B19" stroke-miterlimit="10"/>
<path d="M43.9196 213.932L43.365 204.617C43.365 204.617 48.967 203.126 51.0243 204.153C51.0243 204.153 53.2732 205.009 54.4985 204.526C54.6548 204.466 54.8212 204.571 54.8212 204.737V206.016" stroke="#B04B19" stroke-miterlimit="10"/>
<path d="M37.5714 212.874L36.1746 203.791C36.1746 203.791 39.7799 202.567 41.0657 203.252C41.0657 203.252 43.3902 203.619 44.7113 203.312C45.0391 203.237 45.3568 203.468 45.3568 203.806V204.168" stroke="#B04B19" stroke-miterlimit="10"/>
<path d="M46.2997 203.791V202.149C46.2997 201.767 46.6476 201.469 47.0258 201.54C48.0645 201.726 50.031 202.023 51.7051 201.928C51.7051 201.928 55.2247 202.406 56.7676 201.928" stroke="#B04B19" stroke-miterlimit="10"/>
<path d="M56.7726 205.694V202.613C56.7726 201.832 57.408 201.198 58.1895 201.198C59.8485 201.193 62.5663 201.293 64.1547 201.938C64.1547 201.938 66.4187 202.905 67.9415 202.658C68.1986 202.618 68.4205 202.839 68.3953 203.096L68.1028 206.5" stroke="#B04B19" stroke-miterlimit="10"/>
<path d="M78.4901 207.255L83.2097 206.495C83.2097 206.495 84.4955 206.913 85.7813 206.837C87.0671 206.762 88.3983 206.097 88.6101 206.933C88.9529 208.292 86.9259 216.56 86.6637 216.223" stroke="#B04B19" stroke-miterlimit="10"/>
<path d="M68.3953 203.791C68.3953 203.791 72.9082 203.967 77.3707 203.252L80.3557 203.604" stroke="#B04B19" stroke-miterlimit="10"/>
<path d="M80.1188 206.938L80.4768 201.998C80.4919 201.767 80.7239 201.616 80.9407 201.696C81.9744 202.064 84.6569 202.96 86.5579 203.131C88.9631 203.348 91.3582 202.592 93.123 203.131C94.8878 203.67 94.4744 204.622 94.4744 204.622" stroke="#B04B19" stroke-miterlimit="10"/>
<path d="M94.792 116.864L94.5146 155.499" stroke="#B04B19" stroke-miterlimit="10"/>
<path d="M90.8035 116.214L89.8203 189.994L113.59 192.16L113.761 191.077" stroke="#B04B19" stroke-miterlimit="10"/>
<path d="M89.4471 200.503V203.045" stroke="#B04B19" stroke-miterlimit="10"/>
<path d="M91.3128 200.825V202.663" stroke="#B04B19" stroke-miterlimit="10"/>
<path d="M71.3652 50.4403C71.3652 50.4403 70.4223 49.4988 70.1652 49.7556C69.908 50.0123 69.6508 51.6387 69.6508 51.6387C69.6508 51.6387 70.1652 53.9549 69.6508 54.2973C69.1365 54.6396 68.1079 55.5812 67.3313 56.4422C66.5548 57.3032 65.8741 58.411 65.6169 59.4432C65.3598 60.4754 65.1581 62.7865 65.2589 64.5841C65.3598 66.3816 65.7884 67.9274 65.7884 67.9274C65.7884 67.9274 64.3311 68.013 64.2454 66.9858C64.2454 66.9858 63.4739 65.9587 63.5597 62.9577C63.6454 59.9568 64.074 56.8702 60.8973 55.7575C60.8973 55.7575 55.149 55.0727 55.5776 61.4975C55.5776 61.4975 54.8919 65.1379 58.5829 66.145C58.5829 66.145 58.0786 62.1823 59.2737 63.2095C59.5308 63.431 59.7376 63.6677 59.909 63.8993C60.388 64.5589 60.62 65.3746 60.6149 66.1903C60.6149 66.87 60.6452 68.1691 61.099 69.1509C61.2906 69.5638 61.6385 69.881 62.052 70.0774C63.6403 70.8478 68.2037 72.3432 72.6561 68.8438C72.9687 68.5971 73.2208 68.2799 73.3721 67.9123L73.5133 67.5749L72.9637 67.4038C72.5452 67.2728 72.3435 66.8146 72.5199 66.4118C72.9889 65.3494 73.5082 63.4411 71.6274 62.7765L71.456 60.425H73.5183C73.5183 60.425 74.2041 60.2035 73.5183 59.0051L72.2325 58.4059C72.2325 58.4059 72.3182 56.0898 72.4897 55.5762C72.6611 55.0626 74.6377 54.977 75.0663 53.9498C75.4949 52.9227 76.7807 50.8633 71.3753 50.4353L71.3652 50.4403Z" stroke="#B04B19" stroke-miterlimit="10"/>
<path d="M125.439 45.4352C125.439 45.4352 126.478 44.4181 126.786 44.6648C127.093 44.9115 127.487 46.5429 127.487 46.5429C127.487 46.5429 127.023 48.9195 127.638 49.2367C128.253 49.5539 129.494 50.4401 130.431 51.2609C131.369 52.0816 131.692 53.0584 132.045 54.0805C132.398 55.1027 132.766 57.439 132.746 59.2718C132.726 61.1046 131.677 62.4238 131.677 62.4238C131.677 62.4238 134.748 60.1882 134.057 57.2174C133.326 54.0453 133.013 49.7151 137.284 48.5771C137.284 48.5771 144.293 47.127 143.582 55.4803C143.582 55.4803 143.093 59.0855 139.785 60.3946C139.785 60.3946 140.748 57.0261 139.654 57.0916C138.948 57.1318 138.58 57.8166 138.237 58.3151C137.743 59.0301 137.798 60.5104 137.849 61.3362C137.894 62.026 137.294 62.9474 136.82 63.9696C136.623 64.3976 135.156 65.4147 134.697 65.6412C132.907 66.5224 128.601 68.612 123.266 65.3492C122.893 65.1226 122.585 64.8155 122.389 64.4529L122.207 64.1206L122.833 63.9092C123.307 63.7531 123.513 63.2697 123.291 62.8769C122.691 61.8296 121.98 59.9264 124.118 59.1308L124.184 56.7391L121.809 56.87C121.809 56.87 121.002 56.6887 121.728 55.43L123.18 54.7401C123.18 54.7401 124.668 51.2357 124.441 50.7221C124.214 50.2085 121.93 50.2488 121.38 49.2367C120.831 48.2247 119.227 46.2207 125.439 45.4402V45.4352Z" stroke="#B04B19" stroke-miterlimit="10"/>
<path d="M81.2735 48.7384C81.7878 48.688 82.3425 49.0304 82.9375 49.7655C83.4366 50.3345 83.6988 51.0394 83.714 51.8753C83.7241 52.2781 83.6736 52.7413 83.5678 53.2599C84.198 53.1995 84.8888 53.5218 85.6452 54.2216C86.1444 54.7 86.4016 55.279 86.4167 55.9638C86.4368 56.9557 86.4368 58.1339 86.4167 59.4985C86.4016 61.2205 86.4066 62.6253 86.4318 63.7079C86.452 64.6847 86.6688 65.1529 87.0772 65.1127C87.2638 65.0925 87.5764 64.9969 88.0202 64.8106L87.7327 51.7645C87.7176 51.1603 87.6067 50.5913 87.3999 50.0525C87.1781 49.6245 87.0671 49.2771 87.0621 49.0153C87.047 48.396 87.3848 48.0536 88.0655 47.9881C88.8521 47.9126 89.5127 48.0788 90.032 48.4967C90.5665 48.9398 90.8439 49.5591 90.864 50.3496L91.1464 63.305C91.6658 63.0382 92.2204 62.7411 92.8053 62.4239C92.9213 62.3635 93.0272 62.3081 93.118 62.2527L92.9566 54.987C92.9314 53.7785 92.7196 52.8219 92.3213 52.1169C92.1145 51.7041 92.0087 51.3566 92.0036 51.0797C91.9935 50.5863 92.3566 50.2993 93.0928 50.2288C93.713 50.1683 94.308 50.3899 94.8878 50.8934C95.4526 51.3818 95.745 52.0666 95.7652 52.9477L96.0829 67.4339C96.103 68.2395 95.6543 68.6826 94.7467 68.7732C93.7331 68.8689 92.165 68.5164 90.0371 67.7158C89.7598 67.6202 89.5127 67.5245 89.3009 67.4389C87.8689 68.1388 86.8856 68.5114 86.3612 68.5617C85.4687 68.6473 84.8233 68.4459 84.43 67.9575C84.0064 67.3634 83.7846 66.4067 83.7543 65.0925L83.5778 57.0111C83.5627 56.3616 83.4417 55.6667 83.2148 54.9266L83.1946 54.8611C82.9223 55.712 82.5744 56.6587 82.1508 57.706C82.2366 57.9325 82.3072 58.1541 82.3626 58.3807C82.6904 59.5287 82.9022 62.2124 82.9929 66.4419C83.0232 67.741 82.9173 68.6725 82.6803 69.2415C82.4383 69.7299 82.1559 69.9917 81.8281 70.0219C81.339 70.0673 80.9256 69.8205 80.5877 69.2818C80.1238 68.597 79.8818 67.8165 79.8667 66.9304C79.8566 66.4822 79.9322 65.7773 80.0986 64.8156C80.2801 63.4662 80.3608 62.016 80.3406 60.4652C80.2095 60.5408 80.0885 60.581 79.9675 60.5961C78.954 60.6918 78.4346 60.0624 78.4044 58.6979C78.3943 58.1239 78.4951 57.6254 78.7069 57.2024C79.3574 56.13 79.9221 54.9517 80.4062 53.6627C80.618 53.0988 80.7188 52.5298 80.7037 51.9609C80.6986 51.6185 80.6381 51.2912 80.5222 50.979C80.4264 50.7272 80.3709 50.4503 80.3659 50.1583C80.3457 49.2771 80.6533 48.8038 81.2836 48.7434L81.2735 48.7384ZM90.859 66.6333C91.8624 66.7843 92.5129 66.8448 92.8003 66.8196C93.0776 66.7944 93.2138 66.6786 93.2087 66.4772L93.1835 65.3846C92.3263 65.8679 91.5498 66.2859 90.859 66.6333V66.6333Z" stroke="#B04B19"/>
<path d="M99.2646 57.7965C99.673 57.7563 100.031 57.8167 100.334 57.9728H100.354L100.772 58.0483C100.903 58.0332 101.226 57.9123 101.73 57.6757C102.93 57.1269 103.788 56.8248 104.302 56.7744C105.089 56.6989 105.764 56.9909 106.319 57.6505C106.833 58.2346 107.1 59.1157 107.126 60.294L107.201 63.6625C107.211 64.0351 107.191 64.3523 107.146 64.6242C107.373 64.8659 107.494 65.1579 107.499 65.4953C107.514 66.3009 107.176 66.7893 106.485 66.9655C104.64 67.4691 103.223 67.7712 102.235 67.8668C101.392 67.9474 100.656 67.6302 100.021 66.9152C99.4764 66.2405 99.194 65.3493 99.1738 64.2516L99.2696 61.3564C99.2596 60.8176 99.0982 60.1933 98.7957 59.4934C98.5889 59.1711 98.4881 58.9395 98.483 58.8036C98.4679 58.1842 98.7301 57.8469 99.2696 57.7965H99.2646ZM100.712 47.978C101.161 47.9327 101.529 47.9981 101.821 48.1744H101.882L102.219 48.2298C102.472 48.2046 102.981 48.0636 103.752 47.8018C106.667 46.7595 108.749 46.1804 110 46.0596C111.497 45.9136 112.667 46.0948 113.509 46.6034C114.23 47.1371 114.603 47.8018 114.619 48.5872C114.639 49.408 114.442 50.41 114.034 51.5983C114.316 51.8953 114.462 52.273 114.472 52.7211C114.487 53.3404 114.104 53.7181 113.333 53.854C110.116 54.3223 107.342 54.9215 105.013 55.6616C104.413 55.858 103.924 55.9738 103.556 56.0141C102.532 56.1148 101.725 55.8026 101.145 55.0826C100.566 54.3928 100.258 53.416 100.233 52.1471C100.202 50.8027 100.087 49.9568 99.8798 49.6195C99.7184 49.418 99.6327 49.2469 99.6327 49.1059C99.6176 48.4261 99.9806 48.0485 100.717 47.978H100.712ZM104.257 64.4329C104.257 64.0452 104.277 63.6021 104.307 63.1036C104.327 62.2627 104.327 61.3262 104.307 60.2889C104.297 59.7955 104.125 59.5639 103.798 59.5941C103.641 59.6092 102.986 59.9113 101.841 60.5054L101.624 64.0149C101.64 64.6947 101.877 65.0119 102.335 64.9716C102.769 64.9313 103.324 64.7803 104.004 64.5336C104.11 64.4933 104.196 64.458 104.262 64.4379L104.257 64.4329ZM110.449 51.1753C110.509 50.8933 110.6 50.5711 110.726 50.2186C110.907 49.5188 110.998 49.0606 110.993 48.844C110.988 48.552 110.771 48.4211 110.353 48.4664C109.591 48.5419 108.548 48.8038 107.226 49.2569C105.356 49.9014 103.969 50.3395 103.067 50.5661C103.112 50.8732 103.147 51.2005 103.167 51.558C103.188 52.5046 103.515 52.9427 104.146 52.8822C104.433 52.852 104.993 52.701 105.815 52.419C107.776 51.7644 109.324 51.3515 110.454 51.1804L110.449 51.1753ZM108.482 56.1601C108.89 56.1198 109.259 56.1954 109.591 56.3766C109.617 56.3615 109.637 56.3464 109.652 56.3464L110.07 56.3968C110.217 56.3817 110.539 56.2407 111.049 55.9789C112.314 55.3897 113.212 55.0725 113.736 55.0222C114.538 54.9466 115.224 55.2336 115.793 55.8933C116.293 56.4824 116.555 57.3686 116.585 58.5619L116.666 62.3483C116.676 62.7964 116.646 63.1791 116.57 63.4963C116.772 63.7229 116.878 63.9847 116.883 64.2818C116.903 65.1025 116.56 65.6061 115.869 65.7974C113.983 66.2757 112.536 66.5627 111.538 66.6584C110.696 66.739 109.959 66.4318 109.324 65.7319C108.78 65.0522 108.497 64.161 108.472 63.0432L108.482 59.8761C108.472 59.302 108.295 58.6475 107.963 57.9023C107.746 57.5649 107.635 57.3232 107.63 57.1671C107.615 56.5478 107.897 56.2105 108.477 56.1551L108.482 56.1601ZM113.696 63.2395C113.696 62.7763 113.711 62.2275 113.741 61.6081C113.761 60.6918 113.756 59.6696 113.731 58.5367C113.721 58.0584 113.565 57.8318 113.262 57.862C113.091 57.8771 112.405 58.1943 111.205 58.8036C111.205 58.8338 111.205 58.859 111.205 58.8741L111.074 62.7964C111.089 63.4762 111.361 63.7934 111.886 63.7431C112.279 63.7028 112.803 63.5668 113.459 63.3352C113.55 63.2949 113.63 63.2647 113.696 63.2446V63.2395Z" stroke="#B04B19"/>
<path d="M84.1173 247.34C84.4905 247.39 84.8233 247.722 85.1258 248.342C85.383 248.83 85.4536 249.369 85.3275 249.963C85.267 250.25 85.1561 250.567 84.9947 250.92C85.4485 250.98 85.8872 251.323 86.3007 251.942C86.573 252.365 86.6587 252.813 86.5578 253.301C86.4116 254.006 86.215 254.837 85.9729 255.799C85.6754 257.017 85.4485 258.009 85.2872 258.78C85.1409 259.474 85.2166 259.837 85.509 259.877C85.6401 259.897 85.8822 259.877 86.225 259.822L88.1815 250.552C88.2722 250.124 88.2874 249.701 88.2269 249.288C88.1411 248.951 88.121 248.684 88.1613 248.498C88.2521 248.06 88.5496 247.868 89.0437 247.939C89.6135 248.014 90.0522 248.241 90.3497 248.624C90.6573 249.027 90.748 249.505 90.6321 250.069L88.6908 259.273C89.1042 259.172 89.5429 259.057 90.0119 258.926C90.1026 258.906 90.1883 258.88 90.2589 258.855L91.3481 253.694C91.5296 252.838 91.5347 252.123 91.3733 251.559C91.2977 251.232 91.2775 250.97 91.3178 250.774C91.3935 250.421 91.696 250.28 92.2255 250.351C92.6742 250.411 93.0574 250.668 93.3852 251.116C93.7029 251.554 93.7936 252.088 93.6625 252.712L91.4893 263.004C91.3683 263.578 90.98 263.82 90.3245 263.729C89.5933 263.628 88.5395 263.125 87.173 262.204C86.9915 262.088 86.8352 261.982 86.699 261.886C85.5695 262.143 84.8132 262.244 84.435 262.193C83.7896 262.108 83.366 261.856 83.1694 261.448C82.9727 260.96 82.9677 260.245 83.1694 259.308L84.3796 253.568C84.4754 253.105 84.5056 252.596 84.4703 252.038V251.987C84.1325 252.541 83.7291 253.155 83.2551 253.825C83.2753 253.996 83.2904 254.167 83.2954 254.339C83.3358 255.205 83.0433 257.138 82.408 260.139C82.2113 261.061 81.9844 261.705 81.7222 262.068C81.4701 262.375 81.2281 262.511 80.9911 262.48C80.6381 262.435 80.386 262.188 80.2347 261.75C80.023 261.191 79.9776 260.597 80.1137 259.968C80.1793 259.651 80.3507 259.162 80.628 258.513C80.981 257.586 81.2785 256.574 81.5155 255.477C81.4096 255.507 81.3188 255.517 81.2331 255.507C80.502 255.411 80.2398 254.877 80.4415 253.911C80.5272 253.503 80.6785 253.17 80.9054 252.904C81.5407 252.254 82.1357 251.514 82.6954 250.683C82.9374 250.321 83.1038 249.933 83.1896 249.53C83.24 249.288 83.2501 249.047 83.2248 248.805C83.1996 248.609 83.2047 248.407 83.2501 248.196C83.3812 247.571 83.6787 247.284 84.1325 247.345L84.1173 247.34ZM87.9294 261.569C88.6151 261.841 89.0639 261.992 89.2706 262.022C89.4723 262.047 89.5833 261.992 89.6135 261.846L89.7799 261.071C89.0942 261.272 88.4739 261.438 87.9294 261.569V261.569Z" stroke="#B04B19"/>
<path d="M95.3366 256.71C95.6291 256.75 95.8761 256.851 96.0627 257.012H96.0778L96.3602 257.138C96.456 257.153 96.7031 257.118 97.1014 257.032C98.0393 256.841 98.6948 256.771 99.0679 256.821C99.6377 256.897 100.066 257.214 100.349 257.773C100.616 258.271 100.661 258.941 100.485 259.777L99.9806 262.168C99.9251 262.43 99.8596 262.657 99.7789 262.838C99.8999 263.044 99.9352 263.271 99.8848 263.513C99.7638 264.082 99.4461 264.374 98.9217 264.384C97.5351 264.434 96.4812 264.414 95.7702 264.318C95.1601 264.238 94.6912 263.89 94.3634 263.281C94.0911 262.712 94.0407 262.037 94.2021 261.257L94.7466 259.228C94.8273 258.845 94.8172 258.377 94.7164 257.833C94.6256 257.571 94.5903 257.39 94.6105 257.294C94.7013 256.856 94.9433 256.66 95.3366 256.715V256.71ZM97.767 262.224C97.8326 261.952 97.9183 261.64 98.0242 261.292C98.1754 260.703 98.3318 260.038 98.4881 259.303C98.5637 258.951 98.483 258.76 98.241 258.729C98.125 258.714 97.6157 258.82 96.7081 259.052L95.9719 261.499C95.8711 261.982 95.9871 262.249 96.3199 262.289C96.6325 262.329 97.051 262.319 97.5754 262.254C97.6561 262.244 97.7216 262.234 97.7721 262.229L97.767 262.224ZM97.9838 250.008C98.3065 250.054 98.5587 250.159 98.7351 250.331H98.7755L99.0024 250.436C99.1839 250.462 99.5671 250.446 100.157 250.386C102.391 250.129 103.959 250.064 104.862 250.185C105.946 250.331 106.742 250.648 107.252 251.146C107.675 251.645 107.827 252.174 107.711 252.732C107.59 253.317 107.282 253.991 106.798 254.767C106.949 255.023 106.989 255.31 106.924 255.633C106.833 256.071 106.5 256.277 105.931 256.247C103.576 256.046 101.519 256.015 99.7487 256.151C99.2898 256.192 98.9268 256.197 98.6646 256.161C97.9233 256.061 97.404 255.713 97.1115 255.104C96.814 254.52 96.7585 253.78 96.9502 252.878C97.1518 251.922 97.2073 251.307 97.1216 251.036C97.0409 250.864 97.0107 250.733 97.0308 250.633C97.1317 250.149 97.4493 249.943 97.9838 250.013V250.008ZM104.337 253.875C104.428 253.684 104.544 253.473 104.69 253.246C104.937 252.783 105.073 252.471 105.109 252.32C105.154 252.113 105.023 251.987 104.72 251.947C104.171 251.871 103.389 251.887 102.381 251.992C100.954 252.138 99.8999 252.219 99.2243 252.229C99.2091 252.45 99.1738 252.692 99.1335 252.944C98.9923 253.614 99.1486 253.981 99.6075 254.042C99.8142 254.067 100.238 254.052 100.863 253.986C102.356 253.845 103.52 253.81 104.347 253.875H104.337ZM102.124 257.073C102.416 257.113 102.668 257.224 102.875 257.41C102.895 257.4 102.91 257.4 102.92 257.4L103.208 257.506C103.314 257.521 103.566 257.476 103.969 257.37C104.962 257.163 105.648 257.088 106.026 257.138C106.606 257.214 107.04 257.536 107.332 258.095C107.59 258.593 107.63 259.263 107.448 260.114L106.884 262.803C106.818 263.12 106.732 263.387 106.626 263.598C106.732 263.795 106.763 263.996 106.717 264.203C106.596 264.787 106.273 265.089 105.749 265.109C104.337 265.134 103.268 265.099 102.547 265.003C101.937 264.923 101.468 264.58 101.135 263.986C100.863 263.417 100.813 262.737 100.979 261.947L101.508 259.711C101.594 259.303 101.579 258.81 101.468 258.231C101.367 257.959 101.332 257.768 101.357 257.657C101.448 257.219 101.705 257.027 102.124 257.083V257.073ZM104.64 262.939C104.72 262.611 104.821 262.229 104.942 261.791C105.109 261.146 105.275 260.421 105.447 259.621C105.517 259.278 105.447 259.097 105.225 259.067C105.099 259.052 104.564 259.157 103.616 259.394C103.616 259.414 103.606 259.434 103.606 259.444L102.865 262.193C102.764 262.677 102.9 262.944 103.283 262.994C103.566 263.034 103.959 263.024 104.463 262.964C104.534 262.949 104.594 262.944 104.645 262.939H104.64Z" stroke="#B04B19"/>
<path d="M76.7706 70.9685L118.481 68.7832" stroke="#B04B19"/>
<path d="M80.6331 75.9835L86.5528 74.8254" stroke="#B04B19"/>
<path d="M84.8788 72.5093V76.7539L83.593 77.3984" stroke="#B04B19"/>
<path d="M81.9189 73.4106C81.9189 73.4106 81.6617 78.6824 82.6904 79.5837H84.8788" stroke="#B04B19"/>
<path d="M91.575 71.613L89.8707 76.0037L88.484 79.5837C88.484 79.5837 90.8035 74.186 92.0893 76.4971C92.0893 76.4971 91.0607 79.8405 92.0893 79.5837C93.1179 79.3269 94.792 78.0429 94.792 78.0429" stroke="#B04B19"/>
<path d="M98.9116 73.4106L101.1 72.5093C101.1 72.5093 96.9804 78.4205 101.1 78.4205C101.1 78.4205 104.362 77.3229 103.747 73.4206C103.702 73.1336 103.636 72.8265 103.546 72.5093L105.028 75.6009" stroke="#B04B19"/>
<path d="M110.116 71.0693L107.156 78.4257C107.156 78.4257 109.475 73.6675 110.761 75.4046V78.4257C110.761 78.4257 111.361 80.3542 113.766 77.3985" stroke="#B04B19"/>
<path d="M50.5554 269.797C50.8831 269.897 51.1403 270.119 51.3269 270.456C51.6092 271.025 51.7303 271.604 51.7 272.198C51.6849 272.425 51.6546 272.687 51.5992 272.989C51.7151 272.813 51.821 272.652 51.9168 272.516C52.5421 271.65 53.011 271.227 53.3236 271.247C54.2615 271.302 54.7002 271.881 54.6397 272.979C54.6044 273.548 54.4683 273.941 54.2313 274.152C54.0447 274.369 53.7926 274.484 53.4749 274.51C52.9908 274.706 52.3958 275.028 51.6899 275.481C51.4832 275.773 51.3017 276 51.1554 276.156L51.1403 276.433C51.11 276.655 51.0899 276.871 51.0798 277.072C51.5437 276.876 51.8664 276.75 52.0429 276.7C53.1825 276.906 53.722 277.546 53.6615 278.603C53.6211 279.278 53.4295 279.756 53.0816 280.043C52.7236 280.491 52.174 280.788 51.4328 280.929C51.2311 281.08 50.989 281.211 50.7016 281.317C50.6663 281.664 50.6361 282.007 50.6159 282.354C50.7218 282.319 50.8378 282.304 50.9588 282.314C51.9925 282.556 52.6681 282.923 52.9908 283.412C53.0614 283.11 53.132 282.787 53.2026 282.44C53.6211 280.622 53.9489 279.076 54.1758 277.803C54.4027 276.936 54.5842 275.854 54.7305 274.55C54.8111 273.492 55.0481 272.974 55.4515 272.994C55.6935 273.009 55.9154 273.08 56.1171 273.216C56.1877 273.2 56.2432 273.18 56.2785 273.165C57.2416 273.12 58.1744 273.019 59.0719 272.868C59.0265 272.702 58.966 272.556 58.8854 272.43C58.5626 271.962 58.4063 271.655 58.4164 271.514C58.4568 271.086 58.5828 270.748 58.7896 270.491C58.961 270.275 59.2333 270.179 59.6165 270.204C60.277 270.245 60.9779 270.497 61.7192 270.97C62.2184 271.428 62.5159 271.856 62.6117 272.249C63.0705 272.193 63.4437 272.153 63.7462 272.128C64.2151 272.173 64.6639 272.294 65.0875 272.48C65.4203 272.727 65.5816 273.009 65.5614 273.336C65.511 274.192 65.0975 274.691 64.321 274.832C63.4386 275.028 62.6268 275.154 61.8906 275.214C61.6082 275.24 61.346 275.265 61.099 275.29C61.1343 275.537 61.1494 275.793 61.1343 276.06C61.1141 276.368 61.109 276.649 61.109 276.916C61.462 276.856 61.7948 276.811 62.1125 276.79C62.4906 276.322 62.7528 276.091 62.9142 276.101C63.2067 276.136 63.6655 276.413 64.2807 276.916C64.7698 277.516 64.9917 278.236 64.9412 279.071C64.9211 279.379 64.8959 279.66 64.8656 279.927C65.0219 279.917 65.148 279.912 65.2337 279.917C65.7228 279.948 66.1867 280.229 66.6254 280.763C66.933 281.151 67.0691 281.649 67.0338 282.259C66.9834 283.135 66.4338 283.543 65.39 283.482C64.9715 283.457 64.5479 283.381 64.1193 283.256C64.0739 283.457 64.0185 283.648 63.9529 283.83C64.4824 284.066 64.7244 284.509 64.6891 285.159C64.6336 286.075 64.0689 286.69 62.9848 286.992C62.2234 287.133 61.3359 287.274 60.3174 287.42C60.2518 287.621 60.1661 287.797 60.0501 287.958C60.8115 287.777 61.4166 287.702 61.8704 287.727C62.4251 287.777 63.0756 288.034 63.8168 288.482C64.5984 289.162 64.9715 289.796 64.9362 290.385C64.8051 291.423 64.3009 292.354 63.4134 293.18C63.7311 293.709 63.8823 294.167 63.8571 294.554C63.7966 295.572 63.3579 296.06 62.5411 296.015C62.4201 296.01 62.1478 295.909 61.7192 295.723C61.5124 295.692 61.3359 295.672 61.1998 295.662C60.867 295.662 60.2468 295.697 59.3341 295.768C58.6332 295.849 58.0181 295.914 57.4886 295.969C57.3222 296.146 57.1508 296.226 56.9743 296.216C56.3844 296.181 55.7541 295.154 55.0834 293.13C54.7153 291.982 54.5388 291.05 54.5641 290.335C54.6296 289.826 54.7557 289.303 54.9422 288.764C55.2297 288.291 55.4868 288.059 55.7137 288.074C56.2885 288.13 56.7171 288.376 57.0046 288.824C57.413 288.744 57.8265 288.648 58.2551 288.527C58.1643 288.276 58.1088 287.999 58.0937 287.692C57.655 287.727 57.3121 287.737 57.0701 287.727C55.991 287.666 55.4666 287.339 55.5019 286.745C55.5524 286.196 55.9608 285.627 56.7272 285.038C57.06 284.978 57.529 284.892 58.129 284.781L58.1845 283.835C57.1911 284.127 56.4852 284.394 56.0717 284.635C55.6179 284.61 55.2952 284.509 55.0935 284.333C54.7355 285.662 54.3825 286.972 54.0296 288.261C53.5707 289.892 53.0816 291.327 52.5774 292.566C51.8866 293.648 51.347 294.519 50.9588 295.174C50.8882 295.174 50.8327 295.053 50.7974 294.826C50.7369 294.7 50.7167 294.393 50.747 293.905C50.9689 292.525 51.4075 290.29 52.0782 287.198C52.1689 286.836 52.2496 286.463 52.3253 286.075C52.1639 286.126 52.0076 286.151 51.8513 286.141C51.2411 286.105 50.747 285.924 50.3638 285.597L49.9604 292.571C49.8848 293.608 49.6578 294.444 49.2898 295.078C48.7805 295.743 48.3973 296.151 48.1451 296.302C47.7468 296.236 47.5098 295.929 47.4392 295.37C47.3535 295.038 47.3031 294.444 47.2829 293.583C47.414 291.015 47.5552 288.381 47.7115 285.693C47.3434 286.307 46.9602 286.866 46.5669 287.374C46.1988 287.969 45.8408 288.437 45.4878 288.784C45.1701 289.132 44.918 289.393 44.7365 289.57C44.1466 290.129 43.6927 290.4 43.3801 290.38C43.3448 290.335 43.3398 290.144 43.3599 289.796C43.4305 289.474 43.5717 289.041 43.7734 288.502C43.9802 287.923 44.1869 287.389 44.3886 286.911C44.6861 286.272 44.9987 285.607 45.3164 284.907C45.7651 284.071 46.1837 283.331 46.5719 282.677C46.3248 282.742 46.1282 282.772 45.9921 282.767C45.4878 282.737 45.0643 282.5 44.7264 282.047C44.2877 281.448 44.086 280.854 44.1213 280.265C44.1869 279.429 44.6256 278.946 45.4374 278.805C46.103 278.719 46.6879 278.613 47.1871 278.477C47.5199 278.417 47.8577 278.311 48.2006 278.17L48.5435 272.269C48.5889 271.453 48.7855 270.809 49.1284 270.34C49.5721 269.958 50.0411 269.782 50.5453 269.807L50.5554 269.797ZM47.0409 271.74C47.3384 271.755 47.5602 271.967 47.7115 272.365C47.9182 272.969 48.004 273.608 47.9687 274.283C47.9132 275.26 47.8275 275.934 47.7216 276.292C47.6258 276.755 47.4695 276.982 47.2627 276.972C46.8997 276.952 46.4761 276.373 46.0021 275.24C45.6038 274.278 45.4021 273.659 45.4021 273.397C45.4878 272.234 46.0324 271.685 47.0409 271.74V271.74ZM58.5223 277.405L58.5324 277.254C58.5475 277.007 58.5173 276.74 58.4467 276.453C58.3912 276.206 58.3559 276.02 58.3458 275.894C58.1845 275.924 58.0534 275.96 57.9475 275.995C57.5693 276.216 57.2365 276.352 56.9541 276.398C56.8382 276.861 56.6919 277.445 56.5104 278.15C56.2583 279.444 56.0314 280.516 55.8246 281.362C56.0566 281.272 56.2885 281.196 56.5205 281.126C56.823 281.04 57.4382 280.924 58.3761 280.773V280.743H58.3509C57.3071 280.683 56.6919 279.993 56.5054 278.674C56.5306 278.266 56.6869 277.959 56.9793 277.747C57.3374 277.586 57.7458 277.495 58.1996 277.48C58.3257 277.445 58.4315 277.42 58.5173 277.405H58.5223ZM57.9626 292.928C58.9761 292.903 59.6417 292.717 59.9594 292.369C60.5544 291.997 60.9679 291.382 61.1897 290.536C60.6804 290.914 60.035 291.176 59.2585 291.317C58.7593 291.473 58.2954 291.679 57.8618 291.941C57.8971 292.248 57.9273 292.581 57.9626 292.928ZM60.8216 283.366C60.8015 283.714 60.7914 284.041 60.7914 284.348C60.9527 284.298 61.0838 284.242 61.1948 284.187C61.3007 283.885 61.3965 283.573 61.4822 283.251C61.2553 283.281 61.0334 283.316 60.8216 283.366V283.366ZM62.1074 280.189C62.1427 279.862 62.1679 279.59 62.1831 279.363C62.2083 278.956 62.1679 278.749 62.062 278.744C61.7091 279.071 61.3612 279.348 61.0183 279.575L60.9729 280.34C61.3612 280.3 61.7393 280.25 62.1074 280.189V280.189Z" stroke="#B04B19"/>
<path d="M74.9302 294.449C74.1083 295.743 73.004 296.961 71.6123 298.119C70.8308 298.975 69.6761 299.655 68.1533 300.164C68.2239 299.796 68.6827 298.915 69.5298 297.515C70.619 296.161 71.5165 294.831 72.2275 293.532C73.004 292.304 73.594 290.642 73.9974 288.547C74.4915 286.261 74.8898 283.301 75.2025 279.665C75.3285 278.402 75.5504 277.455 75.863 276.826C76.3673 275.97 76.7505 275.552 77.0076 275.572C77.3959 275.627 77.8144 276.015 78.2581 276.73C78.6716 277.379 78.838 278.185 78.7573 279.142C78.722 279.555 78.6767 279.957 78.6262 280.35C79.1002 279.842 79.4683 279.6 79.7255 279.62C80.6381 279.696 81.0466 280.29 80.9508 281.403C80.8953 282.057 80.7239 282.515 80.4415 282.772C80.2347 283.019 79.9423 283.16 79.5641 283.19C79.1204 283.351 78.6111 283.603 78.0413 283.95C77.8346 285.033 77.6127 286.131 77.3656 287.248C77.1085 288.96 76.7707 290.39 76.3572 291.538C76.9522 291.83 77.4161 292.198 77.7539 292.646C78.117 293.205 78.2682 293.839 78.2077 294.559C78.0867 295.974 77.5825 296.644 76.69 296.568C76.3168 296.538 75.9992 296.292 75.742 295.828C75.4395 295.189 75.1722 294.726 74.9302 294.444V294.449ZM73.0091 280.662C73.7352 280.723 74.0276 282.002 73.8915 284.489L73.7099 286.644C73.5082 288.341 73.12 289.162 72.5452 289.111C71.688 289.041 71.1383 287.938 70.8862 285.813C70.8207 284.6 70.8055 283.789 70.8408 283.371C70.9165 282.722 71.1686 282.027 71.6073 281.297C72.1166 280.834 72.5805 280.622 73.0091 280.657V280.662ZM89.9766 287.596C91.0809 287.797 91.5801 288.532 91.4742 289.796C91.4137 290.516 90.8136 291.518 89.674 292.802C88.2824 294.439 86.5629 296.151 84.5208 297.928C82.0651 300.179 79.9725 301.855 78.2531 302.958C78.0312 303.139 77.6783 303.326 77.1942 303.527C76.6748 303.703 76.332 303.784 76.1605 303.769C75.9941 303.754 75.9185 303.658 75.9336 303.487C75.9639 303.356 76.4984 302.656 77.5472 301.387C79.4028 299.131 80.9911 297.314 82.3072 295.934C83.3761 294.796 84.5914 293.507 85.9477 292.062C87.4907 290.436 88.3681 289.383 88.5748 288.895C88.7614 288.668 88.9379 288.356 89.1043 287.953C89.2858 287.772 89.5782 287.651 89.9766 287.601V287.596ZM81.0718 282.631C81.5155 282.692 81.8685 282.928 82.1357 283.346C82.6551 283.391 83.1442 283.245 83.603 282.913C83.7493 282.948 83.8199 283.019 83.8098 283.13C83.1442 283.93 82.7005 284.706 82.4887 285.456L82.3374 287.253C82.2719 287.817 81.7525 288.059 80.7894 287.978C79.8263 287.878 79.4078 287.072 79.5339 285.567C79.5994 284.983 79.7557 284.358 80.0028 283.699C80.4768 282.968 80.8348 282.616 81.0768 282.636L81.0718 282.631ZM85.383 274.867C86.4974 274.963 87.2588 275.386 87.6621 276.146C87.884 276.604 88 277.581 88.005 279.071C87.9949 281.815 87.9344 283.87 87.8185 285.244C87.6823 286.881 87.4453 288.195 87.1176 289.202C86.9411 290.154 86.5024 290.828 85.7965 291.231C85.5998 291.347 85.3527 291.478 85.0603 291.629C84.7628 291.8 84.43 292.017 84.0518 292.268C83.7241 292.616 83.3913 292.863 83.0635 293.009C82.766 293.18 82.4786 293.255 82.2013 293.23C81.6567 293.054 81.4046 292.495 81.4449 291.553C81.4298 291.07 81.3138 290.652 81.102 290.305C80.8903 289.912 80.7692 289.585 80.7339 289.318C80.7743 289.056 80.86 288.935 80.9911 288.945L82.3021 289.056C83.1391 289.126 83.6383 288.522 83.8047 287.243C84.1073 285.909 84.4149 283.356 84.7376 279.585C84.8132 278.668 84.8283 277.938 84.783 277.385C84.6367 276.448 84.5712 275.899 84.5863 275.723C84.7073 275.164 84.9746 274.877 85.388 274.867H85.383ZM89.9766 281.972C90.8338 282.042 91.7162 282.45 92.6289 283.185C93.4306 284.086 93.7987 284.972 93.7231 285.844C93.6726 286.453 93.4709 286.911 93.1281 287.208C92.6894 287.742 92.2557 287.989 91.8271 287.953C91.5851 287.933 91.2826 287.767 90.9145 287.45C90.5817 287.158 90.3648 286.775 90.2539 286.307C90.1682 285.753 89.9564 285.275 89.6186 284.872C88.9328 284.132 88.6 283.653 88.6151 283.437C88.6757 282.938 88.8421 282.556 89.1043 282.294C89.2555 282.042 89.548 281.936 89.9766 281.972V281.972Z" stroke="#B04B19"/>
<path d="M101.685 287.384C102.144 287.415 102.507 287.51 102.774 287.671C103.843 287.238 104.781 286.896 105.593 286.639L105.623 286.035C105.648 285.924 105.673 285.813 105.704 285.698C105.154 285.824 104.615 285.884 104.09 285.874C103.273 285.859 102.658 285.582 102.245 285.033C101.766 284.53 101.544 283.956 101.574 283.301C101.64 282.334 102.31 281.695 103.586 281.378C104.413 281.232 105.467 281.091 106.752 280.955C107.953 280.864 109.334 280.622 110.907 280.245C112.702 279.937 113.908 279.751 114.518 279.696C116.308 279.927 117.18 280.592 117.125 281.695C117.074 282.797 116.494 283.452 115.395 283.658C114.634 283.779 113.948 283.895 113.333 283.996C113.403 284.268 113.429 284.58 113.413 284.942C113.403 285.189 113.368 285.446 113.313 285.718C113.832 285.819 114.346 285.96 114.866 286.146C115.451 285.728 115.894 285.501 116.187 285.461C117.704 285.688 118.426 286.619 118.35 288.261C118.279 289.766 117.911 291.075 117.251 292.188C116.903 292.858 116.459 293.401 115.914 293.819C115.435 294.172 114.936 294.343 114.412 294.333C114.034 294.328 113.736 294.222 113.514 294.016C113.212 294.237 112.859 294.388 112.455 294.469C111.961 294.685 111.281 294.912 110.408 295.144C110.489 295.214 110.559 295.28 110.62 295.35C110.796 295.557 110.938 295.919 111.038 296.438C111.8 296.337 112.536 296.236 113.252 296.136C114.533 296.045 115.672 295.869 116.671 295.617C117.241 295.536 117.694 295.496 118.027 295.501C118.799 295.536 119.53 295.919 120.205 296.649C120.705 297.153 120.932 297.853 120.891 298.749C120.831 299.982 119.974 300.592 118.32 300.561C117.669 300.551 116.983 300.471 116.257 300.325C115.677 300.204 115.072 300.113 114.447 300.058C113.413 300.219 112.38 300.375 111.346 300.516C111.371 301.302 111.371 301.946 111.346 302.44C111.265 304.146 111.074 305.536 110.771 306.614C110.62 307.621 110.151 308.371 109.375 308.849C109.158 308.96 108.901 309.101 108.598 309.277C108.316 309.474 107.978 309.715 107.59 310.002C107.257 310.4 106.929 310.687 106.606 310.863C106.284 311.06 105.986 311.155 105.714 311.15C105.068 311.004 104.751 310.435 104.756 309.448C104.715 308.995 104.579 308.593 104.342 308.23C104.11 307.867 103.964 307.55 103.919 307.278C103.974 307.006 104.065 306.865 104.191 306.845C104.675 306.805 105.063 306.79 105.356 306.795C106.299 306.81 106.833 306.145 106.959 304.796C107.121 304.036 107.262 302.812 107.388 301.125C106.394 301.292 105.411 301.478 104.438 301.684C102.003 302.228 100.288 302.752 99.2999 303.255C98.357 303.24 97.7317 302.958 97.4191 302.414C97.0107 301.735 96.819 301.181 96.8392 300.753C96.9501 299.721 97.9737 298.95 99.905 298.442C100.838 298.21 103.354 297.712 107.458 296.941C107.458 296.876 107.453 296.805 107.438 296.74C107.332 296.332 107.262 296.02 107.232 295.793C106.954 295.859 106.702 295.919 106.47 295.984C105.749 296.176 105.22 296.266 104.887 296.261C104.635 296.261 104.408 296.211 104.201 296.115C104.07 296.674 103.762 296.951 103.278 296.941C102.315 296.926 101.362 295.99 100.424 294.132C99.8344 292.883 99.5621 291.79 99.6075 290.849C99.673 289.927 99.8697 289.101 100.197 288.361C100.792 287.697 101.292 287.369 101.69 287.374L101.685 287.384ZM100.687 302.983C101.211 303.014 101.629 303.245 101.942 303.678C102.633 303.688 103.268 303.361 103.843 302.696C104.03 302.722 104.12 302.792 104.115 302.903C103.107 303.875 102.461 304.821 102.189 305.738L102.088 307.827C102.038 308.457 101.448 308.759 100.313 308.744C99.3705 308.708 98.9419 307.857 99.0226 306.196C99.073 305.592 99.2192 304.917 99.4663 304.182C99.9856 303.381 100.394 302.983 100.687 302.988V302.983ZM103.772 293.049C103.944 292.984 104.125 292.918 104.317 292.858C105.033 292.777 105.668 292.686 106.218 292.586C105.714 292.193 105.462 291.327 105.462 289.978C105.184 290.108 104.927 290.214 104.69 290.3C104.241 290.496 103.853 290.723 103.525 290.99C103.596 291.69 103.682 292.374 103.772 293.049V293.049ZM107.887 289.167C107.902 289.258 107.907 289.348 107.907 289.439C107.978 290.179 108.003 290.688 107.993 290.959C107.963 291.609 107.847 292.082 107.645 292.369C108.003 292.284 108.356 292.203 108.694 292.118C108.764 291.559 108.991 290.909 109.385 290.174C109.642 289.57 109.823 289.066 109.929 288.663C109.248 288.835 108.593 288.991 107.958 289.137C107.937 289.137 107.917 289.147 107.892 289.167H107.887ZM110.559 284.555C109.692 284.741 108.855 284.932 108.048 285.124C108.104 285.305 108.124 285.486 108.119 285.662L108.104 285.929C109.016 285.718 109.808 285.597 110.479 285.562L110.509 284.887C110.514 284.751 110.529 284.64 110.554 284.55L110.559 284.555ZM112.586 288.16C112.491 288.361 112.41 288.573 112.334 288.794C112.012 289.847 111.644 290.718 111.235 291.408C112.128 291.151 112.692 290.99 112.924 290.929C113.111 290.954 113.257 290.99 113.358 291.04C113.514 290.818 113.666 290.506 113.812 290.103C114.2 289.388 114.422 288.482 114.477 287.384C113.766 287.732 113.136 287.994 112.586 288.165V288.16ZM114.629 301.412C115.425 301.428 116.252 301.901 117.109 302.832C117.911 303.99 118.284 305.189 118.229 306.427C118.204 306.986 118.012 307.455 117.659 307.832C117.195 308.341 116.731 308.593 116.272 308.587C116.02 308.587 115.693 308.457 115.284 308.2C114.921 307.923 114.664 307.55 114.523 307.077C114.457 306.221 114.316 305.491 114.094 304.877C113.666 303.789 113.459 303.044 113.479 302.641C113.519 302.258 113.635 301.956 113.837 301.735C113.993 301.513 114.261 301.402 114.639 301.412H114.629Z" stroke="#B04B19"/>
<path d="M136.069 295.667C136.523 295.667 136.981 295.813 137.445 296.095C137.597 295.526 137.823 294.831 138.131 294.016C138.62 292.873 138.867 292.193 138.872 291.966C138.887 291.538 138.787 291.322 138.58 291.322C138.313 291.342 137.622 291.8 136.497 292.696C135.968 293.351 135.509 293.9 135.116 294.348C134.748 294.715 134.45 294.897 134.223 294.897C132.655 294.897 131.662 294.036 131.243 292.324C131.289 291.488 131.924 290.702 133.154 289.967C134.243 289.499 136.26 289.267 139.21 289.267C140.072 288.94 140.642 288.779 140.925 288.779C141.62 288.779 142.493 289.333 143.536 290.436C144.162 291.07 144.459 291.805 144.434 292.641C144.409 293.437 143.93 293.965 142.997 294.232C142.256 294.434 141.484 294.937 140.688 295.728C140.007 296.382 139.306 296.83 138.58 297.072C138.56 297.092 138.55 297.092 138.55 297.072C138.822 297.419 139.049 297.757 139.225 298.084C139.311 298.311 139.392 298.532 139.457 298.759C139.891 298.718 140.309 298.668 140.708 298.608C141.787 298.547 142.755 298.436 143.607 298.275C144.273 298.175 144.782 298.124 145.14 298.124C145.987 298.144 146.799 298.542 147.57 299.318C148.1 299.892 148.352 300.667 148.322 301.644C148.281 303.008 147.364 303.693 145.569 303.693C144.853 303.693 144.091 303.598 143.284 303.416C142.644 303.316 141.978 303.24 141.278 303.2C140.935 303.24 140.597 303.29 140.254 303.351C140.284 304.207 140.284 305.229 140.249 306.412C140.178 308.678 139.861 310.566 139.286 312.072C138.585 314.01 137.793 314.977 136.906 314.977C136.518 315.264 136.165 315.496 135.837 315.682C135.524 315.989 135.171 316.19 134.773 316.291C134.41 316.472 134.057 316.578 133.714 316.598C132.827 316.598 132.292 316.12 132.116 315.158C132.116 314.65 131.894 314.146 131.455 313.658C130.754 313.149 130.406 312.802 130.411 312.615C130.436 312.474 130.467 312.349 130.507 312.248C131.279 312.268 132.065 312.278 132.857 312.278C135.065 312.278 136.245 309.781 136.397 304.781L136.422 303.925C135.247 304.106 134.077 304.312 132.917 304.534C130.865 305.002 129.423 305.42 128.601 305.788C127.542 305.788 126.806 305.491 126.392 304.897C125.944 304.101 125.727 303.457 125.742 302.968C125.833 301.765 126.998 300.858 129.221 300.249C130.038 300.068 132.252 299.7 135.852 299.151V299.121C135.665 298.487 135.444 297.958 135.191 297.53C134.995 297.243 134.899 296.946 134.909 296.644C135.005 295.989 135.393 295.667 136.069 295.667V295.667Z" stroke="#B04B19"/>
<path d="M77.9707 263.16L109.813 268.991" stroke="#B04B19"/>
<path d="M81.6415 267.747L85.867 267.49" stroke="#B04B19"/>
<path d="M84.9191 265.723L84.5258 268.679L83.5677 269.006" stroke="#B04B19"/>
<path d="M82.7761 266.075C82.7761 266.075 82.1054 269.721 82.7357 270.441L84.2585 270.642" stroke="#B04B19"/>
<path d="M89.7295 266.957L88.6504 269.741L87.7731 272.007C87.7731 272.007 89.2404 268.588 90.0573 270.053C90.0573 270.053 89.4068 272.173 90.0573 272.007C90.7077 271.841 91.7717 271.03 91.7717 271.03" stroke="#B04B19"/>
<path d="M95.3568 270.965L96.9451 270.114C96.9451 270.114 94.429 274.217 97.6107 273.618C97.6107 273.618 100.006 272.495 99.0931 270.27C99.0276 270.104 98.9419 269.937 98.836 269.761L100.323 271.378" stroke="#B04B19"/>
<path d="M104.065 269.49L102.245 274.479C102.245 274.479 103.672 271.252 104.463 272.43V274.479C104.463 274.479 104.831 275.788 106.309 273.779" stroke="#B04B19"/>
<path d="M72.7771 247.541C72.7771 247.541 72.4544 244.842 72.7771 244.842C73.0998 244.842 74.2595 246.066 74.2595 246.066C74.2595 246.066 76.7051 246.579 76.7051 247.546C76.7051 247.546 76.7706 249.152 75.0966 249.923C75.0966 249.923 74.0528 251.403 74.673 252.299C74.673 252.299 76.6345 253.457 75.9286 254.616C75.9286 254.616 74.557 254.681 73.9268 254.293C73.2965 253.906 74.2595 255.708 74.2595 255.708C74.2595 255.708 75.5353 255.451 74.673 258.342C74.673 258.342 76.5689 259.046 75.9286 259.56C75.2882 260.074 68.597 264.575 65.3749 256.604C65.3749 256.604 64.9261 251.71 64.0891 253.065C64.0891 253.065 63.1865 254.419 63.6403 255.32C63.6403 255.32 59.8939 252.108 62.1831 248.12C62.1831 248.12 64.9917 244.394 67.6289 249.983C67.6289 249.983 67.4372 256.796 68.723 257.762C68.723 257.762 68.2642 251.72 69.071 250.305C69.8777 248.891 72.7771 247.541 72.7771 247.541V247.541Z" stroke="#B04B19"/>
<path d="M128.001 259.177C126.554 257.979 124.189 256.962 122.48 260.909C122.48 260.909 122.132 265.28 120.846 266.327C120.846 266.327 121.305 259.756 120.498 258.216C119.691 256.675 116.792 255.21 116.792 255.21C116.792 255.21 117.115 252.274 116.792 252.274C116.469 252.274 115.309 253.603 115.309 253.603C115.309 253.603 112.864 253.306 112.864 254.354C112.864 254.354 112.813 256.217 114.482 257.053C114.482 257.053 115.708 258.578 115.093 259.56C115.093 259.56 112.889 260.033 113.595 261.287C113.595 261.287 115.234 262.485 115.864 262.068C116.494 261.65 115.38 263.633 115.38 263.633C115.38 263.633 114.039 263.81 114.901 266.957C114.901 266.957 113.343 267.183 113.983 267.742C114.624 268.301 123.322 275.285 126.544 266.619C126.544 266.619 126.564 264.933 126.871 263.779C127.048 263.12 127.981 263.1 128.162 263.754C128.47 264.852 128.742 266.554 127.729 267.208C127.729 267.208 131.142 267.244 129.499 261.499C129.241 260.597 128.732 259.772 128.011 259.177H128.001Z" stroke="#B04B19"/>
</g>
</svg>
