<svg id="_層_2" xmlns="http://www.w3.org/2000/svg" viewBox="0 0 507.06 750.64"><defs><style>.cls-1{stroke-miterlimit:10;}.cls-1,.cls-2{fill:none;stroke:#000;}</style></defs><polygon class="cls-1" points="44.77 85.4 368.43 50.55 460.2 104.88 454.98 224.43 365.44 204.39 44.77 212.94 44.77 85.4"></polygon><polygon class="cls-1" points="50.55 91.91 363.83 57.45 356.94 197.62 50.55 203.74 50.55 91.91"></polygon><polygon class="cls-1" points="374.55 63.57 453.45 108 448.85 216.77 367.66 196.85 374.55 63.57"></polygon><polyline class="cls-1" points="50.55 212.78 50.55 441.19 58.21 441.19 62.81 212.78"></polyline><polyline class="cls-1" points="353.84 204.7 343.91 487.91 348.88 490.98 360.77 204.51 365.44 204.39 354.78 488.33"></polyline><line class="cls-1" x1="440.88" y1="221.9" x2="433.74" y2="452.84"></line><polyline class="cls-1" points="69.73 212.27 186.89 231.32 186.89 209.15"></polyline><polyline class="cls-1" points="116.44 211.03 181.53 221.9 181.53 209.29"></polyline><polyline class="cls-1" points="348.88 490.98 439.1 450.43 453.45 224.08"></polyline><polyline class="cls-1" points="348.88 496.34 445.79 450.38 445.79 467.23 354.68 505.53 343.91 703.66 431.49 625.02 438.47 470.98"></polyline><polyline class="cls-1" points="442.23 468.73 435.06 631.15 348.88 710.81 348.88 733.79 340.09 739.91 331.66 733.79 331.66 710.55 45.96 624.77 41.36 438.38 50.55 438.38"></polyline><line class="cls-1" x1="445.79" y1="450.38" x2="439.1" y2="450.43"></line><line class="cls-1" x1="58.27" y1="438.38" x2="67.61" y2="438.38"></line><line class="cls-1" x1="67.61" y1="441.19" x2="58.21" y2="441.19"></line><polyline class="cls-1" points="50.55 441.19 47.83 441.67 228.67 469.92 343.91 487.91"></polyline><line class="cls-1" x1="41.59" y1="447.58" x2="348.88" y2="496.34"></line><polyline class="cls-1" points="53.11 458.04 341.87 506.55 335.74 703.66 51.06 619.66 53.11 458.04"></polyline><polyline class="cls-1" points="58.71 628.59 58.71 654.3 68.77 659.06 68.77 631.61"></polyline><polyline class="cls-1" points="68.77 659.06 73.87 655.32 73.87 633.15"></polyline><polyline class="cls-1" points="431.18 634.74 431.18 657.36 425.53 664.85 425.53 640.94"></polyline><polyline class="cls-1" points="417.4 647.47 417.4 662.13 425.53 664.85"></polyline><path class="cls-1" d="M72.67,419.91l-9.88,.97c-1.5,.32-2.12,1.42-.31,2.47,.01,0,.8,.37,.82,.37,13.42,2.42,82.35,14.61,92.72,11.84l23.99-6.5"></path><path class="cls-1" d="M72.67,421.68s.73,.32,.75,.32c12.25,2.1,75.14,12.68,84.6,10.28l23.52-6.7"></path><line class="cls-1" x1="66.13" y1="424.24" x2="67.61" y2="444.76"></line><line class="cls-1" x1="154.56" y1="435.82" x2="154.56" y2="458.04"></line><path class="cls-1" d="M189.7,396.26l-6.13,17.36s1.02,1.79,2.68,1.28l21.83-14.81s2.04-2.55,1.53-3.32-19.91-.51-19.91-.51Z"></path><polyline class="cls-1" points="163.92 459.8 171.57 441.19 174.64 441.19 186.26 414.89"></polyline><path class="cls-1" d="M180.89,462.45s-3.19-17.18-6.25-21.26"></path><path class="cls-1" d="M252.77,400.6l17.87,2.04s-2.3,14.35-5.36,21.6h-2.3l-10.21-22.11s-.51,1.53,0-1.53Z"></path><path class="cls-1" d="M247.91,471.96l6.64-19.74s1.28-1.84-3.32,.97-19.4,12.77-19.4,12.77c0,0-1.73,0-3.16,3.96"></path><line class="cls-1" x1="206.03" y1="401.48" x2="253.78" y2="404.31"></line><line class="cls-1" x1="262.98" y1="424.24" x2="252.54" y2="452.22"></line><line class="cls-1" x1="198.13" y1="406.84" x2="256.5" y2="410.21"></line><line class="cls-1" x1="260.37" y1="419.14" x2="248.16" y2="453.97"></line><line class="cls-1" x1="192.43" y1="410.7" x2="177.03" y2="446.6"></line><line class="cls-1" x1="179.99" y1="458.04" x2="233.58" y2="464.78"></line><path class="cls-1" d="M270.64,402.64l22.21,1.67s1.53,3.46,0,4.21-22.21,15.71-22.21,15.71h-5.36"></path><path class="cls-1" d="M254.72,453.97s3.3-2.54,5.65,0c0,0,7.66,17.19,7.72,19.65l.05,2.46"></path><path class="cls-1" d="M318.75,483.98s21.59-14.76,25.17-19.2"></path><path class="cls-1" d="M346.24,421.68l-5.89-11.47s-.06-.88,5.89,0"></path><polyline class="cls-1" points="357.66 411.62 364.34 411.62 356.82 434.03"></polyline><line class="cls-1" x1="292.85" y1="408.52" x2="340.34" y2="411.62"></line><line class="cls-1" x1="267.06" y1="424.24" x2="256.5" y2="452.84"></line><line class="cls-1" x1="283.65" y1="414.89" x2="345.33" y2="419.91"></line><line class="cls-1" x1="267.06" y1="470.07" x2="325.22" y2="479.47"></line><line class="cls-1" x1="277.72" y1="419.14" x2="263.6" y2="461.41"></line><line class="cls-1" x1="270.64" y1="424.24" x2="260.37" y2="453.97"></line><polyline class="cls-1" points="411.32 462.45 412.34 413.44 364.34 436.55 363.16 484.56"></polyline><line class="cls-1" x1="362.04" y1="428.39" x2="408.45" y2="408.33"></line><polyline class="cls-1" points="252.77 400.6 263.6 386.55 302.55 389.62 292.85 404.31"></polyline><path class="cls-1" d="M272.17,386.55s.75-8.17,11.48-7.91c0,0,11.16-1.13,11.42,10.39"></path><polyline class="cls-1" points="347.03 398.87 341.87 406.84 297.45 404.31 306.38 390.89 347.03 392.94"></polyline><path class="cls-1" d="M316.6,390.89s.26-8.68,9.96-8.43c0,0,11.71-1.57,12.49,10.07"></path><path class="cls-1" d="M306.38,390.89s-1.19-13.51,20.17-15.32c0,0,16.13-.77,19.68,9.96"></path><path class="cls-1" d="M356.74,435.98h1.73c1.75-.62,6.97-20.23,6.97-20.23l-1.1-4.13,25.53,1.82,6.13-14.57-37.76-2.65s4.83-9.55,15.09-9.55c0,0,10.42,.8,13.13,11.53"></path><line class="cls-1" x1="389.87" y1="413.44" x2="389.87" y2="415.75"></line><line class="cls-1" x1="341.87" y1="406.84" x2="341.87" y2="409.81"></line><line class="cls-1" x1="297.45" y1="404.31" x2="297.45" y2="408.33"></line><path class="cls-1" d="M358.65,385.29s3.4-5.12,16.42-4.36c0,0,20.17,1.65,20.94,17.93l6.96,11.84"></path><path class="cls-1" d="M399.25,404.39h13.09s3.57,.32,3.57,4.13l-1.25,52.89"></path><line class="cls-1" x1="401.56" y1="408.33" x2="407.58" y2="408.57"></line><line class="cls-1" x1="359.7" y1="434.03" x2="358.65" y2="486.59"></line><polyline class="cls-1" points="257.76 394.12 254.26 395.43 237.7 401.48 236.17 402.9"></polyline><line class="cls-1" x1="241.69" y1="403.6" x2="254.72" y2="398.07"></line><path class="cls-1" d="M228.67,372.37l4.18-54.75c9.41,8.2,19.61-1.16,17.24-1-.19,.01,.35-.05,.33,.13l-3.46,52.7-18.3,2.92-47.13-5.48v-52.09l8.17-11.49,51.99,1.02"></path><polyline class="cls-1" points="181.53 314.81 232.85 317.62 241.69 304.34 250.47 316.09"></polyline><path class="cls-1" d="M201.19,303.32s1.76-11.74,14.79-10.98c0,0,13.01-1.28,13.92,10.98"></path><path class="cls-1" d="M189.7,303.32s0-16.09,24.26-19.4c0,0,26.36,0,27.73,20.43"></path><path class="cls-1" d="M181.53,366.89l-3.77,2.3,49.55,4.6,30.45-3.45,1.78-1.67c1.15-1.08,1.56-2.73,1.04-4.22h0c-.13-.37-.47-.62-.86-.62h-12.38"></path><line class="cls-1" x1="247.28" y1="366.13" x2="261.04" y2="366.13"></line><polyline class="cls-1" points="177.76 369.19 177.76 373.79 225.7 378.61 257.76 373.79 259.54 368.67"></polyline><path class="cls-1" d="M177.43,376.6s-3.76,7.3-4.96,12.99c-.08,.37-2.93,7.11,6.5,8.48l9.8,.8"></path><path class="cls-1" d="M207.33,400.6l12.5,.88,4.34-20.62,33.59-5.3,5.84,10.99s4.16-15.06,20.03-14.55c0,0,18.16,0,18.93,17.62v7.03"></path><line class="cls-1" x1="178.98" y1="373.79" x2="178.98" y2="376.56"></line><line class="cls-1" x1="256.5" y1="373.98" x2="256.5" y2="375.76"></line><line class="cls-1" x1="227.31" y1="373.79" x2="225.7" y2="378.61"></line><line class="cls-1" x1="224.51" y1="402.58" x2="241.01" y2="400.27"></line><path class="cls-1" d="M209.16,398.51l7.85,.7,4-16.26-42.03-3.78s-4.6,10.92-4.34,13.36h0c.26,1.71,1.65,3.02,3.36,3.18l11.49,1.15"></path><path class="cls-1" d="M130.97,430.72v-20.9s4.86-1.08,13.37,0l10.22-.48-1.37,14.77-1.8,8.49"></path><path class="cls-1" d="M107.73,427.51l-1.01-18.99s8.1-1.42,11.71-.44c.93,.25,1.88,.4,2.84,.35,3.03-.16,8.97-.5,10.21-.69v1.6"></path><path class="cls-1" d="M86,424.1l-1.1-18.5s11.11-2.96,15.19-.92c0,0,4.46,1.7,6.89,.74,.31-.12,.64,.09,.64,.42v2.54"></path><path class="cls-1" d="M73.41,422l-2.77-18.04s7.15-2.43,9.7-1.07c0,0,4.61,.73,7.23,.12,.65-.15,1.28,.31,1.28,.98v.72"></path><path class="cls-1" d="M90.72,403.96v-3.26c0-.76,.69-1.35,1.44-1.21,2.06,.37,5.96,.96,9.28,.77,0,0,6.98,.95,10.04,0"></path><path class="cls-1" d="M111.49,407.74v-6.12c0-1.55,1.26-2.81,2.81-2.81,3.29-.01,8.68,.19,11.83,1.47,0,0,4.49,1.92,7.51,1.43,.51-.08,.95,.36,.9,.87l-.58,6.76"></path><path class="cls-1" d="M154.56,410.84l9.36-1.51s2.55,.83,5.1,.68,5.19-1.47,5.61,.19c.68,2.7-3.34,19.12-3.86,18.45"></path><path class="cls-1" d="M134.54,403.96s8.95,.35,17.8-1.07l5.92,.7"></path><path class="cls-1" d="M157.79,410.21l.71-9.81c.03-.46,.49-.76,.92-.6,2.05,.73,7.37,2.51,11.14,2.85,4.77,.43,9.52-1.07,13.02,0s2.68,2.96,2.68,2.96"></path><line class="cls-1" x1="186.89" y1="231.32" x2="186.34" y2="308.05"></line><polyline class="cls-1" points="178.98 230.03 177.03 376.56 224.17 380.86 224.51 378.71"></polyline><line class="cls-1" x1="176.29" y1="397.43" x2="176.29" y2="402.48"></line><line class="cls-1" x1="179.99" y1="398.07" x2="179.99" y2="401.72"></line><path class="cls-1" d="M140.43,99.4s-1.87-1.87-2.38-1.36-1.02,3.74-1.02,3.74c0,0,1.02,4.6,0,5.28s-3.06,2.55-4.6,4.26-2.89,3.91-3.4,5.96-.91,6.64-.71,10.21,1.05,6.64,1.05,6.64c0,0-2.89,.17-3.06-1.87,0,0-1.53-2.04-1.36-8s1.02-12.09-5.28-14.3c0,0-11.4-1.36-10.55,11.4,0,0-1.36,7.23,5.96,9.23,0,0-1-7.87,1.37-5.83,.51,.44,.92,.91,1.26,1.37,.95,1.31,1.41,2.93,1.4,4.55,0,1.35,.06,3.93,.96,5.88,.38,.82,1.07,1.45,1.89,1.84,3.15,1.53,12.2,4.5,21.03-2.45,.62-.49,1.12-1.12,1.42-1.85l.28-.67-1.09-.34c-.83-.26-1.23-1.17-.88-1.97,.93-2.11,1.96-5.9-1.77-7.22l-.34-4.67h4.09s1.36-.44,0-2.82l-2.55-1.19s.17-4.6,.51-5.62,4.26-1.19,5.11-3.23,3.4-6.13-7.32-6.98Z"></path><path class="cls-1" d="M247.67,89.46s2.06-2.02,2.67-1.53,1.39,3.73,1.39,3.73c0,0-.92,4.72,.3,5.35s3.68,2.39,5.54,4.02,2.5,3.57,3.2,5.6,1.43,6.67,1.39,10.31-2.12,6.26-2.12,6.26c0,0,6.09-4.44,4.72-10.34-1.45-6.3-2.07-14.9,6.4-17.16,0,0,13.9-2.88,12.49,13.71,0,0-.97,7.16-7.53,9.76,0,0,1.91-6.69-.26-6.56-1.4,.08-2.13,1.44-2.81,2.43-.98,1.42-.87,4.36-.77,6,.09,1.37-1.1,3.2-2.04,5.23-.39,.85-3.3,2.87-4.21,3.32-3.55,1.75-12.09,5.9-22.67-.58-.74-.45-1.35-1.06-1.74-1.78l-.36-.66,1.24-.42c.94-.31,1.35-1.27,.91-2.05-1.19-2.08-2.6-5.86,1.64-7.44l.13-4.75-4.71,.26s-1.6-.36-.16-2.86l2.88-1.37s2.95-6.96,2.5-7.98-4.98-.94-6.07-2.95-4.27-5.99,8.05-7.54Z"></path><g><path class="cls-2" d="M160.08,96.02c1.02-.1,2.12,.58,3.3,2.04,.99,1.13,1.51,2.53,1.54,4.19,.02,.8-.08,1.72-.29,2.75,1.25-.12,2.62,.52,4.12,1.91,.99,.95,1.5,2.1,1.53,3.46,.04,1.97,.04,4.31,0,7.02-.03,3.42-.02,6.21,.03,8.36,.04,1.94,.47,2.87,1.28,2.79,.37-.04,.99-.23,1.87-.6l-.57-25.91c-.03-1.2-.25-2.33-.66-3.4-.44-.85-.66-1.54-.67-2.06-.03-1.23,.64-1.91,1.99-2.04,1.56-.15,2.87,.18,3.9,1.01,1.06,.88,1.61,2.11,1.65,3.68l.56,25.73c1.03-.53,2.13-1.12,3.29-1.75,.23-.12,.44-.23,.62-.34l-.32-14.43c-.05-2.4-.47-4.3-1.26-5.7-.41-.82-.62-1.51-.63-2.06-.02-.98,.7-1.55,2.16-1.69,1.23-.12,2.41,.32,3.56,1.32,1.12,.97,1.7,2.33,1.74,4.08l.63,28.77c.04,1.6-.85,2.48-2.65,2.66-2.01,.19-5.12-.51-9.34-2.1-.55-.19-1.04-.38-1.46-.55-2.84,1.39-4.79,2.13-5.83,2.23-1.77,.17-3.05-.23-3.83-1.2-.84-1.18-1.28-3.08-1.34-5.69l-.35-16.05c-.03-1.29-.27-2.67-.72-4.14l-.04-.13c-.54,1.69-1.23,3.57-2.07,5.65,.17,.45,.31,.89,.42,1.34,.65,2.28,1.07,7.61,1.25,16.01,.06,2.58-.15,4.43-.62,5.56-.48,.97-1.04,1.49-1.69,1.55-.97,.09-1.79-.4-2.46-1.47-.92-1.36-1.4-2.91-1.43-4.67-.02-.89,.13-2.29,.46-4.2,.36-2.68,.52-5.56,.48-8.64-.26,.15-.5,.23-.74,.26-2.01,.19-3.04-1.06-3.1-3.77-.02-1.14,.18-2.13,.6-2.97,1.29-2.13,2.41-4.47,3.37-7.03,.42-1.12,.62-2.25,.59-3.38-.01-.68-.13-1.33-.36-1.95-.19-.5-.3-1.05-.31-1.63-.04-1.75,.57-2.69,1.82-2.81Zm19.01,35.54c1.99,.3,3.28,.42,3.85,.37,.55-.05,.82-.28,.81-.68l-.05-2.17c-1.7,.96-3.24,1.79-4.61,2.48Z"></path><path class="cls-2" d="M195.76,114.01c.81-.08,1.52,.04,2.12,.35h.04l.83,.15c.26-.03,.9-.27,1.9-.74,2.38-1.09,4.08-1.69,5.1-1.79,1.56-.15,2.9,.43,4,1.74,1.02,1.16,1.55,2.91,1.6,5.25l.15,6.69c.02,.74-.02,1.37-.11,1.91,.45,.48,.69,1.06,.7,1.73,.03,1.6-.64,2.57-2.01,2.92-3.66,1-6.47,1.6-8.43,1.79-1.67,.16-3.13-.47-4.39-1.89-1.08-1.34-1.64-3.11-1.68-5.29l.19-5.75c-.02-1.07-.34-2.31-.94-3.7-.41-.64-.61-1.1-.62-1.37-.03-1.23,.49-1.9,1.56-2Zm2.87-19.5c.89-.09,1.62,.04,2.2,.39h.12l.67,.11c.5-.05,1.51-.33,3.04-.85,5.78-2.07,9.91-3.22,12.39-3.46,2.97-.29,5.29,.07,6.96,1.08,1.43,1.06,2.17,2.38,2.2,3.94,.04,1.63-.35,3.62-1.16,5.98,.56,.59,.85,1.34,.87,2.23,.03,1.23-.73,1.98-2.26,2.25-6.38,.93-11.88,2.12-16.5,3.59-1.19,.39-2.16,.62-2.89,.7-2.03,.2-3.63-.42-4.78-1.85-1.15-1.37-1.76-3.31-1.81-5.83-.06-2.67-.29-4.35-.7-5.02-.32-.4-.49-.74-.49-1.02-.03-1.35,.69-2.1,2.15-2.24Zm7.03,32.68c0-.77,.04-1.65,.1-2.64,.04-1.67,.04-3.53,0-5.59-.02-.98-.36-1.44-1.01-1.38-.31,.03-1.61,.63-3.88,1.81l-.43,6.97c.03,1.35,.5,1.98,1.41,1.9,.86-.08,1.96-.38,3.31-.87,.21-.08,.38-.15,.51-.19Zm12.28-26.33c.12-.56,.3-1.2,.55-1.9,.36-1.39,.54-2.3,.53-2.73-.01-.58-.44-.84-1.27-.75-1.51,.15-3.58,.67-6.2,1.57-3.71,1.28-6.46,2.15-8.25,2.6,.09,.61,.16,1.26,.2,1.97,.04,1.88,.69,2.75,1.94,2.63,.57-.06,1.68-.36,3.31-.92,3.89-1.3,6.96-2.12,9.2-2.46Zm-3.9,9.9c.81-.08,1.54,.07,2.2,.43,.05-.03,.09-.06,.12-.06l.83,.1c.29-.03,.93-.31,1.94-.83,2.51-1.17,4.29-1.8,5.33-1.9,1.59-.15,2.95,.42,4.08,1.73,.99,1.17,1.51,2.93,1.57,5.3l.16,7.52c.02,.89-.04,1.65-.19,2.28,.4,.45,.61,.97,.62,1.56,.04,1.63-.64,2.63-2.01,3.01-3.74,.95-6.61,1.52-8.59,1.71-1.67,.16-3.13-.45-4.39-1.84-1.08-1.35-1.64-3.12-1.69-5.34l.02-6.29c-.02-1.14-.37-2.44-1.03-3.92-.43-.67-.65-1.15-.66-1.46-.03-1.23,.53-1.9,1.68-2.01Zm10.34,14.06c0-.92,.03-2.01,.09-3.24,.04-1.82,.03-3.85-.02-6.1-.02-.95-.33-1.4-.93-1.34-.34,.03-1.7,.66-4.08,1.87,0,.06,0,.11,0,.14l-.26,7.79c.03,1.35,.57,1.98,1.61,1.88,.78-.08,1.82-.35,3.12-.81,.18-.08,.34-.14,.47-.18Z"></path></g><g><path class="cls-2" d="M165.72,490.45c.74,.1,1.4,.76,2,1.99,.51,.97,.65,2.04,.4,3.22-.12,.57-.34,1.2-.66,1.9,.9,.12,1.77,.8,2.59,2.03,.54,.84,.71,1.73,.51,2.7-.29,1.4-.68,3.05-1.16,4.96-.59,2.42-1.04,4.39-1.36,5.92-.29,1.38-.14,2.1,.44,2.18,.26,.04,.74,0,1.42-.11l3.88-18.41c.18-.85,.21-1.69,.09-2.51-.17-.67-.21-1.2-.13-1.57,.18-.87,.77-1.25,1.75-1.11,1.13,.15,2,.6,2.59,1.36,.61,.8,.79,1.75,.56,2.87l-3.85,18.28c.82-.2,1.69-.43,2.62-.69,.18-.04,.35-.09,.49-.14l2.16-10.25c.36-1.7,.37-3.12,.05-4.24-.15-.65-.19-1.17-.11-1.56,.15-.7,.75-.98,1.8-.84,.89,.12,1.65,.63,2.3,1.52,.63,.87,.81,1.93,.55,3.17l-4.31,20.44c-.24,1.14-1.01,1.62-2.31,1.44-1.45-.2-3.54-1.2-6.25-3.03-.36-.23-.67-.44-.94-.63-2.24,.51-3.74,.71-4.49,.61-1.28-.17-2.12-.67-2.51-1.48-.39-.97-.4-2.39,0-4.25l2.4-11.4c.19-.92,.25-1.93,.18-3.04v-.1c-.67,1.1-1.47,2.32-2.41,3.65,.04,.34,.07,.68,.08,1.02,.08,1.72-.5,5.56-1.76,11.52-.39,1.83-.84,3.11-1.36,3.83-.5,.61-.98,.88-1.45,.82-.7-.09-1.2-.58-1.5-1.45-.42-1.11-.51-2.29-.24-3.54,.13-.63,.47-1.6,1.02-2.89,.7-1.84,1.29-3.85,1.76-6.03-.21,.06-.39,.08-.56,.06-1.45-.19-1.97-1.25-1.57-3.17,.17-.81,.47-1.47,.92-2,1.26-1.29,2.44-2.76,3.55-4.41,.48-.72,.81-1.49,.98-2.29,.1-.48,.12-.96,.07-1.44-.05-.39-.04-.79,.05-1.21,.26-1.24,.85-1.81,1.75-1.69Zm7.56,28.26c1.36,.54,2.25,.84,2.66,.9,.4,.05,.62-.06,.68-.35l.33-1.54c-1.36,.4-2.59,.73-3.67,.99Z"></path><path class="cls-2" d="M187.97,509.06c.58,.08,1.07,.28,1.44,.6h.03l.56,.25c.19,.03,.68-.04,1.47-.21,1.86-.38,3.16-.52,3.9-.42,1.13,.15,1.98,.78,2.54,1.89,.53,.99,.62,2.32,.27,3.98l-1,4.75c-.11,.52-.24,.97-.4,1.33,.24,.41,.31,.86,.21,1.34-.24,1.13-.87,1.71-1.91,1.73-2.75,.1-4.84,.06-6.25-.13-1.21-.16-2.14-.85-2.79-2.06-.54-1.13-.64-2.47-.32-4.02l1.08-4.03c.16-.76,.14-1.69-.06-2.77-.18-.52-.25-.88-.21-1.07,.18-.87,.66-1.26,1.44-1.15Zm4.82,10.95c.13-.54,.3-1.16,.51-1.85,.3-1.17,.61-2.49,.92-3.95,.15-.7-.01-1.08-.49-1.14-.23-.03-1.24,.18-3.04,.64l-1.46,4.86c-.2,.96,.03,1.49,.69,1.57,.62,.08,1.45,.06,2.49-.07,.16-.02,.29-.04,.39-.05Zm.43-24.26c.64,.09,1.14,.3,1.49,.64h.08l.45,.21c.36,.05,1.12,.02,2.29-.1,4.43-.51,7.54-.64,9.33-.4,2.15,.29,3.73,.92,4.74,1.91,.84,.99,1.14,2.04,.91,3.15-.24,1.16-.85,2.5-1.81,4.04,.3,.51,.38,1.08,.25,1.72-.18,.87-.84,1.28-1.97,1.22-4.67-.4-8.75-.46-12.26-.19-.91,.08-1.63,.09-2.15,.02-1.47-.2-2.5-.89-3.08-2.1-.59-1.16-.7-2.63-.32-4.42,.4-1.9,.51-3.12,.34-3.66-.16-.34-.22-.6-.18-.8,.2-.96,.83-1.37,1.89-1.23Zm12.6,7.68c.18-.38,.41-.8,.7-1.25,.49-.92,.76-1.54,.83-1.84,.09-.41-.17-.66-.77-.74-1.09-.15-2.64-.12-4.64,.09-2.83,.29-4.92,.45-6.26,.47-.03,.44-.1,.92-.18,1.42-.28,1.33,.03,2.06,.94,2.18,.41,.05,1.25,.02,2.49-.11,2.96-.28,5.27-.35,6.91-.22Zm-4.39,6.35c.58,.08,1.08,.3,1.49,.67,.04-.02,.07-.02,.09-.02l.57,.21c.21,.03,.71-.06,1.51-.27,1.97-.41,3.33-.56,4.08-.46,1.15,.15,2.01,.79,2.59,1.9,.51,.99,.59,2.32,.23,4.01l-1.12,5.34c-.13,.63-.3,1.16-.51,1.58,.21,.39,.27,.79,.18,1.2-.24,1.16-.88,1.76-1.92,1.8-2.8,.05-4.92-.02-6.35-.21-1.21-.16-2.14-.84-2.8-2.02-.54-1.13-.64-2.48-.31-4.05l1.05-4.44c.17-.81,.14-1.79-.08-2.94-.2-.54-.27-.92-.22-1.14,.18-.87,.69-1.25,1.52-1.14Zm4.99,11.65c.16-.65,.36-1.41,.6-2.28,.33-1.28,.66-2.72,1-4.31,.14-.68,0-1.04-.44-1.1-.25-.03-1.31,.18-3.19,.65,0,.04-.02,.08-.02,.1l-1.47,5.46c-.2,.96,.07,1.49,.83,1.59,.56,.08,1.34,.06,2.34-.06,.14-.03,.26-.04,.36-.05Z"></path></g><line class="cls-2" x1="151.15" y1="140.17" x2="233.87" y2="135.83"></line><line class="cls-2" x1="158.81" y1="150.13" x2="170.55" y2="147.83"></line><polyline class="cls-2" points="167.23 143.23 167.23 151.66 164.68 152.94"></polyline><path class="cls-2" d="M161.36,145.02s-.51,10.47,1.53,12.26h4.34"></path><path class="cls-2" d="M180.51,141.45l-3.38,8.72-2.75,7.11s4.6-10.72,7.15-6.13c0,0-2.04,6.64,0,6.13s5.36-3.06,5.36-3.06"></path><path class="cls-2" d="M195.06,145.02l4.34-1.79s-8.17,11.74,0,11.74c0,0,6.47-2.18,5.25-9.93-.09-.57-.22-1.18-.4-1.81l2.94,6.14"></path><path class="cls-2" d="M217.28,140.37l-5.87,14.61s4.6-9.45,7.15-6v6s1.19,3.83,5.96-2.04"></path><path class="cls-2" d="M99.16,535.05c.65,.2,1.16,.64,1.53,1.31,.56,1.13,.8,2.28,.74,3.46-.03,.45-.09,.97-.2,1.57,.23-.35,.44-.67,.63-.94,1.24-1.72,2.17-2.56,2.79-2.52,1.86,.11,2.73,1.26,2.61,3.44-.07,1.13-.34,1.91-.81,2.33-.37,.43-.87,.66-1.5,.71-.96,.39-2.14,1.03-3.54,1.93-.41,.58-.77,1.03-1.06,1.34l-.03,.55c-.06,.44-.1,.87-.12,1.27,.92-.39,1.56-.64,1.91-.74,2.26,.41,3.33,1.68,3.21,3.78-.08,1.34-.46,2.29-1.15,2.86-.71,.89-1.8,1.48-3.27,1.76-.4,.3-.88,.56-1.45,.77-.07,.69-.13,1.37-.17,2.06,.21-.07,.44-.1,.68-.08,2.05,.48,3.39,1.21,4.03,2.18,.14-.6,.28-1.24,.42-1.93,.83-3.61,1.48-6.68,1.93-9.21,.45-1.72,.81-3.87,1.1-6.46,.16-2.1,.63-3.13,1.43-3.09,.48,.03,.92,.17,1.32,.44,.14-.03,.25-.07,.32-.1,1.91-.09,3.76-.29,5.54-.59-.09-.33-.21-.62-.37-.87-.64-.93-.95-1.54-.93-1.82,.08-.85,.33-1.52,.74-2.03,.34-.43,.88-.62,1.64-.57,1.31,.08,2.7,.58,4.17,1.52,.99,.91,1.58,1.76,1.77,2.54,.91-.11,1.65-.19,2.25-.24,.93,.09,1.82,.33,2.66,.7,.66,.49,.98,1.05,.94,1.7-.1,1.7-.92,2.69-2.46,2.97-1.75,.39-3.36,.64-4.82,.76-.56,.05-1.08,.1-1.57,.15,.07,.49,.1,1,.07,1.53-.04,.61-.05,1.17-.05,1.7,.7-.12,1.36-.21,1.99-.25,.75-.93,1.27-1.39,1.59-1.37,.58,.07,1.49,.62,2.71,1.62,.97,1.19,1.41,2.62,1.31,4.28-.04,.61-.09,1.17-.15,1.7,.31-.02,.56-.03,.73-.02,.97,.06,1.89,.62,2.76,1.68,.61,.77,.88,1.76,.81,2.97-.1,1.74-1.19,2.55-3.26,2.43-.83-.05-1.67-.2-2.52-.45-.09,.4-.2,.78-.33,1.14,1.05,.47,1.53,1.35,1.46,2.64-.11,1.82-1.23,3.04-3.38,3.64-1.51,.28-3.27,.56-5.29,.85-.13,.4-.3,.75-.53,1.07,1.51-.36,2.71-.51,3.61-.46,1.1,.1,2.39,.61,3.86,1.5,1.55,1.35,2.29,2.61,2.22,3.78-.26,2.06-1.26,3.91-3.02,5.55,.63,1.05,.93,1.96,.88,2.73-.12,2.02-.99,2.99-2.61,2.9-.24-.01-.78-.21-1.63-.58-.41-.06-.76-.1-1.03-.12-.66,0-1.89,.07-3.7,.21-1.39,.16-2.61,.29-3.66,.4-.33,.35-.67,.51-1.02,.49-1.17-.07-2.42-2.11-3.75-6.13-.73-2.28-1.08-4.13-1.03-5.55,.13-1.01,.38-2.05,.75-3.12,.57-.94,1.08-1.4,1.53-1.37,1.14,.11,1.99,.6,2.56,1.49,.81-.16,1.63-.35,2.48-.59-.18-.5-.29-1.05-.32-1.66-.87,.07-1.55,.09-2.03,.07-2.14-.12-3.18-.77-3.11-1.95,.1-1.09,.91-2.22,2.43-3.39,.66-.12,1.59-.29,2.78-.51l.11-1.88c-1.97,.58-3.37,1.11-4.19,1.59-.9-.05-1.54-.25-1.94-.6-.71,2.64-1.41,5.24-2.11,7.8-.91,3.24-1.88,6.09-2.88,8.55-1.37,2.15-2.44,3.88-3.21,5.18-.14,0-.25-.24-.32-.69-.12-.25-.16-.86-.1-1.83,.44-2.74,1.31-7.18,2.64-13.32,.18-.72,.34-1.46,.49-2.23-.32,.1-.63,.15-.94,.13-1.21-.07-2.19-.43-2.95-1.08l-.8,13.85c-.15,2.06-.6,3.72-1.33,4.98-1.01,1.32-1.77,2.13-2.27,2.43-.79-.13-1.26-.74-1.4-1.85-.17-.66-.27-1.84-.31-3.55,.26-5.1,.54-10.33,.85-15.67-.73,1.22-1.49,2.33-2.27,3.34-.73,1.18-1.44,2.11-2.14,2.8-.63,.69-1.13,1.21-1.49,1.56-1.17,1.11-2.07,1.65-2.69,1.61-.07-.09-.08-.47-.04-1.16,.14-.64,.42-1.5,.82-2.57,.41-1.15,.82-2.21,1.22-3.16,.59-1.27,1.21-2.59,1.84-3.98,.89-1.66,1.72-3.13,2.49-4.43-.49,.13-.88,.19-1.15,.18-1-.06-1.84-.53-2.51-1.43-.87-1.19-1.27-2.37-1.2-3.54,.13-1.66,1-2.62,2.61-2.9,1.32-.17,2.48-.38,3.47-.65,.66-.12,1.33-.33,2.01-.61l.68-11.72c.09-1.62,.48-2.9,1.16-3.83,.88-.76,1.81-1.11,2.81-1.06Zm-6.97,3.86c.59,.03,1.03,.45,1.33,1.24,.41,1.2,.58,2.47,.51,3.81-.11,1.94-.28,3.28-.49,3.99-.19,.92-.5,1.37-.91,1.35-.72-.04-1.56-1.19-2.5-3.44-.79-1.91-1.19-3.14-1.19-3.66,.17-2.31,1.25-3.4,3.25-3.29Zm22.77,11.25l.02-.3c.03-.49-.03-1.02-.17-1.59-.11-.49-.18-.86-.2-1.11-.32,.06-.58,.13-.79,.2-.75,.44-1.41,.71-1.97,.8-.23,.92-.52,2.08-.88,3.48-.5,2.57-.95,4.7-1.36,6.38,.46-.18,.92-.33,1.38-.47,.6-.17,1.82-.4,3.68-.7v-.06h-.05c-2.07-.12-3.29-1.49-3.66-4.11,.05-.81,.36-1.42,.94-1.84,.71-.32,1.52-.5,2.42-.53,.25-.07,.46-.12,.63-.15Zm-1.11,30.83c2.01-.05,3.33-.42,3.96-1.11,1.18-.74,2-1.96,2.44-3.64-1.01,.75-2.29,1.27-3.83,1.55-.99,.31-1.91,.72-2.77,1.24,.07,.61,.13,1.27,.2,1.96Zm5.67-18.99c-.04,.69-.06,1.34-.06,1.95,.32-.1,.58-.21,.8-.32,.21-.6,.4-1.22,.57-1.86-.45,.06-.89,.13-1.31,.23Zm2.55-6.31c.07-.65,.12-1.19,.15-1.64,.05-.81-.03-1.22-.24-1.23-.7,.65-1.39,1.2-2.07,1.65l-.09,1.52c.77-.08,1.52-.18,2.25-.3Z"></path><path class="cls-2" d="M147.5,584.01c-1.63,2.57-3.82,4.99-6.58,7.29-1.55,1.7-3.84,3.05-6.86,4.06,.14-.73,1.05-2.48,2.73-5.26,2.16-2.69,3.94-5.33,5.35-7.91,1.54-2.44,2.71-5.74,3.51-9.9,.98-4.54,1.77-10.42,2.39-17.64,.25-2.51,.69-4.39,1.31-5.64,1-1.7,1.76-2.53,2.27-2.49,.77,.11,1.6,.88,2.48,2.3,.82,1.29,1.15,2.89,.99,4.79-.07,.82-.16,1.62-.26,2.4,.94-1.01,1.67-1.49,2.18-1.45,1.81,.15,2.62,1.33,2.43,3.54-.11,1.3-.45,2.21-1.01,2.72-.41,.49-.99,.77-1.74,.83-.88,.32-1.89,.82-3.02,1.51-.41,2.15-.85,4.33-1.34,6.55-.51,3.4-1.18,6.24-2,8.52,1.18,.58,2.1,1.31,2.77,2.2,.72,1.11,1.02,2.37,.9,3.8-.24,2.81-1.24,4.14-3.01,3.99-.74-.06-1.37-.55-1.88-1.47-.6-1.27-1.13-2.19-1.61-2.75Zm-3.81-27.38c1.44,.12,2.02,2.66,1.75,7.6l-.36,4.28c-.4,3.37-1.17,5-2.31,4.9-1.7-.14-2.79-2.33-3.29-6.55-.13-2.41-.16-4.02-.09-4.85,.15-1.29,.65-2.67,1.52-4.12,1.01-.92,1.93-1.34,2.78-1.27Zm33.65,13.77c2.19,.4,3.18,1.86,2.97,4.37-.12,1.43-1.31,3.42-3.57,5.97-2.76,3.25-6.17,6.65-10.22,10.18-4.87,4.47-9.02,7.8-12.43,9.99-.44,.36-1.14,.73-2.1,1.13-1.03,.35-1.71,.51-2.05,.48-.33-.03-.48-.22-.45-.56,.06-.26,1.12-1.65,3.2-4.17,3.68-4.48,6.83-8.09,9.44-10.83,2.12-2.26,4.53-4.82,7.22-7.69,3.06-3.23,4.8-5.32,5.21-6.29,.37-.45,.72-1.07,1.05-1.87,.36-.36,.94-.6,1.73-.7Zm-17.66-9.86c.88,.12,1.58,.59,2.11,1.42,1.03,.09,2-.2,2.91-.86,.29,.07,.43,.21,.41,.43-1.32,1.59-2.2,3.13-2.62,4.62l-.3,3.57c-.13,1.12-1.16,1.6-3.07,1.44-1.91-.2-2.74-1.8-2.49-4.79,.13-1.16,.44-2.4,.93-3.71,.94-1.45,1.65-2.15,2.13-2.11Zm8.55-15.42c2.21,.19,3.72,1.03,4.52,2.54,.44,.91,.67,2.85,.68,5.81-.02,5.45-.14,9.53-.37,12.26-.27,3.25-.74,5.86-1.39,7.86-.35,1.89-1.22,3.23-2.62,4.03-.39,.23-.88,.49-1.46,.79-.59,.34-1.25,.77-2,1.27-.65,.69-1.31,1.18-1.96,1.47-.59,.34-1.16,.49-1.71,.44-1.08-.35-1.58-1.46-1.5-3.33-.03-.96-.26-1.79-.68-2.48-.42-.78-.66-1.43-.73-1.96,.08-.52,.25-.76,.51-.74l2.6,.22c1.66,.14,2.65-1.06,2.98-3.6,.6-2.65,1.21-7.72,1.85-15.21,.15-1.82,.18-3.27,.09-4.37-.29-1.86-.42-2.95-.39-3.3,.24-1.11,.77-1.68,1.59-1.7Zm9.11,14.11c1.7,.14,3.45,.95,5.26,2.41,1.59,1.79,2.32,3.55,2.17,5.28-.1,1.21-.5,2.12-1.18,2.71-.87,1.06-1.73,1.55-2.58,1.48-.48-.04-1.08-.37-1.81-1-.66-.58-1.09-1.34-1.31-2.27-.17-1.1-.59-2.05-1.26-2.85-1.36-1.47-2.02-2.42-1.99-2.85,.12-.99,.45-1.75,.97-2.27,.3-.5,.88-.71,1.73-.64Z"></path><path class="cls-2" d="M200.56,569.98c.91,.06,1.63,.25,2.16,.57,2.12-.86,3.98-1.54,5.59-2.05l.06-1.2c.05-.22,.1-.44,.16-.67-1.09,.25-2.16,.37-3.2,.35-1.62-.03-2.84-.58-3.66-1.67-.95-1-1.39-2.14-1.33-3.44,.13-1.92,1.46-3.19,3.99-3.82,1.64-.29,3.73-.57,6.28-.84,2.38-.18,5.12-.66,8.24-1.41,3.56-.61,5.95-.98,7.16-1.09,3.55,.46,5.28,1.78,5.17,3.97-.1,2.19-1.25,3.49-3.43,3.9-1.51,.24-2.87,.47-4.09,.67,.14,.54,.19,1.16,.16,1.88-.02,.49-.09,1-.2,1.54,1.03,.2,2.05,.48,3.08,.85,1.16-.83,2.04-1.28,2.62-1.36,3.01,.45,4.44,2.3,4.29,5.56-.14,2.99-.87,5.59-2.18,7.8-.69,1.33-1.57,2.41-2.65,3.24-.95,.7-1.94,1.04-2.98,1.02-.75-.01-1.34-.22-1.78-.63-.6,.44-1.3,.74-2.1,.9-.98,.43-2.33,.88-4.06,1.34,.16,.14,.3,.27,.42,.41,.35,.41,.63,1.13,.83,2.16,1.51-.2,2.97-.4,4.39-.6,2.54-.18,4.8-.53,6.78-1.03,1.13-.16,2.03-.24,2.69-.23,1.53,.07,2.98,.83,4.32,2.28,.99,1,1.44,2.39,1.36,4.17-.12,2.45-1.82,3.66-5.1,3.6-1.29-.02-2.65-.18-4.09-.47-1.15-.24-2.35-.42-3.59-.53-2.05,.32-4.1,.63-6.15,.91,.05,1.56,.05,2.84,0,3.82-.16,3.39-.54,6.15-1.14,8.29-.3,2-1.23,3.49-2.77,4.44-.43,.22-.94,.5-1.54,.85-.56,.39-1.23,.87-2,1.44-.66,.79-1.31,1.36-1.95,1.71-.64,.39-1.23,.58-1.77,.57-1.28-.29-1.91-1.42-1.9-3.38-.08-.9-.35-1.7-.82-2.42-.46-.72-.75-1.35-.84-1.89,.11-.54,.29-.82,.54-.86,.96-.08,1.73-.11,2.31-.1,1.87,.03,2.93-1.29,3.18-3.97,.32-1.51,.6-3.94,.85-7.29-1.97,.33-3.92,.7-5.85,1.11-4.83,1.08-8.23,2.12-10.19,3.12-1.87-.03-3.11-.59-3.73-1.67-.81-1.35-1.19-2.45-1.15-3.3,.22-2.05,2.25-3.58,6.08-4.59,1.85-.46,6.84-1.45,14.98-2.98,0-.13-.01-.27-.04-.4-.21-.81-.35-1.43-.41-1.88-.55,.13-1.05,.25-1.51,.38-1.43,.38-2.48,.56-3.14,.55-.5,0-.95-.1-1.36-.29-.26,1.11-.87,1.66-1.83,1.64-1.91-.03-3.8-1.89-5.66-5.58-1.17-2.48-1.71-4.65-1.62-6.52,.13-1.83,.52-3.47,1.17-4.94,1.18-1.32,2.17-1.97,2.96-1.96Zm-1.98,30.98c1.04,.06,1.87,.52,2.49,1.38,1.37,.02,2.63-.63,3.77-1.95,.37,.05,.55,.19,.54,.41-2,1.93-3.28,3.81-3.82,5.63l-.2,4.15c-.1,1.25-1.27,1.85-3.52,1.82-1.87-.07-2.72-1.76-2.56-5.06,.1-1.2,.39-2.54,.88-4,1.03-1.59,1.84-2.38,2.42-2.37Zm6.12-19.73c.34-.13,.7-.26,1.08-.38,1.42-.16,2.68-.34,3.77-.54-1-.78-1.5-2.5-1.5-5.18-.55,.26-1.06,.47-1.53,.64-.89,.39-1.66,.84-2.31,1.37,.14,1.39,.31,2.75,.49,4.09Zm8.16-7.71c.03,.18,.04,.36,.04,.54,.14,1.47,.19,2.48,.17,3.02-.06,1.29-.29,2.23-.69,2.8,.71-.17,1.41-.33,2.08-.5,.14-1.11,.59-2.4,1.37-3.86,.51-1.2,.87-2.2,1.08-3-1.35,.34-2.65,.65-3.91,.94-.04,0-.08,.02-.13,.06Zm5.3-9.16c-1.72,.37-3.38,.75-4.98,1.13,.11,.36,.15,.72,.14,1.07l-.03,.53c1.81-.42,3.38-.66,4.71-.73l.06-1.34c.01-.27,.04-.49,.09-.67Zm4.02,7.16c-.19,.4-.35,.82-.5,1.26-.64,2.09-1.37,3.82-2.18,5.19,1.77-.51,2.89-.83,3.35-.95,.37,.05,.66,.12,.86,.22,.31-.44,.61-1.06,.9-1.86,.77-1.42,1.21-3.22,1.32-5.4-1.41,.69-2.66,1.21-3.75,1.55Zm4.05,26.32c1.58,.03,3.22,.97,4.92,2.82,1.59,2.3,2.33,4.68,2.22,7.14-.05,1.11-.43,2.04-1.13,2.79-.92,1.01-1.84,1.51-2.75,1.5-.5,0-1.15-.26-1.96-.77-.72-.55-1.23-1.29-1.51-2.23-.13-1.7-.41-3.15-.85-4.37-.85-2.16-1.26-3.64-1.22-4.44,.08-.76,.31-1.36,.71-1.8,.31-.44,.84-.66,1.59-.64Z"></path><path class="cls-2" d="M268.75,586.43c.9,0,1.81,.29,2.73,.85,.3-1.13,.75-2.51,1.36-4.13,.97-2.27,1.46-3.62,1.47-4.07,.03-.85-.17-1.28-.58-1.28-.53,.04-1.9,.95-4.13,2.73-1.05,1.3-1.96,2.39-2.74,3.28-.73,.73-1.32,1.09-1.77,1.09-3.11,0-5.08-1.71-5.91-5.11,.09-1.66,1.35-3.22,3.79-4.68,2.16-.93,6.16-1.39,12.01-1.39,1.71-.65,2.84-.97,3.4-.97,1.38,0,3.11,1.1,5.18,3.29,1.24,1.26,1.83,2.72,1.78,4.38-.05,1.58-1,2.63-2.85,3.16-1.47,.4-3,1.4-4.58,2.97-1.35,1.3-2.74,2.19-4.18,2.67-.04,.04-.06,.04-.06,0,.54,.69,.99,1.36,1.34,2.01,.17,.45,.33,.89,.46,1.34,.86-.08,1.69-.18,2.48-.3,2.14-.12,4.06-.34,5.75-.66,1.32-.2,2.33-.3,3.04-.3,1.68,.04,3.29,.83,4.82,2.37,1.05,1.14,1.55,2.68,1.49,4.62-.08,2.71-1.9,4.07-5.46,4.07-1.42,0-2.93-.19-4.53-.55-1.27-.2-2.59-.35-3.98-.43-.68,.08-1.35,.18-2.03,.3,.06,1.7,.06,3.73-.01,6.08-.14,4.5-.77,8.25-1.91,11.24-1.39,3.85-2.96,5.77-4.72,5.77-.77,.57-1.47,1.03-2.12,1.4-.62,.61-1.32,1.01-2.11,1.21-.72,.36-1.42,.57-2.1,.61-1.76,0-2.82-.95-3.17-2.86,0-1.01-.44-2.01-1.31-2.98-1.39-1.01-2.08-1.7-2.07-2.07,.05-.28,.11-.53,.19-.73,1.53,.04,3.09,.06,4.66,.06,4.38,0,6.72-4.96,7.02-14.89l.05-1.7c-2.33,.36-4.65,.77-6.95,1.21-4.07,.93-6.93,1.76-8.56,2.49-2.1,0-3.56-.59-4.38-1.77-.89-1.58-1.32-2.86-1.29-3.83,.18-2.39,2.49-4.19,6.9-5.4,1.62-.36,6.01-1.09,13.15-2.18v-.06c-.37-1.26-.81-2.31-1.31-3.16-.39-.57-.58-1.16-.56-1.76,.19-1.3,.96-1.94,2.3-1.94Z"></path><line class="cls-2" x1="153.53" y1="521.87" x2="216.68" y2="533.45"></line><line class="cls-2" x1="160.81" y1="530.98" x2="169.19" y2="530.47"></line><polyline class="cls-2" points="167.31 526.96 166.53 532.83 164.63 533.48"></polyline><path class="cls-2" d="M163.06,527.66s-1.33,7.24-.08,8.67l3.02,.4"></path><path class="cls-2" d="M176.85,529.41l-2.14,5.53-1.74,4.5s2.91-6.79,4.53-3.88c0,0-1.29,4.21,0,3.88s3.4-1.94,3.4-1.94"></path><path class="cls-2" d="M188.01,537.37l3.15-1.69s-4.99,8.15,1.32,6.96c0,0,4.75-2.23,2.94-6.65-.13-.33-.3-.66-.51-1.01l2.95,3.21"></path><path class="cls-2" d="M205.28,534.44l-3.61,9.91s2.83-6.41,4.4-4.07v4.07s.73,2.6,3.66-1.39"></path><path class="cls-2" d="M143.23,490.85s-.64-5.36,0-5.36,2.94,2.43,2.94,2.43c0,0,4.85,1.02,4.85,2.94,0,0,.13,3.19-3.19,4.72,0,0-2.07,2.94-.84,4.72,0,0,3.89,2.3,2.49,4.6,0,0-2.72,.13-3.97-.64s.66,2.81,.66,2.81c0,0,2.53-.51,.82,5.23,0,0,3.76,1.4,2.49,2.42s-14.54,9.96-20.93-5.87c0,0-.89-9.72-2.55-7.03,0,0-1.79,2.69-.89,4.48,0,0-7.43-6.38-2.89-14.3,0,0,5.57-7.4,10.8,3.7,0,0-.38,13.53,2.17,15.45,0,0-.91-12,.69-14.81s7.35-5.49,7.35-5.49Z"></path><path class="cls-2" d="M252.75,513.96c-2.87-2.38-7.56-4.4-10.95,3.44,0,0-.69,8.68-3.24,10.76,0,0,.91-13.05-.69-16.11s-7.35-5.97-7.35-5.97c0,0,.64-5.83,0-5.83s-2.94,2.64-2.94,2.64c0,0-4.85-.59-4.85,1.49,0,0-.1,3.7,3.21,5.36,0,0,2.43,3.03,1.21,4.98,0,0-4.37,.94-2.97,3.43,0,0,3.25,2.38,4.5,1.55s-.96,3.11-.96,3.11c0,0-2.66,.35-.95,6.6,0,0-3.09,.45-1.82,1.56s18.52,14.98,24.91-2.23c0,0,.04-3.35,.65-5.64,.35-1.31,2.2-1.35,2.56-.05,.61,2.18,1.15,5.56-.86,6.86,0,0,6.77,.07,3.51-11.34-.51-1.79-1.52-3.43-2.95-4.61Z"></path></svg>