<svg width="45" height="124" fill="none" xmlns="http://www.w3.org/2000/svg"><g clip-path="url(#a)" fill="#B04B19"><path d="M21.81 24.13c-.665.016-1.025.11-1.305-.217-.241-.283.128-1.708.178-1.885.319-1.134.982-1.96 1.92-2.666a7.156 7.156 0 0 1 1.86-.999c.519-.19 1.088-.338 1.636-.344 1.348-.01 2.7.02 4.04.134.893.076 1.684.517 2.427 1.012 1.069.71 1.82 1.67 2.235 2.87.124.358.204.753.2 1.13-.007.778-.015 1.567-.159 2.326-.095.503-.417 1.125-.669 1.591-.42.704-.785 1.055-1.319 1.582-.952.94-2.212 1.341-3.557 1.338-4.505-.012-9.01.008-13.514-.022-.527-.004-1.083-.18-1.571-.393-.7-.307-1.41-.65-2.007-1.113-.704-.545-1.338-1.192-1.727-2.026-.527-1.13-.52-2.33-.436-3.518.062-.887.478-1.703 1.045-2.382.48-.574 1.045-1.12 1.675-1.522.576-.369 1.265-.6 1.94-.784 1.43-.388 2.538-.184 3.915-.221.05-.002.068.002.19-.001 0 .421.033.878-.008 1.307-.01.098-.011.25-.143.254-.841.006-1.92.028-2.765.002-.993-.031-1.848.33-2.628.871-1.362.945-1.897 2.29-1.79 3.897.046.686.251 1.342.653 1.912.694.985 1.6 1.705 2.785 2.04.144.04.304.032.456.032 4.72.002 9.44.01 14.16 0 1.268-.003 2.223-.654 2.954-1.608.363-.473.757-1.024.84-1.583.144-.963.239-1.95-.162-2.933-.41-1.004-1.143-1.677-2.017-2.193-.622-.368-1.342-.602-2.105-.598-.969.007-1.937-.003-2.906.002-.98.004-1.793.433-2.564.98-.907.642-1.296 1.538-1.585 2.548-.13.452-.148.66-.173 1.18h.001Z"/><path d="M18.82 20.458v1.304c0 .29-.15.384-.438.38-.876-.01-1.754.048-2.627 0-.912-.052-1.805 1.228-1.476 2.2.229.673.77 1.047 1.334 1.399.105.064 1.225.052 1.36.052 4.304.002 7.651.003 11.955.001.75 0 1.578-.826 1.605-1.566.026-.706-.048-1.362-.76-1.746-.227-.121-.465-.298-.703-.308a45.024 45.024 0 0 0-2.811-.018c-.819.018-1.632.876-1.642 1.69-.004.304-.024.61.004.91.046.482-.298.658-.645.753-.365.097-.722.008-.94-.372-.547-.957-.245-1.845.212-2.72.448-.86.812-1.24 1.661-1.6.244-.103.977-.186 1.248-.182 1.19.02 2.393-.024 3.566.136.484.066 1.023.422 1.394.8.518.443.738 1.087.896 1.711.226.9.147 1.997-.378 2.777a2.47 2.47 0 0 1-.624.665c-.63.494-1.323.71-2.052.715-4.32.021-8.64.001-12.96.022-.75.004-1.319-.373-1.835-.777-1.46-1.142-1.657-2.391-1.207-4.013.25-.9.924-1.585 1.82-1.966.507-.28 1.075-.243 1.597-.245.797-.003 1.594 0 2.446 0v-.002Z"/></g><path d="m23.388 53.408.216.672h5.832v-.672h-6.048Zm5.616 0c-4.104 5.76-6.672 8.28-6.456 10.32.12 1.896 1.32 2.784 4.32 2.784h3.048c2.784 0 4.104-.624 4.104-1.752 0-.528-.192-.696-1.104-.984l.048-3.072-.288-.024c-.288 1.344-.648 2.448-.984 3.048-.168.312-.504.36-1.752.36h-2.832c-1.152 0-1.8-.12-1.848-.696-.12-1.008 1.776-3.6 6.072-8.808.552-.024.912-.168 1.128-.384l-2.568-2.112-1.152 1.32h.264ZM11.22 48.032l.192.672h10.896c.336 0 .6-.12.672-.384-.96-.888-2.544-2.184-2.544-2.184l-1.392 1.896H11.22Zm-.096 13.416.192.672h10.92c.336 0 .6-.12.648-.384-.936-.864-2.496-2.16-2.496-2.16l-1.392 1.872h-7.872Zm4.296-16.8v6.792h2.736v-5.832c.624-.096.816-.336.84-.648l-3.576-.312ZM13.356 57.8v.672h7.056V57.8h-7.056Zm-.024-3.432v.672h7.08v-.672h-7.08Zm5.472-3.384v8.28h.432c.816 0 2.088-.48 2.136-.648V52.04c.432-.096.744-.288.888-.456l-2.496-1.896-1.2 1.296h.24Zm-6.552 0v8.688h.36c1.056 0 2.16-.552 2.16-.816v-7.2h5.688v-.672h-5.568l-2.64-1.08v1.08Zm3.144 7.128v9.048h.504c1.416 0 2.232-.432 2.256-.552v-8.496h-2.76Zm9.384-8.76v.672h8.4c.336 0 .576-.12.648-.384-.96-.912-2.592-2.256-2.592-2.256l-1.44 1.968H24.78Zm-.168-4.704c-.408 3.288-1.464 6.624-2.664 8.808l.264.192c2.376-1.584 4.296-4.032 5.592-7.368.552 0 .84-.216.936-.528l-4.128-1.104Zm-6.168 44.2-.24.144c.84 1.104 1.8 2.736 1.968 4.152 2.208 1.776 4.488-2.544-1.728-4.296Zm.12 11.496V80.808l-2.736 1.08v19.272h.504c1.344 0 2.232-.624 2.232-.816Zm7.416-1.752V83.256h5.304v-.672H26.1l-2.904-1.224v18.216h.48c1.2 0 2.304-.672 2.304-.984Zm3.192-16.008h.264v16.608h.456c.984 0 2.304-.576 2.352-.768V83.736c.504-.12.864-.312 1.008-.528l-2.736-2.136-1.344 1.512Zm2.232 13.368h-6.96v.696h6.96v-.696Zm-13.272-9v-.384h-2.856c-.72 3.648-2.136 7.68-4.224 10.464l.264.264c3.36-2.664 5.712-6.168 6.816-10.344Zm4.776-5.592-2.976-2.736c-1.872 1.2-5.568 2.856-8.52 3.744l.072.312c3.408-.144 7.344-.72 9.84-1.344.744.288 1.296.264 1.584.024Zm-2.304 3.216-1.368 1.992h-7.824l.192.672h10.848c.36 0 .6-.12.672-.384-.912-.912-2.52-2.28-2.52-2.28Z" fill="#B04B19"/><rect x="1.25" y="1.25" width="42.5" height="121.5" rx="6.75" stroke="#B04B19" stroke-width="2.5"/><defs><clipPath id="a"><path fill="#fff" transform="translate(10 18)" d="M0 0h25v12H0z"/></clipPath></defs></svg>