<svg preserveAspectRatio="none" height="367" viewBox="0 0 780 367" fill="none" xmlns="http://www.w3.org/2000/svg"><mask id="a" style="mask-type:alpha" maskUnits="userSpaceOnUse" x="-1044" y="0" width="2868" height="1185"><path fill-rule="evenodd" clip-rule="evenodd" d="M355.039 30.97c12.228-2.03 32.844-9.043 34.961-24.333 1.815-13.11 7.559-4.287 13.554 4.923 3.424 5.26 6.93 10.646 9.833 12.144 6.417 3.31 20.202 6.24 35.138 7.57C1213.37 43.62 1824 296.873 1824 607.481c0 318.492-642.02 576.678-1434 576.678-791.976 0-1434-258.186-1434-576.678C-1044 293.69-420.784 38.435 355.039 30.97Z" fill="#D9D9D9"/></mask><g mask="url(#a)"><path fill="#593D3D" d="M0-5h780v372H0z"/></g></svg>