<svg version="1.1" id="圖層_2" xmlns="http://www.w3.org/2000/svg" xmlns:xlink="http://www.w3.org/1999/xlink" x="0px" y="0px" viewBox="0 0 350 203" style="enable-background:new 0 0 350 203;" xml:space="preserve"><style type="text/css">
	.st0{fill:#B64E1D;}
	.st1{fill:#B94E1E;}
</style><path class="st0" d="M164.21,74.05c0,0-5.05-6.89-10.71-10.59c-5.66-3.69-6.65-1.35-6.65-1.35s-4.68,4.8-9.48,4.92
	c-0.75,0.02-2.13,0.14-3.93,0.32c0.14-2.21,0.28-4.43,0.42-6.66c0,0,1.66-11.08,1.85-17.36c0,0-1.48-2.77,5.17-10.34
	c6.65-7.57-4.06-18.83-4.06-18.83s-4.99-4.8-12.37-8.12s-1.92-3.45-26.29-2.34c0,0-3.81,0.03-2.98,4.19c0,0-0.46,1.38-1.48,2.03
	c-1.02,0.65,1.02,3.6,1.02,3.6s4.43,5.26,4.25,10.43c-0.18,5.17,3.69,16.06,1.48,47.73l0.01,0.31c-3.05,1.5-12,5.28-28.54,7.54
	c0.2-5.26,0.4-9.59,0.58-11.26c0.62-5.66,2.58-9.85,2.58-9.85s5.54-3.82,4.06-8.99c0,0-0.61-2.31-1.58-3.44
	c-0.97-1.13,0.62-2.84-3.9-5.33c-4.52-2.49-12-8.68-21.23-10.34c0,0-3.51-1.02-5.63,1.2c0,0-1.85,0.83-3.88-0.55
	c-2.03-1.38-4.43-2.03-4.43-1.29c0,0.74-0.03,4.68-1.45,4.37c0,0-2.4,0.74-0.37,3.57c2.03,2.83,2.77,4.86,4.55,6.89
	c1.78,2.03,1.91,4.43,1.85,4.86c-0.06,0.43,1.66,33.17,2.4,34.84c0.02,0.05,0.05,0.15,0.08,0.27c-3.35,1.25-12.76,4.67-16.82,5.16
	c-4.19,0.51-6.28,2.48-17.42,2.51c0,0-10.31-3.85-11.69,3.08c0,0-1.97,3.82,7.26,11.57c9.23,7.75,12.8,9.48,12.8,9.48
	s1.72,0.74,3.69,4.8c0,0,0.62,2.34,5.66,1.11c5.05-1.23,6.82-0.37,6.82-0.37s0.82,0.86,4.26-1.85c3.45-2.71,7.14-1.97,7.14-1.97
	s0.21-0.08,0.58-0.22c0.37,9.81,0.52,19.95,0.15,27.67c-0.98,20.93-0.98,24.13-0.98,24.13s-0.74,4.92,1.48,6.99
	c2.22,2.06,11.28,11.26,11.28,11.26s5.54,5.22,13.76,0c8.22-5.22,22.94-4.75,22.94-4.75s1.63-0.08,1.85,0.2
	c0.22,0.28-3.29,3.63-4.28,3.39c0,0-1.45,0.77,2.09,1.2c3.54,0.43,7.54,4.15,7.54,4.15s5.57,7.45,11.42,0.34
	c0,0,6.28-3.08,7.63-8.62c0,0,3.95-0.86,3.94-7.14c0,0,3.88-37.05,3.69-53.48c0,0,0.51-10.73,1.35-26.01
	c2.02-0.11,6.57-0.23,15.27,0.1c12.8,0.49,17.23-2.22,17.23-2.22S175.42,90.67,164.21,74.05z M100.27,151.91
	c0,0,0.92,4.49-2.15,5.26c-3.08,0.77-13.17-0.06-13.69,0.09c-0.52,0.15-3.88-0.49-6.34,1.85c-2.46,2.34-5.29,0.83-5.29,0.83
	s-1.02-0.03-0.74-2.25c0.28-2.22-2.25-20.13-1.14-27.51c0-0.01,0-0.02,0-0.03c0.47,0.5,1.03,0.92,1.66,1.07
	c1.94,0.46,1.57,2.86,2.22,3.42c0.65,0.55,4.25,0.28,4.52,2.86c0.28,2.59-4.25,15.23-4.99,16.25c0,0-0.37,1.94,2.31-1.11
	c2.68-3.05,7.85-13.39,9.32-13.57s8.86-1.94,11.08-4.52c0,0,0.74-0.65,1.85-0.46c0.42,0.07,1.09,0.02,1.75-0.07
	C100.32,142.07,100.09,149.77,100.27,151.91z M101.56,112.76c-0.06,1.41-0.28,6.02-0.53,11.61c-1.05-2.07-2.7-4.1-5.29-5.61
	c-8.22-4.8-10.34-3.79-12.28-3.23c-1.94,0.55-5.54,5.26-5.54,5.26s-3.53,2.94-6.5,1.44c0.07-6.19-0.4-12.25-0.4-12.25
	s0-0.1,0.01-0.28c11.74-3.68,24.64-7,30.59-6.04C101.65,107.09,101.65,110.84,101.56,112.76z"></path><g><g><path class="st1" d="M347.5,134.27c0,0-5.17-9.32-14.49-8.49c-9.32,0.83-12.93,0.28-48.75,6.65c0,0-3.04,0.3-6.23,0.38
			c0.21-2.69,0.98-13.18,0.57-16.82c5.88-1.45,11.44-2.39,15.35-2.12c0,0,5.63,1.38,8.03-4.99c0,0,0.46-5.35-3.69-7.02
			c0,0,0.83-0.83,0.46-1.85c0,0,9.05-4.15,16.99-16.62c0,0,4.43-5.91,7.2-10.34c2.77-4.43,2.49-5.54,2.49-5.54s0.57-5.54,0.01-6.65
			c-0.56-1.11-3.89-9.51-12.1-12c0,0-3.88-1.85-13.29-0.55c0,0-5.82,2.4-12.37,2.49c0,0-0.83,0.18-1.48-0.18
			c-0.65-0.37-0.37-1.2-0.37-1.2s2.03-3.51,1.38-8.4s6.37-11.08,6.37-11.08s1.63-1.23,2.06-1.11c0.43,0.12,3.77,0.62,3.77-3.77
			s1.43-6.29-1.52-9.99c-2.95-3.69-7.14-9.6-20.8-14.16c0,0-2.59-0.74-3.57,2.09c-0.98,2.83-12.06,6.77-12.06,6.77
			s-11.94,4.55-24.93,7.32c0,0,0.74,1.02,0.83,1.94c0.09,0.92-1.29,5.08,4.34,15.69c0,0,4.43,3.51-3.79,10.34
			c-8.22,6.83-15.33,14.68-29.82,24.74c0,0-5.45,4.71-7.02,7.48c0,0-2.03,2.58-1.11,5.91c0.92,3.32,1.2,5.63,10.99,23.45
			c0,0,3.17,5.63,10.35,11.82c0,0,2.11,1.38,3.12,1.48c1.02,0.09,3.69,0,3.69,0s3.14-0.37,4.15-0.37c0,0,2.49,5.91,5.08,6.46
			c2.59,0.55,6.92,1.75,15.23-1.57c0.96-0.38,2.11-0.83,3.4-1.32c1.03,0.18,2.17,0.33,3.29,0.39c0,0,0.97,0,1.15,1.94
			c0.18,1.94-0.46,4.06,0,6c0.17,0.73,0.31,1.77,0.41,2.77c-11.18,3.4-27.46,9.32-27.46,9.32s-10.99,4.25-18,6.83
			c0,0-5.08,2.03-8.49,2.95c-3.42,0.92-10.16,1.02-17.63,5.45c0,0-5.82,2.49-7.39,8.68c0,0-1.48,3.88,8.68,9.14
			c0,0,6.92,4.25,10.43,1.11c3.51-3.14,5.54,2.4,5.54,2.4s1.29,2.4,2.4,5.63c1.11,3.23,6,4.15,6,4.15s6.55,2.58,11.45,0
			c4.89-2.58,22.06-26.87,22.06-26.87s-11.45,5.82-17.73,7.57c-6.28,1.75-9.97,2.49-9.97,2.49s-4.62,1.66-6,0.09
			c0,0-0.54-0.74,0.38-1.38c0.91-0.65,8.12-2.4,18.18-8.86c8.77-5.63,14.25-4.88,27.32-8.94l-0.18,6.36c0,0-0.28,16.06,0.09,19.57
			c0.37,3.51,0,5.26-0.74,5.63c-0.74,0.37-6.92,0.65-11.91,0c-4.99-0.65-7.94-0.83-7.2-0.09c0.74,0.74,17.63,14.4,24.37,16.71
			c0,0,7.48,2.86,12.37-2.4c0,0,1.02-0.18,1.11-7.57c0.09-7.09,0.6-35.04,0.64-42.48c7.49-1.28,16.66-2.81,22.16-3.59
			c10.52-1.48,23.63-1.29,23.63-1.29s6.37,0,15.51,1.02c0,0,4.8,1.11,7.02-3.6C349.72,137.6,347.5,134.27,347.5,134.27z
			 M274.48,80.45c3.51-6.55,10.99-9.42,10.99-9.42s0,0,4.99-1.11c4.99-1.11,1.66,3.07,1.66,3.07c-8.03,13.5-15.33,17.24-19.85,19.28
			c-4.52,2.04-2.68-2.64-2.68-2.64S270.97,87.01,274.48,80.45z M251.73,50.35c-4.12-3.63-3.82-2.22-7.63,1.11
			c-3.82,3.32-3.08,5.72-3.08,5.72c0.43,5.79-0.55,4.55-1.85,7.02c-1.29,2.46-4.49,3.2-6.28,4.8c-1.78,1.6-3.2,0.37-3.82,0.49
			c-0.62,0.12-0.63,2.43-0.63,2.43c-0.35,1.37,2.17,2.57,2.17,2.57c5.31,2.31,8.43,7.55,8.43,7.55c6.4,9.11,4.43,15.51,4.43,15.51
			c-3.32,8.74-8.99,3.69-8.99,3.69c-7.02-11.32-21.79-26.1-23.39-26.59c-1.6-0.49-1.48-2.34-1.48-2.34
			c0.49-2.58,29.79-24.99,29.79-24.99s4.37-4.25,16.56-3.26c12.19,0.98,16.43-1.11,17.29-0.74c0.86,0.37,0,3.32,0,3.32
			c-1.48,9.29-11.39,12.43-14.03,13.29c-2.65,0.86-2.28-0.37-3.14-1.23c-0.86-0.86-0.18-2.77-0.43-3.82
			C255.43,53.86,255.86,53.99,251.73,50.35z M256.47,92.27c-0.43,0.18-0.98-2.22-1.11-5.42c-0.12-3.2-0.92-5.17-1.42-6.34
			c-0.49-1.17,0-1.35,0-1.35c4.25-3.26,6.03-1.91,9.17-2.46c3.14-0.55,1.05,2.15,1.05,2.15C262.75,85.74,256.9,92.08,256.47,92.27z"></path><path class="st1" d="M292.97,164.65c0,0,11.82,22.77,28.43,28.07c0,0,7.39,3.82,9.23-9.48c1.85-13.29-17.48-18.37-17.48-18.37
			s-6.8-2.18-17.91-1.6C295.25,163.26,292.29,163.4,292.97,164.65z"></path></g></g></svg>