<svg width="101" height="63" fill="none" xmlns="http://www.w3.org/2000/svg"><g opacity=".6"><path d="M68.068 32.504 98.863 17.12V14.58s-.2-.4-1.67-.601L50.433 2.542s-.869-.267-1.536 0l-32.33 9.497s-1.203 1.538-1.203 2.006v1.404l38.409 12.774 12.825 4.28s.72.374 1.47 0Z" stroke="#C2724A" stroke-miterlimit="10"/><path d="m15.364 14.045 51.703 16.987s1.336-.87 1.737-2.273l29.192-13.777M68.804 28.757 16.567 12.04M67.067 31.032v1.613M19.473 16.815v2.178l46.925 16.185.2-2.674" stroke="#C2724A" stroke-miterlimit="10"/><path d="m95.255 18.923 2.138.672s1.537.267-.533 1.471L66.6 35.98 54.71 59.387v1.205L4.076 37.853v-.668L15.364 18.46l2.673-.913s.516-.16 1.438-.291M19.473 17.923l-1.972.87M15.364 18.46 66.598 35.98" stroke="#C2724A" stroke-miterlimit="10"/><path d="M97.939 19.995s.388-.267.524 1.407l.667 5.82s.212 1.537-.595 2.272L69.54 46.682l-4.076 7.959-10.755 5.952" stroke="#C2724A" stroke-miterlimit="10"/><path d="M99.061 26.61s-.398.476-1.065 1.01c-.667.534-29.46 16.654-29.46 16.654l-5.525 11.724" stroke="#C2724A" stroke-miterlimit="10"/><path d="M71.304 45.635v1.515s-.358.807-2.569 1.102" stroke="#C2724A" stroke-miterlimit="10"/><path d="M70.907 47.55v1.004s-.45 1.425-3.025 1.366M72.473 44.942l1.497.693s.926.124 1.378-.347l10.07-6.014.214-2.134M74.1 43.977v1.658M77.96 41.69v2.04M82.518 38.987v1.917M89.435 34.889l-.108 1.652s-.799 1.204-3.693 1.48" stroke="#C2724A" stroke-miterlimit="10"/><path d="M88.838 36.999v1.021s-.744 1.136-3.39.967M35.12 42.9l-21.738-9.135a.475.475 0 0 1-.23-.688l4.3-7.08a.482.482 0 0 1 .577-.202l21.979 8.43c.275.1.396.418.257.674l-4.54 7.785a.482.482 0 0 1-.605.214v.002ZM16.911 37.862c.285-.25.362-.63.17-.849-.19-.219-.577-.193-.863.057-.285.25-.361.63-.17.849.191.219.578.193.863-.057Z" stroke="#C2724A" stroke-miterlimit="10"/><path d="m16.567 34.35.167-1.278 1.134.64-1.3.639ZM32.744 35.364l-.289.218.046-.294 1.242-1.863.288-.218-.045.295-1.242 1.862Zm-1.692 2.537-.292.223.049-.3 1.238-1.859.289-.218-.045.295-1.239 1.858Zm3.897-4.519-.292.202-.55-.173.024-.273.292-.202.55.173-.024.273Zm-3.39 5.084-.293.203-.55-.173.024-.273.293-.203.55.173-.024.273Zm4.287-4.803-.292.202-.55-.173.024-.273.292-.202.55.173-.024.273Zm-3.39 5.084-.293.203-.55-.173.024-.273.294-.203.55.173-.024.273h-.002Zm2.077-2.82-.288.217.045-.294 1.25-1.875.288-.218-.045.295-1.25 1.874Zm-1.691 2.535-.292.224.049-.3 1.238-1.859.288-.218-.045.295-1.238 1.856v.002ZM29.912 34.185l-.288.219.045-.295 1.242-1.863.288-.218-.045.295-1.242 1.862Zm-1.691 2.537-.293.224.05-.3 1.238-1.86.288-.217-.045.294-1.238 1.859Zm3.897-4.519-.293.203-.549-.173.024-.273.292-.203.55.173-.024.273Zm-3.39 5.085-.293.202-.55-.173.024-.273.292-.202.55.172-.024.274Zm4.287-4.804-.293.203-.55-.173.024-.273.293-.203.55.173-.024.273Zm-3.391 5.084-.293.203-.549-.173.024-.273.294-.202.55.172-.024.273h-.002Zm2.078-2.82-.289.218.046-.295 1.25-1.874.288-.218-.045.294-1.25 1.874Zm-1.692 2.536-.292.224.05-.3 1.237-1.86.289-.218-.046.295-1.238 1.857v.002ZM26.938 33.007l-.289.218.045-.295 1.242-1.862.289-.218-.045.294-1.242 1.863Zm-1.692 2.536-.292.224.049-.3 1.238-1.859.288-.218-.045.295-1.238 1.858Zm3.897-4.518-.292.202-.55-.173.024-.273.292-.202.55.172-.024.274Zm-3.39 5.084-.293.202-.55-.173.024-.273.293-.202.549.173-.024.273Zm4.287-4.804-.293.203-.549-.173.024-.273.292-.203.55.173-.024.273Zm-3.39 5.085-.293.202-.55-.173.024-.273.294-.202.55.173-.024.273h-.002Zm2.077-2.821-.288.218.045-.295 1.25-1.874.288-.218-.045.295-1.25 1.874Zm-1.691 2.536-.293.224.05-.3 1.238-1.86.288-.217-.045.294-1.238 1.857v.002ZM23.92 31.952l-.289.218.045-.295 1.242-1.862.289-.218-.045.294-1.242 1.863Zm-1.692 2.536-.292.224.049-.3 1.238-1.859.289-.218-.046.295-1.238 1.858Zm3.897-4.518-.292.202-.55-.173.024-.273.292-.202.55.173-.024.273Zm-3.39 5.084-.293.202-.55-.173.024-.273.293-.202.549.173-.024.273Zm4.287-4.803-.292.202-.55-.173.024-.273.292-.202.55.172-.024.274Zm-3.39 5.084-.293.202-.55-.173.024-.273.294-.202.55.173-.024.273h-.002Zm2.077-2.821-.288.218.045-.295 1.25-1.874.288-.218-.045.295-1.25 1.874Zm-1.691 2.536-.293.224.05-.3 1.238-1.86.288-.217-.045.294-1.238 1.857v.002ZM24.516 35.46h-.408v.41h.408v-.41Z" fill="#C2724A"/><path d="M35.75 48.592 6.709 35.638a.385.385 0 0 1-.173-.549l8.665-14.42a.383.383 0 0 1 .46-.163L45.22 31.25c.221.08.318.34.204.546l-9.182 16.634a.384.384 0 0 1-.492.165v-.002ZM38.393 48.975 47.67 32.38a.469.469 0 0 1 .572-.212l15.173 5.558a.47.47 0 0 1 .252.668l-9.621 17.671a.47.47 0 0 1-.605.204l-14.83-6.634a.47.47 0 0 1-.218-.66Z" stroke="#C2724A" stroke-miterlimit="10"/><path d="m46.071 36.392 1.474-2.654a.202.202 0 0 1 .25-.09l3.9 1.486a.202.202 0 0 1 .108.281l-1.385 2.725a.202.202 0 0 1-.254.096l-3.989-1.557a.203.203 0 0 1-.104-.287ZM51.036 38.296l1.556-2.655a.219.219 0 0 1 .263-.09l4.122 1.487c.118.044.173.173.114.281l-1.464 2.725a.218.218 0 0 1-.267.096l-4.214-1.558a.2.2 0 0 1-.11-.286ZM56.25 40.268l1.571-2.654a.222.222 0 0 1 .265-.09l4.164 1.487c.12.043.172.173.116.28l-1.478 2.726a.223.223 0 0 1-.27.096l-4.259-1.558c-.121-.045-.172-.179-.11-.287ZM43.926 40.388l1.474-2.654a.203.203 0 0 1 .25-.09l3.65 1.45a.202.202 0 0 1 .107.282L48.022 42.1a.202.202 0 0 1-.253.096l-3.738-1.523a.203.203 0 0 1-.105-.286ZM48.64 42.256l1.556-2.654a.219.219 0 0 1 .263-.09l4.122 1.487c.118.043.173.173.114.28l-1.464 2.725a.218.218 0 0 1-.266.097l-4.215-1.558a.2.2 0 0 1-.11-.287ZM53.855 44.228l1.572-2.654a.222.222 0 0 1 .265-.09l4.164 1.487c.12.043.173.173.116.281l-1.478 2.725a.223.223 0 0 1-.27.096l-4.259-1.558c-.121-.045-.172-.178-.11-.287ZM41.637 44.323l1.55-2.61a.2.2 0 0 1 .25-.082l3.857 1.601a.201.201 0 0 1 .1.283L45.93 46.2a.2.2 0 0 1-.255.088l-3.942-1.675a.202.202 0 0 1-.094-.29h-.002ZM46.505 46.482l1.38-2.766a.218.218 0 0 1 .264-.083l4.37 1.656c.118.047.167.18.106.283l-1.542 2.682a.219.219 0 0 1-.271.088l-4.207-1.571a.196.196 0 0 1-.1-.29ZM51.699 48.496l1.407-2.657a.22.22 0 0 1 .267-.082l4.362 1.658c.117.047.169.179.108.283l-1.558 2.682a.222.222 0 0 1-.273.088L51.8 48.784c-.12-.047-.169-.184-.102-.288ZM39.317 48.342l1.55-2.609a.2.2 0 0 1 .252-.082l3.855 1.6a.201.201 0 0 1 .1.284l-1.463 2.683a.2.2 0 0 1-.255.089l-3.943-1.676a.202.202 0 0 1-.094-.289h-.002ZM44.225 50.391l1.632-2.607a.218.218 0 0 1 .265-.082l4.078 1.607c.117.047.167.179.106.283l-1.543 2.681a.219.219 0 0 1-.27.089l-4.168-1.682a.196.196 0 0 1-.1-.289ZM49.393 52.6l1.503-2.741a.22.22 0 0 1 .267-.083l4.252 1.659c.118.047.17.178.108.282l-1.558 2.786a.221.221 0 0 1-.272.089l-4.198-1.704c-.12-.047-.168-.184-.102-.288ZM36.505 33.636l-.467.972M36.739 34.12l-.467.23.233.362M37.375 34.89s-.5-.056-.467-.335c0 0 .166-.395.467-.203 0 0 .467.05 0 .539Z" stroke="#C2724A" stroke-miterlimit="10"/><path d="M36.505 35.256s.434.715.87-.367" stroke="#C2724A" stroke-miterlimit="10"/></g></svg>