<svg width="257" height="379" fill="none" xmlns="http://www.w3.org/2000/svg"><g opacity=".6" stroke="#B04B19"><path d="m23.13 43.391 163.201-17.547 46.274 27.355-2.632 60.196-45.15-10.091-161.693 4.305V43.391Z" stroke-miterlimit="10"/><path d="m26.044 46.669 157.967-17.351-3.474 70.578-154.493 3.081V46.669ZM189.417 32.4l39.784 22.37-2.319 54.768-40.939-10.03 3.474-67.109ZM26.044 107.529v115.008h3.863l2.32-115.008M178.974 103.46l-5.007 142.601 2.506 1.546 5.996-144.242 2.354-.061-5.375 142.968M222.863 112.121l-3.6 116.282M35.716 107.272l59.076 9.592v-11.163" stroke-miterlimit="10"/><path d="m59.269 106.648 32.82 5.473v-6.35M176.473 247.607l45.492-20.418 7.236-113.97M176.473 250.305l48.866-23.141v8.484l-45.941 19.285-5.431 99.761 44.161-39.596 3.52-77.562" stroke-miterlimit="10"/><path d="m223.544 236.404-3.616 81.78-43.455 40.11v11.571l-4.432 3.082-4.251-3.082v-11.702L23.73 314.972l-2.32-93.85h4.634M225.339 227.164l-3.374.025M29.937 221.122h4.71M34.647 222.537h-4.74" stroke-miterlimit="10"/><path d="m26.044 222.537-1.371.241 91.186 14.225 58.108 9.058M21.527 225.754l154.946 24.552M27.335 231.021l145.603 24.425-3.09 99.248-143.546-42.295 1.033-81.378ZM30.16 316.895v12.946l5.072 2.396v-13.821M35.232 332.237l2.571-1.883v-11.163M217.972 319.992v11.389l-2.849 3.772v-12.039M211.023 326.402v7.381l4.1 1.37M37.198 211.822l-4.982.488c-.756.161-1.069.715-.156 1.244.005 0 .404.186.413.186 6.767 1.219 41.524 7.357 46.753 5.962l12.097-3.273" stroke-miterlimit="10"/><path d="M37.198 212.713s.368.161.378.161c6.177 1.058 37.889 6.385 42.659 5.176l11.86-3.373M33.9 214.002l.747 10.332M78.49 219.833v11.188M96.209 199.914l-3.091 8.741s.514.901 1.351.644l11.008-7.457s1.028-1.284.771-1.672c-.257-.387-10.04-.256-10.04-.256Z" stroke-miterlimit="10"/><path d="m83.21 231.907 3.857-9.37h1.548l5.86-13.243M91.767 233.241s-1.609-8.65-3.152-10.704M128.011 202.099l9.011 1.027s-1.16 7.225-2.703 10.876h-1.16l-5.148-11.133s-.257.771 0-.77ZM125.561 238.03l3.348-9.94s.645-.926-1.674.489c-2.32 1.415-9.783 6.43-9.783 6.43s-.872 0-1.593 1.994M104.443 202.542l24.077 1.425M133.159 214.002l-5.264 14.088M100.46 205.241l29.432 1.697M131.843 211.434l-6.156 17.538M97.585 207.184l-7.765 18.077M91.313 231.021l27.022 3.393" stroke-miterlimit="10"/><path d="m137.022 203.126 11.199.841s.771 1.742 0 2.12c-.772.378-11.199 7.91-11.199 7.91h-2.703M128.994 228.971s1.664-1.278 2.849 0c0 0 3.863 8.656 3.893 9.895l.025 1.238M161.281 244.082s10.886-7.432 12.691-9.667M175.142 212.713l-2.97-5.775s-.03-.443 2.97 0M180.9 207.648h3.369l-3.792 11.283M148.221 206.087l23.946 1.561M135.217 214.002l-5.325 14.4M143.582 209.294l31.101 2.528M135.217 237.078l29.326 4.733M140.592 211.434l-7.12 21.284M137.022 214.002l-5.179 14.969M207.958 233.241l.514-24.677-24.203 11.636-.595 24.174M183.109 216.092l23.402-10.101M128.011 202.099l5.461-7.074 19.64 1.545-4.891 7.397M137.793 195.024s.378-4.113 5.789-3.982c0 0 5.627-.569 5.758 5.231M175.54 201.228l-2.602 4.013-22.398-1.274 4.503-6.757 20.497 1.032M160.196 197.21s.132-4.371 5.023-4.245c0 0 5.904-.79 6.297 5.071" stroke-miterlimit="10"/><path d="M155.043 197.21s-.6-6.803 10.171-7.714c0 0 8.133-.388 9.923 5.015M180.436 219.913h.873c.882-.312 3.514-10.186 3.514-10.186l-.554-2.079 12.873.916 3.091-7.336-19.04-1.334s2.435-4.809 7.609-4.809c0 0 5.254.403 6.62 5.805M197.142 208.564v1.163M172.938 205.241v1.495M150.54 203.967v2.024" stroke-miterlimit="10"/><path d="M181.4 194.39s1.714-2.578 8.279-2.195c0 0 10.171.831 10.559 9.028l3.509 5.961" stroke-miterlimit="10"/><path d="M201.872 204.007h6.6s1.8.161 1.8 2.08l-.63 26.631M203.036 205.991l3.036.121M181.929 218.931l-.529 26.465M130.527 198.836l-1.765.66-8.35 3.046-.771.715M122.424 203.609l6.57-2.784M115.859 187.885l2.108-27.568c4.745 4.129 9.888-.584 8.693-.503-.096.005.176-.025.166.065l-1.745 26.536-9.227 1.47-23.765-2.759v-26.229l4.12-5.785 26.215.514" stroke-miterlimit="10"/><path d="m92.09 158.902 25.877 1.415 4.457-6.686 4.427 5.916M102.003 153.117s.887-5.911 7.457-5.529c0 0 6.56-.644 7.019 5.529" stroke-miterlimit="10"/><path d="M96.209 153.117s0-8.101 12.233-9.768c0 0 13.291 0 13.982 10.287M92.09 185.125l-1.902 1.159 24.985 2.316 15.354-1.737.898-.841c.58-.544.786-1.375.524-2.125a.46.46 0 0 0-.433-.312h-6.243M125.243 184.743h6.938" stroke-miterlimit="10"/><path d="M90.188 186.284v2.316l24.173 2.427 16.166-2.427.898-2.578M90.022 190.015s-1.896 3.675-2.501 6.54c-.04.187-1.478 3.58 3.277 4.27l4.942.403M105.099 202.099l6.303.443 2.188-10.382 16.937-2.669 2.945 5.534s2.098-7.583 10.1-7.326c0 0 9.157 0 9.545 8.871v3.54M90.803 188.6v1.394M129.892 188.695v.897M115.173 188.6l-.812 2.427M113.761 203.096l8.32-1.163" stroke-miterlimit="10"/><path d="m106.021 201.047 3.959.352 2.017-8.187-21.194-1.903s-2.319 5.498-2.188 6.727c.131.861.832 1.52 1.694 1.601l5.794.579M66.595 217.265v-10.524s2.45-.544 6.742 0l5.153-.241-.69 7.436-.908 4.275M54.877 215.649l-.51-9.562s4.085-.715 5.905-.222c.469.126.948.202 1.432.177 1.528-.081 4.523-.252 5.148-.348v.806" stroke-miterlimit="10"/><path d="m43.92 213.932-.555-9.315s5.602-1.491 7.66-.464c0 0 2.248.856 3.474.373.156-.06.322.045.322.211v1.279" stroke-miterlimit="10"/><path d="m37.571 212.874-1.396-9.083s3.605-1.224 4.89-.539c0 0 2.325.367 3.646.06a.517.517 0 0 1 .646.494v.362M46.3 203.791v-1.642c0-.382.348-.68.726-.609 1.038.186 3.005.483 4.68.388 0 0 3.519.478 5.062 0M56.773 205.694v-3.081c0-.781.635-1.415 1.416-1.415 1.66-.005 4.377.095 5.966.74 0 0 2.264.967 3.787.72a.4.4 0 0 1 .453.438l-.292 3.404M78.49 207.255l4.72-.76s1.286.418 2.571.342c1.286-.075 2.617-.74 2.83.096.342 1.359-1.685 9.627-1.947 9.29M68.395 203.791s4.513.176 8.976-.539l2.985.352M80.119 206.938l.358-4.94a.345.345 0 0 1 .464-.302c1.033.368 3.716 1.264 5.617 1.435 2.405.217 4.8-.539 6.565 0 1.765.539 1.351 1.491 1.351 1.491M94.792 116.864l-.277 38.635M90.803 116.214l-.983 73.78 23.77 2.166.171-1.083M89.447 200.503v2.542M91.313 200.825v1.838M71.365 50.44s-.943-.941-1.2-.684c-.257.256-.514 1.883-.514 1.883s.514 2.316 0 2.658c-.514.343-1.543 1.284-2.32 2.145-.776.861-1.457 1.969-1.714 3.001-.257 1.032-.459 3.343-.358 5.141.1 1.798.53 3.343.53 3.343s-1.458.086-1.544-.941c0 0-.771-1.027-.685-4.028.085-3.001.514-6.088-2.663-7.2 0 0-5.748-.685-5.32 5.74 0 0-.685 3.64 3.006 4.647 0 0-.504-3.963.69-2.935.258.221.465.458.636.69.479.659.711 1.475.706 2.29 0 .68.03 1.98.484 2.96.192.414.54.731.953.927 1.588.77 6.152 2.266 10.604-1.233a2.32 2.32 0 0 0 .716-.932l.141-.337-.55-.171a.725.725 0 0 1-.443-.992c.469-1.063.988-2.97-.893-3.636l-.171-2.351h2.062s.686-.221 0-1.42l-1.285-.6s.085-2.315.257-2.829c.171-.513 2.148-.599 2.576-1.626.429-1.027 1.715-3.087-3.69-3.515l-.01.005ZM125.439 45.435s1.039-1.017 1.347-.77c.307.246.701 1.878.701 1.878s-.464 2.377.151 2.694c.615.317 1.856 1.203 2.793 2.024.938.82 1.261 1.797 1.614 2.82.353 1.022.721 3.358.701 5.19-.02 1.834-1.069 3.153-1.069 3.153s3.071-2.236 2.38-5.207c-.731-3.172-1.044-7.502 3.227-8.64 0 0 7.009-1.45 6.298 6.903 0 0-.489 3.606-3.797 4.915 0 0 .963-3.369-.131-3.303-.706.04-1.074.725-1.417 1.223-.494.715-.439 2.195-.388 3.021.045.69-.555 1.611-1.029 2.634-.197.428-1.664 1.445-2.123 1.671-1.79.881-6.096 2.971-11.431-.292a2.406 2.406 0 0 1-.877-.896l-.182-.332.626-.212c.474-.156.68-.64.458-1.032-.6-1.047-1.311-2.95.827-3.746l.066-2.392-2.375.131s-.807-.181-.081-1.44l1.452-.69s1.488-3.504 1.261-4.018c-.227-.514-2.511-.473-3.061-1.485-.549-1.012-2.153-3.016 4.059-3.797v-.005Z" stroke-miterlimit="10"/><path d="M81.273 48.738c.515-.05 1.07.292 1.665 1.028.499.569.76 1.273.776 2.11.01.402-.04.865-.146 1.384.63-.06 1.32.262 2.077.962.5.478.757 1.057.772 1.742.02.992.02 2.17 0 3.535a136.88 136.88 0 0 0 .015 4.209c.02.977.237 1.445.645 1.405.187-.02.5-.116.943-.302l-.287-13.047a5.09 5.09 0 0 0-.333-1.712c-.222-.428-.333-.775-.338-1.037-.015-.619.323-.961 1.004-1.027.786-.075 1.447.09 1.966.509.535.443.812 1.062.832 1.853l.282 12.955c.52-.267 1.074-.564 1.66-.881.115-.06.221-.116.312-.171l-.161-7.266c-.026-1.209-.237-2.165-.636-2.87-.206-.413-.312-.76-.317-1.037-.01-.494.353-.78 1.089-.851.62-.06 1.215.16 1.795.664.565.489.857 1.174.877 2.055l.318 14.486c.02.806-.429 1.249-1.336 1.34-1.014.095-2.582-.258-4.71-1.058a14.999 14.999 0 0 1-.736-.277c-1.432.7-2.415 1.072-2.94 1.123-.892.085-1.538-.116-1.931-.605-.424-.594-.645-1.55-.676-2.864l-.176-8.082a7.749 7.749 0 0 0-.363-2.084l-.02-.066a41.02 41.02 0 0 1-1.044 2.845c.086.226.156.448.212.675.327 1.148.54 3.831.63 8.06.03 1.3-.076 2.231-.313 2.8-.242.489-.524.75-.852.78-.489.046-.902-.2-1.24-.74-.464-.684-.706-1.465-.721-2.35-.01-.449.065-1.154.232-2.115.181-1.35.262-2.8.242-4.35a.977.977 0 0 1-.373.13c-1.014.096-1.533-.534-1.564-1.898-.01-.574.091-1.073.303-1.496a21.117 21.117 0 0 0 1.7-3.54 4.475 4.475 0 0 0 .297-1.701 2.925 2.925 0 0 0-.182-.982 2.423 2.423 0 0 1-.156-.82c-.02-.882.287-1.355.918-1.416l-.01-.005Zm9.586 17.895c1.003.151 1.654.212 1.941.187.278-.026.414-.141.409-.343l-.026-1.092c-.857.483-1.633.9-2.324 1.248ZM99.265 57.797c.408-.04.766.02 1.069.176h.02l.418.075c.131-.015.454-.136.958-.372 1.2-.55 2.058-.851 2.572-.902.787-.075 1.462.217 2.017.877.514.584.781 1.465.807 2.643l.075 3.369c.01.372-.01.69-.055.961.227.242.348.534.353.871.015.806-.323 1.294-1.014 1.47-1.845.504-3.262.806-4.25.902-.843.08-1.579-.237-2.214-.952-.545-.675-.827-1.566-.847-2.663l.096-2.896c-.01-.538-.172-1.163-.474-1.863-.207-.322-.308-.553-.313-.69-.015-.619.247-.956.787-1.006h-.005Zm1.447-9.819c.449-.045.817.02 1.109.196h.061l.337.056c.253-.025.762-.166 1.533-.428 2.915-1.042 4.997-1.622 6.248-1.742 1.497-.146 2.667.035 3.509.543.721.534 1.094 1.199 1.11 1.984.02.821-.177 1.823-.585 3.011.282.297.428.675.438 1.123.015.62-.368.997-1.139 1.133-3.217.468-5.991 1.068-8.32 1.808-.6.196-1.089.312-1.457.352-1.024.1-1.831-.211-2.411-.931-.579-.69-.887-1.667-.912-2.936-.031-1.344-.146-2.19-.353-2.527-.162-.202-.247-.373-.247-.514-.015-.68.348-1.058 1.084-1.128h-.005Zm3.545 16.455c0-.388.02-.83.05-1.33.02-.84.02-1.777 0-2.814-.01-.494-.182-.725-.509-.695-.157.015-.812.317-1.957.911l-.217 3.51c.016.68.253.997.711.957.434-.04.989-.192 1.669-.438.106-.04.192-.076.258-.096l-.005-.005Zm6.192-13.258c.06-.282.151-.604.277-.956.181-.7.272-1.158.267-1.375-.005-.292-.222-.423-.64-.378-.762.076-1.805.338-3.127.79-1.87.645-3.257 1.084-4.159 1.31.045.307.08.634.1.992.021.947.348 1.385.979 1.324.287-.03.847-.181 1.669-.463 1.961-.655 3.509-1.067 4.639-1.239l-.005-.005Zm-1.967 4.985c.408-.04.777.035 1.109.217.026-.016.046-.03.061-.03l.418.05c.147-.015.469-.156.979-.418 1.265-.59 2.163-.907 2.687-.957.802-.075 1.488.212 2.057.871.5.59.762 1.476.792 2.669l.081 3.786c.01.448-.02.831-.096 1.148.202.227.308.489.313.786.02.82-.323 1.324-1.014 1.515-1.886.479-3.333.766-4.331.861-.842.081-1.579-.226-2.214-.926-.544-.68-.827-1.571-.852-2.689l.01-3.167c-.01-.574-.187-1.228-.519-1.974-.217-.337-.328-.579-.333-.735-.015-.62.267-.956.847-1.012l.005.005Zm5.214 7.08c0-.464.015-1.013.045-1.632a70.8 70.8 0 0 0-.01-3.071c-.01-.479-.166-.705-.469-.675-.171.015-.857.332-2.057.942v.07l-.131 3.922c.015.68.287.997.812.947.393-.04.917-.176 1.573-.408.091-.04.171-.07.237-.09v-.005ZM84.117 247.34c.373.05.706.382 1.009 1.002.257.488.328 1.027.201 1.621-.06.287-.17.604-.332.957.453.06.892.403 1.306 1.022.272.423.358.871.257 1.359a62.685 62.685 0 0 1-.585 2.498 94.63 94.63 0 0 0-.686 2.981c-.146.694-.07 1.057.222 1.097.131.02.373 0 .716-.055l1.957-9.27a3.57 3.57 0 0 0 .045-1.264c-.086-.337-.106-.604-.066-.79.091-.438.389-.63.883-.559.57.075 1.008.302 1.306.685.307.403.398.881.282 1.445l-1.941 9.204a41.72 41.72 0 0 0 1.32-.347c.092-.02.177-.046.248-.071l1.09-5.161c.18-.856.186-1.571.024-2.135-.075-.327-.096-.589-.055-.785.076-.353.378-.494.907-.423.45.06.832.317 1.16.765.318.438.409.972.277 1.596l-2.173 10.292c-.12.574-.509.816-1.165.725-.73-.101-1.784-.604-3.151-1.525a12.535 12.535 0 0 1-.474-.318c-1.13.257-1.886.358-2.264.307-.645-.085-1.069-.337-1.266-.745-.196-.488-.201-1.203 0-2.14l1.21-5.74c.096-.463.127-.972.091-1.53v-.051a32.5 32.5 0 0 1-1.215 1.838c.02.171.035.342.04.514.04.866-.252 2.799-.887 5.8-.197.922-.424 1.566-.686 1.929-.252.307-.494.443-.73.412-.354-.045-.606-.292-.757-.73a3.088 3.088 0 0 1-.121-1.782c.065-.317.237-.806.514-1.455.353-.927.65-1.939.888-3.036-.106.03-.197.04-.283.03-.731-.096-.993-.63-.791-1.596.085-.408.237-.741.463-1.007.636-.65 1.23-1.39 1.79-2.221.242-.362.409-.75.495-1.153.05-.242.06-.483.035-.725a1.784 1.784 0 0 1 .025-.609c.131-.625.429-.912.882-.851l-.015-.005Zm3.812 14.229c.686.272 1.135.423 1.342.453.201.025.312-.03.343-.176l.166-.775c-.686.201-1.306.367-1.85.498ZM95.337 256.71c.292.04.54.141.726.302h.015l.282.126c.096.015.343-.02.741-.106.938-.191 1.594-.261 1.967-.211.57.076.998.393 1.281.952.267.498.312 1.168.136 2.004l-.504 2.391a3.427 3.427 0 0 1-.202.67.922.922 0 0 1 .106.675c-.121.569-.439.861-.963.871-1.387.05-2.44.03-3.152-.066-.61-.08-1.079-.428-1.407-1.037-.272-.569-.322-1.244-.16-2.024l.544-2.029c.08-.383.07-.851-.03-1.395-.091-.262-.127-.443-.106-.539.09-.438.332-.634.726-.579v-.005Zm2.43 5.514c.066-.272.151-.584.257-.932.151-.589.308-1.254.464-1.989.076-.352-.005-.543-.247-.574-.116-.015-.625.091-1.533.323l-.736 2.447c-.1.483.015.75.348.79.313.04.731.03 1.255-.035.081-.01.147-.02.197-.025l-.005-.005Zm.217-12.216c.323.046.575.151.751.323h.04l.227.105c.182.026.565.01 1.155-.05 2.234-.257 3.802-.322 4.705-.201 1.084.146 1.88.463 2.39.961.423.499.575 1.028.459 1.586-.121.585-.429 1.259-.913 2.035.151.256.191.543.126.866-.091.438-.424.644-.993.614-2.355-.201-4.412-.232-6.182-.096-.46.041-.822.046-1.084.01-.742-.1-1.261-.448-1.553-1.057-.298-.584-.353-1.324-.162-2.226.202-.956.257-1.571.172-1.842-.081-.172-.111-.303-.091-.403.1-.484.418-.69.953-.62v-.005Zm6.353 3.867a5.7 5.7 0 0 1 .353-.629c.247-.463.383-.775.419-.926.045-.207-.086-.333-.389-.373-.549-.076-1.331-.06-2.339.045-1.427.146-2.481.227-3.157.237-.015.221-.05.463-.09.715-.142.67.015 1.037.474 1.098.206.025.63.01 1.255-.056 1.493-.141 2.657-.176 3.484-.111h-.01Zm-2.213 3.198c.292.04.544.151.751.337.02-.01.035-.01.045-.01l.288.106c.106.015.358-.03.761-.136.993-.207 1.679-.282 2.057-.232.58.076 1.014.398 1.306.957.258.498.298 1.168.116 2.019l-.564 2.689a3.283 3.283 0 0 1-.258.795.85.85 0 0 1 .091.605c-.121.584-.444.886-.968.906-1.412.025-2.481-.01-3.202-.106-.61-.08-1.079-.423-1.412-1.017-.272-.569-.322-1.249-.156-2.039l.529-2.236c.086-.408.071-.901-.04-1.48-.101-.272-.136-.463-.111-.574.091-.438.348-.63.767-.574v-.01Zm2.516 5.866c.08-.328.181-.71.302-1.148.167-.645.333-1.37.505-2.17.07-.343 0-.524-.222-.554-.126-.015-.661.09-1.609.327 0 .02-.01.04-.01.05l-.741 2.749c-.101.484.035.751.418.801.283.04.676.03 1.18-.03.071-.015.131-.02.182-.025h-.005ZM76.77 70.969l41.711-2.186M80.633 75.984l5.92-1.159M84.879 72.51v4.244l-1.286.644"/><path d="M81.919 73.41s-.257 5.272.771 6.174h2.189M91.575 71.613l-1.704 4.39-1.387 3.58s2.32-5.397 3.605-3.086c0 0-1.028 3.344 0 3.087 1.029-.257 2.703-1.541 2.703-1.541M98.912 73.41l2.188-.9s-4.12 5.91 0 5.91c0 0 3.262-1.097 2.647-5a7.753 7.753 0 0 0-.201-.91l1.482 3.09M110.116 71.07l-2.96 7.356s2.319-4.758 3.605-3.021v3.02s.6 1.93 3.005-1.026M50.555 269.797c.328.1.585.322.772.659a3.46 3.46 0 0 1 .373 1.742 6.917 6.917 0 0 1-.1.791c.115-.176.221-.337.317-.473.625-.866 1.094-1.289 1.407-1.269.938.055 1.376.634 1.316 1.732-.036.569-.172.962-.409 1.173-.186.217-.438.332-.756.358-.484.196-1.08.518-1.785.971a6.567 6.567 0 0 1-.535.675l-.015.277c-.03.222-.05.438-.06.639.464-.196.786-.322.963-.372 1.14.206 1.679.846 1.618 1.903-.04.675-.232 1.153-.58 1.44-.357.448-.907.745-1.648.886a2.866 2.866 0 0 1-.731.388c-.036.347-.066.69-.086 1.037a.864.864 0 0 1 .343-.04c1.033.242 1.71.609 2.032 1.098.07-.302.141-.625.212-.972a98.22 98.22 0 0 0 .973-4.637c.227-.867.408-1.949.554-3.253.081-1.058.318-1.576.722-1.556.242.015.463.086.665.222a.966.966 0 0 0 .162-.051 23.43 23.43 0 0 0 2.793-.297 1.579 1.579 0 0 0-.187-.438c-.322-.468-.479-.775-.469-.916.04-.428.167-.766.374-1.023.171-.216.443-.312.827-.287.66.041 1.36.293 2.102.766.5.458.797.886.893 1.279.459-.056.832-.096 1.134-.121.47.045.918.166 1.342.352.332.247.494.529.473.856-.05.856-.464 1.355-1.24 1.496-.882.196-1.694.322-2.43.382-.283.026-.545.051-.792.076.035.247.05.503.035.77-.02.308-.025.589-.025.856.353-.06.686-.105 1.003-.126.379-.468.64-.699.802-.689.293.035.752.312 1.367.815.489.6.71 1.32.66 2.155-.02.308-.045.589-.075.856.156-.01.282-.015.368-.01.489.031.953.312 1.391.846.308.388.444.886.409 1.496-.05.876-.6 1.284-1.644 1.223a5.76 5.76 0 0 1-1.27-.226c-.046.201-.102.392-.167.574.53.236.771.679.736 1.329-.055.916-.62 1.531-1.704 1.833a67.63 67.63 0 0 1-2.668.428 1.923 1.923 0 0 1-.267.538c.762-.181 1.367-.256 1.82-.231.555.05 1.206.307 1.947.755.781.68 1.155 1.314 1.12 1.903-.132 1.038-.636 1.969-1.524 2.795.318.529.47.987.444 1.374-.06 1.018-.5 1.506-1.316 1.461-.12-.005-.393-.106-.822-.292a7.153 7.153 0 0 0-.52-.061c-.332 0-.952.035-1.865.106-.7.081-1.316.146-1.845.201-.167.177-.338.257-.515.247-.59-.035-1.22-1.062-1.89-3.086-.369-1.148-.545-2.08-.52-2.795a7.883 7.883 0 0 1 .378-1.571c.288-.473.545-.705.772-.69.575.056 1.003.302 1.29.75.409-.08.823-.176 1.251-.297a2.85 2.85 0 0 1-.161-.835c-.439.035-.782.045-1.024.035-1.079-.061-1.603-.388-1.568-.982.05-.549.459-1.118 1.225-1.707.333-.06.802-.146 1.402-.257l.056-.946c-.994.292-1.7.559-2.113.8-.454-.025-.777-.126-.979-.302a997.374 997.374 0 0 1-1.063 3.928 40.792 40.792 0 0 1-1.453 4.305 96.73 96.73 0 0 0-1.618 2.608c-.07 0-.126-.121-.162-.348-.06-.126-.08-.433-.05-.921.222-1.38.66-3.615 1.331-6.707.09-.362.172-.735.247-1.123a1.29 1.29 0 0 1-.474.066c-.61-.036-1.104-.217-1.487-.544l-.404 6.974c-.075 1.037-.302 1.873-.67 2.507-.51.665-.893 1.073-1.145 1.224-.398-.066-.635-.373-.706-.932-.086-.332-.136-.926-.156-1.787.131-2.568.272-5.202.428-7.89a17.13 17.13 0 0 1-1.144 1.681c-.368.595-.726 1.063-1.08 1.41-.317.348-.569.609-.75.786-.59.559-1.044.83-1.357.81-.035-.045-.04-.236-.02-.584.07-.322.212-.755.413-1.294.207-.579.414-1.113.616-1.591.297-.639.61-1.304.927-2.004.45-.836.868-1.576 1.256-2.23a2.159 2.159 0 0 1-.58.09c-.504-.03-.928-.267-1.266-.72-.438-.599-.64-1.193-.605-1.782.066-.836.505-1.319 1.316-1.46.666-.086 1.25-.192 1.75-.328.333-.06.67-.166 1.014-.307l.343-5.901c.045-.816.242-1.46.584-1.929.444-.382.913-.558 1.417-.533l.01-.01Zm-3.514 1.943c.297.015.52.227.67.625.207.604.293 1.243.258 1.918-.056.977-.142 1.651-.247 2.009-.096.463-.253.69-.46.68-.362-.02-.786-.599-1.26-1.732-.398-.962-.6-1.581-.6-1.843.086-1.163.63-1.712 1.639-1.657Zm11.481 5.665.01-.151a2.682 2.682 0 0 0-.085-.801 4.513 4.513 0 0 1-.101-.559c-.161.03-.293.066-.398.101-.379.221-.712.357-.994.403-.116.463-.262 1.047-.444 1.752a72.267 72.267 0 0 1-.685 3.212c.232-.09.463-.166.695-.236.303-.086.918-.202 1.856-.353v-.03h-.025c-1.044-.06-1.66-.75-1.846-2.069.026-.408.182-.715.474-.927a3.216 3.216 0 0 1 1.22-.267c.127-.035.233-.06.318-.075h.005Zm-.56 15.523c1.014-.025 1.68-.211 1.997-.559.595-.372 1.009-.987 1.23-1.833-.509.378-1.154.64-1.93.781-.5.156-.964.362-1.397.624.035.307.065.64.1.987Zm2.86-9.562c-.02.348-.03.675-.03.982.16-.05.292-.106.403-.161.106-.302.202-.614.287-.936-.227.03-.449.065-.66.115Zm1.285-3.177c.036-.327.06-.599.076-.826.025-.407-.015-.614-.121-.619a8.24 8.24 0 0 1-1.044.831l-.045.765c.388-.04.766-.09 1.134-.151ZM74.93 294.449c-.822 1.294-1.926 2.512-3.318 3.67-.781.856-1.936 1.536-3.459 2.045.07-.368.53-1.249 1.377-2.649 1.089-1.354 1.986-2.684 2.698-3.983.776-1.228 1.366-2.89 1.77-4.985.493-2.286.892-5.246 1.204-8.882.127-1.263.348-2.21.661-2.839.504-.856.888-1.274 1.145-1.254.388.055.806.443 1.25 1.158.414.649.58 1.455.5 2.412-.036.413-.081.815-.132 1.208.474-.508.842-.75 1.1-.73.912.076 1.32.67 1.225 1.783-.056.654-.227 1.112-.51 1.369-.206.247-.499.388-.877.418a8.724 8.724 0 0 0-1.523.76 115.336 115.336 0 0 1-.675 3.298c-.257 1.712-.595 3.142-1.009 4.29.595.292 1.06.66 1.397 1.108.363.559.514 1.193.454 1.913-.121 1.415-.626 2.085-1.518 2.009-.373-.03-.69-.276-.948-.74-.303-.639-.57-1.102-.812-1.384v.005Zm-1.92-13.787c.725.061 1.018 1.34.881 3.827l-.181 2.155c-.202 1.697-.59 2.518-1.165 2.467-.857-.07-1.407-1.173-1.659-3.298-.065-1.213-.08-2.024-.045-2.442.076-.649.328-1.344.766-2.074.51-.463.974-.675 1.402-.64v.005Zm16.967 6.934c1.104.201 1.603.936 1.497 2.2-.06.72-.66 1.722-1.8 3.006-1.392 1.637-3.111 3.349-5.153 5.126-2.456 2.251-4.549 3.927-6.268 5.03-.222.181-.575.368-1.059.569-.52.176-.862.257-1.034.242-.166-.015-.242-.111-.226-.282.03-.131.564-.831 1.613-2.1 1.856-2.256 3.444-4.073 4.76-5.453 1.07-1.138 2.284-2.427 3.64-3.872 1.544-1.626 2.421-2.679 2.628-3.167.186-.227.363-.539.53-.942.18-.181.473-.302.872-.352v-.005Zm-8.905-4.965c.444.061.796.297 1.064.715.52.045 1.008-.101 1.467-.433.146.035.217.106.207.217-.666.8-1.11 1.576-1.321 2.326l-.152 1.797c-.065.564-.585.806-1.548.725-.963-.1-1.381-.906-1.255-2.411a7.845 7.845 0 0 1 .469-1.868c.474-.731.832-1.083 1.074-1.063l-.005-.005Zm4.311-7.764c1.114.096 1.876.519 2.28 1.279.221.458.337 1.435.342 2.925-.01 2.744-.07 4.799-.186 6.173-.137 1.637-.374 2.951-.701 3.958-.177.952-.616 1.626-1.322 2.029a15.73 15.73 0 0 1-.736.398c-.297.171-.63.388-1.008.639-.328.348-.66.595-.989.741-.297.171-.584.246-.862.221-.544-.176-.796-.735-.756-1.677-.015-.483-.131-.901-.343-1.248-.212-.393-.333-.72-.368-.987.04-.262.126-.383.257-.373l1.311.111c.837.07 1.336-.534 1.503-1.813.302-1.334.61-3.887.933-7.658.075-.917.09-1.647.045-2.2-.146-.937-.212-1.486-.197-1.662.121-.559.389-.846.802-.856h-.005Zm4.594 7.105c.857.07 1.74.478 2.652 1.213.802.901 1.17 1.787 1.094 2.659-.05.609-.252 1.067-.595 1.364-.439.534-.872.781-1.3.745-.243-.02-.545-.186-.913-.503-.333-.292-.55-.675-.661-1.143a2.869 2.869 0 0 0-.635-1.435c-.686-.74-1.019-1.219-1.004-1.435.06-.499.227-.881.49-1.143.15-.252.443-.358.872-.322ZM101.685 287.384c.459.031.822.126 1.089.287a38.844 38.844 0 0 1 2.819-1.032l.03-.604c.025-.111.05-.222.081-.337a6.655 6.655 0 0 1-1.614.176c-.817-.015-1.432-.292-1.845-.841-.479-.503-.701-1.077-.671-1.732.066-.967.736-1.606 2.012-1.923a47.663 47.663 0 0 1 3.166-.423c1.201-.091 2.582-.333 4.155-.71 1.795-.308 3.001-.494 3.611-.549 1.79.231 2.662.896 2.607 1.999-.051 1.102-.631 1.757-1.73 1.963-.761.121-1.447.237-2.062.338.07.272.096.584.08.946-.01.247-.045.504-.1.776.519.101 1.033.242 1.553.428.585-.418 1.028-.645 1.321-.685 1.517.227 2.239 1.158 2.163 2.8-.071 1.505-.439 2.814-1.099 3.927-.348.67-.792 1.213-1.337 1.631-.479.353-.978.524-1.502.514-.378-.005-.676-.111-.898-.317a2.65 2.65 0 0 1-1.059.453c-.494.216-1.174.443-2.047.675.081.07.151.136.212.206.176.207.318.569.418 1.088.762-.101 1.498-.202 2.214-.302 1.281-.091 2.42-.267 3.419-.519.57-.081 1.023-.121 1.356-.116.772.035 1.503.418 2.178 1.148.5.504.727 1.204.686 2.1-.06 1.233-.917 1.843-2.571 1.812-.651-.01-1.337-.09-2.063-.236a15.538 15.538 0 0 0-1.81-.267c-1.034.161-2.067.317-3.101.458.025.786.025 1.43 0 1.924-.081 1.706-.272 3.096-.575 4.174-.151 1.007-.62 1.757-1.396 2.235-.217.111-.474.252-.777.428-.282.197-.62.438-1.008.725-.333.398-.661.685-.984.861-.322.197-.62.292-.892.287-.646-.146-.963-.715-.958-1.702a2.611 2.611 0 0 0-.414-1.218c-.232-.363-.378-.68-.423-.952.055-.272.146-.413.272-.433.484-.04.872-.055 1.165-.05.943.015 1.477-.65 1.603-1.999.162-.76.303-1.984.429-3.671-.994.167-1.977.353-2.95.559-2.435.544-4.15 1.068-5.138 1.571-.943-.015-1.568-.297-1.88-.841-.41-.679-.601-1.233-.58-1.661.11-1.032 1.134-1.803 3.065-2.311.933-.232 3.449-.73 7.553-1.501a.914.914 0 0 0-.02-.201 8.56 8.56 0 0 1-.206-.947c-.278.066-.53.126-.762.191-.721.192-1.25.282-1.583.277-.252 0-.479-.05-.686-.146-.131.559-.439.836-.923.826-.963-.015-1.916-.951-2.854-2.809-.59-1.249-.862-2.342-.817-3.283.066-.922.263-1.748.59-2.488.595-.664 1.095-.992 1.493-.987l-.005.01Zm-.998 15.599c.524.031.942.262 1.255.695.691.01 1.326-.317 1.901-.982.187.026.277.096.272.207-1.008.972-1.654 1.918-1.926 2.835l-.101 2.089c-.05.63-.64.932-1.775.917-.942-.036-1.371-.887-1.29-2.548.05-.604.196-1.279.443-2.014.52-.801.928-1.199 1.221-1.194v-.005Zm3.085-9.934c.172-.065.353-.131.545-.191a28.939 28.939 0 0 0 1.901-.272c-.504-.393-.756-1.259-.756-2.608-.278.13-.535.236-.772.322a4.994 4.994 0 0 0-1.165.69c.071.7.157 1.384.247 2.059Zm4.115-3.882c.015.091.02.181.02.272.071.74.096 1.249.086 1.52-.03.65-.146 1.123-.348 1.41.358-.085.711-.166 1.049-.251.07-.559.297-1.209.691-1.944.257-.604.438-1.108.544-1.511-.681.172-1.336.328-1.971.474-.021 0-.041.01-.066.03h-.005Zm2.672-4.612c-.867.186-1.704.377-2.511.569.056.181.076.362.071.538l-.015.267c.912-.211 1.704-.332 2.375-.367l.03-.675c.005-.136.02-.247.045-.337l.005.005Zm2.027 3.605a6.199 6.199 0 0 0-.252.634c-.322 1.053-.69 1.924-1.099 2.614.893-.257 1.457-.418 1.689-.479.187.025.333.061.434.111.156-.222.308-.534.454-.937.388-.715.61-1.621.665-2.719-.711.348-1.341.61-1.891.781v-.005Zm2.043 13.252c.796.016 1.623.489 2.48 1.42.802 1.158 1.175 2.357 1.12 3.595-.025.559-.217 1.028-.57 1.405-.464.509-.928.761-1.387.755-.252 0-.579-.13-.988-.387a2.143 2.143 0 0 1-.761-1.123c-.066-.856-.207-1.586-.429-2.2-.428-1.088-.635-1.833-.615-2.236.04-.383.156-.685.358-.906.156-.222.424-.333.802-.323h-.01ZM136.069 295.667c.454 0 .912.146 1.376.428.152-.569.378-1.264.686-2.079.489-1.143.736-1.823.741-2.05.015-.428-.085-.644-.292-.644-.267.02-.958.478-2.083 1.374a53.983 53.983 0 0 1-1.381 1.652c-.368.367-.666.549-.893.549-1.568 0-2.561-.861-2.98-2.573.046-.836.681-1.622 1.911-2.357 1.089-.468 3.106-.7 6.056-.7.862-.327 1.432-.488 1.715-.488.695 0 1.568.554 2.611 1.657.626.634.923 1.369.898 2.205-.025.796-.504 1.324-1.437 1.591-.741.202-1.513.705-2.309 1.496-.681.654-1.382 1.102-2.108 1.344-.02.02-.03.02-.03 0 .272.347.499.685.675 1.012.086.227.167.448.232.675a22.95 22.95 0 0 0 1.251-.151 22.616 22.616 0 0 0 2.899-.333c.666-.1 1.175-.151 1.533-.151.847.02 1.659.418 2.43 1.194.53.574.782 1.349.752 2.326-.041 1.364-.958 2.049-2.753 2.049-.716 0-1.478-.095-2.285-.277-.64-.1-1.306-.176-2.006-.216-.343.04-.681.09-1.024.151.03.856.03 1.878-.005 3.061-.071 2.266-.388 4.154-.963 5.66-.701 1.938-1.493 2.905-2.38 2.905-.388.287-.741.519-1.069.705a2.308 2.308 0 0 1-1.064.609 2.741 2.741 0 0 1-1.059.307c-.887 0-1.422-.478-1.598-1.44 0-.508-.222-1.012-.661-1.5-.701-.509-1.049-.856-1.044-1.043.025-.141.056-.266.096-.367.772.02 1.558.03 2.35.03 2.208 0 3.388-2.497 3.54-7.497l.025-.856a98.201 98.201 0 0 0-3.505.609c-2.052.468-3.494.886-4.316 1.254-1.059 0-1.795-.297-2.209-.891-.448-.796-.665-1.44-.65-1.929.091-1.203 1.256-2.11 3.479-2.719.817-.181 3.031-.549 6.631-1.098v-.03c-.187-.634-.408-1.163-.661-1.591-.196-.287-.292-.584-.282-.886.096-.655.484-.977 1.16-.977ZM77.97 263.16l31.843 5.831M81.641 267.747l4.226-.257M84.92 265.723l-.394 2.956-.958.327"/><path d="M82.776 266.075s-.67 3.646-.04 4.366l1.522.201M89.73 266.957l-1.08 2.784-.877 2.266s1.467-3.419 2.284-1.954c0 0-.65 2.12 0 1.954.65-.166 1.715-.977 1.715-.977M95.357 270.965l1.588-.851s-2.516 4.103.666 3.504c0 0 2.395-1.123 1.482-3.348a3.437 3.437 0 0 0-.257-.509l1.487 1.617M104.065 269.49l-1.82 4.989s1.427-3.227 2.218-2.049v2.049s.368 1.309 1.846-.7M72.777 247.541s-.323-2.699 0-2.699 1.483 1.224 1.483 1.224 2.445.513 2.445 1.48c0 0 .066 1.606-1.608 2.377 0 0-1.044 1.48-.424 2.376 0 0 1.962 1.158 1.256 2.317 0 0-1.372.065-2.002-.323-.63-.387.332 1.415.332 1.415s1.276-.257.414 2.634c0 0 1.896.704 1.256 1.218-.64.514-7.332 5.015-10.554-2.956 0 0-.449-4.894-1.286-3.539 0 0-.902 1.354-.449 2.255 0 0-3.746-3.212-1.457-7.2 0 0 2.809-3.726 5.446 1.863 0 0-.192 6.813 1.094 7.779 0 0-.459-6.042.348-7.457.807-1.414 3.706-2.764 3.706-2.764ZM128.001 259.177c-1.447-1.198-3.812-2.215-5.521 1.732 0 0-.348 4.371-1.634 5.418 0 0 .459-6.571-.348-8.111-.807-1.541-3.706-3.006-3.706-3.006s.323-2.936 0-2.936-1.483 1.329-1.483 1.329-2.445-.297-2.445.751c0 0-.051 1.863 1.618 2.699 0 0 1.226 1.525.611 2.507 0 0-2.204.473-1.498 1.727 0 0 1.639 1.198 2.269.781.63-.418-.484 1.565-.484 1.565s-1.341.177-.479 3.324c0 0-1.558.226-.918.785.641.559 9.339 7.543 12.561-1.123 0 0 .02-1.686.327-2.84.177-.659 1.11-.679 1.291-.025.308 1.098.58 2.8-.433 3.454 0 0 3.413.036 1.77-5.709-.258-.902-.767-1.727-1.488-2.322h-.01Z"/></g></svg>