<svg width="151" height="204" fill="none" xmlns="http://www.w3.org/2000/svg"><g opacity=".6" clip-path="url(#a)" stroke="#B04B19" stroke-miterlimit="10"><path d="m45.974.152-.994 9.976-26.876 1.668"/><path d="M28.057 27.103s19.906 19.301 26.208 21.628c0 0 3.651 1.329 5.64-4.66 0 0-15.262-14.31-14.93-33.943M45.728 2.635 86.12 21.44 57.754 36.084s-.331 1.498.663 1.661L88.77 22.94v-2.75L53.27 3.638"/><path d="m82.682 19.844-18.958-1.727s-1.494-1.166 0-2.665l14.248 2.196M64.777 15.452v-3.949M64.777 18.215s-3.788 7.057-2.833 15.71M61.788 36.102v5.304l-1.877 2.665"/><path d="M41.499 39.406s-3.489 5.832.825 10.823l11.778 8.152s7.965 3.16 11.447-2.828c0 0 9.213-10.107 4.88-23.66M91.758 104.634v5.434c0 1.01.436 1.955 1.163 2.522 1.527 1.192 4.23 2.372 6.12-2.026a5.393 5.393 0 0 0 .436-2.131v-5.832M5.5 42.078l83.27 47.914-.832 22.462L26.4 94.984"/><path d="m24.743 53.149 79.951 38.837-15.924 5.656"/><path d="M24.743 41.074v7.78l79.951 36.479v6.653s0 10.98-2.989 15.639l-2.241.808M27.063 101.226l42.1 5.897"/><path d="M92.252 103.266c.825 0 1.494-.298 1.494-.665 0-.367-.669-.665-1.494-.665s-1.494.298-1.494.665c0 .367.669.665 1.494.665ZM98.476 101.891c.825 0 1.494-.298 1.494-.665 0-.367-.669-.665-1.494-.665s-1.494.298-1.494.665c0 .367.669.665 1.494.665Z"/><path d="M90.758 102.601v1.57s1.41.873 2.988 0v-1.57M96.982 101.226v1.375s1.579 1.212 2.988 0v-1.375"/><path d="M93.019 104.562v4.347c0 1.107.493 2.091 1.234 2.769.851.775 3.307.554 3.56-3.532v-4.88M27.063 104.562l56.165 6.549M87.938 112.453l3.82-1.342M93.019 110.244l4.794-1.811M64.719 2.635s11.473 5.147 18.509 14.974M86.567 24.014s4.691 5.266 5.185 16.07l-.994 38.889M102.589 105.885l48.388-11.234M93.746 80.335l41.801-4.94V36.102c-1.988-7.8-5.97-14.33-5.97-14.33M135.547 36.102l4.314 4.81v33.845l-4.314.638M104.694 87.829l44.126-7.488M139.861 40.91l7.796-.168M139.861 74.757l8.764-.92M30.655 175.746l-.558 1.063c-.832 2.026-1.8 5.916-1 7.956.512 1.323 1.266 2.255 2.104 2.913 2.651 2.078 6.523 1.446 8.641-1.173 4.541-5.63.832-11.332.832-11.332l-.221-4.907 4.645-5.239h-4.093v-9.481l38.916 7.442.227 14.44-3.482 4.353 7.244 1.466"/><path d="m93.084 184.693-.442 9.227c-1.325 5.989-3.586 1.994-3.586 1.994-.384-.554 0-12.589 0-12.589l-2.047-.078H83.91l-.91.69c-2.24 1.773-3.215 7.865-3.215 7.865-.605 2.718-.15 5.604 1.429 7.892 3.723 5.389 8.732 2.209 8.732 2.209 5.691-2.105 3.15-11.867 3.15-11.867v-6.711l3.899-7.579-2.716.111.143-11.332 40.144-20.298-.065 5.962 2.06.691v2.998s-6.523 6.21-1.547 11.977c0 0 4.613 6.249 10.174 1.075 5.562-5.174.416-15.633.416-15.633l2.904-1.746-1.825-2.496.994-51.635M99.035 110.564l48.577-12.922"/><path d="m134.144 101.226 9.615.71v31.813l-50.013-5.493"/><path d="M32.676 105.214v44.174l56.484-20.631-.39-16.434 2.89 1.362 2.08-.287.838 45.634 45.283-22.67-45.796-5.116M32.676 154.21l3.508.834.072 9.983H32.74l-.065-10.817ZM84.956 164.023l4.204 1.942-.11 9.781h-4.204l.11-11.723ZM137.704 142.233v5.272l5.139.768v-8.705l-5.139 2.665Z"/><path d="M102.588 155.024v-3.812s.351 3.629 0-.834c-.35-4.464-3.547-5.656-3.547-5.656v-1.33l1.852-2.697-.182-1.128v-7.578M94.266 142.07l2.716-1.505v-8.993M28.726 166.852s1.267 1.831 3.95.664v-2.495M36.184 165.027v2.88s2.631 2.092 4.808 0v-2.88"/><path d="m40.667 175.173-.084 5.741c-.046 3.649-1.313 4.053-2.463 3.656-1.15-.398-1.864-1.538-1.864-2.757l-.072-11.547h-5.178l-6.1-.169 3.814-3.245-1.657-65.626-.663-6.242-22.888-6.986L5.5 42.078l19.243-.997 3.32-13.978-9.953-15.307 1.988-9.318L45.975.152l7.296 3.493s0-2.998 14.43 0l47.44 7.317s10.115 3.33 14.429 10.817l5.639 1.5 12.442 17.47 1.163 39.599 2.157 14.31"/><path d="M36.184 177.48s-3.261 2.196-1.325 6.594c0 0 2.573 4.066 4.645.619M30.655 175.746s1.962-3.342 5.6-1.902"/><path d="M39.257 183.246c.657 0 1.19-.656 1.19-1.466 0-.809-.533-1.466-1.19-1.466-.656 0-1.189.657-1.189 1.466 0 .81.533 1.466 1.19 1.466ZM91.122 195.719c.656 0 1.189-.657 1.189-1.466 0-.81-.533-1.467-1.19-1.467-.656 0-1.188.657-1.188 1.467 0 .809.532 1.466 1.189 1.466ZM36.184 170.266h4.256M28.726 170.266h.552v8.347M32.15 170.266v3.949M84.956 174.508v2.972c-.156 2.6-4.736 4.776-4.808-.052M89.05 175.746v2.685s2.702 2.639 4.69 0l.526-2.574M81.032 183.344v3.76"/><path d="M88.77 187.821s-3.645 5.988-1.767 9.54c0 0 2.157 3.219 4.119-.261M140.277 162.525a.996.996 0 0 0 .994-.997.995.995 0 1 0-1.988 0c0 .55.445.997.994.997ZM99.892 152.802c.743 0 1.345-.603 1.345-1.348 0-.745-.602-1.349-1.345-1.349-.742 0-1.344.604-1.344 1.349s.602 1.348 1.344 1.348Z"/><path d="m136.541 150.88 6.302.665v7.07l-2.573.417s-2.904.58-1.988 3.075c0 0 .416 1.831 3.398 1.082l2.904-1.662 1.494.997 1.735-3.492M94.305 144.123l2.209 1.687.468 4.184-2.553.886M94.487 154.21l3.326-.443 2.15.443.93 1.329M96.514 145.81l2.52-1.081M142.843 151.551l2.742-.254"/><path d="M136.541 153.877s1.546-1.57 6.302-.11M142.843 157.129s-3.502-.567-3.879 2.489M139.692 163.372s3.151 2.593 4.067-1.369M134.514 147.505s1.423.971 3.19 0v-1.336M142.843 148.273l1.397 1.108s1.423-.169 2.417-2.326M96.982 140.565s2.488.723 3.911.13M62.243 26.067s5.133.554 6.92 4.125M45.975 48.9c.642 0 1.163-.522 1.163-1.166 0-.644-.52-1.167-1.163-1.167-.642 0-1.163.523-1.163 1.167s.52 1.166 1.163 1.166ZM50.62 53.044c.66 0 1.196-.536 1.196-1.199 0-.662-.535-1.198-1.196-1.198-.66 0-1.195.536-1.195 1.198 0 .663.535 1.2 1.195 1.2ZM57.422 55.749c.772 0 1.397-.628 1.397-1.401 0-.774-.625-1.401-1.397-1.401-.771 0-1.396.627-1.396 1.4 0 .774.625 1.402 1.396 1.402ZM64.14 51.722c.772 0 1.397-.628 1.397-1.401 0-.774-.625-1.401-1.397-1.401-.771 0-1.397.627-1.397 1.4 0 .774.626 1.402 1.397 1.402ZM65.706 44.736c.771 0 1.397-.627 1.397-1.401s-.626-1.4-1.397-1.4c-.772 0-1.397.626-1.397 1.4 0 .774.626 1.401 1.397 1.401ZM89.05 183.325h4.034M36.184 155.044l4.814.495M79.915 162.981l5.041 1.043M134.553 144.227l3.151-1.994M32.676 149.388l7.49 1.16 48.604-19.295v29.115l-49.266-9.82"/></g><defs><clipPath id="a"><path fill="#fff" d="M0 0h151v204H0z"/></clipPath></defs></svg>