<svg id="_層_2" xmlns="http://www.w3.org/2000/svg" viewBox="0 0 296.17 359.49"><defs><style>.cls-1{stroke:#000;}.cls-1,.cls-2{fill:none;stroke-miterlimit:10;}.cls-2{stroke:#232323;}</style></defs><polyline class="cls-2" points="102.64 28.09 101.11 43.4 59.74 45.96"></polyline><path class="cls-2" d="M75.06,69.45s30.64,29.62,40.34,33.19c0,0,5.62,2.04,8.68-7.15,0,0-23.49-21.96-22.98-52.09"></path><path class="cls-1" d="M102.26,31.9l62.17,28.86-43.66,22.47s-.51,2.3,1.02,2.55l46.72-22.72v-4.22l-54.64-25.4"></path><path class="cls-1" d="M159.14,58.31l-29.18-2.65s-2.3-1.79,0-4.09l21.93,3.37"></path><line class="cls-1" x1="131.58" y1="51.57" x2="131.58" y2="45.51"></line><path class="cls-1" d="M131.58,55.81s-5.83,10.83-4.36,24.11"></path><polyline class="cls-1" points="126.98 83.26 126.98 91.4 124.09 95.49"></polyline><path class="cls-1" d="M95.75,88.33s-5.37,8.95,1.27,16.61l18.13,12.51s12.26,4.85,17.62-4.34c0,0,14.18-15.51,7.51-36.31"></path><path class="cls-1" d="M173.11,188.43v8.34c0,1.55,.67,3,1.79,3.87,2.35,1.83,6.51,3.64,9.42-3.11,.44-1.01,.67-2.14,.67-3.27v-8.95"></path><polyline class="cls-1" points="40.34 92.43 168.51 165.96 167.23 200.43 72.51 173.62"></polyline><polyline class="cls-1" points="69.96 109.42 193.02 169.02 168.51 177.7"></polyline><path class="cls-1" d="M69.96,90.89v11.94l123.06,55.98v10.21s0,16.85-4.6,24l-3.45,1.24"></path><line class="cls-1" x1="73.53" y1="183.2" x2="138.33" y2="192.25"></line><ellipse class="cls-1" cx="173.87" cy="185.31" rx="2.3" ry="1.02"></ellipse><ellipse class="cls-1" cx="183.45" cy="183.2" rx="2.3" ry="1.02"></ellipse><path class="cls-1" d="M171.57,185.31v2.41s2.17,1.34,4.6,0v-2.41"></path><path class="cls-1" d="M181.15,183.2v2.11s2.43,1.86,4.6,0v-2.11"></path><path class="cls-1" d="M175.05,188.32v6.67c0,1.7,.76,3.21,1.9,4.25,1.31,1.19,5.09,.85,5.48-5.42v-7.49"></path><line class="cls-1" x1="73.53" y1="188.32" x2="159.98" y2="198.37"></line><line class="cls-1" x1="167.23" y1="200.43" x2="173.11" y2="198.37"></line><line class="cls-1" x1="175.05" y1="197.04" x2="182.43" y2="194.26"></line><path class="cls-1" d="M131.49,31.9s17.66,7.9,28.49,22.98"></path><path class="cls-1" d="M165.12,64.71s7.22,8.08,7.98,24.66l-1.53,59.68"></path><line class="cls-1" x1="189.78" y1="190.35" x2="264.26" y2="173.11"></line><path class="cls-1" d="M176.17,151.14l64.34-7.58v-60.3c-3.06-11.97-9.19-21.99-9.19-21.99"></path><polyline class="cls-1" points="240.51 83.26 247.15 90.64 247.15 142.58 240.51 143.56"></polyline><line class="cls-1" x1="193.02" y1="162.64" x2="260.94" y2="151.15"></line><line class="cls-1" x1="247.15" y1="90.64" x2="259.15" y2="90.38"></line><line class="cls-1" x1="247.15" y1="142.58" x2="260.64" y2="141.17"></line><path class="cls-2" d="M79.06,297.56l-.86,1.63c-1.28,3.11-2.77,9.08-1.54,12.21,.79,2.03,1.95,3.46,3.24,4.47,4.08,3.19,10.04,2.22,13.3-1.8,6.99-8.64,1.28-17.39,1.28-17.39l-.34-7.53,7.15-8.04h-6.3v-14.55l59.9,11.42,.35,22.16-5.36,6.68,11.15,2.25"></path><path class="cls-2" d="M175.15,311.29l-.68,14.16c-2.04,9.19-5.52,3.06-5.52,3.06-.59-.85,0-19.32,0-19.32l-3.15-.12h-4.77l-1.4,1.06c-3.45,2.72-4.95,12.07-4.95,12.07-.93,4.17-.23,8.6,2.2,12.11,5.73,8.27,13.44,3.39,13.44,3.39,8.76-3.23,4.85-18.21,4.85-18.21v-10.3l6-11.63-4.18,.17,.22-17.39,61.79-31.15-.1,9.15,3.17,1.06v4.6s-10.04,9.53-2.38,18.38c0,0,7.1,9.59,15.66,1.65s.64-23.99,.64-23.99l4.47-2.68-2.81-3.83,1.53-79.24"></path><line class="cls-2" x1="184.31" y1="197.53" x2="259.08" y2="177.7"></line><polyline class="cls-2" points="238.35 183.2 253.15 184.29 253.15 233.11 176.17 224.68"></polyline><polyline class="cls-2" points="82.17 189.32 82.17 257.11 169.11 225.45 168.51 200.23 172.96 202.32 176.16 201.88 177.45 271.91 247.15 237.12 176.66 229.27"></polyline><polygon class="cls-2" points="82.17 264.51 87.57 265.79 87.68 281.11 82.27 281.11 82.17 264.51"></polygon><polygon class="cls-2" points="162.64 279.57 169.11 282.55 168.94 297.56 162.47 297.56 162.64 279.57"></polygon><polygon class="cls-2" points="243.83 246.13 243.83 254.22 251.74 255.4 251.74 242.04 243.83 246.13"></polygon><path class="cls-2" d="M189.78,265.76v-5.85s.54,5.57,0-1.28-5.46-8.68-5.46-8.68v-2.04l2.85-4.14-.28-1.73v-11.63"></path><polyline class="cls-2" points="176.97 245.88 181.15 243.57 181.15 229.77"></polyline><path class="cls-2" d="M76.09,283.91s1.95,2.81,6.08,1.02v-3.83"></path><path class="cls-2" d="M87.57,281.11v4.42s4.05,3.21,7.4,0v-4.42"></path><path class="cls-2" d="M94.47,296.68l-.13,8.81c-.07,5.6-2.02,6.22-3.79,5.61s-2.87-2.36-2.87-4.23l-.11-17.72h-7.97l-9.39-.26,5.87-4.98-2.55-100.71-1.02-9.58-35.23-10.72,3.06-70.47,29.62-1.53,5.11-21.45-15.32-23.49,3.06-14.3,39.83-3.57,11.23,5.36s0-4.6,22.21,0l73.02,11.23s15.57,5.11,22.21,16.6l8.68,2.3,19.15,26.81,1.79,60.77,3.32,21.96"></path><path class="cls-2" d="M87.57,300.22s-5.02,3.37-2.04,10.12c0,0,3.96,6.24,7.15,.95"></path><path class="cls-2" d="M79.06,297.56s3.02-5.13,8.62-2.92"></path><ellipse class="cls-2" cx="92.3" cy="306.82" rx="1.83" ry="2.25"></ellipse><ellipse class="cls-2" cx="172.13" cy="325.96" rx="1.83" ry="2.25"></ellipse><line class="cls-2" x1="87.57" y1="289.15" x2="94.12" y2="289.15"></line><polyline class="cls-2" points="76.09 289.15 76.94 289.15 76.94 301.96"></polyline><line class="cls-2" x1="81.36" y1="289.15" x2="81.36" y2="295.21"></line><path class="cls-2" d="M162.64,295.66v4.56c-.24,3.99-7.29,7.33-7.4-.08"></path><path class="cls-2" d="M168.94,297.56v4.12s4.16,4.05,7.22,0l.81-3.95"></path><line class="cls-2" x1="156.6" y1="309.22" x2="156.6" y2="314.99"></line><path class="cls-2" d="M168.51,316.09s-5.61,9.19-2.72,14.64c0,0,3.32,4.94,6.34-.4"></path><circle class="cls-2" cx="247.79" cy="275.74" r="1.53"></circle><circle class="cls-2" cx="185.63" cy="260.28" r="2.07"></circle><path class="cls-2" d="M242.04,259.4l9.7,1.02v10.85l-3.96,.64s-4.47,.89-3.06,4.72c0,0,.64,2.81,5.23,1.66l4.47-2.55,2.3,1.53,2.67-5.36"></path><polyline class="cls-2" points="177.03 249.03 180.43 251.62 181.15 258.04 177.22 259.4"></polyline><polyline class="cls-2" points="177.31 264.51 182.43 263.83 185.74 264.51 187.17 266.55"></polyline><line class="cls-2" x1="180.43" y1="251.62" x2="184.31" y2="249.96"></line><line class="cls-2" x1="251.74" y1="260.43" x2="255.96" y2="260.04"></line><path class="cls-2" d="M242.04,264s2.38-2.41,9.7-.17"></path><path class="cls-2" d="M251.74,268.99s-5.39-.87-5.97,3.82"></path><path class="cls-2" d="M246.89,278.57s4.85,3.98,6.26-2.1"></path><path class="cls-2" d="M238.92,254.22s2.19,1.49,4.91,0v-2.05"></path><path class="cls-2" d="M251.74,255.4l2.15,1.7s2.19-.26,3.72-3.57"></path><path class="cls-2" d="M181.15,243.57s3.83,1.11,6.02,.2"></path><path class="cls-2" d="M127.68,67.86s7.9,.85,10.65,6.33"></path><circle class="cls-2" cx="102.64" cy="101.11" r="1.79"></circle><circle class="cls-2" cx="109.79" cy="107.42" r="1.84"></circle><circle class="cls-2" cx="120.26" cy="111.26" r="2.15"></circle><circle class="cls-2" cx="130.6" cy="105.08" r="2.15"></circle><circle class="cls-2" cx="133.01" cy="94.36" r="2.15"></circle><line class="cls-2" x1="168.94" y1="309.19" x2="175.15" y2="309.19"></line><line class="cls-2" x1="87.57" y1="265.79" x2="94.98" y2="266.55"></line><line class="cls-2" x1="154.88" y1="277.97" x2="162.64" y2="279.57"></line><line class="cls-2" x1="238.98" y1="249.19" x2="243.83" y2="246.13"></line><polyline class="cls-2" points="82.17 257.11 93.7 258.89 168.51 229.28 168.51 273.96 92.68 258.89"></polyline></svg>