<svg id="_層_2" xmlns="http://www.w3.org/2000/svg" viewBox="0 0 675.57 539.23"><defs><style>.cls-1{fill:none;stroke:#000;stroke-miterlimit:10;}</style></defs><path class="cls-1" d="M42.13,284.94s-22.98-43.66,4.6-80.43c0,0,16.85-38.3,61.28-46.72,0,0,101.11-22.21,111.83,70.47,0,0,6.14,61.11-35.98,90.21"></path><g><path class="cls-1" d="M20.1,266.83c-2.63,4.03-4.01,8.15-4.01,12.36,0,43.36,145.12,60.13,324.13,60.13s324.13-16.77,324.13-60.13c0-1.83-.28-3.64-.79-5.44"></path><path class="cls-1" d="M33.15,254c-5.78,4.13-10.18,8.42-13.06,12.83"></path><path class="cls-1" d="M663.57,273.75c-2.87-10.14-12.56-19.18-29.83-27.9"></path><path class="cls-1" d="M633.17,262.98c12.79,5.14,10.29,12.07,6.27,17.68-5.13,7.14-12.49,12.34-20.77,15.28-58.73,20.81-159.33,28.83-273.98,28.83-136.25,0-253.12-10.16-302.91-39.21,0,0-20.9-10.02-6.06-18.72"></path></g><path class="cls-1" d="M16.09,279.19s-3.47,65.49,4.01,86.17c1.93-.41,133.78,59.35,338.76,51.32,218.01-8.55,296.04-53.62,296.04-53.62,0,0,16.62-46.72,9.46-83.87"></path><path class="cls-1" d="M331.66,417.42s54.38,66.66,68.17,73.55"></path><path class="cls-1" d="M392.97,414.99s33.94,44.18,37.77,44.18"></path><path class="cls-1" d="M450.38,430.47s-42.14,73.45-85.41,74.98"></path><path class="cls-1" d="M479.49,467.62s-30.22,37.83-87.7,50.08"></path><line class="cls-1" x1="436.23" y1="411.74" x2="494.71" y2="486.47"></line><line class="cls-1" x1="489.97" y1="405.69" x2="526.21" y2="458.04"></line><path class="cls-1" d="M422.5,507.83s8.25,10.6,13.74,9.19l71.86-9.19c-30.38,6.13-47.55-22.21-47.55-22.21"></path><path class="cls-1" d="M526.21,400.1s38.4,60.61,36.1,77.46"></path><path class="cls-1" d="M572.41,390.71s27.32,26.67,23.49,52.89"></path><path class="cls-1" d="M541.47,425.47c.68,.48-19.73,68.92-75.25,67.37"></path><path class="cls-1" d="M557.82,458.04s-46.09,49.02-75.62,46.72"></path><path class="cls-1" d="M503.03,500.08l5.06,7.75s36.91-.83,49.73-14.97c0,0-7.6,1.95-19.6-16.43"></path><path class="cls-1" d="M609.23,414.99s-14.65,53.43-63.97,70.63"></path><path class="cls-1" d="M596.57,384.51s26.55,41.76,9.12,73.53c-.85,1.56-1.81,3.09-2.89,4.6,0,0-9.45,17.09-53.52,26.75"></path><path class="cls-1" d="M637.79,370.85s11.23,54.51,0,75.2c0,0-29.34,17.73-36.63,18.82"></path><path class="cls-1" d="M605.9,469.43s-4.62,8.53-17.64,16.18c0,0-30.4,10.72-36.7,5.36"></path><path class="cls-1" d="M654.89,363.06s5.64,25.51-12.12,42.63"></path><path class="cls-1" d="M647.38,400.41s8.56,41.52-4.6,51.11c0,0-27.95,25.61-43.71,15.57"></path><path class="cls-1" d="M355.61,445.9s-22.16,40.74-34.42,49.93c0,0-15.95,14.58-41.73,16.88"></path><path class="cls-1" d="M379.25,472.29s-16.47,19.85-26.93,30.29c-3.56,3.55-7.72,6.44-12.32,8.48-10.18,4.51-30.81,5.43-54.29,4.88"></path><path class="cls-1" d="M324,417.42s20.27,25.9,29.15,32.88"></path><path class="cls-1" d="M272.45,416.19s16.83,29.32,27.04,38.01l32.17,27.24"></path><line class="cls-1" x1="346.65" y1="435.42" x2="342.95" y2="440.14"></line><path class="cls-1" d="M268.34,416.19s16.34,33.68,26.55,41.85c0,0,26.81,21.79,36.77,26.21"></path><path class="cls-1" d="M392.69,485.62s-10.7,16.09-28.75,19.15"></path><line class="cls-1" x1="391.03" y1="487.82" x2="395.97" y2="493.38"></line><line class="cls-1" x1="320.08" y1="471.64" x2="316.81" y2="474.85"></line><line class="cls-1" x1="297.64" y1="452.48" x2="293.49" y2="456.64"></line><path class="cls-1" d="M216.22,411.61s24.54,41.58,34.76,51.03c0,0,19.05,20.24,30.03,27.96,0,0,14.81,12.8,24.95,15.01"></path><path class="cls-1" d="M324.9,515.03s20.9,10.92,28.26,11.18c0,0,59.44,.77,79.87-9.06,1.68-.81-33.19,1.41-33.19,1.41-11.49-.25-20.68-4.86-22.47-5.37s-21.75-13.99-21.75-13.99"></path><path class="cls-1" d="M241.42,450.93s-23.72,42.82-33.02,48.27c0,0-21.07,11.68-27.27,8.8"></path><path class="cls-1" d="M278.25,488.53s-10.05,19.84-21.57,24.18c0,0-10.16,6.33-15.27,6.33s-50.96-5.55-54.95-6.87"></path><path class="cls-1" d="M212.83,411.61s12.71,37.17,19.53,42.95c0,0,3.05,2.58,5.82,2.08"></path><path class="cls-1" d="M271.65,499.2s10.3,2.97,23.92,1.88"></path><path class="cls-1" d="M267.17,504.77s15.65,10.49,20.08,12.38c0,0,36.31,4.34,44.4,1.12"></path><path class="cls-1" d="M170.51,405.29s25.49,50.77,27.48,62.33c0,0-3.27,2.66,24.39,14.75"></path><line class="cls-1" x1="176.58" y1="406.27" x2="173.2" y2="410.72"></line><path class="cls-1" d="M244.28,519.46l9.08,4.46s34.48,3.18,43.08,2.77c1.41-.07,2.82-.06,4.24-.03,10.52,.23,44.93,.85,47.93-1"></path><path class="cls-1" d="M140.12,399.73s-4.37,16.75-8.14,21.18"></path><path class="cls-1" d="M136.05,412.7s11.88,30.15,15.87,38.23c0,0,14.99,28.22,24.66,33.32,0,0,23.71,12.77,30.65,15.58"></path><path class="cls-1" d="M148.73,443.83l-18,30.04s-11.74,17.31-15.66,16.17"></path><path class="cls-1" d="M167.37,494.82s18.88,18.91,22.2,19.8,16.16,10.27,31.9,10.41c.3,0,.61,0,.91,0,16.15-.22,26.09-.54,29.53-1.82"></path><path class="cls-1" d="M160.14,504.77s10.31,6.97,16.43,8.52c0,0,11.75,4.53,17.91,3.7"></path><path class="cls-1" d="M169.61,492.2s21.42,3.99,28.77,3.45"></path><path class="cls-1" d="M120.38,395.51s3.64,21.88,25.01,40.37"></path><line class="cls-1" x1="102.15" y1="391.16" x2="97.92" y2="412.7"></line><path class="cls-1" d="M90.14,388.04s10.16,33.99,13.49,37.53c0,0,12.55,28.71,29.25,39.98,.32,.22,.64,.43,.97,.63"></path><path class="cls-1" d="M76.08,384.12s-4.75,21.92-6.97,24.38"></path><path class="cls-1" d="M72.31,399.63s7.18,28.93,11.16,34.52c0,0,17.06,26.85,19.71,29.51s14.4,16.18,20.6,19.41"></path><path class="cls-1" d="M84.57,435.88s-16.38,30.45-17.49,41.97c0,0,25.03,14.75,34.11,14.46,0,0,1.29-11.14,8.84-20.55"></path><path class="cls-1" d="M101.94,488.53s18.75,12.79,23.62,14.34c0,0,38.47,13.73,51.02,10.41"></path><path class="cls-1" d="M105.62,478.63s9.98,3.66,13.29,.93"></path><path class="cls-1" d="M59.97,379.25s3.87,29.77,16.65,38.18"></path><line class="cls-1" x1="50.21" y1="376.09" x2="45.1" y2="389.64"></line><path class="cls-1" d="M41.43,373.09s9.89,47.07,14.49,54.01c0,0,16.99,26.87,18.96,28.39"></path><path class="cls-1" d="M36.02,371.18l1.77,22.01s5.79,32.43,10.17,39.83,20.28,32.61,22.42,33.15"></path><path class="cls-1" d="M41.43,411.61s-9.34,25.15-8.27,32.22c0,0,26.11,20.6,35.96,25.45"></path><path class="cls-1" d="M28.95,368.59s3.92,17.36,8.42,19.45"></path><path class="cls-1" d="M25.71,367.37s2.74,33.44,13.67,50.06"></path><path class="cls-1" d="M20.1,365.36s3.15,41.59,16.41,60.99"></path><path class="cls-1" d="M176.58,484.26s-16.86,18.89-17.57,21.36c-1.11,3.85-3.32,2.39-3.32,2.39-5.42-3.15-32.11-10.47-32.11-10.47l-3.2-.2c-3.2-.2-5.65-2.52-5.65-2.52-1.7-.67-2.73-3.75-2.73-3.75,0,0-.6-2.63-.72-4.72"></path><path class="cls-1" d="M103.93,482.36s11.97,8.23,16.45,4.49"></path><path class="cls-1" d="M148.73,156.36s-17.27-20.78-9.47-41.46l5.21-17.71c3.49-11.87,9.73-22.76,18.25-31.74,6.78-7.16,15.28-14.43,23.76-17.19,0,0,43.4-11.5,83.38,23.73"></path><path class="cls-1" d="M344.94,134.81s-19.8,0-34.1-8.17c-3.64-2.08-7.35-4.03-11.16-5.76-10.13-4.59-29.26-16.24-32.5-39.69,0,0,10.11-45.96,43.81-64.34,0,0,31.17-20.56,78.09,5.59,7.87,4.39,14.68,10.42,19.83,17.8,6.99,10.02,14.69,27.48,13.06,44.24"></path><path class="cls-1" d="M216.22,210.13s16.63-29.87,28.37-36c0,0,28.6-19.4,49.53-15.32,0,0,38.3,4.09,50.55,33.19,0,0,16.85,39.66,12.26,53.27"></path><path class="cls-1" d="M354.73,324.77s-5.45-13.79-6.48-21.69,1.21-31.82,2.55-42.66c2.35-18.88,20.43-26.54,20.43-26.54,0,0,42.68-17.87,51.47-18.38,0,0,41.98-7.15,59.34-7.15,0,0,47.43,6.13,62.27,39.83,0,0,13.3,47.49-20.4,61.79,0,0-14.21,8.74-19.91,9.22"></path><path class="cls-1" d="M348,200.4s-22.72-50.27,2.81-73.76,56.68-42.38,78.13-42.89,59.23-2.04,76.09,9.7,34.93,71.18,25.56,87.33c-1.34,2.32-2.5,4.74-3.59,7.19-4.08,9.19-14.39,27.1-31.65,23.34"></path><path class="cls-1" d="M355.38,223.67s7.7,8.21,21.99,7.68"></path><path class="cls-1" d="M417.88,56.31s12.19-17.5,18.01-19.54,30.33-5.11,36.97-3.06,24.52,4.06,35.24,10.97c0,0,32.88,20.69,41.2,42.65,0,0,19,52.6-16.21,86.3"></path><path class="cls-1" d="M531.54,178.71h45.31s32.34-4.07,41.53,21.97c0,0,17.81,29.15,15.07,56.76-.36,3.64-.33,7.29-.2,10.95,.25,7.32-1.66,19.94-16.91,24.2-21.96,6.13-37.14,16.36-78.06,6.4,0,0-8.23-16.6-30.19-27.33"></path><path class="cls-1" d="M549.29,149.22s27.41,8.54,46.97,31.28"></path><path class="cls-1" d="M295.52,118.83s6.46,19.84-3.85,39.61"></path><path class="cls-1" d="M300,159.24s23.25-22.39,42.39-20.61"></path><path class="cls-1" d="M137.23,130.72s-24.99,16.63-32.34,27.72"></path><path class="cls-1" d="M229.33,189.73c-3.58,4.65-24.75-3.72-24.75-3.72,0,0,3.93,13.24,3.25,17.78"></path><path class="cls-1" d="M209.73,287.15s11.18,34.28,24.15,34.93"></path><path class="cls-1" d="M348.96,306.85s-.14,10.74-12.42,17.9"></path><path class="cls-1" d="M365.74,113.94s-2.17-3.64-5.99-7.72-6.4-13.79-6.6-18.89,2.25-11.74,2.23-15.33,3.47-8.67,3.47-8.67l7.53-8.17s8.94-8.17,17.62-6.13c0,0,15.32,2.04,21.45,5.62,0,0,15.7,8.51,15.7,14.63"></path><path class="cls-1" d="M386.9,227.52l-9.53-12.03s-6.65-10.21-5.12-20.94c0,0,1.02-10.7,10.21-16.07,0,0,34-6.91,40.24-9.97,0,0,32.32-10.89,42.77-3.66s16.06,21.16,16.06,21.16c0,0,6.64,18.24,.51,22.33"></path><path class="cls-1" d="M513.56,218.34l33.35-2.34s26.78-.51,33.56,4.09,10.86,36.26,10.86,36.26c0,0-1.02,20.43-4.6,25.02s-24.15,14.08-34.29,12.51l-11,.17s-6.8-15.83-12.93-18.85"></path><path class="cls-1" d="M365.74,237.05s-11.11,28.49-6.89,38.7c0,0,.13,24.04,9.83,28.87,0,0,17.36,2.79,27.06-5.38s32.59-14.81,32.59-14.81c0,0,24.99-14.81,27.61-21.45s11.3-25.48,6.19-35.46-5.22-8.61-14.68-11.53l-16.7-1.8"></path><path class="cls-1" d="M350.84,208.34s-20.71-26.02-42.16-29.86"></path><path class="cls-1" d="M353.72,217.48s-9.33-9.48-17.18-10.84"></path><path class="cls-1" d="M348.26,303.08s-14.13,11.59-21.28,12.73"></path><path class="cls-1" d="M217.32,214.18s11.29-16.64,16.56-20.77"></path><path class="cls-1" d="M218.08,217.48s6.77-7.43,9.5-10.84"></path><path class="cls-1" d="M212.03,281.79s11.55,21.21,17.29,25.07"></path><path class="cls-1" d="M214.38,275.2s6.52,12.83,11.22,14.69"></path><path class="cls-1" d="M267.17,197.45s18.62-8.87,41.51-2.5"></path><path class="cls-1" d="M281.02,197.45s7.4-2.04,13.57,0"></path><path class="cls-1" d="M463.71,231.37s13.23-6.12,33.14-3.85"></path><path class="cls-1" d="M545.26,252.34s-12.66-14.85-16.75-15.38"></path><path class="cls-1" d="M457.3,259.63s7.43-2.27,22.98,3.35"></path><path class="cls-1" d="M372.03,304.96s-5.4,5.97-5.65,10.85"></path><path class="cls-1" d="M358.85,275.74s-4.91,6.47-5.71,11.41"></path><path class="cls-1" d="M358.85,282.54s-4.6,10.91-5.13,14.31"></path><path class="cls-1" d="M369.2,324.77s-2.58-.61-2.82-2.69"></path><path class="cls-1" d="M476.2,176.26s24.39-12.3,26.09-27.04"></path><path class="cls-1" d="M502.3,91.76s8.85,22.17,2.72,31.47"></path><path class="cls-1" d="M478.8,180.49s15.33-6.54,20.09-13.34"></path><path class="cls-1" d="M516.01,107.5s8.07,23.19-6.23,46.37"></path><path class="cls-1" d="M372.69,203.8s-11.24-5.57-13.84-10.39"></path><path class="cls-1" d="M345.88,132.31s-4.27,18.73-1.2,25.93"></path><path class="cls-1" d="M372.03,198.6s-5.58-.84-8.28-7.46"></path><path class="cls-1" d="M484.5,198.6s9.63-.18,10.99-3.73"></path><path class="cls-1" d="M529.63,143.64s-2.67,23.6-16.29,30.33"></path><path class="cls-1" d="M354.59,220.59s13.92,7.4,20.73,6.43"></path><path class="cls-1" d="M377.37,215.49s-7.68-1.55-11-3.67"></path><path class="cls-1" d="M465.19,83.78s9.19,4.05,9.53,12.9"></path><path class="cls-1" d="M463.71,163.89s14.74-6.17,16.42-16.28c.13-.75,.18-1.53,.15-2.33"></path><path class="cls-1" d="M133.85,155.46s-22.36,12.91-26.44,23.02"></path><path class="cls-1" d="M55.24,292.28s15.06-4.57,31.06,0c0,0,20.07,9,25.7,8.66,0,0,8.22,.12,16.45,10.61"></path><path class="cls-1" d="M124.07,306.85s12.83-11.87,21.68-36.27"></path><path class="cls-1" d="M142.81,155.46s-9.51,3.18-16.16,14.42"></path><path class="cls-1" d="M177.09,163.97s5.01,37.9,0,51.52"></path><path class="cls-1" d="M118.72,303.08s11.47-10.69,15.13-18.82"></path><path class="cls-1" d="M180.77,165.77s4.25,9.49,2.89,20.24"></path><path class="cls-1" d="M166.96,316.76s15.53-11.05,16.97-19.9"></path><path class="cls-1" d="M82.56,166.97s-12.25,11.76-13.45,15.5"></path><path class="cls-1" d="M61.72,290.94s-5.16-15.89-3.56-30.52"></path><path class="cls-1" d="M160.64,158.44s13.25-3.35,21.71-2.08c0,0,28.71,5.66,38.33,10.61l18.19,11.51"></path><path class="cls-1" d="M164.98,157.51s-14.68-10.14-14.68-18.97"></path><path class="cls-1" d="M149.37,84.63s-9.28,21.92-6.56,27.71"></path><path class="cls-1" d="M246.42,56.28s-3.4,23.38-7.55,34.27"></path><path class="cls-1" d="M214.38,163.97s13.19-20.35,13.19-25.44"></path><path class="cls-1" d="M251.67,59.03s-1.62,15.18-3.67,17.91"></path><path class="cls-1" d="M285.61,112.34s2.56,9.19,1.37,12.6"></path><path class="cls-1" d="M216.22,165.07s5.6-3.59,6.6-7.57"></path><path class="cls-1" d="M178.2,52.26s-8.5,7.31-8.16,10.38"></path><path class="cls-1" d="M170.03,156.68s-9.95-8.76-9.4-11.4"></path><path class="cls-1" d="M170.03,107.23s-.45,30.74,10.73,48.22"></path><path class="cls-1" d="M269.85,71.99s28.37,.18,38.83,4.95"></path><path class="cls-1" d="M353.15,87.32s-5.07-1.56-11.88-3.93"></path><path class="cls-1" d="M372.03,14.62s10.6,7.17,15.12,14.32"></path><path class="cls-1" d="M389.07,22.44s7.02,8.54,8.72,16.03"></path><path class="cls-1" d="M393.43,50.7s-.07-6.79-1.77-9.17"></path><path class="cls-1" d="M283.41,43.56s8.75-2.06,11.18,0"></path><path class="cls-1" d="M357.11,66.31s-12.09-7.87-21.96-10.02"></path><path class="cls-1" d="M355.82,69.42s-7.41-4.06-11.15-5.08"></path><path class="cls-1" d="M301.24,121.62s24.15,2.64,28.51,1.61"></path><path class="cls-1" d="M310.84,126.64s8.99,3.74,14.44,1.7"></path><path class="cls-1" d="M271.9,66.31s16.86-.97,22.69,.57"></path><path class="cls-1" d="M454.63,33.65s-.73,3.97,0,4.82,1.24,3.15,4.69,2.13,5.49-.64,6.51-.51,4.98-.43,7.66-1.62,5.28-3.35,5.28-3.35"></path><path class="cls-1" d="M454.31,83.39s-.92-8.33,0-10.37"></path><path class="cls-1" d="M473.49,38.47s9.32,6.37,8.81,7.65"></path><path class="cls-1" d="M454.31,35.62s-5.08,.51-7.63,2.17"></path><path class="cls-1" d="M423.61,84.22s.99-9.05,3.16-12.23"></path><path class="cls-1" d="M425.19,83.78s.18-5.14,1.58-6.42"></path><path class="cls-1" d="M476.62,36.7s23.72,6.43,25.68,9.76"></path><path class="cls-1" d="M533.01,164.85s12.63-18.3,13.9-27.49"></path><path class="cls-1" d="M541.28,98.04s4.64,10.47,3.98,14.04"></path><path class="cls-1" d="M539.95,121.62s4.72,16.3-8.19,32.25"></path><path class="cls-1" d="M580.46,220.09s8.56-10.21,9.58-11.74"></path><path class="cls-1" d="M582.69,222.66s20.38-12.62,20.38-16.02"></path><path class="cls-1" d="M600.71,182.08s1.73,4.3,0,5.58"></path><path class="cls-1" d="M587.86,279.19s12.65,6.77,20.06,6.26"></path><path class="cls-1" d="M539.95,216.49s1.32-5.42,3.11-9.85"></path><path class="cls-1" d="M549.29,178.71s-4.95,6.4-5.21,8.95"></path><path class="cls-1" d="M563.63,216.49s2.2-7.79,7.29-12.69"></path><path class="cls-1" d="M565.33,292.26s1.99,5.44,4.55,6.46"></path></svg>