<svg id="_層_2" xmlns="http://www.w3.org/2000/svg" viewBox="0 0 514.72 320.68"><defs><style>.cls-1{fill:none;stroke:#000;stroke-miterlimit:10;}</style></defs><path class="cls-1" d="M346.89,165.45l156.94-78.3v-12.94s-1.02-2.04-8.51-3.06L257.02,12.94s-4.43-1.36-7.83,0L84.43,61.28s-6.13,7.83-6.13,10.21v7.15l195.74,65.02,65.36,21.79s3.67,1.9,7.49,0Z"></path><path class="cls-1" d="M78.3,71.49l263.49,86.47s6.81-4.43,8.85-11.57l148.77-70.13"></path><line class="cls-1" x1="350.64" y1="146.38" x2="84.43" y2="61.28"></line><line class="cls-1" x1="341.79" y1="157.96" x2="341.79" y2="166.17"></line><polyline class="cls-1" points="99.24 85.59 99.24 96.68 338.38 179.06 339.4 165.45"></polyline><path class="cls-1" d="M485.44,96.32l10.9,3.42s7.83,1.36-2.72,7.49l-154.21,75.91-60.6,119.15v6.13L20.77,192.68v-3.4l57.53-95.32,13.62-4.65s2.63-.81,7.33-1.48"></path><line class="cls-1" x1="99.24" y1="91.23" x2="89.19" y2="95.66"></line><line class="cls-1" x1="78.3" y1="93.96" x2="339.4" y2="183.15"></line><path class="cls-1" d="M499.12,101.78s1.98-1.36,2.67,7.16l3.4,29.62s1.08,7.83-3.03,11.57l-147.77,87.49-20.77,40.51-54.81,30.3"></path><path class="cls-1" d="M504.84,135.45s-2.03,2.42-5.43,5.14-150.13,84.77-150.13,84.77l-28.16,59.68"></path><path class="cls-1" d="M363.38,232.29v7.71s-1.82,4.11-13.09,5.61"></path><path class="cls-1" d="M361.36,242.04v5.11s-2.29,7.25-15.42,6.95"></path><path class="cls-1" d="M369.34,228.76l7.63,3.53s4.72,.63,7.02-1.77l51.32-30.61,1.09-10.86"></path><line class="cls-1" x1="377.63" y1="223.85" x2="377.63" y2="232.29"></line><line class="cls-1" x1="397.3" y1="212.21" x2="397.3" y2="222.59"></line><line class="cls-1" x1="420.53" y1="198.45" x2="420.53" y2="208.21"></line><path class="cls-1" d="M455.78,177.59l-.55,8.41s-4.07,6.13-18.82,7.53"></path><path class="cls-1" d="M452.74,188.33v5.2s-3.79,5.78-17.28,4.92"></path><path class="cls-1" d="M178.98,218.37l-110.78-46.5c-1.39-.56-1.95-2.22-1.17-3.5l21.91-36.04c.61-1,1.84-1.43,2.94-1.03l112.01,42.91c1.4,.51,2.02,2.13,1.31,3.43l-23.14,39.63c-.6,1.09-1.92,1.56-3.08,1.09Z"></path><ellipse class="cls-1" cx="84.43" cy="190.7" rx="3.5" ry="2.68" transform="translate(-104.69 102.77) rotate(-41.18)"></ellipse><polygon points="84.43 174.85 85.28 168.34 91.06 171.6 84.43 174.85"></polygon><path d="M166.87,180.01l-1.47,1.11,.23-1.5,6.33-9.48,1.47-1.11-.23,1.5-6.33,9.48Zm-8.62,12.91l-1.49,1.14,.25-1.53,6.31-9.46,1.47-1.11-.23,1.5-6.31,9.46Zm19.86-23l-1.49,1.03-2.8-.88,.12-1.39,1.49-1.03,2.8,.88-.12,1.39Zm-17.28,25.88l-1.49,1.03-2.8-.88,.12-1.39,1.49-1.03,2.8,.88-.12,1.39Zm21.85-24.45l-1.49,1.03-2.8-.88,.12-1.39,1.49-1.03,2.8,.88-.12,1.39Zm-17.28,25.88l-1.49,1.03-2.8-.88,.12-1.39,1.5-1.03,2.8,.88-.12,1.39Zm10.59-14.36l-1.47,1.11,.23-1.5,6.37-9.54,1.47-1.11-.23,1.5-6.37,9.54Zm-8.62,12.91l-1.49,1.14,.25-1.53,6.31-9.46,1.47-1.11-.23,1.5-6.31,9.45Z"></path><path d="M152.44,174.01l-1.47,1.11,.23-1.5,6.33-9.48,1.47-1.11-.23,1.5-6.33,9.48Zm-8.62,12.91l-1.49,1.14,.25-1.53,6.31-9.46,1.47-1.11-.23,1.5-6.31,9.46Zm19.86-23l-1.49,1.03-2.8-.88,.12-1.39,1.49-1.03,2.8,.88-.12,1.39Zm-17.28,25.88l-1.49,1.03-2.8-.88,.12-1.39,1.49-1.03,2.8,.88-.12,1.39Zm21.85-24.45l-1.49,1.03-2.8-.88,.12-1.39,1.49-1.03,2.8,.88-.12,1.39Zm-17.28,25.88l-1.49,1.03-2.8-.88,.12-1.39,1.5-1.03,2.8,.88-.12,1.39Zm10.59-14.36l-1.47,1.11,.23-1.5,6.37-9.54,1.47-1.11-.23,1.5-6.37,9.54Zm-8.62,12.91l-1.49,1.14,.25-1.53,6.31-9.46,1.47-1.11-.23,1.5-6.31,9.45Z"></path><path d="M137.28,168.01l-1.47,1.11,.23-1.5,6.33-9.48,1.47-1.11-.23,1.5-6.33,9.48Zm-8.62,12.91l-1.49,1.14,.25-1.53,6.31-9.46,1.47-1.11-.23,1.5-6.31,9.46Zm19.86-23l-1.49,1.03-2.8-.88,.12-1.39,1.49-1.03,2.8,.88-.12,1.39Zm-17.28,25.88l-1.49,1.03-2.8-.88,.12-1.39,1.49-1.03,2.8,.88-.12,1.39Zm21.85-24.45l-1.49,1.03-2.8-.88,.12-1.39,1.49-1.03,2.8,.88-.12,1.39Zm-17.28,25.88l-1.49,1.03-2.8-.88,.12-1.39,1.5-1.03,2.8,.88-.12,1.39Zm10.59-14.36l-1.47,1.11,.23-1.5,6.37-9.54,1.47-1.11-.23,1.5-6.37,9.54Zm-8.62,12.91l-1.49,1.14,.25-1.53,6.31-9.46,1.47-1.11-.23,1.5-6.31,9.45Z"></path><path d="M121.9,162.64l-1.47,1.11,.23-1.5,6.33-9.48,1.47-1.11-.23,1.5-6.33,9.48Zm-8.62,12.91l-1.49,1.14,.25-1.53,6.31-9.46,1.47-1.11-.23,1.5-6.31,9.46Zm19.86-23l-1.49,1.03-2.8-.88,.12-1.39,1.49-1.03,2.8,.88-.12,1.39Zm-17.28,25.88l-1.49,1.03-2.8-.88,.12-1.39,1.49-1.03,2.8,.88-.12,1.39Zm21.85-24.45l-1.49,1.03-2.8-.88,.12-1.39,1.49-1.03,2.8,.88-.12,1.39Zm-17.28,25.88l-1.49,1.03-2.8-.88,.12-1.39,1.5-1.03,2.8,.88-.12,1.39Zm10.59-14.36l-1.47,1.11,.23-1.5,6.37-9.54,1.47-1.11-.23,1.5-6.37,9.54Zm-8.62,12.91l-1.49,1.14,.25-1.53,6.31-9.46,1.47-1.11-.23,1.5-6.31,9.45Z"></path><rect x="122.86" y="180.5" width="2.08" height="2.08"></rect><path class="cls-1" d="M182.19,247.34L34.19,181.4c-1.07-.48-1.48-1.79-.88-2.79l44.16-73.4c.48-.8,1.46-1.15,2.34-.83l150.64,54.68c1.13,.41,1.62,1.73,1.04,2.78l-46.79,84.67c-.49,.89-1.58,1.25-2.51,.84Z"></path><path class="cls-1" d="M195.66,249.29l47.28-84.47c.57-1.03,1.81-1.48,2.91-1.08l77.33,28.29c1.38,.5,1.98,2.11,1.28,3.4l-49.03,89.95c-.6,1.1-1.94,1.55-3.08,1.04l-75.58-33.77c-1.29-.57-1.8-2.13-1.11-3.36Z"></path><path class="cls-1" d="M234.79,185.24l7.51-13.51c.25-.45,.79-.64,1.27-.46l19.88,7.57c.57,.22,.83,.88,.55,1.43l-7.06,13.87c-.24,.47-.8,.68-1.29,.49l-20.33-7.93c-.58-.23-.83-.91-.53-1.46Z"></path><path class="cls-1" d="M260.09,194.93l7.93-13.51c.26-.45,.83-.64,1.34-.46l21.01,7.57c.6,.22,.88,.88,.58,1.43l-7.46,13.87c-.25,.47-.84,.68-1.36,.49l-21.48-7.93c-.61-.23-.87-.91-.56-1.46Z"></path><path class="cls-1" d="M286.66,204.97l8.01-13.51c.27-.45,.84-.64,1.35-.46l21.22,7.57c.61,.22,.88,.88,.59,1.43l-7.53,13.87c-.26,.47-.85,.68-1.38,.49l-21.7-7.93c-.62-.23-.88-.91-.56-1.46Z"></path><path class="cls-1" d="M223.86,205.58l7.51-13.51c.25-.45,.79-.64,1.27-.46l18.6,7.39c.57,.22,.83,.88,.55,1.43l-7.06,13.87c-.24,.47-.8,.68-1.29,.49l-19.05-7.75c-.58-.23-.83-.91-.53-1.46Z"></path><path class="cls-1" d="M247.88,215.09l7.93-13.51c.26-.45,.83-.64,1.34-.46l21.01,7.57c.6,.22,.88,.88,.58,1.43l-7.46,13.87c-.25,.47-.84,.68-1.36,.49l-21.48-7.93c-.61-.23-.87-.91-.56-1.46Z"></path><path class="cls-1" d="M274.46,225.13l8.01-13.51c.27-.45,.84-.64,1.35-.46l21.22,7.57c.61,.22,.88,.88,.59,1.43l-7.53,13.87c-.26,.47-.85,.68-1.38,.49l-21.7-7.93c-.62-.23-.88-.91-.56-1.46Z"></path><path class="cls-1" d="M212.19,225.61l7.9-13.28c.26-.44,.81-.62,1.28-.42l19.65,8.15c.57,.23,.8,.91,.51,1.44l-7.46,13.66c-.25,.46-.82,.66-1.3,.45l-20.09-8.53c-.57-.24-.8-.94-.48-1.47Z"></path><path class="cls-1" d="M237,236.6l7.03-14.08c.28-.44,.85-.62,1.35-.42l22.27,8.43c.6,.24,.85,.91,.54,1.44l-7.86,13.65c-.27,.46-.86,.66-1.38,.45l-21.44-8c-.61-.24-.85-.94-.51-1.47Z"></path><path class="cls-1" d="M263.47,246.85l7.17-13.52c.28-.44,.86-.62,1.36-.42l22.23,8.44c.6,.24,.86,.91,.55,1.44l-7.94,13.65c-.27,.46-.87,.66-1.39,.45l-21.46-8.57c-.61-.24-.86-.94-.52-1.47Z"></path><path class="cls-1" d="M200.37,246.07l7.9-13.28c.26-.44,.81-.62,1.28-.42l19.65,8.15c.57,.23,.8,.91,.51,1.44l-7.46,13.66c-.25,.46-.82,.66-1.3,.45l-20.09-8.53c-.57-.24-.8-.94-.48-1.47Z"></path><path class="cls-1" d="M225.38,256.5l8.32-13.27c.28-.44,.85-.62,1.35-.42l20.78,8.18c.6,.24,.85,.91,.54,1.44l-7.86,13.65c-.27,.46-.86,.66-1.38,.45l-21.24-8.56c-.61-.24-.85-.94-.51-1.47Z"></path><path class="cls-1" d="M251.72,267.74l7.66-13.95c.28-.44,.86-.62,1.36-.42l21.67,8.44c.6,.24,.86,.91,.55,1.44l-7.94,14.18c-.27,.46-.87,.66-1.39,.45l-21.39-8.67c-.61-.24-.86-.94-.52-1.47Z"></path><line class="cls-1" x1="186.04" y1="171.21" x2="183.66" y2="176.16"></line><polyline class="cls-1" points="187.23 173.68 184.85 174.85 186.04 176.69"></polyline><path class="cls-1" d="M190.47,177.6s-2.55-.29-2.38-1.71c0,0,.85-2.01,2.38-1.03,0,0,2.38,.25,0,2.74Z"></path><path class="cls-1" d="M186.04,179.46s2.21,3.64,4.43-1.87"></path></svg>