<svg xmlns="http://www.w3.org/2000/svg" viewBox="0 0 374.29 340.58"><defs><linearGradient id="b" x1="260.77" y1="345.91" x2="124.41" y2="56.43" gradientTransform="matrix(1 0 0 -1 0 359.07)" gradientUnits="userSpaceOnUse"><stop offset="0" stop-color="#9b3d19"/><stop offset="1" stop-color="#633d19"/></linearGradient><linearGradient id="f" x1="205.48" y1="178.43" x2="185.05" y2="64.05" gradientTransform="matrix(1 0 0 -1 0 359.07)" gradientUnits="userSpaceOnUse"><stop offset="0" stop-color="#fff" stop-opacity="0"/><stop offset="1" stop-color="#fff" stop-opacity=".1"/></linearGradient><linearGradient id="h" x1="258.88" y1="348.75" x2="225.7" y2="247.13" gradientTransform="matrix(1 0 0 -1 0 359.07)" gradientUnits="userSpaceOnUse"><stop offset="0" stop-color="#fff" stop-opacity=".2"/><stop offset="1" stop-color="#fff" stop-opacity="0"/></linearGradient><style>.j{fill:#8d6238;opacity:.89;isolation:isolate}.q{opacity:.15}.r{fill:#562a0d}</style></defs><g id="a"><path d="M266.21 26.24C341.44 67.89 371.2 137.81 374.2 185.81c.05.79.08 2.31.09 4.05.06 9.64-.8 19.29-2.8 28.73-9.05 42.52-33.94 64.07-33.94 64.07-2.15 3.38-36.52 16.06-46.98 19.86-1.55.56-3.01 1.31-4.46 2.1-8.77 4.8-38.56 5.04-38.56 5.04-33 3-81-19-81-19-7-5-83-35-83-35-33-18-51-43-56-49-4.44-5.33-23.33-35.95-27.46-42.69-.58-26.25 4.89-57.3 14.12-76.45C48.7 15.94 125.78 3.47 142.35 1.59c2.1-.24 4.17-.62 6.27-.87 32.19-3.8 80.35 12.3 93.35 16.71 2.13.72 4.37.84 6.62.84 1.87 0 3.78-.21 5.48-.58 1.81-.4 3.64.49 4.55 2.1 1.07 1.88 3.11 4.24 7.01 6.12l.57.32Z" style="fill:url(#b)"/><path d="M259.59 156.92c-3.79-9.67-13.9-39.9 2.52-51.27 0 0 23.88-10.22 43.84 12.02 0 0 20.78 23.88 9.79 38.18 0 0-25.45 33.99-52.72 6.42-1.51-1.52-2.65-3.36-3.43-5.35Z" style="fill:#fff;opacity:.2;isolation:isolate"/></g><g id="c"><g class="q"><path class="r" d="M360.65 210.15c-1.48 22.21-7.8 43.96-17.57 63.98-3.55 6.76-7 13.9-12.66 19.34-.71.58-1.53 1.16-2.37 1.55l-5.73-12.78c-.24.11-.5.22-.69.42 4.32-3.95 7.5-9.36 10.69-14.4 21.01-35.59 32.03-82.19 12.32-120.73-3.23-6.37-7.25-12.36-11.83-17.93 35.22 33.86 27.84 80.55 27.84 80.55Z"/></g><g class="q"><path class="r" d="M16.11 175.79c-.12 1.16-.31 3.3-.42 4.44-.04-.27-.1-.93-.23-1.36-.59-1.1.95 1.22-1.44-2.66-3.57-3.24-6.52-2.55-8.81-1.16-2.84 2.51-1.75 2.04-2.15 2.33-.2.35-.36.73-.47 1.11.19-.45.83-3.14 1.08-3.98 9.79-36.69 27.34-72.78 56.12-98.19 10.37-9.11 22.16-16.52 34.79-21.66-36.62 18.47-59.59 55.37-71.17 93.57-3.19 10.36-5.59 20.91-7.36 31.59-.15.8-.31 1.9-.55 2.71-.15.47-.34.98-.59 1.4-.41.31.67-.13-2.19 2.39-2.32 1.42-5.28 2.11-8.87-1.17-2.41-3.9-.87-1.61-1.46-2.73-.26-.9-.28-1.91-.28-2.71 0-1.21.02-3.42.03-4.65l13.98.73Z"/></g><g class="q"><path class="r" d="M15.24 206.05C36.59 150.28 75.39 94.93 126.56 63.09c17.19-10.85 36.12-18.7 55.64-23.66-36.09 11.13-67.71 33.36-92.47 61.53-14.81 16.75-27.43 35.4-38.02 55.03-8.76 16.32-16.33 33.29-22.09 50.88-.36 1.13-.74 2.35-1.03 3.36l-13.36-4.18h.01Z"/></g><g class="q"><path class="r" d="M33.41 228.14c8.25-21.47 17.8-42.24 29.11-62.24 8.52-14.83 17.96-29.44 30.27-41.43 4.12-3.95 8.65-7.52 13.68-10.14-4.73 3.12-8.79 7.07-12.41 11.34-7.22 8.58-12.98 18.26-18.09 28.21-7.66 14.95-13.86 30.62-19.37 46.48-3.6 10.49-7 21.31-9.83 31.97l-13.36-4.19Z"/></g><g class="q"><path class="r" d="M59.52 243.32c6.53-22.82 16.36-44.62 28.21-65.13 19.51-33.58 46.51-63.83 80.68-82.76-32.2 21.19-56.3 52.5-72.97 86.89a295.114 295.114 0 0 0-16.66 42.34c-1.94 6.29-3.65 12.65-5.06 19.07-.19.88-.39 1.84-.53 2.61l-13.67-3.02Z"/></g><g class="q"><path class="r" d="M80.91 256.23c9.06-33.88 27.36-67.43 55.34-89.14-6.11 6.2-11.56 12.95-16.2 20.19-12.7 19.7-20.59 42.21-24.5 65.21-.31 1.94-.63 4.08-.81 6l-13.82-2.25h-.01Z"/></g><g class="q"><path class="r" d="M105.5 264.55c10.84-24.6 22.13-48.84 34.2-72.84 10.75-20.8 21.27-42.02 35.51-60.72 2.14-2.58 4.35-5.14 7-7.2-4.82 4.64-8.14 10.51-11.44 16.25-15.72 29.36-27.27 60.75-38.91 91.89-4.57 12.5-9.03 25.09-13.28 37.64l-13.07-5.02Z"/></g><g class="q"><path class="r" d="M130.08 273.67c17.92-29.85 35.72-59.86 52.49-90.38 4.15-7.61 8.32-15.34 12.02-23.18 1.16-2.31 2.48-5.58 3.44-8-1.12 4.13-2.62 8.48-4.11 12.45-11.07 28.52-23.98 56.28-36.7 84.08-4.89 10.58-9.81 21.12-14.81 31.67l-12.33-6.63Z"/></g><g class="q"><path class="r" d="M166.55 290.64c12.29-24.56 24.17-49.5 34.3-75.06 2.33-5.95 5-13.38 6.76-19.5.61-1.96 1.15-4.69 1.66-6.69-.54 6.63-2 13.98-3.45 20.51-4.77 20.26-10.97 40.2-17.43 59.97-2.9 8.8-5.86 17.53-8.98 26.32l-12.86-5.54Z"/></g><g class="q"><path class="r" d="M191.83 299.08c10.33-16.36 20.39-33.14 28.75-50.62 2.68-5.89 5.41-11.82 6.56-18.23.02 6.57-1.66 13.08-3.27 19.42-1.7 6.37-3.68 12.65-5.77 18.89-4.24 12.52-8.85 24.76-13.87 37.02l-12.41-6.49Z"/></g><g class="q"><path class="r" d="M218.92 304.52c9.41-13.04 16.67-27.77 22.68-42.67 3.61-8.75 6.9-18.91 9.52-28.05 1.27-4.41 2.49-9.96 3.64-14.43.72-3.36 2.18-11.19 2.87-14.64.75-5.62 2.2-14.16 2.59-19.77.11-1.35.98-11.16 1.09-12.45.16-4.69.4-12.8.56-17.53.27 4.79.71 12.89.97 17.55-.01 1.43.01 10.9 0 12.58.09 2.84-.15 7.18-.32 10.07l-.55 10.09-1.06 10.06c-.39 4.65-1.41 10.41-2.12 15.05-1.23 7.76-3.34 17.26-5.33 24.85-3.87 14.84-9.03 29.5-15.6 43.36-1.44 3.05-3.09 6.34-4.74 9.29-.9 1.64-1.72 3.08-2.78 4.74l-11.42-8.1Z"/></g><g class="q"><path class="r" d="M249.94 306.13c8.74-18.46 17.29-37.17 24.51-56.3 1.56-4.3 3.19-9.09 4.27-13.53-.13 1.57-.2 3.17-.39 4.75-1.3 11.01-3.69 22.05-6.09 32.85a999.218 999.218 0 0 1-9.18 37.11l-13.12-4.88Z"/></g><g class="q"><path class="r" d="M279.64 301.95c8.36-18.07 15.11-37.06 19.82-56.43 2.92-12.19 4.89-24.66 5.02-37.22-.03-7.57-.72-15.13-2.78-22.49 5.75 14.35 6.65 30.2 5.96 45.51-1.19 23.24-6.06 46.16-12.66 68.43-.77 2.51-1.51 4.93-2.41 7.54l-12.94-5.34Z"/></g><g class="q"><path class="r" d="M299.46 296.43c1.19-.92 3.01-3.52 4.26-5.34 5.21-7.95 9.22-16.73 12.53-25.72 11.84-32.07 12.55-69.17-2.87-100.23-1.09-2.18-2.37-4.45-3.5-6.62-.98-1.65-2.96-4.8-3.92-6.41 1.07 1.49 3.47 4.65 4.48 6.06 2.13 3.22 4.74 7.29 6.58 10.74 9.85 17.9 14.55 38.39 14.65 58.81-.13 25.37-6.17 53.1-19.59 74.95-1.36 2.03-3.04 4.14-5.08 5.57l-7.54-11.8Z"/></g></g><g id="d"><path d="M3.15 189.68C1.27 182.26.28 173.42.08 163.97c4.13 6.74 23.02 37.36 27.46 42.69 5 6 23 31 56 49 0 0 76 30 83 35 0 0 48 22 81 19 0 0 29.79-.24 38.56-5.04 1.45-.79 2.91-1.54 4.46-2.1 10.46-3.8 44.83-16.48 46.98-19.86-16 32-65 48-65 48-48 21-105-5-146-18-37.01-11.73-82.68-54.49-91.75-62.53-.97-.86-1.9-1.76-2.75-2.74-12.82-14.73-23.85-37.84-28.88-57.71Z" style="opacity:.6;fill:#9b3d19"/><path d="M126.55 312.65c-27.79-9.84-61.41-34.17-80.67-49.92-19.41-15.88-33.79-37.15-40.73-61.25-1.9-6.59-3.27-13.28-3.95-19.8-.61-5.84-1.04-12.22-1.17-17.71 0 0-.12-11.9.16-11.31 23.19 48.04 60.15 77.98 60.15 77.98 7.78 6.65 17.19 13.5 28.3 19.56 0 0 35.51 19.15 77.25 33.12 3.51 1.17 6.98 2.46 10.39 3.89 12.51 5.23 47.76 18.75 74.37 17.14 1.24-.07 2.48-.15 3.72-.18 5.41-.12 22.13-.67 31.9-3.22 50.47-13.44 68.89-40.67 68.89-40.67-11.32 24.63-27.76 41.77-42.56 53.18 0 0-18.35 19.98-55.12 25.98-38.3 6.25-97.18-14.85-130.92-26.8" style="fill:#e2ad79"/><g style="opacity:.6"><ellipse class="j" cx="156.82" cy="291.7" rx="2.59" ry="2.79" transform="rotate(-4.78 156.793 291.676)"/><ellipse class="j" cx="139.09" cy="295.99" rx="2.59" ry="2.79" transform="rotate(-4.78 139.093 295.977)"/><ellipse class="j" cx="166.85" cy="300.84" rx="1.83" ry="1.97" transform="rotate(-4.78 166.85 300.856)"/><ellipse class="j" cx="127.45" cy="294.16" rx="1.83" ry="1.97" transform="rotate(-4.78 127.408 294.17)"/><ellipse class="j" cx="98.76" cy="271.15" rx="2.61" ry="2.81" transform="rotate(-4.78 98.728 271.131)"/><ellipse class="j" cx="42.53" cy="241.38" rx="2.79" ry="3.01" transform="rotate(-4.78 42.486 241.423)"/><ellipse class="j" cx="19.63" cy="216.22" rx="4.1" ry="4.43" transform="rotate(-4.78 19.656 216.229)"/><ellipse class="j" cx="108.81" cy="288.43" rx="1.83" ry="1.97" transform="rotate(-4.78 108.805 288.473)"/><ellipse class="j" cx="331.32" cy="288.42" rx="1.17" ry="1.26" transform="rotate(-4.78 331.297 288.399)"/><ellipse class="j" cx="77.9" cy="264.45" rx="1.83" ry="1.97" transform="rotate(-4.78 77.884 264.501)"/><ellipse class="j" cx="66.27" cy="256.5" rx="1.83" ry="1.97" transform="rotate(-4.78 66.22 256.454)"/><ellipse class="j" cx="61.7" cy="260.32" rx="1.36" ry="1.46" transform="rotate(-4.78 61.737 260.347)"/><ellipse class="j" cx="34.92" cy="223.91" rx="1.93" ry="2.08" transform="rotate(-4.78 34.935 223.947)"/><ellipse class="j" cx="15.46" cy="193.34" rx="1.53" ry="1.65" transform="rotate(-4.78 15.45 193.373)"/><ellipse class="j" cx="153.56" cy="311.26" rx="1.83" ry="1.97" transform="rotate(-4.78 153.577 311.222)"/><ellipse class="j" cx="184.83" cy="315.91" rx="2.59" ry="2.79" transform="rotate(-4.78 184.824 315.886)"/><ellipse class="j" cx="276.94" cy="317.43" rx="2.54" ry="2.73" transform="rotate(-4.78 276.922 317.45)"/><ellipse class="j" cx="262.68" cy="331.7" rx="3.33" ry="3.6" transform="rotate(-4.78 262.645 331.735)"/><ellipse class="j" cx="230.16" cy="317.73" rx="2.59" ry="2.79" transform="rotate(-4.78 230.107 317.776)"/><ellipse class="j" cx="174.87" cy="305.77" rx="1.83" ry="1.97" transform="rotate(-4.78 174.926 305.753)"/><ellipse class="j" cx="214.18" cy="315.44" rx="1.83" ry="1.97" transform="rotate(-4.78 214.124 315.43)"/><ellipse class="j" cx="287.84" cy="311.25" rx="1.56" ry="1.68" transform="rotate(-4.78 287.859 311.307)"/><ellipse class="j" cx="310.07" cy="309.41" rx="2.59" ry="2.79" transform="rotate(-4.78 310.021 309.351)"/><ellipse class="j" cx="318.97" cy="293.71" rx="1.65" ry="1.78" transform="rotate(-4.78 318.952 293.764)"/><ellipse class="j" cx="244.13" cy="326.2" rx="1.83" ry="1.97" transform="rotate(-4.78 244.157 326.163)"/><ellipse class="j" cx="224.64" cy="333.88" rx="1.83" ry="1.97" transform="rotate(-4.78 224.635 333.869)"/><ellipse class="j" cx="263.8" cy="310.12" rx="1.83" ry="1.97" transform="rotate(-4.78 263.79 310.062)"/></g></g><path d="M45.89 149.73s-8.85 23.76-8.04 40.13c.21 4.24 2.21 8.18 5.45 10.92 8.84 7.46 29.87 24.85 44.77 34.24 4.42 2.78 9.17 4.99 14.12 6.66 18.68 6.3 80.56 27.36 89.05 32.58 0 0 59.89 25.48 102.89 8.57 0 0 51.41-24.09 56.57-30.72s21.04-32.04 14.81-51.46c0 0-34.98 8.96-70.98 6.32s-30.64 6.84-85.28-2.35-95.53-25.85-95.53-25.85-60.29-14.79-67.85-29.04h.01Z" style="fill:url(#f)" id="e"/><path d="M260.92 22.72s1.89 1.9 4.72 3.2C365.7 81.59 372.8 172.87 372.8 172.87c1.55 8.57-37.2 16.08-43.74 17.58-3.83.87-61.33-2.11-58.28-2.36 5.98-.49-23.34 3.35-23.34 3.35-19.99 2.11-49.35-10-49.35-10-4.3-2.8-50.74-19.18-50.74-19.18-20.22-9.98-31.42-24.16-34.52-27.55-2.75-3.02-14.55-20.42-17.13-24.25v-.03c-.65-15.1-25.34-49.84-17.09-59.05 31.87-35.57 106.22-34.05 106.22-34.05 15.87-1 46.37 4.39 55.33 6.06 2.89.54 5.85.61 8.74.07 3.76-.7 7.96-2.48 8.58-6.86 0 0 .49 3.33 3.45 6.13Z" style="fill:url(#h)" id="g"/><path d="M254.57 17.62c-2.48.38-6.39 1-10.98.26 0 0-.9-.16-3.91-1.22C205 4.38 181.11 1.57 174.74 1.11a60.42 60.42 0 0 1-3.8-.41c-7.43-.95-14.84-.81-21.07-.3-.79.06-1.57.16-2.36.27l-12.3 1.78c-.87.18-1.74.35-2.62.49-25 4.15-82.41 19.91-115.1 78.56-14.77 24.88-22.46 78.43-13.8 113.19.56 2.24 1.16 4.48 1.79 6.71 6.94 24.21 21.35 45.6 40.94 61.43 5.14 4.15 11.73 9.43 20.05 16-89.02-88.33-5.94-209.6-5.94-209.6 7.84-11.76 21.14-22.39 34.17-31.51.59-.33 33.86-16.21 65.25-19.02 41.93-4.87 81.45 4.93 81.45 4.93s12.8 1.56 15.65-5.43c0 0-1.17-.77-2.49-.57Z" style="fill:#333;opacity:.17;isolation:isolate" id="i"/></svg>