<svg width="78" height="38" fill="none" xmlns="http://www.w3.org/2000/svg"><g clip-path="url(#a)" fill="#B04B19"><path d="M36.8 19.409c-2.072.055-3.193.35-4.067-.686-.752-.894.398-5.406.554-5.967.994-3.593 3.061-6.208 5.985-8.444 1.81-1.385 3.739-2.392 5.794-3.161 1.617-.605 3.39-1.074 5.1-1.091 4.197-.035 8.409.064 12.59.425 2.778.24 5.246 1.637 7.56 3.202 3.33 2.25 5.671 5.288 6.963 9.089.386 1.137.637 2.386.625 3.58-.023 2.462-.049 4.962-.495 7.365-.297 1.594-1.3 3.564-2.085 5.04-1.308 2.227-2.447 3.34-4.11 5.01-2.967 2.976-6.894 4.246-11.085 4.234-14.037-.038-28.073.026-42.11-.07-1.643-.011-3.373-.566-4.895-1.243-2.182-.972-4.39-2.06-6.253-3.526-2.194-1.724-4.168-3.772-5.382-6.413C-.154 23.172-.13 19.37.131 15.61.324 12.8 1.62 10.219 3.386 8.07c1.499-1.82 3.258-3.547 5.22-4.822 1.797-1.166 3.942-1.9 6.043-2.482 4.46-1.23 7.91-.582 12.2-.7.159-.006.214.006.591-.003 0 1.333.104 2.78-.023 4.14-.029.309-.034.792-.444.803-2.623.018-5.984.09-8.616.006-3.094-.098-5.76 1.047-8.19 2.76-4.244 2.99-5.91 7.251-5.576 12.34.141 2.172.781 4.249 2.032 6.054 2.163 3.118 4.985 5.4 8.68 6.459.447.127.946.104 1.422.104 14.708.006 29.413.029 44.122-.003 3.95-.009 6.927-2.071 9.205-5.09 1.13-1.5 2.358-3.244 2.617-5.014.447-3.049.744-6.173-.504-9.288-1.277-3.179-3.564-5.31-6.288-6.945-1.937-1.163-4.18-1.906-6.558-1.892-3.019.02-6.037-.008-9.055.006-3.053.012-5.587 1.371-7.989 3.1-2.828 2.037-4.038 4.875-4.938 8.071-.404 1.432-.461 2.092-.539 3.738l.003-.003Z"/><path d="M27.482 7.784v4.13c0 .92-.464 1.215-1.363 1.204-2.73-.032-5.466.15-8.188-.003-2.84-.162-5.624 3.89-4.598 6.965.712 2.135 2.399 3.318 4.157 4.432.326.205 3.817.165 4.238.165 13.41.008 23.841.011 37.252.006 2.338 0 4.918-2.618 5.002-4.961.08-2.236-.15-4.313-2.37-5.528-.706-.385-1.447-.943-2.191-.975-2.914-.121-5.84-.121-8.758-.058-2.551.055-5.085 2.774-5.117 5.354-.012.96-.075 1.93.014 2.881.142 1.525-.93 2.083-2.012 2.381-1.136.31-2.248.026-2.926-1.177-1.707-3.029-.767-5.84.657-8.614 1.398-2.722 2.531-3.923 5.178-5.065.758-.327 3.044-.59 3.889-.576 3.71.06 7.455-.075 11.11.431 1.508.208 3.189 1.337 4.345 2.534 1.614 1.4 2.3 3.44 2.79 5.418.707 2.849.459 6.323-1.176 8.793-.628.95-1.046 1.389-1.946 2.106-1.96 1.565-4.122 2.25-6.394 2.262-13.46.07-26.92.006-40.38.072-2.34.012-4.11-1.183-5.72-2.461-4.551-3.616-5.163-7.573-3.761-12.707.778-2.852 2.88-5.022 5.673-6.228 1.577-.888 3.347-.77 4.976-.775 2.482-.009 4.964 0 7.62 0v-.006Z"/></g><defs><clipPath id="a"><path fill="#fff" d="M0 0h77.9v38H0z"/></clipPath></defs></svg>