<svg width="85" height="87" fill="none" xmlns="http://www.w3.org/2000/svg"><g clip-path="url(#a)"><path d="M42.645 84.295c22.335 0 40.442-18.365 40.442-41.02 0-22.654-18.107-41.019-40.442-41.019-22.336 0-40.442 18.365-40.442 41.02 0 22.654 18.107 41.02 40.442 41.02Z" fill="#E9C857"/><path d="M42.645 86.32C19.245 86.32.207 67.008.207 43.275.207 19.542 19.246.232 42.645.232s42.437 19.31 42.437 43.044c0 23.733-19.038 43.043-42.437 43.043Zm0-84.064c-22.299 0-40.442 18.402-40.442 41.02 0 22.617 18.143 41.02 40.442 41.02s40.442-18.403 40.442-41.02c0-22.618-18.14-41.02-40.442-41.02Z" fill="#7F2121"/><path d="M42.645 71.388c15.307 0 27.717-12.586 27.717-28.112 0-15.527-12.41-28.113-27.717-28.113-15.308 0-27.717 12.586-27.717 28.113 0 15.526 12.41 28.112 27.717 28.112Z" fill="#956134"/><path d="M19.697 46.355h2.285v-6.548h-1.925V38.48c1.065-.205 1.796-.48 2.472-.903h1.566v8.777h1.998v1.736h-6.398v-1.736h.002ZM27.62 42.782c0-3.557 1.424-5.41 3.61-5.41 2.185 0 3.594 1.868 3.594 5.41 0 3.543-1.409 5.511-3.594 5.511-2.186 0-3.61-1.94-3.61-5.51Zm5.204 0c0-2.917-.676-3.732-1.597-3.732-.92 0-1.609.818-1.609 3.732 0 2.915.691 3.836 1.61 3.836.917 0 1.596-.903 1.596-3.836ZM36.09 42.782c0-3.557 1.424-5.41 3.609-5.41s3.594 1.868 3.594 5.41c0 3.543-1.409 5.511-3.594 5.511-2.185 0-3.61-1.94-3.61-5.51Zm5.203 0c0-2.917-.676-3.732-1.597-3.732-.92 0-1.609.818-1.609 3.732 0 2.915.691 3.836 1.61 3.836.917 0 1.596-.903 1.596-3.836ZM44.558 42.782c0-3.557 1.425-5.41 3.61-5.41 2.185 0 3.595 1.868 3.595 5.41 0 3.543-1.41 5.511-3.595 5.511-2.185 0-3.61-1.94-3.61-5.51Zm5.204 0c0-2.917-.676-3.732-1.597-3.732-.92 0-1.609.818-1.609 3.732 0 2.915.691 3.836 1.61 3.836.917 0 1.596-.903 1.596-3.836ZM56.16 37.899h-2.99v-1.414h2.99v-.744h1.682v.744h1.509v1.414h-1.51v.627h-1.68V37.9Zm9.303 9.916c0 .7-.115 1.065-.562 1.298-.416.233-1.02.248-1.783.248a5.078 5.078 0 0 0-.345-1.124l-.703.19a4.345 4.345 0 0 0-.172-.729c-2.04.147-4.141.264-5.665.365l-.13-1.458c.718-.03 1.639-.073 2.632-.116v-1.108h-3.236v3.952H53.86V45.38h-.546v-1.387h.546v-.407h1.64v.407h3.235v-.612h-3.97v-4.638h9.69v4.638H60.37v.612h5.09v3.82h.002Zm-9.058-7.277h2.33v-.67h-2.33v.67Zm2.33 1.72v-.655h-2.33v.655h2.33Zm7.246-5.773v1.414h-3.063v.627h-1.681V37.9h-1.425v-1.414h1.425v-.744h1.681v.744h3.063Zm-3.25 3.383h-2.357v.67h2.357v-.67Zm0 1.735h-2.357v.655h2.357v-.655Zm-1.322 4.754a6.684 6.684 0 0 0-.332-.67l1.208-.306H60.37v1.035l1.035-.059h.003Zm2.2 1.62c.145 0 .187-.043.187-.19v-2.406H62.36c.46.802.878 1.867 1.02 2.596h.23Z" fill="#E9C857"/><path d="M13.72 23.077c.856.144 1.78.086 2.487-.223.018.215.11.552.2.75-.244.088-.504.149-.783.184l.399.26-.609.957.774.506-.372.584-.773-.506-.62.975-.406-.266c.09.288.143.572.17.853-.2.007-.516.05-.701.113-.025-.776-.377-1.68-.886-2.418l-.723 1.138-.554-.362 1.105-1.74-.883-.577.372-.585.883.577 1.112-1.75.554.361-.743 1.169h-.003Zm.766 2.15-1.506-.984-.02.033c.429.57.765 1.192.982 1.807l.544-.855Zm.898-1.411a6.73 6.73 0 0 1-2.02-.177l-.013.017 1.507.985.526-.828v.003ZM21.192 18.525l.374.37-2.787 2.912-.374-.37 1.15-1.202-.227-.222-.803.84-.282-.276c.023.16.027.319.025.463a3.628 3.628 0 0 0-.569-.197c.362.448.701 1.004.766 1.579a2.344 2.344 0 0 0-.651.068c-.082-.706-.609-1.283-1.01-1.68l-.696-.686.511-.536c-.127 0-.274.007-.37.02.23-.326.475-.696.697-1.068-.302.188-.601.393-.868.585l.045-.387-.651.68-.365-.357 1.32-1.378a3.198 3.198 0 0 0-.347-.051l.153-.468c.19.01.426.035.608.083l1.312-1.371.364.357-.548.574.299-.076c-.07.208-.162.44-.272.68.287-.171.554-.323.783-.445l-.032.4.556-.582.372.365-2.752 2.877.327.323c.125.124.26.261.392.423 0-.372-.095-.78-.27-1.144l.5-.286c.032.071.064.14.094.218l.44-.46-.24-.236.444-.463.24.235.935-.979.364.357-.936.98.203.2.825-.866.357.349-.826.863.227.222 1.195-1.247-.002.01Zm-4.735-.134c.294-.195.601-.4.915-.6.133-.24.242-.483.322-.693l-1.235 1.293h-.002Zm2.04-.762a14.25 14.25 0 0 0-.85.486c-.2.36-.41.714-.616 1.048l1.466-1.534Zm.474 2.035-.204-.2-.619.645c.028.114.053.223.075.334l.748-.78ZM24.342 13.406l-2.631 1.832-1.118-1.65 2.632-1.831 1.117 1.65Zm-2.99 2.64 1.706-1.19 1.372 2.027-.534.372-.14-.205-.669.466.155.227-.504.35-1.387-2.05v.003Zm1.683-3.39-1.571 1.095.416.615 1.572-1.096-.417-.615Zm-.828 3.559.531.784.669-.465-.532-.784-.668.465Zm2.998-2.851 1.375 2.031-.539.375-.142-.21-.714.498.155.228-.511.357-1.387-2.05 1.766-1.23h-.003Zm.345 1.677-.532-.784-.713.498.531.784.714-.495v-.003ZM30.875 12.503c.517-.225.542-.39.305-1.159.197.03.509.013.698-.027.287 1.004.185 1.379-.726 1.776l-1.656.719c-.965.42-1.342.354-1.666-.413l-.998-2.366.616-.268.292.69 2.272-.986-.456-1.08-3.088 1.34-.252-.599 3.71-1.612 1.06 2.513-.622.27-.1-.237-2.272.986.456 1.083c.133.314.242.322.794.081l1.636-.71h-.003ZM34.475 10.034l.27 1.285c.064.314.04.483-.123.612-.154.142-.406.213-.778.292-.057-.162-.19-.4-.302-.545.215-.04.432-.086.502-.1.075-.016.094-.049.08-.125l-.235-1.118-.509.255-.294-.579c.194-.086.421-.192.67-.309l-.199-.95-.633.136-.125-.595.633-.137-.214-1.027.624-.134.214 1.027.559-.121.125.595-.56.121.166.794.369-.18.202.573-.442.23Zm.547-.926a2.44 2.44 0 0 0-.517-.37c.569-.427.566-.832.489-1.206l-.122-.58 1.876-.402.247 1.179c.032.157.057.22.142.2l.282-.061c.09-.02.22-.063.292-.101.044.16.107.377.16.519-.073.055-.205.088-.328.116l-.356.076c-.522.111-.681-.091-.793-.63l-.12-.572-.686.154c.112.542.085 1.174-.562 1.68l-.005-.002Zm2.709-.352c-.06.701-.262 1.275-.592 1.759.394.106.836.159 1.317.146a3.03 3.03 0 0 0-.274.681 4.334 4.334 0 0 1-1.497-.289 5.29 5.29 0 0 1-1.334.891c-.095-.164-.29-.4-.427-.524.437-.18.823-.407 1.145-.675a4.066 4.066 0 0 1-.958-.883l.182-.114-.304.066-.125-.6 2.313-.496.105-.05.446.09.003-.002Zm-2.011.9c.22.254.491.459.808.618.207-.265.362-.564.46-.89l-1.268.273ZM41.5 6.152a8.137 8.137 0 0 1-.526 1.15l.044 3.787-.616.008-.032-2.84a7.901 7.901 0 0 1-.377.454 4.362 4.362 0 0 0-.357-.671c.502-.503.988-1.293 1.26-2.08l.601.192h.003Zm.993 3.345a7.016 7.016 0 0 1-.819 1.36 3.375 3.375 0 0 0-.503-.348c.269-.306.556-.769.738-1.179l.584.17v-.003Zm.873-.359.022 1.938-.653.008-.023-1.938-1.422.017-.007-.597 1.422-.017-.005-.486-1.068.012-.022-1.9 2.858-.035.023 1.9-1.138.013.005.485 1.41-.017.007.597-1.41.018v.002Zm-1.125-1.65 1.594-.02-.008-.739-1.594.02.01.74h-.002Zm1.79 1.807c.315.36.654.832.814 1.156l-.509.322c-.152-.324-.489-.828-.783-1.2l.476-.275.003-.003ZM46.474 10.153l.856.134.371-2.452-.72-.111.074-.496c.41-.015.701-.076.978-.195l.586.091-.496 3.287.748.116-.097.65-2.395-.371.098-.65-.003-.003ZM50.842 9.578c.372-1.295 1.083-1.814 1.876-1.58.793.232 1.112 1.064.743 2.352-.371 1.3-1.087 1.855-1.883 1.62-.796-.236-1.11-1.094-.739-2.394l.003.002Zm1.893.56c.305-1.06.145-1.43-.192-1.529-.334-.098-.67.124-.975 1.185-.307 1.065-.15 1.47.184 1.568.335.099.676-.157.98-1.224h.003ZM55.06 10.937c.532-1.235 1.302-1.657 2.06-1.32.76.336.969 1.201.44 2.431-.534 1.24-1.315 1.695-2.073 1.359-.759-.337-.963-1.23-.427-2.467v-.003Zm1.806.802c.437-1.012.325-1.399.005-1.54-.319-.142-.68.035-1.117 1.047-.44 1.017-.334 1.437-.015 1.579.32.141.688-.069 1.127-1.086ZM59.074 12.84c.684-1.156 1.502-1.475 2.213-1.045.71.43.808 1.316.127 2.467-.686 1.161-1.517 1.513-2.228 1.08-.708-.433-.798-1.343-.112-2.502Zm1.691 1.027c.562-.946.5-1.346.2-1.528-.3-.182-.681-.053-1.24.896-.564.95-.511 1.381-.214 1.563.296.182.69.023 1.254-.931ZM65.268 19.762c-.17.203-.29.279-.477.236-.177-.036-.354-.182-.573-.372.067-.117.13-.266.172-.41l-.25-.122c.045-.07.088-.156.128-.253-.627-.465-1.26-.953-1.724-1.303l.314-.452.789.62.267-.322-.936-.805-.955 1.142-.474-.408.955-1.14-.157-.137.334-.4.157.136.1-.119.474.408-.097.119.935.804.147-.177-1.147-.986 1.12-1.341 2.799 2.408-1.12 1.341-1.18-1.014-.147.177 1.472 1.265-.924 1.103-.002.002Zm-.601-3.279.16-.19-.674-.579-.16.19.674.58Zm.31-1.9-.864-.744.342-.41.863.744.18-.215.486.418-.18.215.437.374-.342.41-.436-.374-.153.182-.486-.418.152-.182Zm-.527 3.747c.027-.093.05-.19.067-.275l.424.212-.551-.476-.25.3.315.24h-.005Zm-.04-2.924.673.579.163-.195-.674-.58-.162.195Zm.284 3.939c.043.036.065.033.1-.008l.581-.695-.416-.357a3.67 3.67 0 0 1-.332 1.004l.067.059v-.003Zm1.287-2.06-.68-.587-.16.19.68.587.16-.19Zm.42-.5-.681-.587-.163.194.681.587.162-.194Zm1.756-.17-.342.41-.886-.762-.152.182-.486-.417.152-.182-.412-.354.342-.41.412.354.18-.215.486.417-.18.215.886.762ZM69.132 24.213c.112.144.242.081.876-.392 0 .185.08.478.157.648-.806.561-1.128.61-1.475.167l-.404-.519c-.381-.488-.316-.746.183-1.146l1.307-1.048-.507-.65c-.95.635-1.836 1.022-3.056.319a1.96 1.96 0 0 0 .165-.653c1.035.635 1.706.294 2.457-.223l-.763-.979.496-.397 3.014 3.866-.497.397-.893-1.143-1.307 1.047c-.162.13-.167.177-.057.319l.304.39v-.003Zm2.799-1.94-2.397-3.077.491-.395 2.397 3.077-.491.395ZM19.363 72.861l-.611.617-4.662-4.736.608-.618 1.924 1.954.369-.375-1.345-1.366.457-.463c-.26.033-.522.038-.756.03.09-.18.267-.657.337-.946-.736.592-1.652 1.146-2.585 1.24.025-.258-.017-.843-.095-1.088 1.15-.121 2.103-.984 2.757-1.647l1.13-1.146.856.87a4.285 4.285 0 0 0-.025-.617 27.48 27.48 0 0 0 1.718 1.191 27.96 27.96 0 0 0-.925-1.47l.629.084-1.09-1.108.59-.598 2.208 2.242c.045-.2.07-.405.09-.58l.756.264c-.02.316-.07.716-.152 1.017l2.195 2.23-.591.599-.92-.934.114.504c-.337-.122-.71-.284-1.098-.47.272.482.514.933.704 1.32l-.649-.066.933.946-.603.613-4.605-4.679-.534.542a9.135 9.135 0 0 1-.699.642 4.363 4.363 0 0 0 1.866-.422l.45.842c-.115.051-.23.104-.357.155l.736.746.386-.392.744.754-.387.392 1.566 1.592-.59.6-1.567-1.592-.33.334 1.382 1.404-.578.585-1.382-1.405-.37.372 1.999 2.03.002.007Zm-1.793-3.742.329-.334-1.035-1.05a8.441 8.441 0 0 1-.547.116l1.25 1.27.003-.002Zm3.32-.739a24.413 24.413 0 0 0-.768-1.437 45.198 45.198 0 0 1-1.69-1.058l2.455 2.495h.003Zm-1.185-3.433c.312.495.634 1.017.95 1.546.387.225.781.42 1.118.554l-2.068-2.1ZM25.39 73.387l3.123 1.397-1.614 3.71-.978-.439.163-.374-1.225-.55-.183.418-.92-.412 1.631-3.752.003.002Zm.506 1.362-.623 1.434 1.224.55.624-1.436-1.225-.548Zm5.735.604-4.814-2.155 1.312-3.019 4.814 2.156-1.312 3.016v.002Zm.809 1.19-1.617 3.716-.985-.442.167-.383-1.307-.584-.182.417-.936-.42 1.632-3.75 3.23 1.445h-.002Zm-.903-3.7-2.877-1.288-.489 1.126 2.877 1.288.489-1.126Zm-1.12 5.643.623-1.435-1.307-.585-.624 1.435 1.307.585ZM42.83 80.67c.833.316 1.733.7 2.287.97l-1.302.428c-.492-.293-1.372-.713-2.258-1.05l.734-.369-2.378-.099.644.327c-.764.415-1.918.776-2.844.966a6.95 6.95 0 0 0-.74-.804c.812-.104 1.7-.286 2.34-.514l-1.176-.048.145-3.557 6.012.25-.145 3.558-1.32-.056v-.003Zm2.427-3.783-8.04-.334.03-.747 3.482.145.015-.337-2.557-.106.028-.656 2.556.107.013-.327-2.971-.124.03-.71 2.97.123.02-.49 1.096.045-.02.49 3.096.13-.03.71-3.096-.128-.012.326 2.691.111-.027.656-2.692-.112-.012.337 3.462.144-.03.747h-.002Zm-6.062 3 3.894.162.015-.382-3.894-.162-.015.383Zm.04-.981 3.894.162.015-.365-3.894-.162-.015.365Zm.04-.964 3.894.162.015-.365-3.894-.162-.015.365ZM51.426 72.567c-.03.676-.11 1.367-.25 2.05l1.988 5.915-1.002.347-1.485-4.415a9.362 9.362 0 0 1-.446 1.068 7.914 7.914 0 0 0-.953-.883c.596-1.08.99-2.614 1.038-4.056l1.11-.028v.002Zm4.228 3.292.72 2.148 2.006-.693.33.984-5 1.728-.329-.984 1.964-.678-.721-2.148-2.193.759-.334-.992 2.192-.759-.63-1.88-1.734.6-.325-.967 4.633-1.601.324.966-1.87.648.63 1.88 2.193-.76.334.993-2.193.759.003-.003ZM63.25 68.198c-.08.342-.197.68-.324 1.007a5.107 5.107 0 0 0-.953-.114c.144.329.287.625.396.898.791.24 1.278.67 1.62 1.08.376.454.55.815.486 1.147a.96.96 0 0 1-.235.465 3.299 3.299 0 0 1-.386.37 2.307 2.307 0 0 0-.761-.575c.114-.073.197-.144.267-.217a.332.332 0 0 0 .117-.198c.022-.126-.085-.298-.252-.498a2.7 2.7 0 0 0-1.44-.924c-.236-.523-.588-1.199-.882-1.735l-.494.422 4.565 5.473-.679.582-5.181-6.209 1.4-1.2.087-.12.755-.137c.183.402.39.86.587 1.31.446-1.088.618-2.345.481-3.314l1.013-.392c.017.103.032.222.05.326.855-.018 1.946-.25 2.801-.602.05.313.215.794.34 1.057a9.339 9.339 0 0 1-1.397.314l.369.458-2.016 1.73-.337-.402.003-.002Zm-.175 1.44 1.652-1.417 1.456 1.745-1.65 1.417-1.458-1.745Zm1.731-3.156a8.667 8.667 0 0 1-1.312.064c-.012.392-.057.79-.134 1.176l1.447-1.242v.002Zm-.15 3.851.46-.394-.534-.64-.459.394.534.64Zm.38-2.378 1.701-1.46 1.457 1.746-1.701 1.46-1.457-1.746Zm.936 2.586c.074.174.137.362.192.539.374-.046.803-.081 1.07-.058l.047.903c-.232-.038-.596-.038-.943-.015a4.717 4.717 0 0 1-.115 1.877c-.224-.046-.713-.094-.963-.068.302-.878.252-1.84-.127-2.718l.84-.458-.001-.002Zm.653-1.898.479-.412-.534-.64-.479.412.534.64Zm1.212.2c.123.23.23.458.312.698.611-.058 1.33-.114 1.759-.078l-.015.969c-.367-.043-.94-.04-1.497-.005a3.656 3.656 0 0 1-.035 1.51c-.22-.05-.718-.098-.963-.068.247-.82.088-1.685-.374-2.507l.813-.519Z" fill="#7F2121"/></g><defs><clipPath id="a"><path fill="#fff" d="M0 0h85v87H0z"/></clipPath></defs></svg>