<svg width="85" height="87" viewBox="0 0 85 87" fill="none" xmlns="http://www.w3.org/2000/svg"><g clip-path="url(#clip0_21_488)"><path d="M42.6448 84.2951C64.9802 84.2951 83.0866 65.93 83.0866 43.2756C83.0866 20.6212 64.9802 2.2561 42.6448 2.2561C20.3095 2.2561 2.20306 20.6212 2.20306 43.2756C2.20306 65.93 20.3095 84.2951 42.6448 84.2951Z" fill="#E9C857"></path><path d="M42.6449 86.3192C19.2459 86.3192 0.207428 67.0088 0.207428 43.2756C0.207428 19.5424 19.2459 0.231934 42.6449 0.231934C66.0438 0.231934 85.0823 19.5424 85.0823 43.2756C85.0823 67.0088 66.0438 86.3192 42.6449 86.3192ZM42.6449 2.25609C20.346 2.25609 2.20307 20.6582 2.20307 43.2756C2.20307 65.893 20.346 84.2951 42.6449 84.2951C64.9437 84.2951 83.0866 65.893 83.0866 43.2756C83.0866 20.6582 64.9462 2.25609 42.6449 2.25609Z" fill="#7F2121"></path><path d="M42.6448 71.3885C57.9525 71.3885 70.3619 58.8019 70.3619 43.2756C70.3619 27.7492 57.9525 15.1626 42.6448 15.1626C27.3371 15.1626 14.9278 27.7492 14.9278 43.2756C14.9278 58.8019 27.3371 71.3885 42.6448 71.3885Z" fill="#956134"></path><path d="M19.6974 46.3549H21.9824V39.8067H20.0566V38.4809C21.1218 38.276 21.8527 38.0002 22.5287 37.5776H24.0953V46.3549H26.0935V48.0906H19.6949V46.3549H19.6974Z" fill="#E9C857"></path><path d="M27.6201 42.7824C27.6201 39.2249 29.0445 37.3728 31.2298 37.3728C33.415 37.3728 34.8244 39.2401 34.8244 42.7824C34.8244 46.3246 33.415 48.2931 31.2298 48.2931C29.0445 48.2931 27.6201 46.3525 27.6201 42.7824ZM32.8238 42.7824C32.8238 39.865 32.1478 39.0503 31.2273 39.0503C30.3068 39.0503 29.6183 39.8676 29.6183 42.7824C29.6183 45.6971 30.3093 46.6181 31.2273 46.6181C32.1453 46.6181 32.8238 45.7148 32.8238 42.7824Z" fill="#E9C857"></path><path d="M36.0892 42.7824C36.0892 39.2249 37.5136 37.3728 39.6988 37.3728C41.884 37.3728 43.2934 39.2401 43.2934 42.7824C43.2934 46.3246 41.884 48.2931 39.6988 48.2931C37.5136 48.2931 36.0892 46.3525 36.0892 42.7824ZM41.2928 42.7824C41.2928 39.865 40.6168 39.0503 39.6963 39.0503C38.7758 39.0503 38.0873 39.8676 38.0873 42.7824C38.0873 45.6971 38.7783 46.6181 39.6963 46.6181C40.6143 46.6181 41.2928 45.7148 41.2928 42.7824Z" fill="#E9C857"></path><path d="M44.5582 42.7824C44.5582 39.2249 45.9826 37.3728 48.1678 37.3728C50.353 37.3728 51.7625 39.2401 51.7625 42.7824C51.7625 46.3246 50.353 48.2931 48.1678 48.2931C45.9826 48.2931 44.5582 46.3525 44.5582 42.7824ZM49.7618 42.7824C49.7618 39.865 49.0858 39.0503 48.1653 39.0503C47.2448 39.0503 46.5563 39.8676 46.5563 42.7824C46.5563 45.6971 47.2473 46.6181 48.1653 46.6181C49.0833 46.6181 49.7618 45.7148 49.7618 42.7824Z" fill="#E9C857"></path><path d="M56.1604 37.899H53.1694V36.4846H56.1604V35.7407H57.8417V36.4846H59.3509V37.899H57.8417V38.5265H56.1604V37.899ZM65.4626 47.8148C65.4626 48.5157 65.3478 48.88 64.9013 49.1128C64.4847 49.3456 63.881 49.3608 63.1177 49.3608C63.0603 49.0116 62.9306 48.6017 62.7735 48.2373L62.07 48.4271C62.0401 48.2095 61.9827 47.9616 61.8979 47.6984C59.8573 47.8452 57.7569 47.9616 56.2327 48.0628L56.103 46.6054C56.8214 46.575 57.7419 46.532 58.7348 46.489V45.3808H55.4993V49.3329H53.8604V45.3808H53.3141V43.9942H53.8604V43.5868H55.4993V43.9942H58.7348V43.3819H54.7659V38.7441H64.4548V43.3819H60.3712V43.9942H65.4601V47.8148H65.4626ZM56.4048 40.538H58.7348V39.8675H56.4048V40.538ZM58.7348 42.2585V41.6032H56.4048V42.2585H58.7348ZM65.9815 36.4846V37.899H62.9181V38.5265H61.2368V37.899H59.8124V36.4846H61.2368V35.7407H62.9181V36.4846H65.9815ZM62.731 39.8675H60.3737V40.538H62.731V39.8675ZM62.731 41.6032H60.3737V42.2585H62.731V41.6032ZM61.4089 46.3574C61.3091 46.1246 61.1944 45.8919 61.0772 45.6869L62.2845 45.3808H60.3712V46.4156L61.4064 46.3574H61.4089ZM63.6091 47.9767C63.7538 47.9767 63.7962 47.9337 63.7962 47.787V45.3808H62.3594C62.8184 46.1828 63.2374 47.248 63.3796 47.9767H63.6091Z" fill="#E9C857"></path><path d="M13.7205 23.0769C14.5761 23.2211 15.4991 23.1629 16.2075 22.8543C16.225 23.0693 16.3173 23.4058 16.4071 23.6032C16.1626 23.6917 15.9032 23.7525 15.6238 23.7879L16.0229 24.0485L15.4143 25.0049L16.1876 25.511L15.8159 26.0954L15.0426 25.5894L14.4239 26.5635L14.0173 26.2978C14.1071 26.5863 14.1595 26.8697 14.1869 27.1505C13.9874 27.1581 13.6706 27.2011 13.486 27.2644C13.461 26.4876 13.1093 25.5843 12.6004 24.8455L11.877 25.9841L11.3232 25.6223L12.4283 23.8815L11.5452 23.3046L11.9169 22.7202L12.8 23.297L13.9125 21.5461L14.4663 21.908L13.7229 23.0769H13.7205ZM14.4863 25.2276L12.9796 24.2433L12.9596 24.2762C13.3887 24.8455 13.7254 25.4679 13.9425 26.0828L14.4863 25.2276ZM15.3843 23.8157C14.7457 23.8638 14.0522 23.8005 13.3637 23.6386L13.3513 23.6563L14.858 24.6406L15.3843 23.8132V23.8157Z" fill="#7F2121"></path><path d="M21.1916 18.5251L21.5658 18.8945L18.7794 21.8067L18.4052 21.4373L19.5552 20.2355L19.3282 20.0128L18.525 20.8529L18.2431 20.5771C18.2655 20.7365 18.2705 20.8959 18.268 21.0401C18.1583 20.987 17.8739 20.8832 17.6993 20.8427C18.061 21.2906 18.4002 21.8472 18.4651 22.4216C18.3104 22.4089 17.9612 22.4418 17.814 22.4899C17.7317 21.784 17.2053 21.2071 16.8037 20.8099L16.1077 20.1242L16.6191 19.5878C16.4919 19.5878 16.3447 19.5954 16.2499 19.608C16.4794 19.2816 16.7239 18.9122 16.9459 18.5403C16.6441 18.7275 16.3447 18.9325 16.0778 19.1247L16.1227 18.7376L15.4716 19.4182L15.1074 19.0615L16.427 17.6825C16.3073 17.6572 16.1851 17.6421 16.0803 17.6319L16.2325 17.1638C16.4221 17.174 16.659 17.1993 16.8411 17.2473L18.1533 15.876L18.5175 16.2327L17.9687 16.8071L18.268 16.7312C18.1982 16.9387 18.1059 17.1714 17.9961 17.4118C18.283 17.2398 18.5499 17.0879 18.7794 16.9665L18.747 17.3663L19.3033 16.7843L19.675 17.1487L16.9235 20.0255L17.2502 20.3494C17.375 20.4733 17.5097 20.61 17.6419 20.7719C17.6419 20.4 17.5471 19.9926 17.3725 19.6283L17.8714 19.3423C17.9038 19.4132 17.9363 19.4815 17.9662 19.5599L18.4052 19.0994L18.1658 18.8641L18.6098 18.4011L18.8493 18.6364L19.7847 17.6572L20.1489 18.014L19.2135 18.9932L19.4155 19.1931L20.2412 18.3277L20.5979 18.6769L19.7722 19.5397L19.9993 19.7624L21.1941 18.515L21.1916 18.5251ZM16.457 18.391C16.7513 18.1962 17.0582 17.9912 17.3725 17.7913C17.5047 17.551 17.6145 17.3081 17.6943 17.0981L16.4595 18.391H16.457ZM18.4975 17.6294C18.2456 17.7584 17.9512 17.9305 17.6469 18.1152C17.4473 18.4745 17.2378 18.8287 17.0307 19.1627L18.4975 17.6294ZM18.9715 19.6637L18.7669 19.4638L18.1483 20.109C18.1757 20.2228 18.2007 20.3316 18.2231 20.443L18.9715 19.6637Z" fill="#7F2121"></path><path d="M24.3423 13.4065L21.7105 15.2384L20.593 13.5887L23.2247 11.7568L24.3423 13.4065ZM21.3513 16.0455L23.0576 14.8563L24.4296 16.883L23.8958 17.2549L23.7561 17.05L23.0875 17.5156L23.2422 17.7433L22.7383 18.0924L21.3513 16.043V16.0455ZM23.0351 12.6551L21.4636 13.7506L21.8801 14.3655L23.4517 13.2699L23.0351 12.6551ZM22.2069 16.215L22.7383 16.9994L23.4068 16.5338L22.8755 15.7495L22.2069 16.215ZM25.2054 13.3635L26.5799 15.3953L26.0411 15.7697L25.8989 15.5597L25.1854 16.0582L25.3401 16.2859L24.8287 16.6426L23.4417 14.5932L25.2079 13.3635H25.2054ZM25.5496 15.041L25.0183 14.2567L24.3049 14.7551L24.8362 15.5395L25.5496 15.0436V15.041Z" fill="#7F2121"></path><path d="M30.8755 12.5034C31.3919 12.2782 31.4169 12.1137 31.1799 11.3445C31.3769 11.3749 31.6888 11.3572 31.8783 11.3167C32.1652 12.3212 32.0629 12.6957 31.1524 13.0929L29.496 13.8115C28.5307 14.2315 28.154 14.1657 27.8297 13.3991L26.8319 11.0333L27.448 10.7651L27.7399 11.4559L30.0124 10.4691L29.5559 9.3887L26.4676 10.7297L26.2157 10.13L29.9251 8.51831L30.9853 11.0308L30.3642 11.3015L30.2644 11.0637L27.9918 12.0505L28.4483 13.1334C28.5805 13.4471 28.6903 13.4547 29.2416 13.2143L30.878 12.5034H30.8755Z" fill="#7F2121"></path><path d="M34.4752 10.0339L34.7446 11.3192C34.8094 11.633 34.7845 11.8025 34.6223 11.9315C34.4677 12.0732 34.2157 12.1441 33.844 12.2225C33.7867 12.0606 33.6545 11.8227 33.5422 11.6785C33.7567 11.638 33.9738 11.5925 34.0436 11.5773C34.1185 11.5621 34.1384 11.5292 34.1234 11.4533L33.8889 10.335L33.3801 10.5905L33.0857 10.0111C33.2803 9.92508 33.5073 9.81881 33.7567 9.70243L33.5572 8.75107L32.9236 8.8877L32.7988 8.29311L33.4324 8.15648L33.2179 7.12922L33.8416 6.99512L34.0561 8.02238L34.6149 7.90093L34.7396 8.49552L34.1808 8.61697L34.3455 9.41145L34.7147 9.23181L34.9167 9.80363L34.4752 10.0339ZM35.0215 9.10783C34.9217 9.00409 34.6398 8.79915 34.5051 8.73842C35.0739 8.31082 35.0714 7.90599 34.994 7.53152L34.8718 6.95211L36.7477 6.5498L36.9947 7.72887C37.0271 7.88575 37.052 7.949 37.1369 7.92876L37.4188 7.86804C37.5086 7.84779 37.6383 7.80478 37.7106 7.76683C37.7555 7.92623 37.8179 8.14383 37.8703 8.28552C37.7979 8.34118 37.6657 8.37407 37.5435 8.40191L37.1868 8.47781C36.6654 8.58914 36.5057 8.38672 36.3935 7.84779L36.2737 7.27597L35.5877 7.43031C35.7 7.97177 35.6726 8.60432 35.0265 9.11036L35.0215 9.10783ZM37.7306 8.75613C37.6707 9.457 37.4686 10.0313 37.1394 10.5146C37.5335 10.6209 37.975 10.674 38.4565 10.6614C38.3542 10.836 38.2295 11.1446 38.1821 11.342C37.6283 11.3268 37.1294 11.2307 36.6854 11.0535C36.3087 11.4052 35.8621 11.6987 35.3508 11.9442C35.256 11.7797 35.0614 11.5444 34.9242 11.4204C35.3607 11.2408 35.7474 11.0131 36.0692 10.7449C35.715 10.5096 35.3907 10.2186 35.1113 9.86183L35.2934 9.74797L34.989 9.81375L34.8643 9.2141L37.1768 8.71818L37.2815 8.66758L37.7281 8.75866L37.7306 8.75613ZM35.72 9.65688C35.9395 9.9099 36.2114 10.1148 36.5282 10.2742C36.7352 10.0086 36.8899 9.71002 36.9872 9.38362L35.72 9.65688Z" fill="#7F2121"></path><path d="M41.4998 6.1525C41.3577 6.53456 41.183 6.92927 40.9735 7.30121L41.0184 11.0889L40.4022 11.0965L40.3698 8.25762C40.2451 8.41955 40.1179 8.57136 39.9931 8.71052C39.9308 8.55112 39.7487 8.19943 39.6364 8.04002C40.1378 7.53652 40.6243 6.74709 40.8962 5.96021L41.4974 6.1525H41.4998ZM42.4927 9.49741C42.2757 9.97562 41.9489 10.5146 41.6745 10.8561C41.5597 10.7575 41.3177 10.5854 41.1706 10.5095C41.44 10.2033 41.7269 9.74031 41.909 9.33042L42.4927 9.49994V9.49741ZM43.3658 9.13813L43.3882 11.0763L42.7347 11.0838L42.7122 9.14572L41.2903 9.16343L41.2828 8.5663L42.7047 8.54859L42.6997 8.0628L41.6321 8.07545L41.6096 6.17527L44.4684 6.13985L44.4908 8.04002L43.3533 8.05267L43.3583 8.53847L44.7677 8.52076L44.7752 9.11789L43.3658 9.1356V9.13813ZM42.2407 7.48844L43.8348 7.4682L43.8273 6.72938L42.2332 6.74962L42.2432 7.48844H42.2407ZM44.0318 9.295C44.3461 9.65429 44.6854 10.1274 44.8451 10.4513L44.3362 10.7726C44.184 10.4488 43.8472 9.94526 43.5529 9.57332L44.0293 9.29753L44.0318 9.295Z" fill="#7F2121"></path><path d="M46.474 10.1527L47.3296 10.2868L47.7013 7.83503L46.9804 7.7237L47.0552 7.22778C47.4643 7.2126 47.7562 7.15188 48.0331 7.03296L48.6193 7.12405L48.1229 10.4108L48.8713 10.5272L48.774 11.1774L46.3792 10.8055L46.4765 10.1552L46.474 10.1527Z" fill="#7F2121"></path><path d="M50.842 9.57847C51.2137 8.28301 51.9246 7.76432 52.7179 7.9971C53.5112 8.22988 53.8305 9.06231 53.4613 10.3502C53.0896 11.6507 52.3736 12.2048 51.5779 11.9695C50.7821 11.7342 50.4678 10.8765 50.8395 9.57594L50.842 9.57847ZM52.7354 10.1376C53.0397 9.07749 52.88 8.70809 52.5433 8.60941C52.209 8.51073 51.8722 8.73339 51.5679 9.79354C51.2611 10.8587 51.4182 11.2636 51.7525 11.3623C52.0868 11.4609 52.4285 11.2054 52.7329 10.1376H52.7354Z" fill="#7F2121"></path><path d="M55.0603 10.9372C55.5916 9.70247 56.3624 9.27993 57.1208 9.61645C57.8791 9.95296 58.0887 10.8183 57.5598 12.048C57.026 13.2878 56.2452 13.7432 55.4868 13.4067C54.7285 13.0702 54.5239 12.177 55.0603 10.9397V10.9372ZM56.8663 11.7393C57.3029 10.7272 57.1906 10.3401 56.8713 10.1984C56.552 10.0567 56.1903 10.2338 55.7538 11.2459C55.3147 12.263 55.4195 12.683 55.7388 12.8247C56.0581 12.9664 56.4273 12.7564 56.8663 11.7393Z" fill="#7F2121"></path><path d="M59.074 12.8398C59.7575 11.6835 60.5757 11.3647 61.2867 11.7948C61.9976 12.2249 62.0949 13.1105 61.4139 14.2617C60.7279 15.4231 59.8972 15.7748 59.1863 15.3421C58.4778 14.9095 58.388 13.9986 59.074 12.8398ZM60.7653 13.867C61.3266 12.9207 61.2642 12.521 60.9649 12.3388C60.6656 12.1566 60.2839 12.2857 59.7251 13.2345C59.1613 14.1858 59.2137 14.616 59.5106 14.7981C59.8074 14.9803 60.2016 14.8209 60.7653 13.867Z" fill="#7F2121"></path><path d="M65.268 19.7625C65.0984 19.9649 64.9786 20.0408 64.7915 19.9978C64.6144 19.9624 64.4373 19.8156 64.2178 19.6259C64.2851 19.5095 64.3475 19.3602 64.3899 19.216L64.1405 19.0945C64.1854 19.0237 64.2278 18.9377 64.2677 18.8415C63.6415 18.376 63.0079 17.8876 62.5439 17.5385L62.8583 17.0856C63.0728 17.2551 63.3497 17.4727 63.6465 17.7055L63.9135 17.3841L62.978 16.5795L62.0226 17.7207L61.5486 17.3133L62.504 16.1722L62.3469 16.0355L62.6811 15.6358L62.8383 15.7724L62.9381 15.6535L63.412 16.0608L63.3148 16.1798L64.2502 16.9844L64.3974 16.8073L63.2499 15.8205L64.37 14.4795L67.1689 16.8882L66.0488 18.2292L64.8689 17.2146L64.7217 17.3917L66.1935 18.6568L65.2705 19.76L65.268 19.7625ZM64.6668 16.4834L64.8265 16.2936L64.1529 15.7142L63.9933 15.904L64.6668 16.4834ZM64.9761 14.5832L64.113 13.8393L64.4548 13.4294L65.3179 14.1733L65.4975 13.9583L65.9839 14.3757L65.8043 14.5908L66.2409 14.9653L65.8991 15.3752L65.4626 15.0007L65.3104 15.1829L64.824 14.7654L64.9761 14.5832ZM64.4498 18.3304C64.4772 18.2368 64.4997 18.1407 64.5171 18.0546L64.9412 18.2672L64.3899 17.7915L64.1405 18.0901L64.4548 18.3304H64.4498ZM64.4099 15.4055L65.0834 15.9849L65.2456 15.7901L64.572 15.2107L64.4099 15.4055ZM64.6943 19.345C64.7367 19.3805 64.7591 19.3779 64.794 19.3374L65.3753 18.6416L64.9587 18.2849C64.8988 18.6315 64.7616 19.0414 64.6269 19.2894L64.6943 19.3476V19.345ZM65.9814 17.2855L65.3004 16.6985L65.1408 16.8882L65.8218 17.4752L65.9814 17.2855ZM66.4005 16.7845L65.7195 16.1975L65.5574 16.3923L66.2384 16.9793L66.4005 16.7845ZM68.1567 16.615L67.8149 17.0248L66.9294 16.2633L66.7772 16.4454L66.2908 16.028L66.4429 15.8458L66.0313 15.4916L66.3731 15.0817L66.7847 15.4359L66.9643 15.2208L67.4507 15.6383L67.2711 15.8534L68.1567 16.615Z" fill="#7F2121"></path><path d="M69.1321 24.2131C69.2443 24.3573 69.374 24.2941 70.0077 23.8209C70.0077 24.0056 70.0875 24.2991 70.1648 24.4687C69.3591 25.0304 69.0373 25.0784 68.6905 24.6357L68.2864 24.117C67.9047 23.6286 67.9696 23.3706 68.4685 22.9708L69.7757 21.9233L69.2693 21.273C68.3188 21.9081 67.4333 22.2952 66.2134 21.5918C66.2933 21.4274 66.3706 21.1339 66.3781 20.939C67.4133 21.5741 68.0844 21.2325 68.8352 20.7164L68.0719 19.7372L68.5683 19.34L71.5817 23.2061L71.0853 23.6033L70.1923 22.4597L68.8851 23.5072C68.723 23.6362 68.718 23.6843 68.8277 23.826L69.1321 24.2156V24.2131ZM71.931 22.2725L69.5337 19.1957L70.0251 18.801L72.4224 21.8777L71.931 22.2725Z" fill="#7F2121"></path><path d="M19.3631 72.861L18.7519 73.4784L14.0896 68.7419L14.6983 68.1245L16.6216 70.0778L16.9908 69.7034L15.6462 68.3371L16.1027 67.874C15.8433 67.9069 15.5814 67.912 15.3469 67.9044C15.4367 67.7248 15.6138 67.2466 15.6836 66.9581C14.9477 67.5502 14.0322 68.1043 13.0993 68.1979C13.1242 67.9398 13.0818 67.3554 13.0045 67.1099C14.1545 66.9885 15.1074 66.1257 15.761 65.4628L16.891 64.3166L17.7466 65.187C17.7541 64.9744 17.7417 64.729 17.7217 64.5696C18.248 64.9618 18.8393 65.3818 19.4404 65.7613C19.1436 65.2528 18.8193 64.7442 18.515 64.2913L19.1436 64.3748L18.0535 63.2666L18.6447 62.6694L20.8524 64.9112C20.8973 64.7113 20.9222 64.5064 20.9422 64.3318L21.698 64.5949C21.6781 64.9112 21.6282 65.311 21.5459 65.612L23.7411 67.8411L23.1499 68.4408L22.2294 67.5072L22.3441 68.0107C22.0073 67.8892 21.6332 67.7273 21.2465 67.5401C21.5184 68.0233 21.7604 68.4737 21.95 68.8608L21.3014 68.795L22.2344 69.7413L21.6307 70.3536L17.0257 65.6753L16.4919 66.2168C16.2873 66.4217 16.0603 66.6418 15.7934 66.8594C16.3971 66.867 17.0631 66.7177 17.6593 66.4369L18.1084 67.2794C17.9936 67.33 17.8789 67.3832 17.7516 67.4338L18.4875 68.1802L18.8742 67.788L19.6176 68.542L19.2309 68.9342L20.7975 70.5257L20.2063 71.1253L18.6397 69.5338L18.3104 69.8678L19.6924 71.2721L19.1137 71.8566L17.7317 70.4523L17.3625 70.8242L19.3606 72.8535L19.3631 72.861ZM17.5695 69.1189L17.8988 68.7849L16.8636 67.7349C16.679 67.7804 16.5019 67.8184 16.3173 67.8513L17.567 69.1214L17.5695 69.1189ZM20.8898 68.3801C20.6877 67.955 20.4133 67.4591 20.1215 66.9429C19.5452 66.6014 18.974 66.2395 18.4326 65.8853L20.8873 68.3801H20.8898ZM19.7049 64.9466C20.0167 65.4425 20.3385 65.9637 20.6553 66.4926C21.042 66.7177 21.4361 66.9126 21.7729 67.0467L19.7049 64.9466Z" fill="#7F2121"></path><path d="M25.39 73.3872L28.5132 74.7839L26.8992 78.4932L25.9213 78.0554L26.0835 77.681L24.8586 77.1319L24.6765 77.5494L23.756 77.137L25.3875 73.3847L25.39 73.3872ZM25.8964 74.7485L25.2727 76.1831L26.4975 76.7322L27.1212 75.2975L25.8964 74.7485ZM31.6314 75.3532L26.8169 73.1975L28.129 70.179L32.9435 72.3347L31.6314 75.3507V75.3532ZM32.4396 76.5424L30.8231 80.2592L29.8378 79.8165L30.0049 79.4344L28.6977 78.8499L28.5156 79.2674L27.5802 78.8474L29.2116 75.0977L32.4421 76.5424H32.4396ZM31.5366 72.8432L28.6603 71.5554L28.1714 72.6813L31.0476 73.9692L31.5366 72.8432ZM30.4165 78.4856L31.0401 77.051L29.733 76.4665L29.1094 77.9011L30.4165 78.4856Z" fill="#7F2121"></path><path d="M42.8294 80.6693C43.6626 80.9856 44.5631 81.3702 45.1169 81.6409L43.8148 82.0685C43.3233 81.775 42.4428 81.355 41.5572 81.0185L42.2906 80.6491L39.9133 80.5504L40.5569 80.8768C39.7935 81.2917 38.6386 81.6535 37.7131 81.8433C37.5509 81.6282 37.1892 81.2285 36.9722 81.0387C37.7854 80.935 38.6735 80.7528 39.3121 80.5251L38.1372 80.477L38.2818 76.9196L44.2937 77.17L44.149 80.7275L42.8294 80.6718V80.6693ZM45.2566 76.8867L37.2167 76.5527L37.2466 75.8063L40.729 75.9505L40.744 75.614L38.1871 75.5077L38.2145 74.8524L40.7714 74.9587L40.7839 74.6323L37.8129 74.5083L37.8428 73.7973L40.8138 73.9213L40.8338 73.4304L41.9289 73.476L41.9089 73.9668L45.0047 74.0959L44.9747 74.8068L41.879 74.6778L41.8665 75.0042L44.5582 75.1155L44.5307 75.7708L41.8391 75.6595L41.8266 75.996L45.2891 76.1403L45.2591 76.8867H45.2566ZM39.1949 79.8875L43.0889 80.0494L43.1038 79.6673L39.2098 79.5054L39.1949 79.8875ZM39.2348 78.9058L43.1288 79.0677L43.1437 78.7033L39.2497 78.5414L39.2348 78.9058ZM39.2747 77.9418L43.1687 78.1037L43.1837 77.7393L39.2896 77.5774L39.2747 77.9418Z" fill="#7F2121"></path><path d="M51.4257 72.5675C51.3957 73.243 51.3159 73.9338 51.1762 74.6169L53.1644 80.5325L52.1616 80.8791L50.6773 76.464C50.5401 76.8485 50.3954 77.2053 50.2308 77.5317C50.0412 77.309 49.5448 76.846 49.2779 76.6487C49.8741 75.5683 50.2682 74.035 50.3156 72.5928L51.4257 72.5649V72.5675ZM55.654 75.8592L56.3749 78.0074L58.3805 77.3141L58.7098 78.2983L53.7107 80.0265L53.3814 79.0422L55.3446 78.3641L54.6237 76.216L52.431 76.975L52.0967 75.9832L54.2894 75.2242L53.6583 73.3442L51.9246 73.9439L51.6003 72.9773L56.2327 71.3757L56.557 72.3423L54.6861 72.99L55.3172 74.8699L57.5099 74.1109L57.8442 75.1027L55.6515 75.8618L55.654 75.8592Z" fill="#7F2121"></path><path d="M63.2499 68.1979C63.1701 68.5395 63.0528 68.8785 62.9256 69.2049C62.7011 69.1467 62.2596 69.0961 61.9727 69.091C62.1174 69.42 62.2595 69.716 62.3693 69.9892C63.1601 70.2296 63.6465 70.6598 63.9883 71.0696C64.365 71.5226 64.5396 71.8844 64.4747 72.2158C64.4473 72.3803 64.365 72.5372 64.2402 72.6814C64.1479 72.7952 63.9983 72.9268 63.8536 73.0508C63.6864 72.8484 63.3696 72.5954 63.0927 72.4764C63.2075 72.4031 63.2898 72.3322 63.3596 72.2588C63.4145 72.2108 63.4644 72.145 63.4769 72.0615C63.4993 71.935 63.3921 71.7629 63.2249 71.563C62.953 71.2366 62.5215 70.8318 61.7856 70.6395C61.5486 70.1158 61.1969 69.4402 60.9025 68.9038L60.4086 69.3263L64.9736 74.7991L64.2951 75.3811L59.1139 69.172L60.5134 67.9727L60.6007 67.8512L61.3565 67.7146C61.5386 68.1169 61.7457 68.5749 61.9427 69.0252C62.3893 67.9373 62.5614 66.6798 62.4242 65.7107L63.437 65.3185C63.4544 65.4223 63.4694 65.5412 63.4869 65.6449C64.3425 65.6272 65.4326 65.3944 66.2883 65.0427C66.3382 65.3565 66.5028 65.8372 66.6275 66.1003C66.196 66.2319 65.7145 66.3458 65.2306 66.4141L65.5998 66.8721L63.5842 68.6027L63.2474 68.2004L63.2499 68.1979ZM63.0753 69.6376L64.7267 68.2206L66.1835 69.9665L64.5321 71.3834L63.0753 69.6376ZM64.8065 66.4824C64.3575 66.5355 63.9084 66.5608 63.4944 66.5457C63.4819 66.9378 63.437 67.3351 63.3596 67.7222L64.8065 66.4799V66.4824ZM64.6568 70.3334L65.1158 69.9386L64.582 69.2985L64.123 69.6932L64.6568 70.3334ZM65.036 67.955L66.7373 66.4951L68.1941 68.2409L66.4928 69.7008L65.036 67.955ZM65.9715 70.5408C66.0463 70.7154 66.1087 70.9027 66.1635 71.0798C66.5377 71.0342 66.9668 70.9988 67.2337 71.0216L67.2811 71.9249C67.0491 71.8869 66.6849 71.8869 66.3382 71.9097C66.4255 72.5625 66.3855 73.1925 66.2234 73.7871C65.9989 73.7415 65.51 73.6935 65.2605 73.7188C65.5623 72.8408 65.5124 71.8793 65.1333 71.0013L65.9739 70.5434L65.9715 70.5408ZM66.625 68.6432L67.104 68.2308L66.5701 67.5906L66.0912 68.0031L66.625 68.6432ZM67.8374 68.8431C67.9596 69.0733 68.0669 69.301 68.1492 69.5414C68.7604 69.4832 69.4788 69.4275 69.9079 69.463L69.8929 70.432C69.5262 70.389 68.9524 70.3916 68.3962 70.427C68.4885 70.9457 68.4785 71.4542 68.3612 71.9375C68.1417 71.8869 67.6428 71.8388 67.3983 71.8692C67.6453 71.0494 67.4857 70.1841 67.0242 69.3618L67.8374 68.8431Z" fill="#7F2121"></path></g><defs><clipPath id="clip0_21_488"><rect width="85" height="87" fill="white"></rect></clipPath></defs></svg>