<svg width="25" height="84" fill="none" xmlns="http://www.w3.org/2000/svg"><path d="M11.622 9.546c.504.468.918.936.918 1.314 0 .252-.108.45-.378.81-.702.9-3.294 3.618-4.266 4.77-.36.45-.522.792-.522 1.152 0 .36.216.792.648 1.17 2.124 1.8 3.528 3.186 4.23 4.32.468.774.666 1.188.9 1.584.198.342.576.63 1.044.63.936 0 1.26-.666 1.26-1.242 0-.612-.234-1.188-.846-1.98-1.224-1.548-3.24-2.736-4.968-3.942-.378-.27-.648-.504-.648-.774 0-.216.162-.45.648-.918.756-.756 2.88-2.484 4.194-3.402.792-.522 1.332-.666 1.332-1.224 0-.648-.828-1.692-1.872-2.196-.432-.234-.954-.306-1.512-.342l-.162.27ZM7.77 36.392c.306.576.738 1.116 1.206 1.116.666 0 2.556-.468 3.51-.774.72-.234.702-.486 1.08-.486.864 0 2.286 1.134 2.286 1.89 0 .504-.648.648-1.242 1.062-1.188.792-3.402 2.7-4.086 3.402-.198.198-.09.324.09.27.612-.198 1.62-.594 3.024-.594 2.43 0 4.446 1.512 4.428 4.212-.018 2.412-2.16 4.338-5.868 4.338-2.088 0-3.654-.918-3.654-2.466 0-1.206 1.062-1.98 2.394-1.98 1.296 0 2.88.774 3.204 2.754l-1.692.324c-.162-1.332-.936-2.232-1.98-2.232-.684 0-1.116.36-1.116.918 0 .666.81 1.098 2.196 1.098 3.348 0 4.626-1.602 4.644-3.402.018-1.602-1.044-2.808-3.114-2.808-2.466 0-4.176 1.782-5.706 3.762-.432.576-.63.72-1.062.72-.396-.018-.792-.486-.756-1.17.036-.486.306-.9.918-1.458 1.764-1.728 5.526-5.31 6.48-6.57.306-.396.108-.54-.18-.486-.666.126-1.764.738-2.466 1.134-.342.198-.63.486-1.026.486-1.044 0-1.854-1.224-1.908-1.872-.036-.396.018-.72.144-1.152l.252-.036Zm-.828 26.216.27-.072c.324.522.558.936 1.098.936.72 0 2.124-.432 2.898-.702.72-.252.954-.576 1.296-.576.684 0 2.196 1.062 2.196 1.764 0 .504-.756.738-1.296 1.296-.756.756-2.178 2.682-2.898 3.978-.774 1.422-1.872 4.104-2.358 4.788-.72 1.116-1.314 1.602-2.304 1.602-1.062 0-1.8-1.71-1.638-3.186.27-2.322 3.816-3.654 6.21-3.654 2.916 0 5.022.72 6.552 1.494.918.468 1.908 1.134 2.466 1.638.432.414.72.81.702 1.548 0 .468-.27.936-.936.936-.792 0-1.404-1.026-2.898-2.214-1.242-.972-3.042-2.376-6.75-2.376-2.178 0-4.248 1.134-4.5 2.322-.126.648.306 1.404.702 1.404.396 0 .648-.198 1.062-.792.558-.792 1.656-2.718 2.088-3.474.864-1.548 2.592-4.374 2.898-4.986.162-.342.018-.486-.288-.378-.522.18-1.314.648-1.818.972-.288.18-.612.504-1.008.504-.792 0-1.764-1.08-1.836-1.728-.018-.342.036-.738.09-1.044Zm8.334 4.914-.018-.234c.342-.234.81-.414 1.224-.396.846.018 1.836.81 1.836 1.332 0 .324-.09.72-.144 1.098-.09.576-.288 1.674-.648 2.682-1.008 2.97-3.69 4.662-7.578 5.256l-.162-.324c3.348-1.206 5.256-3.24 6.102-5.904.306-.918.414-1.962.396-2.538 0-.306-.036-.45-.27-.63-.18-.144-.414-.252-.738-.342Z" fill="#fff"/><path stroke="#F1F1F1" d="M.5.5h24v83H.5z"/></svg>