<svg width="25" height="111" fill="none" xmlns="http://www.w3.org/2000/svg"><path d="M6.636 12.471c.36.072.756.108 1.062.27.252.144.36.306.396.81.072.846.108 2.196.108 3.528.036 1.854.018 3.69.072 4.86.108 2.412 1.818 2.916 4.86 2.916 1.692 0 3.06-.108 3.852-.306.738-.198 1.08-.522 1.08-.972 0-.738-.828-1.098-1.62-1.098-.378 0-2.088.576-4.338.576-1.962 0-2.286-.306-2.304-1.836-.036-.864.054-2.934.144-4.59.054-.918.09-1.728.162-2.142.126-.702.486-.846.486-1.242 0-.594-1.314-1.584-2.43-1.584-.504 0-1.116.288-1.566.54l.036.27Zm6.282-1.566c.414.072.72.108 1.044.216.36.108.54.288.558.612.072.972.018 2.826 0 3.744-.018.774-.108 2.412-.252 2.988-.126.522-.342.558-.72.558-.342 0-1.314-.198-2.214-.432l-.09.27c.756.432 1.548.9 1.8 1.548.198.486.432.648.882.648.936 0 1.566-.684 1.782-1.566.252-.918.36-2.934.414-4.122.054-.954.144-1.836.198-2.484.072-.666.468-.918.468-1.278 0-.612-1.296-1.566-2.43-1.566-.432 0-.972.288-1.458.612l.018.252Zm-3.834 6.642c1.854-.738 5.13-1.44 7.254-1.638 1.602-.126 2.16.126 3.006.126.684 0 1.08-.162 1.08-.756 0-.9-1.134-1.35-2.052-1.35-.27 0-1.062.144-3.078.612-1.602.378-4.716 1.098-6.246 1.512-1.368.36-3.618.918-4.086.918-.45 0-.846-.288-1.224-.774l-.252.09c-.018.504-.018.99.144 1.314.342.738 1.026 1.44 1.638 1.44.594 0 1.566-.666 3.816-1.494Zm.702 19.088c.342.144.828.36 1.098.612.198.18.252.432.072.774-.522 1.044-3.258 5.58-4.446 7.65-.99 1.692-1.962 3.006-1.962 3.942 0 .666.396 1.35 1.062 1.35.684 0 1.008-.486 1.206-1.044.288-.846.594-1.944 1.044-2.97.648-1.494 1.908-3.078 3.366-3.078.972 0 1.242.612 1.242 1.368 0 1.152-.198 2.142-.18 3.366.018 1.494.954 2.448 2.664 2.448 2.502 0 4.68-1.764 5.076-5.994l-.288-.072c-.756 1.944-2.34 4.068-4.266 4.068-.72 0-1.224-.288-1.224-1.188 0-1.008.054-1.8-.018-2.664-.108-1.368-.936-2.142-2.466-2.142-.576 0-1.386.18-2.268.63-.108.054-.162 0-.09-.108.738-1.224 2.304-3.258 3.222-4.176.504-.522 1.062-.738 1.062-1.152 0-.72-.936-1.836-2.358-2.034-.396-.072-1.08 0-1.512.162l-.036.252Zm7.11 26.432c0 1.116.9 2.016 2.016 2.016 1.098 0 1.998-.9 1.998-2.016 0-1.098-.9-1.998-1.998-1.998-1.116 0-2.016.9-2.016 1.998Zm.738 0c0-.702.558-1.26 1.278-1.26.702 0 1.26.558 1.26 1.26 0 .72-.558 1.278-1.26 1.278a1.26 1.26 0 0 1-1.278-1.278Zm-12.276.666c.342 1.08.756 1.692 1.458 1.926.414.108 1.134.126 1.53.09-1.476 1.926-2.952 4.176-2.952 6.894 0 3.312 2.178 4.698 4.644 4.698 3.78 0 5.112-2.466 5.454-4.392.288-1.602.216-3.15.216-3.834 0-.594.18-.63.36-.072.396 1.224.936 2.448 1.404 3.096.342.522.792.936 1.278.936.504 0 .738-.468.738-1.062 0-.9-.36-1.368-.792-1.746-.81-.738-1.728-1.926-1.98-3.24-.162-.882-.144-1.782-.144-2.79 0-.684-.612-1.314-1.314-1.332-.486-.018-.882.396-.882 1.044 0 .54.216 1.476.324 1.962.162.828.198 1.53.198 2.214 0 4.518-1.404 7.128-4.788 7.128-1.872 0-3.312-1.08-3.312-3.024 0-2.754 1.548-4.986 2.754-6.138.594-.558 1.314-.738 1.836-.972.504-.234.612-.45.612-.774 0-.432-.918-1.242-1.53-1.242-.306 0-.414.18-.828.414-.648.396-1.926.594-2.628.594-.54 0-1.008-.216-1.476-.558l-.18.18Zm4.428 24.902c.342.144.828.36 1.098.612.198.18.252.432.072.774-.522 1.044-3.258 5.58-4.446 7.65-.99 1.692-1.962 3.006-1.962 3.942 0 .666.396 1.35 1.062 1.35.684 0 1.008-.486 1.206-1.044.288-.846.594-1.944 1.044-2.97.648-1.494 1.908-3.078 3.366-3.078.972 0 1.242.612 1.242 1.368 0 1.152-.198 2.142-.18 3.366.018 1.494.954 2.448 2.664 2.448 2.502 0 4.68-1.764 5.076-5.994l-.288-.072c-.756 1.944-2.34 4.068-4.266 4.068-.72 0-1.224-.288-1.224-1.188 0-1.008.054-1.8-.018-2.664-.108-1.368-.936-2.142-2.466-2.142-.576 0-1.386.18-2.268.63-.108.054-.162 0-.09-.108.738-1.224 2.304-3.258 3.222-4.176.504-.522 1.062-.738 1.062-1.152 0-.72-.936-1.836-2.358-2.034-.396-.072-1.08 0-1.512.162l-.036.252Z" fill="#fff"/><path stroke="#F1F1F1" d="M.5.833h24v109H.5z"/></svg>