<svg width="24" height="24" viewBox="0 0 24 24" fill="none" xmlns="http://www.w3.org/2000/svg">
<path d="M3.85714 5.14286C4.44643 5.14286 4.95089 5.35268 5.37054 5.77232C5.79018 6.19196 6 6.69643 6 7.28571V21.8571C6 22.4464 5.79018 22.9509 5.37054 23.3705C4.95089 23.7902 4.44643 24 3.85714 24H2.14286C1.55357 24 1.04911 23.7902 0.629464 23.3705C0.209821 22.9509 0 22.4464 0 21.8571V7.28571C0 6.69643 0.209821 6.19196 0.629464 5.77232C1.04911 5.35268 1.55357 5.14286 2.14286 5.14286H3.85714ZM22.2857 7.32589C22.8036 7.62946 23.2188 8.04464 23.5313 8.57143C23.8438 9.09821 24 9.66964 24 10.2857V20.5714C24 21.5179 23.6652 22.3259 22.9955 22.9955C22.3259 23.6652 21.5179 24 20.5714 24H9C8.41071 24 7.90625 23.7902 7.48661 23.3705C7.06696 22.9509 6.85714 22.4464 6.85714 21.8571V1.28571C6.85714 0.928571 6.98214 0.625 7.23214 0.375C7.48214 0.125 7.78571 0 8.14286 0H17.1429C17.5 0 17.8929 0.0892857 18.3214 0.267857C18.75 0.446429 19.0893 0.660714 19.3393 0.910714L21.375 2.94643C21.625 3.19643 21.8393 3.53571 22.0179 3.96429C22.1964 4.39286 22.2857 4.78571 22.2857 5.14286V7.32589ZM12.4286 20.5714V18.8571C12.4286 18.7321 12.3884 18.6295 12.308 18.5491C12.2277 18.4688 12.125 18.4286 12 18.4286H10.2857C10.1607 18.4286 10.058 18.4688 9.97768 18.5491C9.89732 18.6295 9.85714 18.7321 9.85714 18.8571V20.5714C9.85714 20.6964 9.89732 20.7991 9.97768 20.8795C10.058 20.9598 10.1607 21 10.2857 21H12C12.125 21 12.2277 20.9598 12.308 20.8795C12.3884 20.7991 12.4286 20.6964 12.4286 20.5714ZM12.4286 17.1429V15.4286C12.4286 15.3036 12.3884 15.2009 12.308 15.1205C12.2277 15.0402 12.125 15 12 15H10.2857C10.1607 15 10.058 15.0402 9.97768 15.1205C9.89732 15.2009 9.85714 15.3036 9.85714 15.4286V17.1429C9.85714 17.2679 9.89732 17.3705 9.97768 17.4509C10.058 17.5313 10.1607 17.5714 10.2857 17.5714H12C12.125 17.5714 12.2277 17.5313 12.308 17.4509C12.3884 17.3705 12.4286 17.2679 12.4286 17.1429ZM12.4286 13.7143V12C12.4286 11.875 12.3884 11.7723 12.308 11.692C12.2277 11.6116 12.125 11.5714 12 11.5714H10.2857C10.1607 11.5714 10.058 11.6116 9.97768 11.692C9.89732 11.7723 9.85714 11.875 9.85714 12V13.7143C9.85714 13.8393 9.89732 13.942 9.97768 14.0223C10.058 14.1027 10.1607 14.1429 10.2857 14.1429H12C12.125 14.1429 12.2277 14.1027 12.308 14.0223C12.3884 13.942 12.4286 13.8393 12.4286 13.7143ZM15.8571 20.5714V18.8571C15.8571 18.7321 15.817 18.6295 15.7366 18.5491C15.6563 18.4688 15.5536 18.4286 15.4286 18.4286H13.7143C13.5893 18.4286 13.4866 18.4688 13.4063 18.5491C13.3259 18.6295 13.2857 18.7321 13.2857 18.8571V20.5714C13.2857 20.6964 13.3259 20.7991 13.4063 20.8795C13.4866 20.9598 13.5893 21 13.7143 21H15.4286C15.5536 21 15.6563 20.9598 15.7366 20.8795C15.817 20.7991 15.8571 20.6964 15.8571 20.5714ZM15.8571 17.1429V15.4286C15.8571 15.3036 15.817 15.2009 15.7366 15.1205C15.6563 15.0402 15.5536 15 15.4286 15H13.7143C13.5893 15 13.4866 15.0402 13.4063 15.1205C13.3259 15.2009 13.2857 15.3036 13.2857 15.4286V17.1429C13.2857 17.2679 13.3259 17.3705 13.4063 17.4509C13.4866 17.5313 13.5893 17.5714 13.7143 17.5714H15.4286C15.5536 17.5714 15.6563 17.5313 15.7366 17.4509C15.817 17.3705 15.8571 17.2679 15.8571 17.1429ZM15.8571 13.7143V12C15.8571 11.875 15.817 11.7723 15.7366 11.692C15.6563 11.6116 15.5536 11.5714 15.4286 11.5714H13.7143C13.5893 11.5714 13.4866 11.6116 13.4063 11.692C13.3259 11.7723 13.2857 11.875 13.2857 12V13.7143C13.2857 13.8393 13.3259 13.942 13.4063 14.0223C13.4866 14.1027 13.5893 14.1429 13.7143 14.1429H15.4286C15.5536 14.1429 15.6563 14.1027 15.7366 14.0223C15.817 13.942 15.8571 13.8393 15.8571 13.7143ZM19.2857 20.5714V18.8571C19.2857 18.7321 19.2455 18.6295 19.1652 18.5491C19.0848 18.4688 18.9821 18.4286 18.8571 18.4286H17.1429C17.0179 18.4286 16.9152 18.4688 16.8348 18.5491C16.7545 18.6295 16.7143 18.7321 16.7143 18.8571V20.5714C16.7143 20.6964 16.7545 20.7991 16.8348 20.8795C16.9152 20.9598 17.0179 21 17.1429 21H18.8571C18.9821 21 19.0848 20.9598 19.1652 20.8795C19.2455 20.7991 19.2857 20.6964 19.2857 20.5714ZM19.2857 17.1429V15.4286C19.2857 15.3036 19.2455 15.2009 19.1652 15.1205C19.0848 15.0402 18.9821 15 18.8571 15H17.1429C17.0179 15 16.9152 15.0402 16.8348 15.1205C16.7545 15.2009 16.7143 15.3036 16.7143 15.4286V17.1429C16.7143 17.2679 16.7545 17.3705 16.8348 17.4509C16.9152 17.5313 17.0179 17.5714 17.1429 17.5714H18.8571C18.9821 17.5714 19.0848 17.5313 19.1652 17.4509C19.2455 17.3705 19.2857 17.2679 19.2857 17.1429ZM19.2857 13.7143V12C19.2857 11.875 19.2455 11.7723 19.1652 11.692C19.0848 11.6116 18.9821 11.5714 18.8571 11.5714H17.1429C17.0179 11.5714 16.9152 11.6116 16.8348 11.692C16.7545 11.7723 16.7143 11.875 16.7143 12V13.7143C16.7143 13.8393 16.7545 13.942 16.8348 14.0223C16.9152 14.1027 17.0179 14.1429 17.1429 14.1429H18.8571C18.9821 14.1429 19.0848 14.1027 19.1652 14.0223C19.2455 13.942 19.2857 13.8393 19.2857 13.7143ZM20.5714 8.57143V5.14286H18.4286C18.0714 5.14286 17.7679 5.01786 17.5179 4.76786C17.2679 4.51786 17.1429 4.21429 17.1429 3.85714V1.71429H8.57143V8.57143H20.5714Z" fill="#B04B19"/>
</svg>
