<svg width="765" height="113" fill="none" xmlns="http://www.w3.org/2000/svg"><path opacity=".2" d="m63.24 6.96 1.846.77.769-1.846-1.845-.77-.77 1.846ZM46.56 0l.77-1.846-1.484-.619-.923 1.316L46.56 0Zm-28.2 23.4-.72-1.866-.054.021-.054.024.828 1.821Zm-4.08.96-.259-1.983-2.645.345 1.073 2.442 1.831-.804Zm6.48 14.76-1.831.804.804 1.833 1.832-.806-.805-1.831Zm5.64-12.96 1.996.133.142-2.133H26.4v2Zm-6.24 0v-2h-2.21l.22 2.199 1.99-.199Zm.12 1.2-1.99.199.244 2.442 2.343-.732-.597-1.909Zm39.96-19.8 1.252 1.56 5.742-4.61-7.285 1.071.291 1.979Zm-4.08.6-.291-1.979-.358 3.87.649-1.891ZM17.88 24.24l.04-2-2.885-.057.959 2.722 1.886-.665Zm4.44 12.6-1.886.665.548 1.556 1.633-.243-.295-1.978ZM87 25.32l.445 1.95L89 26.915V25.32h-2Zm0-1.92h2v-2.05l-2.05.05.05 2ZM101.28 90l1.414 1.414 1.478-1.478-1.541-1.41L101.28 90ZM88.44 78.24l1.35-1.475-1.36-1.247-1.352 1.258 1.362 1.464Zm-78.36 32.64-.305-1.977-2.201.34.574 2.152 1.932-.515Zm.48 1.8-1.932.515.395 1.485h1.537v-2Zm86.16-22.44.725-1.864-.976-.38-.868.587 1.119 1.657ZM85.8 73.68l1.505 1.317 1.391-1.59-1.663-1.302L85.8 73.68Zm-12.72-9.96 1.233-1.575-1.388-1.086-1.252 1.24 1.407 1.421ZM14.16 96l-.584-1.913-2.08.636.807 2.02L14.16 96Zm.72 1.8-1.857.743.58 1.452 1.55-.214-.273-1.981Zm66.6-23.76.761-1.85-1.013-.417-.898.63 1.15 1.637Zm-9.36-15.6 1.6 1.2 1.237-1.65-1.686-1.186-1.151 1.636Zm-12.96-9.12 1.151-1.636-1.526-1.074-1.177 1.449 1.552 1.261Zm-46.2 33.12-.806-1.83-1.922.846.94 1.878 1.788-.894Zm.84 1.68-1.789.894.706 1.413 1.538-.36-.455-1.947Zm54.12-25.2.535-1.927-1.011-.281-.806.673 1.282 1.535Zm3.72-16.2 1.496-1.328-1.132-1.275-1.438.916 1.074 1.687Zm-1.32.84-1.074-1.687-1.481.943.743 1.59 1.812-.846ZM103.68 75l-.75 1.854 2.16.874.536-2.268-1.946-.46Zm10.2-12.12.463 1.946 1.399-.333.13-1.432-1.992-.181Zm.12-1.32 1.992.181.169-1.858-1.842-.297L114 61.56ZM62.88 35.52l1.82.828.81-1.78-1.76-.85-.87 1.802Zm-17.16-8.28.87-1.801-1.892-.913-.82 1.934 1.842.78ZM.12 74.76l-.898-1.787-2.02 1.016 1.254 1.88L.12 74.76Zm.96 1.44-1.664 1.11.793 1.19 1.383-.367L1.08 76.2ZM58.2 37.08l.248-1.985-1.233-.154-.685 1.038 1.67 1.101Zm40.56-4.68 1.228-1.579-1.576-1.226-1.229 1.575 1.577 1.23Zm-7.68 9.84v2h.976l.6-.77-1.576-1.23Zm-89.16 0v-2H-.706l.698 2.532 1.928-.532Zm.96 3.48-1.928.532.405 1.468H2.88v-2Zm109.8-1.92 1.93.526.326-1.199-.929-.824-1.327 1.497ZM69.24 11.04l.188-1.991-.937-.089-.665.666 1.414 1.414Zm-.96.96-1.414-1.414-1.626 1.626 1.836 1.385L68.28 12Zm19.2 21.48-1.8.871.311.644.649.3.84-1.815ZM64.01 5.114l-16.68-6.96-1.54 3.692 16.68 6.96 1.54-3.692ZM44.923-1.149c-2.275 3.242-6.707 8.012-11.839 12.463-5.148 4.466-10.789 8.425-15.444 10.22l1.44 3.732c5.305-2.045 11.364-6.366 16.626-10.93 5.278-4.579 9.966-9.589 12.491-13.187L44.923-1.15ZM17.533 21.58c-.423.192-1.232.397-2.087.562a28.164 28.164 0 0 1-1.403.233l-.019.002h-.003l.259 1.984.259 1.983h.004l.009-.002.028-.003.1-.014.357-.053c.297-.046.709-.114 1.167-.202.854-.165 2.085-.44 2.984-.848l-1.656-3.642Zm-5.084 3.585 6.48 14.76 3.662-1.608-6.48-14.76-3.662 1.608Zm9.117 15.787c2.108-.928 3.688-2.843 4.784-5.288 1.101-2.457 1.795-5.617 2.046-9.37l-3.992-.266c-.23 3.447-.855 6.107-1.704 8-.854 1.905-1.854 2.87-2.745 3.262l1.61 3.662ZM26.4 24.16h-6.24v4h6.24v-4Zm-8.23 2.199.12 1.2 3.98-.398-.12-1.2-3.98.398Zm2.707 2.91c13.589-4.247 31.839-13.103 40.615-20.15L58.988 6c-8.264 6.634-26.014 15.298-39.304 19.451l1.193 3.818ZM59.949 5.581l-4.08.6.582 3.958 4.08-.6-.582-3.958Zm-4.438 4.47c4.552 1.562 8.351.616 9.575-2.322l-3.692-1.538c-.019.044-.17.34-.84.512-.685.175-1.893.2-3.745-.435l-1.298 3.784ZM15.994 24.906l4.44 12.6 3.772-1.33-4.44-12.6-3.772 1.33Zm6.62 13.913c28.227-4.204 51.082-8.412 64.83-11.548l-.889-3.9c-13.61 3.104-36.356 7.296-64.53 11.492l.59 3.956ZM89 25.32V23.4h-4v1.92h4Zm-2.05-3.92c-29.042.72-56.96 1.08-69.03.84l-.08 4c12.17.24 40.172-.12 69.21-.84l-.1-4Zm15.681 67.125-12.84-11.76-2.702 2.95 12.84 11.76 2.702-2.95Zm-15.553-11.75c-7.494 6.971-19.46 13.881-33.319 19.627-13.83 5.735-29.396 10.248-43.984 12.501l.61 3.954c14.932-2.307 30.806-6.914 44.906-12.759 14.07-5.834 26.525-12.964 34.511-20.394l-2.724-2.928Zm-78.93 34.62.48 1.8 3.864-1.03-.48-1.8-3.864 1.03Zm2.412 3.285c32.571 0 68.39-10.026 87.28-22.783l-2.24-3.314C77.53 100.786 42.55 110.68 10.56 110.68v4Zm85.435-22.576c2.48.964 5.037.972 6.699-.69l-2.828-2.828c-.019.018-.58.506-2.421-.21l-1.45 3.728Zm-8.962-19.999-12.72-9.96-2.466 3.15 12.72 9.96 2.466-3.15ZM71.673 62.3c-11.701 11.584-36.7 25.25-58.097 31.788l1.168 3.826C36.547 91.25 62.188 77.317 74.487 65.14L71.673 62.3Zm-59.37 34.444.72 1.8 3.714-1.486-.72-1.8-3.714 1.486Zm2.85 3.038C39.745 96.39 67.788 86.103 82.63 75.677l-2.3-3.274C66.132 82.377 38.735 92.491 14.607 95.82l.546 3.962ZM80.72 75.89c2.413.994 4.933.997 6.586-.892l-3.01-2.634c-.071.081-.168.157-.412.183-.29.03-.819-.017-1.641-.355l-1.523 3.698ZM73.27 56.804l-12.96-9.12-2.302 3.272 12.96 9.12 2.302-3.272ZM57.608 48.06c-9.11 11.213-28.503 25.083-45.454 32.55l1.612 3.661c17.37-7.652 37.337-21.862 46.946-33.689l-3.104-2.522ZM11.17 83.334l.84 1.68 3.578-1.788-.84-1.68-3.578 1.788Zm3.084 2.734c20.28-4.736 43.021-15.654 54.947-25.613l-2.564-3.07c-11.354 9.481-33.493 20.163-53.293 24.787l.91 3.896Zm53.13-25.221c1.175.326 2.331.521 3.391.406 1.147-.124 2.2-.62 2.944-1.613l-3.2-2.4c-.007.01-.008.01-.003.005a.073.073 0 0 1 .008-.006l.004-.002-.009.003a.889.889 0 0 1-.176.036c-.32.035-.904-.01-1.889-.283l-1.07 3.854Zm3.181-19.814-1.32.84 2.148 3.374 1.32-.84-2.148-3.374Zm-2.058 3.374c7.059 15.108 18.844 26.142 34.422 32.447l1.5-3.708c-14.662-5.935-25.677-16.261-32.298-30.433l-3.624 1.694Zm37.118 31.053c1.453-6.145 4.657-9.668 8.717-10.634l-.926-3.892c-6.02 1.434-10.016 6.551-11.683 13.606l3.892.92Zm10.246-12.399.12-1.32-3.984-.362-.12 1.32 3.984.362Zm-1.553-3.475c-7.658-1.237-15.963-3.507-23.377-6.634-7.446-3.14-13.828-7.077-17.806-11.56l-2.992 2.656c4.542 5.117 11.54 9.34 19.244 12.59 7.736 3.263 16.351 5.614 24.293 6.896l.638-3.948Zm-50.57-25.867-17.16-8.28-1.738 3.602 17.16 8.28 1.738-3.602Zm-19.87-7.26C36.738 43.317 20.745 62.153-.779 72.974l1.796 3.574c22.396-11.26 39.044-30.822 46.544-48.527l-3.684-1.56ZM-1.545 75.87l.96 1.44 3.328-2.218-.96-1.44-3.328 2.218Zm3.136 2.264C28.82 70.93 48.916 54.796 59.87 38.181l-3.34-2.202C46.124 51.764 26.86 67.311.568 74.266l1.024 3.867Zm56.36-39.068c1.56.195 2.955.175 4.133-.258 1.304-.479 2.126-1.382 2.616-2.46l-3.642-1.655c-.11.242-.188.3-.354.36-.292.108-.936.209-2.257.043l-.496 3.97Zm39.231-7.895-7.68 9.84 3.154 2.46 7.68-9.84-3.154-2.46Zm-6.103 9.07H1.92v4h89.16v-4ZM-.008 42.772l.96 3.48 3.856-1.064-.96-3.48-3.856 1.064ZM2.88 47.72h106.44v-4H2.88v4Zm106.44 0c1.093 0 2.216-.178 3.187-.715a4.288 4.288 0 0 0 2.103-2.679l-3.86-1.052a.378.378 0 0 1-.063.142.354.354 0 0 1-.114.089c-.169.093-.546.215-1.253.215v4Zm4.687-5.417c-2.678-2.373-6.19-5.248-9.015-7.517a496.986 496.986 0 0 0-4.904-3.886l-.074-.058-.02-.015-.004-.004-.002-.001L98.76 32.4l-1.228 1.579h.001l.005.004.018.014.072.057c.064.05.159.123.281.22.245.19.601.47 1.046.82.889.7 2.129 1.683 3.533 2.81 2.815 2.261 6.263 5.086 8.865 7.393l2.654-2.994ZM67.826 9.626l-.96.96 2.828 2.828.96-.96-2.828-2.828Zm-.75 3.97C73.8 18.67 82.278 27.32 85.68 34.352l3.6-1.742c-3.798-7.85-12.84-16.96-19.796-22.206l-2.408 3.194ZM86.64 35.296c3.79 1.755 7.457 1.386 9.954-.794 2.453-2.142 3.319-5.644 2.374-9.2-1.902-7.156-10.827-14.484-29.54-16.252l-.376 3.982c18.127 1.712 24.802 8.604 26.05 13.298.63 2.37-.041 4.2-1.14 5.159-1.053.92-2.952 1.422-5.642.177l-1.68 3.63ZM203.28 92.52v-2h-2v2h2Zm0 3.48h-2v2h2v-2Zm29.16 0v2h2v-2h-2Zm0-3.48h2v-2h-2v2Zm-7.08-72h2v-2h-2v2Zm0 87.6h-2v2h2v-2Zm14.28-5.04 1.992.181.008-.09v-.091h-2Zm0-76.68-.463-1.946-1.537.366v1.58h2Zm5.04-2.64 1.579 1.228 1.219-1.567-1.559-1.23-1.239 1.569ZM231 12.96l1.239-1.57-1.467-1.159-1.255 1.387L231 12.96Zm-6.84 7.56-1.483-1.342-3.024 3.342h4.507v-2Zm-90.24 6.24v-2h-2.744l.84 2.612 1.904-.612Zm1.08 3.36-1.904.612.446 1.388H135v-2Zm45.12 0v2h2v-2h-2Zm0-3.36h2v-2h-2v2Zm-30-25.68.181-1.992-2.181-.198v2.19h2ZM130.8 111.12l-1.687-1.075-.862 1.354 1.135 1.135 1.414-1.414Zm1.68 1.68-1.414 1.414 1.335 1.336 1.41-1.257-1.331-1.493ZM164.16 6.12l-.316-1.975-1.656.265-.028 1.677 2 .033Zm4.44-3.36 1.961.392.437-2.182-2.217-.202-.181 1.992Zm6.48 24 2 .04.04-2.04h-2.04v2Zm-6.36 66.96-1.35-1.476-.033.03-.031.032 1.414 1.414Zm-16.68.72.187-1.991-2.036-.191-.146 2.04 1.995.142Zm-.12 1.68-1.995-.142-.122 1.706 1.667.385.45-1.949Zm9.84 4.8 1.6-1.2-.031-.041-.033-.04-1.536 1.281Zm1.8 9.84h-2v2h2v-2Zm15.84-6-1.414-1.414-.021.021-.02.021 1.455 1.372Zm9.24-72.24-.358-1.968-1.609.293-.033 1.635 2 .04Zm5.16-2.4 1.562 1.25 1.2-1.501-1.451-1.26-1.311 1.511Zm-12.72-11.04 1.311-1.51-1.43-1.242-1.317 1.36 1.436 1.392Zm-7.44 7.68-1.436-1.392-3.286 3.392h4.722v-2Zm23.4 83.52h-2v2h2v-2ZM210.72 24v-2h-2v2h2Zm22.44 0v2h2v-2h-2Zm0-3.48h2v-2h-2v2Zm-21.84 0-.775 1.844.372.156h.403v-2Zm-14.28-6 .775-1.844-2.775-1.166v3.01h2Zm4.24 78V96h4v-3.48h-4Zm2 5.48h29.16v-4h-29.16v4Zm31.16-2v-3.48h-4V96h4Zm-2-5.48h-29.16v4h29.16v-4Zm-9.08-70v87.6h4v-87.6h-4Zm2 89.6h2.28v-4h-2.28v4Zm2.28 0c3.044 0 6.317-1.052 8.787-2.216 1.25-.588 2.373-1.242 3.224-1.875a7.68 7.68 0 0 0 1.152-1.026c.259-.292.753-.906.829-1.742l-3.984-.362c.046-.506.308-.715.162-.551-.078.089-.25.251-.547.472-.585.435-1.465.959-2.54 1.466-2.18 1.026-4.847 1.834-7.083 1.834v4Zm14-7.04V26.4h-4v76.68h4Zm-1.537-74.734c2.718-.648 4.914-1.761 6.156-3.358l-3.158-2.456c-.438.563-1.602 1.37-3.924 1.922l.926 3.892Zm5.816-6.156-13.68-10.8-2.478 3.14 13.68 10.8 2.478-3.14Zm-16.402-10.572-6.84 7.56 2.966 2.684 6.84-7.56-2.966-2.684ZM224.16 22.52h1.2v-4h-1.2v4Zm-92.144 4.852 1.08 3.36 3.808-1.224-1.08-3.36-3.808 1.224ZM135 32.12h45.12v-4H135v4Zm47.12-2v-3.36h-4v3.36h4Zm-2-5.36h-46.2v4h46.2v-4Zm-32-23.68c0 37.768 1.493 76.802-19.007 108.965l3.374 2.15C153.747 78.838 152.12 38.432 152.12 1.08h-4Zm-18.734 111.454 1.68 1.68 2.828-2.828-1.68-1.68-2.828 2.828Zm4.425 1.759c32.937-29.374 31.753-71.56 32.349-108.14l-4-.066c-.604 37.1.372 77.233-31.011 105.22l2.662 2.986ZM164.476 8.095c1.656-.265 3.07-.735 4.148-1.602 1.144-.92 1.691-2.108 1.937-3.34l-3.922-.785c-.114.567-.287.82-.523 1.009-.302.243-.928.553-2.272.768l.632 3.95Zm4.305-7.327-18.48-1.68-.362 3.984 18.48 1.68.362-3.984Zm4.299 25.952c-.42 21.124-.959 36.841-1.912 47.746-.478 5.457-1.053 9.64-1.749 12.663-.349 1.51-.716 2.68-1.091 3.553-.384.89-.726 1.35-.958 1.562l2.7 2.952c.818-.748 1.436-1.781 1.932-2.932.503-1.17.935-2.59 1.314-4.237.759-3.293 1.354-7.69 1.836-13.213.967-11.055 1.508-26.898 1.928-48.014l-4-.08Zm-5.774 65.586c-.399.399-.712.604-1.047.733-.354.137-.869.241-1.739.241v4c1.17 0 2.215-.136 3.181-.51.985-.38 1.752-.955 2.433-1.636l-2.828-2.828Zm-2.786.974c-2.29 0-8.437-.47-12.293-.831l-.374 3.982c3.824.359 10.157.849 12.667.849v-4Zm-14.475 1.017-.12 1.68 3.99.285.12-1.68-3.99-.284Zm1.425 3.772c4.578 1.056 7.389 2.494 8.754 4.131l3.072-2.56c-2.235-2.683-6.144-4.365-10.926-5.469l-.9 3.898Zm8.69 4.051c.449.598.823 1.533 1.067 3.011.243 1.471.333 3.32.333 5.629h4c0-2.371-.09-4.482-.387-6.281-.296-1.792-.822-3.437-1.813-4.759l-3.2 2.4Zm3.4 10.64c6.86 0 12.854-1.918 17.295-6.628l-2.91-2.744c-3.479 3.69-8.285 5.372-14.385 5.372v4Zm17.254-6.586c3.83-3.83 5.941-10.503 7.306-21.723 1.379-11.335 2.04-27.843 2.52-51.891l-4-.08c-.48 24.072-1.139 40.384-2.49 51.489-1.365 11.22-3.394 16.607-6.164 19.377l2.828 2.828Zm8.184-71.686c2.786-.507 4.944-1.344 6.364-3.119l-3.124-2.498c-.5.625-1.462 1.228-3.956 1.681l.716 3.936Zm6.113-5.878-12.72-11.04-2.622 3.02 12.72 11.04 2.622-3.02Zm-15.467-10.922-7.44 7.68 2.872 2.784 7.44-7.68-2.872-2.784ZM173.64 28.76h1.44v-4h-1.44v4Zm21.4-8.24v89.76h4V20.52h-4Zm2 91.76h2.4v-4h-2.4v4Zm2.4 0c3.341 0 6.461-.896 8.774-2.036 1.154-.569 2.174-1.23 2.939-1.933a5.9 5.9 0 0 0 1.024-1.196c.269-.43.543-1.035.543-1.755h-4c0-.3.109-.436.066-.367-.033.052-.13.181-.337.371-.412.378-1.087.841-2.003 1.292a16.33 16.33 0 0 1-7.006 1.624v4Zm13.28-6.92V24h-4v81.36h4Zm-2-79.36h22.44v-4h-22.44v4Zm24.44-2v-3.48h-4V24h4Zm-2-5.48h-21.84v4h21.84v-4Zm-21.065.156-14.28-6-1.55 3.688 14.28 6 1.55-3.688ZM195.04 14.52v6h4v-6h-4Zm83.72 6.24 1.44-1.388-.934-.968-1.249.499.743 1.857Zm-1.8.72-.743-1.857-1.257.503v1.354h2Zm.84 8.28 1.934-.509-.004-.015-.004-.015-1.926.539ZM299.4 39l.485 1.94.012-.003.012-.003L299.4 39Zm42.48-6-1.94-.485-.007.025-.005.025 1.952.435Zm-62.4 73.08-.928-1.772-1.848.968 1.045 1.806 1.731-1.002Zm1.32 2.28-1.731 1.002.808 1.395 1.534-.493-.611-1.904Zm75.24-64.44-1.789-.894-.006.011 1.795.883Zm-20.28-21.48-.419-1.956-.011.003-.012.002.442 1.951Zm16.12-8.76c0 8.568 6.799 15.2 15.32 15.2v-4c-6.359 0-11.32-4.888-11.32-11.2h-4Zm15.32 15.2c8.413 0 15.2-6.644 15.2-15.2h-4c0 6.323-4.973 11.2-11.2 11.2v4Zm15.2-15.2c0-8.556-6.787-15.2-15.2-15.2v4c6.227 0 11.2 4.876 11.2 11.2h4Zm-15.2-15.2c-8.521 0-15.32 6.632-15.32 15.2h4c0-6.312 4.961-11.2 11.32-11.2v-4Zm-6.4 15.2c0-3.538 2.787-6.28 6.4-6.28v-4c-5.747 0-10.4 4.458-10.4 10.28h4Zm6.4-6.28c3.474 0 6.28 2.723 6.28 6.28h4c0-5.803-4.634-10.28-10.28-10.28v4Zm6.28 6.28c0 3.556-2.806 6.28-6.28 6.28v4c5.646 0 10.28-4.477 10.28-10.28h-4Zm-6.28 6.28c-3.613 0-6.4-2.742-6.4-6.28h-4c0 5.822 4.653 10.28 10.4 10.28v-4ZM289.44 25c-3.478 0-5.923-2.188-9.24-5.628l-2.88 2.776c3.163 3.28 6.718 6.852 12.12 6.852v-4Zm-11.423-6.097-1.8.72 1.486 3.714 1.8-.72-1.486-3.714Zm-3.057 2.577c0 3.12-.008 5.528.914 8.82l3.852-1.08c-.759-2.708-.766-4.62-.766-7.74h-4Zm.906 8.789c.717 2.724 2.875 6.104 5.444 8.77 1.308 1.355 2.791 2.6 4.355 3.516 1.549.909 3.297 1.565 5.095 1.565v-4c-.842 0-1.884-.319-3.072-1.015-1.174-.688-2.376-1.679-3.498-2.843-2.291-2.375-3.973-5.175-4.456-7.011l-3.868 1.018ZM290.76 44.12c1.886 0 3.703-.805 5.132-1.483 1.593-.755 2.803-1.4 3.993-1.697l-.97-3.88c-1.69.422-3.42 1.338-4.737 1.963-1.481.702-2.544 1.097-3.418 1.097v4Zm9.149-3.186c3.359-.884 11.62-2.734 20.075-4.365 8.528-1.645 16.966-3.009 20.816-3.009v-4c-4.31 0-13.152 1.456-21.574 3.081-8.495 1.64-16.854 3.509-20.335 4.425l1.018 3.868ZM340.8 33.56c.088 0-.28.024-.607-.379-.347-.426-.22-.799-.253-.666l3.88.97c.207-.827.214-1.92-.523-2.826-.717-.883-1.745-1.099-2.497-1.099v4Zm-.872-.995c-5.725 25.703-29.015 54.793-61.376 71.743l1.856 3.544c33.159-17.37 57.389-47.32 63.424-74.417l-3.904-.87Zm-62.179 74.517 1.32 2.28 3.462-2.004-1.32-2.28-3.462 2.004Zm3.662 3.182c39.447-12.662 61.808-35.744 76.424-65.461l-3.59-1.766c-14.184 28.843-35.743 51.12-74.056 63.419l1.222 3.808Zm76.418-65.45c.765-1.53 1.984-2.502 3.509-3.994 1.414-1.383 3.062-3.237 3.062-6.14h-4c0 1.177-.572 2.023-1.858 3.28-1.175 1.148-3.136 2.757-4.291 5.066l3.578 1.788ZM364.4 34.68c0-.984-.345-1.95-.763-2.788-.432-.867-1.028-1.761-1.713-2.643-1.371-1.765-3.222-3.633-5.217-5.332-1.998-1.7-4.198-3.282-6.293-4.45-2.021-1.127-4.219-2.027-6.134-2.027v4c.845 0 2.292.465 4.186 1.52 1.82 1.015 3.805 2.433 5.647 4.003 1.845 1.57 3.489 3.243 4.653 4.74.582.75 1.014 1.417 1.292 1.975.293.587.342.906.342 1.002h4Zm-20.12-17.24c-2.21 0-3.452.692-4.62 1.357-1.012.576-2.094 1.21-4.319 1.687l.838 3.912c2.815-.604 4.313-1.47 5.461-2.123.992-.565 1.49-.833 2.64-.833v-4Zm-8.962 3.05c-3.035.687-12.081 1.816-21.702 2.78-9.595.961-19.49 1.73-24.176 1.73v4c4.914 0 14.999-.791 24.574-1.75 9.549-.956 18.863-2.107 22.188-2.86l-.884-3.9ZM482.88 80.04l-.096 1.998 1.638.079.398-1.592-1.94-.485Zm7.56-32.16-1.952-.434-.002.007 1.954.427Zm-21-19.56-.276-1.98-.027.003-.026.004.329 1.973Zm-42.72 4.2-.101-1.997-1.899.096v1.901h2Zm0 2.88h-2v1.007l.808.6 1.192-1.607Zm21.12 3.72.256 1.983.016-.002.016-.002-.288-1.979Zm22.56 40.32-1.963-.382-.442 2.269 2.309.11.096-1.997Zm-60.72-54.12-.131-1.996-1.105.073-.525.975 1.761.948Zm-.84 1.56-1.761-.948-.746 1.385 1.171 1.052 1.336-1.489Zm7.56 10.8 1.957-.413-.002-.01-.003-.01-1.952.433Zm16.32 43.08h2v-.027l-.001-.028-1.999.055Zm-1.08-45.12-1.998.095v.005l1.998-.1Zm-1.8-4.68-1.294 1.525.036.03.039.03 1.219-1.585Zm-1.08 57.72h-2v2.16l2.153-.166-.153-1.994Zm0-9.36-.166-1.993-1.834.153v1.84h2Zm56.06 1.205c2.885-11.54 5.89-24.519 7.574-32.218l-3.908-.854c-1.676 7.661-4.671 20.602-7.546 32.102l3.88.97Zm7.572-32.211c.332-1.491 1.329-2.509 2.746-3.894 1.224-1.196 3.182-3.003 3.182-5.78h-4c0 .823-.502 1.476-1.978 2.92-1.283 1.255-3.226 3.057-3.854 5.886l3.904.868Zm5.928-9.674c0-1.97-1.179-4.004-2.485-5.706-1.382-1.801-3.23-3.636-5.171-5.273-1.944-1.64-4.042-3.13-5.959-4.224-.957-.547-1.9-1.011-2.778-1.344-.848-.322-1.771-.573-2.647-.573v4c.174 0 .571.064 1.229.313.628.238 1.378.6 2.214 1.078 1.672.954 3.572 2.298 5.363 3.808 1.794 1.513 3.419 3.143 4.576 4.65 1.232 1.605 1.658 2.72 1.658 3.271h4Zm-19.04-17.12c-2.579 0-4.319 1.587-5.544 2.572-1.32 1.061-2.554 1.966-4.572 2.247l.552 3.962c3.142-.439 5.088-1.934 6.528-3.093 1.535-1.234 2.135-1.688 3.036-1.688v-4Zm-10.169 4.827c-5.662.944-33.062 3.698-42.492 4.176l.202 3.994c9.53-.482 37.09-3.248 42.948-4.224l-.658-3.946ZM424.72 32.52v2.88h4v-2.88h-4Zm.808 4.486c1.902 1.411 4.006 2.828 6.055 3.9 1.992 1.044 4.177 1.894 6.177 1.894v-4c-1 0-2.475-.47-4.322-1.437-1.792-.937-3.708-2.22-5.526-3.57l-2.384 3.213ZM437.76 42.8c1.382 0 3.185-.352 4.899-.7 1.808-.368 3.668-.768 5.437-.997l-.512-3.967c-1.951.252-3.991.692-5.723 1.044-1.826.372-3.203.62-4.101.62v4Zm10.368-1.7c6.522-.95 19.865-2.02 25.872-2.02v-4c-6.233 0-19.77 1.09-26.448 2.06l.576 3.96ZM474 39.08c.188 0 .245.023.22.014a.528.528 0 0 1-.109-.052.807.807 0 0 1-.327-.39c-.003-.01.016.051.016.228h4c0-.804-.15-1.88-.955-2.727-.825-.869-1.929-1.073-2.845-1.073v4Zm-.2-.2c0 5.913-2.726 26.632-5.363 40.178l3.926.764c2.643-13.574 5.437-34.616 5.437-40.942h-4Zm-3.496 42.558 12.48.6.192-3.996-12.48-.6-.192 3.996Zm-62.385-57.066-.84 1.56 3.522 1.896.84-1.56-3.522-1.896Zm-.415 3.997c2.333 2.093 3.842 3.592 4.892 5.04 1.008 1.391 1.625 2.783 2.052 4.705l3.904-.868c-.533-2.398-1.356-4.306-2.718-6.185-1.32-1.822-3.111-3.563-5.458-5.67l-2.672 2.978Zm6.939 9.724C416.208 46.445 418 68.262 418 74.88h4c0-6.822-1.808-28.925-3.643-37.613l-3.914.826ZM418 74.88c0 2.095-.117 4.262-.237 6.334-.118 2.04-.243 4.033-.243 5.666h4c0-1.487.115-3.335.237-5.434.12-2.068.243-4.341.243-6.566h-4Zm-.48 12c0 3.17 1.026 6.272 2.673 8.619 1.619 2.308 4.073 4.181 7.007 4.181v-4c-1.146 0-2.532-.767-3.733-2.479-1.173-1.673-1.947-3.972-1.947-6.321h-4Zm9.68 12.8c2.733 0 4.811-1.065 6.127-2.908 1.238-1.732 1.633-3.916 1.633-5.932h-4c0 1.584-.325 2.82-.887 3.608-.484.677-1.286 1.232-2.873 1.232v4Zm7.76-8.84c0-2.199-.061-3.969-.121-5.565-.061-1.603-.119-3-.119-4.515h-4c0 1.606.062 3.088.121 4.665.06 1.584.119 3.294.119 5.415h4Zm-.241-10.135c-.238-8.69-.72-37.94-1.081-45.165l-3.996.2c.359 7.175.837 36.246 1.079 45.075l3.998-.11Zm-1.081-45.16c-.057-1.192-.117-2.362-.465-3.385-.401-1.178-1.117-2.019-2.114-2.785l-2.438 3.17c.563.434.687.673.766.904.132.388.192.958.255 2.286l3.996-.19Zm-2.504-6.11c-6.922-5.877-14.016-6.607-21.585-6.11l.262 3.99c7.071-.463 12.937.247 18.735 5.17l2.588-3.05Zm-2.221 61.24c14.035-1.08 30.17-2.035 40.287-2.035v-4c-10.283 0-26.548.966-40.593 2.046l.306 3.988ZM469.2 88.64c3.262 0 6.454.262 9.387.532 2.88.264 5.615.548 7.773.548v-4c-1.922 0-4.407-.256-7.407-.532-2.947-.27-6.295-.548-9.753-.548v4Zm17.16 1.08c2.311 0 4.27-.76 5.634-2.259 1.336-1.467 1.886-3.407 1.886-5.381h-4c0 1.266-.35 2.146-.844 2.689-.466.512-1.267.951-2.676.951v4Zm7.52-7.64c0-3.034-2.05-5.284-4.344-6.664-2.33-1.401-5.301-2.176-8.096-2.176v4c2.125 0 4.374.605 6.034 1.604 1.696 1.02 2.406 2.19 2.406 3.236h4Zm-12.44-8.84c-10.311 0-38.572 2.897-52.846 4.087l.332 3.986c14.526-1.21 42.425-4.073 52.514-4.073v-4Zm-54.68 6.08v9.36h4v-9.36h-4Zm131.84-66.6-.782-1.84-1.308.555.094 1.418 1.996-.133Zm.12 1.8-1.996.133.093 1.384 1.328.399.575-1.916Zm9.84 5.88 1.992-.181-.004-.039-.005-.039-1.983.259Zm.24 31.56 2 .028v-.005l-2-.023Zm-.36 29.76h-2v.014l2-.014ZM623.28 99l.495 1.938.007-.002L623.28 99ZM579.6 78.12h2v-.016l-2 .016Zm3.12-49.56 1.977.304.001-.007-1.978-.297Zm-48.96 17.76 1.477-1.349-.921-1.008-1.274.49.718 1.867Zm-1.56.6-.718-1.867-1.183.455-.094 1.264 1.995.148Zm.6 8.76-1.838.788.002.006 1.836-.794Zm24.96 5.76.878 1.797.008-.004.008-.004-.894-1.789Zm16.68-6.96.721 1.866.004-.002-.725-1.864Zm36.96-12.36.329 1.973.045-.008.045-.01-.419-1.955Zm1.68 2.04-1.789-.894-.006.012-.006.012 1.801.87Zm-16.56 24.36-1.54-1.276-1.162 1.402 1.288 1.288 1.414-1.414Zm1.68 1.68-1.414 1.414 1.077 1.078 1.325-.753-.988-1.739Zm27.48-19.44 1.29 1.529.022-.02.022-.018-1.334-1.491Zm-16.2-16.32.545 1.924.018-.005.017-.005-.58-1.914Zm-36 10.32.537 1.927.014-.004.015-.005-.566-1.918Zm-16.876-31.907.12 1.8 3.992-.266-.12-1.8-3.992.266Zm1.541 3.583c3.031.909 5.203 1.637 6.659 2.423 1.434.776 1.715 1.358 1.773 1.8l3.966-.518c-.302-2.318-1.941-3.776-3.837-4.8-1.874-1.014-4.442-1.846-7.411-2.737l-1.15 3.832Zm8.423 4.145c.468 5.15.353 20.97.232 31.356l4 .046c.119-10.253.244-26.353-.248-31.764l-3.984.362Zm.232 31.35c-.12 8.503-.36 21.97-.36 29.789h4c0-7.781.24-21.194.36-29.732l-4-.056Zm-.36 29.803c.061 9.03 2.029 14.949 7.588 18.277 2.653 1.589 5.958 2.475 9.866 2.981 3.916.506 8.59.648 14.066.648v-4c-5.444 0-9.905-.143-13.553-.615-3.655-.473-6.343-1.26-8.325-2.446-3.711-2.222-5.583-6.263-5.642-14.873l-4 .028Zm31.52 21.906c7.297 0 19.957-1.207 25.815-2.702l-.99-3.876c-5.422 1.385-17.722 2.578-24.825 2.578v4Zm25.822-2.704c1.698-.44 3.591-1.102 5.071-2.365 1.582-1.35 2.547-3.261 2.547-5.811h-4c0 1.41-.475 2.199-1.143 2.769-.77.657-1.937 1.135-3.479 1.535l1.004 3.872Zm7.618-8.176c0-3.575-2.639-5.778-5.339-6.986-2.744-1.227-6.132-1.734-9.021-1.734v4c2.511 0 5.303.453 7.389 1.386 2.13.952 2.971 2.109 2.971 3.334h4Zm-14.36-8.72c-.451 0-.954.114-1.311.2-.416.099-.935.24-1.509.393a82.51 82.51 0 0 1-4.683 1.129c-3.918.816-9.511 1.638-16.857 1.638v4c7.654 0 13.521-.858 17.673-1.722a86.609 86.609 0 0 0 4.899-1.18c.605-.162 1.057-.285 1.409-.369.41-.098.47-.089.379-.089v-4Zm-24.36 3.36c-2.792 0-4.875-.062-6.468-.29-1.594-.23-2.462-.597-2.993-1.03-.487-.397-.905-1.028-1.196-2.292-.3-1.308-.423-3.113-.423-5.668h-4c0 2.605.117 4.79.525 6.564.418 1.82 1.178 3.363 2.566 4.496 1.344 1.097 3.048 1.615 4.953 1.888 1.906.274 4.248.332 7.036.332v-4Zm-11.08-9.296c-.119-15.026 1.915-41.558 3.097-49.24l-3.954-.608c-1.218 7.918-3.264 34.666-3.143 49.88l4-.032Zm3.098-49.247c.302-2.012 1.008-3.27 1.773-4.623.773-1.366 1.729-3.012 1.729-5.394h-4c0 1.218-.424 2.032-1.211 3.426-.795 1.406-1.829 3.209-2.247 5.997l3.956.594ZM588.2 18.84c0-1.702-.968-3.242-2.042-4.438-1.126-1.254-2.645-2.437-4.322-3.453-3.32-2.011-7.639-3.589-11.476-3.589v4c2.883 0 6.484 1.242 9.404 3.01 1.443.875 2.624 1.822 3.418 2.705.846.942 1.018 1.547 1.018 1.765h4ZM570.36 7.36c-3.457 0-7.764 1.489-12.542 3.52l1.564 3.68c4.822-2.049 8.435-3.2 10.978-3.2v-4Zm-37.318 37.093-1.56.6 1.436 3.734 1.56-.6-1.436-3.734Zm-2.837 2.32c-.228 3.09-.555 6.635.757 9.695l3.676-1.576c-.848-1.98-.695-4.434-.443-7.824l-3.99-.296Zm.759 9.7c1.159 2.68 3.932 5.602 6.799 7.8 1.468 1.124 3.043 2.123 4.575 2.85 1.498.71 3.115 1.237 4.622 1.237v-4c-.653 0-1.646-.253-2.908-.852-1.228-.582-2.563-1.42-3.856-2.41-2.652-2.033-4.799-4.451-5.56-6.212l-3.672 1.588ZM546.96 68.36c2.581 0 4.348-.771 6.066-1.799 1.73-1.034 3.122-2.108 5.612-3.324l-1.756-3.594c-2.67 1.304-4.578 2.69-5.908 3.486-1.342.802-2.395 1.231-4.014 1.231v4Zm11.694-5.131c4.695-2.348 11.19-4.83 16.507-6.883l-1.442-3.732c-5.243 2.026-11.948 4.585-16.853 7.037l1.788 3.578Zm16.511-6.885a596.72 596.72 0 0 1 18.951-6.965c7.301-2.534 14.212-4.72 17.613-5.286l-.658-3.946c-3.799.634-11.048 2.948-18.267 5.454a600.727 600.727 0 0 0-19.089 7.015l1.45 3.728Zm36.654-12.268c.227-.05.293-.024.24-.035a.9.9 0 0 1-.481-.327.947.947 0 0 1-.22-.583c.002-.08.02-.04-.067.135l3.578 1.788c.504-1.007.853-2.563-.167-3.838-1.007-1.258-2.594-1.293-3.721-1.052l.838 3.912Zm-.54-.786c-3.379 6.992-9.386 15.61-16.299 23.954l3.08 2.552c7.007-8.456 13.24-17.358 16.821-24.766l-3.602-1.74Zm-16.173 26.644 1.68 1.68 2.828-2.828-1.68-1.68-2.828 2.828Zm4.082 2.005c10.698-6.078 20.04-13.118 27.782-19.65l-2.58-3.058c-7.618 6.428-16.756 13.308-27.178 19.23l1.976 3.478Zm27.826-19.688c.39-.35 1.005-.738 1.864-1.221.783-.44 1.818-.985 2.717-1.532.913-.555 1.9-1.236 2.67-2.085.791-.87 1.455-2.034 1.455-3.493h-4c0 .16-.056.408-.416.804-.381.42-.977.863-1.789 1.358-.826.503-1.658.933-2.597 1.46-.862.485-1.822 1.057-2.572 1.727l2.668 2.982Zm8.706-8.331c0-.944-.319-1.855-.709-2.637-.402-.804-.952-1.618-1.578-2.408-1.254-1.58-2.935-3.218-4.729-4.69-1.797-1.476-3.768-2.836-5.629-3.838-1.783-.96-3.743-1.747-5.435-1.747v4c.648 0 1.868.368 3.539 1.268 1.592.858 3.349 2.063 4.987 3.408 1.641 1.347 3.102 2.785 4.133 4.084.515.65.892 1.227 1.132 1.71.252.503.289.774.289.85h4ZM617.64 28.6c-1.953 0-3.495 1.046-4.64 1.8-1.252.824-2.436 1.622-4.1 2.126l1.16 3.828c2.296-.696 3.932-1.818 5.14-2.614 1.315-.866 1.873-1.14 2.44-1.14v-4Zm-8.705 3.916c-7.197 2.039-26.648 7.562-36.021 10.326l1.132 3.836c9.347-2.756 28.776-8.273 35.979-10.314l-1.09-3.848Zm-35.992 10.317c-3.688 1.028-10.069 2.877-16.184 4.477-3.055.8-6.016 1.529-8.516 2.058-2.557.54-4.459.832-5.483.832v4c1.496 0 3.779-.384 6.311-.919 2.589-.547 5.62-1.295 8.7-2.101 6.155-1.61 12.614-3.481 16.246-4.493l-1.074-3.854ZM542.76 50.2c-1.399 0-2.597-.535-3.809-1.481-1.271-.993-2.384-2.291-3.714-3.748l-2.954 2.698c1.19 1.303 2.597 2.945 4.206 4.202 1.668 1.303 3.71 2.329 6.271 2.329v-4ZM681.6 20.4l-.802-1.832-1.104.483-.089 1.201 1.995.148Zm.84 8.76-1.923.55.012.041.014.041 1.897-.632Zm21.12 7.2.632 1.897.017-.005.017-.006-.666-1.886Zm26.28-7.08-.181-1.992-.009.001h-.009l.199 1.991Zm1.32 2.16 1.848.764.005-.01.004-.011-1.857-.743ZM663.6 100.2l-.918-1.777-1.893.979 1.096 1.827 1.715-1.029Zm1.44 2.4-1.715 1.029.803 1.337 1.492-.452-.58-1.914Zm60.36-38.52-1.433-1.395-.004.004 1.437 1.391Zm19.92-26.88 1.636 1.151.022-.032.021-.033-1.679-1.086Zm-16.56-16.08.447 1.95.01-.003.01-.002-.467-1.945Zm-45.24-1.56 1.545-1.27-.96-1.169-1.387.607.802 1.832Zm35.88 43.32-1.562-1.25-1.47 1.838 2.051 1.155.981-1.743Zm25.8 27.96-1.711 1.035.018.03.019.03 1.674-1.095Zm-23.88-30.36.49-1.939-1.248-.315-.804 1.005 1.562 1.249Zm-41.715-40.228c-.257 3.474.127 6.71.912 9.457l3.846-1.099c-.655-2.292-.991-5.056-.768-8.062l-3.99-.296Zm.938 9.54c.833 2.502 2.789 5.603 5.204 8.084 2.363 2.425 5.586 4.684 9.053 4.684v-4c-1.813 0-4.05-1.281-6.187-3.476-2.085-2.14-3.669-4.738-4.276-6.557l-3.794 1.265ZM694.8 42.56c2.387 0 4.019-1.034 5.35-1.968 1.353-.95 2.404-1.788 4.042-2.335l-1.264-3.794c-2.322.773-3.91 2.036-5.078 2.855-1.189.836-1.957 1.242-3.05 1.242v4Zm9.426-4.314c2.999-1.059 8.321-2.695 13.502-4.128 5.243-1.45 10.112-2.628 12.311-2.848l-.398-3.98c-2.601.26-7.812 1.543-12.979 2.972-5.229 1.447-10.647 3.11-13.768 4.212l1.332 3.772Zm25.795-6.974c.216-.02.275 0 .23-.01a1.081 1.081 0 0 1-.569-.4c-.238-.308-.238-.591-.237-.624.001-.012-.007.123-.142.46l3.714 1.485c.382-.956.805-2.504-.169-3.766-.49-.634-1.147-.925-1.691-1.051-.528-.123-1.054-.118-1.498-.078l.362 3.984Zm-.709-.596c-4.728 11.439-14.353 24.759-26.388 37.076-12.02 12.303-26.312 23.47-40.242 30.671l1.836 3.554c14.39-7.439 29.018-18.892 41.268-31.43 12.235-12.522 22.23-26.262 27.222-38.343l-3.696-1.528Zm-67.427 70.553 1.44 2.4 3.43-2.058-1.44-2.4-3.43 2.058Zm3.735 3.285c30.967-9.388 50.215-27.679 61.217-39.043l-2.874-2.782c-10.838 11.196-29.51 28.905-59.503 37.997l1.16 3.828Zm61.213-39.04c8.788-9.03 15.705-20.846 20.123-27.123l-3.272-2.302c-4.702 6.683-11.225 17.907-19.717 26.636l2.866 2.79Zm20.166-27.188c.102-.157.41-.461 1.125-.97.329-.233.688-.473 1.09-.742.393-.263.821-.55 1.243-.852.829-.591 1.75-1.319 2.471-2.202.736-.903 1.352-2.078 1.352-3.52h-4c0 .238-.089.548-.451.991-.378.463-.95.943-1.696 1.477-.366.26-.745.515-1.143.78-.387.26-.799.535-1.185.81-.714.507-1.606 1.193-2.164 2.056l3.358 2.172ZM754.28 30c0-.922-.307-1.814-.682-2.582-.386-.79-.916-1.594-1.522-2.376-1.212-1.565-2.844-3.193-4.604-4.662-1.763-1.472-3.713-2.833-5.588-3.837-1.811-.97-3.797-1.743-5.564-1.743v4c.753 0 2.022.383 3.676 1.269 1.59.851 3.315 2.048 4.912 3.381 1.6 1.336 3.013 2.76 4.006 4.042.497.64.859 1.21 1.09 1.681.242.496.276.759.276.827h4Zm-17.96-15.2c-1.118 0-2.074.401-2.837.85-.749.44-1.449 1.013-2.036 1.497-1.314 1.084-2.197 1.799-3.154 2.028l.934 3.89c2.043-.49 3.68-1.936 4.766-2.832.613-.506 1.083-.879 1.519-1.136.422-.248.666-.297.808-.297v-4Zm-8.007 4.37c-2.827.648-9.474 1.96-16.468 3.111-7.039 1.159-14.233 2.119-18.245 2.119v4c4.388 0 11.894-1.02 18.895-2.171 7.046-1.16 13.779-2.488 16.712-3.16l-.894-3.898ZM693.6 24.4c-1.441 0-2.848-.609-4.31-1.741-1.475-1.142-2.855-2.7-4.225-4.368l-3.09 2.538c1.39 1.693 3.009 3.554 4.865 4.992 1.868 1.448 4.121 2.579 6.76 2.579v-4Zm-10.882-6.672-1.92.84 1.604 3.664 1.92-.84-1.604-3.664Zm35.701 46.895c13.771 7.753 18.819 16.915 25.07 27.252l3.422-2.07c-6.229-10.303-11.741-20.342-26.53-28.668l-1.962 3.486Zm25.107 27.311c2.037 3.116 3.93 5.778 6.003 7.65 2.149 1.94 4.558 3.096 7.551 3.096v-4c-1.807 0-3.298-.644-4.869-2.064-1.647-1.488-3.294-3.746-5.337-6.87l-3.348 2.189Zm13.554 10.746c6.042 0 9.44-5.252 9.44-9.68h-4c0 2.772-2.122 5.68-5.44 5.68v4Zm9.44-9.68c0-8.328-6.037-15.6-14.268-21.322-8.319-5.783-19.357-10.335-30.442-13.137l-.98 3.878c10.755 2.718 21.317 7.106 29.138 12.543C757.877 80.46 762.52 86.688 762.52 93h4Zm-46.762-33.77-1.92 2.4 3.124 2.5 1.92-2.4-3.124-2.5Z" fill="#C2724A"/></svg>