<svg width="548" height="121" fill="none" xmlns="http://www.w3.org/2000/svg"><path opacity=".3" d="M78.232 98.888v-1h-1v1h1Zm0 3.712h-1v1h1v-1Zm31.104 0v1h1v-1h-1Zm0-3.712h1v-1h-1v1Zm-7.552-76.8h1v-1h-1v1Zm0 93.44h-1v1h1v-1Zm15.232-5.376.996.091.004-.046v-.045h-1Zm0-81.792-.232-.973-.768.183v.79h1Zm5.376-2.816.789.614.61-.784-.779-.615-.62.785ZM107.8 14.024l.62-.785-.734-.58-.628.694.742.671Zm-7.296 8.064-.742-.67-1.511 1.67h2.253v-1ZM4.248 28.744v-1H2.876l.42 1.306.952-.306ZM5.4 32.328l-.952.306.223.694H5.4v-1Zm48.128 0v1h1v-1h-1Zm0-3.584h1v-1h-1v1Zm-32-27.392.09-.996-1.09-.099v1.095h1ZM.92 118.728l-.843-.537-.432.676.568.568.707-.707Zm1.792 1.792-.707.707.668.668.705-.629-.666-.746ZM36.504 6.728l-.158-.987-.828.132-.014.839 1 .016Zm4.736-3.584.98.196.219-1.091-1.108-.1-.091.995Zm6.912 25.6 1 .02.02-1.02h-1.02v1Zm-6.784 71.424-.675-.738-.016.015-.016.016.707.707Zm-17.792.768.093-.996-1.018-.095-.073 1.02.998.071Zm-.128 1.792-.997-.071-.061.853.833.192.225-.974Zm10.496 5.12.8-.6-.015-.021-.017-.019-.768.64Zm1.92 10.496h-1v1h1v-1Zm16.896-6.4-.707-.707-.01.01-.01.011.727.686Zm9.856-77.056-.179-.984-.804.146-.017.818 1 .02Zm5.504-2.56.78.625.601-.75-.726-.63-.655.755ZM54.552 20.552l.656-.755-.715-.62-.66.68.719.695Zm-7.936 8.192-.718-.696-1.643 1.696h2.361v-1Zm24.96 89.088h-1v1h1v-1ZM86.168 25.8v-1h-1v1h1Zm23.936 0v1h1v-1h-1Zm0-3.712h1v-1h-1v1Zm-23.296 0-.387.922.185.078h.202v-1Zm-15.232-6.4.387-.922-1.387-.583v1.505h1Zm5.656 83.2v3.712h2v-3.712h-2Zm1 4.712h31.104v-2H78.232v2Zm32.104-1v-3.712h-2v3.712h2Zm-1-4.712H78.232v2h31.104v-2Zm-8.552-75.8v93.44h2v-93.44h-2Zm1 94.44h2.432v-2h-2.432v2Zm2.432 0c3.018 0 6.337-1.053 8.89-2.255 1.284-.605 2.413-1.265 3.245-1.885.414-.308.78-.624 1.057-.937.244-.275.557-.697.604-1.208l-1.992-.182c.015-.159.08-.149-.108.063a5.18 5.18 0 0 1-.755.66c-.7.52-1.707 1.116-2.903 1.679-2.407 1.134-5.424 2.065-8.038 2.065v2Zm13.8-6.376V28.36h-2v81.792h2Zm-.768-80.82c2.787-.663 4.836-1.764 5.933-3.174l-1.578-1.228c-.695.893-2.23 1.84-4.819 2.457l.464 1.946Zm5.764-4.573L108.42 13.24l-1.24 1.57 14.592 11.52 1.24-1.57Zm-15.954-11.406-7.296 8.064 1.484 1.342 7.296-8.064-1.484-1.342Zm-6.554 9.735h1.28v-2h-1.28v2ZM3.296 29.05l1.152 3.584 1.904-.612L5.2 28.438l-1.904.612ZM5.4 33.328h48.128v-2H5.4v2Zm49.128-1v-3.584h-2v3.584h2Zm-1-4.584H4.248v2h49.28v-2Zm-33-26.392c0 40.168 1.63 82.193-20.451 116.839l1.686 1.074C24.226 84.023 22.528 41.312 22.528 1.352h-2ZM.213 119.435l1.792 1.792 1.414-1.414-1.792-1.792-1.414 1.414Zm3.165 1.831C38.07 90.328 36.866 45.91 37.504 6.744l-2-.032c-.642 39.426.458 82.816-33.458 113.062l1.332 1.492ZM36.662 7.716c1.678-.27 2.963-.725 3.893-1.473.963-.775 1.44-1.777 1.666-2.903l-1.962-.392c-.158.794-.45 1.328-.958 1.737-.542.436-1.433.812-2.955 1.056l.316 1.974Zm4.669-5.568L21.617.356l-.18 1.992L41.15 4.14l.18-1.992Zm5.821 26.576c-.448 22.53-1.023 39.33-2.044 51.005-.51 5.84-1.13 10.362-1.89 13.662-.38 1.65-.79 2.97-1.227 3.984-.441 1.025-.884 1.677-1.298 2.055l1.35 1.476c.706-.646 1.288-1.586 1.784-2.74.502-1.163.944-2.608 1.34-4.325.791-3.436 1.42-8.066 1.933-13.938 1.027-11.75 1.604-28.613 2.052-51.14l-2-.039Zm-6.491 70.737c-.506.505-.968.829-1.51 1.038-.55.213-1.25.333-2.263.333v2c1.163 0 2.128-.136 2.984-.467.867-.335 1.557-.844 2.203-1.49l-1.414-1.414Zm-3.773 1.371c-2.505 0-9.114-.507-13.219-.892l-.186 1.992c4.087.383 10.79.9 13.405.9v-2Zm-14.31.033-.127 1.792 1.994.142.128-1.792-1.995-.142Zm.645 2.837c4.94 1.141 8.25 2.744 9.953 4.786l1.536-1.28c-2.138-2.566-5.996-4.291-11.04-5.454l-.449 1.948Zm9.921 4.746c.632.843 1.074 2.041 1.35 3.707.274 1.662.37 3.709.37 6.189h2c0-2.512-.096-4.689-.397-6.515-.301-1.822-.82-3.376-1.723-4.581l-1.6 1.2Zm2.72 10.896c7.102 0 13.159-1.979 17.624-6.714l-1.456-1.372c-3.983 4.225-9.446 6.086-16.168 6.086v2Zm17.603-6.693c3.785-3.785 6.014-10.539 7.47-22.506 1.463-12.026 2.167-29.58 2.679-55.237l-2-.04c-.512 25.67-1.216 43.125-2.665 55.035-1.456 11.969-3.643 18.079-6.898 21.334l1.414 1.414Zm9.328-76.78c2.889-.524 4.852-1.351 6.106-2.918l-1.562-1.25c-.794.993-2.159 1.702-4.902 2.201l.358 1.968Zm5.98-4.298L55.207 19.797l-1.31 1.51 13.568 11.776 1.31-1.51ZM53.834 19.856l-7.936 8.192 1.436 1.392 7.936-8.192-1.436-1.392Zm-7.218 9.888h1.536v-2h-1.536v2Zm23.96-7.656v95.744h2V22.088h-2Zm1 96.744h2.56v-2h-2.56v2Zm2.56 0c3.37 0 6.529-.907 8.858-2.055 1.163-.573 2.154-1.223 2.87-1.88.358-.328.67-.678.897-1.042.223-.357.407-.792.407-1.271h-2c0-.031.008.034-.102.209a3.233 3.233 0 0 1-.554.63c-.54.495-1.358 1.045-2.402 1.56a18.547 18.547 0 0 1-7.974 1.849v2Zm13.032-6.248V25.8h-2v86.784h2Zm-1-85.784h23.936v-2H86.168v2Zm24.936-1v-3.712h-2V25.8h2Zm-1-4.712H86.808v2h23.296v-2Zm-22.909.078-15.232-6.4-.774 1.844 15.232 6.4.774-1.844Zm-16.619-5.478v6.4h2v-6.4h-2Zm88.68-5.504v-1h-1v1h1Zm0 3.584h-1v1h1v-1Zm26.496 0v1h1v-1h-1Zm0-3.584h1v-1h-1v1Zm-26.496 20.352v-1h-1v1h1Zm0 3.584h-1v1h1v-1Zm26.496 0v1h1v-1h-1Zm0-3.584h1v-1h-1v1Zm-26.496 20.736v-1h-1v1h1Zm0 3.712h-1v1h1v-1Zm26.496 0v1h1v-1h-1Zm0-3.712h1v-1h-1v1Zm26.88-42.496v-1h-1v1h1Zm0 3.584h-1v1h1v-1Zm36.48 0v1h1v-1h-1Zm0-3.584h1v-1h-1v1Zm-36.48 15.232v-1h-1v1h1Zm0 3.584h-1v1h1v-1Zm36.48 0v1h1v-1h-1Zm0-3.584h1v-1h-1v1ZM212.12 39.24v-1h-1v1h1Zm0 3.584h-1v1h1v-1Zm36.992 0v1h1v-1h-1Zm0-3.584h1v-1h-1v1ZM152.6 67.144h-1v1h1v-1Zm13.568-56.96v-1h-1v1h1Zm1.536 0v1l.363-1.932-.363.932ZM152.6 4.296l.363-.932-1.363-.531v1.463h1Zm28.416 5.888h1v-1h-1v1Zm0 52.224h-1v1h1v-1Zm13.696-3.456.99.141.01-.07v-.071h-1Zm0-42.88-.187-.982-.813.155v.827h1Zm5.248-2.688.8.6.594-.792-.786-.602-.608.794ZM186.264 2.888l.608-.794-.743-.569-.617.704.752.659Zm-6.4 7.296-.752-.66-1.455 1.66h2.207v-1Zm59.008-1.408h1v-1h-1v1Zm-15.104 47.616.049-.999-1.049-.052v1.051h1Zm0 1.664h-1v.876l.868.115.132-.991Zm9.472 3.968-.707.707.707-.707Zm2.432 8.448-.998.069.069 1 1-.072-.071-.997Zm18.304-55.808-.196-.98-.804.16v.82h1Zm4.992-2.56.8.6.602-.802-.804-.6-.598.802Zm-14.592-10.88.598-.802-.739-.55-.609.69.75.662Zm-6.656 7.552-.75-.661-1.464 1.661h2.214v-1Zm-46.848 62.848-.661-.75-.759.667.677.752.743-.669Zm1.152 1.28-.743.669.473.526.654-.272-.384-.923Zm27.52-64.128v-1h-1v1h1Zm2.304 0v1l.34-1.94-.34.94Zm-16.64-6.016.34-.94-1.34-.485V2.76h1Zm-61.184 110.08v-1h-1.313l.349 1.266.964-.266Zm1.024 3.712-.964.266.203.734h.761v-1Zm118.656-2.048.965.263.139-.51-.343-.402-.761.649Zm-10.624-10.88.687-.727-.879-.83-.651 1.019.843.538Zm-5.888 9.216v1h.548l.295-.462-.843-.538Zm-62.464-36.352v-1h-1v1h1Zm0 38.272h-1v1h1v-1Zm13.696 0v1h1v-1h-1Zm0-38.272h1v-1h-1v1Zm9.856 0v-1h-1v1h1Zm0 38.272h-1v1h1v-1Zm13.696 0v1h1v-1h-1Zm0-38.272h1v-1h-1v1Zm-61.312 38.272h-1v1h1v-1Zm14.08 0v1h1v-1h-1Zm0-34.56v-1h-1v1h1Zm57.216 0h1v-1h-1v1Zm0 34.56h-1v1h1v-1Zm14.848 0v1h1v-1h-1Zm0-33.152-.158-.987-.842.134v.853h1Zm5.76-2.56.781.625.672-.84-.887-.61-.566.825ZM237.08 68.424l.566-.825-.777-.532-.578.743.789.614Zm-6.272 8.064v1h.489l.3-.386-.789-.614Zm-54.784 0-.358.934.173.066h.185v-1Zm-15.36-5.888.358-.934-1.358-.52V70.6h1Zm-2.408-60.416v3.584h2v-3.584h-2Zm1 4.584h26.496v-2h-26.496v2Zm27.496-1v-3.584h-2v3.584h2Zm-1-4.584h-26.496v2h26.496v-2Zm-27.496 21.352v3.584h2v-3.584h-2Zm1 4.584h26.496v-2h-26.496v2Zm27.496-1v-3.584h-2v3.584h2Zm-1-4.584h-26.496v2h26.496v-2Zm-27.496 21.736v3.712h2v-3.712h-2Zm1 4.712h26.496v-2h-26.496v2Zm27.496-1v-3.712h-2v3.712h2Zm-1-4.712h-26.496v2h26.496v-2Zm25.88-41.496v3.584h2V8.776h-2Zm1 4.584h36.48v-2h-36.48v2Zm37.48-1V8.776h-2v3.584h2Zm-1-4.584h-36.48v2h36.48v-2Zm-37.48 16.232v3.584h2v-3.584h-2Zm1 4.584h36.48v-2h-36.48v2Zm37.48-1v-3.584h-2v3.584h2Zm-1-4.584h-36.48v2h36.48v-2ZM211.12 39.24v3.584h2V39.24h-2Zm1 4.584h36.992v-2H212.12v2Zm37.992-1V39.24h-2v3.584h2Zm-1-4.584H212.12v2h36.992v-2ZM151.6 10.184v56.96h2v-56.96h-2Zm1 57.96h2.432v-2H152.6v2Zm2.432 0c3.603 0 6.529-.8 8.577-1.739 1.02-.468 1.842-.979 2.426-1.458a4.56 4.56 0 0 0 .734-.738c.162-.213.399-.58.399-1.033h-2c0-.228.105-.304.009-.177a2.63 2.63 0 0 1-.412.402c-.424.349-1.09.774-1.99 1.186-1.792.821-4.434 1.557-7.743 1.557v2Zm12.136-4.968V10.184h-2v52.992h2Zm-1-51.992h1.536v-2h-1.536v2Zm1.899-1.932-15.104-5.888-.726 1.864 15.104 5.888.726-1.864ZM151.6 4.296v5.888h2V4.296h-2Zm28.416 5.888v52.224h2V10.184h-2Zm1 53.224h2.304v-2h-2.304v2Zm2.304 0c2.392 0 5.323-.675 7.642-1.443 1.167-.386 2.216-.808 2.997-1.203.387-.195.739-.4 1.013-.606.136-.102.279-.226.402-.37.11-.129.281-.365.328-.693l-1.98-.282a.755.755 0 0 1 .078-.244c.025-.045.046-.071.05-.076.007-.008-.012.015-.083.068a4.98 4.98 0 0 1-.71.419c-.667.337-1.618.723-2.723 1.089-2.225.736-4.926 1.341-7.014 1.341v2Zm12.392-4.456v-42.88h-2v42.88h2Zm-.813-41.898c2.845-.541 4.897-1.785 5.861-3.07l-1.6-1.2c-.572.763-2.104 1.823-4.635 2.306l.374 1.964Zm5.669-4.464L186.872 2.094l-1.216 1.588 13.696 10.496 1.216-1.588ZM185.512 2.23l-6.4 7.296 1.504 1.318 6.4-7.296-1.504-1.318Zm-5.648 8.955h1.152v-2h-1.152v2Zm58.008-2.408V54.6h2V8.776h-2Zm0 45.824c0 .75-.111.986-.185 1.07-.044.05-.245.234-1.119.234v2c1.046 0 1.997-.2 2.625-.918.598-.683.679-1.6.679-2.386h-2Zm-1.304 1.304c-1.188 0-4.361-.127-7.268-.255a1203.452 1203.452 0 0 1-5.366-.25l-.087-.004-.022-.001h-.008l-.049.998-.049.999h.007l.023.001.087.005.334.016a1007.8 1007.8 0 0 0 5.042.234c2.885.128 6.112.257 7.356.257v-2Zm-13.8.488v1.664h2v-1.664h-2Zm.868 2.655c2.804.374 4.68.959 6.017 1.605 1.324.64 2.163 1.362 2.88 2.08l1.414-1.415c-.819-.819-1.836-1.698-3.424-2.465-1.575-.762-3.667-1.393-6.623-1.787l-.264 1.982Zm8.897 3.684c.653.653 1.136 1.642 1.482 2.997.345 1.35.532 2.973.659 4.813l1.996-.138c-.129-1.872-.326-3.64-.717-5.17-.39-1.526-.995-2.905-2.006-3.916l-1.414 1.414Zm3.21 8.738c8.092-.578 12.985-2.061 15.818-4.752 2.884-2.74 3.415-6.518 3.415-10.965h-2c0 4.385-.557 7.391-2.793 9.515-2.287 2.173-6.546 3.633-14.582 4.208l.142 1.995Zm19.233-15.717V14.664h-2v41.088h2Zm-.804-40.107c2.697-.54 4.627-1.65 5.596-2.941l-1.6-1.2c-.567.756-1.965 1.695-4.388 2.18l.392 1.96Zm5.394-4.343L244.974.422l-1.196 1.604 14.592 10.88 1.196-1.604ZM243.626.562l-6.656 7.553 1.5 1.322 6.656-7.552-1.5-1.322Zm-5.906 9.214h1.152v-2h-1.152v2Zm-33.512-1v22.272h2V8.776h-2Zm0 22.272c0 14.423-1.546 28.869-13.997 39.825l1.322 1.502c13.149-11.572 14.675-26.822 14.675-41.327h-2Zm-14.079 41.245 1.152 1.28 1.486-1.338-1.152-1.28-1.486 1.338Zm2.279 1.534c12.665-5.26 19.744-12.322 23.627-19.958 3.869-7.605 4.509-15.67 4.509-22.821h-2c0 7.057-.64 14.736-4.291 21.915-3.637 7.148-10.318 13.91-22.613 19.018l.768 1.847Zm28.136-42.779V8.776h-2v22.272h2Zm-1-21.272h2.304v-2h-2.304v2Zm2.644-1.94-16.64-6.016-.68 1.88 16.64 6.016.68-1.88Zm-17.98-5.076v4.736h2V2.76h-2Zm0 4.736v1.28h2v-1.28h-2Zm-61.148 105.61 1.024 3.712 1.928-.532-1.024-3.712-1.928.532Zm1.988 4.446h115.328v-2H145.048v2Zm115.328 0c1.002 0 1.937-.177 2.706-.639.798-.478 1.332-1.212 1.587-2.146l-1.93-.526c-.129.474-.363.764-.686.958-.35.21-.887.353-1.677.353v2Zm4.089-3.697c-1.885-2.21-4.566-4.954-6.76-7.133a271.632 271.632 0 0 0-3.631-3.533l-.227-.216a1.662 1.662 0 0 0-.06-.056l-.015-.015-.004-.004-.001-.001-.687.727-.687.727h.001v.001l.004.003.015.014.057.055.224.213a259.501 259.501 0 0 1 3.602 3.505c2.189 2.173 4.82 4.869 6.647 7.011l1.522-1.298Zm-12.228-10.769-5.888 9.216 1.686 1.076 5.888-9.216-1.686-1.076Zm-5.045 8.754H144.024v2h103.168v-2Zm-63.464-35.352v38.272h2V76.488h-2Zm1 39.272h13.696v-2h-13.696v2Zm14.696-1V76.488h-2v38.272h2Zm-1-39.272h-13.696v2h13.696v-2Zm8.856 1v38.272h2V76.488h-2Zm1 39.272h13.696v-2H208.28v2Zm14.696-1V76.488h-2v38.272h2Zm-1-39.272H208.28v2h13.696v-2Zm-62.312 1v38.272h2V76.488h-2Zm1 39.272h14.08v-2h-14.08v2Zm15.08-1V80.2h-2v34.56h2Zm-1-33.56h57.216v-2h-57.216v2Zm56.216-1v34.56h2V80.2h-2Zm1 35.56h14.848v-2H231.96v2Zm15.848-1V81.608h-2v33.152h2Zm-.842-32.165c3.287-.525 5.126-1.352 6.383-2.922l-1.562-1.25c-.791.99-2.024 1.7-5.137 2.198l.316 1.974Zm6.168-4.372L237.646 67.6l-1.132 1.65 15.488 10.624 1.132-1.65ZM236.291 67.81l-6.272 8.064 1.578 1.228 6.272-8.064-1.578-1.228Zm-5.483 7.678h-54.784v2h54.784v-2Zm-54.426.066-15.36-5.888-.716 1.868 15.36 5.888.716-1.868ZM159.664 70.6v5.888h2V70.6h-2Zm186.728-29.824.647-.762-.824-.7-.633.876.81.586Zm-6.016 8.32v1h.511l.299-.414-.81-.586Zm-13.696 0v-1h-1.326l.364 1.275.962-.275Zm1.024 3.584-.962.275.208.725h.754v-1Zm29.44-2.048.965.263.15-.55-.397-.409-.718.696ZM344.088 8.776l.645-.765-.831-.7-.63.886.816.579Zm-5.632 7.936v1h.517l.299-.421-.816-.579Zm-9.728 0v-1h-1.326l.364 1.275.962-.275Zm1.024 3.584-.962.275.208.725h.754v-1Zm24.576-2.048.958.287.165-.55-.393-.42-.73.683Zm32.64 88.064h1v-1h-1v1Zm-41.088 0v-1h-1v1h1Zm0 3.584h-1v1h1v-1Zm41.088 0v1h1v-1h-1Zm-7.808-36.48-.746-.666-1.487 1.666h2.233v-1Zm1.28 0h1v-1h-1v1Zm0 46.08h-1v1h1v-1Zm13.824-3.456.99.141.01-.07v-.071h-1Zm0-36.736-.206-.979-.794.168v.811h1Zm5.12-2.56.8.6.596-.795-.791-.601-.605.796ZM385.56 66.248l.605-.796-.736-.559-.615.689.746.666Zm-31.872 10.88v-1h-1v1h1Zm34.176 0v1h1v-1h-1Zm0-3.712h1v-1h-1v1Zm-33.536 0-.37.929.178.071h.192v-1Zm-14.464-5.76.37-.929-1.37-.546v1.475h1Zm0 52.608h-1v1h1v-1Zm42.88-91.52.97.242.253-1.012-1.023-.21-.2.98Zm-16.896-3.456.2-.98-1.17-.239-.03 1.194 1 .025Zm-22.784 41.216-.445-.896-1.076.535.721.961.8-.6Zm1.152 1.536-.8.6.42.56.669-.203-.289-.957Zm34.048-36.608v-1h-.841l-.144.828.985.172ZM379.416 6.6l.923.385.416-.998-1.027-.337-.312.95ZM361.88.84l.312-.95-1.064-.35-.227 1.097.979.203Zm-13.44 36.352-.851-.526-.516.836.826.531.541-.841Zm1.792 1.152-.541.841.57.366.551-.393-.58-.814ZM374.424 9.16l.045-.999-.646-.03-.292.578.893.451Zm2.944 22.784.988-.156-.173-1.096-1.073.286.258.966Zm-1.92.512-.258-.966-.813.217.075.838.996-.089Zm20.224 36.224-.36.933 1.246.48.111-1.33-.997-.083Zm10.112-12.032.233.972.704-.168.06-.721-.997-.083Zm.128-1.536.997.083.075-.911-.9-.157-.172.985Zm-18.432-38.4-.721-.693-1.629 1.693h2.35v-1Zm1.408 0 .988.154.18-1.154h-1.168v1Zm-5.376 21.76-.943-.334-.265.75.671.428.537-.844Zm1.408.896-.537.844.593.377.555-.43-.611-.791Zm16.128-16.64-.105-.995-.44.047-.262.357.807.591Zm4.864-1.536.753.659.633-.724-.699-.661-.687.726ZM394.008 9.928l.687-.726-.72-.682-.688.715.721.693Zm.896 6.784h1v-1h-1v1Zm-31.36 0v-1h-.754l-.208.725.962.275Zm-1.024 3.584-.961-.275-.365 1.275h1.326v-1Zm32.384 0v1h1v-1h-1ZM293.912 2.632l.046-.999-.346-.016-.281.201.581.814Zm-.896.64-.581-.814-.916.654.757.833.74-.673Zm8.96 17.28-.986.164.071.429.362.24.553-.833Zm17.792 83.2h1v-1h-1v1Zm-22.784 0v-1h-1v1h1Zm0 3.712h-1v1h1v-1Zm22.784 0v1h1v-1h-1Zm-6.016-32.64-.735-.678-1.546 1.678h2.281v-1Zm1.152 0h1v-1h-1v1Zm0 40.704h-1v1h1v-1Zm12.928-3.84.992.124.008-.062v-.062h-1Zm0-31.488-.217-.976-.783.174v.802h1Zm4.608-2.304.814.581.565-.791-.775-.587-.604.797Zm-12.672-9.6.604-.797-.724-.548-.615.667.735.678Zm-18.56 10.112v-1h-1v1h1Zm17.024 0v1h1v-1h-1Zm0-3.584h1v-1h-1v1Zm-16.512 0-.385.923.185.077h.2v-1Zm-13.184-5.504.385-.923-1.385-.578v1.501h1Zm0 50.304h-1v1h1v-1Zm31.616-102.272.625-.78-.8-.64-.62.814.795.606Zm-6.144 8.064v1h.495l.3-.394-.795-.606Zm-29.568 0v-1h-1.326l.364 1.275.962-.275ZM285.464 29l-.962.275.208.725h.754v-1Zm46.08-2.048.965.263.161-.59-.452-.412-.674.739Zm-13.44 23.68.621-.784-.798-.633-.618.81.795.607Zm-5.76 7.552v1h.495l.3-.394-.795-.606Zm-23.04 0v-1h-1.313l.349 1.266.964-.266Zm1.024 3.712-.964.266.203.734h.761v-1Zm38.656-2.048.965.263.158-.58-.439-.413-.684.73Zm-10.88-25.728.612-.791-.797-.616-.61.8.795.607Zm-5.76 7.552v1h.495l.3-.394-.795-.606Zm-23.04 0v-1h-1.313l.349 1.266.964-.266Zm1.024 3.712-.964.266.203.734h.761v-1Zm38.656-2.048.965.263.155-.57-.424-.411-.696.718Zm16.598-3.146-6.016 8.32 1.62 1.172 6.016-8.32-1.62-1.172Zm-5.206 7.906H326.68v2h13.696v-2Zm-14.658 1.275 1.024 3.584 1.924-.55-1.024-3.584-1.924.55Zm1.986 4.309h26.112v-2h-26.112v2Zm26.112 0c.95 0 1.875-.181 2.648-.632a3.502 3.502 0 0 0 1.645-2.153l-1.93-.526a1.501 1.501 0 0 1-.723.951c-.379.221-.926.36-1.64.36v2Zm4.046-3.744c-2.011-2.076-4.722-4.56-6.917-6.515a257.864 257.864 0 0 0-3.603-3.149l-.224-.191-.058-.05a.231.231 0 0 1-.015-.013l-.004-.003-.001-.001h-.001l-.647.762-.647.762.001.001a.36.36 0 0 0 .018.015l.056.049c.051.042.125.106.221.188a254.625 254.625 0 0 1 3.574 3.124c2.189 1.949 4.854 4.393 6.811 6.413l1.436-1.392Zm-14.59-41.739-5.631 7.936 1.631 1.158 5.632-7.936-1.632-1.158Zm-4.816 7.515h-9.728v2h9.728v-2Zm-10.69 1.275 1.024 3.584 1.924-.55-1.024-3.584-1.924.55Zm1.986 4.309h21.376v-2h-21.376v2Zm21.376 0c1.992 0 3.617-.958 4.158-2.76l-1.916-.575c-.227.757-.906 1.335-2.242 1.335v2Zm3.93-3.731c-1.888-2.019-4.476-4.411-6.576-6.287a208.95 208.95 0 0 0-2.663-2.337c-.336-.29-.608-.523-.795-.682l-.215-.183-.057-.048-.014-.012-.004-.003-.001-.001-.645.764-.645.765h.001l.004.003.013.012.055.046a125.04 125.04 0 0 1 .997.853c.667.575 1.594 1.383 2.637 2.315 2.092 1.868 4.624 4.212 6.448 6.161l1.46-1.366Zm31.91 87.747H345.88v2h41.088v-2Zm-42.088 1v3.584h2v-3.584h-2Zm1 4.584h41.088v-2H345.88v2Zm42.088-1v-3.584h-2v3.584h2Zm-8.808-35.48h1.28v-2h-1.28v2Zm.28-1v46.08h2v-46.08h-2Zm1 47.08h2.304v-2h-2.304v2Zm2.304 0c2.391 0 5.353-.675 7.702-1.441 1.182-.386 2.247-.807 3.039-1.202a6.97 6.97 0 0 0 1.027-.604 2.53 2.53 0 0 0 .407-.369c.111-.128.287-.366.335-.699l-1.98-.282a.748.748 0 0 1 .08-.249c.026-.046.048-.072.052-.077.007-.008-.013.016-.086.07a5.186 5.186 0 0 1-.725.42c-.68.337-1.647.724-2.769 1.09-2.259.738-4.993 1.343-7.082 1.343v2Zm12.52-4.456V79.304h-2v36.736h2Zm-.794-35.758c1.292-.272 2.465-.683 3.432-1.175.95-.484 1.771-1.081 2.282-1.763l-1.6-1.2c-.256.342-.78.769-1.59 1.18-.793.405-1.796.761-2.936 1.001l.412 1.957Zm5.519-4.334-13.824-10.496-1.21 1.592 13.824 10.496 1.21-1.592Zm-15.175-10.366-6.4 7.168 1.492 1.332 6.4-7.168-1.492-1.332Zm-30.126 50.33V77.128h-2v38.784h2Zm-1-37.784h34.176v-2h-34.176v2Zm35.176-1v-3.712h-2v3.712h2Zm-1-4.712h-33.536v2h33.536v-2Zm-33.166.071-14.464-5.76-.74 1.858 14.464 5.76.74-1.858Zm-15.834-4.831v52.608h2V67.656h-2Zm1 53.608h2.048v-2h-2.048v2Zm2.048 0c3.042 0 6.117-.807 8.433-1.773 1.158-.483 2.162-1.021 2.895-1.546.364-.26.692-.539.94-.83.222-.261.508-.68.508-1.203h-2c0-.203.098-.246-.031-.094a3.365 3.365 0 0 1-.581.501c-.575.411-1.435.881-2.501 1.326-2.132.89-4.945 1.619-7.663 1.619v2Zm41.032-93.5-16.896-3.456-.4 1.96 16.896 3.456.4-1.96Zm-18.096-2.501c-.191 7.571-1.05 15.317-4.2 22.335-3.137 6.988-8.571 13.313-18.029 18.01l.89 1.792c9.87-4.903 15.636-11.57 18.963-18.983 3.314-7.381 4.183-15.443 4.376-23.104l-2-.05Zm-22.584 41.841 1.152 1.536 1.6-1.2-1.152-1.536-1.6 1.2Zm2.241 1.893c13.083-3.95 21.181-9.715 26.31-16.345 5.121-6.62 7.206-14.005 8.434-21.048l-1.97-.344c-1.204 6.909-3.215 13.923-8.046 20.168-4.823 6.234-12.533 11.797-25.306 15.655l.578 1.914Zm33.759-36.565c1.591 0 2.836-.31 3.763-.942.949-.647 1.449-1.553 1.687-2.503l-1.94-.485c-.146.585-.414 1.023-.873 1.336-.481.328-1.284.594-2.637.594v2Zm1.464-26.782L362.192-.11l-.624 1.9 17.536 5.76.624-1.9ZM360.901.637c-2.8 13.488-8.013 27.45-13.312 36.03l1.702 1.05c5.453-8.828 10.736-23.026 13.568-36.674l-1.958-.406Zm-13.002 37.396 1.792 1.152 1.082-1.682-1.792-1.152-1.082 1.682Zm2.913 1.125c9.492-6.761 18.169-17.005 24.505-29.547l-1.786-.902c-6.208 12.29-14.683 22.27-23.879 28.82l1.16 1.63Zm23.567-28.999c1.55.07 2.835-.208 3.851-.786a4.853 4.853 0 0 0 2.109-2.388l-1.846-.77a2.856 2.856 0 0 1-1.251 1.42c-.616.35-1.507.584-2.773.526l-.09 1.998Zm2.731 20.819-1.92.512.516 1.932 1.92-.512-.516-1.932Zm-2.658 1.567c1.41 15.764 5.669 31.205 20.86 37.068l.72-1.866c-13.993-5.4-18.182-19.656-19.588-35.38l-1.992.178Zm22.217 36.218c.31-3.73 1.2-6.11 2.647-7.739 1.45-1.633 3.585-2.656 6.701-3.404l-.466-1.944c-3.284.788-5.885 1.941-7.731 4.02-1.849 2.082-2.815 4.951-3.145 8.901l1.994.166Zm10.112-12.032.128-1.536-1.994-.166-.128 1.536 1.994.166Zm-.697-2.604c-9.445-1.648-15.904-4.353-20.226-8.047-4.295-3.67-6.571-8.395-7.502-14.292l-1.976.312c.989 6.263 3.449 11.459 8.178 15.5 4.702 4.018 11.555 6.817 21.182 8.497l.344-1.97ZM387.48 17.712h1.408v-2h-1.408v2Zm.42-1.154c-.889 5.712-3.179 15.505-5.331 21.58l1.886.668c2.2-6.213 4.518-16.131 5.421-21.94l-1.976-.308Zm-4.925 22.758 1.408.896 1.074-1.688-1.408-.896-1.074 1.688Zm2.556.843c5.713-4.414 12.434-11.524 16.324-16.84l-1.614-1.181c-3.79 5.179-10.381 12.15-15.932 16.439l1.222 1.582Zm15.622-16.436c1.209-.128 2.281-.262 3.173-.512.909-.255 1.718-.652 2.339-1.36l-1.506-1.317c-.275.315-.682.558-1.373.751-.708.198-1.62.32-2.843.448l.21 1.99Zm5.446-3.257L394.695 9.202l-1.374 1.452 11.904 11.264 1.374-1.452ZM393.287 9.235l-6.528 6.784 1.442 1.386 6.528-6.784-1.442-1.386Zm1.617 6.477h-31.36v2h31.36v-2Zm-32.322.725-1.023 3.584 1.923.55 1.024-3.584-1.924-.55Zm-.062 4.859h32.384v-2H362.52v2Zm33.384-1v-3.584h-2v3.584h2ZM293.331 1.818l-.896.64 1.162 1.628.896-.64-1.162-1.628Zm-1.055 2.127c3.754 4.13 7.73 10.872 8.714 16.771l1.972-.328c-1.064-6.39-5.28-13.47-9.206-17.789l-1.48 1.346Zm9.147 17.44c3.587 2.38 7.195 2.523 10.01 1.216 2.785-1.293 4.707-3.972 4.979-7.032.276-3.097-1.143-6.439-4.74-9.056-3.571-2.598-9.284-4.49-17.714-4.88l-.092 1.998c8.21.379 13.489 2.214 16.63 4.5 3.115 2.267 4.128 4.965 3.924 7.26-.208 2.332-1.678 4.397-3.829 5.396-2.121.985-4.993.968-8.062-1.068l-1.106 1.666Zm18.345 81.367h-22.784v2h22.784v-2Zm-23.784 1v3.712h2v-3.712h-2Zm1 4.712h22.784v-2h-22.784v2Zm23.784-1v-3.712h-2v3.712h2Zm-7.016-31.64h1.152v-2h-1.152v2Zm.152-1v40.704h2V74.824h-2Zm1 41.704h2.176v-2h-2.176v2Zm2.176 0c2.352 0 5.14-.751 7.324-1.605 1.1-.43 2.087-.902 2.824-1.348a6.32 6.32 0 0 0 .957-.688c.129-.118.261-.256.371-.412a1.48 1.48 0 0 0 .268-.663l-1.984-.248a.612.612 0 0 1 .08-.239c.002-.003-.019.025-.081.083a4.41 4.41 0 0 1-.647.457c-.611.37-1.488.794-2.516 1.196-2.072.81-4.596 1.467-6.596 1.467v2Zm11.752-4.84V80.2h-2v31.488h2Zm-.783-30.512c1.219-.27 2.293-.648 3.165-1.093.855-.436 1.589-.974 2.04-1.606l-1.628-1.162c-.189.264-.607.622-1.32.986-.696.355-1.606.682-2.691.923l.434 1.952Zm4.995-4.077-12.672-9.6-1.208 1.594 12.672 9.6 1.208-1.594Zm-14.011-9.48-6.016 6.527 1.47 1.356 6.016-6.528-1.47-1.356Zm-16.825 48.037V78.408h-2v37.248h2Zm-1-36.248h17.024v-2h-17.024v2Zm18.024-1v-3.584h-2v3.584h2Zm-1-4.584H301.72v2h16.512v-2Zm-16.127.077-13.184-5.504-.77 1.846 13.184 5.504.77-1.846Zm-14.569-4.581v50.304h2V69.32h-2Zm1 51.304h1.792v-2h-1.792v2Zm1.792 0c2.847 0 5.698-.742 7.839-1.628 1.07-.443 1.997-.937 2.676-1.419.337-.239.643-.497.876-.768.206-.239.489-.641.489-1.153h-2c0-.224.111-.286-.005-.151a2.983 2.983 0 0 1-.518.442c-.521.37-1.306.796-2.284 1.201-1.955.81-4.544 1.476-7.073 1.476v2Zm29.029-103.878-6.144 8.064 1.59 1.212 6.144-8.064-1.59-1.212Zm-5.349 7.67H284.44v2h29.568v-2Zm-30.53 1.275 1.024 3.584 1.924-.55-1.024-3.584-1.924.55ZM285.464 30h42.752v-2h-42.752v2Zm42.752 0c1.002 0 1.937-.177 2.707-.639.797-.478 1.331-1.212 1.586-2.146l-1.93-.526c-.129.474-.363.764-.685.957-.351.211-.888.354-1.678.354v2Zm4.002-3.787c-2.195-2.001-5.058-4.414-7.365-6.32a397.676 397.676 0 0 0-3.763-3.07l-.232-.187a2.767 2.767 0 0 1-.06-.048l-.016-.013-.004-.003h-.001l-.625.78-.625.78.001.001.004.004a.318.318 0 0 0 .015.012l.059.047.23.185a365.851 365.851 0 0 1 3.743 3.054c2.301 1.902 5.134 4.289 7.291 6.256l1.348-1.478Zm-14.909 23.813-5.76 7.552 1.59 1.212 5.76-7.552-1.59-1.212Zm-4.965 7.158h-23.04v2h23.04v-2ZM288.34 58.45l1.024 3.712 1.928-.532-1.024-3.712-1.928.532Zm1.988 4.446h35.328v-2h-35.328v2Zm35.328 0c.95 0 1.875-.181 2.648-.632a3.502 3.502 0 0 0 1.645-2.153l-1.93-.526a1.501 1.501 0 0 1-.723.951c-.379.221-.926.36-1.64.36v2Zm4.012-3.778c-2.072-1.942-4.812-4.262-7.023-6.089a292.048 292.048 0 0 0-3.618-2.94l-.223-.178-.059-.047a.168.168 0 0 0-.015-.012l-.003-.003h-.002l-.621.783-.621.784h.001l.004.003.014.012.057.045.221.176.821.659c.697.562 1.67 1.351 2.77 2.26 2.205 1.821 4.905 4.109 6.929 6.007l1.368-1.46Zm-12.359-25.605-5.76 7.553 1.59 1.212 5.76-7.552-1.59-1.212Zm-4.965 7.159h-23.04v2h23.04v-2Zm-24.004 1.266 1.024 3.712 1.928-.532-1.024-3.712-1.928.532Zm1.988 4.446h35.328v-2h-35.328v2Zm35.328 0c.95 0 1.875-.181 2.648-.632a3.502 3.502 0 0 0 1.645-2.153l-1.93-.526a1.501 1.501 0 0 1-.723.951c-.379.221-.926.36-1.64.36v2Zm4.024-3.766c-2.079-2.014-4.826-4.34-7.038-6.152a225.767 225.767 0 0 0-3.623-2.9l-.224-.176-.059-.045a.18.18 0 0 0-.015-.012l-.004-.003h-.001l-.612.79-.612.791h.001l.004.003.014.011.056.044.221.172.819.645a209.34 209.34 0 0 1 2.767 2.228c2.204 1.804 4.897 4.086 6.914 6.04l1.392-1.436ZM509.976 7.24l.923.385.417-1.001-1.031-.335-.309.951ZM490.648.968l.309-.951-1.059-.344-.229 1.09.979.205Zm-18.56 51.968-.873-.489-.468.838.817.503.524-.852Zm1.664 1.024-.524.852.609.375.552-.456-.637-.771ZM504.856 9.8v-1h-.656l-.261.602.917.398Zm21.248 13.568-.724-.69-1.609 1.69h2.333v-1Zm1.536 0 1 .005.005-1.005h-1.005v1Zm-4.608 79.232-.718-.696-.013.013-.012.014.743.669Zm-22.528.512.108-.994-1.036-.113-.07 1.04.998.067Zm-.128 1.92-.998-.067-.059.886.873.164.184-.983Zm13.568 5.376-.707.707.011.012.012.011.684-.73Zm2.688 10.24-1-.028-.028 1.028h1.028v-1Zm17.792-6.784.747.664.008-.008.008-.009-.763-.647Zm7.168-84.48-.135-.99-.859.116-.006.867 1 .007Zm5.504-2.432.789.614.58-.745-.71-.622-.659.753Zm-13.312-11.648.659-.753-.722-.63-.661.693.724.69Zm.128 8.064h1v-1h-1v1Zm-40.32 0v-1h-.628l-.273.565.901.435ZM491.8 27.08l-.901-.435-.692 1.435h1.593v-1Zm42.112 0v1h1v-1h-1Zm-19.456 34.816h1v-1h-1v1Zm-24.704 0v-1h-1v1h1Zm0 3.712h-1v1h1v-1Zm24.704 0v1h1v-1h-1Zm.256 16.768h1v-1h-1v1Zm-24.704 0v-1h-1v1h1Zm0 3.712h-1v1h1v-1Zm24.704 0v1h1v-1h-1Zm-8.576-43.392-.743-.67-1.506 1.67h2.249v-1Zm1.28 0h1v-1h-1v1Zm0 50.176h-1v1h1v-1Zm12.032-3.2.986.164.014-.081v-.083h-1Zm0-41.216-.187-.982-.813.155v.827h1Zm5.376-2.688.8.6.6-.8-.8-.6-.6.8Zm-12.8-9.6.6-.8-.731-.548-.612.678.743.67Zm-16.256 10.24v-1h-1v1h1Zm17.536 0v1h1v-1h-1Zm0-3.712h1v-1h-1v1Zm-17.024 0-.384.923.184.077h.2v-1Zm-12.928-5.376.384-.923-1.384-.576v1.499h1Zm0 60.288h-1v1h1v-1Zm-42.88-95.744.049-.999-.313-.015-.266.166.53.848Zm-1.024.64-.53-.848-1.032.645.833.888.729-.685Zm8.96 17.792-.99.139.062.442.37.249.558-.83Zm17.664 84.096h1v-1h-1v1Zm-25.088 0v-1h-1v1h1Zm0 3.712h-1v1h1v-1Zm25.088 0v1h1v-1h-1Zm-8.192-32.128-.734-.68-1.555 1.68h2.289v-1Zm1.28 0h1v-1h-1v1Zm0 39.936h-1v1h1v-1Zm13.44-3.84.99.141.01-.07v-.071h-1Zm0-30.464-.206-.979-.794.168v.811h1Zm4.864-2.432.814.581.562-.786-.767-.589-.609.794ZM464.28 69.064l.609-.793-.724-.555-.619.669.734.679ZM446.104 79.56v-1h-1v1h1Zm18.944 0v1h1v-1h-1Zm0-3.584h1v-1h-1v1Zm-18.56 0-.383.924.184.076h.199v-1Zm-13.568-5.632.383-.924-1.383-.574v1.498h1Zm0 49.664h-1v1h1v-1Zm35.072-102.656.617-.787-.797-.624-.614.803.794.608Zm-6.656 8.704v1h.494l.3-.393-.794-.607Zm-35.968 0v-1h-1.313l.349 1.266.964-.266Zm1.024 3.712-.964.266.202.734h.762v-1Zm53.888-2.048.984.179.097-.534-.394-.372-.687.727Zm-17.536 22.912.62-.785-.788-.621-.619.789.787.617Zm-6.528 8.32v1h.486l.301-.383-.787-.617Zm-25.216 0v-1h-1.313l.349 1.266.964-.266Zm1.024 3.712-.964.266.203.734h.761v-1Zm42.368-2.048.984.179.095-.525-.383-.372-.696.718ZM462.744 34.12l.62-.785-.788-.621-.619.789.787.617Zm-6.528 8.32v1h.486l.301-.383-.787-.617Zm-25.216 0v-1h-1.326l.364 1.275.962-.275Zm1.024 3.584-.962.275.208.725h.754v-1Zm42.368-2.048.984.179.097-.535-.396-.372-.685.728Zm35.893-37.687L490.957.017l-.618 1.902 19.328 6.272.618-1.902ZM489.669.763c-3.951 18.862-11.343 38.988-18.454 51.684l1.746.978c7.225-12.904 14.681-33.227 18.666-52.252l-1.958-.41Zm-18.105 53.025 1.664 1.024 1.048-1.704-1.664-1.024-1.048 1.704Zm2.825.943c12.699-10.496 23.406-26.13 31.384-44.533l-1.834-.796c-7.894 18.206-18.435 33.547-30.824 43.787l1.274 1.542ZM504.856 10.8c1.58 0 2.877-.274 3.898-.824a4.654 4.654 0 0 0 2.145-2.351l-1.846-.77a2.658 2.658 0 0 1-1.247 1.36c-.643.347-1.586.585-2.95.585v2Zm21.248 13.568h1.536v-2h-1.536v2Zm.536-1.005c-.128 23.687-.256 42.416-.863 55.752-.303 6.67-.726 11.959-1.321 15.83-.298 1.938-.636 3.493-1.013 4.676-.386 1.209-.78 1.923-1.129 2.283l1.436 1.392c.675-.696 1.185-1.77 1.598-3.067.422-1.322.778-2.99 1.084-4.979.613-3.98 1.039-9.355 1.343-16.044.609-13.385.737-32.16.865-55.833l-2-.01Zm-4.351 78.568c-.503.559-.917.857-1.423 1.041-.538.196-1.261.292-2.442.292v2c1.251 0 2.256-.096 3.126-.412.902-.328 1.576-.862 2.225-1.583l-1.486-1.338Zm-3.865 1.333c-3.026 0-11.949-.509-17.812-1.146l-.216 1.988c5.913.643 14.91 1.158 18.028 1.158v-2Zm-18.918-.219-.128 1.92 1.996.134.128-1.92-1.996-.134Zm.686 2.97c3.026.567 5.78 1.32 8.044 2.205 2.284.891 3.991 1.886 5.001 2.895l1.414-1.414c-1.294-1.295-3.299-2.412-5.687-3.345-2.408-.939-5.286-1.722-8.404-2.307l-.368 1.966Zm13.068 5.123c.836.783 1.469 1.99 1.873 3.622.404 1.628.562 3.612.499 5.86l2 .056c.065-2.36-.097-4.536-.557-6.396-.46-1.856-1.235-3.465-2.447-4.602l-1.368 1.46Zm3.372 10.51c8.261 0 14.202-2.24 18.539-7.12l-1.494-1.328c-3.855 4.336-9.179 6.448-17.045 6.448v2Zm18.555-7.137c1.753-2.07 3.023-5.167 3.978-9.359.959-4.208 1.623-9.623 2.097-16.418.946-13.59 1.138-32.86 1.33-59.343l-2-.014c-.192 26.508-.384 45.704-1.326 59.218-.47 6.756-1.126 12.053-2.051 16.113-.929 4.076-2.107 6.803-3.554 8.509l1.526 1.294Zm6.54-84.136c2.924-.399 5.028-1.356 6.158-2.81l-1.578-1.227c-.662.85-2.143 1.686-4.85 2.055l.27 1.982Zm6.028-4.176-13.312-11.648-1.318 1.506 13.313 11.648 1.317-1.506ZM533.06 14.614l-7.68 8.064 1.448 1.38 7.68-8.064-1.448-1.38Zm.852 7.754h-40.32v2h40.32v-2Zm-41.221.565-1.792 3.712 1.802.87 1.792-3.712-1.802-.87Zm-.891 5.147h42.112v-2H491.8v2Zm43.112-1v-3.712h-2v3.712h2Zm-20.456 33.816h-24.704v2h24.704v-2Zm-25.704 1v3.712h2v-3.712h-2Zm1 4.712h24.704v-2h-24.704v2Zm25.704-1v-3.712h-2v3.712h2Zm-.744 15.768h-24.704v2h24.704v-2Zm-25.704 1v3.712h2v-3.712h-2Zm1 4.712h24.704v-2h-24.704v2Zm25.704-1v-3.712h-2v3.712h2Zm-9.576-42.392h1.28v-2h-1.28v2Zm.28-1v50.176h2V42.696h-2Zm1 51.176h1.92v-2h-1.92v2Zm1.92 0c2.146 0 4.765-.648 6.826-1.368 1.039-.363 1.974-.757 2.673-1.121.345-.18.661-.368.909-.556a2.44 2.44 0 0 0 .368-.337c.099-.114.27-.337.322-.654l-1.972-.328c.02-.12.06-.205.085-.25a.465.465 0 0 1 .055-.079c.009-.011-.005.008-.067.054-.121.092-.327.22-.626.376-.589.308-1.43.666-2.407 1.007-1.971.688-4.344 1.256-6.166 1.256v2Zm11.112-4.2V48.456h-2v41.216h2Zm-.813-40.234c2.82-.537 5.015-1.77 5.989-3.07l-1.6-1.2c-.562.749-2.207 1.819-4.763 2.306l.374 1.964Zm5.789-4.47-12.8-9.6-1.2 1.6 12.8 9.6 1.2-1.6Zm-14.143-9.47-5.888 6.528 1.486 1.34 5.888-6.528-1.486-1.34Zm-14.513 58.014V46.408h-2v47.104h2Zm-1-46.104h17.536v-2h-17.536v2Zm18.536-1v-3.712h-2v3.712h2Zm-1-4.712H496.28v2h17.024v-2Zm-16.64.077-12.928-5.376-.768 1.846 12.928 5.376.768-1.846Zm-14.312-4.453v60.288h2V37.32h-2Zm1 61.288h1.92v-2h-1.92v2Zm1.92 0c2.85 0 5.612-.743 7.669-1.654 1.027-.454 1.914-.966 2.562-1.476.322-.254.613-.53.833-.82.205-.273.432-.67.432-1.146h-2c0-.156.067-.186-.029-.059a2.679 2.679 0 0 1-.474.453c-.48.378-1.209.81-2.134 1.22-1.847.817-4.333 1.482-6.859 1.482v2Zm-45.33-97.592-1.024.64 1.06 1.696 1.024-.64-1.06-1.696Zm-1.223 2.173c3.862 4.111 7.838 11.097 8.699 17.246l1.98-.278c-.931-6.65-5.147-14.001-9.221-18.338l-1.458 1.37Zm9.131 17.937c3.68 2.476 7.376 2.648 10.265 1.32 2.858-1.312 4.83-4.056 5.128-7.191.302-3.172-1.114-6.61-4.752-9.316-3.614-2.686-9.409-4.652-17.97-5.074l-.098 1.998c8.335.41 13.692 2.316 16.874 4.682 3.158 2.347 4.182 5.14 3.956 7.52a6.866 6.866 0 0 1-3.972 5.564c-2.187 1.005-5.147.969-8.315-1.163l-1.116 1.66Zm18.222 82.266h-25.088v2h25.088v-2Zm-26.088 1v3.712h2v-3.712h-2Zm1 4.712h25.088v-2h-25.088v2Zm26.088-1v-3.712h-2v3.712h2Zm-9.192-31.128h1.28v-2h-1.28v2Zm.28-1v39.936h2V75.976h-2Zm1 40.936h2.304v-2h-2.304v2Zm2.304 0c2.479 0 5.363-.783 7.609-1.651 1.131-.438 2.137-.912 2.884-1.347.371-.216.704-.438.963-.657a2.59 2.59 0 0 0 .374-.38 1.42 1.42 0 0 0 .296-.664l-1.98-.282a.727.727 0 0 1 .066-.218c.02-.04.037-.061.039-.064.002-.003-.02.025-.088.082a4.927 4.927 0 0 1-.676.455c-.633.369-1.539.799-2.6 1.209-2.138.828-4.758 1.517-6.887 1.517v2Zm12.136-4.84V81.608h-2v30.464h2Zm-.794-29.486c1.296-.272 2.439-.685 3.359-1.162.899-.467 1.663-1.037 2.113-1.667l-1.628-1.162c-.19.266-.642.656-1.407 1.053-.744.387-1.713.742-2.849.981l.412 1.957Zm5.267-4.204L464.889 68.27l-1.218 1.588 13.184 10.111 1.218-1.587Zm-14.527-9.997-6.4 6.912 1.468 1.358 6.4-6.912-1.468-1.358Zm-16.442 47.399V79.56h-2v36.224h2Zm-1-35.224h18.944v-2h-18.944v2Zm19.944-1v-3.584h-2v3.584h2Zm-1-4.584h-18.56v2h18.56v-2Zm-18.177.076-13.568-5.632-.766 1.848 13.568 5.632.766-1.848Zm-14.951-4.708v49.664h2V70.344h-2Zm1 50.664h1.92v-2h-1.92v2Zm1.92 0c2.914 0 5.863-.775 8.084-1.71 1.111-.468 2.076-.991 2.783-1.506.351-.255.668-.531.909-.821.218-.263.488-.676.488-1.187h-2c0-.191.09-.232-.028-.089-.096.116-.272.28-.547.481-.545.397-1.364.85-2.381 1.278-2.035.857-4.718 1.554-7.308 1.554v2Zm32.358-104.263-6.656 8.704 1.588 1.214 6.656-8.704-1.588-1.215Zm-5.862 8.311h-35.968v2h35.968v-2Zm-36.932 1.266 1.024 3.712 1.928-.532-1.024-3.712-1.928.532Zm1.988 4.446h50.432v-2h-50.432v2Zm50.432 0c.999 0 1.983-.176 2.788-.62.835-.462 1.463-1.212 1.652-2.25l-1.968-.357c-.067.37-.271.645-.652.856-.411.227-1.027.371-1.82.371v2Zm4.143-3.775c-2.331-2.201-5.425-4.811-7.925-6.862a306.517 306.517 0 0 0-4.091-3.297l-.253-.2a320.515 320.515 0 0 1-.083-.065l-.005-.003h-.001v-.001l-.617.787-.617.787h.001l.001.001.004.003.016.013.064.05.25.198a295.332 295.332 0 0 1 4.063 3.273c2.492 2.045 5.542 4.619 7.819 6.77l1.374-1.454Zm-19.01 23.022-6.528 8.32 1.574 1.234 6.528-8.32-1.574-1.234Zm-5.741 7.937H431v2h25.216v-2Zm-26.18 1.266 1.024 3.712 1.928-.532-1.024-3.712-1.928.532Zm1.988 4.446h39.04v-2h-39.04v2Zm39.04 0c.999 0 1.961-.176 2.744-.632a3.18 3.18 0 0 0 1.568-2.237l-1.968-.358a1.181 1.181 0 0 1-.608.867c-.369.216-.943.36-1.736.36v2Zm4.024-3.766c-2.204-2.14-5.141-4.656-7.513-6.627a261.49 261.49 0 0 0-2.996-2.452c-.377-.304-.681-.547-.89-.713l-.241-.192-.062-.05-.017-.012-.004-.004h-.001l-.62.784-.62.785h.001l.004.004.016.012.061.048.237.189a255.509 255.509 0 0 1 3.854 3.14c2.364 1.964 5.251 4.44 7.399 6.524l1.392-1.436Zm-13.131-26.395-6.528 8.32 1.574 1.234 6.528-8.32-1.574-1.234Zm-5.741 7.937H431v2h25.216v-2Zm-26.178 1.275 1.024 3.584 1.924-.55-1.024-3.584-1.924.55Zm1.986 4.309h39.04v-2h-39.04v2Zm39.04 0c.999 0 1.961-.176 2.744-.632a3.18 3.18 0 0 0 1.568-2.237l-1.968-.358a1.181 1.181 0 0 1-.608.867c-.369.216-.943.36-1.736.36v2Zm4.013-3.776c-2.201-2.072-5.134-4.553-7.505-6.508a302.782 302.782 0 0 0-3.883-3.147l-.241-.191a2.314 2.314 0 0 0-.063-.05l-.016-.012-.004-.004h-.001l-.62.784-.62.785h.002l.003.004.016.012.061.048.237.189a273.481 273.481 0 0 1 3.857 3.126c2.365 1.949 5.256 4.396 7.407 6.42l1.37-1.456Z" fill="#B04B19"/></svg>