<svg width="188" height="53" fill="none" xmlns="http://www.w3.org/2000/svg"><g clip-path="url(#a)" fill="#fff"><path d="m36.242 31.915 19.145-5.217s-3.184-2.022-7.029-1.426c-.922.145-3.472.704-6.81 1.468 1.024-2.344 2.016-5.511 2.016-5.511s4.04-12.527 4.752-15.984c.712-3.452-8.001-2.017-11.25-1.62-3.25.395-9.105 3.241-9.11 3.241-1.191-.521-2.341-1.062-2.7-1.416-.79-.792-3.565-4.756-8.08-1.108h.396s2.22 4.597 4.436 4.914c2.22.317 4.277.159 3.011 2.618-1.266 2.46-3.258 8.088-3.528 6.504-.275-1.584-3.998-8.325-5.027-7.533-1.029.792-.95 5.711-.396 7.216.554 1.505-1.266 5.152-1.187 6.424.08 1.267-.791 5.548 2.062 4.519 2.854-1.03 4.515-3.965 7.29-8.404 2.774-4.44 2.14-6.741 4.119-8.404 1.294-1.086 2.244-2.171 2.644-2.93l.205.074s2.457-.475 2.378.396c-.079.871-1.582 2.935-3.803 3.727-2.22.792-.474 2.301.159 2.53.633.232.633 1.434.633 1.434s-2.3 1.663-3.645 2.38c-1.345.714.712 4.203 1.504 6.504.33.955 1.07.95 1.82.62V29.4a3899.297 3899.297 0 0 0-17.707 4.267l-.359-.596s-2.14-3.448-5.227-.298c-3.09 3.153-5.585 7.91-1.247 6.899 3.584-.834 19.22-4.798 24.54-6.15v7.696s-.238 2.735-2.02 2.917c-1.784.177-3.98-.536-4.162-.597-.037-.014-.163.052-.335.163.237-.354.414-.74.512-1.169.535-2.385 1.573-5.422-1.243-4.225 0 0-2.5 1.346-4.222 1.505-1.722.158-4.873.097-4.399 2.417.475 2.32 2.332 4.994 4.288 4.459 1.121-.308 2.615-.848 3.788-1.706-.116.27-.07.513.303.634 1.247.415 5.218 2.38 6.619 4.22 1.401 1.84 3.72 3.686 4.967 3.033 1.247-.652 2.671-.475 2.378-5.413-.186-3.102-.372-10.486-.489-15.536l.01-.005Zm2.746-20.977c.475-.652 1.07-4.519 1.07-4.519.08-.503 2.081-.298 2.617 0 .535.298-.121 3.63-.713 5.768-.595 2.142-2.02 1.96-3.207 1.663-1.187-.299-.237-2.26.238-2.917l-.005.005Zm-2.239 7.197c.712-.554 3.724 0 3.724 0s.237 3.648-3.09 2.618c-.54-.167-.792-.633-.792-.633s-.554-1.426.158-1.985Zm-.614 8.623s-1.07-1.667-3.538-1.845c.363-.782 1.108-2.366 1.303-2.734.126-.242.824-.35 1.327-.764-.28.918.177 2.273.177 2.273s1.499 2.195 2.807 3.825c-.67.154-1.355.317-2.053.48l-.023-1.235Z"/><path d="M51.109 37.762c-4.04-2.083-7.843-5.232-12.06-1.547 0 0 4.515 6.461 8.14 6.173 3.627-.285 7.965-2.548 3.925-4.626h-.005ZM144.744 23.134s3.09 8.851 3.09 11.381c0 2.53-.949 6.457-.949 6.457s1.661 5.352 3.328 5.115c1.666-.238 12.717-2.618 12.717-2.618s10.696-2.143 12.479-2.143c1.783 0 3.682.596 1.904 2.022-1.778 1.425-.95 1.784.712 3.33 1.662 1.547 3.091 1.906 4.394 1.664 1.303-.243 4.04-2.26 4.399-2.735.358-.475 1.187-20.721 1.187-20.721s-4.278-6.876-7.727-5.926c-3.449.95-.95 9.159-.95 9.159l.596 5.52-9.51.867V15.988s4.515-7.845.475-10.58c-4.04-2.734-11.171-6.605-10.575-2.59.595 4.016 2.141 32.205 2.141 32.205s-8.914 3.21-8.793 1.663c.121-1.547 1.545-9.038-.121-10.584-1.666-1.547-2.141-3.093-8.793-2.972l-.004.004Z"/><path fill-rule="evenodd" clip-rule="evenodd" d="M99.03 44.14c.712-.811 1.391-1.654 2.145-2.428 2.188-2.255 4.236-4.602 5.269-7.644.675-1.985 1.355-3.97 1.937-5.982.419-1.44.023-2.818-.768-4.044-.228-.349-.871-.806-1.103-.703-.578.252-1.294.703-1.485 1.244-.596 1.686-1.029 3.438-1.425 5.19-.498 2.203-.903 4.425-1.582 6.643-.028-.28-.056-.564-.103-.988-1.219 1.043-.842 3.06-2.732 3.848 1.131-3.802 2.937-7.137 3.156-10.915-2.746 6.186-3.952 13.044-7.964 18.662a28.452 28.452 0 0 0-.34-.126c.06-.27.098-.554.186-.815 2.328-6.564 4.645-13.137 7.01-19.692.61-1.695.871-3.568 2.532-4.78.522-.377.68-1.252 1.015-1.919-1.126-1.188-2.271-2.324-3.333-3.535-1.01-1.146-1.931-2.367-3.025-3.713-.038 1.192-.191 2.413.48 3.461.832 1.3 1.842 2.483 2.964 3.96-1.14.28-2.132.573-3.142.717-.144.019-.656-.848-.549-1.02.568-.904.228-1.402-.433-2.082-.451-.466-.53-1.3-.73-1.985-.136-.466-.187-.955-.275-1.435-.126-.01-.252-.018-.377-.032-.82 3.158-1.504 6.359-2.5 9.461-1.005 3.117-2.323 6.126-3.663 9.21.112-.834.102-1.7.349-2.488.838-2.697 1.815-5.348 2.63-8.05.447-1.481.66-3.032.982-4.551-.19-.08-.386-.163-.577-.242-.242.4-.587.768-.712 1.202-.987 3.41-1.876 6.852-2.9 10.248-1.336 4.426-2.663 8.907-5.698 12.527-1.336 1.589-3.077 2.837-4.631 4.244-.13-.116-.256-.238-.387-.354.415-.545.764-1.165 1.262-1.621 4.175-3.839 6.619-8.642 7.969-14.078.372-1.496.158-2.88-.666-4.17-.782-1.225-1.708-1.285-2.411-.009-.526.95-.852 2.045-1.103 3.117-.73 3.107-1.378 6.228-2.211 9.354l-.172-1.132c-1.071 1.006-.712 2.944-2.626 3.494 1.262-3.54 2.723-6.83 3.142-10.43-2.816 6.13-3.993 12.973-8.025 18.55l-.33-.14c.568-1.286 1.234-2.544 1.69-3.871 2.03-5.95 3.984-11.926 5.99-17.884.429-1.272.731-2.586 1.997-3.457.722-.498.978-1.342.033-2.143a36.8 36.8 0 0 1-3.207-3.112c-.442-.475-.68-1.141-.992-1.733-.223-.42-.414-.857-.8-1.225-.159 1.463-.391 2.832.856 4.072.87.861 1.396 2.073 2.216 3.335-1.006.252-2.03.657-3.077.722-.824.051-.782-.722-.414-1.206.526-.695.242-1.072-.228-1.636-.438-.526-.67-1.248-.894-1.914-.19-.578-.242-1.207-.354-1.808h-.34c-.828 3.187-1.54 6.41-2.527 9.546-.973 3.093-2.23 6.098-3.556 9.126.242-1.3.381-2.632.75-3.9.893-3.079 1.907-6.125 2.834-9.195.19-.63.181-1.319.265-1.98-.144-.07-.293-.135-.437-.205-.298.47-.722.903-.866 1.42-.894 3.168-1.662 6.373-2.598 9.527-1.261 4.267-2.471 8.604-5.143 12.247-1.327 1.808-3.123 3.266-4.71 4.878-.159-.135-.322-.266-.48-.4.377-.513.74-1.04 1.131-1.538 1.597-2.054 3.514-3.937 4.715-6.2 1.346-2.54 2.165-5.386 2.97-8.171.28-.974-.019-2.204-.335-3.229-.177-.578-1.117-1.463-1.383-1.36-.698.27-1.49.904-1.75 1.584-.544 1.425-.805 2.963-1.122 4.472-.484 2.297-.912 4.602-1.62 6.885-.013-.242-.023-.484-.032-.727-.07-.032-.14-.07-.21-.102-.563 1.104-1.126 2.213-1.684 3.317-.159-.065-.322-.135-.48-.2 1.033-3.364 2.067-6.732 3.105-10.096-.163-.05-.321-.102-.48-.153-2.634 6.07-3.621 12.815-7.508 18.406.107-.373.21-.75.326-1.123 2.286-7.086 4.552-14.176 6.898-21.243.303-.913 1.076-1.668 1.56-2.534.582-1.04 1.098-2.11 1.62-3.177.284-.578.488-1.188.777-1.761.39-.764.917-.82 1.28-.023.512 1.122.88 2.31 1.368 3.442.29.67.69 1.29 1.192 2.208.53-1.84.782-3.377 1.401-4.742 1.406-3.103 2.993-6.126 4.506-9.182.321-.648.6-1.328.987-1.933.703-1.11 1.243-1.184 2.071-.14.82 1.03 1.527 2.161 2.178 3.307 1.057 1.85 2.025 3.75 3.05 5.614.13.238.404.4.725.703.252-.521.406-.964.657-1.341.195-.294.512-.718.759-.713.27.01.628.405.772.713.666 1.43 1.262 2.893 1.913 4.328.13.284.373.517.666.917.451-1.49.75-2.823 1.257-4.071.689-1.691 1.508-3.327 2.318-4.966 1-2.031 2.062-4.035 3.077-6.061.917-1.83 1.694-2.013 2.806-.335 1.285 1.952 2.258 4.104 3.417 6.144.666 1.174 1.424 2.297 2.23 3.583.321-.34.47-.471.581-.62.815-1.076 1.183-1.053 1.709.154.707 1.626 1.387 3.265 2.08 4.9h.345c.144-.451.298-.903.437-1.36.815-2.697 1.588-5.38 3.166-7.798 1.061-1.635 1.726-3.522 2.574-5.302.149-.307.274-.628.456-.917.689-1.11 1.326-1.258 2.043-.205 1.718 2.534 3.407 5.11 4.883 7.793 2.7 4.906 5.218 9.904 7.853 14.847.926 1.733 1.959 3.405 2.951 5.106.13.219.251.456.433.629 1.159 1.085 1.894 2.469 2.792 3.745 2.691 3.825 5.74 7.365 10.446 8.926.842.28 1.931.433 2.388 1.7-2.565-.181-4.865-.624-6.768-2.254-4.944-4.235-8.952-9.262-12.242-14.847-1.448-2.46-2.593-5.097-3.92-7.63-.907-1.738-1.931-3.416-2.839-5.149-.964-1.84-1.853-3.722-2.909-5.87v1.934c-1.913-.969-2.691-2.655-3.515-4.388-.246 1.267-.456 2.492.308 3.62.847 1.243 1.726 2.464 2.802 3.996-1.173.233-2.169.457-3.175.587-.088.01-.47-.75-.358-.922.596-.932.251-1.495-.438-2.213-.419-.438-.475-1.239-.656-1.886-.135-.48-.205-.979-.303-1.468-.111-.01-.218-.023-.33-.033-.819 3.154-1.518 6.345-2.495 9.448-.992 3.14-2.253 6.196-3.482 9.508.172-5.567 3.598-10.165 3.794-15.499l-.396-.224c-.265.396-.651.76-.777 1.193-.926 3.247-1.75 6.527-2.709 9.764-1.201 4.053-2.518 8.06-4.683 11.75-1.443 2.468-3.691 3.973-5.907 5.561l-.298-.298-.028-.014Z"/></g><defs><clipPath id="a"><path fill="#fff" d="M0 0h188v53H0z"/></clipPath></defs></svg>