<svg width="278" height="57" fill="none" xmlns="http://www.w3.org/2000/svg"><g clip-path="url(#a)" fill="#fff"><path d="M139 57c-17.663 0-34.279-2.872-46.788-8.082-12.704-5.294-19.695-12.401-19.695-20.024 0-7.622 6.996-14.73 19.695-20.024C104.721 3.66 121.337.79 139 .79c17.663 0 34.279 2.871 46.788 8.081 12.704 5.294 19.695 12.402 19.695 20.024 0 7.623-6.996 14.73-19.695 20.024C173.279 54.128 156.663 57 139 57Zm0-54.82c-35.889 0-65.088 11.984-65.088 26.714 0 14.73 29.199 26.714 65.088 26.714 35.888 0 65.092-11.984 65.092-26.714 0-14.73-29.204-26.714-65.092-26.714Z"/><path d="M181.769 40.897H96.236v.56h85.533v-.56ZM122.57 46.501c-.358-.079-.958-.083-1.693-.037.037-.408.037-.77-.024-1.03-.232-.988-.669-2.324-2.767-1.22 0 0 1.107 1.248 1.018 2.092-.009.093-.018.21-.028.33-.828.102-1.698.227-2.507.357.019-.241.042-.455.065-.626.177-1.22.479-2.7-2.605-2.06 0 0-.451.663.512 1.215 0 0 .093.882.167 1.782-.916.162-1.525.278-1.525.278s-1.163-.696-1.01-.153c.154.543 1.084 1.624 1.554 1.434.191-.08.577-.274 1.056-.483.009.144.014.278.018.395.028.988-.293 3.804 2.182 4.212 2.475.408 4.103.06 4.484-.176.377-.232.642-1.54-.786-1.596-1.428-.06-3.698.608-3.958.028-.186-.413-.238-2.093-.191-3.466.218-.051.437-.093.646-.116a21.7 21.7 0 0 1 1.829-.102c-.079.849-.21 1.707-.507 1.652-.466-.088-1.573-.436-1.512-.177.06.26.786.989.93 1.392.144.408 1.456.988 2.01-.292.288-.664.59-1.642.781-2.566.507.024.898.065 1.051.13.466.195 2.517-.816.815-1.201l-.005.004ZM128.51 43.523s.931 1.043-.042 2.514c-.972 1.47-3.377 5.191-2.949 6.235.428 1.044 1.786 1.123 1.903.195.116-.928.581-3.173 1.279-3.563.698-.39 2.368-1.239 2.289.58-.08 1.819.269 4.143 1.707 3.832 1.437-.31 2.251-1.16 2.409-1.702.154-.543.428-1.74-.428-.696-.855 1.044-1.744 1.123-1.939 0-.196-1.123-.275-3.095-1.749-3.095-1.475 0-2.564-.116-1.396-1.007 1.163-.89 2.717-3.252-1.084-3.289v-.005ZM145.075 44.886s-.725.785-1.484.464c-.753-.32-1.191.669-.349.9.847.233 2.098-.287 1.135.933-.958 1.22-1.977 5.284.117 6.068 2.098.785 4.219.928 5.093-.375.875-1.309.931-3.429.582-4.296-.349-.873-.465-1.281-.465-1.281s.725.756.991 1.16c.26.408 1.065.928 1.395.728.2-.125.642-.524-.349-1.684s-1.688-3.02-2.414-2.816c-.726.204-.726.552-.293 2.176.437 1.628.437 4.876-1.047 5.08-1.484.204-3.903.116-3.205-2.236.698-2.352 2.707-3.688 2.154-4.352-.554-.668-1.172-.937-1.861-.464v-.005ZM159.045 44.075s.381 1.015-.089 1.74c-.465.723-3.321 5.284-3.289 5.952.028.668 1.224 2.904 1.982.607.758-2.296 1.865-3.92 2.647-3.716.786.204.726 1.86.846 2.932.117 1.077 1.308 2.673 2.503 1.8 1.191-.872 2.214-3.252 1.279-2.352-.93.9-2.065 1.336-2.098.232-.027-1.104-.26-2.719-.823-3.066-.586-.362-1.94-.242-2.349-.093-.409.144-.465-.552.26-1.22.731-.669 1.573-1.856.875-2.353-.698-.491-1.047-.723-1.749-.463h.005ZM127.231 10.596c-3.377-2.208-4.601-.232-5.471 1.508-.874 1.745-.232 8.824 0 9.697.233.872-2.27 1.568-2.563 1.336-.293-.232-.176-5.345-.293-8.94-.116-3.6-.172-6.62-3.2-6.792-3.028-.177-4.484 2.788-2.447 3.832l.698.524s.642 13.645.232 14.23c-.409.579-2.563 2.263-2.619.347-.06-1.916.814-9.06-.93-9.928-1.744-.873-1.047-2.148-1.34-4.125-.288-1.976-3.205-6.04-6.815-3.772 0 0-1.572 2.905-.581 3.716.991.812 1.34 2.38-.465 5.285-1.805 2.9-4.833 6.968-2.27 8.884 2.563 1.916 2.907.752 2.735 4.992-.172 4.24 1.4 6.913 2.968 6.157 1.572-.756 1.744-.756 1.512-6.505-.233-5.748.176-10.629.697-11.032.526-.408 1.629-.524 1.456 1.336-.172 1.86-.525 8.824.177 10.569.698 1.744 2.68 3.716 4.136 3.02 1.456-.696 4.54-2.904 5.414-1.977.875.928 5.299 3.6 6.932 3.6 1.632 0 4.656-.408 4.368-7.371-.289-6.969 1.046-16.378-2.331-18.581v-.01Zm-4.754 20.808c-.777.116-2.796-.659-2.796-.659.661-1.043 2.987-1.934 4.112-1.781 1.126.153-.544 2.324-1.321 2.44h.005Zm1.842-9.715-1.689.06s-.349-7.52-.028-9.088c.321-1.568 1.34-.524 1.34-.524 1.572 2.292.377 9.552.377 9.552ZM173.284 11.079c-1.01-1.081-5.55-4.607-10.402-2.71-4.852 1.898-7.959 3.443-8.461 3.68-.503.231-.698.037-1.591-.622-.893-.66-3.029-2.05-4.191-.153 0 0-.312 1.47.697 2.05 1.01.58.777 1.666.893 3.832.117 2.167 1.903 6.194 5.783 5.614 3.879-.58 8.112-2.166 12.187-1.55 4.075.618 5.471.543 5.703-.58.233-1.122.079-1.665-.428-2.087-.502-.427.74-1.392.931-2.904.195-1.508-.117-3.485-1.126-4.57h.005Zm-9.178 6.56c-.814.102-5.531.793-7.159 1.452-1.629.659-1.745.617-2.638-.158-.893-.774-.27-3.02-.27-3.02.428-.31 2.368-.079 4.271-.348 1.902-.274 3.456-1.201 6.754-2.983 3.298-1.782 3.298-.775 3.298 1.086 0 1.86-3.628 3.892-4.252 3.966l-.004.005Z"/><path d="M176.386 29.39c-.311-2.403-1.358-5.302-5.512-6.119-4.149-.812-10.983.153-13.388 1.202-2.409 1.048-5.34 2.176-5.717 1.248-.377-.928-3.298-4.9-5.345-2.102 0 0 .075 1.629.503 1.782.428.153.311 1.238.153 2.245-.153 1.007-.502 6.426.814 7.627 1.321 1.202 4.461 2.979 8.499 2.515 4.038-.464 8.773-1.392 10.555-1.007 1.786.385 5.163 1.434 6.522 1.123 1.358-.31 3.726-2.399 2.405-4.101-1.321-1.703.814-2.014.502-4.412h.009Zm-21.04 3.912c-.786.84-2.414.58-3.493-.376-1.079-.96.116-3.457.116-3.457 3.698-.32 4.805.812 5.066 1.304.26.497-.902 1.684-1.689 2.529Zm12.43-2.789c-1.423 1.077-3.666.989-3.903.812-.232-.176-1.368-3.512-1.368-3.512 3.903-2.584 7.541-1.54 7.978-.932.438.612-1.279 2.556-2.707 3.628v.004ZM61.725 10.434c-.773-3.122-7.448-4.254-8.402-4.393-.953-.135-.483-1.773-.907-3.215-.432-1.471-1.74-.863-1.74-.863-.148 1.874-1.27 1.605-1.544 1.484-.274-.12-.423-1.508-1.028-1.665-.605-.158-1 1.336-1.484 5.618-.484 4.287-3.963 6.338-7.643 7.335-3.68.997-7.643 5.01-10.55 10.685-2.907 5.674.214 13.974 1.028 16.664.819 2.687-1.423-.092-3.48-6.008-2.056-5.915 3.922-19.123-4.614-25.326C12.825 4.547 5.638 7.99 1.87 13.83c-3.996 6.194-.665 13.404 1.47 16.934 2.135 3.53 7.085 3.67 7.085 3.67s.228-.227-.86-3.67c-1.09-3.442.274-5.117 1.86-5.433 1.586-.315 1.498.859 2.363 10.189.86 9.33 8.987 13.63 14.802 14.716 5.81 1.086 21.793-1.058 24.515-2.111 2.726-1.058-1.498-1.828-2.95-1.6-1.45.227-1.497-1.18.41-3.94s.544-6.476-1.423-7.952c-1.968-1.475-.666-3.261 0-3.804.665-.543 3.358-.334 3.358-.093 0 .242-.032 1.661 1.182 2.357 1.21.696 1.646-3.66 1.423-4.83-.21-1.104-2.605-2.537-3.512-3.35-.907-.816 2.935-6.067 3.33-6.852.396-.784 2.27-1.628 4.722-2.324 2.452-.696 2.861-2.171 2.089-5.298l-.01-.005Zm-5.927.455a.882.882 0 1 1 0-1.763.882.882 0 1 1 0 1.763ZM218.364 15.732c2.452.696 4.326 1.54 4.722 2.325.395.784 4.237 6.036 3.33 6.852-.907.817-3.298 2.245-3.512 3.35-.223 1.169.214 5.525 1.424 4.83 1.209-.697 1.181-2.112 1.181-2.357 0-.242 2.694-.455 3.359.092.665.548 1.968 2.325 0 3.805s-3.331 5.191-1.424 7.952c1.908 2.76 1.861 4.166.41 3.938-1.452-.227-5.675.543-2.949 1.601 2.725 1.058 18.704 3.201 24.514 2.111 5.811-1.086 13.937-5.386 14.802-14.716.861-9.326.773-10.504 2.364-10.188 1.59.315 2.949 1.99 1.86 5.432-1.088 3.443-.86 3.67-.86 3.67s4.949-.134 7.084-3.67c2.136-3.535 5.466-10.74 1.47-16.934-3.768-5.84-10.955-9.283-19.491-3.08-8.536 6.203-2.558 19.411-4.614 25.327-2.056 5.915-4.299 8.694-3.48 6.008.819-2.687 3.936-10.987 1.028-16.665-2.907-5.674-6.87-9.692-10.55-10.685-3.68-.997-7.159-3.048-7.643-7.335s-.879-5.776-1.484-5.618c-.605.158-.758 1.545-1.028 1.665-.274.121-1.391.395-1.544-1.484 0 0-1.312-.608-1.74.863-.423 1.443.047 3.08-.907 3.215-.954.134-7.629 1.266-8.401 4.393-.772 3.127-.363 4.603 2.088 5.299l-.009.004Zm2.949-5.73c0-.487.396-.881.884-.881a.882.882 0 1 1 0 1.763.883.883 0 0 1-.884-.882Z"/></g><defs><clipPath id="a"><path fill="#fff" d="M0 0h278v57H0z"/></clipPath></defs></svg>