<svg width="175" height="54" fill="none" xmlns="http://www.w3.org/2000/svg"><g clip-path="url(#a)" fill="#fff"><path d="M128.79 34.447v6.242s-4.133 2.233-3.279 3.748c.853 1.515 3.74 4.732 5.969 4.471 2.228-.26 4.854-2.302 10.037-2.631 5.184-.33 23.287-1.117 23.287-1.117s-.525 2.828.722 3.222c1.246.394 8.197-.197 8.266-3.812.064-3.616-.329-11.634-.329-11.634s-8.595-3.461-8.723-1.531c-.132 1.925.064 8.304.064 8.304H152.93s.064-12.489.525-13.345c.462-.855 2.165-5.848.526-6.837-1.64-.988-10.559-2.892-11.678-2.631-1.119.26 1.311 4.206 1.05 8.215-.26 4.009.133 15.381.133 15.381s-8.659 1.446-9.248 1.117c-.59-.33-.261-2.302.064-2.499.324-.197 1.703-4.929-5.508-4.668l-.004.005ZM.687 46.804s-.525 5.784 0 6.045c.526.261 3.147.197 3.608 0 .461-.196-.132-7.034-3.608-6.045ZM45.818 48.117c-1.115-.659-9.774-2.696-9.774-2.696l4.659 7.428s3.543.659 4.393.261c.854-.394 1.836-4.338.722-4.997v.004ZM23.056 45.421s2.558 4.93 3.544 4.93c.986 0 2.626-1.58 2.493-2.465-.132-.886-3.082-3.123-6.033-2.465h-.004ZM12.429 45.422s1.575 5.652 2.69 5.849c1.114.196 2.626-.985 2.886-2.234.26-1.25-3.083-4.142-5.576-3.615ZM27.19 37.947c-.133-.608-2.298-.347-2.298-.347s.064-2.366.658-2.892c.589-.526 2.843-2.631 1.652-3.025-1.191-.394-12.386 1.489-12.386 1.489s-.009 7.903.41 8.42c.418.518 1.716 1.703 2.796.783 1.08-.92.773-1.489 1.866-1.754 1.093-.261 6.43-.35 6.43-.35s1.008-1.72.875-2.328l-.004.004Zm-4.134-2.58c-.196.659-.546 2.935-.546 2.935s-2.93.218-3.237.261c-.307.043-.504 1.095-.504 1.095h-.751c-.248 0 0-5.172 0-5.172 6.468-2.285 5.235.218 5.038.877v.004ZM6.409 23.69c.969-.094 3.356-.389 6.379-.774.085 2.405.256 4.565.572 5.045.785 1.185.26 3.902 1.443 3.658 1.183-.244 10.495-2.61 11.152-3.136.658-.527-.918-2.367 0-3.945.363-.625.811-1.998 1.196-3.509 5.132-.68 9.17-1.223 9.17-1.223s-1.575-2.366-8-1.314c-.201.034-.41.069-.637.103.27-1.463.393-2.743.24-3.256-.393-1.314-4.928-2.893-7.58-2.234-2.65.66 1.414 3.154 1.414 3.154s.047 1.45.107 3.14c-1.03.133-2.1.265-3.185.398.107-1.36.085-2.417-.197-2.618-.918-.66-2.228-2.366-5.772-1.84 0 0-.026 2.434.021 5.168-5.09.595-9.29 1.053-9.29 1.053s-.876 2.503 2.971 2.126l-.004.005Zm15.528-1.968c.047 1.425.082 2.623.082 2.82 0 .526-.73 3.419-1.678 3.153-.948-.265-2.784-.26-2.784-.26s.504-2.64.854-5.246c1.161-.154 2.348-.308 3.526-.462v-.005Z"/><path d="M5.623 26.472s1.836 2.105 1.661 3.418c-.175 1.314-3.061 2.542-4.287 2.803-1.225.26-2.446 2.597-.085 2.597s4.539-.368 4.897 1.172c.389 1.669 1.58 4.523-1.481 5.485-3.062.963-3.625.373-4.5 1.087-.88.719 1.259 2.892 2.31 2.631 1.05-.26 7.172-.877 7.433-2.366.26-1.489-1.132-14.885-1.132-14.885s-3.85-5.126-4.816-1.942ZM38.768 41.635c.611-.526 5.508-3.068 2.887-3.68-2.626-.611-6.734-.436-6.734-.436s-.785-6.837.436-6.923c1.221-.085 7.258-1.93 5.858-3.329-1.4-1.403-6.123-.787-6.123-.787s2.016-5.173-4.632-3.594c0 0 .26 17.089.785 18.141.525 1.053 6.904 1.138 7.515.612l.008-.004ZM93.847 11.45c-.786-1.314-4.065-5.653-4.462-6.838-.397-1.185-2.096-4.86-3.937-4.6-1.835.262-3.671 1.053-3.411 2.5.26 1.446-4.069 15.775-4.069 15.775s2.493 6.965 3.28 8.411c.785 1.446 2.228 6.046 2.753 6.444.525.393 1.704-4.732 3.28-6.837 1.575-2.105 4.589-9.597 5.114-11.176.525-1.579 2.229-2.366 1.443-3.68h.009Zm-9.141-6.62c-.308 0-.743.788-.854 1.64-.111.85 0 2.699 0 2.699s-.807-.702-.982-.176c-.175.527.042 3.462.085 3.595.043.132-1.093.569-1.093.569V8.248s.525-1.532.7-1.78c.175-.244.26-1.027.218-1.857-.043-.834.218-.744.482-.92.265-.175.658-.787 1.4-1.446.744-.659 1.18-.612 1.18-.612 1.75-.35 1.442 2.058 1.562 3.025.12.963-.602 1.138-.99 1.185-.39.043-.487-.701-.577-1.052-.09-.35-.828.043-1.136.043l.005-.005Zm1.387 11.856c-.427-.034-.183-1.938-.183-1.938s-.047.497.149 0c.196-.496.82-.26.918.689.098.954-.461 1.284-.884 1.25Zm1.738-3.846h-.722l-.132-5.224.854-.394v5.622-.004Z"/><path d="M114.661 45.147c-.175-2.015 0-4.646-.875-5.172-.875-.527-2.011-1.755-2.276-2.978-.26-1.228-1.135-8.061-1.135-8.326 0-.266-1.051-2.542-2.101-4.12-1.05-1.58-2.186-2.281-2.711-4.382-.525-2.1-.525-4.997-1.486-6.662-.961-1.664-2.626-3.77-3.322-5.258-.7-1.49-2.971-2.717-3.586-.787-.61 1.93-1.836 5.172-2.537 6.486-.7 1.313-2.36 3.945-2.36 5.258 0 1.314-1.136 2.627-1.576 3.77-.44 1.142-1.05 4.544-1.836 5.69-.786 1.147-2.276 2.285-2.186 3.513.085 1.228-1.063 2.892-.662 3.594.401.702 1.452 3.243 1.627 3.77.175.526.785 2.365.175 2.104-.61-.26-3.672-6.922-4.547-7.8-.876-.877-2.972-5.519-3.587-7.448-.615-1.93-2.186-7.188-3.147-8.677-.96-1.49-1.75-3.594-4.111-2.978 0 0-4.022 3.68-4.637 4.556-.615.877-.786 2.105-1.4 3.419-.611 1.313-1.226 5.434-1.926 6.31-.7.878-2.276 2.675-2.186 4.143.09 1.467 0 4.274 0 4.274s-1.482 1.403-1.747 2.366c-.26.963-.7 3.419-1.4 4.381-.7.963-2.01 2.015-2.711 3.068-.7 1.052-2.536 2.802-1.225 3.329 1.31.526 3.761.175 4.372 0 .61-.176 2.186-2.19 2.796-2.978.61-.788 1.226-2.456 1.661-1.93.436.526.61 1.579.175 2.366-.435.788-.085 1.49 1.4.086 1.486-1.404 3.322-3.068 3.937-3.154.61-.085 2.451.262 2.886.878.436.611 1.136-1.139 2.186-.963 1.05.175 2.101 2.19 2.537 1.754.435-.436 1.31-2.456 2.36-1.052 1.051 1.403 2.537 3.153 2.537 3.153s1.136-1.314.875-2.717c-.26-1.403 2.011-1.664 2.712-.787.7.877 1.66 2.806 1.66 2.806s1.05-1.84 1.576-1.84c.525 0 2.8.527 3.411.702.61.176 1.196 1.93 1.776 2.016.585.09 1.721-1.84.846-2.893-.875-1.052-2.536-2.802-2.886-3.068-.35-.265.61-.436 1.225 0 .615.437 2.886 2.456 3.497 2.978.61.527 2.711 1.58 2.711 2.105 0 .527.175-.26 1.576-1.403 1.4-1.138 2.796.086 2.796.437 0 .35 1.226-1.404 2.276-1.58 1.05-.175 4.722-.26 5.247.176.525.437.525 2.456.876 2.542.35.085 3.586.35 3.586.35l.175-1.03s-1.136-.373-1.311-2.388v-.009Zm-50.245-8.501H63.28v-2.2h1.136v2.2Zm9.163 2.05c0 .504-1.05.504-1.05.504s.042 1.664 0 2.803c-.043 1.138-.526.701-.786 0-.26-.702.043-2.76.35-3.552.307-.787.435-3.77.435-3.77 1.576-1.36 1.05 3.505 1.05 4.01v.004Zm2.472-18.437c-.525.043-.786-.66-1.268-.92-.483-.261-.875.133-1.119.787-.243.66-.064 1.357 0 1.665.06.308-1.012.085-1.012.085s-.06-1.185-.234-2.148c-.176-.962-.786-.35-1.401-.043-.61.309-1.093.963-1.704 1.271-.61.308-1.66 1.93-1.925 2.76-.26.834.132 3.418-.393 3.491-.525.073-.307.715-.61 1.455-.308.74-.786 1.365-.961.838-.175-.526.085-1.578.307-1.93.218-.35.7-2.716.7-3.2 0-.483.483-1.313.568-1.84.086-.526.876-1.488 1.268-2.015.393-.526 1.486-1.664 1.836-1.878.35-.214.961-1.104 1.542-1.63.58-.526 1.562-.35 1.652 0 .09.35 2.536 1.138 2.536 1.138s.35.218.743 1.053c.393.834 0 1.01-.525 1.052v.009Zm3.587 22.788c-.295.132-1.478-1.053-1.738-1.25-.26-.197-.133-2.267-.133-2.267.163-.133.884 0 .884 0l.175 1.908s.35-.099.807.162c.461.261.295 1.314 0 1.447h.005ZM102.53 23.36c-.132.526-1.05 2.169-1.695 2.956-.644.788-.995 2.957-1.451 3.791-.462.834-1.115 1.468-1.64 1.925-.525.463-.982 3.748-.982 3.748s-.064-2.562 0-3.354c.064-.787 1.05-2.892 1.904-3.945.854-1.052 1.576-3.551 2.174-4.732.597-1.185.644-4.997.644-4.997 1.443-.984 1.905 4.732 1.836 5.061-.064.33-.657-.984-.785-.462l-.005.009Zm1.836 7.427s-.461.394-1.042 0c-.584-.393 0-4.47 0-4.47l1.042-.262v4.732Z"/></g><defs><clipPath id="a"><path fill="#fff" d="M0 0h175v54H0z"/></clipPath></defs></svg>