<svg width="279" height="57" viewBox="0 0 279 57" fill="none" xmlns="http://www.w3.org/2000/svg">
<g id="&#231;&#179;&#150;&#231;&#130;&#146;&#230;&#160;&#151;&#229;&#173;&#144;-logo-01">
<ellipse id="Ellipse 24" cx="139" cy="28.5" rx="67" ry="28.5" fill="#EE2019"/>
<path id="Vector" d="M181.769 40.8965H96.2361V41.4579H181.769V40.8965Z" fill="black"/>
<g id="Group">
<path id="Vector_2" d="M122.57 46.5012C122.212 46.4223 121.612 46.4177 120.877 46.4641C120.914 46.0558 120.914 45.6939 120.853 45.4341C120.621 44.4459 120.184 43.1098 118.086 44.214C118.086 44.214 119.193 45.462 119.104 46.3063C119.095 46.3991 119.086 46.5151 119.076 46.6357C118.248 46.7378 117.378 46.8631 116.569 46.993C116.588 46.7517 116.611 46.5383 116.634 46.3666C116.811 45.1465 117.113 43.6665 114.029 44.3067C114.029 44.3067 113.578 44.9702 114.541 45.5223C114.541 45.5223 114.634 46.4038 114.708 47.3038C113.792 47.4662 113.183 47.5822 113.183 47.5822C113.183 47.5822 112.02 46.8863 112.173 47.4291C112.327 47.9719 113.257 49.0529 113.727 48.8627C113.918 48.7838 114.304 48.5889 114.783 48.3802C114.792 48.524 114.797 48.6585 114.801 48.7745C114.829 49.7627 114.508 52.5788 116.983 52.9871C119.458 53.3954 121.086 53.0474 121.467 52.8108C121.844 52.5788 122.109 51.2705 120.681 51.2148C119.253 51.1545 116.983 51.8226 116.723 51.2427C116.537 50.8298 116.485 49.1503 116.532 47.777C116.75 47.726 116.969 47.6842 117.178 47.6611C117.676 47.6054 118.337 47.5729 119.007 47.559C118.928 48.408 118.797 49.2663 118.5 49.2106C118.034 49.1225 116.927 48.7745 116.988 49.0343C117.048 49.2941 117.774 50.0225 117.918 50.4261C118.062 50.8344 119.374 51.4143 119.928 50.1339C120.216 49.4704 120.518 48.4915 120.709 47.5683C121.216 47.5915 121.607 47.6332 121.76 47.6982C122.226 47.893 124.277 46.8816 122.575 46.4966L122.57 46.5012Z" fill="black"/>
<path id="Vector_3" d="M128.51 43.5225C128.51 43.5225 129.441 44.5663 128.468 46.037C127.496 47.5077 125.091 51.2285 125.519 52.2724C125.947 53.3163 127.305 53.3952 127.422 52.4673C127.538 51.5394 128.003 49.2939 128.701 48.9042C129.399 48.5145 131.069 47.6655 130.99 49.4841C130.91 51.3028 131.259 53.6271 132.697 53.3163C134.134 53.0054 134.948 52.1564 135.106 51.6136C135.26 51.0708 135.534 49.8738 134.678 50.9177C133.823 51.9616 132.934 52.0405 132.739 50.9177C132.543 49.795 132.464 47.8232 130.99 47.8232C129.515 47.8232 128.426 47.7072 129.594 46.8165C130.757 45.9257 132.311 43.5642 128.51 43.5271V43.5225Z" fill="black"/>
<path id="Vector_4" d="M145.075 44.8865C145.075 44.8865 144.35 45.6706 143.591 45.3505C142.838 45.0304 142.4 46.0186 143.242 46.2505C144.089 46.4825 145.34 45.9629 144.377 47.183C143.419 48.4032 142.4 52.4674 144.494 53.2514C146.592 54.0355 148.713 54.1793 149.587 52.8756C150.462 51.5673 150.518 49.4471 150.169 48.5795C149.82 47.7073 149.704 47.299 149.704 47.299C149.704 47.299 150.429 48.0553 150.695 48.4589C150.955 48.8672 151.76 49.3868 152.09 49.1873C152.29 49.062 152.732 48.663 151.741 47.5032C150.75 46.3433 150.053 44.4829 149.327 44.687C148.601 44.8912 148.601 45.2391 149.034 46.8629C149.471 48.4914 149.471 51.739 147.987 51.9431C146.503 52.1472 144.084 52.0591 144.782 49.7069C145.48 47.3547 147.489 46.0186 146.936 45.3551C146.382 44.687 145.764 44.4179 145.075 44.8912V44.8865Z" fill="black"/>
<path id="Vector_5" d="M159.045 44.0745C159.045 44.0745 159.426 45.0905 158.956 45.8143C158.491 46.538 155.635 51.0986 155.667 51.7666C155.695 52.4347 156.891 54.6709 157.649 52.3744C158.407 50.0779 159.514 48.4541 160.296 48.6582C161.082 48.8624 161.022 50.5186 161.142 51.5903C161.259 52.6667 162.45 54.2627 163.645 53.3904C164.836 52.5182 165.859 50.1382 164.924 51.0383C163.994 51.9383 162.859 52.3744 162.826 51.2702C162.799 50.166 162.566 48.5515 162.003 48.2036C161.417 47.8417 160.063 47.9623 159.654 48.1108C159.245 48.2546 159.189 47.5587 159.914 46.8906C160.645 46.2225 161.487 45.0348 160.789 44.5384C160.091 44.0466 159.742 43.8147 159.04 44.0745H159.045Z" fill="black"/>
</g>
<path id="Vector_6" d="M127.231 11.1995C123.854 8.9911 122.63 10.9675 121.76 12.7073C120.886 14.4517 121.528 21.5315 121.76 22.4037C121.993 23.2759 119.49 23.9718 119.197 23.7398C118.904 23.5079 119.021 18.3952 118.904 14.7997C118.788 11.1995 118.732 8.1792 115.704 8.00754C112.675 7.83124 111.219 10.7958 113.257 11.8397L113.955 12.364C113.955 12.364 114.597 26.0085 114.187 26.5931C113.778 27.173 111.624 28.8571 111.568 26.941C111.508 25.025 112.382 17.8802 110.638 17.0127C108.894 16.1405 109.591 14.8646 109.298 12.8882C109.01 10.9118 106.093 6.84768 102.483 9.11636C102.483 9.11636 100.911 12.0206 101.902 12.8325C102.893 13.6444 103.242 15.2126 101.437 18.1168C99.6319 21.0165 96.6036 25.0853 99.1667 27.0014C101.73 28.9174 102.074 27.7529 101.902 31.9934C101.73 36.2338 103.302 38.9061 104.87 38.1499C106.442 37.3937 106.614 37.3937 106.382 31.6454C106.149 25.8972 106.558 21.0165 107.079 20.6129C107.605 20.2046 108.708 20.0886 108.535 21.949C108.363 23.8094 108.01 30.7732 108.712 32.5176C109.41 34.2621 111.392 36.2338 112.848 35.5379C114.304 34.842 117.388 32.6336 118.262 33.5615C119.137 34.4894 123.561 37.1617 125.193 37.1617C126.826 37.1617 129.85 36.7534 129.561 29.7896C129.273 22.8212 130.608 13.4125 127.231 11.2087V11.1995ZM122.477 32.0073C121.7 32.1233 119.681 31.3485 119.681 31.3485C120.342 30.3046 122.668 29.4139 123.793 29.567C124.919 29.7201 123.249 31.8913 122.472 32.0073H122.477ZM124.319 22.2923L122.63 22.3526C122.63 22.3526 122.281 14.8321 122.602 13.264C122.923 11.6959 123.942 12.7398 123.942 12.7398C125.514 15.0316 124.319 22.2923 124.319 22.2923Z" fill="#FFE30A"/>
<g id="Group_2">
<path id="Vector_7" d="M173.284 11.6823C172.274 10.6013 167.734 7.07535 162.882 8.97288C158.03 10.8704 154.923 12.4153 154.421 12.6519C153.918 12.8839 153.723 12.6891 152.83 12.0303C151.937 11.3715 149.801 9.97963 148.638 11.8772C148.638 11.8772 148.327 13.3479 149.336 13.9278C150.346 14.5077 150.113 15.5933 150.229 17.76C150.346 19.9266 152.132 23.9536 156.012 23.3737C159.891 22.7937 164.124 21.207 168.199 21.8241C172.274 22.4411 173.67 22.3669 173.902 21.2442C174.135 20.1214 173.981 19.5786 173.474 19.1564C172.972 18.7296 174.214 17.7646 174.405 16.2521C174.6 14.7443 174.288 12.7679 173.279 11.6823H173.284ZM164.106 18.2425C163.292 18.3445 158.575 19.0358 156.947 19.6946C155.318 20.3534 155.202 20.3116 154.309 19.5369C153.416 18.7621 154.039 16.5166 154.039 16.5166C154.467 16.2057 156.407 16.4377 158.31 16.1686C160.212 15.8949 161.766 14.967 165.064 13.1855C168.362 11.4039 168.362 12.4107 168.362 14.2711C168.362 16.1315 164.734 18.1636 164.11 18.2378L164.106 18.2425Z" fill="#FFE30A"/>
<path id="Vector_8" d="M176.386 29.9941C176.075 27.5909 175.028 24.6913 170.874 23.8747C166.725 23.0628 159.891 24.0278 157.486 25.0763C155.077 26.1248 152.146 27.2522 151.769 26.3243C151.392 25.3965 148.471 21.4251 146.424 24.2227C146.424 24.2227 146.499 25.8511 146.927 26.0042C147.355 26.1573 147.238 27.2429 147.08 28.2497C146.927 29.2565 146.578 34.6753 147.894 35.8769C149.215 37.0785 152.355 38.8554 156.393 38.3915C160.431 37.9275 165.166 36.9997 166.948 37.3847C168.734 37.7698 172.111 38.8183 173.47 38.5075C174.828 38.1966 177.196 36.1089 175.875 34.4062C174.554 32.7036 176.689 32.3927 176.377 29.9941H176.386ZM155.346 33.9052C154.56 34.7449 152.932 34.4851 151.853 33.5294C150.774 32.569 151.969 30.073 151.969 30.073C155.667 29.7529 156.774 30.8849 157.035 31.3767C157.295 31.8731 156.132 33.0608 155.346 33.9052ZM167.776 31.1169C166.352 32.1932 164.11 32.1051 163.873 31.9288C163.64 31.7525 162.505 28.4167 162.505 28.4167C166.408 25.8326 170.046 26.8764 170.483 27.4842C170.92 28.0966 169.204 30.0405 167.776 31.1122V31.1169Z" fill="#FFE30A"/>
</g>
<path id="Vector_9" d="M61.7246 10.4342C60.9524 7.31188 54.277 6.17986 53.3234 6.04068C52.3698 5.90614 52.8396 4.26842 52.4163 2.82556C51.9837 1.35486 50.6766 1.96262 50.6766 1.96262C50.5277 3.83695 49.4066 3.56787 49.1322 3.44724C48.8577 3.32661 48.7089 1.93943 48.1041 1.78169C47.4994 1.62395 47.104 3.11784 46.6202 7.40003C46.1364 11.6869 42.6569 13.7375 38.9773 14.735C35.2978 15.7324 31.3344 19.7455 28.4271 25.4196C25.5197 31.0936 28.641 39.3935 29.4551 42.0844C30.2738 44.7706 28.0317 41.9916 25.9756 36.0763C23.9195 30.1611 29.897 16.9526 21.361 10.7497C12.825 4.54678 5.63797 7.98924 1.87002 13.8303C-2.12586 20.0239 1.20482 27.2336 3.33999 30.7642C5.47516 34.2948 10.4247 34.434 10.4247 34.434C10.4247 34.434 10.6526 34.2066 9.56408 30.7642C8.47556 27.3217 9.83853 25.6469 11.4248 25.3314C13.011 25.0159 12.9227 26.1897 13.7879 35.5196C14.6485 44.8495 22.7751 49.1502 28.5899 50.2359C34.4 51.3215 50.3835 49.1781 53.1048 48.1249C55.8307 47.0671 51.6069 46.297 50.1556 46.5243C48.7042 46.7517 48.6577 45.3459 50.5649 42.5854C52.4721 39.825 51.1092 36.1088 49.1415 34.6335C47.1738 33.1581 48.4763 31.3719 49.1415 30.8291C49.8067 30.2863 52.5001 30.4951 52.5001 30.7363C52.5001 30.9776 52.4675 32.3973 53.6816 33.0932C54.8911 33.7891 55.3283 29.4327 55.1051 28.2635C54.8957 27.1593 52.5001 25.7258 51.593 24.9139C50.6859 24.0973 54.5282 18.8455 54.9236 18.0614C55.319 17.2774 57.1937 16.433 59.6452 15.7371C62.0967 15.0412 62.5061 13.5658 61.7339 10.4389L61.7246 10.4342ZM55.7982 10.8889C55.3097 10.8889 54.9143 10.4945 54.9143 10.0074C54.9143 9.52025 55.3097 9.1259 55.7982 9.1259C56.2866 9.1259 56.682 9.52025 56.682 10.0074C56.682 10.4945 56.2866 10.8889 55.7982 10.8889Z" fill="#137657"/>
<path id="Vector_10" d="M218.364 15.7322C220.816 16.4281 222.69 17.2725 223.086 18.0566C223.481 18.8406 227.323 24.0925 226.416 24.909C225.509 25.7256 223.118 27.1545 222.904 28.2587C222.681 29.4278 223.118 33.7842 224.328 33.0883C225.537 32.3924 225.509 30.9774 225.509 30.7315C225.509 30.4902 228.203 30.2768 228.868 30.8243C229.533 31.3717 230.836 33.1486 228.868 34.6286C226.9 36.1086 225.537 39.8201 227.444 42.5806C229.352 45.3411 229.305 46.7468 227.854 46.5195C226.402 46.2921 222.179 47.0623 224.905 48.1201C227.63 49.1779 243.609 51.3213 249.419 50.231C255.23 49.1454 263.356 44.8446 264.221 35.5147C265.082 26.1895 264.994 25.0111 266.585 25.3266C268.175 25.642 269.534 27.3169 268.445 30.7593C267.357 34.2018 267.585 34.4291 267.585 34.4291C267.585 34.4291 272.534 34.2946 274.669 30.7593C276.805 27.2241 280.135 20.0191 276.139 13.8254C272.371 7.98439 265.184 4.54193 256.648 10.7448C248.112 16.9478 254.09 30.1562 252.034 36.0715C249.978 41.9867 247.735 44.7658 248.554 42.0795C249.373 39.3933 252.49 31.0934 249.582 25.4147C246.675 19.7407 242.712 15.7229 239.032 14.7301C235.352 13.7326 231.873 11.682 231.389 7.39518C230.905 3.10835 230.51 1.61909 229.905 1.77683C229.3 1.93457 229.147 3.32176 228.877 3.44239C228.603 3.56301 227.486 3.83674 227.333 1.95777C227.333 1.95777 226.021 1.35001 225.593 2.8207C225.17 4.26357 225.64 5.90128 224.686 6.03583C223.732 6.17037 217.057 7.30239 216.285 10.4294C215.513 13.5563 215.922 15.0317 218.373 15.7276L218.364 15.7322ZM221.313 10.0025C221.313 9.5154 221.709 9.12105 222.197 9.12105C222.686 9.12105 223.081 9.5154 223.081 10.0025C223.081 10.4897 222.686 10.884 222.197 10.884C221.709 10.884 221.313 10.4897 221.313 10.0025Z" fill="#137657"/>
</g>
</svg>
