<svg width="53" height="424" viewBox="0 0 53 424" fill="none" xmlns="http://www.w3.org/2000/svg"><path opacity="0.2" d="M1.528 10.144L2.21991 9.42201L1.65057 8.87639L0.987243 9.30282L1.528 10.144ZM0.632 10.72L0.0912428 9.87882L-0.567606 10.3024L-0.314229 11.0435L0.632 10.72ZM36.28 15.008L36.636 15.9425L36.6437 15.9395L36.6514 15.9365L36.28 15.008ZM30.52 9.952L30.9835 10.8381L30.9848 10.8374L30.52 9.952ZM11.96 3.104H10.96V3.81606L11.6329 4.04898L11.96 3.104ZM15.736 4.64L15.2215 5.49752L15.229 5.50193L15.736 4.64ZM16.952 7.2L17.9479 7.29053L17.9485 7.28304L16.952 7.2ZM15.224 17.184L16.1996 17.4035L16.2012 17.3964L16.2027 17.3892L15.224 17.184ZM9.912 35.808L9.02913 35.3384L9.01686 35.3614L9.00582 35.3851L9.912 35.808ZM16.504 41.312L17.2586 41.9682L17.268 41.9574L17.2771 41.9463L16.504 41.312ZM30.968 50.592L30.6288 49.6513L30.6138 49.6567L30.599 49.6626L30.968 50.592ZM17.016 53.792L16.9231 52.7963L15.9255 52.8894L16.0205 53.8868L17.016 53.792ZM17.144 55.136L16.1485 55.2308L16.2272 56.0574L17.0542 56.132L17.144 55.136ZM17.592 32.992L17.059 32.1459L17.048 32.1528L17.0373 32.16L17.592 32.992ZM16.888 32.48L15.9222 32.2209L15.9176 32.2379L15.9136 32.2551L16.888 32.48ZM21.048 17.184L22.0168 17.4321L22.0181 17.4265L21.048 17.184ZM22.968 9.632L23.9259 9.91937L23.9295 9.90672L22.968 9.632ZM11.96 2.144L11.5827 1.21791L10.96 1.4716V2.144H11.96ZM0.987243 9.30282L0.0912428 9.87882L1.17276 11.5612L2.06876 10.9852L0.987243 9.30282ZM-0.314229 11.0435C0.981207 14.8326 2.35546 17.2927 4.2599 18.7668C6.193 20.2631 8.50522 20.616 11.32 20.616V18.616C8.63079 18.616 6.879 18.2649 5.4841 17.1852C4.06054 16.0833 2.84279 14.0954 1.57823 10.3965L-0.314229 11.0435ZM11.32 20.616C21.8481 20.616 32.5328 17.5056 36.636 15.9425L35.924 14.0735C31.9632 15.5824 21.5279 18.616 11.32 18.616V20.616ZM36.6514 15.9365C38.1287 15.3456 39.3106 14.7126 40.1299 13.9319C40.9911 13.1112 41.44 12.136 41.44 10.976H39.44C39.44 11.544 39.2489 12.0088 38.7501 12.4841C38.2094 12.9994 37.3113 13.5184 35.9086 14.0795L36.6514 15.9365ZM41.44 10.976C41.44 9.01303 39.9123 8.00054 38.5723 7.51567C37.2007 7.01939 35.6295 6.904 34.68 6.904V8.904C35.5225 8.904 36.8313 9.01261 37.8918 9.39633C38.9837 9.79146 39.44 10.315 39.44 10.976H41.44ZM34.68 6.904C34.3468 6.904 34.0348 7.0026 33.7749 7.10682C33.5057 7.21475 33.2045 7.36589 32.8751 7.54074C32.1451 7.92825 31.3799 8.37113 30.0552 9.0666L30.9848 10.8374C32.2201 10.1889 33.2469 9.60774 33.8129 9.30725C34.1315 9.13811 34.3543 9.02925 34.5191 8.96318C34.6932 8.89339 34.7252 8.904 34.68 8.904V6.904ZM30.0565 9.0659C26.0463 11.1636 18.3344 13.24 11.704 13.24V15.24C18.6416 15.24 26.6737 13.0924 30.9835 10.8381L30.0565 9.0659ZM11.704 13.24C7.92278 13.24 5.10069 12.1828 2.21991 9.42201L0.836095 10.866C4.09931 13.9932 7.42122 15.24 11.704 15.24V13.24ZM11.6329 4.04898C13.3402 4.63999 14.3722 4.98792 15.2215 5.49749L16.2505 3.78251C15.1798 3.14008 13.9078 2.72001 12.2871 2.15901L11.6329 4.04898ZM15.229 5.50193C15.7639 5.81658 15.8638 5.94772 15.9056 6.03121C15.9557 6.13147 16.0182 6.36434 15.9555 7.11695L17.9485 7.28304C18.0138 6.49966 18.0123 5.77253 17.6944 5.13678C17.3682 4.48428 16.7961 4.10342 16.243 3.77806L15.229 5.50193ZM15.9561 7.10946C15.77 9.15708 15.0775 13.0095 14.2453 16.9788L16.2027 17.3892C17.0345 13.4225 17.75 9.46691 17.9479 7.29053L15.9561 7.10946ZM14.2484 16.9645C13.6744 19.5155 12.7498 23.4049 11.7707 27.027C10.7784 30.6977 9.76547 33.9541 9.02913 35.3384L10.7949 36.2776C11.6585 34.6539 12.7256 31.1583 13.7013 27.549C14.6902 23.8911 15.6216 19.9725 16.1996 17.4035L14.2484 16.9645ZM9.00582 35.3851C8.58173 36.2939 8.26328 36.782 8.00582 37.2283C7.73277 37.7016 7.504 38.1726 7.504 38.88H9.504C9.504 38.6914 9.53123 38.5864 9.73819 38.2277C9.96072 37.842 10.3463 37.2421 10.8182 36.2309L9.00582 35.3851ZM7.504 38.88C7.504 40.4473 8.10555 42.242 8.96325 43.6423C9.39634 44.3494 9.92188 45.0012 10.5183 45.4872C11.1086 45.9682 11.8416 46.344 12.664 46.344V44.344C12.4624 44.344 12.1634 44.2478 11.7817 43.9368C11.4061 43.6308 11.0197 43.1706 10.6688 42.5977C9.95846 41.438 9.504 40.0007 9.504 38.88H7.504ZM12.664 46.344C14.1565 46.344 15.0577 45.3152 15.6511 44.4421C15.9511 44.0006 16.2397 43.4944 16.49 43.08C16.7558 42.64 16.9988 42.267 17.2586 41.9682L15.7494 40.6558C15.3692 41.093 15.0522 41.592 14.778 42.046C14.4883 42.5256 14.2569 42.9354 13.9969 43.3179C13.4703 44.0928 13.0915 44.344 12.664 44.344V46.344ZM17.2771 41.9463C19.2956 39.4863 22.1034 36.4939 25.2352 34.1256C28.3906 31.7394 31.7422 30.088 34.872 30.088V28.088C31.0898 28.088 27.3054 30.0526 24.0288 32.5304C20.7286 35.0261 17.8084 38.1457 15.7309 40.6777L17.2771 41.9463ZM34.872 30.088C37.301 30.088 39.09 30.9615 40.2785 32.2594C41.4797 33.571 42.128 35.3835 42.128 37.344H44.128C44.128 34.9525 43.3363 32.637 41.7535 30.9086C40.158 29.1665 37.819 28.088 34.872 28.088V30.088ZM42.128 37.344C42.128 39.5382 41.5047 41.7728 39.8007 43.8644C38.0845 45.971 35.2193 47.9962 30.6288 49.6513L31.3072 51.5327C36.1247 49.7958 39.3395 47.597 41.3513 45.1276C43.3753 42.6432 44.128 39.9497 44.128 37.344H42.128ZM30.599 49.6626C26.352 51.3489 21.648 52.3553 16.9231 52.7963L17.1089 54.7877C21.984 54.3327 26.88 53.2911 31.337 51.5214L30.599 49.6626ZM16.0205 53.8868L16.1485 55.2308L18.1395 55.0412L18.0115 53.6972L16.0205 53.8868ZM17.0542 56.132C25.313 56.8769 33.7886 56.1095 40.2463 53.5033C46.7146 50.8928 51.36 46.3273 51.36 39.456H49.36C49.36 45.1926 45.5574 49.2032 39.4978 51.6487C33.4274 54.0985 25.295 54.8671 17.2338 54.14L17.0542 56.132ZM51.36 39.456C51.36 35.8052 50.112 32.2709 47.4544 29.6482C44.7918 27.0205 40.8085 25.4 35.512 25.4V27.4C40.3916 27.4 43.8322 28.8835 46.0496 31.0718C48.2721 33.2651 49.36 36.2588 49.36 39.456H51.36ZM35.512 25.4C28.8764 25.4 23.4872 28.0961 17.059 32.1459L18.125 33.8381C24.4968 29.8239 29.4756 27.4 35.512 27.4V25.4ZM17.0373 32.16C16.863 32.2761 16.7955 32.303 16.8003 32.3013C16.8049 32.2997 16.8807 32.272 17.0021 32.2746C17.1406 32.2775 17.3427 32.3216 17.5259 32.4766C17.6994 32.6234 17.7653 32.7933 17.789 32.8809C17.8117 32.9646 17.8085 33.0162 17.8087 33.0066C17.8092 32.9844 17.8181 32.8967 17.8624 32.7049L15.9136 32.2551C15.8619 32.4793 15.8148 32.7276 15.8093 32.9594C15.8055 33.1184 15.8033 33.6389 16.2341 34.0034C16.7186 34.4134 17.2764 34.2537 17.4617 34.1887C17.7005 34.105 17.937 33.9638 18.1467 33.824L17.0373 32.16ZM17.8538 32.7391C18.5493 30.147 20.6724 22.6815 22.0167 17.4321L20.0793 16.9359C18.7356 22.1825 16.6347 29.565 15.9222 32.2209L17.8538 32.7391ZM22.0181 17.4265C22.7957 14.3165 23.3587 11.8099 23.9258 9.91934L22.0102 9.34465C21.4253 11.2941 20.8364 13.9075 20.0779 16.9415L22.0181 17.4265ZM23.9295 9.90672C24.2628 8.74018 24.7495 8.07454 25.2184 7.42584C25.6913 6.77164 26.272 5.98927 26.272 4.768H24.272C24.272 5.27472 24.0847 5.58035 23.5976 6.25415C23.1065 6.93345 22.4412 7.83582 22.0065 9.35728L23.9295 9.90672ZM26.272 4.768C26.272 3.91928 25.7759 3.20972 25.2225 2.6858C24.6488 2.14272 23.8752 1.66357 23.0082 1.26672C21.2707 0.471441 18.9848 -0.0720024 16.696 -0.0720024V1.928C18.6952 1.928 20.6973 2.40855 22.1758 3.08528C22.9168 3.42443 23.4832 3.79327 23.8475 4.1382C24.2321 4.50227 24.272 4.72071 24.272 4.768H26.272ZM16.696 -0.0720024C14.9458 -0.0720024 13.3129 0.513029 11.5827 1.21791L12.3373 3.07009C14.0631 2.36697 15.3742 1.928 16.696 1.928V-0.0720024ZM10.96 2.144V3.104H12.96V2.144H10.96ZM19.192 109.12H18.192V109.987L19.0506 110.11L19.192 109.12ZM22.968 110.272L22.4823 111.146L22.4939 111.152L22.968 110.272ZM24.248 112.064L25.2435 111.969L25.2413 111.946L25.238 111.923L24.248 112.064ZM24.696 123.968L23.6963 123.994L23.6967 124.01L23.6977 124.026L24.696 123.968ZM32.312 140.16L31.8139 141.027L31.8184 141.03L32.312 140.16ZM36.792 135.872L36.3532 136.771L36.3573 136.773L36.792 135.872ZM29.752 134.72L30.7452 134.603L30.7443 134.596L30.7434 134.589L29.752 134.72ZM30.392 114.24L29.4537 113.894L29.4466 113.914L29.4403 113.933L30.392 114.24ZM19.192 108.608L18.6373 107.776L18.192 108.073V108.608H19.192ZM27.768 117.824L27.9324 116.838L26.7265 116.637L26.7686 117.858L27.768 117.824ZM27.832 119.68L26.8326 119.714L26.8507 120.241L27.2951 120.524L27.832 119.68ZM41.528 120.96L41.9088 121.885L41.9269 121.877L41.9447 121.869L41.528 120.96ZM35.576 116.672L35.2287 115.734L35.2218 115.737L35.215 115.739L35.576 116.672ZM19.0506 110.11C19.9059 110.232 21.4903 110.595 22.4824 111.146L23.4536 109.398C22.1417 108.669 20.2701 108.264 19.3334 108.13L19.0506 110.11ZM22.4939 111.152C22.8396 111.339 22.9816 111.474 23.0583 111.581C23.1321 111.685 23.207 111.848 23.2581 112.205L25.238 111.923C25.161 111.384 25.0119 110.875 24.6857 110.419C24.3624 109.966 23.9284 109.653 23.4421 109.392L22.4939 111.152ZM23.2525 112.159C23.3763 113.459 23.6318 121.475 23.6963 123.994L25.6957 123.942C25.6322 121.469 25.3757 113.357 25.2435 111.969L23.2525 112.159ZM23.6977 124.026C23.8899 127.359 24.144 130.722 24.144 136.832H26.144C26.144 130.654 25.8861 127.233 25.6943 123.91L23.6977 124.026ZM24.144 136.832C24.144 138.842 23.5709 140.021 22.6542 140.742C21.6847 141.503 20.1345 141.912 17.848 141.912V143.912C20.2975 143.912 22.3953 143.489 23.8898 142.314C25.4371 141.099 26.144 139.238 26.144 136.832H24.144ZM17.848 141.912C16.6639 141.912 15.69 141.702 15.0515 141.364C14.4377 141.039 14.24 140.672 14.24 140.288H12.24C12.24 141.632 13.0663 142.577 14.1165 143.132C15.142 143.674 16.4721 143.912 17.848 143.912V141.912ZM14.24 140.288C14.24 139.884 14.5201 139.264 15.5256 138.694C16.5168 138.131 18.0929 137.704 20.28 137.704V135.704C17.8591 135.704 15.9152 136.173 14.5384 136.954C13.1759 137.728 12.24 138.9 12.24 140.288H14.24ZM20.28 137.704C25.3466 137.704 28.8815 139.343 31.8139 141.027L32.8101 139.293C29.7265 137.521 25.8374 135.704 20.28 135.704V137.704ZM31.8184 141.03C34.076 142.311 35.6395 143.798 37.0572 145.053C38.3939 146.236 39.8086 147.432 41.592 147.432V145.432C40.6874 145.432 39.8301 144.836 38.3828 143.555C37.0165 142.346 35.284 140.697 32.8056 139.29L31.8184 141.03ZM41.592 147.432C42.5313 147.432 43.4406 147.142 44.1116 146.446C44.7797 145.754 45.088 144.788 45.088 143.68H43.088C43.088 144.428 42.8843 144.838 42.6724 145.058C42.4634 145.274 42.1247 145.432 41.592 145.432V147.432ZM45.088 143.68C45.088 141.666 43.9838 139.919 42.5285 138.506C41.0644 137.085 39.1379 135.894 37.2268 134.971L36.3573 136.773C38.1581 137.642 39.8796 138.723 41.1355 139.942C42.4002 141.169 43.088 142.43 43.088 143.68H45.088ZM37.2308 134.973C34.3872 133.585 29.6273 131.864 23.928 131.864V133.864C29.2367 133.864 33.6928 135.471 36.3532 136.771L37.2308 134.973ZM23.928 131.864C20.1858 131.864 16.6703 132.517 14.0521 133.965C11.3918 135.436 9.616 137.767 9.616 140.992H11.616C11.616 138.649 12.8482 136.916 15.0199 135.715C17.2337 134.491 20.3742 133.864 23.928 133.864V131.864ZM9.616 140.992C9.616 143.598 10.8665 145.625 12.8693 146.96C14.8352 148.271 17.4962 148.904 20.408 148.904V146.904C17.7518 146.904 15.5168 146.321 13.9787 145.296C12.4775 144.295 11.616 142.866 11.616 140.992H9.616ZM20.408 148.904C24.675 148.904 27.4882 147.896 29.2273 146.195C30.9731 144.487 31.456 142.257 31.456 140.224H29.456C29.456 141.967 29.0429 143.577 27.8287 144.765C26.6078 145.96 24.397 146.904 20.408 146.904V148.904ZM31.456 140.224C31.456 139.183 31.3338 138.288 31.1864 137.404C31.0371 136.508 30.8694 135.659 30.7452 134.603L28.7589 134.837C28.8906 135.957 29.0749 136.9 29.2136 137.732C29.3542 138.576 29.456 139.345 29.456 140.224H31.456ZM30.7434 134.589C30.3028 131.253 30.176 127.843 30.176 125.504H28.176C28.176 127.901 28.3052 131.403 28.7606 134.851L30.7434 134.589ZM30.176 125.504C30.176 124.272 30.3164 121.99 30.5391 119.755C30.7652 117.485 31.0623 115.419 31.3437 114.547L29.4403 113.933C29.0817 115.045 28.7708 117.331 28.5489 119.557C28.3236 121.818 28.176 124.176 28.176 125.504H30.176ZM31.3303 114.586C31.5 114.125 31.7406 113.843 32.0937 113.318C32.4322 112.815 32.8 112.166 32.8 111.232H30.8C30.8 111.578 30.6878 111.825 30.4343 112.202C30.1954 112.557 29.732 113.139 29.4537 113.894L31.3303 114.586ZM32.8 111.232C32.8 110.422 32.4167 109.671 31.926 109.053C31.4246 108.422 30.7397 107.838 29.9621 107.341C28.4136 106.353 26.3576 105.624 24.312 105.624V107.624C25.9144 107.624 27.6024 108.207 28.8859 109.027C29.5243 109.434 30.0274 109.878 30.36 110.297C30.7033 110.729 30.8 111.05 30.8 111.232H32.8ZM24.312 105.624C22.127 105.624 19.9834 106.879 18.6373 107.776L19.7467 109.44C21.0886 108.545 22.785 107.624 24.312 107.624V105.624ZM18.192 108.608V109.12H20.192V108.608H18.192ZM26.7686 117.858L26.8326 119.714L28.8314 119.646L28.7674 117.79L26.7686 117.858ZM27.2951 120.524C27.9828 120.961 29.0531 121.664 30.201 122.25C31.3212 122.823 32.6688 123.368 33.912 123.368V121.368C33.1712 121.368 32.1828 121.017 31.111 120.469C30.0669 119.936 29.0892 119.295 28.3689 118.836L27.2951 120.524ZM33.912 123.368C37.2657 123.368 40.7233 122.373 41.9088 121.885L41.1473 120.035C40.1567 120.443 36.9583 121.368 33.912 121.368V123.368ZM41.9447 121.869C42.7975 121.478 43.4561 121.014 43.8862 120.393C44.3291 119.754 44.448 119.066 44.448 118.4H42.448C42.448 118.822 42.375 119.062 42.2418 119.255C42.0959 119.466 41.7945 119.738 41.1113 120.051L41.9447 121.869ZM44.448 118.4C44.448 116.617 43.2987 115.579 42.0721 115.044C40.8819 114.524 39.4756 114.392 38.456 114.392V116.392C39.3564 116.392 40.4461 116.516 41.2719 116.876C42.0613 117.221 42.448 117.687 42.448 118.4H44.448ZM38.456 114.392C38.2247 114.392 38.0316 114.471 37.9841 114.489C37.8977 114.523 37.8087 114.565 37.7308 114.603C37.5843 114.674 37.3591 114.79 37.1448 114.898C36.6832 115.128 36.0465 115.431 35.2287 115.734L35.9233 117.61C36.8335 117.273 37.5408 116.936 38.0392 116.686C38.3049 116.554 38.4637 116.47 38.6052 116.401C38.6713 116.369 38.7023 116.356 38.7119 116.352C38.7604 116.333 38.6393 116.392 38.456 116.392V114.392ZM35.215 115.739C34.2817 116.101 33.1485 116.423 32.0966 116.655C31.028 116.891 30.1211 117.016 29.624 117.016V119.016C30.3429 119.016 31.4201 118.853 32.5274 118.609C33.6515 118.361 34.8863 118.011 35.937 117.605L35.215 115.739ZM29.624 117.016C29.1316 117.016 28.6842 116.963 27.9324 116.838L27.6036 118.81C28.3878 118.941 28.9644 119.016 29.624 119.016V117.016ZM9.528 201.568L10.463 201.213L10.1626 200.421L9.33188 200.587L9.528 201.568ZM8.568 201.76L8.37188 200.779L7.80283 200.893L7.61932 201.444L8.568 201.76ZM7.8 207.904L8.76058 207.626L8.7588 207.62L7.8 207.904ZM19.32 210.528L18.6615 209.775L18.6544 209.782L18.6473 209.788L19.32 210.528ZM12.536 239.584L12.2736 238.619L11.2962 238.885L11.5745 239.859L12.536 239.584ZM12.92 240.928L11.9585 241.203L12.191 242.017L13.0322 241.922L12.92 240.928ZM13.688 183.968L13.0236 183.221L12.4667 183.716L12.7818 184.391L13.688 183.968ZM24.44 191.072L25.0015 191.899L27.0259 190.526L24.6189 190.088L24.44 191.072ZM16.632 195.936L16.1175 195.079L15.3234 195.555L15.7376 196.383L16.632 195.936ZM17.144 196.96L16.2496 197.407L16.6448 198.198L17.4778 197.903L17.144 196.96ZM30.008 193.12L30.1724 194.106L30.1916 194.103L30.2106 194.099L30.008 193.12ZM35.96 192.608V193.608H35.9752L35.9903 193.608L35.96 192.608ZM14.264 183.456L14.8339 182.634L14.1875 182.186L13.5996 182.709L14.264 183.456ZM9.33188 200.587L8.37188 200.779L8.76412 202.741L9.72412 202.549L9.33188 200.587ZM7.61932 201.444C7.29175 202.426 6.95333 203.588 6.76502 204.743C6.57955 205.881 6.5224 207.112 6.8412 208.188L8.7588 207.62C8.5656 206.968 8.57246 206.087 8.73898 205.065C8.90268 204.06 9.20425 203.014 9.51668 202.076L7.61932 201.444ZM6.83944 208.182C7.24882 209.596 8.28308 211.225 9.5465 212.497C10.7872 213.746 12.455 214.856 14.2 214.856V212.856C13.257 212.856 12.0768 212.206 10.9655 211.087C9.87692 209.991 9.05518 208.644 8.76056 207.626L6.83944 208.182ZM14.2 214.856C15.5619 214.856 16.7113 214.177 17.6211 213.456C18.4914 212.766 19.3919 211.814 19.9927 211.268L18.6473 209.788C17.8401 210.522 17.2046 211.234 16.3789 211.888C15.5927 212.511 14.8861 212.856 14.2 212.856V214.856ZM19.9785 211.281C21.2506 210.168 23.0443 208.657 24.9702 207.427C26.9309 206.175 28.8692 205.32 30.456 205.32V203.32C28.2668 203.32 25.9171 204.449 23.8938 205.741C21.8357 207.055 19.9494 208.648 18.6615 209.775L19.9785 211.281ZM30.456 205.32C32.0375 205.32 33.2353 206.111 34.0948 207.713C34.9837 209.37 35.472 211.853 35.472 215.008H37.472C37.472 211.699 36.9683 208.838 35.8572 206.767C34.7167 204.641 32.9065 203.32 30.456 203.32V205.32ZM35.472 215.008C35.472 221.088 33.4108 225.933 29.5357 229.778C25.6325 233.651 19.831 236.564 12.2736 238.619L12.7984 240.549C20.537 238.444 26.7035 235.405 30.9443 231.198C35.2132 226.963 37.472 221.6 37.472 215.008H35.472ZM11.5745 239.859L11.9585 241.203L13.8815 240.653L13.4975 239.309L11.5745 239.859ZM13.0322 241.922C23.0372 240.792 31.053 238.231 36.587 233.96C42.1709 229.65 45.152 223.656 45.152 215.904H43.152C43.152 223.064 40.4371 228.462 35.365 232.376C30.243 236.329 22.6428 238.824 12.8078 239.934L13.0322 241.922ZM45.152 215.904C45.152 211.062 43.8581 207.032 41.4226 204.196C38.9722 201.343 35.4507 199.8 31.224 199.8V201.8C34.9333 201.8 37.8758 203.137 39.9054 205.5C41.9499 207.88 43.152 211.402 43.152 215.904H45.152ZM31.224 199.8C27.5969 199.8 23.9057 201.066 20.749 202.265C19.1399 202.876 17.6946 203.46 16.3867 203.903C15.0692 204.348 14.0254 204.6 13.24 204.6V206.6C14.3746 206.6 15.6828 206.252 17.0273 205.797C18.3814 205.34 19.9081 204.724 21.459 204.135C24.6223 202.934 28.0031 201.8 31.224 201.8V199.8ZM13.24 204.6C12.9698 204.6 12.4749 204.362 11.8597 203.634C11.2874 202.957 10.781 202.052 10.463 201.213L8.593 201.923C8.97896 202.94 9.59257 204.051 10.3323 204.926C11.0291 205.75 12.0382 206.6 13.24 206.6V204.6ZM12.7818 184.391C15.7073 190.66 21.4695 191.548 24.2611 192.056L24.6189 190.088C21.7785 189.572 17.0447 188.796 14.5942 183.545L12.7818 184.391ZM23.8785 190.245C22.1134 191.442 18.6813 193.54 16.1175 195.079L17.1465 196.793C19.7027 195.26 23.1826 193.134 25.0015 191.899L23.8785 190.245ZM15.7376 196.383L16.2496 197.407L18.0384 196.513L17.5264 195.489L15.7376 196.383ZM17.4778 197.903C20.583 196.803 26.4392 194.729 30.1724 194.106L29.8436 192.134C25.8968 192.791 19.849 194.941 16.8102 196.017L17.4778 197.903ZM30.2106 194.099C31.9687 193.736 34.5142 193.608 35.96 193.608V191.608C34.4618 191.608 31.7593 191.736 29.8054 192.141L30.2106 194.099ZM35.9903 193.608C37.1786 193.572 38.1818 193.281 38.9097 192.703C39.6653 192.104 40.032 191.265 40.032 190.368H38.032C38.032 190.687 37.9187 190.936 37.6663 191.137C37.3862 191.359 36.8534 191.58 35.9297 191.608L35.9903 193.608ZM40.032 190.368C40.032 188.61 38.6443 187.197 37.1784 186.299C35.6547 185.366 33.6999 184.76 31.928 184.76V186.76C33.2921 186.76 34.8893 187.242 36.1336 188.005C37.4357 188.803 38.032 189.694 38.032 190.368H40.032ZM31.928 184.76C31.5415 184.76 31.1369 184.823 30.7458 184.897C30.4182 184.96 29.839 185.084 29.434 185.162C28.48 185.347 27.2993 185.528 25.784 185.528V187.528C27.4687 187.528 28.784 187.325 29.814 187.126C30.401 187.012 30.6858 186.944 31.1182 186.863C31.4871 186.793 31.7385 186.76 31.928 186.76V184.76ZM25.784 185.528C22.5768 185.528 18.5447 185.208 14.8339 182.634L13.6941 184.278C17.9193 187.208 22.4632 187.528 25.784 187.528V185.528ZM13.5996 182.709L13.0236 183.221L14.3524 184.715L14.9284 184.203L13.5996 182.709ZM6.776 280.256H5.776V280.983L6.46818 281.207L6.776 280.256ZM10.936 282.368L10.2521 283.098L10.283 283.127L10.3164 283.153L10.936 282.368ZM52.408 311.808L53.3376 312.176L53.6276 311.445L52.9847 310.991L52.408 311.808ZM51.32 311.04L51.8967 310.223L51.1274 309.68L50.5391 310.415L51.32 311.04ZM19.768 291.456L20.7449 291.67L20.7455 291.667L19.768 291.456ZM11.832 277.952L11.8469 276.952L11.8395 276.952H11.832V277.952ZM6.776 279.232L6.42869 278.294L5.776 278.536V279.232H6.776ZM6.46818 281.207C8.60808 281.9 9.39394 282.293 10.2521 283.098L11.6199 281.638C10.4301 280.523 9.29592 280.02 7.08382 279.305L6.46818 281.207ZM10.3164 283.153C10.7541 283.499 11.0013 283.857 11.1619 284.458C11.3405 285.126 11.408 286.079 11.408 287.616H13.408C13.408 286.081 13.3475 284.89 13.0941 283.942C12.8227 282.927 12.3339 282.197 11.5556 281.583L10.3164 283.153ZM11.408 287.616C11.408 289.974 11.0919 294.371 10.77 299.392C10.4502 304.382 10.128 309.948 10.128 314.56H12.128C12.128 310.02 12.4458 304.514 12.766 299.52C13.0841 294.557 13.408 290.058 13.408 287.616H11.408ZM10.128 314.56C10.128 320.675 11.5157 325.128 14.2452 328.051C16.9877 330.987 20.916 332.2 25.592 332.2V330.2C21.244 330.2 17.9403 329.077 15.7068 326.685C13.4603 324.28 12.128 320.413 12.128 314.56H10.128ZM25.592 332.2C39.2211 332.2 49.0667 322.952 53.3376 312.176L51.4784 311.44C47.4293 321.656 38.2029 330.2 25.592 330.2V332.2ZM52.9847 310.991L51.8967 310.223L50.7433 311.857L51.8313 312.625L52.9847 310.991ZM50.5391 310.415C45.0528 317.273 35.528 322.84 26.616 322.84V324.84C36.264 324.84 46.3232 318.887 52.1009 311.665L50.5391 310.415ZM26.616 322.84C22.873 322.84 20.8707 322.152 19.7371 320.885C18.5755 319.587 18.08 317.422 18.08 313.792H16.08C16.08 317.458 16.5445 320.317 18.2469 322.219C19.9774 324.152 22.743 324.84 26.616 324.84V322.84ZM18.08 313.792C18.08 306.466 19.4096 297.774 20.7449 291.67L18.7911 291.242C17.4384 297.426 16.08 306.27 16.08 313.792H18.08ZM20.7455 291.667C21.0626 290.197 21.6029 289.253 22.1069 288.408C22.589 287.6 23.2 286.664 23.2 285.44H21.2C21.2 286.008 20.947 286.448 20.3891 287.384C19.8531 288.283 19.1774 289.451 18.7905 291.245L20.7455 291.667ZM23.2 285.44C23.2 284.432 22.6536 283.411 21.9738 282.533C21.2686 281.622 20.3033 280.714 19.2205 279.909C17.0865 278.323 14.2905 276.989 11.8469 276.952L11.8171 278.952C13.6615 278.979 16.0495 280.045 18.0275 281.515C19.0007 282.238 19.8234 283.022 20.3922 283.757C20.9864 284.525 21.2 285.104 21.2 285.44H23.2ZM11.832 276.952C9.95142 276.952 8.10376 277.674 6.42869 278.294L7.12331 280.17C8.90424 279.51 10.3846 278.952 11.832 278.952V276.952ZM5.776 279.232V280.256H7.776V279.232H5.776ZM19.192 385.12H18.192V385.987L19.0506 386.11L19.192 385.12ZM22.968 386.272L22.4823 387.146L22.4939 387.152L22.968 386.272ZM24.248 388.064L25.2435 387.969L25.2413 387.946L25.238 387.923L24.248 388.064ZM24.696 399.968L23.6963 399.994L23.6967 400.01L23.6977 400.026L24.696 399.968ZM32.312 416.16L31.8139 417.027L31.8184 417.03L32.312 416.16ZM36.792 411.872L36.3532 412.771L36.3573 412.773L36.792 411.872ZM29.752 410.72L30.7452 410.603L30.7443 410.596L30.7434 410.589L29.752 410.72ZM30.392 390.24L29.4537 389.894L29.4466 389.914L29.4403 389.933L30.392 390.24ZM19.192 384.608L18.6373 383.776L18.192 384.073V384.608H19.192ZM27.768 393.824L27.9324 392.838L26.7265 392.637L26.7686 393.858L27.768 393.824ZM27.832 395.68L26.8326 395.714L26.8507 396.241L27.2951 396.524L27.832 395.68ZM41.528 396.96L41.9088 397.885L41.9269 397.877L41.9447 397.869L41.528 396.96ZM35.576 392.672L35.2287 391.734L35.2218 391.737L35.215 391.739L35.576 392.672ZM19.0506 386.11C19.9059 386.232 21.4903 386.595 22.4824 387.146L23.4536 385.398C22.1417 384.669 20.2701 384.264 19.3334 384.13L19.0506 386.11ZM22.4939 387.152C22.8396 387.339 22.9816 387.474 23.0583 387.581C23.1321 387.685 23.207 387.848 23.2581 388.205L25.238 387.923C25.161 387.384 25.0119 386.875 24.6857 386.419C24.3624 385.966 23.9284 385.653 23.4421 385.392L22.4939 387.152ZM23.2525 388.159C23.3763 389.459 23.6318 397.475 23.6963 399.994L25.6957 399.942C25.6322 397.469 25.3757 389.357 25.2435 387.969L23.2525 388.159ZM23.6977 400.026C23.8899 403.359 24.144 406.722 24.144 412.832H26.144C26.144 406.654 25.8861 403.233 25.6943 399.91L23.6977 400.026ZM24.144 412.832C24.144 414.842 23.5709 416.021 22.6542 416.742C21.6847 417.503 20.1345 417.912 17.848 417.912V419.912C20.2975 419.912 22.3953 419.489 23.8898 418.314C25.4371 417.099 26.144 415.238 26.144 412.832H24.144ZM17.848 417.912C16.6639 417.912 15.69 417.702 15.0515 417.364C14.4377 417.039 14.24 416.672 14.24 416.288H12.24C12.24 417.632 13.0663 418.577 14.1165 419.132C15.142 419.674 16.4721 419.912 17.848 419.912V417.912ZM14.24 416.288C14.24 415.884 14.5201 415.264 15.5256 414.694C16.5168 414.131 18.0929 413.704 20.28 413.704V411.704C17.8591 411.704 15.9152 412.173 14.5384 412.954C13.1759 413.728 12.24 414.9 12.24 416.288H14.24ZM20.28 413.704C25.3466 413.704 28.8815 415.343 31.8139 417.027L32.8101 415.293C29.7265 413.521 25.8374 411.704 20.28 411.704V413.704ZM31.8184 417.03C34.076 418.311 35.6395 419.798 37.0572 421.053C38.3939 422.236 39.8086 423.432 41.592 423.432V421.432C40.6874 421.432 39.8301 420.836 38.3828 419.555C37.0165 418.346 35.284 416.697 32.8056 415.29L31.8184 417.03ZM41.592 423.432C42.5313 423.432 43.4406 423.142 44.1116 422.446C44.7797 421.754 45.088 420.788 45.088 419.68H43.088C43.088 420.428 42.8843 420.838 42.6724 421.058C42.4634 421.274 42.1247 421.432 41.592 421.432V423.432ZM45.088 419.68C45.088 417.666 43.9838 415.919 42.5285 414.506C41.0644 413.085 39.1379 411.894 37.2268 410.971L36.3573 412.773C38.1581 413.642 39.8796 414.723 41.1355 415.942C42.4002 417.169 43.088 418.43 43.088 419.68H45.088ZM37.2308 410.973C34.3872 409.585 29.6273 407.864 23.928 407.864V409.864C29.2367 409.864 33.6928 411.471 36.3532 412.771L37.2308 410.973ZM23.928 407.864C20.1858 407.864 16.6703 408.517 14.0521 409.965C11.3918 411.436 9.616 413.767 9.616 416.992H11.616C11.616 414.649 12.8482 412.916 15.0199 411.715C17.2337 410.491 20.3742 409.864 23.928 409.864V407.864ZM9.616 416.992C9.616 419.598 10.8665 421.625 12.8693 422.96C14.8352 424.271 17.4962 424.904 20.408 424.904V422.904C17.7518 422.904 15.5168 422.321 13.9787 421.296C12.4775 420.295 11.616 418.866 11.616 416.992H9.616ZM20.408 424.904C24.675 424.904 27.4882 423.896 29.2273 422.195C30.9731 420.487 31.456 418.257 31.456 416.224H29.456C29.456 417.967 29.0429 419.577 27.8287 420.765C26.6078 421.96 24.397 422.904 20.408 422.904V424.904ZM31.456 416.224C31.456 415.183 31.3338 414.288 31.1864 413.404C31.0371 412.508 30.8694 411.659 30.7452 410.603L28.7589 410.837C28.8906 411.957 29.0749 412.9 29.2136 413.732C29.3542 414.576 29.456 415.345 29.456 416.224H31.456ZM30.7434 410.589C30.3028 407.253 30.176 403.843 30.176 401.504H28.176C28.176 403.901 28.3052 407.403 28.7606 410.851L30.7434 410.589ZM30.176 401.504C30.176 400.272 30.3164 397.99 30.5391 395.755C30.7652 393.485 31.0623 391.419 31.3437 390.547L29.4403 389.933C29.0817 391.045 28.7708 393.331 28.5489 395.557C28.3236 397.818 28.176 400.176 28.176 401.504H30.176ZM31.3303 390.586C31.5 390.125 31.7406 389.843 32.0937 389.318C32.4322 388.815 32.8 388.166 32.8 387.232H30.8C30.8 387.578 30.6878 387.825 30.4343 388.202C30.1954 388.557 29.732 389.139 29.4537 389.894L31.3303 390.586ZM32.8 387.232C32.8 386.422 32.4167 385.671 31.926 385.053C31.4246 384.422 30.7397 383.838 29.9621 383.341C28.4136 382.353 26.3576 381.624 24.312 381.624V383.624C25.9144 383.624 27.6024 384.207 28.8859 385.027C29.5243 385.434 30.0274 385.878 30.36 386.297C30.7033 386.729 30.8 387.05 30.8 387.232H32.8ZM24.312 381.624C22.127 381.624 19.9834 382.879 18.6373 383.776L19.7467 385.44C21.0886 384.545 22.785 383.624 24.312 383.624V381.624ZM18.192 384.608V385.12H20.192V384.608H18.192ZM26.7686 393.858L26.8326 395.714L28.8314 395.646L28.7674 393.79L26.7686 393.858ZM27.2951 396.524C27.9828 396.961 29.0531 397.664 30.201 398.25C31.3212 398.823 32.6688 399.368 33.912 399.368V397.368C33.1712 397.368 32.1828 397.017 31.111 396.47C30.0669 395.936 29.0892 395.295 28.3689 394.836L27.2951 396.524ZM33.912 399.368C37.2657 399.368 40.7233 398.373 41.9088 397.885L41.1473 396.035C40.1567 396.443 36.9583 397.368 33.912 397.368V399.368ZM41.9447 397.869C42.7975 397.478 43.4561 397.014 43.8862 396.393C44.3291 395.754 44.448 395.066 44.448 394.4H42.448C42.448 394.822 42.375 395.062 42.2418 395.255C42.0959 395.466 41.7945 395.738 41.1113 396.051L41.9447 397.869ZM44.448 394.4C44.448 392.617 43.2987 391.579 42.0721 391.044C40.8819 390.524 39.4756 390.392 38.456 390.392V392.392C39.3564 392.392 40.4461 392.516 41.2719 392.876C42.0613 393.221 42.448 393.687 42.448 394.4H44.448ZM38.456 390.392C38.2247 390.392 38.0316 390.471 37.9841 390.489C37.8977 390.523 37.8087 390.565 37.7308 390.603C37.5843 390.674 37.3591 390.79 37.1448 390.898C36.6832 391.128 36.0465 391.431 35.2287 391.734L35.9233 393.61C36.8335 393.273 37.5408 392.936 38.0392 392.686C38.3049 392.554 38.4637 392.47 38.6052 392.401C38.6713 392.369 38.7023 392.356 38.7119 392.352C38.7604 392.333 38.6393 392.392 38.456 392.392V390.392ZM35.215 391.739C34.2817 392.101 33.1485 392.423 32.0966 392.655C31.028 392.891 30.1211 393.016 29.624 393.016V395.016C30.3429 395.016 31.4201 394.853 32.5274 394.609C33.6515 394.361 34.8863 394.011 35.937 393.605L35.215 391.739ZM29.624 393.016C29.1316 393.016 28.6842 392.963 27.9324 392.838L27.6036 394.81C28.3878 394.941 28.9644 395.016 29.624 395.016V393.016Z" fill="#F1F1F1"></path></svg>