<svg width="53" height="424" fill="none" xmlns="http://www.w3.org/2000/svg"><path opacity=".2" d="m1.528 10.144.692-.722-.57-.546-.663.427.541.841Zm-.896.576-.54-.841-.66.423.254.742.946-.324Zm35.648 4.288.356.935.008-.003.007-.003-.371-.929Zm-5.76-5.056.463.886h.002l-.465-.886ZM11.96 3.104h-1v.712l.673.233.327-.945Zm3.776 1.536-.514.858.007.004.507-.862Zm1.216 2.56.996.09v-.007l-.996-.083Zm-1.728 9.984.976.22.001-.008.002-.007-.979-.205ZM9.912 35.808l-.883-.47-.012.023-.011.024.906.423Zm6.592 5.504.755.656.009-.01.01-.012-.774-.634Zm14.464 9.28-.34-.94-.014.005-.015.006.369.929Zm-13.952 3.2-.093-.996-.997.093.094.998.996-.095Zm.128 1.344-.995.095.078.826.827.075.09-.996Zm.448-22.144-.533-.846-.011.007-.01.007.554.832Zm-.704-.512-.966-.26-.004.018-.004.017.974.225Zm4.16-15.296.969.248.001-.005-.97-.243Zm1.92-7.552.958.287.004-.012-.962-.275ZM11.96 2.144l-.377-.926-.623.254v.672h1ZM.987 9.303l-.896.576 1.082 1.682.896-.576L.987 9.303Zm-1.301 1.74c1.295 3.79 2.67 6.25 4.574 7.724 1.933 1.496 4.245 1.849 7.06 1.849v-2c-2.69 0-4.441-.351-5.836-1.43-1.423-1.103-2.641-3.09-3.906-6.79l-1.892.647Zm11.634 9.573c10.528 0 21.213-3.11 25.316-4.673l-.712-1.87c-3.96 1.51-14.396 4.543-24.604 4.543v2Zm25.331-4.68c1.478-.59 2.66-1.223 3.479-2.004.861-.82 1.31-1.796 1.31-2.956h-2c0 .568-.191 1.033-.69 1.508-.54.515-1.439 1.034-2.841 1.595l.742 1.857Zm4.789-4.96c0-1.963-1.528-2.975-2.868-3.46-1.371-.497-2.943-.612-3.892-.612v2c.843 0 2.151.109 3.212.492 1.092.395 1.548.919 1.548 1.58h2Zm-6.76-4.072c-.333 0-.645.099-.905.203-.27.108-.57.259-.9.434-.73.387-1.495.83-2.82 1.526l.93 1.77c1.235-.648 2.262-1.23 2.828-1.53.319-.169.541-.278.706-.344.174-.07.206-.059.161-.059v-2Zm-4.623 2.162c-4.01 2.098-11.723 4.174-18.353 4.174v2c6.938 0 14.97-2.148 19.28-4.402l-.928-1.772ZM11.703 13.24c-3.781 0-6.603-1.057-9.484-3.818L.836 10.866C4.1 13.993 7.421 15.24 11.704 15.24v-2Zm-.071-9.191c1.707.591 2.74.939 3.589 1.448l1.028-1.714c-1.07-.643-2.342-1.063-3.963-1.624l-.654 1.89Zm3.596 1.453c.535.315.635.446.677.53.05.1.112.332.05 1.085l1.992.166c.066-.783.064-1.51-.254-2.146-.326-.653-.898-1.034-1.451-1.359l-1.014 1.724Zm.727 1.607c-.186 2.048-.878 5.9-1.71 9.87l1.957.41c.832-3.966 1.547-7.922 1.745-10.098l-1.992-.182Zm-1.708 9.856a259.058 259.058 0 0 1-2.477 10.062c-.993 3.67-2.006 6.927-2.742 8.311l1.766.94c.864-1.624 1.93-5.12 2.906-8.729.99-3.658 1.92-7.576 2.499-10.145l-1.952-.44Zm-5.242 18.42c-.424.909-.743 1.397-1 1.843-.273.474-.502.945-.502 1.652h2c0-.189.027-.294.234-.652.223-.386.608-.986 1.08-1.997l-1.812-.846ZM7.504 38.88c0 1.567.602 3.362 1.46 4.762.432.707.958 1.36 1.554 1.845.59.481 1.324.857 2.146.857v-2c-.202 0-.5-.096-.882-.407-.376-.306-.762-.766-1.113-1.34-.71-1.159-1.165-2.596-1.165-3.717h-2Zm5.16 7.464c1.492 0 2.394-1.029 2.987-1.902.3-.441.589-.948.839-1.362.266-.44.509-.813.769-1.112l-1.51-1.312c-.38.437-.697.936-.971 1.39-.29.48-.521.89-.781 1.272-.527.775-.905 1.026-1.333 1.026v2Zm4.613-4.398c2.019-2.46 4.826-5.452 7.958-7.82 3.156-2.387 6.507-4.038 9.637-4.038v-2c-3.782 0-7.567 1.965-10.843 4.442-3.3 2.496-6.22 5.616-8.298 8.148l1.546 1.268Zm17.595-11.858c2.429 0 4.218.873 5.407 2.171 1.2 1.312 1.849 3.124 1.849 5.085h2c0-2.392-.792-4.707-2.374-6.435-1.596-1.742-3.935-2.821-6.882-2.821v2Zm7.256 7.256c0 2.194-.623 4.429-2.327 6.52-1.717 2.107-4.582 4.132-9.172 5.787l.678 1.882c4.818-1.737 8.033-3.936 10.044-6.405 2.024-2.485 2.777-5.178 2.777-7.784h-2ZM30.599 49.663c-4.247 1.686-8.951 2.692-13.676 3.133l.186 1.992c4.875-.455 9.771-1.497 14.228-3.267l-.738-1.858ZM16.02 53.887l.128 1.344 1.992-.19-.128-1.344-1.992.19Zm1.034 2.245c8.259.745 16.735-.023 23.192-2.629 6.469-2.61 11.114-7.176 11.114-14.047h-2c0 5.737-3.803 9.747-9.862 12.193-6.07 2.45-14.203 3.218-22.264 2.491l-.18 1.992ZM51.36 39.456c0-3.65-1.248-7.185-3.906-9.808C44.792 27.02 40.81 25.4 35.512 25.4v2c4.88 0 8.32 1.484 10.538 3.672 2.222 2.193 3.31 5.187 3.31 8.384h2ZM35.512 25.4c-6.636 0-12.025 2.696-18.453 6.746l1.066 1.692c6.372-4.014 11.35-6.438 17.387-6.438v-2Zm-18.475 6.76c-.174.116-.241.143-.237.141.005-.001.08-.029.202-.026a.845.845 0 0 1 .787.606c.023.084.02.135.02.126 0-.023.01-.11.053-.302l-1.948-.45a3.618 3.618 0 0 0-.105.704c-.003.16-.006.68.425 1.044.485.41 1.042.25 1.228.186.239-.084.475-.225.685-.365l-1.11-1.664Zm.817.58c.695-2.593 2.818-10.059 4.163-15.308l-1.938-.496c-1.343 5.247-3.444 12.629-4.157 15.285l1.932.518Zm4.164-15.314c.778-3.11 1.34-5.616 1.908-7.507l-1.916-.574c-.585 1.95-1.174 4.563-1.932 7.597l1.94.485Zm1.912-7.52c.333-1.166.82-1.831 1.288-2.48.473-.654 1.054-1.437 1.054-2.658h-2c0 .507-.187.812-.674 1.486-.491.68-1.157 1.582-1.591 3.103l1.922.55Zm2.342-5.138c0-.849-.496-1.558-1.05-2.082-.573-.543-1.347-1.022-2.214-1.42-1.737-.795-4.023-1.338-6.312-1.338v2c2 0 4.001.48 5.48 1.157.74.34 1.307.708 1.672 1.053.384.364.424.583.424.63h2Zm-9.576-4.84c-1.75 0-3.383.585-5.113 1.29l.754 1.852c1.726-.703 3.037-1.142 4.359-1.142v-2ZM10.96 2.144v.96h2v-.96h-2Zm8.232 106.976h-1v.867l.859.123.141-.99Zm3.776 1.152-.486.874.012.006.474-.88Zm1.28 1.792.995-.095-.002-.023-.003-.023-.99.141Zm.448 11.904-1 .026v.016l.002.016.998-.058Zm7.616 16.192-.498.867.004.003.494-.87Zm4.48-4.288-.439.899.004.002.435-.901Zm-7.04-1.152.993-.117v-.007l-.002-.007-.991.131Zm.64-20.48-.938-.346-.007.02-.007.019.952.307Zm-11.2-5.632-.555-.832-.445.297v.535h1Zm8.576 9.216.164-.986-1.205-.201.042 1.221.999-.034Zm.064 1.856-1 .034.019.527.444.283.537-.844Zm13.696 1.28.38.925.019-.008.018-.008-.417-.909Zm-5.952-4.288-.347-.938-.007.003-.007.002.361.933Zm-16.525-6.562c.855.122 2.44.485 3.431 1.036l.972-1.748c-1.312-.729-3.184-1.134-4.12-1.268l-.283 1.98Zm3.443 1.042c.346.187.488.322.564.429.074.104.149.267.2.624l1.98-.282c-.077-.539-.226-1.048-.552-1.504-.324-.453-.758-.766-1.244-1.027l-.948 1.76Zm.759 1.007c.123 1.3.379 9.316.443 11.835l2-.052c-.064-2.473-.32-10.585-.453-11.973l-1.99.19Zm.445 11.867c.192 3.333.446 6.696.446 12.806h2c0-6.178-.258-9.599-.45-12.922l-1.996.116Zm.446 12.806c0 2.01-.573 3.189-1.49 3.91-.97.761-2.52 1.17-4.806 1.17v2c2.45 0 4.547-.423 6.042-1.598 1.547-1.215 2.254-3.076 2.254-5.482h-2Zm-6.296 5.08c-1.184 0-2.158-.21-2.796-.548-.614-.325-.812-.692-.812-1.076h-2c0 1.344.826 2.289 1.877 2.844 1.025.542 2.355.78 3.731.78v-2Zm-3.608-1.624c0-.404.28-1.024 1.286-1.594.99-.563 2.567-.99 4.754-.99v-2c-2.42 0-4.365.469-5.742 1.25-1.362.774-2.298 1.946-2.298 3.334h2Zm6.04-2.584c5.067 0 8.601 1.639 11.534 3.323l.996-1.734c-3.084-1.772-6.973-3.589-12.53-3.589v2Zm11.538 3.326c2.258 1.281 3.821 2.768 5.24 4.023 1.336 1.183 2.75 2.379 4.534 2.379v-2c-.905 0-1.762-.596-3.21-1.877-1.365-1.209-3.098-2.858-5.576-4.265l-.988 1.74Zm9.774 6.402c.94 0 1.849-.29 2.52-.986.668-.692.976-1.658.976-2.766h-2c0 .748-.204 1.158-.416 1.378-.209.216-.547.374-1.08.374v2Zm3.496-3.752c0-2.014-1.104-3.761-2.56-5.174-1.464-1.421-3.39-2.612-5.301-3.535l-.87 1.802c1.801.869 3.523 1.95 4.779 3.169 1.264 1.227 1.952 2.488 1.952 3.738h2Zm-7.857-8.707c-2.844-1.388-7.604-3.109-13.303-3.109v2c5.309 0 9.765 1.607 12.425 2.907l.878-1.798Zm-13.303-3.109c-3.742 0-7.258.653-9.876 2.101-2.66 1.471-4.436 3.802-4.436 7.027h2c0-2.343 1.232-4.076 3.404-5.277 2.214-1.224 5.354-1.851 8.908-1.851v-2Zm-14.312 9.128c0 2.606 1.25 4.633 3.253 5.968 1.966 1.311 4.627 1.944 7.539 1.944v-2c-2.656 0-4.891-.583-6.43-1.608-1.5-1.001-2.362-2.43-2.362-4.304h-2Zm10.792 7.912c4.267 0 7.08-1.008 8.82-2.709 1.745-1.708 2.228-3.938 2.228-5.971h-2c0 1.743-.413 3.353-1.627 4.541-1.221 1.195-3.432 2.139-7.421 2.139v2Zm11.048-8.68c0-1.041-.122-1.936-.27-2.82-.149-.896-.317-1.745-.44-2.801l-1.987.234c.132 1.12.316 2.063.455 2.895.14.844.242 1.613.242 2.492h2Zm-.713-5.635c-.44-3.336-.567-6.746-.567-9.085h-2c0 2.397.13 5.899.585 9.347l1.982-.262Zm-.567-9.085c0-1.232.14-3.514.363-5.749.226-2.27.523-4.336.805-5.208l-1.904-.614c-.358 1.112-.67 3.398-.891 5.624-.225 2.261-.373 4.619-.373 5.947h2Zm1.154-10.918c.17-.461.41-.743.764-1.268.338-.503.706-1.152.706-2.086h-2c0 .346-.112.593-.366.97-.239.355-.702.937-.98 1.692l1.876.692Zm1.47-3.354c0-.81-.383-1.561-.874-2.179-.501-.631-1.186-1.215-1.964-1.712-1.548-.988-3.604-1.717-5.65-1.717v2c1.602 0 3.29.583 4.574 1.403.638.407 1.141.851 1.474 1.27.343.432.44.753.44.935h2Zm-8.488-5.608c-2.185 0-4.329 1.255-5.675 2.152l1.11 1.664c1.342-.895 3.038-1.816 4.565-1.816v-2Zm-6.12 2.984v.512h2v-.512h-2Zm8.577 9.25.064 1.856 1.998-.068-.064-1.856-1.998.068Zm.526 2.666c.688.437 1.758 1.14 2.906 1.726 1.12.573 2.468 1.118 3.711 1.118v-2c-.74 0-1.73-.351-2.801-.899-1.044-.533-2.022-1.174-2.742-1.633l-1.074 1.688Zm6.617 2.844c3.354 0 6.811-.995 7.997-1.483l-.762-1.85c-.99.408-4.189 1.333-7.235 1.333v2Zm8.033-1.499c.852-.391 1.511-.855 1.941-1.476.443-.639.562-1.327.562-1.993h-2c0 .422-.073.662-.206.855-.146.211-.447.483-1.13.796l.833 1.818Zm2.503-3.469c0-1.783-1.15-2.821-2.376-3.356-1.19-.52-2.596-.652-3.616-.652v2c.9 0 1.99.124 2.816.484.79.345 1.176.811 1.176 1.524h2Zm-5.992-4.008c-.231 0-.424.079-.472.097a3.604 3.604 0 0 0-.253.114c-.147.071-.372.187-.586.295-.462.23-1.099.533-1.916.836l.694 1.876a20.53 20.53 0 0 0 2.116-.924c.266-.132.425-.216.566-.285.066-.032.097-.045.107-.049.048-.019-.073.04-.256.04v-2Zm-3.241 1.347c-.933.362-2.067.684-3.118.916-1.069.236-1.976.361-2.473.361v2c.719 0 1.796-.163 2.903-.407 1.124-.248 2.36-.598 3.41-1.004l-.722-1.866Zm-5.591 1.277c-.492 0-.94-.053-1.692-.178l-.328 1.972c.784.131 1.36.206 2.02.206v-2ZM9.528 201.568l.935-.355-.3-.792-.831.166.196.981Zm-.96.192-.196-.981-.57.114-.183.551.949.316Zm-.768 6.144.96-.278-.001-.006-.959.284Zm11.52 2.624-.659-.753-.007.007-.007.006.673.74Zm-6.784 29.056-.262-.965-.978.266.279.974.961-.275Zm.384 1.344-.961.275.232.814.841-.095-.112-.994Zm.768-56.96-.664-.747-.557.495.315.675.906-.423Zm10.752 7.104.561.827 2.025-1.373-2.407-.438-.179.984Zm-7.808 4.864-.515-.857-.794.476.415.828.894-.447Zm.512 1.024-.894.447.395.791.833-.295-.334-.943Zm12.864-3.84.164.986.02-.003.019-.004-.203-.979Zm5.952-.512v1h.03l-.03-1Zm-21.696-9.152.57-.822-.646-.448-.588.523.664.747Zm-4.932 17.131-.96.192.392 1.962.96-.192-.392-1.962Zm-1.713.857c-.327.982-.666 2.144-.854 3.299-.185 1.138-.243 2.369.076 3.445l1.918-.568c-.193-.652-.187-1.533-.02-2.555.164-1.005.465-2.051.778-2.989l-1.898-.632Zm-.78 6.738c.41 1.414 1.444 3.043 2.707 4.315 1.241 1.249 2.909 2.359 4.654 2.359v-2c-.943 0-2.123-.65-3.234-1.769-1.09-1.096-1.91-2.443-2.205-3.461l-1.922.556Zm7.361 6.674c1.362 0 2.511-.679 3.421-1.4.87-.69 1.77-1.642 2.372-2.188l-1.346-1.48c-.807.734-1.442 1.446-2.268 2.1-.786.623-1.493.968-2.179.968v2Zm5.779-3.575c1.272-1.113 3.065-2.624 4.991-3.854 1.96-1.252 3.9-2.107 5.486-2.107v-2c-2.19 0-4.539 1.129-6.562 2.421-2.058 1.314-3.945 2.907-5.232 4.034l1.317 1.506Zm10.477-5.961c1.582 0 2.78.791 3.639 2.393.889 1.657 1.377 4.14 1.377 7.295h2c0-3.309-.504-6.17-1.615-8.241-1.14-2.126-2.95-3.447-5.401-3.447v2Zm5.016 9.688c0 6.08-2.061 10.925-5.936 14.77-3.904 3.873-9.705 6.786-17.262 8.841l.524 1.93c7.739-2.105 13.905-5.144 18.146-9.351 4.27-4.235 6.528-9.598 6.528-16.19h-2Zm-23.898 24.851.385 1.344 1.923-.55-.384-1.344-1.923.55Zm1.458 2.063c10.005-1.13 18.021-3.691 23.555-7.962 5.584-4.31 8.565-10.304 8.565-18.056h-2c0 7.16-2.715 12.558-7.787 16.472-5.122 3.953-12.722 6.448-22.557 7.558l.224 1.988Zm32.12-26.018c0-4.842-1.294-8.872-3.73-11.708-2.45-2.853-5.971-4.396-10.198-4.396v2c3.71 0 6.652 1.337 8.681 3.7 2.045 2.38 3.247 5.902 3.247 10.404h2ZM31.224 199.8c-3.627 0-7.318 1.266-10.475 2.465-1.61.611-3.054 1.195-4.362 1.638-1.318.445-2.362.697-3.147.697v2c1.135 0 2.443-.348 3.787-.803 1.354-.457 2.881-1.073 4.432-1.662 3.163-1.201 6.544-2.335 9.765-2.335v-2Zm-17.984 4.8c-.27 0-.765-.238-1.38-.966-.573-.677-1.079-1.582-1.397-2.421l-1.87.71c.386 1.017 1 2.128 1.74 3.003.696.824 1.705 1.674 2.907 1.674v-2Zm-.458-20.209c2.925 6.269 8.688 7.157 11.48 7.665l.357-1.968c-2.84-.516-7.574-1.292-10.025-6.543l-1.812.846Zm11.096 5.854c-1.765 1.197-5.197 3.295-7.76 4.834l1.029 1.714c2.556-1.533 6.036-3.659 7.855-4.894l-1.123-1.654Zm-8.14 6.138.512 1.024 1.788-.894-.512-1.024-1.788.894Zm1.74 1.52c3.105-1.1 8.961-3.174 12.694-3.797l-.328-1.972c-3.947.657-9.995 2.807-13.034 3.883l.668 1.886Zm12.733-3.804c1.758-.363 4.303-.491 5.749-.491v-2c-1.498 0-4.2.128-6.155.533l.406 1.958Zm5.78-.491c1.188-.036 2.19-.327 2.919-.905a2.913 2.913 0 0 0 1.122-2.335h-2a.92.92 0 0 1-.366.769c-.28.222-.813.443-1.736.471l.06 2Zm4.041-3.24c0-1.758-1.388-3.171-2.854-4.069-1.523-.933-3.478-1.539-5.25-1.539v2c1.364 0 2.961.482 4.206 1.245 1.302.798 1.898 1.689 1.898 2.363h2Zm-8.104-5.608c-.387 0-.791.063-1.182.137-.328.063-.907.187-1.312.265-.954.185-2.135.366-3.65.366v2c1.685 0 3-.203 4.03-.402.587-.114.872-.182 1.304-.263.37-.07.62-.103.81-.103v-2Zm-6.144.768c-3.207 0-7.24-.32-10.95-2.894l-1.14 1.644c4.225 2.93 8.77 3.25 12.09 3.25v-2ZM13.6 182.709l-.576.512 1.328 1.494.576-.512-1.328-1.494Zm-6.824 97.547h-1v.727l.692.224.308-.951Zm4.16 2.112-.684.73.031.029.033.026.62-.785Zm41.472 29.44.93.368.29-.731-.643-.454-.577.817Zm-1.088-.768.577-.817-.77-.543-.588.735.781.625Zm-31.552-19.584.977.214v-.003l-.977-.211Zm-7.936-13.504.015-1h-.015v1Zm-5.056 1.28-.347-.938-.653.242v.696h1Zm-.308 1.975c2.14.693 2.926 1.086 3.784 1.891l1.368-1.46c-1.19-1.115-2.324-1.618-4.536-2.333l-.616 1.902Zm3.848 1.946c.438.346.685.704.846 1.305.178.668.246 1.621.246 3.158h2c0-1.535-.06-2.726-.314-3.674-.271-1.015-.76-1.745-1.538-2.359l-1.24 1.57Zm1.092 4.463c0 2.358-.316 6.755-.638 11.776-.32 4.99-.642 10.556-.642 15.168h2c0-4.54.318-10.046.638-15.04.318-4.963.642-9.462.642-11.904h-2Zm-1.28 26.944c0 6.115 1.388 10.568 4.117 13.491 2.743 2.936 6.671 4.149 11.347 4.149v-2c-4.348 0-7.652-1.123-9.885-3.515-2.247-2.405-3.579-6.272-3.579-12.125h-2Zm15.464 17.64c13.63 0 23.475-9.248 27.746-20.024l-1.86-.736c-4.049 10.216-13.275 18.76-25.886 18.76v2Zm27.393-21.209-1.088-.768-1.154 1.634 1.088.768 1.154-1.634Zm-2.446-.576c-5.486 6.858-15.011 12.425-23.923 12.425v2c9.648 0 19.707-5.953 25.485-13.175l-1.562-1.25ZM26.616 322.84c-3.743 0-5.745-.688-6.879-1.955-1.161-1.298-1.657-3.463-1.657-7.093h-2c0 3.666.465 6.525 2.167 8.427 1.73 1.933 4.496 2.621 8.369 2.621v-2Zm-8.536-9.048c0-7.326 1.33-16.018 2.665-22.122l-1.954-.428c-1.353 6.184-2.711 15.028-2.711 22.55h2Zm2.666-22.125c.317-1.47.857-2.414 1.36-3.259.483-.808 1.094-1.744 1.094-2.968h-2c0 .568-.253 1.008-.81 1.944-.537.899-1.213 2.067-1.6 3.861l1.956.422Zm2.454-6.227c0-1.008-.546-2.029-1.226-2.907-.705-.911-1.67-1.819-2.753-2.624-2.134-1.586-4.93-2.92-7.374-2.957l-.03 2c1.845.027 4.232 1.093 6.21 2.563.974.723 1.796 1.507 2.365 2.242.594.768.808 1.347.808 1.683h2Zm-11.368-8.488c-1.88 0-3.728.722-5.403 1.342l.694 1.876c1.781-.66 3.262-1.218 4.709-1.218v-2Zm-6.056 2.28v1.024h2v-1.024h-2ZM19.192 385.12h-1v.867l.859.123.141-.99Zm3.776 1.152-.486.874.012.006.474-.88Zm1.28 1.792.995-.095-.002-.023-.003-.023-.99.141Zm.448 11.904-1 .026v.016l.002.016.998-.058Zm7.616 16.192-.498.867.004.003.494-.87Zm4.48-4.288-.439.899.004.002.435-.901Zm-7.04-1.152.993-.117v-.007l-.002-.007-.991.131Zm.64-20.48-.938-.346-.007.02-.007.019.952.307Zm-11.2-5.632-.555-.832-.445.297v.535h1Zm8.576 9.216.164-.986-1.205-.201.042 1.221.999-.034Zm.064 1.856-1 .034.019.527.444.283.537-.844Zm13.696 1.28.38.925.019-.008.018-.008-.417-.909Zm-5.952-4.288-.347-.938-.007.003-.007.002.361.933Zm-16.525-6.562c.855.122 2.44.485 3.431 1.036l.972-1.748c-1.312-.729-3.184-1.134-4.12-1.268l-.283 1.98Zm3.443 1.042c.346.187.488.322.564.429.074.104.149.267.2.624l1.98-.282c-.077-.539-.226-1.048-.552-1.504-.324-.453-.758-.766-1.244-1.027l-.948 1.76Zm.759 1.007c.123 1.3.379 9.316.443 11.835l2-.052c-.064-2.473-.32-10.585-.453-11.973l-1.99.19Zm.445 11.867c.192 3.333.446 6.696.446 12.806h2c0-6.178-.258-9.599-.45-12.922l-1.996.116Zm.446 12.806c0 2.01-.573 3.189-1.49 3.91-.97.761-2.52 1.17-4.806 1.17v2c2.45 0 4.547-.423 6.042-1.598 1.547-1.215 2.254-3.076 2.254-5.482h-2Zm-6.296 5.08c-1.184 0-2.158-.21-2.796-.548-.614-.325-.812-.692-.812-1.076h-2c0 1.344.826 2.289 1.877 2.844 1.025.542 2.355.78 3.731.78v-2Zm-3.608-1.624c0-.404.28-1.024 1.286-1.594.99-.563 2.567-.99 4.754-.99v-2c-2.42 0-4.365.469-5.742 1.25-1.362.774-2.298 1.946-2.298 3.334h2Zm6.04-2.584c5.067 0 8.601 1.639 11.534 3.323l.996-1.734c-3.084-1.772-6.973-3.589-12.53-3.589v2Zm11.538 3.326c2.258 1.281 3.821 2.768 5.24 4.023 1.336 1.183 2.75 2.379 4.534 2.379v-2c-.905 0-1.762-.596-3.21-1.877-1.365-1.209-3.098-2.858-5.576-4.265l-.988 1.74Zm9.774 6.402c.94 0 1.849-.29 2.52-.986.668-.692.976-1.658.976-2.766h-2c0 .748-.204 1.158-.416 1.378-.209.216-.547.374-1.08.374v2Zm3.496-3.752c0-2.014-1.104-3.761-2.56-5.174-1.464-1.421-3.39-2.612-5.301-3.535l-.87 1.802c1.801.869 3.523 1.95 4.779 3.169 1.264 1.227 1.952 2.488 1.952 3.738h2Zm-7.857-8.707c-2.844-1.388-7.604-3.109-13.303-3.109v2c5.309 0 9.765 1.607 12.425 2.907l.878-1.798Zm-13.303-3.109c-3.742 0-7.258.653-9.876 2.101-2.66 1.471-4.436 3.802-4.436 7.027h2c0-2.343 1.232-4.076 3.404-5.277 2.214-1.224 5.354-1.851 8.908-1.851v-2Zm-14.312 9.128c0 2.606 1.25 4.633 3.253 5.968 1.966 1.311 4.627 1.944 7.539 1.944v-2c-2.656 0-4.891-.583-6.43-1.608-1.5-1.001-2.362-2.43-2.362-4.304h-2Zm10.792 7.912c4.267 0 7.08-1.008 8.82-2.709 1.745-1.708 2.228-3.938 2.228-5.971h-2c0 1.743-.413 3.353-1.627 4.541-1.221 1.195-3.432 2.139-7.421 2.139v2Zm11.048-8.68c0-1.041-.122-1.936-.27-2.82-.149-.896-.317-1.745-.44-2.801l-1.987.234c.132 1.12.316 2.063.455 2.895.14.844.242 1.613.242 2.492h2Zm-.713-5.635c-.44-3.336-.567-6.746-.567-9.085h-2c0 2.397.13 5.899.585 9.347l1.982-.262Zm-.567-9.085c0-1.232.14-3.514.363-5.749.226-2.27.523-4.336.805-5.208l-1.904-.614c-.358 1.112-.67 3.398-.891 5.624-.225 2.261-.373 4.619-.373 5.947h2Zm1.154-10.918c.17-.461.41-.743.764-1.268.338-.503.706-1.152.706-2.086h-2c0 .346-.112.593-.366.97-.239.355-.702.937-.98 1.692l1.876.692Zm1.47-3.354c0-.81-.383-1.561-.874-2.179-.501-.631-1.186-1.215-1.964-1.712-1.548-.988-3.604-1.717-5.65-1.717v2c1.602 0 3.29.583 4.574 1.403.638.407 1.141.851 1.474 1.27.343.432.44.753.44.935h2Zm-8.488-5.608c-2.185 0-4.329 1.255-5.675 2.152l1.11 1.664c1.342-.895 3.038-1.816 4.565-1.816v-2Zm-6.12 2.984v.512h2v-.512h-2Zm8.577 9.25.064 1.856 1.998-.068-.064-1.856-1.998.068Zm.526 2.666c.688.437 1.758 1.14 2.906 1.726 1.12.573 2.468 1.118 3.711 1.118v-2c-.74 0-1.73-.351-2.801-.898-1.044-.534-2.022-1.175-2.742-1.634l-1.074 1.688Zm6.617 2.844c3.354 0 6.811-.995 7.997-1.483l-.762-1.85c-.99.408-4.189 1.333-7.235 1.333v2Zm8.033-1.499c.852-.391 1.511-.855 1.941-1.476.443-.639.562-1.327.562-1.993h-2c0 .422-.073.662-.206.855-.146.211-.447.483-1.13.796l.833 1.818Zm2.503-3.469c0-1.783-1.15-2.821-2.376-3.356-1.19-.52-2.596-.652-3.616-.652v2c.9 0 1.99.124 2.816.484.79.345 1.176.811 1.176 1.524h2Zm-5.992-4.008c-.231 0-.424.079-.472.097a3.604 3.604 0 0 0-.253.114c-.147.071-.372.187-.586.295-.462.23-1.099.533-1.916.836l.694 1.876a20.53 20.53 0 0 0 2.116-.924c.266-.132.425-.216.566-.285.066-.032.097-.045.107-.049.048-.019-.073.04-.256.04v-2Zm-3.241 1.347c-.933.362-2.067.684-3.118.916-1.069.236-1.976.361-2.473.361v2c.719 0 1.796-.163 2.903-.407 1.124-.248 2.36-.598 3.41-1.004l-.722-1.866Zm-5.591 1.277c-.492 0-.94-.053-1.692-.178l-.328 1.972c.784.131 1.36.206 2.02.206v-2Z" fill="#F1F1F1"/></svg>