<svg width="279" height="59" viewBox="0 0 279 59" fill="none" xmlns="http://www.w3.org/2000/svg">
<g clip-path="url(#clip0_343_906)">
<path d="M139.07 58.1999C157.61 58.1999 174.42 55.0099 186.6 49.8199C192.69 47.2299 197.65 44.1399 201.09 40.6799C204.53 37.2199 206.47 33.3699 206.47 29.2999C206.47 25.2299 204.53 21.3899 201.09 17.9299C197.65 14.4699 192.69 11.3699 186.6 8.7799C174.42 3.5999 157.6 0.399902 139.07 0.399902C120.54 0.399902 103.72 3.5999 91.54 8.7799C85.44 11.3699 80.54 14.4699 77.05 17.9299C73.56 21.3899 71.63 25.2299 71.63 29.2999C71.63 33.3699 73.63 37.2199 77.05 40.6799C80.47 44.1399 85.44 47.2299 91.54 49.8199C103.72 55.0099 120.53 58.1999 139.07 58.1999Z" fill="#EE2019" stroke="white" stroke-width="0.5"/>
<path d="M182.16 40.7798H96.63V41.3398H182.16V40.7798Z" fill="black"/>
<path d="M122.97 46.3798C122.405 46.3136 121.835 46.3136 121.27 46.3798C121.319 46.0483 121.319 45.7114 121.27 45.3798C121.04 44.3798 120.6 43.0598 118.5 44.1598C118.5 44.1598 119.61 45.4098 119.5 46.2598C119.5 46.3532 119.5 46.4632 119.5 46.5898C118.67 46.6898 117.8 46.8098 116.99 46.9398C116.99 46.6998 116.99 46.4898 117.06 46.3198C117.24 45.0998 117.54 43.6198 114.45 44.2598C114.45 44.2598 114 44.9198 114.97 45.4698C114.97 45.4698 115.06 46.3498 115.13 47.2498L113.63 47.4698C113.63 47.4698 112.47 46.7798 112.63 47.3198C112.79 47.8598 113.71 48.9398 114.18 48.7498L115.24 48.2698C115.24 48.4098 115.24 48.5498 115.24 48.6598C115.24 49.6598 114.94 52.4698 117.42 52.8798C118.902 53.2304 120.451 53.1682 121.9 52.6998C122.28 52.4698 122.54 51.1598 121.12 51.0998C119.7 51.0398 117.42 51.7098 117.12 51.0998C116.905 49.9599 116.841 48.7965 116.93 47.6398C117.141 47.5863 117.354 47.5462 117.57 47.5198C118.07 47.4598 118.73 47.4298 119.4 47.4198C119.32 48.2698 119.19 49.1298 118.9 49.0698C118.43 48.9798 117.32 48.6298 117.38 48.8898C117.44 49.1498 118.17 49.8898 118.31 50.2898C118.433 50.4585 118.599 50.5903 118.792 50.6708C118.984 50.7514 119.195 50.7776 119.401 50.7467C119.607 50.7157 119.801 50.6288 119.961 50.4954C120.122 50.3619 120.242 50.1871 120.31 49.9898C120.652 49.1636 120.913 48.3063 121.09 47.4298C121.448 47.4244 121.804 47.4681 122.15 47.5598C122.61 47.7498 124.66 46.7398 122.96 46.3598L122.97 46.3798Z" fill="black"/>
<path d="M128.91 43.4001C129.192 43.7622 129.341 44.2102 129.332 44.669C129.323 45.1278 129.156 45.5696 128.86 45.9201C127.86 47.3901 125.49 51.1101 125.91 52.1501C126.33 53.1901 127.7 53.2701 127.82 52.3501C127.94 51.4301 128.4 49.1701 129.1 48.7801C129.8 48.3901 131.46 47.5401 131.39 49.3601C131.32 51.1801 131.65 53.5101 133.09 53.2001C133.603 53.131 134.09 52.9372 134.511 52.6355C134.931 52.3339 135.271 51.9337 135.5 51.4701C135.66 50.9301 135.93 49.7301 135.07 50.7801C134.21 51.8301 133.33 51.9001 133.13 50.7801C132.93 49.6601 132.86 47.6801 131.39 47.6801C129.92 47.6801 128.82 47.5701 129.99 46.6801C131.16 45.7901 132.71 43.4201 128.91 43.3901V43.4001Z" fill="black"/>
<path d="M145.47 44.7702C145.47 44.7702 144.75 45.5502 143.99 45.2302C143.23 44.9102 142.8 45.9002 143.64 46.1302C144.48 46.3602 145.74 45.8402 144.77 47.0602C143.8 48.2802 142.77 52.3502 144.89 53.1302C147.01 53.9102 149.11 54.0602 149.98 52.7502C150.36 52.1107 150.607 51.4012 150.706 50.6642C150.806 49.9272 150.756 49.1776 150.56 48.4602C150.22 47.5902 150.1 47.1802 150.1 47.1802C150.458 47.5452 150.792 47.9326 151.1 48.3402C151.36 48.7502 152.17 49.2702 152.5 49.0702C152.83 48.8702 153.14 48.5402 152.15 47.3802C151.16 46.2202 150.46 44.3802 149.73 44.5702C149 44.7602 149.01 45.1202 149.44 46.7402C149.87 48.3602 149.88 51.6202 148.39 51.8202C146.9 52.0202 144.49 51.9402 145.19 49.5902C145.89 47.2402 147.89 45.9002 147.34 45.2302C146.79 44.5602 146.17 44.3002 145.48 44.7702H145.47Z" fill="black"/>
<path d="M159.44 43.9501C159.544 44.231 159.59 44.5302 159.575 44.8294C159.559 45.1286 159.483 45.4215 159.35 45.6901C158.89 46.4201 156.03 50.9801 156.06 51.6901C156.09 52.4001 157.29 54.5901 158.06 52.2901C158.83 49.9901 159.93 48.3701 160.71 48.5801C161.49 48.7901 161.44 50.4401 161.56 51.5101C161.68 52.5801 162.87 54.1801 164.06 53.3101C165.25 52.4401 166.27 50.0601 165.34 50.9601C164.41 51.8601 163.27 52.2901 163.24 51.1901C163.21 50.0901 162.98 48.4701 162.42 48.1201C161.667 47.8389 160.843 47.8073 160.07 48.0301C159.66 48.1701 159.6 47.4801 160.33 46.8101C161.06 46.1401 161.9 44.9501 161.2 44.4601C160.5 43.9701 160.2 43.7301 159.46 43.9901L159.44 43.9501Z" fill="black"/>
<path d="M127.825 10.3139L127.8 10.2826L127.767 10.2608C126.041 9.13232 124.79 9.02355 123.839 9.51684C122.921 9.99305 122.367 10.9965 121.936 11.8582C121.694 12.3434 121.569 13.1598 121.51 14.0813C121.449 15.0159 121.454 16.1018 121.494 17.1556C121.534 18.2103 121.608 19.2374 121.688 20.0563C121.766 20.865 121.852 21.4942 121.919 21.7365C121.941 21.8157 121.916 21.9308 121.735 22.0924C121.56 22.2492 121.289 22.398 120.984 22.5205C120.682 22.6418 120.365 22.7299 120.11 22.7736C119.981 22.7956 119.876 22.8051 119.799 22.8042C119.788 22.804 119.778 22.8037 119.768 22.8031C119.76 22.7702 119.752 22.7262 119.744 22.67C119.72 22.5126 119.7 22.2889 119.685 22.007C119.653 21.4447 119.637 20.6759 119.627 19.7972C119.622 19.305 119.618 18.7787 119.614 18.2365C119.604 16.8481 119.593 15.3551 119.55 14.0617C119.548 13.995 119.545 13.9285 119.543 13.8622C119.487 12.1557 119.433 10.5363 119.029 9.31279C118.816 8.67028 118.501 8.11696 118.023 7.71263C117.542 7.30617 116.916 7.06804 116.115 7.02046C114.515 6.92539 113.302 7.66546 112.762 8.60956C112.492 9.08084 112.387 9.61045 112.503 10.1069C112.618 10.6033 112.949 11.0391 113.496 11.332L114.086 11.77L114.087 11.8048C114.092 11.9047 114.099 12.0515 114.107 12.2384C114.124 12.6123 114.147 13.1472 114.174 13.7909C114.227 15.0784 114.295 16.8009 114.349 18.5416C114.403 20.2828 114.445 22.0401 114.447 23.3981C114.448 24.0776 114.44 24.6537 114.418 25.0765C114.407 25.2885 114.394 25.4573 114.377 25.5796C114.369 25.6409 114.361 25.6859 114.353 25.7165C114.35 25.7272 114.348 25.7345 114.347 25.7388C114.26 25.8593 114.073 26.051 113.829 26.2476C113.58 26.4484 113.291 26.6381 113.021 26.7523C112.739 26.872 112.539 26.883 112.424 26.8283C112.334 26.7852 112.204 26.6527 112.19 26.2122C112.177 25.7896 112.211 25.0971 112.253 24.2529C112.257 24.1691 112.261 24.0839 112.265 23.9973C112.312 23.0448 112.362 21.939 112.359 20.8643C112.356 19.792 112.3 18.7377 112.13 17.891C112.046 17.4677 111.931 17.0853 111.773 16.7749C111.616 16.4656 111.406 16.2076 111.121 16.0662C110.713 15.8629 110.47 15.6459 110.319 15.418C110.167 15.1896 110.094 14.9293 110.06 14.6142C110.032 14.3613 110.031 14.0897 110.029 13.7795C110.028 13.6945 110.028 13.6066 110.027 13.5154C110.022 13.0988 110.005 12.6321 109.916 12.1177C109.736 11.0645 108.902 9.51146 107.648 8.50158C107.017 7.99301 106.268 7.61279 105.429 7.51166C104.587 7.41008 103.675 7.59269 102.729 8.17733L102.672 8.21247L102.64 8.27131L102.86 8.39002C102.64 8.27131 102.64 8.27137 102.64 8.27143L102.64 8.27161L102.64 8.27217L102.638 8.27409L102.635 8.28103L102.621 8.30698C102.609 8.32948 102.592 8.3622 102.571 8.40391C102.529 8.48731 102.47 8.60683 102.403 8.75262C102.269 9.04351 102.099 9.44225 101.961 9.86915C101.823 10.2931 101.712 10.7596 101.703 11.1819C101.694 11.5985 101.786 12.0289 102.122 12.3035C102.56 12.6621 102.861 13.1807 102.851 13.9555C102.841 14.7451 102.506 15.8172 101.617 17.2588C101.432 17.5598 101.231 17.8754 101.025 18.2015C100.24 19.4376 99.361 20.8239 98.8286 22.1267C98.4911 22.9525 98.2805 23.7723 98.3322 24.5214C98.3847 25.2837 98.7088 25.9623 99.4115 26.4811C100.027 26.9354 100.518 27.2186 100.899 27.4382C100.922 27.4515 100.945 27.4646 100.967 27.4774C101.366 27.7079 101.6 27.8533 101.759 28.0513C101.908 28.2383 102.008 28.4976 102.055 28.995C102.102 29.4962 102.093 30.2058 102.05 31.27C101.964 33.4223 102.317 35.1968 102.914 36.35C103.213 36.9258 103.582 37.3662 104.009 37.6089C104.446 37.8579 104.93 37.8896 105.406 37.6664C105.426 37.657 105.446 37.6476 105.466 37.6384C105.83 37.468 106.152 37.3172 106.404 37.1068C106.685 36.8715 106.87 36.5713 106.984 36.1214C107.095 35.683 107.14 35.0939 107.146 34.2693C107.152 33.4413 107.117 32.357 107.06 30.92C106.945 28.0527 106.988 25.4044 107.123 23.4296C107.191 22.4415 107.282 21.6271 107.387 21.0402C107.439 20.746 107.494 20.516 107.549 20.3524C107.576 20.2705 107.602 20.2113 107.623 20.1713C107.638 20.1443 107.648 20.1329 107.65 20.1303C107.754 20.057 107.888 19.9942 108.024 19.9647C108.163 19.9346 108.287 19.9424 108.384 19.9872C108.553 20.0645 108.794 20.3382 108.711 21.2474C108.625 22.1896 108.495 24.4014 108.474 26.5963C108.463 27.6939 108.48 28.7914 108.543 29.7259C108.606 30.6498 108.717 31.4472 108.908 31.9233C109.273 32.8316 109.969 33.7965 110.766 34.4463C111.55 35.0858 112.519 35.4822 113.381 35.0539C113.711 34.8904 114.121 34.6542 114.561 34.4011C114.616 34.3689 114.673 34.3365 114.729 34.304C115.237 34.0123 115.78 33.7042 116.304 33.4469C116.831 33.1882 117.322 32.9891 117.726 32.9065C118.143 32.8213 118.385 32.8759 118.511 33.0048C118.75 33.2489 119.207 33.6007 119.77 33.9849C120.337 34.3725 121.027 34.8032 121.741 35.2054C122.455 35.6072 123.197 35.983 123.87 36.2591C124.534 36.5316 125.16 36.72 125.63 36.72C126.481 36.72 127.738 36.6175 128.732 35.5668C129.72 34.5216 130.396 32.5955 130.25 29.0896C130.178 27.3579 130.204 25.4713 130.232 23.5737L130.234 23.46C130.261 21.603 130.289 19.7384 130.225 18.0157C130.16 16.2596 129.999 14.636 129.639 13.3073C129.286 11.9993 128.729 10.9374 127.841 10.3338L127.825 10.3139ZM119.715 22.7958C119.715 22.7958 119.715 22.796 119.716 22.7963L119.715 22.7958ZM124.157 12.1516C124.164 12.1582 124.17 12.164 124.175 12.1687C124.517 12.692 124.722 13.5172 124.824 14.4999C124.926 15.4861 124.921 16.5951 124.868 17.6398C124.814 18.6833 124.713 19.6564 124.625 20.3691C124.581 20.7252 124.541 21.0159 124.511 21.2173C124.506 21.2536 124.501 21.2871 124.496 21.3175L123.269 21.3613C123.268 21.3369 123.267 21.3109 123.265 21.2832C123.257 21.0749 123.244 20.7754 123.231 20.4111C123.203 19.6825 123.171 18.6948 123.149 17.6585C123.127 16.6218 123.116 15.5382 123.132 14.6171C123.149 13.6866 123.193 12.948 123.274 12.5844C123.356 12.2149 123.467 12.0474 123.55 11.9758C123.62 11.9157 123.691 11.9056 123.776 11.925C123.872 11.9469 123.974 12.0056 124.06 12.0703C124.101 12.1012 124.134 12.1304 124.157 12.1516ZM123.065 30.9257C122.977 30.9788 122.907 31.007 122.857 31.0184C122.059 30.9577 121.274 30.788 120.524 30.5144C120.967 30.0936 121.481 29.7531 122.044 29.5095C122.714 29.219 123.439 29.0727 124.169 29.0798C124.255 29.0944 124.283 29.1216 124.291 29.1327C124.302 29.1456 124.318 29.1771 124.315 29.2511C124.307 29.4111 124.209 29.6548 124.029 29.9327C123.854 30.2024 123.623 30.472 123.392 30.6786C123.277 30.7817 123.165 30.8657 123.065 30.9257Z" fill="#FFE30A" stroke="white" stroke-width="0.5"/>
<path d="M148.785 11.0985L149.03 11.15C148.785 11.0985 148.785 11.0986 148.785 11.0987L148.785 11.0989L148.785 11.0994L148.785 11.101L148.784 11.1056L148.781 11.1211C148.779 11.1341 148.775 11.1524 148.772 11.1755C148.764 11.2215 148.756 11.2867 148.748 11.3663C148.734 11.5247 148.726 11.744 148.753 11.9851C148.806 12.4616 149.001 13.0697 149.606 13.4168C149.822 13.5412 149.963 13.6868 150.062 13.862C150.162 14.0414 150.226 14.2653 150.265 14.557C150.304 14.8497 150.317 15.1946 150.327 15.612C150.328 15.6905 150.33 15.7715 150.332 15.8549C150.339 16.2105 150.348 16.6097 150.37 17.0527C150.428 18.1859 150.922 19.7839 151.905 21.031C152.896 22.2883 154.399 23.2035 156.447 22.8973C157.614 22.7229 158.827 22.4535 160.049 22.1822C160.859 22.0023 161.673 21.8215 162.481 21.6668C164.528 21.2749 166.579 21.0386 168.592 21.3472C170.643 21.6615 172.043 21.8023 172.964 21.7152C173.426 21.6714 173.796 21.5682 174.071 21.3772C174.357 21.1792 174.516 20.9036 174.585 20.5703C174.703 19.9966 174.73 19.539 174.647 19.1589C174.561 18.7671 174.361 18.4777 174.069 18.2371C174.047 18.2186 174.043 18.2068 174.041 18.1967C174.037 18.1798 174.036 18.1445 174.054 18.0793C174.093 17.941 174.189 17.7618 174.33 17.5115C174.34 17.4942 174.35 17.4767 174.36 17.4589C174.627 16.9865 174.989 16.3446 175.088 15.5639C175.211 14.7272 175.162 13.8743 174.946 13.0569C174.772 12.3993 174.492 11.7757 174.118 11.21H174.252L173.863 10.7902C173.34 10.225 171.923 9.0512 170.02 8.25684C168.113 7.46086 165.693 7.03627 163.189 8.01727C158.332 9.91996 155.174 11.4636 154.704 11.7084C154.613 11.7562 154.55 11.7708 154.499 11.7716C154.447 11.7724 154.385 11.7596 154.293 11.7163C154.198 11.6716 154.084 11.6008 153.93 11.4959C153.845 11.4373 153.753 11.3727 153.65 11.2998C153.567 11.2407 153.475 11.1762 153.373 11.1049C152.932 10.7975 152.147 10.2578 151.307 10.0464C150.884 9.93958 150.429 9.91186 149.991 10.0525C149.548 10.1946 149.146 10.5006 148.819 11.016L148.795 11.0542L148.785 11.0985ZM164.628 17.2528L164.47 17.2718C162.035 17.5651 159.628 18.0526 157.271 18.7298L157.258 18.7334L157.246 18.7383C156.838 18.9037 156.535 19.0208 156.294 19.0939C156.053 19.1671 155.892 19.19 155.764 19.1807C155.519 19.1629 155.33 19.0256 154.864 18.6211C154.695 18.4747 154.584 18.2482 154.523 17.9603C154.462 17.6736 154.455 17.3483 154.477 17.0347C154.498 16.7227 154.547 16.4323 154.591 16.2191C154.611 16.1211 154.629 16.04 154.644 15.9815C154.664 15.9746 154.688 15.9673 154.718 15.9599C154.8 15.94 154.905 15.9239 155.036 15.9114C155.297 15.8862 155.629 15.8775 156.02 15.87C156.07 15.869 156.12 15.8681 156.172 15.8671C156.919 15.8533 157.835 15.8363 158.745 15.7076C160.513 15.4576 161.977 14.6546 164.637 13.1959C164.935 13.0321 165.249 12.86 165.58 12.6795C166.4 12.2323 166.998 11.9703 167.434 11.8505C167.877 11.7287 168.098 11.7691 168.212 11.8429C168.325 11.9155 168.413 12.0696 168.461 12.3805C168.509 12.6871 168.51 13.0782 168.51 13.55C168.51 13.9357 168.32 14.3577 167.985 14.7915C167.653 15.2218 167.198 15.6384 166.716 16.0078C166.234 16.3762 165.733 16.6916 165.315 16.9211C165.106 17.0358 164.921 17.1279 164.77 17.194C164.716 17.2177 164.669 17.2372 164.628 17.2528Z" fill="#FFE30A" stroke="white" stroke-width="0.5"/>
<path d="M177.032 29.3716L177.044 29.36L177.028 29.2381C176.87 28.0184 176.522 26.6462 175.667 25.4706C174.807 24.288 173.45 23.3261 171.318 22.9049C169.208 22.4878 166.429 22.5279 163.888 22.8003C161.351 23.0724 159.01 23.5805 157.779 24.1213C156.585 24.6458 155.265 25.1843 154.2 25.4766C153.665 25.6234 153.214 25.7025 152.884 25.6949C152.539 25.687 152.426 25.5914 152.391 25.5056C152.284 25.2428 152.015 24.7997 151.651 24.3322C151.283 23.8613 150.804 23.347 150.264 22.95C149.728 22.5555 149.107 22.2583 148.463 22.2663C147.802 22.2745 147.167 22.6023 146.618 23.3525L146.566 23.4232L146.57 23.5109L146.82 23.5002L146.57 23.511L146.57 23.5111L146.57 23.5114L146.57 23.5126L146.57 23.5166L146.571 23.5314C146.572 23.5441 146.573 23.5625 146.574 23.5858C146.577 23.6324 146.582 23.6987 146.589 23.7785C146.602 23.9377 146.625 24.1532 146.662 24.3751C146.699 24.5946 146.751 24.8316 146.827 25.0287C146.865 25.1271 146.913 25.2251 146.973 25.3081C147.033 25.3899 147.118 25.4746 147.238 25.5162C147.242 25.5177 147.276 25.5296 147.311 25.6328C147.345 25.7355 147.365 25.8871 147.368 26.0857C147.372 26.4806 147.308 26.9871 147.233 27.4934C147.155 28.0151 147.027 29.6354 147.084 31.2775C147.112 32.0991 147.187 32.9359 147.341 33.6481C147.492 34.347 147.73 34.9788 148.122 35.3351L148.122 35.3353L148.13 35.3421C149.326 36.3408 150.714 37.0845 152.209 37.5276C153.703 37.9705 155.272 38.1036 156.819 37.9184C157.927 37.7883 159.107 37.6217 160.262 37.4587C161.183 37.3287 162.089 37.201 162.929 37.0957C163.884 36.976 164.765 36.8837 165.516 36.8455C166.272 36.8069 166.876 36.8244 167.287 36.9144C167.686 37.0019 168.169 37.1228 168.696 37.255C168.75 37.2685 168.805 37.2821 168.859 37.2958C169.449 37.4433 170.085 37.601 170.709 37.7369C171.333 37.8727 171.949 37.9879 172.498 38.0492C173.042 38.11 173.543 38.1211 173.926 38.0339C174.671 37.8639 175.649 37.2259 176.273 36.4138C176.588 36.0043 176.827 35.5333 176.891 35.0364C176.956 34.5319 176.839 34.0155 176.467 33.5368C176.16 33.1403 176.078 32.8583 176.085 32.6304C176.092 32.3922 176.195 32.1674 176.36 31.8733C176.385 31.8284 176.411 31.7826 176.437 31.7357C176.747 31.1918 177.143 30.4955 177.032 29.3716ZM152.465 29.8457C152.505 29.7406 152.541 29.6527 152.568 29.5872C156.102 29.3135 157.06 30.4103 157.249 30.7673C157.256 30.7805 157.275 30.8499 157.193 31.0308C157.117 31.198 156.981 31.4016 156.802 31.6295C156.503 32.0105 156.113 32.4221 155.759 32.7962C155.69 32.8686 155.623 32.9397 155.558 33.0089L155.392 33.1857C155.078 33.398 154.654 33.4769 154.178 33.4183C153.59 33.346 152.959 33.0658 152.455 32.6224C152.247 32.4395 152.136 32.172 152.1 31.8416C152.064 31.51 152.106 31.1366 152.184 30.7771C152.262 30.4197 152.373 30.0885 152.465 29.8457ZM168.146 30.1402H168.133L168.069 30.184C167.532 30.5519 166.928 30.8096 166.29 30.9419C165.695 31.0656 165.082 31.0774 164.483 30.9773C164.009 29.9405 163.593 28.8782 163.237 27.7953C165.086 26.6175 166.858 26.266 168.228 26.2789C168.933 26.2856 169.529 26.3889 169.971 26.5244C170.193 26.5921 170.372 26.6668 170.505 26.739C170.644 26.8142 170.715 26.8765 170.74 26.9107C170.767 26.9458 170.798 27.0609 170.682 27.3368C170.574 27.5918 170.37 27.9057 170.098 28.2468C169.573 28.9051 168.828 29.6204 168.146 30.1402Z" fill="#FFE30A" stroke="white" stroke-width="0.5"/>
<path d="M62.12 12.9198C61.35 9.79977 54.67 8.66976 53.72 8.52976C52.77 8.38976 53.23 6.75976 52.81 5.31976C52.7747 5.13518 52.697 4.96135 52.5829 4.81204C52.4688 4.66273 52.3214 4.54205 52.1526 4.45957C51.9837 4.37709 51.798 4.33506 51.6101 4.33683C51.4222 4.3386 51.2373 4.38412 51.07 4.46976C50.92 6.34976 49.8 6.07976 49.53 5.95976C49.26 5.83976 49.1 4.44976 48.53 4.28976C47.96 4.12976 47.53 5.62977 47.05 9.90977C46.57 14.1898 43.05 16.2498 39.4 17.2498C35.75 18.2498 31.76 22.2498 28.85 27.9298C25.94 33.6098 29.07 41.9298 29.85 44.5898C30.63 47.2498 28.43 44.4998 26.37 38.5898C24.31 32.6798 30.29 19.4698 21.76 13.2398C13.23 7.00977 6.03 10.4698 2.27 16.3198C-1.73 22.4698 1.63 29.7198 3.74 33.2498C5.85 36.7798 10.82 36.9198 10.82 36.9198C10.82 36.9198 11.05 36.6998 9.96 33.2498C8.87 29.7998 10.23 28.1398 11.82 27.8198C13.41 27.4998 13.32 28.6798 14.18 38.0098C15.04 47.3398 23.18 51.6398 28.98 52.7298C34.78 53.8198 50.78 51.6698 53.5 50.6198C56.22 49.5698 52 48.7898 50.55 49.0098C49.1 49.2298 49.05 47.8398 50.96 45.0798C52.87 42.3198 51.5 38.5998 49.54 37.0798C49.2265 36.8718 48.9693 36.5895 48.7913 36.2579C48.6134 35.9264 48.5203 35.556 48.5203 35.1798C48.5203 34.8035 48.6134 34.4331 48.7913 34.1016C48.9693 33.7701 49.2265 33.4877 49.54 33.2798C50.6161 32.8629 51.8032 32.8311 52.9 33.1898C52.87 33.651 52.9636 34.1119 53.171 34.5249C53.3784 34.938 53.6922 35.2883 54.08 35.5398C55.29 36.2398 55.72 31.8798 55.5 30.7098C55.28 29.5398 52.9 28.1798 51.99 27.3598C51.08 26.5398 54.92 21.2998 55.32 20.5098C55.72 19.7198 57.59 18.8798 60.04 18.1898C62.49 17.4998 62.9 16.0198 62.13 12.8898L62.12 12.9198ZM56.19 13.3798C56.0164 13.3778 55.8472 13.3245 55.7038 13.2266C55.5605 13.1287 55.4492 12.9906 55.3841 12.8297C55.3191 12.6687 55.3031 12.4921 55.3381 12.322C55.3732 12.152 55.4578 11.9961 55.5813 11.8741C55.7047 11.752 55.8615 11.6692 56.032 11.636C56.2024 11.6029 56.3788 11.6209 56.539 11.6878C56.6992 11.7546 56.8361 11.8674 56.9324 12.0119C57.0286 12.1564 57.08 12.3261 57.08 12.4998C57.08 12.6162 57.0569 12.7314 57.0121 12.8389C56.9672 12.9463 56.9015 13.0437 56.8187 13.1256C56.7359 13.2074 56.6378 13.272 56.5298 13.3157C56.4219 13.3593 56.3064 13.3811 56.19 13.3798V13.3798Z" fill="#137657" stroke="white" stroke-width="0.5"/>
<path d="M218.76 18.22C221.21 18.92 223.09 19.76 223.48 20.55C223.87 21.34 227.72 26.55 226.81 27.4C225.9 28.25 223.51 29.64 223.3 30.75C223.09 31.86 223.51 36.27 224.72 35.58C225.107 35.3254 225.42 34.9731 225.627 34.5587C225.835 34.1442 225.929 33.6824 225.9 33.22C226.997 32.8613 228.184 32.8931 229.26 33.31C229.574 33.5191 229.831 33.8024 230.008 34.1347C230.186 34.467 230.279 34.8381 230.279 35.215C230.279 35.5919 230.186 35.9629 230.008 36.2952C229.831 36.6275 229.574 36.9108 229.26 37.12C227.26 38.6 225.93 42.31 227.84 45.12C229.75 47.93 229.7 49.29 228.25 49.06C226.8 48.83 222.57 49.6 225.25 50.66C227.93 51.72 243.95 53.86 249.76 52.77C255.57 51.68 263.75 47.33 264.63 38C265.51 28.67 265.4 27.5 266.99 27.82C268.58 28.14 269.94 29.82 268.85 33.25C267.76 36.68 267.99 36.92 267.99 36.92C267.99 36.92 272.94 36.78 275.07 33.25C277.2 29.72 280.53 22.47 276.53 16.32C272.77 10.47 265.63 7.02998 257.04 13.23C248.45 19.43 254.49 32.65 252.43 38.56C250.37 44.47 248.13 47.26 248.95 44.56C249.77 41.86 252.89 33.56 249.95 27.89C247.01 22.22 243.08 18.2 239.4 17.21C235.72 16.22 232.24 14.16 231.75 9.87998C231.26 5.59998 230.88 4.09998 230.27 4.25998C229.66 4.41998 229.51 5.79998 229.27 5.91998C229.03 6.03998 227.88 6.31998 227.73 4.43998C227.562 4.35431 227.376 4.30908 227.188 4.30789C226.999 4.3067 226.813 4.34959 226.644 4.43313C226.475 4.51667 226.328 4.63855 226.214 4.78906C226.101 4.93956 226.024 5.11452 225.99 5.29998C225.57 6.73998 225.99 8.37998 225.08 8.51998C224.17 8.65998 217.45 9.77998 216.68 12.91C215.91 16.04 216.32 17.51 218.77 18.21L218.76 18.22ZM221.76 12.49C221.758 12.3131 221.809 12.1397 221.906 11.9918C222.003 11.8439 222.142 11.7283 222.305 11.6597C222.468 11.5911 222.648 11.5726 222.821 11.6067C222.995 11.6407 223.154 11.7256 223.279 11.8507C223.404 11.9758 223.489 12.1353 223.523 12.3088C223.557 12.4824 223.539 12.6622 223.47 12.8252C223.402 12.9882 223.286 13.1271 223.138 13.2242C222.99 13.3212 222.817 13.372 222.64 13.37C222.519 13.3769 222.397 13.3586 222.283 13.3163C222.169 13.2739 222.065 13.2084 221.978 13.1238C221.89 13.0392 221.821 12.9375 221.775 12.8249C221.729 12.7124 221.707 12.5915 221.71 12.47L221.76 12.49Z" fill="#137657" stroke="white" stroke-width="0.5"/>
</g>
<defs>
<clipPath id="clip0_343_906">
<rect width="278.81" height="58.6" fill="white"/>
</clipPath>
</defs>
</svg>
