<svg width="189" height="54" viewBox="0 0 189 54" fill="none" xmlns="http://www.w3.org/2000/svg">
<mask id="path-1-outside-1_338_882" maskUnits="userSpaceOnUse" x="2.37866" y="1.82227" width="55" height="52" fill="black">
<rect fill="white" x="2.37866" y="1.82227" width="55" height="52"/>
<path d="M36.2418 31.9153L55.3867 26.6978C55.3867 26.6978 52.2028 24.676 48.358 25.2722C47.4364 25.4167 44.8856 25.9757 41.5482 26.7397C42.5722 24.3964 43.5636 21.2286 43.5636 21.2286C43.5636 21.2286 47.604 8.70188 48.3161 5.24526C49.0283 1.7933 40.3146 3.22812 37.0656 3.6241C33.8166 4.02007 27.961 6.86643 27.9563 6.86643C26.7647 6.34467 25.615 5.80428 25.2566 5.45024C24.4653 4.65829 21.6911 0.693886 17.176 4.34151H17.5716C17.5716 4.34151 19.7919 8.93947 22.0076 9.25625C24.2279 9.57303 26.2853 9.41464 25.0192 11.8743C23.7531 14.334 21.7609 19.9615 21.4909 18.3776C21.2163 16.7937 17.4925 10.0529 16.4638 10.8448C15.4351 11.6368 15.5142 16.5562 16.0681 18.0609C16.6221 19.5656 14.8021 23.2132 14.8812 24.485C14.9603 25.7521 14.0899 30.0333 16.9432 29.0037C19.7966 27.9742 21.4583 25.0393 24.2325 20.5997C27.0068 16.1602 26.3737 13.8589 28.352 12.1958C29.646 11.1103 30.5956 10.0249 30.9959 9.26557C31.1262 9.31215 31.2007 9.3401 31.2007 9.3401C31.2007 9.3401 33.6584 8.86493 33.5792 9.73608C33.5001 10.6072 31.9966 12.6709 29.7763 13.4629C27.556 14.2548 29.3015 15.7642 29.9346 15.9925C30.5676 16.2254 30.5676 17.4273 30.5676 17.4273C30.5676 17.4273 28.2682 19.0904 26.923 19.8078C25.5778 20.5206 27.6352 24.0098 28.4265 26.3111C28.7569 27.2661 29.497 27.2614 30.2465 26.9307V29.3997C21.328 31.524 12.5399 33.6669 12.5399 33.6669L12.1814 33.0706C12.1814 33.0706 10.0403 29.6233 6.95418 32.7725C3.86344 35.9263 1.3685 40.6826 5.70671 39.6717C9.29085 38.8379 24.9261 34.8735 30.2465 33.5225V41.2184C30.2465 41.2184 30.0091 43.9529 28.2263 44.1346C26.4435 44.3116 24.2465 43.5989 24.065 43.5383C24.0277 43.5243 23.9021 43.5896 23.7298 43.7014C23.9672 43.3473 24.1441 42.9607 24.2419 42.5321C24.7771 40.1469 25.8152 37.1096 22.999 38.3068C22.999 38.3068 20.4994 39.6531 18.7772 39.8115C17.0549 39.9699 13.9037 39.9093 14.3785 42.2293C14.8533 44.5492 16.7105 47.2232 18.6655 46.6875C19.7873 46.38 21.2814 45.8396 22.4544 44.9825C22.3381 45.2526 22.3846 45.4949 22.757 45.616C24.0045 46.0306 27.975 47.9965 29.376 49.8366C30.7771 51.6768 33.0952 53.5215 34.3426 52.8693C35.5901 52.2171 37.0144 52.3942 36.7212 47.4561C36.535 44.3536 36.3488 36.9698 36.2324 31.92L36.2418 31.9153ZM38.988 10.938C39.4628 10.2858 40.0586 6.41921 40.0586 6.41921C40.1378 5.91609 42.1393 6.12106 42.6746 6.41921C43.2099 6.71735 42.5536 10.0482 41.9624 12.1865C41.3666 14.3294 39.9423 14.1477 38.7553 13.8496C37.5684 13.5514 38.5179 11.5902 38.9927 10.9333L38.988 10.938ZM36.7491 18.1354C37.4613 17.581 40.4729 18.1354 40.4729 18.1354C40.4729 18.1354 40.7103 21.783 37.3822 20.7535C36.8422 20.5858 36.5909 20.1199 36.5909 20.1199C36.5909 20.1199 36.0369 18.6944 36.7491 18.1354ZM36.1347 26.7583C36.1347 26.7583 35.0641 25.0906 32.5971 24.9135C32.9602 24.1309 33.7049 22.547 33.9004 22.179C34.0261 21.9367 34.7243 21.8296 35.227 21.415C34.9477 22.3327 35.4039 23.6883 35.4039 23.6883C35.4039 23.6883 36.9027 25.8825 38.2107 27.513C37.5404 27.6667 36.8562 27.8298 36.158 27.9928C36.144 27.2195 36.1347 26.7583 36.1347 26.7583V26.7583Z"/>
</mask>
<path d="M36.2418 31.9153L55.3867 26.6978C55.3867 26.6978 52.2028 24.676 48.358 25.2722C47.4364 25.4167 44.8856 25.9757 41.5482 26.7397C42.5722 24.3964 43.5636 21.2286 43.5636 21.2286C43.5636 21.2286 47.604 8.70188 48.3161 5.24526C49.0283 1.7933 40.3146 3.22812 37.0656 3.6241C33.8166 4.02007 27.961 6.86643 27.9563 6.86643C26.7647 6.34467 25.615 5.80428 25.2566 5.45024C24.4653 4.65829 21.6911 0.693886 17.176 4.34151H17.5716C17.5716 4.34151 19.7919 8.93947 22.0076 9.25625C24.2279 9.57303 26.2853 9.41464 25.0192 11.8743C23.7531 14.334 21.7609 19.9615 21.4909 18.3776C21.2163 16.7937 17.4925 10.0529 16.4638 10.8448C15.4351 11.6368 15.5142 16.5562 16.0681 18.0609C16.6221 19.5656 14.8021 23.2132 14.8812 24.485C14.9603 25.7521 14.0899 30.0333 16.9432 29.0037C19.7966 27.9742 21.4583 25.0393 24.2325 20.5997C27.0068 16.1602 26.3737 13.8589 28.352 12.1958C29.646 11.1103 30.5956 10.0249 30.9959 9.26557C31.1262 9.31215 31.2007 9.3401 31.2007 9.3401C31.2007 9.3401 33.6584 8.86493 33.5792 9.73608C33.5001 10.6072 31.9966 12.6709 29.7763 13.4629C27.556 14.2548 29.3015 15.7642 29.9346 15.9925C30.5676 16.2254 30.5676 17.4273 30.5676 17.4273C30.5676 17.4273 28.2682 19.0904 26.923 19.8078C25.5778 20.5206 27.6352 24.0098 28.4265 26.3111C28.7569 27.2661 29.497 27.2614 30.2465 26.9307V29.3997C21.328 31.524 12.5399 33.6669 12.5399 33.6669L12.1814 33.0706C12.1814 33.0706 10.0403 29.6233 6.95418 32.7725C3.86344 35.9263 1.3685 40.6826 5.70671 39.6717C9.29085 38.8379 24.9261 34.8735 30.2465 33.5225V41.2184C30.2465 41.2184 30.0091 43.9529 28.2263 44.1346C26.4435 44.3116 24.2465 43.5989 24.065 43.5383C24.0277 43.5243 23.9021 43.5896 23.7298 43.7014C23.9672 43.3473 24.1441 42.9607 24.2419 42.5321C24.7771 40.1469 25.8152 37.1096 22.999 38.3068C22.999 38.3068 20.4994 39.6531 18.7772 39.8115C17.0549 39.9699 13.9037 39.9093 14.3785 42.2293C14.8533 44.5492 16.7105 47.2232 18.6655 46.6875C19.7873 46.38 21.2814 45.8396 22.4544 44.9825C22.3381 45.2526 22.3846 45.4949 22.757 45.616C24.0045 46.0306 27.975 47.9965 29.376 49.8366C30.7771 51.6768 33.0952 53.5215 34.3426 52.8693C35.5901 52.2171 37.0144 52.3942 36.7212 47.4561C36.535 44.3536 36.3488 36.9698 36.2324 31.92L36.2418 31.9153ZM38.988 10.938C39.4628 10.2858 40.0586 6.41921 40.0586 6.41921C40.1378 5.91609 42.1393 6.12106 42.6746 6.41921C43.2099 6.71735 42.5536 10.0482 41.9624 12.1865C41.3666 14.3294 39.9423 14.1477 38.7553 13.8496C37.5684 13.5514 38.5179 11.5902 38.9927 10.9333L38.988 10.938ZM36.7491 18.1354C37.4613 17.581 40.4729 18.1354 40.4729 18.1354C40.4729 18.1354 40.7103 21.783 37.3822 20.7535C36.8422 20.5858 36.5909 20.1199 36.5909 20.1199C36.5909 20.1199 36.0369 18.6944 36.7491 18.1354ZM36.1347 26.7583C36.1347 26.7583 35.0641 25.0906 32.5971 24.9135C32.9602 24.1309 33.7049 22.547 33.9004 22.179C34.0261 21.9367 34.7243 21.8296 35.227 21.415C34.9477 22.3327 35.4039 23.6883 35.4039 23.6883C35.4039 23.6883 36.9027 25.8825 38.2107 27.513C37.5404 27.6667 36.8562 27.8298 36.158 27.9928C36.144 27.2195 36.1347 26.7583 36.1347 26.7583V26.7583Z" fill="#1D208B"/>
<path d="M36.2418 31.9153L36.0314 31.1434L35.9549 31.1643L35.884 31.1998L36.2418 31.9153ZM55.3867 26.6978L55.597 27.4696L57.3445 26.9934L55.8155 26.0224L55.3867 26.6978ZM48.358 25.2722L48.2354 24.4817L48.2342 24.4819L48.358 25.2722ZM41.5482 26.7397L40.8151 26.4193L40.1795 27.8737L41.7267 27.5195L41.5482 26.7397ZM43.5636 21.2286L42.8022 20.9831L42.8002 20.9897L43.5636 21.2286ZM48.3161 5.24526L47.5326 5.08362L47.5326 5.08383L48.3161 5.24526ZM27.9563 6.86643L27.6355 7.59926L27.7889 7.66643H27.9563V6.86643ZM25.2566 5.45024L24.6907 6.0157L24.6944 6.01938L25.2566 5.45024ZM17.176 4.34151L16.6732 3.71921L14.9127 5.14151H17.176V4.34151ZM17.5716 4.34151L18.292 3.99363L18.0737 3.54151H17.5716V4.34151ZM22.0076 9.25625L21.8944 10.0482L21.8946 10.0482L22.0076 9.25625ZM21.4909 18.3776L22.2795 18.2432L22.2791 18.241L21.4909 18.3776ZM14.8812 24.485L14.0827 24.5346L14.0827 24.5348L14.8812 24.485ZM28.352 12.1958L27.8379 11.5829L27.8372 11.5834L28.352 12.1958ZM30.9959 9.26557L31.2651 8.51224L30.6118 8.2787L30.2882 8.89249L30.9959 9.26557ZM31.2007 9.3401L30.9196 10.0891L31.1309 10.1684L31.3525 10.1256L31.2007 9.3401ZM29.9346 15.9925L30.2108 15.2417L30.206 15.2399L29.9346 15.9925ZM30.5676 17.4273L31.0365 18.0755L31.3676 17.836L31.3676 17.4273L30.5676 17.4273ZM26.923 19.8078L27.2975 20.5147L27.2994 20.5137L26.923 19.8078ZM28.4265 26.3111L27.6699 26.5712L27.6704 26.5727L28.4265 26.3111ZM30.2465 26.9307H31.0465V25.7031L29.9234 26.1988L30.2465 26.9307ZM30.2465 29.3997L30.4318 30.1779L31.0465 30.0315V29.3997H30.2465ZM12.5399 33.6669L11.8542 34.079L12.1575 34.5836L12.7294 34.4441L12.5399 33.6669ZM12.1814 33.0706L12.8672 32.6584L12.861 32.6485L12.1814 33.0706ZM6.95418 32.7725L7.52555 33.3324L7.52556 33.3324L6.95418 32.7725ZM5.70671 39.6717L5.52543 38.8926L5.52516 38.8926L5.70671 39.6717ZM30.2465 33.5225H31.0465V32.494L30.0496 32.7471L30.2465 33.5225ZM30.2465 41.2184L31.0435 41.2876L31.0465 41.253V41.2184H30.2465ZM28.2263 44.1346L28.3054 44.9307L28.3074 44.9305L28.2263 44.1346ZM24.065 43.5383L23.7839 44.2873L23.7978 44.2925L23.8118 44.2972L24.065 43.5383ZM23.7298 43.7014L23.0654 43.2558L24.1654 44.3724L23.7298 43.7014ZM24.2419 42.5321L25.0218 42.71L25.0224 42.7073L24.2419 42.5321ZM22.999 38.3068L22.686 37.5706L22.6521 37.585L22.6197 37.6025L22.999 38.3068ZM18.6655 46.6875L18.8769 47.459L18.877 47.459L18.6655 46.6875ZM22.4544 44.9825L23.1892 45.2989L24.3482 42.6077L21.9824 44.3365L22.4544 44.9825ZM22.757 45.616L23.0093 44.8568L23.0044 44.8552L22.757 45.616ZM36.7212 47.4561L37.5198 47.4087L37.5198 47.4082L36.7212 47.4561ZM36.2324 31.92L35.8747 31.2044L35.421 31.4313L35.4327 31.9384L36.2324 31.92ZM38.988 10.938L38.3413 10.4671L39.5541 11.5033L38.988 10.938ZM40.0586 6.41921L39.2683 6.29491L39.268 6.29737L40.0586 6.41921ZM41.9624 12.1865L42.7332 12.4008L42.7335 12.3996L41.9624 12.1865ZM38.9927 10.9333L39.6411 11.402L38.4266 10.368L38.9927 10.9333ZM36.7491 18.1354L36.2577 17.5041L36.2552 17.5061L36.7491 18.1354ZM40.4729 18.1354L41.2712 18.0834L41.2307 17.4614L40.6177 17.3486L40.4729 18.1354ZM37.3822 20.7535L37.1449 21.5175L37.1457 21.5177L37.3822 20.7535ZM36.5909 20.1199L35.8452 20.4097L35.8632 20.456L35.8868 20.4998L36.5909 20.1199ZM32.5971 24.9135L31.8714 24.5769L31.3835 25.6285L32.5398 25.7115L32.5971 24.9135ZM33.9004 22.179L34.607 22.5543L34.6105 22.5474L33.9004 22.179ZM35.227 21.415L35.9924 21.6479L36.7648 19.1098L34.718 20.7978L35.227 21.415ZM35.4039 23.6883L34.6457 23.9435L34.6809 24.0483L34.7433 24.1396L35.4039 23.6883ZM38.2107 27.513L38.3895 28.2927L39.633 28.0076L38.8347 27.0124L38.2107 27.513ZM36.158 27.9928L35.3581 28.0073L35.376 28.997L36.3399 28.7719L36.158 27.9928ZM36.4521 32.6871L55.597 27.4696L55.1763 25.9259L36.0314 31.1434L36.4521 32.6871ZM55.3867 26.6978C55.8155 26.0224 55.8153 26.0223 55.815 26.0221C55.8149 26.022 55.8147 26.0219 55.8145 26.0218C55.8141 26.0215 55.8136 26.0212 55.8131 26.0209C55.8121 26.0203 55.811 26.0195 55.8096 26.0187C55.8068 26.0169 55.8033 26.0147 55.7989 26.012C55.7903 26.0067 55.7786 25.9995 55.7638 25.9905C55.7343 25.9727 55.6927 25.9481 55.6397 25.9177C55.5337 25.857 55.3816 25.7735 55.1884 25.6764C54.8025 25.4824 54.2497 25.2328 53.57 25.0034C52.2161 24.5464 50.3241 24.1578 48.2354 24.4817L48.4806 26.0628C50.2368 25.7904 51.8591 26.1146 53.0583 26.5194C53.6552 26.7209 54.1386 26.9394 54.4698 27.106C54.6352 27.1891 54.7619 27.2588 54.845 27.3064C54.8865 27.3302 54.9171 27.3483 54.9361 27.3598C54.9457 27.3656 54.9523 27.3697 54.9559 27.3719C54.9577 27.373 54.9588 27.3737 54.9591 27.3739C54.9593 27.374 54.9593 27.374 54.959 27.3739C54.9589 27.3738 54.9588 27.3737 54.9586 27.3736C54.9585 27.3735 54.9583 27.3734 54.9582 27.3734C54.958 27.3732 54.9578 27.3731 55.3867 26.6978ZM48.2342 24.4819C47.278 24.6317 44.6934 25.199 41.3696 25.9599L41.7267 27.5195C45.0778 26.7524 47.5948 26.2016 48.4819 26.0626L48.2342 24.4819ZM42.2812 27.06C42.8057 25.8599 43.3176 24.4591 43.6958 23.3674C43.8856 22.8196 44.0431 22.3458 44.1532 22.0086C44.2083 21.84 44.2516 21.7054 44.2812 21.6126C44.296 21.5662 44.3074 21.5303 44.3151 21.5058C44.319 21.4936 44.3219 21.4842 44.3239 21.4778C44.3249 21.4746 44.3257 21.4721 44.3262 21.4704C44.3265 21.4696 44.3267 21.4689 44.3269 21.4684C44.3269 21.4682 44.327 21.468 44.327 21.4679C44.3271 21.4678 44.3271 21.4677 44.3271 21.4677C44.3271 21.4676 44.3271 21.4676 43.5636 21.2286C42.8002 20.9897 42.8002 20.9897 42.8002 20.9897C42.8002 20.9897 42.8002 20.9897 42.8002 20.9897C42.8001 20.9898 42.8001 20.9899 42.8001 20.99C42.8 20.9903 42.7998 20.9908 42.7996 20.9915C42.7992 20.9929 42.7985 20.995 42.7976 20.9978C42.7958 21.0036 42.7931 21.0122 42.7894 21.0238C42.7822 21.0468 42.7712 21.0813 42.7569 21.1261C42.7283 21.2157 42.6861 21.3469 42.6323 21.5119C42.5245 21.8419 42.3701 22.3065 42.184 22.8435C41.8105 23.9215 41.3146 25.2763 40.8151 26.4193L42.2812 27.06ZM43.5636 21.2286C44.325 21.4742 44.325 21.4742 44.3251 21.4741C44.3251 21.474 44.3252 21.4738 44.3252 21.4736C44.3254 21.4732 44.3255 21.4726 44.3258 21.4718C44.3263 21.4703 44.327 21.468 44.328 21.465C44.33 21.4589 44.3329 21.4498 44.3368 21.4378C44.3445 21.4139 44.3559 21.3784 44.3708 21.332C44.4007 21.2391 44.4445 21.1026 44.5005 20.9277C44.6126 20.5778 44.7734 20.0743 44.9686 19.4594C45.3589 18.2296 45.8869 16.5535 46.4373 14.769C47.5317 11.2203 48.734 7.18151 49.0997 5.4067L47.5326 5.08383C47.1861 6.76564 46.0121 10.7185 44.9084 14.2974C44.3596 16.0766 43.833 17.7483 43.4436 18.9753C43.2488 19.5888 43.0885 20.0909 42.9768 20.4396C42.9209 20.614 42.8773 20.75 42.8476 20.8423C42.8327 20.8885 42.8214 20.9237 42.8138 20.9474C42.81 20.9592 42.8071 20.9682 42.8051 20.9742C42.8042 20.9771 42.8035 20.9794 42.803 20.9809C42.8027 20.9816 42.8026 20.9822 42.8024 20.9826C42.8024 20.9827 42.8023 20.9829 42.8023 20.983C42.8023 20.983 42.8023 20.9831 43.5636 21.2286ZM49.0996 5.40691C49.2223 4.81211 49.1527 4.24412 48.8541 3.7528C48.5661 3.27882 48.1177 2.96327 47.6434 2.7502C46.7163 2.33382 45.4512 2.20357 44.1838 2.19174C41.6201 2.16781 38.5518 2.63706 36.9689 2.82997L37.1624 4.41822C38.8285 4.21516 41.7415 3.76901 44.1689 3.79167C45.397 3.80313 46.3798 3.93666 46.9878 4.20974C47.281 4.34141 47.4219 4.47701 47.4868 4.58374C47.5411 4.67313 47.588 4.81542 47.5326 5.08362L49.0996 5.40691ZM36.9689 2.82997C35.2266 3.04231 32.861 3.89268 30.9929 4.65274C30.045 5.03837 29.2009 5.41107 28.5936 5.68726C28.2897 5.82546 28.0446 5.93971 27.875 6.01959C27.7901 6.05955 27.7242 6.09087 27.6795 6.11221C27.6576 6.12262 27.6396 6.13125 27.6292 6.1362C27.6235 6.13894 27.6204 6.14041 27.6189 6.1411C27.6178 6.1416 27.6194 6.14087 27.622 6.13967C27.6227 6.13935 27.6275 6.13713 27.6338 6.13433C27.6377 6.13261 27.6493 6.12771 27.6568 6.12462C27.6758 6.11723 27.8238 6.07748 27.9563 6.06643V7.66643C28.0889 7.65538 28.2369 7.6156 28.256 7.60817C28.2637 7.60504 28.2754 7.60007 28.2795 7.59827C28.2862 7.59529 28.2916 7.59281 28.293 7.59214C28.2971 7.59025 28.3009 7.58849 28.3027 7.58763C28.307 7.58557 28.3125 7.58295 28.3181 7.5803C28.3304 7.57445 28.3458 7.56705 28.3679 7.55651C28.411 7.53597 28.4746 7.50575 28.5567 7.46711C28.7209 7.38978 28.9594 7.27857 29.2559 7.14373C29.8493 6.87386 30.673 6.51022 31.5958 6.13477C33.469 5.37265 35.6557 4.60185 37.1624 4.41822L36.9689 2.82997ZM28.2772 6.1336C27.6848 5.8742 27.1165 5.6161 26.6565 5.38228C26.161 5.13041 25.896 4.95736 25.8188 4.88109L24.6944 6.01938C24.9756 6.29716 25.4647 6.57133 25.9315 6.80861C26.4339 7.06393 27.0363 7.3369 27.6355 7.59926L28.2772 6.1336ZM25.8225 4.88478C25.5322 4.5942 24.4774 3.21949 22.9514 2.50628C22.1552 2.13414 21.2039 1.91844 20.1196 2.07249C19.0396 2.22593 17.8886 2.73738 16.6732 3.71921L17.6787 4.96381C18.7209 4.12183 19.6099 3.76097 20.3446 3.65659C21.075 3.55282 21.7134 3.69378 22.274 3.95579C23.4617 4.51086 24.1897 5.51433 24.6907 6.01569L25.8225 4.88478ZM17.176 5.14151H17.5716V3.54151H17.176V5.14151ZM17.5716 4.34151C16.8512 4.68938 16.8513 4.68953 16.8514 4.68969C16.8514 4.68977 16.8515 4.68995 16.8516 4.69011C16.8517 4.69042 16.8519 4.6908 16.8521 4.69125C16.8526 4.69215 16.8531 4.69334 16.8538 4.69479C16.8553 4.6977 16.8572 4.70171 16.8597 4.70679C16.8647 4.71694 16.8718 4.73134 16.8809 4.74974C16.8992 4.78652 16.9258 4.83929 16.9601 4.90585C17.0286 5.0389 17.1281 5.2275 17.2542 5.45407C17.5057 5.9058 17.867 6.51526 18.3033 7.13873C18.7368 7.75828 19.2601 8.41453 19.8397 8.94486C20.4058 9.4629 21.1058 9.93545 21.8944 10.0482L22.1208 8.4643C21.8015 8.41866 21.3932 8.19767 20.9198 7.7645C20.4599 7.34362 20.0127 6.79098 19.6142 6.22144C19.2184 5.65582 18.8861 5.09599 18.6521 4.67571C18.5355 4.46627 18.4442 4.29318 18.3826 4.17354C18.3519 4.11376 18.3286 4.06743 18.3133 4.03671C18.3056 4.02135 18.3 4.0099 18.2964 4.00263C18.2946 3.99899 18.2934 3.9964 18.2926 3.99489C18.2923 3.99414 18.292 3.99365 18.2919 3.99344C18.2919 3.99333 18.2919 3.9933 18.2919 3.99333C18.2919 3.99334 18.2919 3.99342 18.2919 3.99343C18.292 3.99352 18.292 3.99363 17.5716 4.34151ZM21.8946 10.0482C22.184 10.0895 22.4687 10.1228 22.7345 10.1535C23.0041 10.1847 23.2508 10.2129 23.4817 10.2453C23.9621 10.3127 24.2775 10.3873 24.4715 10.4814C24.6263 10.5565 24.6035 10.5883 24.6035 10.5888C24.6159 10.6728 24.6013 10.9383 24.3079 11.5082L25.7305 12.2405C26.0702 11.5806 26.2731 10.9434 26.1864 10.3555C26.0875 9.68395 25.6489 9.27435 25.17 9.04196C24.7304 8.82865 24.1944 8.72966 23.7041 8.66084C23.4497 8.62512 23.1813 8.59451 22.9183 8.5641C22.6515 8.53325 22.3863 8.50218 22.1206 8.46427L21.8946 10.0482ZM24.3079 11.5082C23.666 12.7553 22.8152 14.8567 22.1534 16.311C21.8032 17.0805 21.519 17.6412 21.3265 17.9115C21.2811 17.9751 21.262 17.9919 21.2697 17.9849C21.2746 17.9804 21.2999 17.9577 21.3454 17.9324C21.3902 17.9075 21.4776 17.8672 21.5998 17.8568C21.9245 17.8289 22.1429 18.0214 22.2294 18.1529C22.2905 18.2457 22.29 18.3045 22.2795 18.2432L20.7023 18.5121C20.7256 18.6488 20.7723 18.8492 20.8928 19.0323C21.0388 19.2543 21.329 19.4858 21.7364 19.4509C22.0448 19.4245 22.2557 19.2509 22.3469 19.168C22.4582 19.0665 22.5528 18.9477 22.6296 18.8397C22.9262 18.4235 23.2698 17.7205 23.6097 16.9737C24.328 15.3953 25.1063 13.453 25.7305 12.2405L24.3079 11.5082ZM22.2791 18.241C22.1891 17.7216 21.8561 16.9106 21.4556 16.0752C21.0398 15.2079 20.5033 14.2174 19.9422 13.3021C19.3858 12.3947 18.7843 11.5265 18.2354 10.9255C17.9673 10.632 17.667 10.3517 17.3526 10.1769C17.0569 10.0126 16.4904 9.81473 15.9758 10.2109L16.9518 11.4787C16.6944 11.6769 16.4693 11.5165 16.5752 11.5754C16.6624 11.6239 16.8239 11.7526 17.0539 12.0045C17.5011 12.4941 18.0406 13.2617 18.5781 14.1384C19.1108 15.0073 19.621 15.9496 20.0128 16.7669C20.42 17.6162 20.6554 18.2417 20.7027 18.5143L22.2791 18.241ZM15.9758 10.2109C15.6975 10.4251 15.5187 10.7246 15.3982 10.9944C15.2729 11.275 15.1794 11.5956 15.1081 11.9261C14.9653 12.588 14.8933 13.3778 14.8728 14.1647C14.8521 14.9557 14.8829 15.7703 14.9557 16.4904C15.0268 17.1942 15.1434 17.8645 15.3174 18.3372L16.8189 17.7845C16.7159 17.5048 16.6149 16.996 16.5476 16.3295C16.4819 15.6792 16.4533 14.9323 16.4722 14.2064C16.4913 13.4763 16.5577 12.7938 16.6721 12.2635C16.7294 11.998 16.7941 11.7925 16.8592 11.6467C16.9292 11.4899 16.9729 11.4625 16.9518 11.4787L15.9758 10.2109ZM15.3174 18.3372C15.3819 18.5124 15.4019 18.8511 15.3152 19.3945C15.2325 19.913 15.0724 20.5076 14.8861 21.1314C14.7075 21.7298 14.4928 22.3918 14.3402 22.9426C14.193 23.4738 14.0534 24.064 14.0827 24.5346L15.6796 24.4353C15.6694 24.2701 15.7276 23.9273 15.8821 23.3699C16.0312 22.832 16.222 22.2497 16.4193 21.5891C16.6089 20.954 16.795 20.275 16.8952 19.6466C16.9915 19.0431 17.0314 18.3617 16.8189 17.7845L15.3174 18.3372ZM14.0827 24.5348C14.0989 24.7939 14.0648 25.2143 14.0364 25.8336C14.0102 26.4019 13.9942 27.0858 14.0791 27.7129C14.1597 28.3081 14.3535 29.0402 14.9063 29.5163C15.5301 30.0536 16.3536 30.067 17.2148 29.7562L16.6717 28.2512C16.1062 28.4552 15.9685 28.3195 15.9505 28.304C15.8616 28.2274 15.733 28.0031 15.6646 27.4982C15.6006 27.0253 15.609 26.4658 15.6347 25.9071C15.658 25.3995 15.703 24.8096 15.6796 24.4351L14.0827 24.5348ZM17.2148 29.7562C18.8374 29.1708 20.0791 28.0537 21.2455 26.5762C22.3994 25.1144 23.5398 23.218 24.911 21.0237L23.5541 20.1758C22.1511 22.4211 21.0735 24.2119 19.9896 25.5848C18.9182 26.942 17.9025 27.8071 16.6717 28.2512L17.2148 29.7562ZM24.911 21.0237C26.352 18.7176 26.9114 16.9554 27.3514 15.6043C27.7934 14.2472 28.075 13.4738 28.8668 12.8081L27.8372 11.5834C26.6507 12.5809 26.2597 13.7896 25.8301 15.1089C25.3985 16.4341 24.8873 18.0423 23.5541 20.1758L24.911 21.0237ZM28.8661 12.8087C30.1916 11.6968 31.2324 10.5324 31.7036 9.63864L30.2882 8.89249C29.9587 9.51746 29.1004 10.5238 27.8379 11.5829L28.8661 12.8087ZM30.7266 10.0189C30.7895 10.0414 30.8386 10.0592 30.8716 10.0713C30.888 10.0774 30.9005 10.082 30.9086 10.085C30.9126 10.0865 30.9156 10.0876 30.9174 10.0883C30.9184 10.0886 30.919 10.0889 30.9194 10.089C30.9195 10.0891 30.9197 10.0891 30.9197 10.0891C30.9197 10.0891 30.9197 10.0891 30.9197 10.0891C30.9197 10.0891 30.9197 10.0891 30.9197 10.0891C30.9196 10.0891 30.9196 10.0891 30.9196 10.0891C30.9196 10.0891 30.9196 10.0891 30.9196 10.0891C30.9196 10.0891 30.9196 10.0891 31.2007 9.3401C31.4818 8.59111 31.4818 8.59111 31.4818 8.5911C31.4817 8.5911 31.4817 8.5911 31.4817 8.5911C31.4817 8.59109 31.4817 8.59108 31.4817 8.59108C31.4816 8.59106 31.4816 8.59105 31.4816 8.59103C31.4815 8.591 31.4814 8.59096 31.4812 8.59091C31.481 8.59081 31.4807 8.59069 31.4803 8.59054C31.4795 8.59025 31.4784 8.58984 31.477 8.58933C31.4743 8.58831 31.4704 8.58687 31.4654 8.58503C31.4555 8.58134 31.4412 8.57604 31.4227 8.56927C31.3859 8.55575 31.3326 8.53634 31.2651 8.51224L30.7266 10.0189ZM31.2007 9.3401C31.3525 10.1256 31.3524 10.1256 31.3523 10.1256C31.3523 10.1256 31.3522 10.1256 31.3521 10.1256C31.352 10.1257 31.352 10.1257 31.3519 10.1257C31.3519 10.1257 31.352 10.1257 31.3522 10.1256C31.3527 10.1255 31.3537 10.1253 31.3553 10.125C31.3585 10.1244 31.3639 10.1234 31.3713 10.1221C31.3861 10.1194 31.4091 10.1153 31.439 10.1103C31.4989 10.1002 31.5859 10.0864 31.6905 10.0723C31.903 10.0436 32.1737 10.0155 32.4327 10.0113C32.7124 10.0067 32.8937 10.0323 32.973 10.0605C33.0082 10.073 32.9542 10.0626 32.8894 9.9861C32.8047 9.8862 32.7738 9.75946 32.7825 9.66371L34.376 9.80845C34.4044 9.4949 34.314 9.19246 34.1101 8.9518C33.9261 8.73456 33.6931 8.61836 33.509 8.55291C33.1497 8.42519 32.7314 8.4062 32.4065 8.41152C32.061 8.41717 31.7223 8.45347 31.4764 8.48666C31.3519 8.50347 31.2475 8.52 31.1733 8.53249C31.1361 8.53875 31.1063 8.54403 31.0852 8.54787C31.0747 8.54979 31.0662 8.55135 31.0601 8.5525C31.0571 8.55307 31.0546 8.55354 31.0527 8.5539C31.0518 8.55408 31.051 8.55424 31.0503 8.55436C31.05 8.55442 31.0497 8.55448 31.0494 8.55453C31.0493 8.55455 31.0492 8.55458 31.0491 8.55459C31.049 8.55462 31.0488 8.55465 31.2007 9.3401ZM32.7825 9.66371C32.7778 9.71562 32.7322 9.89115 32.5685 10.179C32.4148 10.4493 32.187 10.7656 31.8909 11.0887C31.2958 11.7381 30.47 12.3661 29.5076 12.7094L30.0451 14.2164C31.303 13.7677 32.339 12.9679 33.0705 12.1697C33.4378 11.7689 33.7395 11.3565 33.9593 10.9701C34.1691 10.6012 34.3411 10.1921 34.376 9.80845L32.7825 9.66371ZM29.5076 12.7094C28.8689 12.9372 28.3457 13.273 28.0717 13.7796C27.7771 14.3242 27.87 14.8733 28.0618 15.2802C28.2461 15.6711 28.5433 15.9922 28.8113 16.2209C29.0756 16.4464 29.3861 16.6451 29.6632 16.745L30.206 15.2399C30.1665 15.2257 30.0214 15.1501 29.8498 15.0037C29.6819 14.8604 29.5628 14.7119 29.5091 14.598C29.4845 14.5459 29.4832 14.5211 29.4832 14.5207C29.4832 14.5207 29.4832 14.5218 29.483 14.524C29.4828 14.5262 29.4824 14.5289 29.4818 14.5319C29.4803 14.5385 29.4784 14.5418 29.479 14.5407C29.4824 14.5344 29.5736 14.3846 30.0451 14.2164L29.5076 12.7094ZM29.6583 16.7433C29.5971 16.7207 29.5906 16.6875 29.6182 16.7326C29.6477 16.7807 29.682 16.8648 29.7106 16.984C29.738 17.0982 29.753 17.2136 29.7606 17.3036C29.7643 17.3475 29.7661 17.3825 29.7669 17.4049C29.7674 17.416 29.7675 17.4237 29.7676 17.4277C29.7676 17.4297 29.7676 17.4307 29.7676 17.4306C29.7676 17.4306 29.7676 17.4303 29.7676 17.4298C29.7676 17.4295 29.7676 17.4291 29.7676 17.4287C29.7676 17.4285 29.7676 17.4283 29.7676 17.4281C29.7676 17.4279 29.7676 17.4278 29.7676 17.4277C29.7676 17.4275 29.7676 17.4273 30.5676 17.4273C31.3676 17.4273 31.3676 17.4271 31.3676 17.4269C31.3676 17.4268 31.3676 17.4266 31.3676 17.4264C31.3676 17.4261 31.3676 17.4258 31.3676 17.4254C31.3676 17.4247 31.3676 17.4239 31.3676 17.4231C31.3676 17.4214 31.3676 17.4194 31.3676 17.4171C31.3675 17.4125 31.3675 17.4067 31.3674 17.3998C31.3671 17.386 31.3667 17.3677 31.3658 17.3455C31.3642 17.3012 31.361 17.2406 31.3549 17.1681C31.3427 17.0255 31.3181 16.8259 31.2664 16.6105C31.2159 16.4001 31.1315 16.14 30.9829 15.8973C30.8325 15.6515 30.5886 15.3807 30.2108 15.2417L29.6583 16.7433ZM30.5676 17.4273C30.0988 16.7791 30.0988 16.7791 30.0988 16.7791C30.0988 16.7791 30.0988 16.7791 30.0988 16.7791C30.0987 16.7791 30.0987 16.7792 30.0986 16.7792C30.0984 16.7794 30.098 16.7797 30.0975 16.78C30.0965 16.7807 30.095 16.7818 30.0929 16.7833C30.0888 16.7863 30.0825 16.7908 30.0742 16.7968C30.0576 16.8088 30.0328 16.8266 30.0006 16.8496C29.9363 16.8956 29.8426 16.9624 29.7258 17.0449C29.492 17.2101 29.1665 17.4376 28.7998 17.6871C28.0574 18.1921 27.1775 18.7654 26.5465 19.1019L27.2994 20.5137C28.0137 20.1328 28.9561 19.5158 29.6997 19.01C30.0761 18.754 30.4095 18.5209 30.6489 18.3518C30.7687 18.2672 30.8651 18.1985 30.9318 18.1507C30.9651 18.1269 30.9911 18.1082 31.0088 18.0955C31.0176 18.0891 31.0244 18.0842 31.0291 18.0809C31.0314 18.0792 31.0332 18.0779 31.0344 18.077C31.035 18.0766 31.0355 18.0762 31.0359 18.076C31.036 18.0758 31.0362 18.0757 31.0363 18.0757C31.0363 18.0756 31.0364 18.0756 31.0364 18.0756C31.0364 18.0755 31.0365 18.0755 30.5676 17.4273ZM26.5484 19.1009C25.8167 19.4886 25.6589 20.2321 25.6796 20.8287C25.7001 21.4213 25.8921 22.0929 26.1199 22.7323C26.3525 23.3848 26.6526 24.0834 26.933 24.739C27.219 25.4075 27.4834 26.0288 27.6699 26.5712L29.183 26.051C28.9738 25.4427 28.6844 24.7649 28.4041 24.1097C28.1182 23.4415 27.8397 22.7917 27.6271 22.1952C27.4099 21.5856 27.2902 21.1073 27.2786 20.7733C27.273 20.6117 27.2952 20.534 27.306 20.5085C27.3101 20.4987 27.3107 20.5009 27.3046 20.5076C27.2982 20.5148 27.2935 20.5168 27.2975 20.5147L26.5484 19.1009ZM27.6704 26.5727C27.9028 27.2442 28.3474 27.726 28.9925 27.8809C29.5651 28.0185 30.1344 27.8546 30.5695 27.6626L29.9234 26.1988C29.6091 26.3375 29.4336 26.3414 29.3662 26.3252C29.3466 26.3205 29.3329 26.3142 29.313 26.2941C29.2882 26.2691 29.2354 26.2024 29.1825 26.0495L27.6704 26.5727ZM29.4465 26.9307V29.3997H31.0465V26.9307H29.4465ZM30.0611 28.6215C25.6006 29.6839 21.173 30.7509 17.8606 31.5523C16.2044 31.953 14.8269 32.2874 13.8634 32.5215C13.3817 32.6386 13.0035 32.7306 12.7457 32.7934C12.6167 32.8248 12.5179 32.8488 12.4513 32.8651C12.418 32.8732 12.3928 32.8793 12.3759 32.8834C12.3674 32.8855 12.361 32.8871 12.3568 32.8881C12.3546 32.8886 12.353 32.889 12.352 32.8893C12.3514 32.8894 12.351 32.8895 12.3507 32.8896C12.3506 32.8896 12.3505 32.8896 12.3504 32.8897C12.3504 32.8897 12.3503 32.8897 12.5399 33.6669C12.7294 34.4441 12.7294 34.4441 12.7295 34.4441C12.7295 34.4441 12.7296 34.4441 12.7298 34.444C12.73 34.444 12.7304 34.4439 12.731 34.4437C12.732 34.4435 12.7336 34.4431 12.7357 34.4426C12.74 34.4415 12.7464 34.44 12.7548 34.4379C12.7717 34.4338 12.7969 34.4277 12.8301 34.4196C12.8966 34.4034 12.9953 34.3793 13.1241 34.348C13.3818 34.2853 13.7598 34.1933 14.2413 34.0763C15.2043 33.8422 16.5812 33.508 18.2369 33.1075C21.5482 32.3063 25.9738 31.2398 30.4318 30.1779L30.0611 28.6215ZM13.2255 33.2548L12.8671 32.6585L11.4958 33.4828L11.8542 34.079L13.2255 33.2548ZM12.1814 33.0706C12.861 32.6485 12.8608 32.6481 12.8606 32.6478C12.8605 32.6476 12.8602 32.6472 12.8601 32.6469C12.8597 32.6464 12.8593 32.6457 12.8589 32.6451C12.858 32.6437 12.857 32.6421 12.8559 32.6403C12.8536 32.6368 12.8508 32.6324 12.8475 32.6272C12.8408 32.6168 12.8319 32.6032 12.8208 32.5867C12.7987 32.5538 12.7679 32.5093 12.7287 32.4557C12.6504 32.3489 12.5371 32.2042 12.3907 32.0432C12.1024 31.7259 11.6634 31.3201 11.0876 31.0274C10.502 30.7298 9.76569 30.5458 8.92467 30.7044C8.08929 30.8618 7.23687 31.341 6.3828 32.2125L7.52556 33.3324C8.21453 32.6293 8.78704 32.3585 9.2211 32.2767C9.6495 32.1959 10.0271 32.2832 10.3626 32.4538C10.7078 32.6293 10.997 32.8885 11.2066 33.1192C11.3092 33.2321 11.3873 33.3321 11.4381 33.4015C11.4635 33.4361 11.4817 33.4625 11.4925 33.4786C11.4978 33.4866 11.5014 33.492 11.5029 33.4945C11.5037 33.4957 11.504 33.4962 11.5039 33.4959C11.5038 33.4958 11.5036 33.4954 11.5032 33.4949C11.5031 33.4946 11.5029 33.4943 11.5026 33.494C11.5025 33.4938 11.5023 33.4935 11.5023 33.4934C11.5021 33.493 11.5019 33.4927 12.1814 33.0706ZM6.38281 32.2125C4.80159 33.826 3.30613 35.9097 2.78289 37.5393C2.53825 38.3012 2.39902 39.3065 3.05062 40.0081C3.70145 40.7089 4.77491 40.7103 5.88826 40.4509L5.52516 38.8926C4.4694 39.1386 4.2279 38.9246 4.223 38.9193C4.21886 38.9148 4.08312 38.7235 4.30629 38.0284C4.71864 36.7442 6.01602 34.8727 7.52555 33.3324L6.38281 32.2125ZM5.88799 40.4509C9.48235 39.6147 25.1293 35.6472 30.4434 34.2979L30.0496 32.7471C24.7229 34.0997 9.09936 38.0611 5.52543 38.8926L5.88799 40.4509ZM29.4465 33.5225V41.2184H31.0465V33.5225H29.4465ZM30.2465 41.2184C29.4495 41.1492 29.4495 41.1489 29.4495 41.1487C29.4495 41.1486 29.4495 41.1484 29.4495 41.1483C29.4496 41.1481 29.4496 41.1478 29.4496 41.1477C29.4496 41.1473 29.4496 41.1471 29.4496 41.1471C29.4496 41.1471 29.4496 41.1476 29.4495 41.1488C29.4493 41.1512 29.4488 41.1559 29.448 41.163C29.4465 41.1771 29.4438 41.2002 29.4397 41.2309C29.4315 41.2927 29.4177 41.3845 29.3961 41.4966C29.3521 41.7238 29.2788 42.0193 29.162 42.3116C28.9095 42.9436 28.5729 43.2951 28.1452 43.3387L28.3074 44.9305C29.6624 44.7924 30.3359 43.6858 30.6478 42.9052C30.8133 42.491 30.9107 42.0915 30.967 41.8003C30.9954 41.6532 31.0141 41.53 31.0258 41.4415C31.0317 41.3972 31.0359 41.3613 31.0387 41.3353C31.0401 41.3222 31.0412 41.3116 31.042 41.3036C31.0424 41.2996 31.0427 41.2963 31.0429 41.2936C31.043 41.2923 31.0432 41.2911 31.0432 41.2901C31.0433 41.2896 31.0433 41.2891 31.0434 41.2887C31.0434 41.2885 31.0434 41.2882 31.0434 41.2881C31.0434 41.2878 31.0435 41.2876 30.2465 41.2184ZM28.1473 43.3385C27.3742 43.4153 26.4714 43.2995 25.7065 43.142C24.9526 42.9868 24.3902 42.8035 24.3181 42.7794L23.8118 44.2972C23.9213 44.3337 24.5481 44.5371 25.3839 44.7091C26.2085 44.8789 27.2956 45.031 28.3054 44.9307L28.1473 43.3385ZM24.3461 42.7893C24.1854 42.729 24.0452 42.7336 23.9748 42.74C23.8968 42.747 23.8329 42.7634 23.7919 42.7757C23.7102 42.8001 23.6399 42.8325 23.5929 42.8558C23.4945 42.9045 23.3901 42.9681 23.2942 43.0304L24.1654 44.3724C24.2418 44.3228 24.2863 44.2979 24.3031 44.2895C24.3137 44.2843 24.2926 44.296 24.2504 44.3086C24.229 44.315 24.1824 44.3277 24.1191 44.3335C24.0634 44.3385 23.9353 44.3441 23.7839 44.2873L24.3461 42.7893ZM24.3943 44.1469C24.6805 43.7201 24.9001 43.2437 25.0218 42.71L23.4619 42.3542C23.3881 42.6776 23.254 42.9745 23.0654 43.2558L24.3943 44.1469ZM25.0224 42.7073C25.1433 42.1687 25.3268 41.4492 25.4518 40.8645C25.5818 40.2568 25.6926 39.6103 25.6769 39.0535C25.6623 38.5371 25.5269 37.7878 24.8308 37.4194C24.1933 37.0821 23.4183 37.2593 22.686 37.5706L23.312 39.043C23.9879 38.7557 24.1391 38.8636 24.0823 38.8336C23.9669 38.7725 24.0665 38.7072 24.0775 39.0986C24.0874 39.4496 24.0144 39.9349 23.8872 40.53C23.755 41.1482 23.6081 41.7028 23.4613 42.3569L25.0224 42.7073ZM22.999 38.3068C22.6197 37.6025 22.6198 37.6024 22.6198 37.6024C22.6198 37.6024 22.6199 37.6024 22.6199 37.6023C22.6199 37.6023 22.6199 37.6023 22.6199 37.6024C22.6198 37.6024 22.6196 37.6025 22.6192 37.6027C22.6184 37.6031 22.6171 37.6039 22.6151 37.6049C22.6113 37.6069 22.6051 37.6102 22.5967 37.6147C22.5799 37.6236 22.5542 37.637 22.5205 37.6545C22.453 37.6894 22.3534 37.7402 22.2281 37.802C21.9768 37.9257 21.6246 38.0923 21.2216 38.2633C20.3924 38.615 19.4336 38.9478 18.7039 39.0149L18.8505 40.6081C19.843 40.5168 20.9952 40.0973 21.8464 39.7362C22.2835 39.5508 22.6638 39.3709 22.9351 39.2373C23.071 39.1703 23.1801 39.1147 23.256 39.0754C23.294 39.0557 23.3238 39.0401 23.3444 39.0292C23.3547 39.0238 23.3628 39.0195 23.3685 39.0164C23.3713 39.0149 23.3736 39.0137 23.3753 39.0128C23.3761 39.0124 23.3768 39.012 23.3773 39.0117C23.3775 39.0116 23.3778 39.0115 23.378 39.0114C23.3781 39.0113 23.3782 39.0113 23.3782 39.0112C23.3783 39.0112 23.3784 39.0111 22.999 38.3068ZM18.7039 39.0149C17.9393 39.0852 16.5668 39.1179 15.5155 39.4462C14.9749 39.615 14.395 39.8942 13.9959 40.3987C13.5682 40.9392 13.4376 41.6222 13.5947 42.3897L15.1622 42.0689C15.0819 41.6764 15.1672 41.4969 15.2507 41.3914C15.3627 41.2498 15.5893 41.0993 15.9924 40.9734C16.8286 40.7124 17.8928 40.6962 18.8505 40.6081L18.7039 39.0149ZM13.5947 42.3897C13.857 43.6712 14.4958 45.0474 15.3608 46.0514C16.2047 47.031 17.4525 47.8494 18.8769 47.459L18.4541 45.9159C17.9234 46.0613 17.2652 45.8105 16.573 45.0071C15.9019 44.2281 15.3748 43.1073 15.1622 42.0689L13.5947 42.3897ZM18.877 47.459C20.0365 47.1412 21.6388 46.5693 22.9264 45.6284L21.9824 44.3365C20.9241 45.1099 19.538 45.6188 18.454 45.9159L18.877 47.459ZM21.7197 44.666C21.6201 44.8972 21.5245 45.2631 21.6793 45.6514C21.8421 46.0597 22.1917 46.2734 22.5095 46.3768L23.0044 44.8552C22.9499 44.8375 23.0901 44.8696 23.1656 45.0589C23.2331 45.2282 23.1724 45.3379 23.1892 45.2989L21.7197 44.666ZM22.5047 46.3752C23.0575 46.5589 24.3095 47.1254 25.6054 47.8825C26.9188 48.6499 28.1413 49.5356 28.7395 50.3213L30.0125 49.352C29.2097 48.2976 27.7464 47.2803 26.4125 46.501C25.061 45.7114 23.7039 45.0877 23.0093 44.8568L22.5047 46.3752ZM28.7395 50.3213C29.4825 51.2971 30.4743 52.2844 31.4718 52.9524C31.9697 53.2857 32.5024 53.5621 33.0322 53.7026C33.5608 53.8429 34.163 53.866 34.7133 53.5783L33.972 52.1604C33.8985 52.1988 33.7431 52.2359 33.4425 52.1561C33.143 52.0767 32.7748 51.8992 32.362 51.6228C31.5384 51.0714 30.6706 50.2163 30.0125 49.352L28.7395 50.3213ZM34.7133 53.5783C34.838 53.5131 34.97 53.4556 35.1286 53.388C35.2787 53.324 35.4609 53.2477 35.6397 53.1582C36.0138 52.9711 36.419 52.7054 36.757 52.24C37.4089 51.3424 37.6677 49.8994 37.5198 47.4087L35.9226 47.5036C36.0679 49.9509 35.7612 50.8884 35.4624 51.2998C35.325 51.489 35.1586 51.6099 34.9239 51.7273C34.7983 51.7901 34.6669 51.8456 34.5014 51.916C34.3445 51.9829 34.1591 52.0625 33.972 52.1604L34.7133 53.5783ZM37.5198 47.4082C37.3347 44.3241 37.1488 36.9586 37.0322 31.9015L35.4327 31.9384C35.5489 36.981 35.7353 44.383 35.9226 47.5041L37.5198 47.4082ZM36.5902 32.6355L36.5995 32.6308L35.884 31.1998L35.8747 31.2044L36.5902 32.6355ZM39.6348 11.4088C39.7627 11.2331 39.8547 11.0139 39.9214 10.8323C39.9942 10.6337 40.0634 10.4045 40.128 10.1653C40.2574 9.68582 40.3804 9.1213 40.486 8.58995C40.5921 8.05625 40.6828 7.54476 40.7468 7.16746C40.7789 6.97855 40.8044 6.82268 40.8219 6.71373C40.8307 6.65924 40.8375 6.61645 40.8421 6.5871C40.8444 6.57243 40.8462 6.56111 40.8474 6.55336C40.848 6.54948 40.8485 6.5465 40.8488 6.54444C40.8489 6.54341 40.8491 6.54261 40.8491 6.54204C40.8492 6.54176 40.8492 6.54153 40.8493 6.54137C40.8493 6.54128 40.8493 6.5412 40.8493 6.54116C40.8493 6.5411 40.8493 6.54104 40.0586 6.41921C39.268 6.29737 39.268 6.29735 39.268 6.29735C39.268 6.29736 39.268 6.29737 39.268 6.2974C39.268 6.29747 39.2679 6.2976 39.2679 6.29778C39.2678 6.29815 39.2678 6.29876 39.2676 6.29959C39.2674 6.30125 39.267 6.30382 39.2664 6.30728C39.2654 6.31421 39.2637 6.32468 39.2615 6.33848C39.2572 6.36609 39.2507 6.40701 39.2423 6.45952C39.2254 6.56457 39.2006 6.71587 39.1694 6.89964C39.1069 7.26771 39.019 7.76363 38.9167 8.27809C38.814 8.79491 38.6991 9.31932 38.5833 9.74826C38.5252 9.96322 38.4699 10.1431 38.4194 10.2809C38.3626 10.4355 38.3321 10.4798 38.3413 10.4671L39.6348 11.4088ZM40.8489 6.5435C40.8134 6.76917 40.6724 6.8905 40.6136 6.92947C40.5639 6.96241 40.546 6.95798 40.6021 6.9453C40.7092 6.92105 40.9027 6.90652 41.1601 6.91795C41.4073 6.92892 41.6692 6.96174 41.893 7.00688C42.0044 7.02936 42.0991 7.05343 42.1732 7.07657C42.2099 7.08804 42.2383 7.09827 42.259 7.10662C42.2805 7.11528 42.2881 7.11963 42.2853 7.11811L43.0639 5.7203C42.8178 5.58326 42.492 5.49549 42.2093 5.43847C41.9048 5.37705 41.561 5.33417 41.231 5.31952C40.9112 5.30532 40.556 5.31525 40.2489 5.38476C40.0978 5.41896 39.9064 5.47872 39.73 5.59559C39.5445 5.71848 39.3236 5.94346 39.2683 6.29491L40.8489 6.5435ZM42.2853 7.11811C42.0543 6.98944 42.0292 6.79519 42.0476 6.8659C42.0563 6.89964 42.0704 6.9893 42.0723 7.15474C42.0761 7.4785 42.0331 7.94017 41.9498 8.4938C41.7847 9.59168 41.4807 10.9267 41.1913 11.9733L42.7335 12.3996C43.0353 11.308 43.355 9.90842 43.532 8.73178C43.6198 8.14815 43.6775 7.58756 43.6722 7.13612C43.6696 6.91395 43.6518 6.67777 43.5963 6.46394C43.5504 6.28707 43.4287 5.92351 43.0639 5.7203L42.2853 7.11811ZM41.1917 11.9722C40.9434 12.8651 40.588 13.0911 40.3368 13.1714C39.996 13.2805 39.5456 13.2232 38.9502 13.0737L38.5604 14.6254C39.152 14.774 40.0073 14.9567 40.8243 14.6954C41.731 14.4054 42.3856 13.6508 42.7332 12.4008L41.1917 11.9722ZM38.9502 13.0737C38.9177 13.0655 38.9327 13.0629 38.96 13.0892C38.987 13.1151 38.9933 13.1379 38.9915 13.1316C38.9804 13.0947 38.9674 12.9648 39.0282 12.7151C39.1467 12.2282 39.4494 11.6671 39.6411 11.402L38.3443 10.4647C38.0612 10.8564 37.6518 11.6044 37.4735 12.3368C37.3859 12.6968 37.3284 13.1541 37.4583 13.5893C37.6085 14.0924 37.9866 14.4813 38.5604 14.6254L38.9502 13.0737ZM38.4266 10.368L38.422 10.3727L39.5541 11.5033L39.5588 11.4986L38.4266 10.368ZM37.2405 18.7667C37.2062 18.7934 37.2111 18.7766 37.3089 18.752C37.3979 18.7296 37.5231 18.7107 37.6856 18.6997C38.0109 18.6776 38.4092 18.6916 38.8125 18.7248C39.211 18.7576 39.5917 18.8071 39.8744 18.8489C40.0152 18.8696 40.1303 18.8883 40.2095 18.9016C40.2491 18.9082 40.2796 18.9135 40.2998 18.9171C40.3099 18.9189 40.3174 18.9202 40.3222 18.9211C40.3246 18.9215 40.3263 18.9218 40.3273 18.922C40.3278 18.9221 40.3281 18.9222 40.3282 18.9222C40.3283 18.9222 40.3283 18.9222 40.3283 18.9222C40.3283 18.9222 40.3282 18.9222 40.3282 18.9222C40.3282 18.9222 40.3281 18.9222 40.4729 18.1354C40.6177 17.3486 40.6176 17.3486 40.6175 17.3486C40.6175 17.3486 40.6174 17.3485 40.6173 17.3485C40.6171 17.3485 40.6168 17.3484 40.6165 17.3484C40.6159 17.3483 40.6151 17.3481 40.6142 17.348C40.6123 17.3476 40.6096 17.3471 40.6063 17.3465C40.5996 17.3453 40.5901 17.3436 40.578 17.3415C40.5537 17.3372 40.5189 17.3311 40.4747 17.3237C40.3865 17.3089 40.2607 17.2885 40.108 17.266C39.8038 17.2211 39.3871 17.1667 38.9437 17.1302C38.505 17.0941 38.0169 17.0735 37.5772 17.1034C37.3572 17.1183 37.1303 17.147 36.9183 17.2004C36.715 17.2516 36.4701 17.3388 36.2577 17.5041L37.2405 18.7667ZM40.4729 18.1354C39.6746 18.1873 39.6746 18.187 39.6746 18.1867C39.6745 18.1866 39.6745 18.1863 39.6745 18.1861C39.6745 18.1858 39.6745 18.1855 39.6745 18.1852C39.6744 18.1847 39.6744 18.1844 39.6744 18.1843C39.6744 18.1842 39.6744 18.1848 39.6745 18.1862C39.6747 18.1891 39.6749 18.1952 39.6752 18.2041C39.6759 18.222 39.6766 18.2513 39.6766 18.29C39.6766 18.368 39.6736 18.4818 39.6613 18.6165C39.6359 18.8946 39.5745 19.2201 39.4475 19.499C39.3236 19.771 39.1606 19.952 38.9455 20.0471C38.7289 20.143 38.3295 20.2091 37.6186 19.9892L37.1457 21.5177C38.0989 21.8126 38.9179 21.8089 39.5928 21.5104C40.2693 21.2111 40.6709 20.6732 40.9036 20.1621C41.1333 19.6577 41.2206 19.1357 41.2547 18.762C41.2721 18.5708 41.2766 18.4077 41.2766 18.2902C41.2766 18.2312 41.2755 18.1832 41.2743 18.1481C41.2737 18.1306 41.273 18.1163 41.2725 18.1054C41.2722 18.1 41.2719 18.0954 41.2717 18.0917C41.2716 18.0899 41.2715 18.0883 41.2714 18.0869C41.2714 18.0862 41.2714 18.0856 41.2713 18.085C41.2713 18.0847 41.2713 18.0843 41.2713 18.0842C41.2712 18.0838 41.2712 18.0834 40.4729 18.1354ZM37.6195 19.9895C37.5173 19.9577 37.4314 19.8939 37.3645 19.8233C37.3323 19.7894 37.3095 19.759 37.2966 19.7404C37.2904 19.7314 37.2871 19.7259 37.2867 19.7253C37.2865 19.725 37.2871 19.7259 37.2884 19.7283C37.2891 19.7295 37.29 19.7311 37.2911 19.733C37.2916 19.734 37.2922 19.7351 37.2928 19.7362C37.2932 19.7368 37.2935 19.7374 37.2938 19.7381C37.294 19.7384 37.2942 19.7387 37.2944 19.739C37.2945 19.7392 37.2946 19.7395 37.2946 19.7395C37.2948 19.7398 37.2949 19.74 36.5909 20.1199C35.8868 20.4998 35.8869 20.5001 35.8871 20.5003C35.8871 20.5004 35.8873 20.5007 35.8874 20.5008C35.8876 20.5012 35.8878 20.5016 35.888 20.5019C35.8884 20.5027 35.8888 20.5035 35.8892 20.5043C35.8901 20.5059 35.8911 20.5076 35.8921 20.5095C35.8942 20.5132 35.8965 20.5174 35.8992 20.5221C35.9045 20.5313 35.911 20.5425 35.9188 20.5552C35.9342 20.5807 35.9547 20.613 35.9805 20.6502C36.0317 20.7242 36.1054 20.8208 36.2036 20.9243C36.3973 21.1286 36.7071 21.3815 37.1449 21.5175L37.6195 19.9895ZM36.5909 20.1199C37.3365 19.8302 37.3366 19.8304 37.3367 19.8306C37.3367 19.8306 37.3368 19.8308 37.3368 19.8309C37.3369 19.8312 37.337 19.8314 37.3371 19.8316C37.3372 19.832 37.3374 19.8323 37.3374 19.8325C37.3376 19.8329 37.3377 19.8331 37.3376 19.8329C37.3374 19.8325 37.3368 19.8309 37.3358 19.8281C37.3337 19.8225 37.33 19.8122 37.3251 19.7978C37.3152 19.769 37.3006 19.7243 37.2845 19.6681C37.2515 19.5531 37.2158 19.402 37.1976 19.2451C37.1788 19.083 37.1831 18.951 37.2041 18.8585C37.2138 18.8155 37.2251 18.7909 37.2319 18.779C37.2377 18.7689 37.241 18.7663 37.2431 18.7647L36.2552 17.5061C35.5413 18.0665 35.5545 18.9659 35.6083 19.4295C35.6395 19.6988 35.6977 19.9391 35.7464 20.1088C35.7711 20.195 35.7942 20.266 35.8118 20.3173C35.8206 20.343 35.8281 20.3639 35.8338 20.3795C35.8367 20.3873 35.8391 20.3937 35.841 20.3988C35.842 20.4013 35.8428 20.4035 35.8435 20.4053C35.8438 20.4062 35.8442 20.407 35.8444 20.4078C35.8446 20.4081 35.8447 20.4085 35.8448 20.4088C35.8449 20.4089 35.845 20.4092 35.845 20.4092C35.8451 20.4095 35.8452 20.4097 36.5909 20.1199ZM36.1347 26.7583C36.8079 26.3261 36.8077 26.3258 36.8075 26.3255C36.8074 26.3253 36.8072 26.325 36.807 26.3248C36.8067 26.3243 36.8064 26.3237 36.806 26.3232C36.8053 26.3221 36.8045 26.3209 36.8037 26.3196C36.802 26.3171 36.8001 26.3141 36.7978 26.3107C36.7933 26.3039 36.7877 26.2956 36.7809 26.2857C36.7674 26.2661 36.7492 26.2404 36.7263 26.2096C36.6807 26.1481 36.616 26.0656 36.5315 25.9688C36.3629 25.7757 36.1132 25.5231 35.776 25.2661C35.0978 24.7491 34.0682 24.217 32.6544 24.1156L32.5398 25.7115C33.593 25.7871 34.3322 26.1774 34.8061 26.5386C35.0449 26.7206 35.217 26.896 35.3262 27.0211C35.3807 27.0835 35.4189 27.1327 35.4414 27.163C35.4526 27.1781 35.4599 27.1885 35.4632 27.1933C35.4649 27.1958 35.4656 27.1968 35.4653 27.1964C35.4651 27.1961 35.4648 27.1955 35.4641 27.1946C35.4638 27.1941 35.4634 27.1935 35.463 27.1928C35.4628 27.1925 35.4625 27.1921 35.4623 27.1917C35.4621 27.1915 35.4619 27.1912 35.4619 27.1911C35.4617 27.1908 35.4615 27.1905 36.1347 26.7583ZM33.3228 25.2502C33.691 24.4566 34.4243 22.8982 34.6069 22.5543L33.1939 21.8037C32.9856 22.1959 32.2294 23.8052 31.8714 24.5769L33.3228 25.2502ZM34.6105 22.5474C34.5263 22.7098 34.4092 22.7536 34.4788 22.7149C34.5264 22.6885 34.598 22.6569 34.7385 22.5965C34.9798 22.4927 35.3839 22.3226 35.736 22.0322L34.718 20.7978C34.5675 20.922 34.3711 21.0128 34.1062 21.1268C33.9935 21.1752 33.8357 21.2418 33.7013 21.3165C33.5889 21.379 33.3374 21.527 33.1903 21.8106L34.6105 22.5474ZM34.4617 21.1821C34.2654 21.8271 34.3383 22.5498 34.4226 23.0333C34.4674 23.2899 34.5217 23.5127 34.5649 23.6718C34.5867 23.7518 34.6058 23.8167 34.6201 23.863C34.6272 23.8862 34.6331 23.9048 34.6374 23.9183C34.6396 23.9251 34.6414 23.9306 34.6428 23.9348C34.6435 23.9369 34.6441 23.9387 34.6446 23.9402C34.6448 23.9409 34.645 23.9415 34.6452 23.9421C34.6453 23.9424 34.6454 23.9426 34.6455 23.9428C34.6455 23.943 34.6456 23.9431 34.6456 23.9432C34.6456 23.9433 34.6457 23.9435 35.4039 23.6883C36.1621 23.4332 36.1622 23.4333 36.1622 23.4335C36.1622 23.4335 36.1623 23.4337 36.1623 23.4337C36.1624 23.4339 36.1624 23.434 36.1624 23.4341C36.1625 23.4343 36.1626 23.4345 36.1626 23.4346C36.1626 23.4347 36.1626 23.4345 36.1624 23.434C36.1621 23.433 36.1614 23.4308 36.1603 23.4275C36.1581 23.4207 36.1544 23.4092 36.1496 23.3936C36.14 23.3621 36.1257 23.314 36.109 23.2526C36.0754 23.1289 36.0332 22.9554 35.9988 22.7583C35.9249 22.3346 35.9094 21.9206 35.9924 21.6479L34.4617 21.1821ZM35.4039 23.6883C34.7433 24.1396 34.7433 24.1396 34.7434 24.1397C34.7434 24.1397 34.7434 24.1397 34.7434 24.1398C34.7435 24.1399 34.7436 24.14 34.7437 24.1402C34.7439 24.1405 34.7442 24.1409 34.7446 24.1415C34.7454 24.1427 34.7466 24.1444 34.7481 24.1466C34.7511 24.151 34.7555 24.1575 34.7614 24.1659C34.773 24.1828 34.79 24.2077 34.8121 24.2398C34.8563 24.3039 34.9207 24.397 35.002 24.5138C35.1645 24.7472 35.3947 25.0752 35.6662 25.4547C36.2075 26.2114 36.9191 27.1814 37.5867 28.0136L38.8347 27.0124C38.1943 26.2141 37.5025 25.2718 36.9675 24.5238C36.7007 24.1509 36.4745 23.8285 36.3151 23.5996C36.2354 23.4851 36.1725 23.3941 36.1296 23.3319C36.1082 23.3008 36.0917 23.2769 36.0808 23.2608C36.0753 23.2528 36.0711 23.2468 36.0684 23.2428C36.067 23.2408 36.066 23.2393 36.0654 23.2384C36.065 23.2379 36.0648 23.2376 36.0647 23.2373C36.0646 23.2372 36.0645 23.2372 36.0645 23.2371C36.0645 23.2371 36.0645 23.2371 36.0645 23.2371C36.0645 23.2371 36.0645 23.2371 35.4039 23.6883ZM38.0319 26.7332C37.36 26.8873 36.6691 27.0519 35.976 27.2138L36.3399 28.7719C37.0433 28.6076 37.7209 28.4461 38.3895 28.2927L38.0319 26.7332ZM36.9578 27.9784C36.9509 27.5914 36.945 27.2824 36.9409 27.0702C36.9389 26.9641 36.9373 26.8821 36.9362 26.8267C36.9357 26.799 36.9352 26.7779 36.935 26.7637C36.9348 26.7566 36.9347 26.7512 36.9346 26.7476C36.9346 26.7458 36.9346 26.7445 36.9346 26.7436C36.9346 26.7431 36.9345 26.7428 36.9345 26.7425C36.9345 26.7424 36.9345 26.7423 36.9345 26.7423C36.9345 26.7422 36.9345 26.7422 36.9345 26.7422C36.9345 26.7422 36.9345 26.7422 36.9345 26.7422C36.9345 26.7422 36.9345 26.7422 36.1347 26.7583C35.3349 26.7745 35.3349 26.7745 35.3349 26.7745C35.3349 26.7745 35.3349 26.7745 35.3349 26.7745C35.3349 26.7745 35.3349 26.7745 35.3349 26.7745C35.3349 26.7746 35.3349 26.7747 35.3349 26.7748C35.3349 26.775 35.3349 26.7753 35.3349 26.7758C35.3349 26.7766 35.3349 26.778 35.335 26.7797C35.335 26.7833 35.3351 26.7886 35.3353 26.7956C35.3356 26.8097 35.336 26.8306 35.3365 26.8582C35.3376 26.9134 35.3392 26.9951 35.3412 27.1009C35.3453 27.3126 35.3511 27.6209 35.3581 28.0073L36.9578 27.9784Z" fill="white" mask="url(#path-1-outside-1_338_882)"/>
<path d="M38.7207 36.4442L39.0486 36.2151C38.7207 36.4442 38.7208 36.4443 38.7208 36.4444L38.7211 36.4448L38.7219 36.4459L38.7247 36.45L38.7352 36.4649L38.7753 36.521C38.8104 36.5698 38.8618 36.6407 38.9283 36.7304C39.0613 36.9098 39.2548 37.1649 39.4981 37.4698C39.9842 38.0787 40.672 38.8895 41.4768 39.6928C42.2798 40.4944 43.2096 41.2991 44.1807 41.8872C45.1459 42.4717 46.1943 42.8681 47.221 42.7864C49.0769 42.641 51.1613 41.9897 52.2827 41.0545C52.8432 40.5872 53.2559 39.9645 53.1067 39.2404C52.9637 38.546 52.3333 37.9392 51.2966 37.406L51.2105 37.3618H51.2064C50.6511 37.0734 50.1125 36.7724 49.5706 36.4696C49.1528 36.2362 48.7329 36.0016 48.3019 35.7708C47.3045 35.2367 46.2899 34.7474 45.2587 34.4422C44.2239 34.1359 43.1609 34.0112 42.0701 34.2163C40.9773 34.4218 39.8853 34.9529 38.7854 35.9139L38.5151 36.1501L38.7207 36.4442Z" fill="#1D208B" stroke="white" stroke-width="0.8"/>
<path d="M188.005 24.8859C188.344 24.6746 188.344 24.6745 188.344 24.6744L188.344 24.674L188.343 24.6728L188.34 24.6685L188.33 24.6526C188.322 24.6388 188.309 24.6187 188.292 24.5928C188.259 24.541 188.21 24.4659 188.147 24.3709C188.021 24.181 187.838 23.9118 187.607 23.5921C187.145 22.9537 186.492 22.1095 185.726 21.2931C184.963 20.4795 184.074 19.6775 183.14 19.1387C182.209 18.6018 181.18 18.2967 180.172 18.5746C179.123 18.8635 178.561 19.7063 178.289 20.6852C178.019 21.657 178.013 22.8283 178.111 23.9315C178.21 25.0415 178.419 26.1165 178.602 26.9112C178.693 27.3093 178.779 27.6388 178.842 27.8694C178.873 27.9847 178.899 28.0754 178.917 28.1377C178.924 28.1624 178.93 28.1827 178.934 28.1982L179.483 33.2778L170.814 34.0676V16.0925C170.848 16.0321 170.895 15.9442 170.955 15.8318C171.073 15.6069 171.236 15.2837 171.42 14.8876C171.786 14.097 172.233 13.0088 172.553 11.8284C172.871 10.6524 173.071 9.35765 172.916 8.16397C172.76 6.9591 172.24 5.83994 171.113 5.07734C169.085 3.70431 166.26 2.03104 164 1.20644C163.433 0.999442 162.891 0.842222 162.4 0.758034C161.914 0.674596 161.45 0.658157 161.051 0.756055C160.64 0.856956 160.288 1.08356 160.078 1.47623C159.877 1.85404 159.837 2.33006 159.918 2.87716C160.213 4.86284 160.747 12.889 161.208 20.4509C161.439 24.2247 161.651 27.8732 161.805 30.5784C161.882 31.9309 161.944 33.0475 161.988 33.826L162.038 34.7273L162.039 34.7456C162.008 34.7563 161.976 34.7678 161.941 34.7799C161.699 34.8642 161.353 34.9829 160.938 35.1205C160.108 35.3961 159.004 35.7467 157.907 36.0487C156.804 36.3523 155.728 36.6008 154.944 36.6806C154.545 36.7213 154.266 36.7129 154.106 36.6713C154.09 36.6672 154.076 36.6631 154.066 36.6593C154.09 36.39 154.148 35.9652 154.221 35.4255C154.253 35.1879 154.288 34.9281 154.325 34.6495C154.45 33.7031 154.588 32.5642 154.671 31.4226C154.753 30.284 154.78 29.1272 154.678 28.1488C154.626 27.6594 154.541 27.2024 154.409 26.8091C154.277 26.4188 154.088 26.064 153.813 25.8086C153.619 25.6285 153.434 25.4389 153.247 25.2464C152.69 24.6755 152.109 24.079 151.189 23.6307C149.945 23.0242 148.088 22.6687 144.741 22.7297L144.58 22.7326L144.465 22.8467L144.461 22.8514L144.283 23.029L144.366 23.2661L144.744 23.1343L144.366 23.2662L144.366 23.2665L144.366 23.2676L144.368 23.2723L144.375 23.2911L144.4 23.365C144.423 23.4301 144.456 23.526 144.498 23.649C144.582 23.8951 144.702 24.2498 144.847 24.6833C145.136 25.5505 145.521 26.7326 145.906 27.9929C146.292 29.2541 146.676 30.5895 146.963 31.7646C147.253 32.9527 147.434 33.9368 147.434 34.515C147.434 35.7416 147.203 37.326 146.966 38.62C146.848 39.2636 146.731 39.8289 146.642 40.2333C146.598 40.4354 146.561 40.5971 146.536 40.708C146.523 40.7634 146.513 40.8062 146.506 40.8349L146.498 40.8673L146.496 40.8753L146.496 40.8773L146.496 40.8777L146.496 40.8777L146.47 40.985L146.503 41.0903L146.885 40.9718C146.503 41.0903 146.503 41.0904 146.503 41.0905L146.503 41.0908L146.503 41.0918L146.504 41.0951L146.508 41.1075L146.523 41.1542C146.536 41.1946 146.555 41.2535 146.58 41.3279C146.63 41.4768 146.702 41.6885 146.795 41.9416C146.979 42.4466 147.244 43.121 147.563 43.7905C147.88 44.4553 148.261 45.1373 148.682 45.6438C149.082 46.124 149.626 46.5745 150.269 46.4828C151.119 46.3616 154.317 45.703 157.278 45.0801C158.764 44.7676 160.198 44.4625 161.26 44.2356C161.792 44.1221 162.23 44.0281 162.535 43.9626L162.889 43.8866L162.982 43.8666L163.006 43.8615L163.008 43.8609L163.009 43.8608L163.01 43.8605L163.012 43.8602L163.013 43.8599L163.014 43.8598L163.016 43.8594L163.039 43.8548L163.128 43.8369L163.47 43.769C163.766 43.7105 164.19 43.6269 164.705 43.5265C165.735 43.3258 167.127 43.0581 168.573 42.7906C170.021 42.5229 171.521 42.2557 172.77 42.0556C174.034 41.853 175.002 41.7258 175.409 41.7258C175.834 41.7258 176.261 41.7615 176.632 41.8339C177.011 41.9077 177.298 42.0134 177.469 42.1316C177.63 42.2419 177.63 42.3128 177.622 42.3624C177.603 42.4692 177.488 42.6946 177.062 43.0355C176.609 43.3987 176.278 43.7274 176.092 44.0547C175.89 44.4117 175.862 44.768 176.01 45.1217C176.141 45.4354 176.4 45.7192 176.685 45.9939C176.841 46.144 177.03 46.315 177.235 46.4999C177.401 46.6492 177.576 46.8075 177.752 46.9712C179.483 48.5823 181.036 49.0055 182.492 48.7348C182.877 48.6632 183.335 48.4695 183.79 48.2341C184.252 47.9949 184.74 47.6969 185.194 47.3945C185.649 47.0919 186.074 46.7811 186.411 46.514C186.733 46.2589 187.012 46.0138 187.137 45.8479C187.182 45.7883 187.204 45.7269 187.213 45.7005C187.225 45.6656 187.235 45.6293 187.242 45.5958C187.258 45.5284 187.272 45.446 187.286 45.3544C187.313 45.1698 187.341 44.9198 187.37 44.6181C187.427 44.013 187.489 43.1784 187.553 42.1949C187.682 40.2267 187.819 37.6489 187.945 35.0879C188.071 32.5265 188.186 29.9801 188.269 28.0742C188.311 27.1212 188.345 26.3283 188.368 25.7736L188.395 25.1299L188.402 24.9604L188.404 24.917L188.404 24.9059L188.404 24.9032L188.404 24.9025C188.404 24.9023 188.404 24.9022 188.005 24.8859ZM188.005 24.8859L188.344 24.6746L188.409 24.7792L188.404 24.9022L188.005 24.8859Z" fill="#1E1B86" stroke="white" stroke-width="0.8"/>
<mask id="path-5-outside-2_338_882" maskUnits="userSpaceOnUse" x="54.4053" y="5.01318" width="98" height="46" fill="black">
<rect fill="white" x="54.4053" y="5.01318" width="98" height="46"/>
<path fill-rule="evenodd" clip-rule="evenodd" d="M99.0294 44.1393C99.7416 43.3287 100.421 42.4855 101.175 41.7122C103.363 39.4575 105.411 37.1096 106.444 34.0676C107.119 32.083 107.799 30.0985 108.381 28.086C108.8 26.6465 108.404 25.2676 107.613 24.0424C107.385 23.693 106.742 23.2365 106.51 23.339C105.932 23.5905 105.216 24.0424 105.025 24.5828C104.429 26.2692 103.996 28.0208 103.6 29.7724C103.102 31.9759 102.697 34.198 102.018 36.4155C101.99 36.1359 101.962 35.8518 101.915 35.4279C100.696 36.4714 101.073 38.4885 99.183 39.2758C100.314 35.4744 102.12 32.1389 102.339 28.3609C99.5927 34.5474 98.3871 41.4047 94.3747 47.0229C94.263 46.981 94.1513 46.9391 94.0349 46.8971C94.0954 46.6269 94.1326 46.3428 94.2211 46.0819C96.5485 39.518 98.8665 32.9449 101.231 26.3903C101.841 24.6946 102.102 22.8219 103.763 21.6107C104.285 21.2333 104.443 20.3575 104.778 19.6914C103.652 18.5034 102.507 17.3668 101.445 16.1555C100.435 15.0096 99.5135 13.789 98.4197 12.4427C98.3824 13.6353 98.2288 14.8558 98.8991 15.904C99.7323 17.2037 100.742 18.387 101.864 19.8637C100.724 20.1432 99.7323 20.4367 98.7222 20.5811C98.5779 20.5998 98.0659 19.7333 98.173 19.5609C98.7408 18.6572 98.401 18.1587 97.7401 17.4786C97.2886 17.0127 97.2094 16.1788 97.0093 15.494C96.8743 15.0282 96.8231 14.539 96.7346 14.0592C96.609 14.0499 96.4833 14.0406 96.3576 14.0266C95.5384 17.1851 94.8541 20.3855 93.858 23.4881C92.8526 26.6046 91.5353 29.614 90.1947 32.698C90.3065 31.8641 90.2972 30.9976 90.5439 30.2103C91.3817 27.513 92.3592 24.8623 93.1738 22.1604C93.6206 20.679 93.8347 19.1277 94.1559 17.609C93.9651 17.5298 93.7696 17.446 93.5787 17.3668C93.3367 17.7674 92.9922 18.1354 92.8666 18.5687C91.8798 21.9787 90.9907 25.4213 89.9667 28.8174C88.6308 33.243 87.3042 37.7245 84.2693 41.3442C82.9334 42.9327 81.1925 44.1812 79.6378 45.5881C79.5075 45.4716 79.3818 45.3505 79.2515 45.234C79.6657 44.689 80.0148 44.0694 80.5129 43.6129C84.6882 39.7743 87.1319 34.9713 88.4818 29.5348C88.8542 28.0394 88.6401 26.6559 87.8162 25.3654C87.0342 24.1403 86.1079 24.0797 85.405 25.3561C84.879 26.3065 84.5532 27.4012 84.3019 28.4727C83.5711 31.5799 82.9241 34.7011 82.0909 37.827C82.0397 37.4962 81.9885 37.1608 81.9186 36.695C80.848 37.7012 81.2065 39.6392 79.2934 40.1889C80.5548 36.6484 82.0164 33.3595 82.4353 29.7584C79.6192 35.889 78.4415 42.7324 74.4105 48.3087C74.2988 48.2621 74.1918 48.2155 74.0801 48.1689C74.6479 46.8832 75.3136 45.6254 75.7697 44.2977C77.7992 38.3487 79.7542 32.3719 81.7604 26.4136C82.1886 25.1418 82.4912 23.8281 83.7573 22.957C84.4787 22.4585 84.7347 21.6153 83.7898 20.8141C82.6541 19.8498 81.5928 18.7969 80.5827 17.7022C80.1405 17.227 79.9031 16.5608 79.5913 15.9692C79.3678 15.5499 79.177 15.112 78.7907 14.744C78.6324 16.2068 78.3997 17.5764 79.6471 18.8156C80.5176 19.6774 81.0435 20.8886 81.8628 22.1511C80.8573 22.4026 79.8333 22.8079 78.786 22.8731C77.9621 22.9244 78.004 22.1511 78.3717 21.6666C78.8977 20.9725 78.6138 20.5951 78.1436 20.0314C77.7061 19.505 77.4734 18.783 77.2499 18.1168C77.0591 17.5391 77.0079 16.9102 76.8962 16.3093C76.7845 16.3093 76.6681 16.3093 76.5564 16.3093C75.7278 19.4957 75.0157 22.7194 74.0289 25.8546C73.056 28.9478 71.7992 31.9526 70.4726 34.9806C70.7147 33.6809 70.8543 32.3486 71.2221 31.0815C72.1158 28.0022 73.1305 24.9555 74.0568 21.8855C74.2476 21.2566 74.2383 20.5672 74.3221 19.9057C74.1778 19.8358 74.0289 19.7706 73.8846 19.7007C73.5867 20.1712 73.1631 20.6044 73.0188 21.1215C72.1251 24.2893 71.357 27.4944 70.4214 30.6482C69.16 34.9154 67.9498 39.2525 65.278 42.8955C63.9514 44.703 62.1546 46.1611 60.5674 47.7729C60.4091 47.6378 60.2462 47.5074 60.0879 47.3723C60.465 46.8599 60.828 46.3335 61.219 45.835C62.8156 43.7806 64.7334 41.8985 65.9343 39.6345C67.2795 37.0956 68.0987 34.2492 68.904 31.4635C69.1833 30.4898 68.8854 29.26 68.5689 28.2351C68.392 27.6574 67.4517 26.7723 67.1864 26.8748C66.4882 27.145 65.6969 27.7786 65.4362 28.4587C64.8916 29.8842 64.631 31.4215 64.3144 32.9309C63.8303 35.2275 63.4021 37.5335 62.6946 39.8162C62.6806 39.5739 62.6713 39.3317 62.662 39.0895C62.5922 39.0568 62.5224 39.0196 62.4525 38.987C61.8893 40.091 61.3261 41.1998 60.7675 42.3038C60.6093 42.2386 60.4464 42.1687 60.2881 42.1035C61.3214 38.7401 62.3548 35.3719 63.3928 32.0085C63.2299 31.9573 63.0716 31.906 62.9134 31.8548C60.2788 37.9248 59.292 44.6704 55.4053 50.2606C55.5123 49.8879 55.6147 49.5106 55.7311 49.1379C58.0166 42.0523 60.2834 34.962 62.6294 27.895C62.932 26.982 63.7047 26.2273 64.1888 25.3608C64.7706 24.3219 65.2873 23.2505 65.8086 22.1837C66.0925 21.606 66.2973 20.9958 66.5859 20.4228C66.9769 19.6588 67.5029 19.6029 67.866 20.3995C68.378 21.5222 68.7457 22.7101 69.2345 23.8421C69.5231 24.5129 69.9234 25.1325 70.4261 26.0502C70.9567 24.2101 71.2081 22.6728 71.8272 21.3079C73.2329 18.2053 74.8202 15.1819 76.333 12.1259C76.6541 11.4784 76.9334 10.7982 77.3198 10.1926C78.0226 9.08391 78.5626 9.00937 79.3911 10.0529C80.2103 11.0824 80.9179 12.2144 81.5695 13.3604C82.6262 15.2099 83.5943 17.1105 84.6184 18.974C84.7487 19.2115 85.0233 19.3746 85.3445 19.6774C85.5959 19.1556 85.7495 18.7131 86.0008 18.3357C86.1963 18.0422 86.5129 17.6183 86.7596 17.623C87.0295 17.6323 87.3879 18.0283 87.5322 18.3357C88.1979 19.7659 88.7937 21.2287 89.4453 22.6635C89.5757 22.9477 89.8177 23.1806 90.111 23.5812C90.5625 22.0905 90.8604 20.7582 91.3677 19.5097C92.0566 17.8186 92.8759 16.1835 93.6858 14.5437C94.6866 12.5126 95.7478 10.5094 96.7626 8.48296C97.6796 6.65216 98.4569 6.47048 99.5694 8.14755C100.854 10.0995 101.827 12.2517 102.986 14.2921C103.652 15.4661 104.41 16.5888 105.216 17.8745C105.537 17.5345 105.686 17.404 105.797 17.255C106.612 16.1788 106.98 16.2021 107.506 17.4087C108.213 19.0345 108.893 20.6743 109.586 22.3095C109.703 22.3095 109.814 22.3095 109.931 22.3095C110.075 21.8576 110.229 21.4057 110.368 20.9492C111.183 18.2519 111.956 15.5686 113.534 13.1508C114.595 11.5157 115.26 9.62896 116.108 7.8494C116.257 7.54194 116.382 7.2205 116.564 6.93167C117.253 5.82295 117.89 5.67387 118.607 6.7267C120.325 9.26093 122.014 11.8371 123.49 14.5204C126.19 19.4258 128.708 24.4244 131.343 29.3671C132.269 31.1001 133.302 32.7725 134.294 34.4729C134.424 34.6918 134.545 34.9294 134.727 35.1018C135.886 36.1872 136.621 37.5708 137.519 38.8472C140.21 42.6719 143.259 46.2123 147.965 47.7729C148.807 48.0524 149.896 48.2062 150.353 49.4733C147.788 49.2916 145.488 48.8491 143.585 47.2186C138.641 42.984 134.633 37.9574 131.343 32.3719C129.895 29.9122 128.75 27.2754 127.423 24.7412C126.516 23.0036 125.492 21.3265 124.584 19.5935C123.62 17.7534 122.731 15.8714 121.675 13.7238V15.6571C119.762 14.6881 118.984 13.0017 118.16 11.2688C117.914 12.5359 117.704 13.7611 118.468 14.8884C119.315 16.1323 120.194 17.3528 121.27 18.8854C120.097 19.1184 119.101 19.342 118.095 19.4724C118.007 19.4817 117.625 18.7224 117.737 18.55C118.333 17.6183 117.988 17.0546 117.299 16.3372C116.88 15.8993 116.824 15.0981 116.643 14.4505C116.508 13.9707 116.438 13.4722 116.34 12.9831C116.229 12.9738 116.122 12.9598 116.01 12.9505C115.191 16.1043 114.492 19.2954 113.515 22.398C112.523 25.5378 111.262 28.5938 110.033 31.906C110.205 26.3391 113.631 21.7411 113.827 16.4071C113.696 16.3326 113.562 16.258 113.431 16.1835C113.166 16.5795 112.78 16.9428 112.654 17.3761C111.728 20.6231 110.904 23.9027 109.945 27.1403C108.744 31.1933 107.427 35.1996 105.262 38.8891C103.819 41.3582 101.571 42.8629 99.3553 44.4514C99.2575 44.3536 99.1551 44.2511 99.0574 44.1533L99.0294 44.1393Z"/>
</mask>
<path fill-rule="evenodd" clip-rule="evenodd" d="M99.0294 44.1393C99.7416 43.3287 100.421 42.4855 101.175 41.7122C103.363 39.4575 105.411 37.1096 106.444 34.0676C107.119 32.083 107.799 30.0985 108.381 28.086C108.8 26.6465 108.404 25.2676 107.613 24.0424C107.385 23.693 106.742 23.2365 106.51 23.339C105.932 23.5905 105.216 24.0424 105.025 24.5828C104.429 26.2692 103.996 28.0208 103.6 29.7724C103.102 31.9759 102.697 34.198 102.018 36.4155C101.99 36.1359 101.962 35.8518 101.915 35.4279C100.696 36.4714 101.073 38.4885 99.183 39.2758C100.314 35.4744 102.12 32.1389 102.339 28.3609C99.5927 34.5474 98.3871 41.4047 94.3747 47.0229C94.263 46.981 94.1513 46.9391 94.0349 46.8971C94.0954 46.6269 94.1326 46.3428 94.2211 46.0819C96.5485 39.518 98.8665 32.9449 101.231 26.3903C101.841 24.6946 102.102 22.8219 103.763 21.6107C104.285 21.2333 104.443 20.3575 104.778 19.6914C103.652 18.5034 102.507 17.3668 101.445 16.1555C100.435 15.0096 99.5135 13.789 98.4197 12.4427C98.3824 13.6353 98.2288 14.8558 98.8991 15.904C99.7323 17.2037 100.742 18.387 101.864 19.8637C100.724 20.1432 99.7323 20.4367 98.7222 20.5811C98.5779 20.5998 98.0659 19.7333 98.173 19.5609C98.7408 18.6572 98.401 18.1587 97.7401 17.4786C97.2886 17.0127 97.2094 16.1788 97.0093 15.494C96.8743 15.0282 96.8231 14.539 96.7346 14.0592C96.609 14.0499 96.4833 14.0406 96.3576 14.0266C95.5384 17.1851 94.8541 20.3855 93.858 23.4881C92.8526 26.6046 91.5353 29.614 90.1947 32.698C90.3065 31.8641 90.2972 30.9976 90.5439 30.2103C91.3817 27.513 92.3592 24.8623 93.1738 22.1604C93.6206 20.679 93.8347 19.1277 94.1559 17.609C93.9651 17.5298 93.7696 17.446 93.5787 17.3668C93.3367 17.7674 92.9922 18.1354 92.8666 18.5687C91.8798 21.9787 90.9907 25.4213 89.9667 28.8174C88.6308 33.243 87.3042 37.7245 84.2693 41.3442C82.9334 42.9327 81.1925 44.1812 79.6378 45.5881C79.5075 45.4716 79.3818 45.3505 79.2515 45.234C79.6657 44.689 80.0148 44.0694 80.5129 43.6129C84.6882 39.7743 87.1319 34.9713 88.4818 29.5348C88.8542 28.0394 88.6401 26.6559 87.8162 25.3654C87.0342 24.1403 86.1079 24.0797 85.405 25.3561C84.879 26.3065 84.5532 27.4012 84.3019 28.4727C83.5711 31.5799 82.9241 34.7011 82.0909 37.827C82.0397 37.4962 81.9885 37.1608 81.9186 36.695C80.848 37.7012 81.2065 39.6392 79.2934 40.1889C80.5548 36.6484 82.0164 33.3595 82.4353 29.7584C79.6192 35.889 78.4415 42.7324 74.4105 48.3087C74.2988 48.2621 74.1918 48.2155 74.0801 48.1689C74.6479 46.8832 75.3136 45.6254 75.7697 44.2977C77.7992 38.3487 79.7542 32.3719 81.7604 26.4136C82.1886 25.1418 82.4912 23.8281 83.7573 22.957C84.4787 22.4585 84.7347 21.6153 83.7898 20.8141C82.6541 19.8498 81.5928 18.7969 80.5827 17.7022C80.1405 17.227 79.9031 16.5608 79.5913 15.9692C79.3678 15.5499 79.177 15.112 78.7907 14.744C78.6324 16.2068 78.3997 17.5764 79.6471 18.8156C80.5176 19.6774 81.0435 20.8886 81.8628 22.1511C80.8573 22.4026 79.8333 22.8079 78.786 22.8731C77.9621 22.9244 78.004 22.1511 78.3717 21.6666C78.8977 20.9725 78.6138 20.5951 78.1436 20.0314C77.7061 19.505 77.4734 18.783 77.2499 18.1168C77.0591 17.5391 77.0079 16.9102 76.8962 16.3093C76.7845 16.3093 76.6681 16.3093 76.5564 16.3093C75.7278 19.4957 75.0157 22.7194 74.0289 25.8546C73.056 28.9478 71.7992 31.9526 70.4726 34.9806C70.7147 33.6809 70.8543 32.3486 71.2221 31.0815C72.1158 28.0022 73.1305 24.9555 74.0568 21.8855C74.2476 21.2566 74.2383 20.5672 74.3221 19.9057C74.1778 19.8358 74.0289 19.7706 73.8846 19.7007C73.5867 20.1712 73.1631 20.6044 73.0188 21.1215C72.1251 24.2893 71.357 27.4944 70.4214 30.6482C69.16 34.9154 67.9498 39.2525 65.278 42.8955C63.9514 44.703 62.1546 46.1611 60.5674 47.7729C60.4091 47.6378 60.2462 47.5074 60.0879 47.3723C60.465 46.8599 60.828 46.3335 61.219 45.835C62.8156 43.7806 64.7334 41.8985 65.9343 39.6345C67.2795 37.0956 68.0987 34.2492 68.904 31.4635C69.1833 30.4898 68.8854 29.26 68.5689 28.2351C68.392 27.6574 67.4517 26.7723 67.1864 26.8748C66.4882 27.145 65.6969 27.7786 65.4362 28.4587C64.8916 29.8842 64.631 31.4215 64.3144 32.9309C63.8303 35.2275 63.4021 37.5335 62.6946 39.8162C62.6806 39.5739 62.6713 39.3317 62.662 39.0895C62.5922 39.0568 62.5224 39.0196 62.4525 38.987C61.8893 40.091 61.3261 41.1998 60.7675 42.3038C60.6093 42.2386 60.4464 42.1687 60.2881 42.1035C61.3214 38.7401 62.3548 35.3719 63.3928 32.0085C63.2299 31.9573 63.0716 31.906 62.9134 31.8548C60.2788 37.9248 59.292 44.6704 55.4053 50.2606C55.5123 49.8879 55.6147 49.5106 55.7311 49.1379C58.0166 42.0523 60.2834 34.962 62.6294 27.895C62.932 26.982 63.7047 26.2273 64.1888 25.3608C64.7706 24.3219 65.2873 23.2505 65.8086 22.1837C66.0925 21.606 66.2973 20.9958 66.5859 20.4228C66.9769 19.6588 67.5029 19.6029 67.866 20.3995C68.378 21.5222 68.7457 22.7101 69.2345 23.8421C69.5231 24.5129 69.9234 25.1325 70.4261 26.0502C70.9567 24.2101 71.2081 22.6728 71.8272 21.3079C73.2329 18.2053 74.8202 15.1819 76.333 12.1259C76.6541 11.4784 76.9334 10.7982 77.3198 10.1926C78.0226 9.08391 78.5626 9.00937 79.3911 10.0529C80.2103 11.0824 80.9179 12.2144 81.5695 13.3604C82.6262 15.2099 83.5943 17.1105 84.6184 18.974C84.7487 19.2115 85.0233 19.3746 85.3445 19.6774C85.5959 19.1556 85.7495 18.7131 86.0008 18.3357C86.1963 18.0422 86.5129 17.6183 86.7596 17.623C87.0295 17.6323 87.3879 18.0283 87.5322 18.3357C88.1979 19.7659 88.7937 21.2287 89.4453 22.6635C89.5757 22.9477 89.8177 23.1806 90.111 23.5812C90.5625 22.0905 90.8604 20.7582 91.3677 19.5097C92.0566 17.8186 92.8759 16.1835 93.6858 14.5437C94.6866 12.5126 95.7478 10.5094 96.7626 8.48296C97.6796 6.65216 98.4569 6.47048 99.5694 8.14755C100.854 10.0995 101.827 12.2517 102.986 14.2921C103.652 15.4661 104.41 16.5888 105.216 17.8745C105.537 17.5345 105.686 17.404 105.797 17.255C106.612 16.1788 106.98 16.2021 107.506 17.4087C108.213 19.0345 108.893 20.6743 109.586 22.3095C109.703 22.3095 109.814 22.3095 109.931 22.3095C110.075 21.8576 110.229 21.4057 110.368 20.9492C111.183 18.2519 111.956 15.5686 113.534 13.1508C114.595 11.5157 115.26 9.62896 116.108 7.8494C116.257 7.54194 116.382 7.2205 116.564 6.93167C117.253 5.82295 117.89 5.67387 118.607 6.7267C120.325 9.26093 122.014 11.8371 123.49 14.5204C126.19 19.4258 128.708 24.4244 131.343 29.3671C132.269 31.1001 133.302 32.7725 134.294 34.4729C134.424 34.6918 134.545 34.9294 134.727 35.1018C135.886 36.1872 136.621 37.5708 137.519 38.8472C140.21 42.6719 143.259 46.2123 147.965 47.7729C148.807 48.0524 149.896 48.2062 150.353 49.4733C147.788 49.2916 145.488 48.8491 143.585 47.2186C138.641 42.984 134.633 37.9574 131.343 32.3719C129.895 29.9122 128.75 27.2754 127.423 24.7412C126.516 23.0036 125.492 21.3265 124.584 19.5935C123.62 17.7534 122.731 15.8714 121.675 13.7238V15.6571C119.762 14.6881 118.984 13.0017 118.16 11.2688C117.914 12.5359 117.704 13.7611 118.468 14.8884C119.315 16.1323 120.194 17.3528 121.27 18.8854C120.097 19.1184 119.101 19.342 118.095 19.4724C118.007 19.4817 117.625 18.7224 117.737 18.55C118.333 17.6183 117.988 17.0546 117.299 16.3372C116.88 15.8993 116.824 15.0981 116.643 14.4505C116.508 13.9707 116.438 13.4722 116.34 12.9831C116.229 12.9738 116.122 12.9598 116.01 12.9505C115.191 16.1043 114.492 19.2954 113.515 22.398C112.523 25.5378 111.262 28.5938 110.033 31.906C110.205 26.3391 113.631 21.7411 113.827 16.4071C113.696 16.3326 113.562 16.258 113.431 16.1835C113.166 16.5795 112.78 16.9428 112.654 17.3761C111.728 20.6231 110.904 23.9027 109.945 27.1403C108.744 31.1933 107.427 35.1996 105.262 38.8891C103.819 41.3582 101.571 42.8629 99.3553 44.4514C99.2575 44.3536 99.1551 44.2511 99.0574 44.1533L99.0294 44.1393Z" fill="#1B2091"/>
<path fill-rule="evenodd" clip-rule="evenodd" d="M99.0294 44.1393C99.7416 43.3287 100.421 42.4855 101.175 41.7122C103.363 39.4575 105.411 37.1096 106.444 34.0676C107.119 32.083 107.799 30.0985 108.381 28.086C108.8 26.6465 108.404 25.2676 107.613 24.0424C107.385 23.693 106.742 23.2365 106.51 23.339C105.932 23.5905 105.216 24.0424 105.025 24.5828C104.429 26.2692 103.996 28.0208 103.6 29.7724C103.102 31.9759 102.697 34.198 102.018 36.4155C101.99 36.1359 101.962 35.8518 101.915 35.4279C100.696 36.4714 101.073 38.4885 99.183 39.2758C100.314 35.4744 102.12 32.1389 102.339 28.3609C99.5927 34.5474 98.3871 41.4047 94.3747 47.0229C94.263 46.981 94.1513 46.9391 94.0349 46.8971C94.0954 46.6269 94.1326 46.3428 94.2211 46.0819C96.5485 39.518 98.8665 32.9449 101.231 26.3903C101.841 24.6946 102.102 22.8219 103.763 21.6107C104.285 21.2333 104.443 20.3575 104.778 19.6914C103.652 18.5034 102.507 17.3668 101.445 16.1555C100.435 15.0096 99.5135 13.789 98.4197 12.4427C98.3824 13.6353 98.2288 14.8558 98.8991 15.904C99.7323 17.2037 100.742 18.387 101.864 19.8637C100.724 20.1432 99.7323 20.4367 98.7222 20.5811C98.5779 20.5998 98.0659 19.7333 98.173 19.5609C98.7408 18.6572 98.401 18.1587 97.7401 17.4786C97.2886 17.0127 97.2094 16.1788 97.0093 15.494C96.8743 15.0282 96.8231 14.539 96.7346 14.0592C96.609 14.0499 96.4833 14.0406 96.3576 14.0266C95.5384 17.1851 94.8541 20.3855 93.858 23.4881C92.8526 26.6046 91.5353 29.614 90.1947 32.698C90.3065 31.8641 90.2972 30.9976 90.5439 30.2103C91.3817 27.513 92.3592 24.8623 93.1738 22.1604C93.6206 20.679 93.8347 19.1277 94.1559 17.609C93.9651 17.5298 93.7696 17.446 93.5787 17.3668C93.3367 17.7674 92.9922 18.1354 92.8666 18.5687C91.8798 21.9787 90.9907 25.4213 89.9667 28.8174C88.6308 33.243 87.3042 37.7245 84.2693 41.3442C82.9334 42.9327 81.1925 44.1812 79.6378 45.5881C79.5075 45.4716 79.3818 45.3505 79.2515 45.234C79.6657 44.689 80.0148 44.0694 80.5129 43.6129C84.6882 39.7743 87.1319 34.9713 88.4818 29.5348C88.8542 28.0394 88.6401 26.6559 87.8162 25.3654C87.0342 24.1403 86.1079 24.0797 85.405 25.3561C84.879 26.3065 84.5532 27.4012 84.3019 28.4727C83.5711 31.5799 82.9241 34.7011 82.0909 37.827C82.0397 37.4962 81.9885 37.1608 81.9186 36.695C80.848 37.7012 81.2065 39.6392 79.2934 40.1889C80.5548 36.6484 82.0164 33.3595 82.4353 29.7584C79.6192 35.889 78.4415 42.7324 74.4105 48.3087C74.2988 48.2621 74.1918 48.2155 74.0801 48.1689C74.6479 46.8832 75.3136 45.6254 75.7697 44.2977C77.7992 38.3487 79.7542 32.3719 81.7604 26.4136C82.1886 25.1418 82.4912 23.8281 83.7573 22.957C84.4787 22.4585 84.7347 21.6153 83.7898 20.8141C82.6541 19.8498 81.5928 18.7969 80.5827 17.7022C80.1405 17.227 79.9031 16.5608 79.5913 15.9692C79.3678 15.5499 79.177 15.112 78.7907 14.744C78.6324 16.2068 78.3997 17.5764 79.6471 18.8156C80.5176 19.6774 81.0435 20.8886 81.8628 22.1511C80.8573 22.4026 79.8333 22.8079 78.786 22.8731C77.9621 22.9244 78.004 22.1511 78.3717 21.6666C78.8977 20.9725 78.6138 20.5951 78.1436 20.0314C77.7061 19.505 77.4734 18.783 77.2499 18.1168C77.0591 17.5391 77.0079 16.9102 76.8962 16.3093C76.7845 16.3093 76.6681 16.3093 76.5564 16.3093C75.7278 19.4957 75.0157 22.7194 74.0289 25.8546C73.056 28.9478 71.7992 31.9526 70.4726 34.9806C70.7147 33.6809 70.8543 32.3486 71.2221 31.0815C72.1158 28.0022 73.1305 24.9555 74.0568 21.8855C74.2476 21.2566 74.2383 20.5672 74.3221 19.9057C74.1778 19.8358 74.0289 19.7706 73.8846 19.7007C73.5867 20.1712 73.1631 20.6044 73.0188 21.1215C72.1251 24.2893 71.357 27.4944 70.4214 30.6482C69.16 34.9154 67.9498 39.2525 65.278 42.8955C63.9514 44.703 62.1546 46.1611 60.5674 47.7729C60.4091 47.6378 60.2462 47.5074 60.0879 47.3723C60.465 46.8599 60.828 46.3335 61.219 45.835C62.8156 43.7806 64.7334 41.8985 65.9343 39.6345C67.2795 37.0956 68.0987 34.2492 68.904 31.4635C69.1833 30.4898 68.8854 29.26 68.5689 28.2351C68.392 27.6574 67.4517 26.7723 67.1864 26.8748C66.4882 27.145 65.6969 27.7786 65.4362 28.4587C64.8916 29.8842 64.631 31.4215 64.3144 32.9309C63.8303 35.2275 63.4021 37.5335 62.6946 39.8162C62.6806 39.5739 62.6713 39.3317 62.662 39.0895C62.5922 39.0568 62.5224 39.0196 62.4525 38.987C61.8893 40.091 61.3261 41.1998 60.7675 42.3038C60.6093 42.2386 60.4464 42.1687 60.2881 42.1035C61.3214 38.7401 62.3548 35.3719 63.3928 32.0085C63.2299 31.9573 63.0716 31.906 62.9134 31.8548C60.2788 37.9248 59.292 44.6704 55.4053 50.2606C55.5123 49.8879 55.6147 49.5106 55.7311 49.1379C58.0166 42.0523 60.2834 34.962 62.6294 27.895C62.932 26.982 63.7047 26.2273 64.1888 25.3608C64.7706 24.3219 65.2873 23.2505 65.8086 22.1837C66.0925 21.606 66.2973 20.9958 66.5859 20.4228C66.9769 19.6588 67.5029 19.6029 67.866 20.3995C68.378 21.5222 68.7457 22.7101 69.2345 23.8421C69.5231 24.5129 69.9234 25.1325 70.4261 26.0502C70.9567 24.2101 71.2081 22.6728 71.8272 21.3079C73.2329 18.2053 74.8202 15.1819 76.333 12.1259C76.6541 11.4784 76.9334 10.7982 77.3198 10.1926C78.0226 9.08391 78.5626 9.00937 79.3911 10.0529C80.2103 11.0824 80.9179 12.2144 81.5695 13.3604C82.6262 15.2099 83.5943 17.1105 84.6184 18.974C84.7487 19.2115 85.0233 19.3746 85.3445 19.6774C85.5959 19.1556 85.7495 18.7131 86.0008 18.3357C86.1963 18.0422 86.5129 17.6183 86.7596 17.623C87.0295 17.6323 87.3879 18.0283 87.5322 18.3357C88.1979 19.7659 88.7937 21.2287 89.4453 22.6635C89.5757 22.9477 89.8177 23.1806 90.111 23.5812C90.5625 22.0905 90.8604 20.7582 91.3677 19.5097C92.0566 17.8186 92.8759 16.1835 93.6858 14.5437C94.6866 12.5126 95.7478 10.5094 96.7626 8.48296C97.6796 6.65216 98.4569 6.47048 99.5694 8.14755C100.854 10.0995 101.827 12.2517 102.986 14.2921C103.652 15.4661 104.41 16.5888 105.216 17.8745C105.537 17.5345 105.686 17.404 105.797 17.255C106.612 16.1788 106.98 16.2021 107.506 17.4087C108.213 19.0345 108.893 20.6743 109.586 22.3095C109.703 22.3095 109.814 22.3095 109.931 22.3095C110.075 21.8576 110.229 21.4057 110.368 20.9492C111.183 18.2519 111.956 15.5686 113.534 13.1508C114.595 11.5157 115.26 9.62896 116.108 7.8494C116.257 7.54194 116.382 7.2205 116.564 6.93167C117.253 5.82295 117.89 5.67387 118.607 6.7267C120.325 9.26093 122.014 11.8371 123.49 14.5204C126.19 19.4258 128.708 24.4244 131.343 29.3671C132.269 31.1001 133.302 32.7725 134.294 34.4729C134.424 34.6918 134.545 34.9294 134.727 35.1018C135.886 36.1872 136.621 37.5708 137.519 38.8472C140.21 42.6719 143.259 46.2123 147.965 47.7729C148.807 48.0524 149.896 48.2062 150.353 49.4733C147.788 49.2916 145.488 48.8491 143.585 47.2186C138.641 42.984 134.633 37.9574 131.343 32.3719C129.895 29.9122 128.75 27.2754 127.423 24.7412C126.516 23.0036 125.492 21.3265 124.584 19.5935C123.62 17.7534 122.731 15.8714 121.675 13.7238V15.6571C119.762 14.6881 118.984 13.0017 118.16 11.2688C117.914 12.5359 117.704 13.7611 118.468 14.8884C119.315 16.1323 120.194 17.3528 121.27 18.8854C120.097 19.1184 119.101 19.342 118.095 19.4724C118.007 19.4817 117.625 18.7224 117.737 18.55C118.333 17.6183 117.988 17.0546 117.299 16.3372C116.88 15.8993 116.824 15.0981 116.643 14.4505C116.508 13.9707 116.438 13.4722 116.34 12.9831C116.229 12.9738 116.122 12.9598 116.01 12.9505C115.191 16.1043 114.492 19.2954 113.515 22.398C112.523 25.5378 111.262 28.5938 110.033 31.906C110.205 26.3391 113.631 21.7411 113.827 16.4071C113.696 16.3326 113.562 16.258 113.431 16.1835C113.166 16.5795 112.78 16.9428 112.654 17.3761C111.728 20.6231 110.904 23.9027 109.945 27.1403C108.744 31.1933 107.427 35.1996 105.262 38.8891C103.819 41.3582 101.571 42.8629 99.3553 44.4514C99.2575 44.3536 99.1551 44.2511 99.0574 44.1533L99.0294 44.1393Z" stroke="white" stroke-width="1.6" mask="url(#path-5-outside-2_338_882)"/>
</svg>
