<svg width="176" height="56" viewBox="0 0 176 56" fill="none" xmlns="http://www.w3.org/2000/svg">
<path d="M174.463 33.9363C174.612 33.5653 174.612 33.5652 174.612 33.5652L174.612 33.5651L174.611 33.5645L174.606 33.5625L174.587 33.5549L174.513 33.5259C174.449 33.5007 174.356 33.4641 174.238 33.4182C174 33.3266 173.662 33.198 173.255 33.0498C172.443 32.7538 171.355 32.378 170.26 32.0625C169.173 31.7489 168.052 31.4867 167.183 31.4307C166.754 31.403 166.341 31.4218 166.015 31.5405C165.847 31.6016 165.684 31.6958 165.557 31.8416C165.426 31.9923 165.354 32.1761 165.341 32.3781C165.273 33.3622 165.29 35.457 165.323 37.286C165.339 38.2052 165.359 39.064 165.376 39.6929C165.382 39.9359 165.388 40.1446 165.392 40.3093H154.333C154.333 40.2672 154.333 40.2221 154.334 40.1741C154.336 39.8313 154.341 39.3406 154.347 38.749C154.361 37.5656 154.383 35.9794 154.42 34.3669C154.457 32.7535 154.508 31.1172 154.578 29.8325C154.613 29.1895 154.653 28.6396 154.698 28.2266C154.721 28.0197 154.744 27.8529 154.767 27.7286C154.787 27.6213 154.802 27.5716 154.807 27.5576C154.808 27.5533 154.808 27.5523 154.808 27.5542C155.063 27.0804 155.615 25.5763 155.899 24.0696C156.041 23.3139 156.122 22.5271 156.053 21.8513C155.985 21.1896 155.761 20.5304 155.187 20.1847C154.725 19.9061 153.809 19.5893 152.733 19.2782C151.638 18.9617 150.326 18.6372 149.032 18.3524C147.739 18.0677 146.46 17.8215 145.43 17.6626C144.916 17.5833 144.459 17.5249 144.091 17.4948C143.744 17.4664 143.422 17.4575 143.212 17.5064C143.077 17.5379 142.951 17.6023 142.849 17.7059C142.749 17.8074 142.689 17.9283 142.654 18.0471C142.588 18.272 142.601 18.5328 142.636 18.7818C142.701 19.2412 142.874 19.8451 143.065 20.5113C143.084 20.5762 143.103 20.6418 143.122 20.7079C143.558 22.232 144.079 24.1582 143.954 26.0848C143.823 28.1095 143.856 31.9727 143.922 35.3128C143.955 36.9865 143.996 38.5346 144.029 39.6643C144.045 40.2292 144.059 40.6895 144.07 41.0086L144.074 41.1547C144.066 41.1561 144.057 41.1576 144.048 41.159C143.811 41.1978 143.471 41.253 143.061 41.3181C142.241 41.4483 141.142 41.6184 140.026 41.7782C138.908 41.9382 137.778 42.0871 136.892 42.1755C136.448 42.2198 136.072 42.2481 135.793 42.2558C135.653 42.2596 135.546 42.2579 135.47 42.252C135.45 42.2504 135.435 42.2488 135.424 42.2473C135.407 42.2235 135.373 42.1631 135.346 42.0287C135.309 41.8446 135.303 41.6022 135.326 41.3449C135.348 41.0899 135.396 40.8428 135.454 40.6555C135.483 40.5612 135.512 40.492 135.535 40.4479C135.54 40.4387 135.544 40.4317 135.547 40.4265C135.638 40.3582 135.693 40.2672 135.719 40.2223C135.76 40.1521 135.796 40.0696 135.829 39.9814C135.895 39.8037 135.954 39.5746 135.989 39.314C136.058 38.7942 136.035 38.1148 135.74 37.4438C135.129 36.0522 133.462 34.9094 129.779 35.0426L129.622 35.0483L129.51 35.1601L129.506 35.1644L129.39 35.2815V35.4467V41.4555C129.277 41.5207 129.124 41.6112 128.946 41.7222C128.564 41.9602 128.059 42.2962 127.579 42.6839C127.104 43.0671 126.627 43.521 126.325 43.9986C126.024 44.4729 125.842 45.0661 126.162 45.6336C126.614 46.4354 127.58 47.6532 128.717 48.6406C129.288 49.1359 129.914 49.5842 130.553 49.8929C131.189 50.2003 131.866 50.3828 132.526 50.3055C133.13 50.2348 133.748 50.0453 134.396 49.8092C134.72 49.6912 135.058 49.5592 135.41 49.4221L135.414 49.4205C135.768 49.2822 136.137 49.1381 136.529 48.9935C138.09 48.4175 140.003 47.8376 142.543 47.6761C145.13 47.5117 150.948 47.2327 156.123 46.9946C158.71 46.8756 161.134 46.7669 162.912 46.688C163.801 46.6485 164.529 46.6165 165.034 46.5943L165.342 46.5808C165.312 46.8619 165.285 47.2408 165.298 47.6365C165.31 48.0347 165.365 48.4772 165.515 48.859C165.666 49.2441 165.937 49.6156 166.405 49.7634C166.611 49.8285 166.898 49.8641 167.217 49.8791C167.545 49.8944 167.934 49.889 168.361 49.8599C169.213 49.8018 170.229 49.6478 171.212 49.3635C172.19 49.0805 173.161 48.6606 173.9 48.0555C174.647 47.4439 175.172 46.6271 175.192 45.5773L175.192 45.5769C175.224 43.7567 175.141 40.838 175.051 38.3826C175.006 37.1531 174.959 36.0368 174.923 35.2279C174.905 34.8234 174.89 34.4958 174.879 34.2692L174.867 34.0081L174.864 33.94L174.863 33.9227L174.863 33.9182L174.862 33.9171L174.862 33.9168C174.862 33.9168 174.862 33.9167 174.463 33.9363ZM174.463 33.9363L174.612 33.5653L174.85 33.6609L174.862 33.9167L174.463 33.9363ZM135.555 40.4146C135.555 40.4147 135.555 40.4153 135.554 40.4164C135.555 40.4151 135.555 40.4146 135.555 40.4146Z" fill="#1E1B86" stroke="white" stroke-width="0.8"/>
<path d="M1.68742 47.8037C1.28906 47.7675 1.28905 47.7676 1.28905 47.7676L1.28903 47.7679L1.28895 47.7687L1.28865 47.772L1.28751 47.7847L1.28317 47.8338C1.27942 47.8767 1.27399 47.9394 1.26728 48.0193C1.25386 48.1789 1.2353 48.4071 1.21469 48.6817C1.17348 49.2304 1.12394 49.966 1.09087 50.7109C1.05791 51.4534 1.04085 52.2149 1.06622 52.8116C1.07882 53.1079 1.10241 53.3788 1.14411 53.5916C1.16474 53.6968 1.19294 53.8047 1.23487 53.8998C1.27063 53.9809 1.34793 54.1273 1.5094 54.2075C1.62579 54.2654 1.76826 54.3009 1.9012 54.3256C2.04146 54.3517 2.20287 54.3712 2.37418 54.3857C2.71726 54.4147 3.12186 54.4251 3.51948 54.421C3.91749 54.4169 4.31602 54.3982 4.64786 54.3673C4.81353 54.3519 4.96677 54.3332 5.09715 54.3108C5.21938 54.2897 5.34941 54.2611 5.45229 54.2172C5.56536 54.1689 5.63302 54.0872 5.66947 54.0318C5.70753 53.974 5.732 53.914 5.74855 53.8642C5.78169 53.7644 5.80112 53.649 5.81306 53.5337C5.83736 53.2991 5.83733 52.995 5.81387 52.6551C5.76679 51.9732 5.62185 51.0982 5.34786 50.258C5.0762 49.425 4.66397 48.5837 4.05621 48.0123C3.42644 47.4201 2.59477 47.1298 1.578 47.4189L1.68742 47.8037Z" fill="#1E1B86" stroke="white" stroke-width="0.8"/>
<path d="M37.0444 46.4214L37.136 46.032L36.1882 45.8091L36.7055 46.6339L41.3637 54.0615L41.4569 54.2102L41.6294 54.2423L41.7026 53.849C41.6294 54.2423 41.6295 54.2423 41.6295 54.2423L41.6297 54.2423L41.6303 54.2424L41.6325 54.2428L41.6406 54.2443L41.6714 54.2499C41.6983 54.2548 41.7375 54.2618 41.7876 54.2706C41.8877 54.2881 42.0313 54.3126 42.2061 54.3407C42.5553 54.3968 43.0309 54.4677 43.5346 54.5261C44.0367 54.5842 44.5746 54.631 45.0459 54.6371C45.2815 54.6401 45.5076 54.6331 45.708 54.6105C45.9018 54.5887 46.1002 54.5495 46.2646 54.4728C46.4625 54.3812 46.62 54.2121 46.7418 54.044C46.8694 53.8679 46.9864 53.6528 47.0909 53.419C47.3002 52.9509 47.4765 52.3699 47.5879 51.7856C47.6987 51.2036 47.7498 50.594 47.6927 50.0725C47.6385 49.5774 47.4719 49.0348 47.0212 48.7683L46.4176 48.4114V48.5082C46.3504 48.4836 46.2805 48.4588 46.2084 48.4339C45.8564 48.3121 45.4199 48.1765 44.9328 48.0339C43.958 47.7484 42.7662 47.4308 41.6126 47.1346C40.4583 46.8383 39.3393 46.5627 38.5091 46.3612C38.0939 46.2604 37.7508 46.1782 37.5114 46.1211L37.234 46.0552L37.1611 46.0379L37.1424 46.0335L37.1376 46.0324L37.1364 46.0321L37.1361 46.032C37.136 46.032 37.136 46.032 37.0444 46.4214Z" fill="#1E1B86" stroke="white" stroke-width="0.8"/>
<path d="M28.3191 46.72C27.1532 46.1097 25.5978 45.6825 24.0171 46.0214H23.3979L23.701 46.6056L24.0561 46.4214C23.701 46.6056 23.7011 46.6056 23.7011 46.6057L23.7012 46.6059L23.7016 46.6067L23.7031 46.6096L23.7089 46.6206L23.731 46.6628C23.7503 46.6996 23.7786 46.7532 23.8149 46.8213C23.8876 46.9576 23.9923 47.1519 24.121 47.3849C24.378 47.8504 24.732 48.4727 25.118 49.0963C25.5024 49.7174 25.9255 50.3511 26.3206 50.8336C26.5174 51.0739 26.7173 51.2891 26.9108 51.4478C27.0875 51.5928 27.3291 51.7503 27.5999 51.7503C27.9431 51.7503 28.3002 51.6168 28.619 51.4391C28.9446 51.2576 29.2659 51.01 29.5458 50.7361C29.8252 50.4628 30.075 50.1521 30.2485 49.8379C30.4163 49.5339 30.5411 49.1752 30.489 48.8267C30.4597 48.6305 30.362 48.4402 30.2471 48.2726C30.1282 48.099 29.9705 47.9203 29.7852 47.7444C29.4142 47.3922 28.9097 47.0292 28.3191 46.72Z" fill="#1E1B86" stroke="white" stroke-width="0.8"/>
<path d="M13.429 46.4217C13.0436 46.5291 13.0437 46.5292 13.0437 46.5292L13.0438 46.5295L13.044 46.5304L13.0449 46.5337L13.0485 46.5464L13.0622 46.5948C13.0743 46.6371 13.092 46.6987 13.1149 46.7771C13.1606 46.9338 13.2272 47.1574 13.3105 47.4263C13.4769 47.9634 13.711 48.6834 13.981 49.4114C14.2498 50.1363 14.5591 50.8824 14.8773 51.4653C15.0359 51.7557 15.2045 52.0203 15.3806 52.2241C15.5456 52.4152 15.7692 52.615 16.0493 52.6644C16.7614 52.7902 17.531 52.4752 18.1275 52.0121C18.7301 51.5442 19.242 50.8606 19.3967 50.1187C19.4494 49.8657 19.4052 49.605 19.3188 49.3656C19.2314 49.1235 19.0916 48.8772 18.919 48.6374C18.5737 48.1578 18.0698 47.6667 17.4855 47.2404C16.3348 46.4008 14.7574 45.7325 13.3464 46.0303L13.429 46.4217Z" fill="#1E1B86" stroke="white" stroke-width="0.8"/>
<path d="M27.3181 41.2701C27.6632 41.4723 27.6633 41.4723 27.6633 41.4722L27.6634 41.4721L27.6636 41.4717L27.6643 41.4705L27.6668 41.4662L27.6759 41.4505C27.6838 41.4369 27.6951 41.4172 27.7093 41.3921C27.7376 41.342 27.7777 41.2702 27.8253 41.1823C27.9202 41.0069 28.0459 40.7654 28.1681 40.5029C28.2894 40.2422 28.4113 39.9517 28.4948 39.6802C28.5719 39.4295 28.6413 39.1196 28.5842 38.8575L28.4281 38.1409L28.1945 38.3751C28.0931 38.3184 27.984 38.2792 27.8805 38.2507C27.6107 38.1765 27.2883 38.1514 26.9986 38.1458C26.753 38.1411 26.5125 38.1503 26.3165 38.1624C26.332 37.95 26.3565 37.6834 26.3945 37.4059C26.4383 37.0871 26.4985 36.7651 26.5793 36.4977C26.666 36.2113 26.7557 36.0598 26.815 36.0073L26.816 36.0063C27.1128 35.7413 27.8485 35.062 28.3616 34.3881C28.6107 34.061 28.8488 33.6832 28.9211 33.3274C28.959 33.1412 28.9594 32.9218 28.8502 32.7166C28.7382 32.5059 28.5455 32.3753 28.3274 32.3032C28.2002 32.2612 28.0425 32.2437 27.8877 32.2354C27.7246 32.2268 27.5308 32.2271 27.3146 32.2342C26.8816 32.2484 26.3366 32.2906 25.7244 32.3516C24.4988 32.4736 22.9812 32.6729 21.5055 32.8839C20.0288 33.095 18.5899 33.3184 17.5205 33.489C16.9857 33.5742 16.5431 33.6464 16.2342 33.6971C16.0797 33.7225 15.9586 33.7426 15.876 33.7564L15.7818 33.7721L15.7576 33.7761L15.7515 33.7772L15.7499 33.7774L15.7495 33.7775C15.7494 33.7775 15.7494 33.7775 15.8157 34.172M27.3181 41.2701L27.3248 41.6701L27.3246 41.6701L27.3239 41.6701L27.3211 41.6702L27.3098 41.6703L27.2652 41.6712L27.0947 41.6744C26.9471 41.6774 26.7349 41.6819 26.4768 41.6881C25.9605 41.7006 25.2611 41.72 24.5279 41.7474C23.7943 41.7749 23.0294 41.8104 22.3814 41.8551C21.7215 41.9006 21.2173 41.9537 20.9817 42.0099C20.7451 42.0673 20.6128 42.1343 20.5254 42.199C20.4377 42.264 20.3701 42.3448 20.2825 42.4754C20.2552 42.5161 20.2269 42.5604 20.1965 42.6079C20.0242 42.8772 19.7848 43.2511 19.2815 43.6797C18.5794 44.2776 17.8002 44.1706 17.2024 43.8833C16.6192 43.603 16.146 43.1301 15.9145 42.8437C15.83 42.7392 15.7888 42.6032 15.7654 42.515C15.7371 42.4085 15.7132 42.2808 15.6922 42.1411C15.6502 41.8603 15.6153 41.4972 15.586 41.0866C15.5273 40.2635 15.489 39.2198 15.4638 38.1978C15.4387 37.1746 15.4266 36.1682 15.4209 35.4179C15.418 35.0427 15.4167 34.7313 15.4161 34.5136C15.4158 34.4048 15.4157 34.3194 15.4157 34.2611L15.4157 34.1946L15.4157 34.1774L15.4157 34.1731L15.4157 34.1719L15.4157 34.1717C15.4157 34.1716 15.4157 34.1715 15.8157 34.172M27.3181 41.2701L27.3248 41.6701L27.5496 41.6663L27.6632 41.4723L27.3181 41.2701ZM15.8157 34.172L15.7494 33.7775L15.4161 33.8336L15.4157 34.1715L15.8157 34.172ZM23.1637 38.9268L23.017 38.9379C22.7374 38.959 22.3614 38.9877 21.9757 39.0176C21.2155 39.0767 20.3875 39.1432 20.2181 39.1668C20.0697 39.1875 19.9598 39.2643 19.8886 39.3316C19.8167 39.3995 19.7618 39.4785 19.7201 39.5492C19.6368 39.6907 19.5729 39.858 19.5257 40.0027C19.4967 40.0918 19.4717 40.1795 19.451 40.2583H19.3318C19.3235 40.1471 19.3173 40.0065 19.3133 39.8405C19.302 39.3655 19.3095 38.7267 19.3249 38.0815C19.3404 37.4378 19.3635 36.7935 19.3828 36.3097C19.3914 36.0944 19.3992 35.9111 19.4052 35.774C20.8728 35.2686 21.8961 35.0321 22.6001 34.9642C23.3614 34.8907 23.6619 35.0226 23.7707 35.1192C23.8581 35.1969 23.9005 35.3272 23.8655 35.569C23.8397 35.7474 23.787 35.903 23.7354 36.0554C23.7136 36.1198 23.6921 36.1836 23.6728 36.2483L23.6561 36.3043V36.3108C23.5519 36.6878 23.42 37.4035 23.315 38.0137C23.2586 38.3413 23.2085 38.648 23.1724 38.8727C23.1694 38.8913 23.1665 38.9094 23.1637 38.9268Z" fill="#1E1B86" stroke="white" stroke-width="0.8"/>
<path d="M6.4154 25.1196C5.91819 25.0987 5.51084 25.0164 5.17851 24.8848C4.62698 24.6664 4.29571 24.3169 4.1202 23.9293C3.9503 23.5541 3.9407 23.176 3.96653 22.9069C3.97964 22.7701 4.00253 22.6548 4.02252 22.5724C4.03256 22.531 4.04199 22.4974 4.04933 22.4729C4.053 22.4607 4.05616 22.4507 4.05862 22.4431L4.06178 22.4336L4.06293 22.4302L4.06339 22.4289L4.06359 22.4283C4.06368 22.4281 4.06377 22.4278 4.44135 22.5599M6.4154 25.1196L28.9235 16.3388M6.4154 25.1196L6.33877 25.1964L7.44742 25.0887C8.37684 24.9985 10.5898 24.7258 13.4045 24.3681L6.4154 25.1196ZM4.44135 22.5599L4.39806 22.1622L4.3982 22.1622L4.39877 22.1621L4.40105 22.1619L4.41017 22.1609L4.44632 22.1569L4.58824 22.1414L5.13348 22.0814C5.60669 22.0292 6.29068 21.9535 7.13369 21.8591C8.74003 21.6793 10.9236 21.432 13.3263 21.152C13.3077 19.9174 13.3033 18.7651 13.3038 17.8976C13.3041 17.4215 13.3058 17.031 13.3075 16.7594C13.3083 16.6236 13.3091 16.5176 13.3098 16.4454L13.3105 16.363L13.3107 16.3418L13.3108 16.3365L13.3108 16.3351L13.3108 16.3347L13.3108 16.3346L13.7108 16.3388L13.3108 16.3346L13.3144 15.9933L13.652 15.9431C15.5007 15.6686 16.798 15.9744 17.7608 16.4566C18.2374 16.6952 18.6222 16.9721 18.9414 17.2261C19.0851 17.3403 19.2058 17.4414 19.3141 17.5321C19.4625 17.6563 19.5876 17.7611 19.7166 17.8536C19.9056 17.9891 19.9894 18.211 20.0342 18.3774C20.0842 18.5634 20.1122 18.7872 20.1265 19.0294C20.1484 19.3982 20.1405 19.8468 20.1119 20.3411C20.9056 20.2437 21.6896 20.1462 22.4523 20.0488C22.4276 19.344 22.4057 18.6991 22.3893 18.2085L22.3666 17.5249L22.3652 17.482C22.2557 17.4102 22.1041 17.3079 21.931 17.1834C21.5835 16.9336 21.1364 16.5853 20.7701 16.2076C20.5869 16.0188 20.4149 15.8134 20.2853 15.6008C20.158 15.392 20.0538 15.1472 20.0472 14.8861C20.0402 14.6053 20.1477 14.3436 20.3735 14.1357C20.5851 13.9409 20.884 13.8077 21.2484 13.7172C22.6758 13.3625 24.5542 13.614 26.1013 14.1009C26.8809 14.3462 27.5996 14.6585 28.1568 15.0027C28.4353 15.1749 28.6822 15.3604 28.8774 15.5565C29.0698 15.7499 29.2318 15.9735 29.3067 16.2242M4.44135 22.5599L4.39802 22.1622L4.14709 22.1896L4.06377 22.4278L4.44135 22.5599ZM29.3067 16.2242L28.9235 16.3388M29.3067 16.2242C29.3067 16.2242 29.3067 16.2241 29.3067 16.2241L28.9235 16.3388M29.3067 16.2242C29.4074 16.5606 29.4064 17.0776 29.3612 17.6425C29.3263 18.0785 29.2615 18.5785 29.1745 19.1112M28.9235 16.3388C29.0625 16.8029 28.9746 17.8929 28.7578 19.1788C28.9024 19.1563 29.0405 19.1338 29.1745 19.1112M29.1745 19.1112C29.2009 19.1067 29.2272 19.1023 29.2533 19.0978L29.2559 19.0974C32.5203 18.5627 34.5954 18.8894 35.8744 19.3808C36.5136 19.6264 36.949 19.9114 37.2304 20.1443C37.3708 20.2605 37.4721 20.3631 37.5407 20.4404C37.575 20.479 37.6012 20.5113 37.6199 20.5357C37.6293 20.5479 37.6368 20.5582 37.6426 20.5663L37.65 20.5768L37.6527 20.5808L37.6539 20.5825L37.6544 20.5832C37.6546 20.5836 37.6548 20.5839 37.3219 20.8056M29.1745 19.1112C29.1521 19.2483 29.1282 19.3877 29.1029 19.5286C29.1768 19.5164 29.2492 19.5043 29.3206 19.4921L37.3219 20.8056M37.3219 20.8056C37.3219 20.8056 37.1542 20.8282 36.8437 20.8699C36.8864 20.9105 36.919 20.9451 36.9426 20.9716C36.9639 20.9956 36.9779 21.0132 36.9854 21.0229L36.9915 21.0311L36.9905 21.0296L36.9898 21.0286L36.9894 21.028C36.9892 21.0277 36.989 21.0273 37.3219 20.8056ZM37.3219 20.8056L37.2685 20.4092L37.2684 20.4092L37.2678 20.4093L37.2656 20.4096L37.2568 20.4108L37.222 20.4155L37.0851 20.4339L36.9714 20.4491C37.2224 20.6562 37.3219 20.8056 37.3219 20.8056ZM28.4706 22.3904C28.4934 22.3033 28.516 22.2157 28.5383 22.1279L28.1507 22.0293L28.2033 22.4258C28.2927 22.414 28.3818 22.4022 28.4706 22.3904ZM19.0365 28.042C19.0893 27.7532 19.1626 27.3447 19.2467 26.8566C19.4037 25.9445 19.5984 24.7529 19.7658 23.5453C20.5387 23.4431 21.3216 23.341 22.1049 23.2388C22.254 23.2193 22.4031 23.1999 22.5522 23.1804C22.5916 24.4053 22.6186 25.3736 22.6186 25.542C22.6186 25.621 22.5841 25.8593 22.5011 26.1992C22.4214 26.5258 22.3058 26.9102 22.1634 27.2675C22.0186 27.6312 21.857 27.9385 21.6954 28.1325C21.5254 28.3365 21.4515 28.3112 21.4485 28.3102L21.4484 28.3101C20.9284 28.1646 20.1936 28.0981 19.6155 28.066C19.4006 28.054 19.2021 28.0466 19.0365 28.042Z" fill="#1E1B86" stroke="white" stroke-width="0.8"/>
<path d="M11.4393 29.4142C11.7591 29.1739 11.759 29.1738 11.759 29.1737L11.7587 29.1734L11.758 29.1725L11.7555 29.1691L11.7464 29.1571L11.7122 29.1126C11.6825 29.0743 11.6393 29.019 11.5842 28.9502C11.4742 28.8127 11.3163 28.6204 11.1238 28.4C10.7409 27.9614 10.2125 27.4013 9.64587 26.9392C9.09749 26.492 8.44071 26.075 7.80918 26.0332C7.47276 26.0109 7.13816 26.095 6.85126 26.3338C6.57338 26.565 6.37463 26.9127 6.24034 27.3557L6.62314 27.4717C6.32169 27.7346 6.32165 27.7346 6.32162 27.7345L6.32165 27.7346L6.32228 27.7353L6.32545 27.739L6.33919 27.755C6.35153 27.7695 6.37003 27.7914 6.39378 27.8201C6.44131 27.8774 6.50968 27.9614 6.59148 28.0667C6.75551 28.2776 6.9715 28.571 7.18127 28.9024C7.39199 29.2353 7.59053 29.5972 7.72521 29.9461C7.86244 30.3015 7.91844 30.6056 7.88754 30.8375C7.86113 31.0356 7.72192 31.2803 7.43467 31.558C7.15379 31.8296 6.7701 32.0951 6.3386 32.3375C5.47323 32.8238 4.48303 33.1803 3.91398 33.3015C3.50868 33.3879 3.13589 33.6354 2.8489 33.9291C2.56062 34.2241 2.32564 34.5992 2.223 34.9868C2.12002 35.3757 2.14119 35.8304 2.45795 36.1866C2.76536 36.5323 3.2691 36.6899 3.91192 36.6899C4.3111 36.6899 4.70994 36.6794 5.08938 36.6694C5.27514 36.6645 5.45625 36.6597 5.63048 36.6564C6.17036 36.646 6.6524 36.6488 7.0663 36.6959C7.48333 36.7433 7.79457 36.8321 8.01278 36.9684C8.21522 37.0949 8.35415 37.2717 8.41962 37.5529C8.46581 37.7513 8.52272 37.9649 8.58052 38.1818C8.58572 38.2013 8.59092 38.2208 8.59611 38.2404C8.6599 38.48 8.72471 38.7261 8.78222 38.9772C8.89782 39.4818 8.97872 39.9857 8.96236 40.4556C8.94613 40.9217 8.83492 41.3363 8.58204 41.6832C8.33032 42.0285 7.91045 42.3448 7.20764 42.5658C5.71246 43.0359 4.83576 43.1252 4.21874 43.1857C4.20033 43.1875 4.18204 43.1893 4.16388 43.191C3.56535 43.2494 3.10073 43.2946 2.57447 43.7242L2.57431 43.7244C2.17822 44.0481 2.1685 44.5198 2.28753 44.9037C2.40501 45.2825 2.66473 45.6645 2.96516 45.989C3.26916 46.3173 3.64221 46.6163 4.02144 46.8185C4.38564 47.0126 4.82665 47.1548 5.23377 47.0536C5.42769 47.0054 5.82177 46.9422 6.35484 46.8566C6.48501 46.8357 6.62346 46.8135 6.76931 46.7899C7.49644 46.6719 8.3775 46.5224 9.23618 46.3335C10.0907 46.1456 10.9431 45.9143 11.6059 45.6276C11.9367 45.4846 12.2389 45.3198 12.4737 45.1268C12.7059 44.9359 12.9092 44.6861 12.9648 44.3683C13.0054 44.136 13.0097 43.7232 12.9968 43.222C12.9835 42.7058 12.9501 42.0546 12.903 41.3198C12.8088 39.8496 12.6589 38.0316 12.5011 36.2629C12.3433 34.4936 12.1773 32.7712 12.0508 31.4913C11.9875 30.8513 11.9341 30.3218 11.8965 29.9522L11.8528 29.5241L11.8412 29.4115L11.8382 29.3827L11.8374 29.3753L11.8372 29.3735L11.8372 29.373C11.8372 29.3729 11.8372 29.3728 11.4393 29.4142ZM11.4393 29.4142L11.7591 29.1739L11.8257 29.2626L11.8372 29.3728L11.4393 29.4142Z" fill="#1E1B86" stroke="white" stroke-width="0.8"/>
<path d="M39.9729 42.9798L39.992 42.9703L40.0295 42.9379C40.0811 42.8934 40.1999 42.8112 40.3924 42.6867C40.5014 42.6162 40.6234 42.5389 40.7572 42.4541C40.8526 42.3936 40.9539 42.3294 41.0609 42.2611C41.5656 41.9388 42.1688 41.5429 42.6733 41.1396C42.9256 40.938 43.1618 40.7278 43.3514 40.5176C43.5358 40.3133 43.7033 40.0797 43.7786 39.8296C43.8614 39.554 43.8309 39.2509 43.6061 39.0004C43.4087 38.7803 43.102 38.649 42.7456 38.5658L42.7454 38.5657C41.3909 38.2501 39.6738 38.1405 38.313 38.1078C37.6289 38.0913 37.028 38.0941 36.5978 38.1011C36.4782 38.103 36.3717 38.1053 36.2802 38.1075C36.2623 37.9288 36.2399 37.6923 36.2163 37.4154C36.1621 36.7775 36.1027 35.9287 36.0811 35.0794C36.0594 34.2252 36.0766 33.3908 36.1693 32.7733C36.2162 32.4611 36.2783 32.2344 36.347 32.0938C36.376 32.0344 36.3979 32.0058 36.4098 31.9933C36.7658 31.9639 37.3941 31.8235 38.0953 31.621C38.8238 31.4106 39.6659 31.1228 40.4285 30.7912C41.1796 30.4645 41.8965 30.0774 42.3385 29.6549C42.5582 29.4449 42.7536 29.1855 42.8089 28.88C42.87 28.5432 42.7475 28.2343 42.498 27.9849C42.0664 27.5523 41.4174 27.3066 40.7527 27.1615C40.077 27.0141 39.3262 26.9585 38.6347 26.9476C37.9409 26.9366 37.2939 26.9705 36.8212 27.007C36.759 27.0118 36.6998 27.0166 36.6439 27.0214C36.6622 26.9429 36.6801 26.8585 36.6966 26.7693C36.7867 26.2818 36.8419 25.6121 36.6522 24.9767C36.4556 24.3182 35.999 23.7139 35.121 23.4044C34.2706 23.1046 33.0619 23.0945 31.3672 23.497L31.0548 23.5712L31.0597 23.8922L31.4597 23.8861C31.0597 23.8922 31.0597 23.8923 31.0597 23.8924L31.0597 23.893L31.0598 23.8954L31.0599 23.9047L31.0605 23.9415L31.0628 24.0848C31.0648 24.2104 31.0679 24.3946 31.0719 24.6294C31.0801 25.0991 31.0923 25.7711 31.1086 26.5807C31.1413 28.2 31.1903 30.3703 31.2557 32.5739C31.3211 34.7768 31.403 37.0157 31.5016 38.7712C31.5508 39.6483 31.6045 40.409 31.6628 40.9858C31.6918 41.2738 31.7226 41.5211 31.7554 41.7164C31.7853 41.8939 31.8242 42.0793 31.8874 42.2059C32.0175 42.4668 32.2848 42.6315 32.5292 42.7419C32.7911 42.8602 33.1161 42.9551 33.4703 43.0319C34.1812 43.1861 35.0707 43.2806 35.9505 43.3248C36.832 43.369 37.7195 43.3635 38.4305 43.3126C38.7851 43.2872 39.1043 43.25 39.3603 43.1996C39.4881 43.1745 39.608 43.1446 39.7123 43.1083C39.7932 43.0801 39.8883 43.0401 39.9729 42.9798ZM36.4201 31.9846C36.4202 31.9849 36.4187 31.9862 36.4155 31.9878C36.4185 31.9852 36.4201 31.9844 36.4201 31.9846Z" fill="#1E1B86" stroke="white" stroke-width="0.8"/>
<path d="M78.968 19.2866C78.5851 19.1709 78.5851 19.1708 78.5852 19.1707L78.5853 19.1703L78.5859 19.1683L78.5882 19.1606L78.5974 19.13L78.6335 19.0102C78.6651 18.9051 78.7114 18.7507 78.7703 18.5536C78.888 18.1594 79.056 17.5945 79.2567 16.9122C79.6582 15.5473 80.1907 13.7129 80.7149 11.8338C81.2394 9.95386 81.7545 8.03285 82.122 6.49351C82.3059 5.72325 82.4516 5.05376 82.543 4.53504C82.5888 4.27538 82.62 4.05889 82.636 3.88932C82.653 3.70946 82.6493 3.61528 82.6433 3.58233C82.4725 2.63379 83.0154 1.93562 83.7441 1.47875C84.4668 1.02557 85.4469 0.751089 86.3921 0.616716L86.3923 0.616698C86.9994 0.530597 87.5573 0.775581 88.0279 1.13758C88.4993 1.50017 88.9244 2.01035 89.2885 2.54499C90.0172 3.61489 90.5563 4.86435 90.7643 5.48514C90.8457 5.72807 91.0976 6.18139 91.4773 6.78203C91.8482 7.36857 92.3159 8.05739 92.7991 8.75491C93.0681 9.14328 93.3431 9.53605 93.6085 9.91498C94.2865 10.8832 94.9012 11.7611 95.1901 12.2441L95.5522 12.8494H95.4171C95.4532 13.0473 95.4493 13.2428 95.4101 13.436C95.3356 13.8032 95.1397 14.1299 94.9353 14.4201C94.8374 14.559 94.7306 14.6989 94.6262 14.8356L94.6077 14.8599C94.4958 15.0066 94.3857 15.1514 94.2804 15.302C94.0701 15.6026 93.8889 15.9119 93.7747 16.2552C93.5065 17.0616 92.616 19.342 91.5982 21.6792C90.5866 24.0021 89.4213 26.4474 88.6004 27.5443C87.8546 28.5407 87.1857 30.2858 86.6215 31.7999C86.5981 31.8628 86.5748 31.9253 86.5517 31.9874C86.3033 32.655 86.0754 33.2673 85.8773 33.7016C85.7715 33.9336 85.6592 34.1494 85.54 34.2978C85.4832 34.3685 85.3934 34.4648 85.2663 34.52C85.1061 34.5895 84.9169 34.5787 84.7611 34.4619L84.7595 34.4606C84.6783 34.3991 84.614 34.3189 84.5658 34.251C84.5142 34.1781 84.4632 34.0932 84.4133 34.0021C84.3135 33.8198 84.2054 33.5891 84.0928 33.3299C83.8671 32.8104 83.6098 32.1446 83.3478 31.4552C83.2888 31.2998 83.2296 31.1436 83.1705 30.9875C82.6969 29.7374 82.2299 28.5046 81.8956 27.8892C81.4861 27.1354 80.655 24.9993 79.9385 23.0907C79.5771 22.128 79.2404 21.2108 78.994 20.5344C78.8709 20.1962 78.7703 19.918 78.7004 19.7244L78.6198 19.5004L78.5987 19.4416L78.5933 19.4265L78.5919 19.4227L78.5915 19.4217L78.5915 19.4215L78.968 19.2866ZM78.968 19.2866L78.5851 19.1709L78.547 19.2972L78.5914 19.4214L78.968 19.2866ZM84.8789 6.09283C84.9645 5.9394 85.0631 5.79764 85.173 5.68605C85.2823 5.57512 85.4653 5.43042 85.7055 5.43042H85.7341C85.7404 5.42933 85.7474 5.42801 85.7553 5.42642C85.7915 5.4191 85.8354 5.40797 85.8894 5.39308C85.9163 5.38565 85.9471 5.37684 85.9802 5.36737C86.0663 5.34273 86.1682 5.31355 86.2601 5.29216C86.383 5.26354 86.556 5.23085 86.7217 5.25464C86.8106 5.26739 86.9202 5.29931 87.0204 5.37709C87.1262 5.4593 87.1934 5.571 87.2245 5.69287C87.2437 5.76784 87.2599 5.84096 87.2757 5.91251C87.3074 6.05564 87.3378 6.19248 87.3876 6.32521C87.4071 6.37711 87.4246 6.41317 87.4384 6.43709C87.5923 6.41235 87.7437 6.36677 87.8503 6.28206C87.9408 6.21015 88.052 6.07078 88.007 5.70857L88.007 5.70836C87.9829 5.51405 87.9743 5.26329 87.9657 5.01134C87.9627 4.92242 87.9596 4.83335 87.9559 4.74656C87.9407 4.39372 87.9141 4.0441 87.8445 3.74266C87.7734 3.43492 87.6698 3.23418 87.5439 3.12416C87.4391 3.03257 87.2655 2.95724 86.9199 3.02652L86.8595 3.03862L86.8156 3.03388C86.8132 3.03405 86.8101 3.03433 86.8062 3.03477C86.784 3.03726 86.7356 3.04519 86.6627 3.0707C86.5174 3.12157 86.267 3.24497 85.9282 3.54541C85.5764 3.85746 85.3059 4.15959 85.0848 4.41332C85.0629 4.43847 85.0412 4.46352 85.0197 4.48829C84.9352 4.58561 84.8544 4.67865 84.7816 4.75707C84.6933 4.85225 84.592 4.95377 84.4833 5.02575C84.4023 5.07944 84.3139 5.12024 84.2655 5.14259C84.2562 5.14684 84.2485 5.15043 84.2425 5.15331C84.223 5.16267 84.2116 5.16895 84.2054 5.1726C84.1953 5.19721 84.1644 5.2988 84.1794 5.59166C84.1794 5.5917 84.1794 5.59173 84.1794 5.59177L83.7799 5.61221L84.8789 6.09283ZM84.8789 6.09283L84.7374 6.2347H84.8049M84.8789 6.09283L84.8049 6.2347M84.8049 6.2347C84.642 6.56823 84.5112 6.98615 84.4549 7.4174C84.3949 7.87781 84.3963 8.58185 84.4101 9.14806C84.4126 9.25264 84.4156 9.35362 84.4189 9.44887C84.3134 9.41405 84.1911 9.3898 84.0642 9.40021C83.9489 9.40966 83.8231 9.44843 83.7115 9.53806C83.6008 9.62701 83.5308 9.7445 83.49 9.86723C83.452 9.98163 83.4336 10.126 83.4226 10.2609C83.4108 10.4049 83.4049 10.5737 83.4031 10.7544C83.3994 11.1163 83.4119 11.545 83.431 11.9566C83.4502 12.3691 83.4762 12.7691 83.5002 13.0752C83.511 13.2123 83.5214 13.3319 83.5308 13.426C83.4566 13.4657 83.3633 13.5105 83.2619 13.5563V9.31616L83.2627 9.31384C83.2773 9.27199 83.2982 9.2118 83.324 9.13874C83.3755 8.99249 83.4459 8.79534 83.5215 8.59093C83.5974 8.38588 83.6775 8.17654 83.7485 8.00484C83.7841 7.91883 83.8161 7.84541 83.8433 7.78819C83.8568 7.75964 83.8681 7.73724 83.8771 7.72054C83.885 7.70604 83.889 7.69975 83.8894 7.69915L84.8049 6.2347ZM87.0942 15.7621L87.0552 15.7578C87.0564 15.7546 87.0577 15.7514 87.059 15.7482C87.0785 15.699 87.1021 15.6569 87.1291 15.6221C87.1388 15.6278 87.148 15.6337 87.1567 15.64C87.2287 15.691 87.2635 15.7525 87.2779 15.7825L87.0942 15.7621ZM87.2412 16.7107C87.2439 16.535 87.2543 16.3583 87.2661 16.207C87.3064 16.1586 87.3341 16.108 87.3516 16.0741C87.3702 16.0382 87.3889 15.9973 87.408 15.9518C87.4678 16.0295 87.5492 16.1889 87.5791 16.478C87.6197 16.8727 87.5197 17.07 87.4352 17.1625C87.3872 17.215 87.3302 17.2495 87.2724 17.269C87.247 17.1298 87.2378 16.9322 87.2412 16.7107ZM87.4456 15.8667C87.4456 15.8667 87.4453 15.8671 87.4447 15.8677L87.4456 15.8667ZM88.4309 8.84698V10.7393L88.3835 8.86883L88.4309 8.84698Z" fill="#1E1B86" stroke="white" stroke-width="0.8"/>
<mask id="path-11-outside-1_338_888" maskUnits="userSpaceOnUse" x="54.7295" y="6.46973" width="64" height="47" fill="black">
<rect fill="white" x="54.7295" y="6.46973" width="64" height="47"/>
<path d="M115.661 46.1473C115.486 44.1321 115.661 41.5008 114.786 40.9745C113.911 40.4483 112.775 39.2203 112.51 37.9966C112.25 36.7687 111.375 29.9358 111.375 29.6705C111.375 29.4052 110.324 27.129 109.274 25.5502C108.224 23.9714 107.088 23.2697 106.563 21.169C106.038 19.0682 106.038 16.1716 105.077 14.5072C104.116 12.8428 102.451 10.7378 101.755 9.24882C101.055 7.75988 98.7835 6.53192 98.1686 8.46156C97.5581 10.3912 96.3327 13.6344 95.6325 14.9479C94.9322 16.2614 93.2713 18.8928 93.2713 20.2063C93.2713 21.5198 92.1356 22.8333 91.6958 23.9757C91.2561 25.1181 90.6455 28.5196 89.8599 29.6662C89.0743 30.8129 87.5842 31.951 87.6738 33.1789C87.7592 34.4069 86.6107 36.0713 87.012 36.773C87.4134 37.4746 88.4637 40.0161 88.6388 40.5424C88.8138 41.0686 89.4244 42.9084 88.8138 42.6474C88.2033 42.3865 85.1419 35.7247 84.2667 34.8476C83.3914 33.9705 81.295 29.3282 80.6802 27.3986C80.0653 25.4689 78.4941 20.2106 77.5334 18.7216C76.5728 17.2327 75.7829 15.1276 73.4218 15.7437C73.4218 15.7437 69.3997 19.4233 68.7849 20.3004C68.1701 21.1775 67.9993 22.4055 67.3845 23.719C66.7739 25.0325 66.1591 29.1528 65.4589 30.0299C64.7586 30.907 63.1831 32.704 63.2728 34.1716C63.3625 35.6391 63.2728 38.4459 63.2728 38.4459C63.2728 38.4459 61.7912 39.8493 61.5265 40.8119C61.2661 41.7746 60.8263 44.2305 60.1261 45.1932C59.4259 46.1559 58.1151 47.2084 57.4149 48.2609C56.7146 49.3135 54.8787 51.0634 56.1895 51.5897C57.5002 52.116 59.951 51.7651 60.5616 51.5897C61.1721 51.4143 62.7476 49.3991 63.3582 48.6118C63.9688 47.8245 64.5836 46.1559 65.0191 46.6821C65.4546 47.2084 65.6297 48.2609 65.1941 49.0482C64.7586 49.8355 65.1088 50.5372 66.5946 49.1338C68.0804 47.7304 69.9164 46.066 70.5312 45.9805C71.1418 45.8949 72.982 46.2415 73.4175 46.8576C73.853 47.4694 74.5532 45.7195 75.6035 45.8949C76.6539 46.0703 77.7042 48.0855 78.1397 47.6491C78.5752 47.2127 79.4505 45.1932 80.5008 46.5966C81.5512 48 83.037 49.7499 83.037 49.7499C83.037 49.7499 84.1727 48.4364 83.9123 47.033C83.6518 45.6296 85.9233 45.3686 86.6235 46.2457C87.3237 47.1228 88.2844 49.0525 88.2844 49.0525C88.2844 49.0525 89.3347 47.2127 89.8599 47.2127C90.3851 47.2127 92.6608 47.739 93.2713 47.9144C93.8819 48.0898 94.4668 49.844 95.0475 49.9296C95.6325 50.0194 96.7682 48.0898 95.8929 47.0373C95.0176 45.9847 93.3567 44.2348 93.0066 43.9695C92.6565 43.7043 93.6172 43.5331 94.232 43.9695C94.8468 44.4059 97.1183 46.4254 97.7289 46.9474C98.3394 47.4737 100.44 48.5262 100.44 49.0525C100.44 49.5788 100.615 48.7915 102.016 47.6491C103.416 46.511 104.812 47.7347 104.812 48.0855C104.812 48.4364 106.038 46.6822 107.088 46.5067C108.138 46.3313 111.81 46.2457 112.335 46.6821C112.86 47.1186 112.86 49.1381 113.211 49.2236C113.561 49.3092 116.797 49.5745 116.797 49.5745L116.972 48.5433C116.972 48.5433 115.836 48.1711 115.661 46.1559V46.1473ZM65.4162 37.6458H64.2804V35.4466H65.4162V37.6458ZM74.5788 39.6952C74.5788 40.2001 73.5285 40.2001 73.5285 40.2001C73.5285 40.2001 73.5712 41.8645 73.5285 43.0026C73.4858 44.1407 73.0033 43.7043 72.7429 43.0026C72.4824 42.3009 72.7856 40.2429 73.093 39.4513C73.4004 38.6641 73.5285 35.6819 73.5285 35.6819C75.104 34.3213 74.5788 39.1861 74.5788 39.6909V39.6952ZM77.051 21.2588C76.5258 21.3016 76.2653 20.5999 75.7829 20.3389C75.3004 20.0779 74.9076 20.4715 74.6642 21.1262C74.4209 21.7851 74.6002 22.4825 74.6642 22.7905C74.724 23.0986 73.6523 22.8761 73.6523 22.8761C73.6523 22.8761 73.5925 21.6909 73.4175 20.7283C73.2424 19.7656 72.6319 20.3774 72.017 20.6855C71.4065 20.9935 70.924 21.6482 70.3134 21.9562C69.7029 22.2643 68.6526 23.8859 68.3878 24.7159C68.1274 25.5502 68.5202 28.1345 67.995 28.2072C67.4699 28.28 67.6876 28.9218 67.3845 29.6619C67.0771 30.4021 66.5989 31.0268 66.4238 30.5005C66.2487 29.9743 66.5092 28.9218 66.7312 28.5709C66.949 28.2201 67.4314 25.854 67.4314 25.3705C67.4314 24.887 67.9139 24.057 67.9993 23.5307C68.0847 23.0045 68.8746 22.0418 69.2674 21.5155C69.6602 20.9893 70.7532 19.8512 71.1033 19.6372C71.4534 19.4233 72.064 18.5333 72.6447 18.0071C73.2254 17.4808 74.2074 17.6562 74.297 18.0071C74.3867 18.3579 76.8332 19.1452 76.8332 19.1452C76.8332 19.1452 77.1833 19.3634 77.5761 20.1977C77.9689 21.032 77.5761 21.2075 77.051 21.2503V21.2588ZM80.6375 44.0465C80.3429 44.1792 79.1602 42.994 78.8997 42.7972C78.6393 42.6004 78.7674 40.5295 78.7674 40.5295C78.9296 40.3969 79.6512 40.5295 79.6512 40.5295L79.8262 42.4378C79.8262 42.4378 80.1763 42.3394 80.6332 42.6004C81.0943 42.8614 80.9278 43.9139 80.6332 44.0465H80.6375ZM103.531 24.3608C103.399 24.887 102.481 26.53 101.836 27.3173C101.192 28.1045 100.841 30.2738 100.385 31.1081C99.9235 31.9424 99.2702 32.5757 98.745 33.0335C98.2199 33.4956 97.763 36.7815 97.763 36.7815C97.763 36.7815 97.699 34.2186 97.763 33.4271C97.8271 32.6398 98.8133 30.5348 99.6673 29.4822C100.521 28.4297 101.243 25.931 101.841 24.7501C102.438 23.565 102.485 19.7527 102.485 19.7527C103.928 18.7687 104.39 24.4849 104.321 24.8143C104.257 25.1438 103.664 23.8302 103.536 24.3522L103.531 24.3608ZM105.367 31.7884C105.367 31.7884 104.906 32.182 104.325 31.7884C103.741 31.3948 104.325 27.3173 104.325 27.3173L105.367 27.0563V31.7884Z"/>
</mask>
<path d="M115.661 46.1473C115.486 44.1321 115.661 41.5008 114.786 40.9745C113.911 40.4483 112.775 39.2203 112.51 37.9966C112.25 36.7687 111.375 29.9358 111.375 29.6705C111.375 29.4052 110.324 27.129 109.274 25.5502C108.224 23.9714 107.088 23.2697 106.563 21.169C106.038 19.0682 106.038 16.1716 105.077 14.5072C104.116 12.8428 102.451 10.7378 101.755 9.24882C101.055 7.75988 98.7835 6.53192 98.1686 8.46156C97.5581 10.3912 96.3327 13.6344 95.6325 14.9479C94.9322 16.2614 93.2713 18.8928 93.2713 20.2063C93.2713 21.5198 92.1356 22.8333 91.6958 23.9757C91.2561 25.1181 90.6455 28.5196 89.8599 29.6662C89.0743 30.8129 87.5842 31.951 87.6738 33.1789C87.7592 34.4069 86.6107 36.0713 87.012 36.773C87.4134 37.4746 88.4637 40.0161 88.6388 40.5424C88.8138 41.0686 89.4244 42.9084 88.8138 42.6474C88.2033 42.3865 85.1419 35.7247 84.2667 34.8476C83.3914 33.9705 81.295 29.3282 80.6802 27.3986C80.0653 25.4689 78.4941 20.2106 77.5334 18.7216C76.5728 17.2327 75.7829 15.1276 73.4218 15.7437C73.4218 15.7437 69.3997 19.4233 68.7849 20.3004C68.1701 21.1775 67.9993 22.4055 67.3845 23.719C66.7739 25.0325 66.1591 29.1528 65.4589 30.0299C64.7586 30.907 63.1831 32.704 63.2728 34.1716C63.3625 35.6391 63.2728 38.4459 63.2728 38.4459C63.2728 38.4459 61.7912 39.8493 61.5265 40.8119C61.2661 41.7746 60.8263 44.2305 60.1261 45.1932C59.4259 46.1559 58.1151 47.2084 57.4149 48.2609C56.7146 49.3135 54.8787 51.0634 56.1895 51.5897C57.5002 52.116 59.951 51.7651 60.5616 51.5897C61.1721 51.4143 62.7476 49.3991 63.3582 48.6118C63.9688 47.8245 64.5836 46.1559 65.0191 46.6821C65.4546 47.2084 65.6297 48.2609 65.1941 49.0482C64.7586 49.8355 65.1088 50.5372 66.5946 49.1338C68.0804 47.7304 69.9164 46.066 70.5312 45.9805C71.1418 45.8949 72.982 46.2415 73.4175 46.8576C73.853 47.4694 74.5532 45.7195 75.6035 45.8949C76.6539 46.0703 77.7042 48.0855 78.1397 47.6491C78.5752 47.2127 79.4505 45.1932 80.5008 46.5966C81.5512 48 83.037 49.7499 83.037 49.7499C83.037 49.7499 84.1727 48.4364 83.9123 47.033C83.6518 45.6296 85.9233 45.3686 86.6235 46.2457C87.3237 47.1228 88.2844 49.0525 88.2844 49.0525C88.2844 49.0525 89.3347 47.2127 89.8599 47.2127C90.3851 47.2127 92.6608 47.739 93.2713 47.9144C93.8819 48.0898 94.4668 49.844 95.0475 49.9296C95.6325 50.0194 96.7682 48.0898 95.8929 47.0373C95.0176 45.9847 93.3567 44.2348 93.0066 43.9695C92.6565 43.7043 93.6172 43.5331 94.232 43.9695C94.8468 44.4059 97.1183 46.4254 97.7289 46.9474C98.3394 47.4737 100.44 48.5262 100.44 49.0525C100.44 49.5788 100.615 48.7915 102.016 47.6491C103.416 46.511 104.812 47.7347 104.812 48.0855C104.812 48.4364 106.038 46.6822 107.088 46.5067C108.138 46.3313 111.81 46.2457 112.335 46.6821C112.86 47.1186 112.86 49.1381 113.211 49.2236C113.561 49.3092 116.797 49.5745 116.797 49.5745L116.972 48.5433C116.972 48.5433 115.836 48.1711 115.661 46.1559V46.1473ZM65.4162 37.6458H64.2804V35.4466H65.4162V37.6458ZM74.5788 39.6952C74.5788 40.2001 73.5285 40.2001 73.5285 40.2001C73.5285 40.2001 73.5712 41.8645 73.5285 43.0026C73.4858 44.1407 73.0033 43.7043 72.7429 43.0026C72.4824 42.3009 72.7856 40.2429 73.093 39.4513C73.4004 38.6641 73.5285 35.6819 73.5285 35.6819C75.104 34.3213 74.5788 39.1861 74.5788 39.6909V39.6952ZM77.051 21.2588C76.5258 21.3016 76.2653 20.5999 75.7829 20.3389C75.3004 20.0779 74.9076 20.4715 74.6642 21.1262C74.4209 21.7851 74.6002 22.4825 74.6642 22.7905C74.724 23.0986 73.6523 22.8761 73.6523 22.8761C73.6523 22.8761 73.5925 21.6909 73.4175 20.7283C73.2424 19.7656 72.6319 20.3774 72.017 20.6855C71.4065 20.9935 70.924 21.6482 70.3134 21.9562C69.7029 22.2643 68.6526 23.8859 68.3878 24.7159C68.1274 25.5502 68.5202 28.1345 67.995 28.2072C67.4699 28.28 67.6876 28.9218 67.3845 29.6619C67.0771 30.4021 66.5989 31.0268 66.4238 30.5005C66.2487 29.9743 66.5092 28.9218 66.7312 28.5709C66.949 28.2201 67.4314 25.854 67.4314 25.3705C67.4314 24.887 67.9139 24.057 67.9993 23.5307C68.0847 23.0045 68.8746 22.0418 69.2674 21.5155C69.6602 20.9893 70.7532 19.8512 71.1033 19.6372C71.4534 19.4233 72.064 18.5333 72.6447 18.0071C73.2254 17.4808 74.2074 17.6562 74.297 18.0071C74.3867 18.3579 76.8332 19.1452 76.8332 19.1452C76.8332 19.1452 77.1833 19.3634 77.5761 20.1977C77.9689 21.032 77.5761 21.2075 77.051 21.2503V21.2588ZM80.6375 44.0465C80.3429 44.1792 79.1602 42.994 78.8997 42.7972C78.6393 42.6004 78.7674 40.5295 78.7674 40.5295C78.9296 40.3969 79.6512 40.5295 79.6512 40.5295L79.8262 42.4378C79.8262 42.4378 80.1763 42.3394 80.6332 42.6004C81.0943 42.8614 80.9278 43.9139 80.6332 44.0465H80.6375ZM103.531 24.3608C103.399 24.887 102.481 26.53 101.836 27.3173C101.192 28.1045 100.841 30.2738 100.385 31.1081C99.9235 31.9424 99.2702 32.5757 98.745 33.0335C98.2199 33.4956 97.763 36.7815 97.763 36.7815C97.763 36.7815 97.699 34.2186 97.763 33.4271C97.8271 32.6398 98.8133 30.5348 99.6673 29.4822C100.521 28.4297 101.243 25.931 101.841 24.7501C102.438 23.565 102.485 19.7527 102.485 19.7527C103.928 18.7687 104.39 24.4849 104.321 24.8143C104.257 25.1438 103.664 23.8302 103.536 24.3522L103.531 24.3608ZM105.367 31.7884C105.367 31.7884 104.906 32.182 104.325 31.7884C103.741 31.3948 104.325 27.3173 104.325 27.3173L105.367 27.0563V31.7884Z" fill="#1E1B86"/>
<path d="M115.661 46.1473C115.486 44.1321 115.661 41.5008 114.786 40.9745C113.911 40.4483 112.775 39.2203 112.51 37.9966C112.25 36.7687 111.375 29.9358 111.375 29.6705C111.375 29.4052 110.324 27.129 109.274 25.5502C108.224 23.9714 107.088 23.2697 106.563 21.169C106.038 19.0682 106.038 16.1716 105.077 14.5072C104.116 12.8428 102.451 10.7378 101.755 9.24882C101.055 7.75988 98.7835 6.53192 98.1686 8.46156C97.5581 10.3912 96.3327 13.6344 95.6325 14.9479C94.9322 16.2614 93.2713 18.8928 93.2713 20.2063C93.2713 21.5198 92.1356 22.8333 91.6958 23.9757C91.2561 25.1181 90.6455 28.5196 89.8599 29.6662C89.0743 30.8129 87.5842 31.951 87.6738 33.1789C87.7592 34.4069 86.6107 36.0713 87.012 36.773C87.4134 37.4746 88.4637 40.0161 88.6388 40.5424C88.8138 41.0686 89.4244 42.9084 88.8138 42.6474C88.2033 42.3865 85.1419 35.7247 84.2667 34.8476C83.3914 33.9705 81.295 29.3282 80.6802 27.3986C80.0653 25.4689 78.4941 20.2106 77.5334 18.7216C76.5728 17.2327 75.7829 15.1276 73.4218 15.7437C73.4218 15.7437 69.3997 19.4233 68.7849 20.3004C68.1701 21.1775 67.9993 22.4055 67.3845 23.719C66.7739 25.0325 66.1591 29.1528 65.4589 30.0299C64.7586 30.907 63.1831 32.704 63.2728 34.1716C63.3625 35.6391 63.2728 38.4459 63.2728 38.4459C63.2728 38.4459 61.7912 39.8493 61.5265 40.8119C61.2661 41.7746 60.8263 44.2305 60.1261 45.1932C59.4259 46.1559 58.1151 47.2084 57.4149 48.2609C56.7146 49.3135 54.8787 51.0634 56.1895 51.5897C57.5002 52.116 59.951 51.7651 60.5616 51.5897C61.1721 51.4143 62.7476 49.3991 63.3582 48.6118C63.9688 47.8245 64.5836 46.1559 65.0191 46.6821C65.4546 47.2084 65.6297 48.2609 65.1941 49.0482C64.7586 49.8355 65.1088 50.5372 66.5946 49.1338C68.0804 47.7304 69.9164 46.066 70.5312 45.9805C71.1418 45.8949 72.982 46.2415 73.4175 46.8576C73.853 47.4694 74.5532 45.7195 75.6035 45.8949C76.6539 46.0703 77.7042 48.0855 78.1397 47.6491C78.5752 47.2127 79.4505 45.1932 80.5008 46.5966C81.5512 48 83.037 49.7499 83.037 49.7499C83.037 49.7499 84.1727 48.4364 83.9123 47.033C83.6518 45.6296 85.9233 45.3686 86.6235 46.2457C87.3237 47.1228 88.2844 49.0525 88.2844 49.0525C88.2844 49.0525 89.3347 47.2127 89.8599 47.2127C90.3851 47.2127 92.6608 47.739 93.2713 47.9144C93.8819 48.0898 94.4668 49.844 95.0475 49.9296C95.6325 50.0194 96.7682 48.0898 95.8929 47.0373C95.0176 45.9847 93.3567 44.2348 93.0066 43.9695C92.6565 43.7043 93.6172 43.5331 94.232 43.9695C94.8468 44.4059 97.1183 46.4254 97.7289 46.9474C98.3394 47.4737 100.44 48.5262 100.44 49.0525C100.44 49.5788 100.615 48.7915 102.016 47.6491C103.416 46.511 104.812 47.7347 104.812 48.0855C104.812 48.4364 106.038 46.6822 107.088 46.5067C108.138 46.3313 111.81 46.2457 112.335 46.6821C112.86 47.1186 112.86 49.1381 113.211 49.2236C113.561 49.3092 116.797 49.5745 116.797 49.5745L116.972 48.5433C116.972 48.5433 115.836 48.1711 115.661 46.1559V46.1473ZM65.4162 37.6458H64.2804V35.4466H65.4162V37.6458ZM74.5788 39.6952C74.5788 40.2001 73.5285 40.2001 73.5285 40.2001C73.5285 40.2001 73.5712 41.8645 73.5285 43.0026C73.4858 44.1407 73.0033 43.7043 72.7429 43.0026C72.4824 42.3009 72.7856 40.2429 73.093 39.4513C73.4004 38.6641 73.5285 35.6819 73.5285 35.6819C75.104 34.3213 74.5788 39.1861 74.5788 39.6909V39.6952ZM77.051 21.2588C76.5258 21.3016 76.2653 20.5999 75.7829 20.3389C75.3004 20.0779 74.9076 20.4715 74.6642 21.1262C74.4209 21.7851 74.6002 22.4825 74.6642 22.7905C74.724 23.0986 73.6523 22.8761 73.6523 22.8761C73.6523 22.8761 73.5925 21.6909 73.4175 20.7283C73.2424 19.7656 72.6319 20.3774 72.017 20.6855C71.4065 20.9935 70.924 21.6482 70.3134 21.9562C69.7029 22.2643 68.6526 23.8859 68.3878 24.7159C68.1274 25.5502 68.5202 28.1345 67.995 28.2072C67.4699 28.28 67.6876 28.9218 67.3845 29.6619C67.0771 30.4021 66.5989 31.0268 66.4238 30.5005C66.2487 29.9743 66.5092 28.9218 66.7312 28.5709C66.949 28.2201 67.4314 25.854 67.4314 25.3705C67.4314 24.887 67.9139 24.057 67.9993 23.5307C68.0847 23.0045 68.8746 22.0418 69.2674 21.5155C69.6602 20.9893 70.7532 19.8512 71.1033 19.6372C71.4534 19.4233 72.064 18.5333 72.6447 18.0071C73.2254 17.4808 74.2074 17.6562 74.297 18.0071C74.3867 18.3579 76.8332 19.1452 76.8332 19.1452C76.8332 19.1452 77.1833 19.3634 77.5761 20.1977C77.9689 21.032 77.5761 21.2075 77.051 21.2503V21.2588ZM80.6375 44.0465C80.3429 44.1792 79.1602 42.994 78.8997 42.7972C78.6393 42.6004 78.7674 40.5295 78.7674 40.5295C78.9296 40.3969 79.6512 40.5295 79.6512 40.5295L79.8262 42.4378C79.8262 42.4378 80.1763 42.3394 80.6332 42.6004C81.0943 42.8614 80.9278 43.9139 80.6332 44.0465H80.6375ZM103.531 24.3608C103.399 24.887 102.481 26.53 101.836 27.3173C101.192 28.1045 100.841 30.2738 100.385 31.1081C99.9235 31.9424 99.2702 32.5757 98.745 33.0335C98.2199 33.4956 97.763 36.7815 97.763 36.7815C97.763 36.7815 97.699 34.2186 97.763 33.4271C97.8271 32.6398 98.8133 30.5348 99.6673 29.4822C100.521 28.4297 101.243 25.931 101.841 24.7501C102.438 23.565 102.485 19.7527 102.485 19.7527C103.928 18.7687 104.39 24.4849 104.321 24.8143C104.257 25.1438 103.664 23.8302 103.536 24.3522L103.531 24.3608ZM105.367 31.7884C105.367 31.7884 104.906 32.182 104.325 31.7884C103.741 31.3948 104.325 27.3173 104.325 27.3173L105.367 27.0563V31.7884Z" stroke="white" stroke-width="1.6" mask="url(#path-11-outside-1_338_888)"/>
</svg>
