<svg width="280" height="59" viewBox="0 0 280 59" fill="none" xmlns="http://www.w3.org/2000/svg">
<path d="M140 58.4C158.542 58.4 175.348 55.2038 187.533 50.0206C193.624 47.4294 198.58 44.3336 202.018 40.8755C205.459 37.4158 207.4 33.5714 207.4 29.5C207.4 25.4286 205.459 21.5842 202.018 18.1245C198.58 14.6664 193.624 11.5706 187.533 8.97937C175.348 3.79619 158.542 0.6 140 0.6C121.458 0.6 104.652 3.79619 92.4673 8.97937C86.3755 11.5706 81.42 14.6664 77.9815 18.1245C74.5415 21.5842 72.6 25.4286 72.6 29.5C72.6 33.5714 74.5415 37.4158 77.9815 40.8755C81.42 44.3336 86.3755 47.4294 92.4673 50.0206C104.652 55.2038 121.458 58.4 140 58.4Z" fill="#EE2019" stroke="white" stroke-width="0.8"/>
<path d="M182.769 41.8965H97.2361V42.4579H182.769V41.8965Z" fill="black"/>
<path d="M123.57 47.5012C123.212 47.4223 122.612 47.4177 121.877 47.4641C121.914 47.0558 121.914 46.6939 121.853 46.4341C121.621 45.4459 121.184 44.1098 119.086 45.214C119.086 45.214 120.193 46.462 120.104 47.3063C120.095 47.3991 120.086 47.5151 120.076 47.6357C119.248 47.7378 118.378 47.8631 117.569 47.993C117.588 47.7517 117.611 47.5383 117.634 47.3666C117.811 46.1465 118.113 44.6665 115.029 45.3067C115.029 45.3067 114.578 45.9702 115.541 46.5223C115.541 46.5223 115.634 47.4038 115.708 48.3038C114.792 48.4662 114.183 48.5822 114.183 48.5822C114.183 48.5822 113.02 47.8863 113.173 48.4291C113.327 48.9719 114.257 50.0529 114.727 49.8627C114.918 49.7838 115.304 49.5889 115.783 49.3802C115.792 49.524 115.797 49.6585 115.801 49.7745C115.829 50.7627 115.508 53.5788 117.983 53.9871C120.458 54.3954 122.086 54.0474 122.467 53.8108C122.844 53.5788 123.109 52.2705 121.681 52.2148C120.253 52.1545 117.983 52.8226 117.723 52.2427C117.537 51.8298 117.485 50.1503 117.532 48.777C117.75 48.726 117.969 48.6842 118.178 48.6611C118.676 48.6054 119.337 48.5729 120.007 48.559C119.928 49.408 119.797 50.2663 119.5 50.2106C119.034 50.1225 117.927 49.7745 117.988 50.0343C118.048 50.2941 118.774 51.0225 118.918 51.4261C119.062 51.8344 120.374 52.4143 120.928 51.1339C121.216 50.4704 121.518 49.4915 121.709 48.5683C122.216 48.5915 122.607 48.6332 122.76 48.6982C123.226 48.893 125.277 47.8816 123.575 47.4966L123.57 47.5012Z" fill="black"/>
<path d="M129.51 44.5225C129.51 44.5225 130.441 45.5663 129.468 47.037C128.496 48.5077 126.091 52.2285 126.519 53.2724C126.947 54.3163 128.305 54.3952 128.422 53.4673C128.538 52.5394 129.003 50.2939 129.701 49.9042C130.399 49.5145 132.069 48.6655 131.99 50.4841C131.91 52.3028 132.259 54.6271 133.697 54.3163C135.134 54.0054 135.948 53.1564 136.106 52.6136C136.26 52.0708 136.534 50.8738 135.678 51.9177C134.823 52.9616 133.934 53.0404 133.739 51.9177C133.543 50.795 133.464 48.8232 131.99 48.8232C130.515 48.8232 129.426 48.7072 130.594 47.8165C131.757 46.9257 133.311 44.5642 129.51 44.5271V44.5225Z" fill="black"/>
<path d="M146.075 45.8865C146.075 45.8865 145.35 46.6706 144.591 46.3505C143.838 46.0304 143.4 47.0186 144.242 47.2505C145.089 47.4825 146.34 46.9629 145.377 48.183C144.419 49.4032 143.4 53.4674 145.494 54.2514C147.592 55.0355 149.713 55.1793 150.587 53.8756C151.462 52.5673 151.518 50.4471 151.169 49.5795C150.82 48.7073 150.704 48.299 150.704 48.299C150.704 48.299 151.429 49.0553 151.695 49.4589C151.955 49.8672 152.76 50.3868 153.09 50.1873C153.29 50.062 153.732 49.663 152.741 48.5032C151.75 47.3433 151.053 45.4829 150.327 45.687C149.601 45.8912 149.601 46.2391 150.034 47.8629C150.471 49.4914 150.471 52.739 148.987 52.9431C147.503 53.1472 145.084 53.0591 145.782 50.7069C146.48 48.3547 148.489 47.0186 147.936 46.3551C147.382 45.687 146.764 45.4179 146.075 45.8912V45.8865Z" fill="black"/>
<path d="M160.045 45.0745C160.045 45.0745 160.426 46.0905 159.956 46.8143C159.491 47.538 156.635 52.0986 156.667 52.7666C156.695 53.4347 157.891 55.6709 158.649 53.3744C159.407 51.0779 160.514 49.4541 161.296 49.6582C162.082 49.8624 162.022 51.5186 162.142 52.5903C162.259 53.6667 163.45 55.2627 164.645 54.3904C165.836 53.5182 166.859 51.1382 165.924 52.0383C164.994 52.9383 163.859 53.3744 163.826 52.2702C163.799 51.166 163.566 49.5515 163.003 49.2036C162.417 48.8417 161.063 48.9623 160.654 49.1108C160.245 49.2546 160.189 48.5587 160.914 47.8906C161.645 47.2225 162.487 46.0348 161.789 45.5384C161.091 45.0466 160.742 44.8147 160.04 45.0745H160.045Z" fill="black"/>
<path d="M103.707 10.7929C103.77 10.6576 103.824 10.547 103.863 10.4706C104.633 10.0156 105.34 9.89254 105.972 9.96723C106.642 10.0465 107.269 10.3536 107.823 10.7998C108.951 11.7081 109.679 13.1089 109.804 13.9604L109.804 13.9616C109.872 14.4201 109.883 14.8421 109.886 15.2475C109.886 15.306 109.887 15.3649 109.887 15.424C109.888 15.7614 109.89 16.1061 109.927 16.4235C109.973 16.8092 110.076 17.1971 110.32 17.558C110.564 17.9193 110.922 18.2136 111.414 18.4599L111.415 18.4604C111.502 18.5034 111.614 18.6074 111.73 18.836C111.845 19.0624 111.943 19.3716 112.021 19.7585C112.175 20.5321 112.231 21.5277 112.235 22.5853C112.238 23.638 112.19 24.7263 112.143 25.6792C112.139 25.7687 112.135 25.8573 112.13 25.9448C112.09 26.7735 112.054 27.4995 112.069 27.9562C112.085 28.5079 112.26 29.0058 112.729 29.2284C113.149 29.4273 113.613 29.3028 113.941 29.1631C114.296 29.0121 114.645 28.7779 114.927 28.5511C115.204 28.3282 115.455 28.0805 115.596 27.8814L115.597 27.8799C115.665 27.7825 115.694 27.6759 115.708 27.6226C115.725 27.5545 115.738 27.4793 115.748 27.4037C115.768 27.2515 115.783 27.059 115.794 26.839C115.817 26.3969 115.825 25.8056 115.824 25.1222C115.821 23.7533 115.779 21.9871 115.724 20.2436C115.67 18.4992 115.602 16.7735 115.548 15.4842C115.521 14.8395 115.498 14.3037 115.481 13.929C115.473 13.7417 115.466 13.5946 115.461 13.4944L115.456 13.3799L115.455 13.3505L115.454 13.343L115.454 13.3411L115.454 13.3406C115.454 13.3405 115.454 13.3405 114.955 13.364L115.454 13.3405L115.443 13.1055L115.255 12.9642L114.557 12.44L114.523 12.4142L114.485 12.3947C114.09 12.1923 113.904 11.9226 113.84 11.6575C113.773 11.3823 113.822 11.0502 114.014 10.715C114.398 10.0469 115.329 9.42836 116.675 9.50669L116.676 9.50674C117.346 9.54474 117.808 9.73612 118.144 10.0178C118.484 10.3037 118.737 10.7186 118.921 11.2754C119.294 12.3988 119.344 13.9357 119.402 15.7296L119.405 15.8158C119.445 17.0779 119.457 18.5247 119.469 19.8873C119.473 20.4588 119.478 21.0154 119.485 21.5374C119.496 22.4157 119.512 23.1987 119.545 23.7789C119.561 24.0674 119.582 24.3182 119.611 24.51C119.625 24.6045 119.643 24.6998 119.668 24.784C119.681 24.826 119.698 24.8774 119.725 24.9294C119.748 24.975 119.796 25.0601 119.887 25.1319C119.99 25.2135 120.101 25.2462 120.171 25.2613C120.248 25.278 120.325 25.2837 120.393 25.2847C120.531 25.2868 120.684 25.2706 120.838 25.2445C121.147 25.192 121.515 25.0893 121.862 24.9499C122.204 24.8128 122.564 24.6253 122.832 24.3861C122.975 24.259 123.126 24.0832 123.21 23.868L123.648 23.8523L125.337 23.792L125.746 23.7774L125.812 23.3736L125.319 23.2923C125.812 23.3736 125.812 23.3735 125.812 23.3734L125.812 23.373L125.813 23.3717L125.813 23.3673L125.816 23.3506L125.826 23.2872C125.835 23.232 125.847 23.1513 125.862 23.0481C125.892 22.8417 125.933 22.5452 125.977 22.1827C126.066 21.4582 126.168 20.4663 126.22 19.3998C126.271 18.3357 126.274 17.1844 126.161 16.1452C126.05 15.1234 125.82 14.1361 125.354 13.4569L125.33 13.4214L125.3 13.3905L124.942 13.7398C125.3 13.3905 125.3 13.3904 125.3 13.3902L125.299 13.3898L125.299 13.3891L125.297 13.3872L125.292 13.3823L125.277 13.3683C125.266 13.3572 125.25 13.3425 125.231 13.3253C125.193 13.2912 125.139 13.2456 125.073 13.1973C124.948 13.1063 124.745 12.9795 124.5 12.9255C124.244 12.8691 123.927 12.8924 123.648 13.1187C123.97 12.5878 124.33 12.154 124.786 11.9163C125.365 11.6152 126.252 11.5655 127.731 12.4743V12.4795L127.958 12.6275C128.651 13.0801 129.156 13.9399 129.497 15.1932C129.836 16.4382 129.993 17.9932 130.055 19.7302C130.115 21.422 130.084 23.2571 130.053 25.1104L130.051 25.2481C130.019 27.1419 129.989 29.0512 130.062 30.8103C130.204 34.2389 129.522 35.915 128.735 36.7427C127.959 37.5602 126.975 37.6617 126.193 37.6617C125.889 37.6617 125.383 37.5282 124.731 37.2659C124.098 37.0107 123.384 36.6577 122.685 36.2719C121.988 35.8866 121.315 35.4734 120.765 35.1013C120.203 34.7215 119.804 34.4068 119.626 34.2186C119.221 33.7888 118.63 33.7951 118.154 33.8908C117.653 33.9913 117.093 34.2257 116.552 34.4922C116.005 34.7616 115.443 35.0814 114.937 35.371L114.866 35.4114C114.38 35.6893 113.959 35.9303 113.632 36.0868C113.177 36.3044 112.535 36.1454 111.812 35.5555C111.114 34.9859 110.494 34.1267 110.176 33.3319L110.176 33.3309C110.034 32.977 109.926 32.2885 109.863 31.3581C109.801 30.449 109.785 29.3712 109.796 28.2819C109.818 26.1027 109.949 23.9104 110.033 22.9951C110.124 22.0133 109.904 21.2744 109.284 20.9789C108.721 20.7104 108.108 20.9572 107.773 21.218L108.079 21.6126L107.773 21.2176C107.66 21.3057 107.587 21.4197 107.542 21.5053C107.492 21.5981 107.451 21.7026 107.416 21.8101C107.344 22.0254 107.282 22.2976 107.226 22.6106C107.113 23.2395 107.019 24.0868 106.949 25.0902C106.809 27.1 106.765 29.7757 106.882 32.6656C106.94 34.1032 106.973 35.1695 106.965 35.9756C106.957 36.7882 106.908 37.2998 106.819 37.6444C106.735 37.966 106.623 38.1204 106.481 38.24C106.309 38.3837 106.078 38.4949 105.674 38.6894L105.653 38.6993L105.653 38.6996C105.416 38.8136 105.199 38.8017 104.97 38.6701C104.718 38.525 104.437 38.2203 104.178 37.7167C103.662 36.7137 103.318 35.0789 103.402 33.0137C103.444 31.9574 103.457 31.2028 103.405 30.6476C103.353 30.0843 103.23 29.6602 102.95 29.3123C102.691 28.991 102.33 28.7812 101.963 28.5684L101.951 28.561C101.934 28.5515 101.918 28.5418 101.901 28.5321C101.521 28.3114 101.056 28.0415 100.466 27.6009C99.9489 27.2143 99.724 26.738 99.6851 26.1779C99.6444 25.592 99.808 24.896 100.127 24.1172C100.635 22.8732 101.477 21.5564 102.264 20.3232C102.469 20.0026 102.67 19.6876 102.861 19.3811L102.861 19.3808C103.787 17.8914 104.201 16.6828 104.218 15.6985C104.235 14.6855 103.83 13.9462 103.219 13.4458C103.147 13.387 103.068 13.2461 103.075 12.9198C103.081 12.6046 103.168 12.2192 103.297 11.8247C103.423 11.436 103.58 11.067 103.707 10.7929ZM123.63 23.3526L123.264 23.3696C123.264 23.3696 123.264 23.3696 123.264 23.3696C123.338 23.3662 123.452 23.3609 123.63 23.3526ZM122.996 19.4077C123.019 20.4301 123.052 21.4047 123.08 22.1318C123.066 22.0024 123.051 21.8641 123.037 21.7175C122.959 20.9129 122.885 19.9015 122.845 18.8634C122.805 17.8239 122.8 16.7667 122.858 15.8676C122.905 15.1352 122.991 14.5594 123.108 14.1848C123.02 14.6354 122.984 15.4367 122.971 16.3389C122.959 17.2732 122.973 18.3671 122.996 19.4077ZM123.551 33.5018L123.551 33.5011C123.898 33.4476 124.24 33.2024 124.498 32.9711C124.779 32.7192 125.055 32.3983 125.266 32.0731C125.466 31.7647 125.654 31.3827 125.67 31.0194C125.679 30.8255 125.641 30.593 125.479 30.395C125.316 30.195 125.087 30.1022 124.861 30.0715C124.168 29.9773 123.207 30.2002 122.371 30.5471C121.54 30.8919 120.674 31.4251 120.259 32.0811L119.932 32.5967L120.502 32.8153L120.681 32.3485C120.502 32.8153 120.502 32.8153 120.502 32.8153L120.502 32.8154L120.503 32.8156L120.504 32.8161L120.509 32.818L120.528 32.825L120.596 32.8506C120.655 32.8723 120.739 32.903 120.843 32.9394C121.049 33.0121 121.334 33.108 121.645 33.2006C121.954 33.2927 122.298 33.3839 122.62 33.4446C122.927 33.5027 123.269 33.5439 123.551 33.5018Z" fill="#FFE30A" stroke="white"/>
<path d="M150.103 13.1616C150.107 13.1222 150.111 13.088 150.115 13.0601C150.339 12.7259 150.582 12.5605 150.817 12.4822C151.078 12.3948 151.381 12.3989 151.717 12.4808C152.403 12.6484 153.091 13.1067 153.533 13.4326C153.597 13.48 153.659 13.526 153.718 13.57C153.859 13.6743 153.985 13.7681 154.096 13.8462C154.253 13.9571 154.408 14.0586 154.564 14.1299C154.729 14.2052 154.906 14.2528 155.105 14.2449C155.298 14.2373 155.472 14.1791 155.63 14.1059L155.63 14.1059L155.634 14.1043C155.684 14.0805 155.76 14.0439 155.861 13.9952C156.773 13.5561 159.713 12.1403 164.064 10.4385C166.332 9.5516 168.54 9.92463 170.331 10.6721C172.008 11.3716 173.276 12.3829 173.813 12.9151L173.913 13.0228C174.336 13.4783 174.637 14.1504 174.805 14.9161C174.972 15.6772 174.999 16.4902 174.909 17.1879L174.909 17.1896C174.828 17.8251 174.53 18.356 174.255 18.8462L174.244 18.8666L174.239 18.8745C174.114 19.0979 173.967 19.3592 173.899 19.6004C173.863 19.7302 173.837 19.893 173.872 20.0672C173.908 20.2545 174.006 20.4148 174.151 20.5375L174.151 20.5375L174.154 20.5407C174.336 20.6919 174.432 20.8407 174.477 21.0455C174.528 21.2736 174.523 21.6092 174.413 22.1427C174.377 22.3145 174.31 22.4098 174.204 22.4823C174.077 22.5689 173.851 22.6513 173.446 22.6887C172.628 22.764 171.32 22.6395 169.274 22.3297C167.152 22.0084 165.009 22.2634 162.938 22.6589C162.083 22.8223 161.254 23.0059 160.443 23.1857C159.249 23.4502 158.091 23.7067 156.938 23.8792C155.215 24.1367 153.964 23.3859 153.102 22.288C152.225 21.1699 151.782 19.7218 151.729 18.7332C151.705 18.2965 151.696 17.906 151.688 17.5475C151.686 17.4689 151.684 17.3919 151.683 17.3163C151.672 16.9029 151.659 16.5202 151.613 16.1823C151.568 15.8423 151.486 15.5154 151.321 15.2217C151.152 14.9196 150.909 14.6804 150.585 14.4942C150.28 14.3187 150.146 13.9977 150.106 13.6305C150.086 13.4525 150.092 13.2855 150.103 13.1616ZM165.168 19.7386L165.337 19.7173L165.361 19.6934C165.462 19.6644 165.566 19.6248 165.665 19.5838C165.842 19.5097 166.05 19.4094 166.274 19.2887C166.723 19.0473 167.258 18.7142 167.773 18.3221C168.285 17.9318 168.795 17.4709 169.181 16.9708C169.562 16.4778 169.862 15.8949 169.862 15.2711V15.2416C169.862 14.8 169.862 14.3556 169.804 13.9885C169.747 13.6215 169.612 13.1904 169.218 12.9404C168.829 12.6938 168.343 12.7215 167.838 12.8597C167.319 13.002 166.661 13.2947 165.826 13.7456C165.505 13.9188 165.202 14.0835 164.914 14.2397C162.202 15.7114 160.858 16.4406 159.239 16.6736C158.38 16.7951 157.51 16.8108 156.758 16.8244C156.709 16.8253 156.66 16.8261 156.612 16.827C156.228 16.8342 155.866 16.8429 155.571 16.8712C155.424 16.8855 155.279 16.9058 155.149 16.9378C155.025 16.9681 154.875 17.0177 154.745 17.112L154.604 17.2146L154.557 17.3828L155.039 17.5166C154.557 17.3828 154.557 17.383 154.557 17.3831L154.557 17.3834L154.557 17.3841L154.556 17.3862L154.555 17.3929L154.549 17.4156C154.544 17.4348 154.537 17.462 154.528 17.4964C154.512 17.5651 154.489 17.6626 154.465 17.7816C154.418 18.0182 154.364 18.3456 154.34 18.7027C154.317 19.0565 154.321 19.46 154.401 19.8409C154.48 20.2188 154.645 20.6226 154.981 20.9145C154.99 20.9221 154.999 20.9296 155.007 20.9371C155.412 21.2881 155.787 21.6137 156.316 21.652C156.576 21.6709 156.839 21.6196 157.118 21.5355C157.396 21.4514 157.729 21.3222 158.134 21.1581C158.892 20.8515 160.426 20.5216 161.92 20.2518C163.396 19.9854 164.77 19.7884 165.168 19.7386ZM150.128 12.979L150.128 12.9793L150.128 12.979Z" fill="#FFE30A" stroke="white"/>
<path d="M175.667 27.6335C176.316 28.527 176.646 29.5708 176.82 30.5901L167.948 38.3847L168.054 37.896C168.053 37.896 168.053 37.896 168.053 37.896C167.54 37.785 166.854 37.7745 166.088 37.815C165.313 37.8561 164.413 37.9523 163.454 38.0737C162.632 38.1777 161.774 38.2988 160.904 38.4216C159.716 38.5894 158.506 38.7603 157.336 38.8948C153.471 39.3389 150.469 37.6332 149.231 36.5074C149.025 36.3194 148.826 35.8923 148.679 35.214C148.537 34.562 148.464 33.7734 148.436 32.9724C148.378 31.3689 148.503 29.7953 148.574 29.3261C148.653 28.8234 148.728 28.2636 148.723 27.8013C148.721 27.5722 148.698 27.3302 148.627 27.1186C148.563 26.9263 148.431 26.6897 148.172 26.5654C148.162 26.5473 148.149 26.5201 148.134 26.4814C148.085 26.353 148.042 26.1731 148.008 25.9726C147.975 25.7769 147.954 25.5827 147.941 25.4356C147.939 25.4156 147.937 25.3965 147.936 25.3785C148.336 24.8917 148.727 24.7444 149.076 24.7403C149.489 24.7355 149.951 24.9301 150.427 25.2794C150.896 25.6238 151.328 26.0833 151.669 26.519C152.015 26.9618 152.237 27.342 152.306 27.5125C152.519 28.0383 153.06 28.1586 153.471 28.1681C153.91 28.1782 154.444 28.0758 154.998 27.9236C156.116 27.6164 157.48 27.0594 158.686 26.5348L158.686 26.5347C159.818 26.0413 162.066 25.5443 164.579 25.275C167.085 25.0065 169.774 24.9733 171.778 25.3653C173.742 25.7514 174.927 26.6166 175.667 27.6335ZM156.711 35.2469L156.712 35.2459C156.763 35.1911 156.816 35.1343 156.871 35.0756C157.228 34.694 157.655 34.2385 157.98 33.8148C158.167 33.5713 158.341 33.3121 158.45 33.0622C158.548 32.8362 158.654 32.4801 158.478 32.1443L158.477 32.1426C158.081 31.3949 156.718 30.2467 152.926 30.5749L152.642 30.5995L152.518 30.857L152.969 31.073C152.518 30.857 152.518 30.8571 152.518 30.8573L152.518 30.8576L152.518 30.8584L152.516 30.8606L152.513 30.8678L152.501 30.8928C152.492 30.914 152.478 30.9441 152.462 30.9823C152.428 31.0584 152.383 31.1668 152.332 31.2994C152.231 31.5632 152.107 31.9299 152.018 32.3334C151.93 32.733 151.871 33.1939 151.919 33.6376C151.967 34.084 152.128 34.5539 152.52 34.9029L152.521 34.9037C153.133 35.4453 153.903 35.7943 154.648 35.8868C155.389 35.9787 156.174 35.8206 156.711 35.2469ZM169.077 32.5157L169.276 32.3656V32.3582C169.965 31.8138 170.691 31.1041 171.221 30.4369C171.509 30.0732 171.758 29.6992 171.905 29.3551C172.034 29.0532 172.167 28.5811 171.89 28.1936L171.889 28.1922C171.77 28.0267 171.589 27.9005 171.415 27.8054C171.23 27.7039 171.005 27.6113 170.748 27.5323C170.235 27.374 169.569 27.2609 168.799 27.2535C167.254 27.2387 165.269 27.649 163.229 28.9998L162.908 29.2127L163.032 29.5778L163.505 29.4167L163.032 29.5778L163.032 29.578L163.032 29.5785L163.033 29.5804L163.035 29.5877L163.045 29.616L163.082 29.723C163.114 29.8152 163.159 29.9468 163.214 30.1054C163.325 30.4222 163.475 30.8472 163.632 31.2783C163.79 31.7082 163.956 32.1492 164.099 32.4962C164.17 32.6687 164.238 32.8254 164.299 32.9484C164.329 33.0092 164.361 33.0699 164.394 33.1232L164.394 33.1235C164.416 33.1585 164.475 33.2548 164.571 33.3272L164.571 33.3273L164.575 33.3301C164.651 33.3869 164.731 33.4176 164.78 33.4342C164.837 33.4533 164.896 33.4678 164.953 33.4791C165.068 33.5019 165.204 33.5177 165.352 33.5267C165.649 33.5449 166.026 33.5376 166.438 33.4891C167.253 33.3932 168.267 33.1282 169.077 32.5157Z" fill="#FFE30A" stroke="white"/>
<path d="M51.6766 2.96262C51.6766 2.96262 52.9837 2.35486 53.4163 3.82556C53.5748 4.36573 53.6081 4.93322 53.6378 5.43891C53.6874 6.28398 53.7268 6.95651 54.3234 7.04068C55.277 7.17986 61.9524 8.31188 62.7246 11.4342M51.6766 2.96262L30.2275 43.8925C29.5785 43.1724 28.2418 40.7191 26.9756 37.0763C26.2614 35.0218 26.5165 32.0873 26.7959 28.8722C27.321 22.8307 27.9322 15.7981 22.361 11.7497C13.825 5.54678 6.63797 8.98924 2.87002 14.8303C-1.12586 21.0239 2.20482 28.2336 4.33999 31.7642C6.47516 35.2948 11.4247 35.434 11.4247 35.434M51.6766 2.96262L51.5079 2.59991L51.2963 2.69831L51.2778 2.93096C51.2092 3.79547 50.9317 4.02243 50.7855 4.0891C50.6352 4.15762 50.4621 4.13512 50.3549 4.10327C50.3431 4.0804 50.3283 4.04841 50.3103 4.00504C50.276 3.92238 50.2463 3.84043 50.2123 3.7463C50.1845 3.66948 50.1538 3.58455 50.1152 3.48449C50.0394 3.28794 49.9427 3.06153 49.8136 2.86883C49.6871 2.68006 49.4938 2.46995 49.2051 2.39464C49.0417 2.35202 48.8707 2.36454 48.7106 2.44297C48.5603 2.51659 48.4461 2.63515 48.3577 2.76105C48.1855 3.00644 48.05 3.36968 47.9301 3.8237C47.6868 4.74439 47.4645 6.21527 47.2227 8.35513L47.2227 8.35517C46.7675 12.3886 43.5052 14.3642 39.8727 15.3489C36.03 16.3906 31.9968 20.5274 29.0711 26.2372C27.5583 29.1895 27.6277 32.7879 28.151 35.9362C28.5816 38.5268 29.3309 40.8695 29.8067 42.3571C29.8568 42.5139 29.904 42.6612 29.9473 42.7983M51.6766 2.96262C51.5079 2.59991 51.5081 2.59982 51.5083 2.59973L51.5087 2.59954L51.5097 2.59911L51.5119 2.59808L51.5179 2.5954L51.5356 2.58773C51.5499 2.58169 51.5692 2.57385 51.5929 2.56494C51.6402 2.54717 51.706 2.52478 51.7858 2.50379C51.943 2.46248 52.1676 2.42304 52.4176 2.44397C52.6713 2.46523 52.957 2.54962 53.2151 2.76052C53.4731 2.97136 53.6741 3.28447 53.8001 3.71268L53.8001 3.71295C53.9729 4.30171 54.01 4.93881 54.0398 5.45149C54.0491 5.61066 54.0577 5.75783 54.0694 5.88784C54.0964 6.18737 54.1365 6.38409 54.1973 6.5068C54.2426 6.59822 54.287 6.63158 54.3793 6.6446L54.3812 6.64487C54.8698 6.71619 56.8079 7.03885 58.7297 7.7432C59.6901 8.09518 60.665 8.54908 61.4562 9.12707C62.1909 9.6638 62.7999 10.3319 63.0612 11.1551M62.7246 11.4342L62.7339 11.4389C63.5061 14.5658 63.0967 16.0412 60.6452 16.7371C58.1937 17.433 56.319 18.2774 55.9236 19.0614C55.836 19.2353 55.5788 19.6288 55.2415 20.145C54.0577 21.9565 51.887 25.2784 52.593 25.9139M62.7246 11.4342L62.903 11.0762L62.9123 11.0809L63.0612 11.1551M62.7246 11.4342L62.7378 11.4309L63.1129 11.3382C63.0976 11.2763 63.0803 11.2153 63.0612 11.1551M52.593 25.9139C52.8409 26.1358 53.2001 26.4042 53.5954 26.6996C54.6464 27.4849 55.9529 28.4612 56.1051 29.2635C56.3283 30.4327 55.8911 34.7891 54.6816 34.0932C53.4954 33.4133 53.4992 32.0425 53.5 31.7548C53.5 31.7481 53.5001 31.7419 53.5001 31.7363C53.5001 31.4951 50.8067 31.2863 50.1415 31.8291C49.4763 32.3719 48.1738 34.1581 50.1415 35.6335C52.1092 37.1088 53.4721 40.825 51.5649 43.5854C49.6577 46.3459 49.7042 47.7517 51.1556 47.5243C52.6069 47.297 56.8307 48.0671 54.1048 49.1249C51.3835 50.1781 35.4 52.3215 29.5899 51.2359M52.593 25.9139L52.8597 25.6158C52.8625 25.6183 52.8652 25.6207 52.868 25.6232M52.593 25.9139L52.8606 25.6166C52.8673 25.6226 52.8696 25.6266 52.8696 25.6266C52.8696 25.6265 52.8689 25.6255 52.868 25.6232M29.5899 51.2359C23.7751 50.1502 15.6485 45.8495 14.7879 36.5196C14.695 35.5175 14.613 34.6096 14.5389 33.7874C13.9223 26.9548 13.8407 26.0498 12.4248 26.3314C10.8385 26.6469 9.47556 28.3217 10.5641 31.7642C11.1673 33.6719 11.3662 34.5922 11.4237 35.0337L11.4261 35.0338L11.4345 35.0341L11.4361 35.0341C11.4361 35.0341 11.436 35.0341 11.4336 35.1176C11.4626 35.3962 11.4247 35.434 11.4247 35.434M29.5899 51.2359L29.5164 51.6291C29.5164 51.6291 29.5164 51.6291 29.5165 51.6291M29.5899 51.2359L29.5165 51.6291M11.4247 35.434C11.4134 35.8338 11.4133 35.8338 11.4131 35.8338L11.4126 35.8338L11.4114 35.8338L11.4076 35.8336L11.3947 35.8332C11.3837 35.8327 11.3681 35.8321 11.3481 35.831C11.3081 35.829 11.2505 35.8256 11.1772 35.8199C11.0307 35.8087 10.821 35.7887 10.5636 35.7533C10.0495 35.6828 9.34101 35.5509 8.56231 35.3044C7.01264 34.8139 5.1363 33.8539 3.99771 31.9712C2.91818 30.1861 1.52633 27.4558 0.913541 24.3739C0.299685 21.2866 0.463914 17.8219 2.5339 14.6134C4.45834 11.6302 7.2744 9.23049 10.7325 8.38495C14.2025 7.53649 18.252 8.26936 22.5961 11.4261C27.037 14.6532 27.6692 19.6939 27.498 24.535C27.4458 26.011 27.3163 27.5034 27.1927 28.9277C27.1147 29.8264 27.0391 30.6979 26.9867 31.5212C26.8488 33.6889 26.8686 35.5501 27.3534 36.945C28.2895 39.6382 29.2594 41.6613 29.9473 42.7983M11.4247 35.434L11.4134 35.8338L11.5853 35.8386L11.7071 35.7172L11.4247 35.434ZM11.4247 35.434C11.7071 35.7172 11.7085 35.7158 11.7099 35.7144L11.7126 35.7117L11.7178 35.7061L11.7279 35.6948C11.7344 35.6872 11.7405 35.6796 11.7462 35.6719C11.7576 35.6566 11.7674 35.6412 11.7759 35.6261C11.7927 35.5961 11.8048 35.5663 11.8136 35.5385C11.8308 35.4843 11.8392 35.4269 11.8426 35.3679C11.8494 35.251 11.839 35.0825 11.7974 34.8259C11.7136 34.31 11.4916 33.3708 10.9455 31.6436C10.4197 29.9809 10.5066 28.81 10.8557 28.0404C11.201 27.279 11.8253 26.8585 12.5028 26.7237C12.8691 26.6509 12.9893 26.6971 13.0697 26.7717C13.1942 26.8869 13.342 27.1754 13.4845 27.887C13.7032 28.9791 13.8681 30.8064 14.1387 33.8044C14.2132 34.6299 14.2957 35.5442 14.3896 36.5563C15.2743 46.1482 23.6256 50.5292 29.5165 51.6291M29.9473 42.7983L56.498 29.1885M29.9473 42.7983L52.868 25.6232M29.5165 51.6291C32.487 52.1841 37.9912 51.9114 43.0474 51.3802C45.5859 51.1136 48.0288 50.7798 50.0098 50.4462C51.9756 50.1151 53.5249 49.7783 54.2492 49.498L54.2495 49.4978C54.6063 49.3594 54.8872 49.2121 55.0801 49.0472C55.2719 48.8833 55.4428 48.6396 55.3929 48.3325C55.3479 48.0555 55.1416 47.872 54.9733 47.7603C54.7916 47.6398 54.5626 47.5424 54.3222 47.4629C53.8378 47.3028 53.2284 47.1904 52.6525 47.1318C52.0805 47.0736 51.5054 47.0646 51.0937 47.1291C50.7782 47.1785 50.6398 47.1214 50.5889 47.0806C50.5517 47.0509 50.482 46.9652 50.4998 46.7024C50.5178 46.4383 50.6233 46.0621 50.8547 45.5667C51.0837 45.0762 51.4258 44.4905 51.894 43.8128C52.9254 42.3201 53.0641 40.5788 52.6954 39.0346C52.3283 37.4978 51.4496 36.1143 50.3814 35.3134C49.9382 34.9811 49.7046 34.6511 49.5922 34.3522C49.48 34.0539 49.4773 33.7572 49.5437 33.4724C49.6807 32.8843 50.1077 32.373 50.3944 32.139C50.4714 32.0762 50.67 31.9988 51.0074 31.9471C51.3242 31.8986 51.6992 31.8817 52.0625 31.8886C52.426 31.8956 52.7627 31.9261 53.0013 31.967C53.0397 31.9736 53.074 31.9802 53.1041 31.9866C53.1304 32.5336 53.3094 33.7673 54.4821 34.4399C54.7273 34.581 54.999 34.6121 55.2574 34.5008C55.4907 34.4003 55.6603 34.2059 55.7839 34.0101C56.0318 33.6174 56.2041 33.0424 56.3227 32.4572C56.4435 31.8605 56.5171 31.208 56.5464 30.6295C56.5753 30.0595 56.563 29.5292 56.498 29.1885M56.498 29.1885C56.498 29.1887 56.498 29.1889 56.4981 29.189L56.1053 29.2635L56.498 29.1885ZM63.0612 11.1551L63.0779 11.1634L63.1222 11.343C63.5102 12.9142 63.631 14.1692 63.2737 15.138C62.8999 16.1515 62.0455 16.7554 60.7544 17.1219C59.5409 17.4664 58.4831 17.8441 57.6866 18.2268C57.2882 18.4182 56.9644 18.6064 56.722 18.7865C56.4742 18.9705 56.3392 19.1256 56.2808 19.2415C56.1821 19.4372 55.9109 19.8521 55.5813 20.3563C55.5364 20.4249 55.4905 20.4952 55.4438 20.5667C55.0424 21.1818 54.5575 21.931 54.114 22.6794C53.6682 23.4317 53.2747 24.1658 53.0483 24.7529C52.9343 25.0487 52.8723 25.283 52.858 25.4511C52.8482 25.5654 52.8629 25.6112 52.868 25.6232M50.379 4.14356C50.379 4.14372 50.3777 4.14216 50.3751 4.13842C50.3778 4.14152 50.3791 4.14339 50.379 4.14356ZM56.7982 11.4889C56.5296 11.4889 56.3143 11.2726 56.3143 11.0074C56.3143 10.7422 56.5296 10.5259 56.7982 10.5259C57.0667 10.5259 57.282 10.7422 57.282 11.0074C57.282 11.2726 57.0667 11.4889 56.7982 11.4889Z" fill="#137657" stroke="white" stroke-width="0.8"/>
<path d="M268.585 35.4291C268.596 35.829 268.596 35.829 268.596 35.829L268.596 35.829L268.598 35.8289L268.601 35.8288L268.614 35.8283C268.625 35.8279 268.641 35.8272 268.661 35.8262C268.701 35.8242 268.758 35.8209 268.832 35.8153C268.978 35.8042 269.188 35.7843 269.445 35.7492C269.96 35.6791 270.668 35.5475 271.447 35.3013C272.997 34.8114 274.873 33.8513 276.012 31.9661C277.091 30.1789 278.483 27.4486 279.096 24.3673C279.71 21.2806 279.545 17.8171 277.475 14.6086C275.551 11.6253 272.735 9.22563 269.277 8.3801C265.807 7.53164 261.757 8.26451 257.413 11.4213C252.972 14.6483 252.34 19.689 252.511 24.5302C252.563 26.0062 252.693 27.4985 252.817 28.9228C252.895 29.8215 252.97 30.6931 253.023 31.5164C253.161 33.684 253.141 35.5453 252.656 36.9402C251.721 39.6312 250.751 41.6533 250.064 42.7908C250.104 42.6633 250.148 42.527 250.194 42.3824C250.671 40.8975 251.427 38.5425 251.86 35.9348C252.383 32.7864 252.451 29.187 250.938 26.2324L250.938 26.2323C248.013 20.5229 243.979 16.3809 240.136 15.3439C236.504 14.3591 233.242 12.3836 232.787 8.35032C232.545 6.20815 232.323 4.73722 232.079 3.81704C231.959 3.36329 231.824 3.00036 231.651 2.75525C231.563 2.62944 231.449 2.51108 231.298 2.43769C231.138 2.35953 230.967 2.34725 230.804 2.38978C230.516 2.46502 230.322 2.67482 230.195 2.86343C230.066 3.05606 229.969 3.2824 229.893 3.47914C229.853 3.58202 229.822 3.66818 229.793 3.746C229.76 3.83791 229.731 3.91819 229.697 4.00064C229.679 4.04397 229.664 4.07608 229.652 4.09918C229.545 4.13122 229.374 4.15338 229.225 4.08585C229.08 4.01977 228.802 3.79311 228.731 2.9252L228.712 2.69284L228.501 2.59483L228.333 2.95777C228.501 2.59483 228.501 2.59474 228.501 2.59465L228.5 2.59446L228.499 2.59403L228.497 2.59301L228.491 2.59034L228.473 2.58269C228.459 2.57666 228.44 2.56883 228.416 2.55993C228.368 2.5422 228.303 2.51983 228.223 2.49886C228.065 2.4576 227.84 2.4182 227.59 2.43912C227.336 2.46035 227.05 2.54469 226.792 2.75582C226.534 2.96687 226.334 3.28024 226.209 3.70852C226.036 4.29716 225.999 4.93408 225.969 5.44663C225.96 5.6058 225.952 5.75298 225.94 5.88299C225.913 6.18251 225.873 6.37924 225.812 6.50194C225.767 6.59337 225.722 6.62673 225.63 6.63975C225.14 6.70894 223.201 7.03052 221.28 7.73486C220.319 8.08687 219.344 8.54109 218.553 9.11973C217.764 9.69638 217.121 10.4245 216.896 11.3335C216.508 12.9047 216.388 14.1597 216.745 15.1285C217.024 15.8843 217.57 16.4122 218.365 16.7839L218.262 16.8351L219.255 17.117C220.468 17.4615 221.526 17.8393 222.323 18.2219C222.721 18.4133 223.045 18.6015 223.287 18.7816C223.535 18.9656 223.67 19.1208 223.729 19.2367C223.827 19.4323 224.098 19.8473 224.428 20.3516C224.473 20.4201 224.519 20.4903 224.566 20.5619C224.967 21.1769 225.452 21.9261 225.895 22.6745C226.341 23.4268 226.735 24.1609 226.961 24.748C227.075 25.0438 227.137 25.2781 227.151 25.4463C227.161 25.5607 227.146 25.6065 227.141 25.6184C226.931 25.8069 226.63 26.0359 226.275 26.3015C226.238 26.3294 226.2 26.3577 226.162 26.3863C225.839 26.6281 225.485 26.8928 225.149 27.1651C224.773 27.4689 224.407 27.7925 224.117 28.1186C223.835 28.4361 223.586 28.7988 223.512 29.1826L223.511 29.1836C223.446 29.5243 223.434 30.0546 223.463 30.6247C223.492 31.2032 223.566 31.8557 223.687 32.4523C223.805 33.0375 223.978 33.6126 224.225 34.0052C224.349 34.2011 224.519 34.3955 224.752 34.4959C225.01 34.6072 225.282 34.5761 225.527 34.435C226.698 33.7616 226.878 32.5289 226.905 31.9813C226.935 31.9748 226.97 31.9681 227.009 31.9614C227.247 31.9202 227.584 31.8893 227.947 31.882C228.31 31.8748 228.685 31.8916 229.002 31.9403C229.339 31.9921 229.537 32.0699 229.614 32.1331C229.902 32.3705 230.329 32.8812 230.466 33.4677C230.532 33.7518 230.529 34.0478 230.417 34.3459C230.305 34.6449 230.071 34.9753 229.627 35.3089C228.56 36.112 227.681 37.4951 227.314 39.0315C226.945 40.5751 227.084 42.3153 228.115 43.808C228.584 44.4856 228.926 45.0713 229.155 45.5618C229.386 46.0572 229.492 46.4334 229.509 46.6975C229.527 46.9604 229.458 47.046 229.42 47.0758C229.369 47.1165 229.231 47.1737 228.916 47.1243C228.504 47.0598 227.929 47.0687 227.357 47.127C226.781 47.1856 226.172 47.298 225.687 47.4581C225.447 47.5375 225.218 47.635 225.036 47.7555C224.868 47.8671 224.661 48.0506 224.616 48.3276C224.567 48.6348 224.737 48.8784 224.929 49.0423C225.122 49.2073 225.403 49.3545 225.76 49.493C226.485 49.7745 228.035 50.1123 230.001 50.4439C231.983 50.7781 234.425 51.1122 236.964 51.3789C242.019 51.91 247.522 52.1816 250.493 51.6242C256.379 50.5243 264.73 46.1433 265.62 36.5517L265.62 36.5515C265.713 35.5429 265.795 34.6314 265.869 33.8082C266.138 30.8068 266.303 28.9773 266.521 27.8839C266.664 27.1721 266.812 26.8832 266.937 26.7676C267.018 26.6924 267.139 26.6461 267.507 26.7189C268.187 26.8537 268.811 27.2743 269.155 28.0354C269.504 28.8048 269.59 29.9758 269.064 31.6387C268.518 33.366 268.296 34.3052 268.212 34.821C268.17 35.0776 268.16 35.2462 268.167 35.363C268.17 35.422 268.179 35.4794 268.196 35.5336C268.205 35.5614 268.217 35.5912 268.233 35.6212C268.242 35.6363 268.252 35.6517 268.263 35.6671C268.269 35.6747 268.275 35.6824 268.281 35.6899L268.291 35.7012L268.297 35.7068L268.299 35.7096C268.301 35.711 268.302 35.7123 268.585 35.4291ZM268.585 35.4291L268.596 35.829L268.424 35.8336L268.302 35.7123L268.585 35.4291ZM226.753 32.0239C226.753 32.0239 226.753 32.0237 226.754 32.0233L226.753 32.0239ZM229.628 4.14068C229.628 4.14051 229.629 4.13857 229.632 4.13534C229.629 4.13924 229.628 4.14085 229.628 4.14068ZM222.713 11.0025C222.713 10.7373 222.929 10.521 223.197 10.521C223.466 10.521 223.681 10.7373 223.681 11.0025C223.681 11.2678 223.466 11.484 223.197 11.484C222.929 11.484 222.713 11.2678 222.713 11.0025Z" fill="#137657" stroke="white" stroke-width="0.8"/>
</svg>
