<svg width="175" height="55" viewBox="0 0 175 55" fill="none" xmlns="http://www.w3.org/2000/svg">
<path d="M174 33.9399C174.094 33.7081 174.094 33.7081 174.093 33.708L174.093 33.7079L174.092 33.7074L174.087 33.7054L174.068 33.6979L173.996 33.669C173.932 33.6438 173.839 33.6073 173.721 33.5614C173.485 33.4699 173.147 33.3413 172.742 33.1931C171.931 32.8968 170.848 32.5213 169.758 32.206C168.673 31.8919 167.566 31.6326 166.714 31.5768C166.291 31.5492 165.903 31.5692 165.607 31.677C165.455 31.7319 165.316 31.8138 165.211 31.9351C165.103 32.0595 165.042 32.2117 165.031 32.3831C164.965 33.3609 164.98 35.4502 165.011 37.2829C165.027 38.2019 165.047 39.0604 165.062 39.6891C165.07 40.0035 165.077 40.2605 165.082 40.4389L165.083 40.4599H153.731C153.732 40.3812 153.733 40.2852 153.733 40.1734C153.736 39.8304 153.74 39.3395 153.747 38.7476C153.76 37.5638 153.782 35.9768 153.819 34.3631C153.856 32.7489 153.907 31.1103 153.979 29.8225C154.014 29.1782 154.055 28.625 154.101 28.2078C154.124 27.9989 154.148 27.8278 154.172 27.698C154.185 27.6332 154.196 27.5815 154.208 27.5423C154.213 27.5228 154.218 27.5077 154.222 27.4965C154.224 27.491 154.226 27.4869 154.227 27.4839C154.228 27.4823 154.229 27.4812 154.229 27.4805C154.229 27.48 154.229 27.4797 154.229 27.4798C154.481 27.0201 155.028 25.5332 155.307 24.0396C155.447 23.2912 155.524 22.5219 155.455 21.8678C155.388 21.2222 155.171 20.6248 154.659 20.3159C154.217 20.0487 153.32 19.7359 152.24 19.4232C151.149 19.1072 149.84 18.7828 148.549 18.4983C147.258 18.2137 145.981 17.9682 144.955 17.8106C144.442 17.7319 143.989 17.6746 143.626 17.6456C143.276 17.6176 142.976 17.6124 142.791 17.6569C142.681 17.6835 142.582 17.7359 142.502 17.8174C142.423 17.8976 142.374 17.9947 142.344 18.0954C142.288 18.289 142.296 18.5236 142.33 18.7673C142.392 19.2101 142.557 19.7941 142.744 20.4536C142.765 20.525 142.785 20.5973 142.806 20.6704C143.235 22.19 143.752 24.1354 143.601 26.0906C143.445 28.1104 143.48 31.9684 143.554 35.3092C143.591 36.9822 143.637 38.5297 143.675 39.6589C143.693 40.2236 143.71 40.6837 143.721 41.0027C143.725 41.1119 143.729 41.2046 143.732 41.2793C143.686 41.2868 143.634 41.2953 143.576 41.3048C143.339 41.3438 142.998 41.3991 142.588 41.4644C141.768 41.5951 140.668 41.7658 139.551 41.9262C138.432 42.0867 137.299 42.2364 136.409 42.3254C135.964 42.3699 135.584 42.3988 135.3 42.4066C135.157 42.4105 135.044 42.409 134.961 42.4025C134.885 42.3965 134.857 42.3878 134.857 42.3886C134.809 42.3582 134.742 42.2671 134.701 42.059C134.66 41.8562 134.655 41.5985 134.678 41.3329C134.701 41.0687 134.751 40.8109 134.812 40.6117C134.842 40.5117 134.874 40.4326 134.903 40.377C134.926 40.3336 134.94 40.3183 134.941 40.3166C135.013 40.2681 135.061 40.1925 135.087 40.1455C135.122 40.0847 135.155 40.0105 135.186 39.9276C135.247 39.7611 135.304 39.543 135.337 39.2924C135.404 38.7922 135.382 38.1418 135.101 37.502C134.527 36.1914 132.939 35.0583 129.281 35.1901L129.26 35.4499H129.09V41.5431C129.074 41.552 129.058 41.5616 129.04 41.5719C128.926 41.6371 128.766 41.7317 128.576 41.8499C128.197 42.0858 127.698 42.418 127.224 42.8003C126.754 43.18 126.292 43.6217 126.003 44.079C125.714 44.5343 125.563 45.0642 125.842 45.5619C126.283 46.3505 127.237 47.555 128.368 48.5316C128.934 49.0209 129.553 49.4598 130.181 49.7604C130.807 50.0603 131.46 50.2305 132.089 50.1583C132.683 50.0899 133.291 49.9056 133.937 49.6706C134.261 49.5529 134.598 49.4211 134.95 49.2833L134.978 49.2724C135.323 49.1375 135.683 48.9967 136.063 48.8555C137.623 48.2768 139.533 47.6923 142.076 47.5294C144.648 47.3646 150.466 47.0847 155.643 46.8459C158.231 46.7265 160.658 46.6175 162.438 46.5382C163.328 46.4986 164.056 46.4665 164.562 46.4442L165.048 46.4229C165.042 46.4712 165.036 46.5243 165.03 46.5814C165 46.8599 164.973 47.2385 164.986 47.6323C165 48.023 165.054 48.446 165.196 48.8044C165.339 49.1651 165.585 49.4905 165.996 49.6185C166.183 49.677 166.454 49.7117 166.769 49.7264C167.09 49.7413 167.474 49.7362 167.895 49.7076C168.737 49.6505 169.742 49.4989 170.712 49.2188C171.679 48.9395 172.628 48.5277 173.344 47.9406C174.065 47.3494 174.561 46.5707 174.58 45.5747C174.615 43.7567 174.532 40.8425 174.441 38.3881C174.395 37.1598 174.348 36.0447 174.311 35.2368C174.293 34.8328 174.278 34.5055 174.267 34.2792L174.254 34.0185L174.251 33.9506L174.25 33.9333L174.25 33.9289L174.25 33.9278L174.25 33.9275L174 33.9399ZM174 33.9399L174.094 33.7081L174.242 33.7679L174.25 33.9274L174 33.9399Z" fill="#1E1B86" stroke="white" stroke-width="0.5"/>
<path d="M1.17399 47.5588L1.00684 47.6046L0.991044 47.7772L1.24 47.7999L0.991036 47.7772L0.991016 47.7775L0.99094 47.7783L0.990645 47.7815L0.989506 47.7942L0.985151 47.843C0.981374 47.8858 0.975913 47.9484 0.969158 48.0281C0.955648 48.1876 0.936953 48.4155 0.916186 48.6898C0.874668 49.2382 0.824784 49.9728 0.791504 50.7163C0.75829 51.4582 0.741317 52.2151 0.766639 52.8057C0.779244 53.0996 0.802668 53.362 0.842585 53.5638C0.862406 53.6641 0.888284 53.76 0.924264 53.8408C0.956442 53.9131 1.01616 54.0186 1.1299 54.0744L1.15987 54.0891L1.19265 54.0954C2.41628 54.3314 3.67373 54.3314 4.89735 54.0954L4.92441 54.0902L4.94969 54.0792C5.02502 54.0465 5.07188 53.9908 5.0991 53.9493C5.12731 53.9062 5.1467 53.8596 5.16075 53.8171C5.18886 53.7321 5.2067 53.6291 5.21798 53.5191C5.24079 53.2966 5.24083 53.0028 5.21736 52.6691C5.17031 52.0004 5.0266 51.1408 4.75633 50.3159C4.48747 49.4952 4.08494 48.6828 3.50429 48.1346C2.91039 47.5739 2.134 47.296 1.17399 47.5588Z" fill="#1E1B86" stroke="white" stroke-width="0.5"/>
<path d="M36.59 46.4199L36.6473 46.1766L36.0547 46.037L36.3782 46.5528L41.0382 53.9828L41.0965 54.0757L41.2043 54.0957L41.25 53.8499L41.2044 54.0957L41.2045 54.0958L41.2051 54.0959L41.2072 54.0962L41.2151 54.0977L41.2456 54.1033C41.2723 54.1081 41.3113 54.115 41.3611 54.1238C41.4608 54.1412 41.604 54.1656 41.7783 54.1936C42.1267 54.2496 42.6009 54.3202 43.1025 54.3783C43.6032 54.4362 44.1362 54.4823 44.6008 54.488C44.8331 54.4909 45.0527 54.4838 45.2451 54.462C45.4335 54.4406 45.6137 54.4033 45.7565 54.3361C45.9193 54.2595 46.0578 54.114 46.1734 53.9533C46.2925 53.7879 46.4041 53.5823 46.5056 53.3544C46.7087 52.8982 46.8813 52.3287 46.9906 51.7541C47.0996 51.181 47.1484 50.5877 47.0939 50.0863C47.0411 49.6015 46.8826 49.1238 46.4978 48.895L46.12 48.6704V48.7291C45.9983 48.6806 45.8602 48.6301 45.7099 48.5781C45.3606 48.4573 44.9262 48.3223 44.4397 48.1797C43.4664 47.8945 42.2757 47.5768 41.1222 47.2803C39.9683 46.9837 38.8497 46.7078 38.0197 46.5061C37.6046 46.4052 37.2616 46.3228 37.0224 46.2657L36.7452 46.1997L36.6724 46.1825L36.6537 46.1781L36.6489 46.177L36.6477 46.1767L36.6474 46.1766C36.6474 46.1766 36.6473 46.1766 36.59 46.4199Z" fill="#1E1B86" stroke="white" stroke-width="0.5"/>
<path d="M23.61 46.1697H23.1992L23.3879 46.5346L23.61 46.4197C23.3879 46.5346 23.388 46.5346 23.388 46.5347L23.3881 46.5349L23.3885 46.5356L23.3899 46.5385L23.3956 46.5493L23.4174 46.5911C23.4366 46.6277 23.4647 46.6811 23.5008 46.7489C23.5729 46.8847 23.677 47.0783 23.8049 47.3107C24.0606 47.775 24.4125 48.3951 24.7961 49.0161C25.1786 49.6355 25.597 50.2628 25.9858 50.7378C26.1797 50.9747 26.3724 51.1815 26.5552 51.3313C26.7276 51.4726 26.9342 51.5997 27.15 51.5997C27.4578 51.5997 27.7894 51.4793 28.098 51.3076C28.4109 51.1334 28.7219 50.8942 28.9936 50.6285C29.2649 50.3631 29.5043 50.0639 29.6683 49.7659C29.8287 49.4742 29.9347 49.1509 29.8869 48.8505C29.861 48.6878 29.7768 48.5205 29.6676 48.3621C29.556 48.1999 29.4059 48.0294 29.2264 47.8586C28.8672 47.5169 28.3761 47.1608 27.7992 46.8562C26.6554 46.2522 25.1397 45.8336 23.6125 46.1697H23.61Z" fill="#1E1B86" stroke="white" stroke-width="0.5"/>
<path d="M12.7375 46.4804L12.7374 46.4805L12.7391 46.4867L12.9784 46.4202C12.7391 46.4867 12.7391 46.4868 12.7392 46.4868L12.7392 46.4871L12.7395 46.4879L12.7404 46.4912L12.7439 46.5036L12.7574 46.5516C12.7693 46.5936 12.7869 46.6549 12.8096 46.7329C12.8551 46.8889 12.9212 47.1117 13.004 47.3796C13.1695 47.915 13.4022 48.6321 13.6706 49.3566C13.9382 50.0792 14.2444 50.8175 14.5578 51.3912C14.7141 51.6774 14.8771 51.9318 15.0437 52.1245C15.2036 52.3094 15.3986 52.4753 15.6261 52.5159L15.6491 52.52L15.6725 52.5198C16.3913 52.5126 17.0874 52.2674 17.652 51.8224C18.2165 51.3774 18.6176 50.7578 18.7925 50.0606L18.7927 50.0607L18.7948 50.0507C18.8399 49.8338 18.8031 49.6027 18.7221 49.3789C18.6404 49.1535 18.5081 48.9195 18.3407 48.6874C18.0058 48.2232 17.5133 47.7431 16.9385 47.324C15.8001 46.4941 14.2664 45.8537 12.9189 46.1351L12.6644 46.1882L12.7275 46.4404L12.7375 46.4804Z" fill="#1E1B86" stroke="white" stroke-width="0.5"/>
<path d="M26.87 41.3501L27.0862 41.4757L27.0862 41.4756L27.0864 41.4753L27.0871 41.4742L27.0894 41.4701L27.0982 41.4548C27.1058 41.4415 27.1168 41.4222 27.1307 41.3975C27.1584 41.3481 27.1978 41.2771 27.2445 41.1901C27.3377 41.0165 27.4611 40.7777 27.5807 40.5187C27.6998 40.2607 27.8178 39.977 27.898 39.7146C27.971 39.4756 28.0266 39.2123 27.99 38.9968V38.9738L27.9845 38.948C27.9518 38.7945 27.8564 38.6831 27.7492 38.6065C27.6446 38.5318 27.5184 38.482 27.3925 38.4472C27.1406 38.3774 26.8324 38.3522 26.5463 38.3464C26.2566 38.3406 25.973 38.3545 25.7631 38.3697C25.7427 38.3711 25.723 38.3726 25.704 38.3741C25.7057 38.3472 25.7075 38.3187 25.7096 38.2888C25.7251 38.0622 25.7518 37.7558 25.7964 37.4345C25.8412 37.1118 25.903 36.7812 25.9872 36.5036C26.0751 36.2138 26.1741 36.0281 26.2653 35.9477C26.563 35.6853 27.2883 35.0146 27.7912 34.3555C28.0379 34.0324 28.2571 33.6793 28.3221 33.362C28.3557 33.1981 28.3534 33.0177 28.2646 32.8544C28.1739 32.6878 28.0161 32.581 27.8242 32.5214C27.7179 32.4883 27.5779 32.473 27.4262 32.4661C27.2695 32.459 27.0808 32.4602 26.8672 32.4681C26.4397 32.4838 25.899 32.5267 25.2886 32.5881C24.0671 32.7109 22.5528 32.9093 21.0786 33.1189C19.6037 33.3285 18.1665 33.5496 17.098 33.7183C16.5638 33.8027 16.1216 33.874 15.813 33.9242C15.6587 33.9493 15.5378 33.9691 15.4554 33.9826L15.3613 33.9981L15.3372 34.0021L15.3311 34.0032L15.3295 34.0034L15.3292 34.0035C15.3291 34.0035 15.329 34.0035 15.37 34.2501M26.87 41.3501L26.8737 41.6001L26.8735 41.6001L26.8728 41.6001L26.87 41.6001L26.8586 41.6003L26.8139 41.601L26.643 41.604C26.4952 41.6067 26.2827 41.6109 26.0243 41.6168C25.5073 41.6285 24.807 41.6469 24.0729 41.6737C23.3384 41.7005 22.5718 41.7357 21.9219 41.7809C21.2637 41.8267 20.7478 41.8814 20.5001 41.9428C20.2504 42.0046 20.0977 42.0793 19.9892 42.1602C19.8805 42.2411 19.8007 42.3394 19.7086 42.4761C19.6799 42.5187 19.6505 42.5642 19.6194 42.6126C19.4461 42.8817 19.2171 43.2373 18.7321 43.6504C18.0906 44.1969 17.3798 44.1036 16.8148 43.8301C16.2589 43.561 15.8036 43.1038 15.5837 42.8249C15.5228 42.7476 15.4887 42.6403 15.4659 42.5529C15.4402 42.4541 15.4176 42.3327 15.3974 42.1955C15.3567 41.9205 15.3226 41.562 15.2936 41.1528C15.2355 40.3333 15.197 39.2925 15.1713 38.2714C15.1457 37.2495 15.1328 36.2443 15.1264 35.4948C15.1232 35.1199 15.1216 34.8089 15.1208 34.5915L15.1201 34.3394L15.12 34.273L15.12 34.256L15.12 34.2516L15.12 34.2505L15.12 34.2502C15.12 34.2502 15.12 34.2501 15.37 34.2501M26.87 41.3501L27.0861 41.4758L27.0151 41.598L26.8737 41.6001L26.87 41.3501ZM15.37 34.2501H15.12V34.0382L15.329 34.0035L15.37 34.2501ZM22.871 38.9454C22.8607 39.0093 22.8516 39.0665 22.8438 39.1157L22.5784 39.1358C22.2988 39.1571 21.9227 39.1859 21.5369 39.2159C20.7711 39.2754 19.9512 39.3411 19.788 39.3622C19.6798 39.3761 19.5965 39.432 19.5382 39.4868C19.4797 39.5419 19.4328 39.6084 19.3953 39.6727C19.3202 39.801 19.2608 39.9575 19.2156 40.099C19.1736 40.2304 19.1406 40.3594 19.1173 40.4601H18.7267C18.7266 40.4594 18.7265 40.4587 18.7264 40.458C18.7108 40.3289 18.7003 40.1368 18.6945 39.8963C18.6829 39.4178 18.6906 38.7765 18.7062 38.1312C18.7218 37.4867 18.7451 36.8419 18.7646 36.358C18.7744 36.1161 18.7832 35.9145 18.7895 35.7735L18.7919 35.7201C20.3165 35.1887 21.382 34.938 22.1175 34.866C22.8896 34.7904 23.2419 34.9172 23.3956 35.055C23.5355 35.1804 23.5713 35.3732 23.5289 35.6335C23.4956 35.8377 23.4239 36.0301 23.3628 36.194C23.3452 36.2411 23.3286 36.2859 23.3139 36.3279L23.2163 36.608L23.2988 36.6217C23.2066 37.0121 23.1013 37.5834 23.0137 38.09C22.9572 38.4162 22.907 38.7216 22.871 38.9454Z" fill="#1E1B86" stroke="white" stroke-width="0.5"/>
<path d="M3.97 22.5098C3.73389 22.4277 3.73383 22.4278 3.73377 22.428L3.73363 22.4284L3.7333 22.4294L3.73241 22.432L3.72978 22.44C3.72767 22.4465 3.72488 22.4554 3.72158 22.4665C3.71498 22.4886 3.70633 22.5196 3.69708 22.5582C3.67862 22.6351 3.65744 22.7433 3.64559 22.8717C3.62214 23.1259 3.63384 23.4751 3.79163 23.8181C4.10534 24.5 4.91657 25.0146 6.66014 24.9144L6.64925 24.9688L6.98241 24.9388C7.8688 24.8591 9.80479 24.6159 12.3233 24.2995C12.5764 24.2677 12.8353 24.2351 13.0997 24.202C13.14 25.3038 13.2001 26.3459 13.2863 27.1805C13.333 27.6318 13.3877 28.0274 13.4523 28.3409C13.4846 28.4976 13.5202 28.6379 13.5598 28.7565C13.5976 28.8694 13.6439 28.9772 13.7042 29.0618C13.8721 29.3166 13.979 29.6678 14.0568 30.0744C14.1098 30.3517 14.1461 30.6348 14.1823 30.9165C14.1997 31.0521 14.2171 31.1873 14.2363 31.3214C14.2925 31.7151 14.3655 32.1115 14.5181 32.3951C14.5971 32.5418 14.7068 32.6768 14.8639 32.7608C15.0247 32.8468 15.2068 32.8641 15.3998 32.8248C15.9981 32.7032 18.6299 32.0563 21.1941 31.3765C22.4775 31.0362 23.7479 30.6867 24.7423 30.3894C25.2391 30.2408 25.6696 30.1045 25.9993 29.9883C26.1639 29.9303 26.3061 29.8763 26.4201 29.8276C26.5283 29.7813 26.6297 29.7321 26.6991 29.6805C26.991 29.4637 27.0055 29.1225 26.9634 28.8313C26.9309 28.6068 26.8542 28.3436 26.7768 28.0782C26.7536 27.9986 26.7304 27.9189 26.7082 27.8399C26.506 27.1185 26.3631 26.3576 26.766 25.6656L26.7725 25.6545L26.7778 25.6428C27.2733 24.5459 27.6521 23.4001 27.9079 22.2244L36.903 21.0277L37.2991 20.975L37.0784 20.6418L36.87 20.7798C37.0784 20.6418 37.0783 20.6416 37.0781 20.6413L37.0778 20.6408L37.077 20.6396L37.075 20.6367L37.069 20.6282C37.0642 20.6214 37.0577 20.6125 37.0494 20.6017C37.0329 20.58 37.0091 20.5504 36.9773 20.5145C36.9136 20.4425 36.818 20.345 36.684 20.2337C36.4155 20.0106 35.9948 19.7333 35.3712 19.4928C34.1238 19.0119 32.0773 18.6829 28.8306 19.213C28.8303 19.213 28.83 19.2131 28.8297 19.2131L28.5571 19.2557C28.7634 18.2804 28.8182 17.2784 28.7188 16.2849L28.7164 16.2613L28.7096 16.2385C28.6447 16.0203 28.5009 15.8181 28.3182 15.6354C28.1339 15.451 27.8974 15.2739 27.6257 15.1074C27.0824 14.7746 26.3761 14.471 25.6052 14.2323C24.0706 13.7571 22.2225 13.5216 20.8298 13.8672C20.4768 13.9548 20.2044 14.0797 20.0183 14.2505C19.8232 14.4295 19.7336 14.6499 19.7398 14.8869C19.7456 15.1114 19.8364 15.3301 19.9572 15.5272C20.0795 15.7267 20.2441 15.923 20.4235 16.1069C20.7823 16.4748 21.2228 16.8166 21.5687 17.0638C21.7426 17.1882 21.8946 17.29 22.0033 17.361C22.024 17.3745 22.0432 17.3869 22.0606 17.3981C22.0608 17.4315 22.0611 17.4707 22.0616 17.5152C22.0631 17.6784 22.0663 17.9135 22.0726 18.2015C22.0839 18.7242 22.1057 19.4218 22.1471 20.1809L19.5021 20.5136C19.5405 19.9517 19.5538 19.445 19.5296 19.0399C19.5153 18.802 19.4876 18.5887 19.4401 18.416C19.3961 18.256 19.3216 18.0789 19.1749 17.9761C19.0464 17.8827 18.9175 17.7744 18.7692 17.6498C18.659 17.5571 18.5379 17.4553 18.3982 17.3439C18.0836 17.093 17.7075 16.8226 17.2432 16.5901C16.3085 16.1221 15.0412 15.8204 13.223 16.0926L13.01 16.1245V16.3398H13.26L13.01 16.3399V16.34V16.3401V16.3403V16.3405V16.3408V16.3412V16.3416V16.3421V16.3426V16.3432V16.3438V16.3445V16.3453V16.346V16.3469V16.3478V16.3488V16.3498V16.3508V16.352V16.3531V16.3544V16.3556V16.357V16.3584V16.3598V16.3613V16.3628V16.3644V16.3661V16.3678V16.3696V16.3714V16.3732V16.3751V16.3771V16.3791V16.3812V16.3833V16.3855V16.3877V16.39V16.3923V16.3947V16.3972V16.3996V16.4022V16.4048V16.4074V16.4101V16.4128V16.4156V16.4184V16.4213V16.4243V16.4273V16.4303V16.4334V16.4365V16.4397V16.443V16.4463V16.4496V16.453V16.4564V16.4599V16.4635V16.4671V16.4707V16.4744V16.4781V16.4819V16.4857V16.4896V16.4935V16.4975V16.5015V16.5056V16.5097V16.5139V16.5181V16.5224V16.5267V16.5311V16.5355V16.5399V16.5444V16.549V16.5536V16.5582V16.5629V16.5677V16.5724V16.5773V16.5822V16.5871V16.5921V16.5971V16.6021V16.6073V16.6124V16.6176V16.6229V16.6282V16.6335V16.6389V16.6443V16.6498V16.6553V16.6609V16.6665V16.6721V16.6779V16.6836V16.6894V16.6952V16.7011V16.707V16.713V16.719V16.7251V16.7312V16.7373V16.7435V16.7497V16.756V16.7623V16.7687V16.7751V16.7816V16.7881V16.7946V16.8012V16.8078V16.8145V16.8212V16.8279V16.8347V16.8416V16.8484V16.8554V16.8623V16.8693V16.8764V16.8835V16.8906V16.8978V16.905V16.9122V16.9195V16.9269V16.9343V16.9417V16.9491V16.9566V16.9642V16.9718V16.9794V16.9871V16.9948V17.0025V17.0103V17.0181V17.026V17.0339V17.0418V17.0498V17.0579V17.0659V17.074V17.0822V17.0904V17.0986V17.1068V17.1151V17.1235V17.1319V17.1403V17.1487V17.1572V17.1658V17.1743V17.183V17.1916V17.2003V17.209V17.2178V17.2266V17.2354V17.2443V17.2532V17.2622V17.2711V17.2802V17.2892V17.2983V17.3075V17.3166V17.3258V17.3351V17.3444V17.3537V17.3631V17.3724V17.3819V17.3913V17.4008V17.4104V17.4199V17.4296V17.4392V17.4489V17.4586V17.4683V17.4781V17.4879V17.4978V17.5077V17.5176V17.5276V17.5376V17.5476V17.5577V17.5678V17.5779V17.5881V17.5983V17.6085V17.6188V17.6291V17.6394V17.6498V17.6602V17.6706V17.6811V17.6916V17.7021V17.7127V17.7233V17.7339V17.7446V17.7553V17.766V17.7768V17.7876V17.7984V17.8093V17.8202V17.8311V17.8421V17.8531V17.8641V17.8751V17.8862V17.8973V17.9085V17.9197V17.9309V17.9421V17.9534V17.9647V17.976V17.9874V17.9988V18.0102V18.0217V18.0332V18.0447V18.0562V18.0678V18.0794V18.0911V18.1027V18.1144V18.1261V18.1379V18.1497V18.1615V18.1733V18.1852V18.1971V18.209V18.221V18.233V18.245V18.2571V18.2691V18.2812V18.2934V18.3055V18.3177V18.3299V18.3422V18.3544V18.3667V18.3791V18.3914V18.4038V18.4162V18.4286V18.4411V18.4536V18.4661V18.4786V18.4912V18.5038V18.5164V18.5291V18.5417V18.5544V18.5672V18.5799V18.5927V18.6055V18.6183V18.6312V18.6441V18.657V18.6699V18.6829V18.6959V18.7089V18.7219V18.735V18.748V18.7612V18.7743V18.7874V18.8006V18.8138V18.8271V18.8403V18.8536V18.8669V18.8802V18.8936V18.9069V18.9203V18.9338V18.9472V18.9607V18.9742V18.9877V19.0012V19.0148V19.0284V19.042V19.0556V19.0692V19.0829V19.0966V19.1103V19.1241V19.1378V19.1516V19.1654V19.1792V19.1931V19.207V19.2209V19.2348V19.2487V19.2627V19.2766V19.2906V19.3047V19.3187V19.3328V19.3468V19.3609V19.3751V19.3892V19.4034V19.4176V19.4318V19.446V19.4602V19.4745V19.4888V19.5031V19.5174V19.5317V19.5461V19.5605V19.5749V19.5893V19.6037V19.6182V19.6327V19.6472V19.6617V19.6762V19.6907V19.7053V19.7199V19.7345V19.7491V19.7638V19.7784V19.7931V19.8078V19.8225V19.8372V19.852V19.8667V19.8815V19.8963V19.9111V19.9259V19.9408V19.9556V19.9705V19.9854V20.0003V20.0153V20.0302V20.0452V20.0601V20.0751V20.0901V20.1052V20.1202V20.1353V20.1503V20.1654V20.1805V20.1956V20.2108V20.2259V20.2411V20.2563V20.2715V20.2867V20.3019V20.3171V20.3324V20.3476V20.3629V20.3782V20.3935V20.4088V20.4241V20.4395V20.4549V20.4702V20.4856V20.501V20.5164V20.5319V20.5473V20.5627V20.5782V20.5937V20.6092V20.6247V20.6402V20.6557V20.6713V20.6868V20.7024V20.718V20.7335V20.7491V20.7648V20.7804V20.796V20.8117V20.8273V20.843V20.8587V20.8743V20.89V20.9058V20.9215V20.9372V20.953V20.9687V20.9845V21.0002V21.016V21.0318V21.0476V21.0634V21.0793V21.0951V21.1109V21.1268V21.1427V21.1585V21.1744V21.1903V21.2062V21.2221V21.238V21.2539V21.2699V21.2858V21.2871C10.553 21.5708 8.31687 21.8114 6.68026 21.9824C5.83749 22.0705 5.15374 22.1402 4.68073 22.1878C4.44423 22.2116 4.26042 22.2299 4.13576 22.2423L3.99395 22.2563L3.95783 22.2598L3.94873 22.2607L3.94646 22.261L3.94589 22.261L3.94575 22.261L3.97 22.5098ZM3.97 22.5098L3.94571 22.261L3.78647 22.2766L3.73389 22.4277L3.97 22.5098ZM20.956 28.4287L20.9477 28.4264L20.9393 28.4248C20.1062 28.2571 19.2597 28.1657 18.4103 28.1516C18.4192 28.1035 18.4289 28.05 18.4396 27.9914C18.492 27.7026 18.5656 27.2905 18.6502 26.7971C18.811 25.8583 19.0116 24.6239 19.182 23.383L22.2411 22.9844C22.2456 23.5889 22.2629 24.14 22.2802 24.5748C22.29 24.8216 22.2996 25.0265 22.3069 25.1827C22.3148 25.3518 22.32 25.4637 22.32 25.5098C22.32 25.6096 22.2813 25.8639 22.1982 26.2045C22.1171 26.5369 21.9995 26.9283 21.854 27.2936C21.7069 27.6628 21.5382 27.9877 21.3612 28.2004C21.1773 28.4212 21.0465 28.4535 20.956 28.4287Z" fill="#1E1B86" stroke="white" stroke-width="0.5"/>
<path d="M10.99 29.3799C11.1898 29.2297 11.1898 29.2296 11.1897 29.2296L11.1895 29.2293L11.1889 29.2284L11.1865 29.2253L11.1777 29.2137L11.1442 29.1702C11.115 29.1324 11.0723 29.0779 11.0178 29.0099C10.9088 28.8738 10.7523 28.6834 10.5615 28.4651C10.1812 28.03 9.65908 27.4775 9.10161 27.0236C8.55549 26.5789 7.93027 26.1904 7.3488 26.1521C7.04525 26.132 6.74982 26.2073 6.49599 26.4179C6.24774 26.6238 6.06075 26.9413 5.93088 27.367L5.92 27.4027V27.4399V27.4699V27.5636L5.98155 27.6342L5.98155 27.6342L5.98158 27.6343L5.98169 27.6344L5.98245 27.6353L5.98592 27.6393L6.00029 27.656C6.01305 27.671 6.03202 27.6935 6.05626 27.7227C6.10477 27.7812 6.17427 27.8667 6.25731 27.9735C6.42365 28.1875 6.643 28.4855 6.85626 28.8224C7.07012 29.1603 7.27412 29.5316 7.41328 29.8928C7.55405 30.2582 7.61898 30.5892 7.58233 30.8559C7.54846 31.1024 7.38079 31.3763 7.08321 31.6637C6.78965 31.9472 6.3944 32.2199 5.95738 32.4658C5.08179 32.9587 4.0804 33.3213 3.49789 33.4454C3.13083 33.5237 2.78353 33.7517 2.51054 34.0312C2.23667 34.3116 2.01663 34.6649 1.92098 35.0229C1.82515 35.3815 1.84821 35.7788 2.11956 36.0858C2.38525 36.3864 2.83713 36.5399 3.46 36.5399C3.85872 36.5399 4.2553 36.5294 4.63492 36.5193C4.81971 36.5144 5.00048 36.5096 5.17553 36.5061C5.71624 36.4955 6.20707 36.4979 6.63193 36.5459C7.05876 36.5941 7.39607 36.6863 7.64216 36.8396C7.87839 36.9868 8.04177 37.1969 8.11657 37.5169C8.15763 37.6925 8.20949 37.8862 8.26361 38.0884C8.27029 38.1133 8.27701 38.1385 8.28375 38.1637C8.34553 38.3948 8.40972 38.6384 8.46721 38.8903C8.58251 39.3954 8.66792 39.9221 8.65262 40.4248C8.63737 40.9258 8.52249 41.3912 8.24761 41.7862C7.97406 42.1793 7.526 42.5258 6.80234 42.7623C5.29699 43.2543 4.41114 43.3314 3.793 43.3704C3.74824 43.3733 3.70439 43.3759 3.66136 43.3784C3.11102 43.4112 2.6957 43.4359 2.22605 43.803C1.89144 44.0645 1.87868 44.4622 1.98765 44.8105C2.09637 45.158 2.33941 45.5225 2.63043 45.8411C2.92366 46.162 3.28244 46.4548 3.64397 46.6522C3.99577 46.8442 4.39566 46.9704 4.75009 46.8826C4.94964 46.8332 5.34919 46.769 5.87817 46.6839C6.01023 46.6627 6.15037 46.6402 6.29747 46.6162C7.02382 46.4981 7.90109 46.3488 8.75512 46.1603C9.60654 45.9724 10.4474 45.7431 11.0965 45.4617C11.4206 45.3211 11.7086 45.1627 11.9281 44.9819C12.146 44.8024 12.3194 44.5814 12.3663 44.3129C12.4038 44.0979 12.409 43.7002 12.396 43.1959C12.3828 42.6823 12.3496 42.0331 12.3026 41.2988C12.2087 39.8299 12.0591 38.0128 11.9015 36.244C11.7439 34.4748 11.5782 32.7524 11.4519 31.4724C11.3888 30.8324 11.3355 30.3029 11.2979 29.9334L11.2542 29.5053L11.2427 29.3928L11.2397 29.3639L11.2389 29.3566L11.2387 29.3548L11.2387 29.3543C11.2387 29.3542 11.2387 29.3541 10.99 29.3799ZM10.99 29.3799L11.1898 29.2297L11.2315 29.2851L11.2387 29.3541L10.99 29.3799Z" fill="#1E1B86" stroke="white" stroke-width="0.5"/>
<path d="M42.2434 38.7139C40.0819 38.3333 37.8866 38.1816 35.6937 38.261C35.6918 38.242 35.6897 38.2219 35.6876 38.2009C35.6688 38.0149 35.6432 37.7488 35.6163 37.4291C35.5625 36.7894 35.5035 35.9372 35.4824 35.0839C35.4613 34.2275 35.4787 33.3827 35.5738 32.7524C35.6216 32.4351 35.6866 32.191 35.7653 32.0305C35.8471 31.8636 35.9093 31.8507 35.9264 31.8496C36.2606 31.8277 36.8894 31.69 37.6064 31.4831C38.3301 31.2743 39.166 30.9883 39.9211 30.6593C40.669 30.3335 41.3647 29.9541 41.7855 29.5501C41.9951 29.3489 42.1637 29.116 42.2097 28.8553C42.2591 28.5751 42.1589 28.3139 41.9361 28.0927C41.5329 27.6924 40.9178 27.4549 40.2622 27.3118C39.6 27.1672 38.8609 27.1115 38.1754 27.1001C37.4886 27.0887 36.8477 27.1217 36.379 27.1574C36.2325 27.1686 36.1026 27.18 35.9932 27.1905C36.0274 27.0645 36.0638 26.9122 36.0949 26.7418C36.1819 26.2649 36.2315 25.6228 36.0507 25.0207C35.8657 24.4044 35.4409 23.8403 34.6136 23.5487C33.8033 23.2632 32.6301 23.247 30.952 23.6469L30.757 23.6934L30.76 23.8939L31.01 23.8901C30.76 23.8939 30.76 23.894 30.76 23.8941L30.76 23.8947L30.7601 23.8971L30.7602 23.9064L30.7608 23.9431L30.7631 24.0862C30.7651 24.2117 30.7682 24.3958 30.7722 24.6304C30.7804 25.0997 30.7926 25.7713 30.809 26.5805C30.8416 28.1987 30.8907 30.3677 30.9564 32.5701C31.022 34.772 31.1043 37.009 31.2034 38.7626C31.2529 39.6391 31.3068 40.3976 31.3652 40.9716C31.3943 41.2583 31.425 41.5023 31.4573 41.6934C31.4877 41.8734 31.5243 42.0378 31.5764 42.1419C31.6828 42.3547 31.9085 42.502 32.1465 42.6101C32.3952 42.7229 32.709 42.8154 33.0581 42.8914C33.7579 43.0437 34.6378 43.1376 35.5126 43.181C36.3884 43.2246 37.2688 43.2181 37.972 43.1668C38.323 43.1412 38.6351 43.104 38.8827 43.0547C39.0063 43.0301 39.1187 43.0016 39.214 42.9681C39.3046 42.9362 39.4004 42.8928 39.474 42.8288L39.4806 42.8231L39.4867 42.8169L39.4891 42.8145C39.5527 42.7619 39.6783 42.6765 39.862 42.5584C39.968 42.4902 40.0866 42.4153 40.216 42.3337C40.3151 42.2711 40.4206 42.2045 40.5314 42.134C41.036 41.8129 41.6334 41.4214 42.131 41.0242C42.3798 40.8257 42.609 40.6214 42.791 40.4198C42.9696 40.2218 43.1196 40.008 43.1849 39.7892C43.255 39.5543 43.2266 39.3083 43.0418 39.1039C42.8742 38.9186 42.6031 38.797 42.2565 38.7166L42.2566 38.7162L42.2434 38.7139Z" fill="#1E1B86" stroke="white" stroke-width="0.5"/>
<path d="M78.55 19.29L78.3102 19.2194L78.2873 19.2973L78.3145 19.3738L78.55 19.29ZM78.55 19.29L78.3145 19.3738L78.3146 19.3741L78.3149 19.3751L78.3163 19.3789L78.3217 19.394L78.3427 19.453L78.4232 19.6779C78.4929 19.8723 78.5934 20.1515 78.7164 20.4909C78.9623 21.1697 79.2986 22.0897 79.6596 23.0539C80.3773 24.9706 81.2051 27.0962 81.6119 27.8222C81.9652 28.4528 82.4591 29.7552 82.9483 31.045C82.9898 31.1544 83.0312 31.2637 83.0725 31.3725C83.3342 32.0612 83.5894 32.7251 83.8123 33.2449C83.9236 33.5046 84.0288 33.7328 84.1243 33.9122C84.2135 34.0798 84.3123 34.2409 84.4185 34.3308C84.4629 34.3684 84.5196 34.3994 84.5877 34.4113C84.656 34.4232 84.7197 34.4131 84.7736 34.3927C84.8725 34.3553 84.9466 34.2808 84.9984 34.2178C85.106 34.0872 85.2121 33.887 85.317 33.6575C85.5135 33.228 85.7408 32.6153 85.9917 31.9387C86.0133 31.8807 86.035 31.8222 86.0569 31.7632C86.6188 30.25 87.2965 28.4695 88.0601 27.4498C88.8709 26.3671 90.0295 23.9408 91.0429 21.6161C92.0603 19.2824 92.9486 17.0097 93.217 16.2095C93.3389 15.8461 93.5293 15.5226 93.7434 15.2156C93.8505 15.0619 93.9619 14.9146 94.0733 14.7678L94.089 14.7471C94.1942 14.6087 94.2997 14.4697 94.396 14.3321C94.5965 14.0458 94.7761 13.7401 94.8437 13.4048C94.9138 13.0571 94.8594 12.6993 94.6348 12.3221L94.5621 12.2H94.5396C94.2371 11.718 93.6908 10.9385 93.0863 10.0759C92.8057 9.67558 92.5126 9.25735 92.2255 8.84266C91.7423 8.14458 91.2735 7.4532 90.9018 6.86326C90.5245 6.26435 90.2639 5.79551 90.1776 5.53211C89.9763 4.91795 89.4416 3.68112 88.7203 2.62406C88.3597 2.0956 87.944 1.59941 87.4896 1.24941C87.0359 0.899901 86.5178 0.677313 85.9663 0.752243C85.0271 0.879859 84.0707 1.1548 83.3691 1.59726C82.6654 2.04111 82.1718 2.68961 82.3029 3.54772C82.3115 3.6041 82.3112 3.71739 82.2926 3.89906C82.2747 4.07464 82.2418 4.29582 82.1952 4.55764C82.102 5.08092 81.9564 5.75408 81.7745 6.52573C81.4108 8.06834 80.9048 9.99254 80.3913 11.8741C79.878 13.7552 79.3576 15.5916 78.9656 16.9579C78.7696 17.641 78.6057 18.2064 78.4909 18.6011C78.4334 18.7984 78.3882 18.9531 78.3574 19.0583L78.3222 19.1784L78.3132 19.2091L78.3109 19.2168L78.3104 19.2188L78.3102 19.2192C78.3102 19.2193 78.3102 19.2194 78.55 19.29ZM84.1505 7.4538C84.1025 8.19566 84.0936 8.93942 84.1239 9.68198C84.1096 9.67453 84.0952 9.66723 84.0806 9.66013C83.9559 9.59952 83.7879 9.53698 83.6182 9.54938C83.5277 9.55599 83.4319 9.58435 83.3463 9.6493C83.2609 9.71415 83.2021 9.80308 83.1652 9.90417L83.1533 9.93667L83.1507 9.97118C83.0622 11.1464 83.0877 12.3273 83.2268 13.4973C83.2168 13.5035 83.2056 13.5102 83.1931 13.5174C83.1003 13.571 82.9712 13.6343 82.8357 13.6965C82.7693 13.727 82.7027 13.7566 82.64 13.7839V9.29065C82.8359 8.70698 83.062 8.13389 83.3175 7.57369L83.321 7.56586L83.3241 7.55779C83.5589 6.93182 83.6398 6.25862 83.56 5.59497C83.5614 5.19647 83.6191 5.0965 83.6436 5.06739C83.6553 5.05354 83.6719 5.04017 83.721 5.01457C83.7289 5.01044 83.7383 5.00569 83.749 5.00033C83.7957 4.97687 83.8656 4.94172 83.9323 4.89551C84.021 4.8341 84.1102 4.7457 84.1973 4.65229C84.2664 4.57813 84.3432 4.49072 84.4258 4.39673C84.4493 4.37009 84.4732 4.34292 84.4975 4.31537C84.7205 4.06255 84.9977 3.75646 85.3564 3.43654C85.706 3.12471 85.9738 2.98798 86.1418 2.92784C86.2259 2.89771 86.2861 2.8864 86.3205 2.88212C86.3378 2.87998 86.3488 2.87958 86.3533 2.87951C86.3534 2.87951 86.3535 2.87951 86.3536 2.87951L86.3835 2.88222L86.419 2.87511C86.799 2.79912 87.0231 2.87814 87.1706 3.00708C87.3312 3.14753 87.4442 3.38433 87.5177 3.7025C87.5903 4.01675 87.6169 4.37568 87.632 4.72617C87.6357 4.81439 87.6388 4.90339 87.6418 4.99117C87.6503 5.23932 87.6585 5.47777 87.682 5.66163L87.6816 5.66167L87.6841 5.675C87.7041 5.78416 87.6996 5.89639 87.671 6.0036C87.6423 6.11081 87.5903 6.21034 87.5185 6.29499C87.4468 6.37965 87.3572 6.44733 87.2561 6.49316C87.155 6.53899 87.045 6.56182 86.9341 6.56L86.9341 6.55997H86.93C86.918 6.55997 86.9021 6.55818 86.873 6.52664C86.8389 6.48955 86.802 6.42582 86.7656 6.33199C86.7301 6.24056 86.7012 6.13707 86.6746 6.03165C86.6674 6.00317 86.6601 5.97328 86.6528 5.9432C86.635 5.87025 86.6169 5.79615 86.5995 5.73813C86.538 5.53319 86.3617 5.45835 86.2274 5.43662C86.0989 5.4158 85.9549 5.43115 85.8331 5.45059C85.7378 5.4658 85.6364 5.48715 85.546 5.50618C85.5182 5.51204 85.4913 5.51769 85.4661 5.52287C85.3478 5.5471 85.268 5.55997 85.22 5.55997L85.2147 5.58228C85.0561 5.59849 84.9254 5.69718 84.8327 5.7907C84.7237 5.90078 84.6228 6.04831 84.5346 6.21329C84.3574 6.54437 84.2109 6.98354 84.1521 7.43788L84.151 7.44582L84.1505 7.4538ZM86.6119 15.7439C86.6119 15.7438 86.612 15.7437 86.612 15.7436C86.6122 15.7437 86.6125 15.7439 86.6127 15.744L86.6119 15.7439ZM86.6574 17.4411L86.64 17.69V17.44C86.6461 17.44 86.6519 17.4404 86.6574 17.4411ZM86.7082 17.4416C86.6995 17.419 86.6894 17.3853 86.6798 17.3376C86.6487 17.1828 86.6388 16.9621 86.6425 16.7238C86.6456 16.5249 86.6578 16.3247 86.671 16.1595C86.6869 16.1471 86.6989 16.135 86.7074 16.1258C86.7479 16.0817 86.7736 16.0279 86.7903 15.9891C86.8095 15.9442 86.8289 15.889 86.8491 15.8231C86.8594 15.7892 86.8715 15.7707 86.8791 15.7617C86.8863 15.7533 86.8908 15.7515 86.8918 15.7511C86.8931 15.7507 86.8979 15.749 86.9086 15.7504C86.9199 15.7519 86.9386 15.7569 86.9635 15.7714C87.0686 15.8321 87.2363 16.0374 87.2814 16.4661C87.3259 16.8891 87.2206 17.1315 87.0996 17.2634C86.9893 17.3836 86.8428 17.438 86.7082 17.4416ZM88.15 13.59H87.9048L87.8034 8.77703L88.15 8.61391V13.59Z" fill="#1E1B86" stroke="white" stroke-width="0.5"/>
<mask id="path-11-outside-1_343_919" maskUnits="userSpaceOnUse" x="54.2767" y="6.43848" width="63" height="46" fill="black">
<rect fill="white" x="54.2767" y="6.43848" width="63" height="46"/>
<path d="M115.21 46.1499C115.04 44.1499 115.21 41.4999 114.34 40.9699C113.238 40.283 112.427 39.2154 112.06 37.9699C111.8 36.7399 110.93 29.9099 110.93 29.6399C110.388 28.1895 109.68 26.8069 108.82 25.5199C107.82 23.9399 106.64 23.2399 106.11 21.1399C105.58 19.0399 105.59 16.1399 104.63 14.4799C103.67 12.8199 102 10.7099 101.3 9.21991C100.6 7.72991 98.3 6.4999 97.72 8.4299C97.0206 10.674 96.172 12.8689 95.18 14.9999C94.48 16.3099 92.82 18.9399 92.82 20.2599C92.82 21.5799 91.69 22.8299 91.25 23.9999C90.81 25.1699 90.25 28.5399 89.41 29.6899C88.57 30.8399 87.13 31.9999 87.22 33.1799C87.31 34.3599 86.16 36.0699 86.56 36.7699C86.96 37.4699 88.01 40.0199 88.19 40.5399C88.37 41.0599 88.97 42.9099 88.36 42.6499C87.75 42.3899 84.69 35.7199 83.82 34.8499C82.95 33.9799 80.82 29.3299 80.23 27.3999C79.64 25.4699 78.04 20.2099 77.08 18.7199C76.12 17.2299 75.33 15.1299 72.97 15.7199C72.97 15.7199 68.97 19.3999 68.33 20.2799C67.7922 21.3895 67.3246 22.5317 66.93 23.6999C66.32 24.9999 65.71 29.1499 65.01 29.9999C64.31 30.8499 62.73 32.6699 62.82 34.1399C62.91 35.6099 62.82 38.4199 62.82 38.4199C62.0919 39.0858 61.5009 39.8875 61.08 40.7799C60.82 41.7799 60.38 44.1999 59.68 45.1599C58.98 46.1199 57.68 47.1599 56.96 48.2299C56.24 49.2999 54.43 51.0299 55.74 51.5599C57.1745 51.9189 58.6755 51.9189 60.11 51.5599C60.72 51.3799 62.3 49.3699 62.91 48.5599C63.52 47.7499 64.13 46.1099 64.57 46.6299C64.8135 46.9711 64.9581 47.3729 64.9881 47.791C65.0181 48.2091 64.9323 48.6274 64.74 48.9999C64.31 49.7899 64.66 50.4899 66.14 49.0799C67.62 47.6699 69.47 46.0199 70.08 45.9299C70.69 45.8399 72.53 46.1899 72.97 46.8099C73.41 47.4299 74.1 45.6699 75.15 45.8099C76.2 45.9499 77.25 48.0099 77.69 47.5699C78.13 47.1299 79 45.1099 80.05 46.5699C81.1 48.0299 82.55 49.7499 82.55 49.7499C82.8774 49.3754 83.1266 48.9391 83.2829 48.4668C83.4391 47.9946 83.4994 47.4958 83.46 46.9999C83.2 45.5999 85.46 45.3399 86.17 46.2199C86.7954 47.1086 87.3504 48.0448 87.83 49.0199C87.83 49.0199 88.83 47.1799 89.41 47.1799C90.5606 47.3393 91.6997 47.5731 92.82 47.8799C93.43 48.0599 94.02 49.8099 94.6 49.8799C95.18 49.9499 96.32 48.0399 95.44 46.9899C94.5382 45.9355 93.5731 44.937 92.55 43.9999C92.2 43.7299 93.16 43.5599 93.77 43.9999C94.38 44.4399 96.66 46.4599 97.27 46.9999C97.88 47.5399 99.98 48.5799 99.98 49.0999C99.98 49.6199 100.16 48.8399 101.56 47.6999C101.759 47.5137 101.997 47.3753 102.258 47.2953C102.518 47.2153 102.793 47.1957 103.063 47.2382C103.332 47.2806 103.587 47.3839 103.811 47.5402C104.034 47.6964 104.218 47.9015 104.35 48.1399C104.35 48.4899 105.58 46.7299 106.63 46.5599C107.68 46.3899 111.35 46.2999 111.87 46.7299C112.39 47.1599 112.4 49.1899 112.75 49.2699C113.1 49.3499 116.34 49.6199 116.34 49.6199L116.51 48.6199C116.51 48.6199 115.38 48.2499 115.2 46.2399L115.21 46.1499ZM64.97 37.6499H63.83V35.4499H64.97V37.6499ZM74.13 39.6999C74.13 40.1999 73.13 40.1999 73.13 40.1999C73.13 40.1999 73.13 41.8599 73.13 42.9999C73.13 44.1399 72.6 43.6999 72.34 42.9999C72.182 41.8054 72.3017 40.5905 72.69 39.4499C72.9467 38.2085 73.0939 36.947 73.13 35.6799C74.7 34.3199 74.13 39.1899 74.13 39.6799V39.6999ZM76.6 21.2599C76.08 21.2599 75.82 20.5999 75.33 20.3399C74.84 20.0799 74.46 20.4699 74.21 21.1299C74.0539 21.6722 74.0539 22.2476 74.21 22.7899C74.27 23.0999 73.21 22.8799 73.21 22.8799C73.1709 22.1597 73.0942 21.4421 72.98 20.7299C72.8 19.7299 72.19 20.3799 71.58 20.7299C70.97 21.0799 70.48 21.7299 69.87 21.9999C68.9983 22.735 68.336 23.687 67.95 24.7599C67.69 25.5899 68.08 28.1699 67.56 28.2499C67.04 28.3299 67.25 28.9599 66.94 29.6999C66.63 30.4399 66.16 31.0699 65.94 30.5399C65.8361 29.88 65.9446 29.2041 66.25 28.6099C66.6012 27.5725 66.836 26.4992 66.95 25.4099C67.1142 24.7724 67.3146 24.1447 67.55 23.5299C67.8541 22.7946 68.2839 22.1179 68.82 21.5299C69.358 20.837 69.9718 20.2064 70.65 19.6499C71 19.4299 71.65 18.5399 72.19 18.0199C72.73 17.4999 73.76 17.6699 73.85 18.0199C73.94 18.3699 76.38 19.1599 76.38 19.1599C76.7176 19.4382 76.9762 19.8003 77.13 20.2099C77.52 21.0399 77.13 21.2099 76.6 21.2599V21.2599ZM80.19 44.0499C79.89 44.1799 78.71 42.9899 78.45 42.7999C78.19 42.6099 78.32 40.5299 78.32 40.5299C78.48 40.3999 79.2 40.5299 79.2 40.5299L79.38 42.4399C79.6573 42.3898 79.9433 42.447 80.18 42.5999C80.64 42.8599 80.48 43.9099 80.18 44.0499H80.19ZM103.08 24.3599C102.661 25.4344 102.092 26.4444 101.39 27.3599C100.74 28.1399 100.39 30.3099 99.93 31.1499C99.4961 31.855 98.9448 32.4807 98.3 32.9999C97.77 33.4699 97.3 36.7499 97.3 36.7499C97.3 36.7499 97.24 34.1899 97.3 33.3999C97.6581 31.9658 98.3083 30.6211 99.21 29.4499C100.06 28.3999 100.78 25.8999 101.38 24.7199C101.98 23.5399 102.03 19.7199 102.03 19.7199C103.47 18.7199 103.93 24.4499 103.86 24.7799C103.79 25.1099 103.2 23.7799 103.08 24.3199V24.3599ZM104.92 31.7899C104.768 31.9027 104.584 31.9637 104.395 31.9637C104.206 31.9637 104.022 31.9027 103.87 31.7899C103.29 31.3899 103.87 27.3199 103.87 27.3199L104.92 27.0599V31.7899Z"/>
</mask>
<path d="M115.21 46.1499C115.04 44.1499 115.21 41.4999 114.34 40.9699C113.238 40.283 112.427 39.2154 112.06 37.9699C111.8 36.7399 110.93 29.9099 110.93 29.6399C110.388 28.1895 109.68 26.8069 108.82 25.5199C107.82 23.9399 106.64 23.2399 106.11 21.1399C105.58 19.0399 105.59 16.1399 104.63 14.4799C103.67 12.8199 102 10.7099 101.3 9.21991C100.6 7.72991 98.3 6.4999 97.72 8.4299C97.0206 10.674 96.172 12.8689 95.18 14.9999C94.48 16.3099 92.82 18.9399 92.82 20.2599C92.82 21.5799 91.69 22.8299 91.25 23.9999C90.81 25.1699 90.25 28.5399 89.41 29.6899C88.57 30.8399 87.13 31.9999 87.22 33.1799C87.31 34.3599 86.16 36.0699 86.56 36.7699C86.96 37.4699 88.01 40.0199 88.19 40.5399C88.37 41.0599 88.97 42.9099 88.36 42.6499C87.75 42.3899 84.69 35.7199 83.82 34.8499C82.95 33.9799 80.82 29.3299 80.23 27.3999C79.64 25.4699 78.04 20.2099 77.08 18.7199C76.12 17.2299 75.33 15.1299 72.97 15.7199C72.97 15.7199 68.97 19.3999 68.33 20.2799C67.7922 21.3895 67.3246 22.5317 66.93 23.6999C66.32 24.9999 65.71 29.1499 65.01 29.9999C64.31 30.8499 62.73 32.6699 62.82 34.1399C62.91 35.6099 62.82 38.4199 62.82 38.4199C62.0919 39.0858 61.5009 39.8875 61.08 40.7799C60.82 41.7799 60.38 44.1999 59.68 45.1599C58.98 46.1199 57.68 47.1599 56.96 48.2299C56.24 49.2999 54.43 51.0299 55.74 51.5599C57.1745 51.9189 58.6755 51.9189 60.11 51.5599C60.72 51.3799 62.3 49.3699 62.91 48.5599C63.52 47.7499 64.13 46.1099 64.57 46.6299C64.8135 46.9711 64.9581 47.3729 64.9881 47.791C65.0181 48.2091 64.9323 48.6274 64.74 48.9999C64.31 49.7899 64.66 50.4899 66.14 49.0799C67.62 47.6699 69.47 46.0199 70.08 45.9299C70.69 45.8399 72.53 46.1899 72.97 46.8099C73.41 47.4299 74.1 45.6699 75.15 45.8099C76.2 45.9499 77.25 48.0099 77.69 47.5699C78.13 47.1299 79 45.1099 80.05 46.5699C81.1 48.0299 82.55 49.7499 82.55 49.7499C82.8774 49.3754 83.1266 48.9391 83.2829 48.4668C83.4391 47.9946 83.4994 47.4958 83.46 46.9999C83.2 45.5999 85.46 45.3399 86.17 46.2199C86.7954 47.1086 87.3504 48.0448 87.83 49.0199C87.83 49.0199 88.83 47.1799 89.41 47.1799C90.5606 47.3393 91.6997 47.5731 92.82 47.8799C93.43 48.0599 94.02 49.8099 94.6 49.8799C95.18 49.9499 96.32 48.0399 95.44 46.9899C94.5382 45.9355 93.5731 44.937 92.55 43.9999C92.2 43.7299 93.16 43.5599 93.77 43.9999C94.38 44.4399 96.66 46.4599 97.27 46.9999C97.88 47.5399 99.98 48.5799 99.98 49.0999C99.98 49.6199 100.16 48.8399 101.56 47.6999C101.759 47.5137 101.997 47.3753 102.258 47.2953C102.518 47.2153 102.793 47.1957 103.063 47.2382C103.332 47.2806 103.587 47.3839 103.811 47.5402C104.034 47.6964 104.218 47.9015 104.35 48.1399C104.35 48.4899 105.58 46.7299 106.63 46.5599C107.68 46.3899 111.35 46.2999 111.87 46.7299C112.39 47.1599 112.4 49.1899 112.75 49.2699C113.1 49.3499 116.34 49.6199 116.34 49.6199L116.51 48.6199C116.51 48.6199 115.38 48.2499 115.2 46.2399L115.21 46.1499ZM64.97 37.6499H63.83V35.4499H64.97V37.6499ZM74.13 39.6999C74.13 40.1999 73.13 40.1999 73.13 40.1999C73.13 40.1999 73.13 41.8599 73.13 42.9999C73.13 44.1399 72.6 43.6999 72.34 42.9999C72.182 41.8054 72.3017 40.5905 72.69 39.4499C72.9467 38.2085 73.0939 36.947 73.13 35.6799C74.7 34.3199 74.13 39.1899 74.13 39.6799V39.6999ZM76.6 21.2599C76.08 21.2599 75.82 20.5999 75.33 20.3399C74.84 20.0799 74.46 20.4699 74.21 21.1299C74.0539 21.6722 74.0539 22.2476 74.21 22.7899C74.27 23.0999 73.21 22.8799 73.21 22.8799C73.1709 22.1597 73.0942 21.4421 72.98 20.7299C72.8 19.7299 72.19 20.3799 71.58 20.7299C70.97 21.0799 70.48 21.7299 69.87 21.9999C68.9983 22.735 68.336 23.687 67.95 24.7599C67.69 25.5899 68.08 28.1699 67.56 28.2499C67.04 28.3299 67.25 28.9599 66.94 29.6999C66.63 30.4399 66.16 31.0699 65.94 30.5399C65.8361 29.88 65.9446 29.2041 66.25 28.6099C66.6012 27.5725 66.836 26.4992 66.95 25.4099C67.1142 24.7724 67.3146 24.1447 67.55 23.5299C67.8541 22.7946 68.2839 22.1179 68.82 21.5299C69.358 20.837 69.9718 20.2064 70.65 19.6499C71 19.4299 71.65 18.5399 72.19 18.0199C72.73 17.4999 73.76 17.6699 73.85 18.0199C73.94 18.3699 76.38 19.1599 76.38 19.1599C76.7176 19.4382 76.9762 19.8003 77.13 20.2099C77.52 21.0399 77.13 21.2099 76.6 21.2599V21.2599ZM80.19 44.0499C79.89 44.1799 78.71 42.9899 78.45 42.7999C78.19 42.6099 78.32 40.5299 78.32 40.5299C78.48 40.3999 79.2 40.5299 79.2 40.5299L79.38 42.4399C79.6573 42.3898 79.9433 42.447 80.18 42.5999C80.64 42.8599 80.48 43.9099 80.18 44.0499H80.19ZM103.08 24.3599C102.661 25.4344 102.092 26.4444 101.39 27.3599C100.74 28.1399 100.39 30.3099 99.93 31.1499C99.4961 31.855 98.9448 32.4807 98.3 32.9999C97.77 33.4699 97.3 36.7499 97.3 36.7499C97.3 36.7499 97.24 34.1899 97.3 33.3999C97.6581 31.9658 98.3083 30.6211 99.21 29.4499C100.06 28.3999 100.78 25.8999 101.38 24.7199C101.98 23.5399 102.03 19.7199 102.03 19.7199C103.47 18.7199 103.93 24.4499 103.86 24.7799C103.79 25.1099 103.2 23.7799 103.08 24.3199V24.3599ZM104.92 31.7899C104.768 31.9027 104.584 31.9637 104.395 31.9637C104.206 31.9637 104.022 31.9027 103.87 31.7899C103.29 31.3899 103.87 27.3199 103.87 27.3199L104.92 27.0599V31.7899Z" fill="#1E1B86"/>
<path d="M115.21 46.1499C115.04 44.1499 115.21 41.4999 114.34 40.9699C113.238 40.283 112.427 39.2154 112.06 37.9699C111.8 36.7399 110.93 29.9099 110.93 29.6399C110.388 28.1895 109.68 26.8069 108.82 25.5199C107.82 23.9399 106.64 23.2399 106.11 21.1399C105.58 19.0399 105.59 16.1399 104.63 14.4799C103.67 12.8199 102 10.7099 101.3 9.21991C100.6 7.72991 98.3 6.4999 97.72 8.4299C97.0206 10.674 96.172 12.8689 95.18 14.9999C94.48 16.3099 92.82 18.9399 92.82 20.2599C92.82 21.5799 91.69 22.8299 91.25 23.9999C90.81 25.1699 90.25 28.5399 89.41 29.6899C88.57 30.8399 87.13 31.9999 87.22 33.1799C87.31 34.3599 86.16 36.0699 86.56 36.7699C86.96 37.4699 88.01 40.0199 88.19 40.5399C88.37 41.0599 88.97 42.9099 88.36 42.6499C87.75 42.3899 84.69 35.7199 83.82 34.8499C82.95 33.9799 80.82 29.3299 80.23 27.3999C79.64 25.4699 78.04 20.2099 77.08 18.7199C76.12 17.2299 75.33 15.1299 72.97 15.7199C72.97 15.7199 68.97 19.3999 68.33 20.2799C67.7922 21.3895 67.3246 22.5317 66.93 23.6999C66.32 24.9999 65.71 29.1499 65.01 29.9999C64.31 30.8499 62.73 32.6699 62.82 34.1399C62.91 35.6099 62.82 38.4199 62.82 38.4199C62.0919 39.0858 61.5009 39.8875 61.08 40.7799C60.82 41.7799 60.38 44.1999 59.68 45.1599C58.98 46.1199 57.68 47.1599 56.96 48.2299C56.24 49.2999 54.43 51.0299 55.74 51.5599C57.1745 51.9189 58.6755 51.9189 60.11 51.5599C60.72 51.3799 62.3 49.3699 62.91 48.5599C63.52 47.7499 64.13 46.1099 64.57 46.6299C64.8135 46.9711 64.9581 47.3729 64.9881 47.791C65.0181 48.2091 64.9323 48.6274 64.74 48.9999C64.31 49.7899 64.66 50.4899 66.14 49.0799C67.62 47.6699 69.47 46.0199 70.08 45.9299C70.69 45.8399 72.53 46.1899 72.97 46.8099C73.41 47.4299 74.1 45.6699 75.15 45.8099C76.2 45.9499 77.25 48.0099 77.69 47.5699C78.13 47.1299 79 45.1099 80.05 46.5699C81.1 48.0299 82.55 49.7499 82.55 49.7499C82.8774 49.3754 83.1266 48.9391 83.2829 48.4668C83.4391 47.9946 83.4994 47.4958 83.46 46.9999C83.2 45.5999 85.46 45.3399 86.17 46.2199C86.7954 47.1086 87.3504 48.0448 87.83 49.0199C87.83 49.0199 88.83 47.1799 89.41 47.1799C90.5606 47.3393 91.6997 47.5731 92.82 47.8799C93.43 48.0599 94.02 49.8099 94.6 49.8799C95.18 49.9499 96.32 48.0399 95.44 46.9899C94.5382 45.9355 93.5731 44.937 92.55 43.9999C92.2 43.7299 93.16 43.5599 93.77 43.9999C94.38 44.4399 96.66 46.4599 97.27 46.9999C97.88 47.5399 99.98 48.5799 99.98 49.0999C99.98 49.6199 100.16 48.8399 101.56 47.6999C101.759 47.5137 101.997 47.3753 102.258 47.2953C102.518 47.2153 102.793 47.1957 103.063 47.2382C103.332 47.2806 103.587 47.3839 103.811 47.5402C104.034 47.6964 104.218 47.9015 104.35 48.1399C104.35 48.4899 105.58 46.7299 106.63 46.5599C107.68 46.3899 111.35 46.2999 111.87 46.7299C112.39 47.1599 112.4 49.1899 112.75 49.2699C113.1 49.3499 116.34 49.6199 116.34 49.6199L116.51 48.6199C116.51 48.6199 115.38 48.2499 115.2 46.2399L115.21 46.1499ZM64.97 37.6499H63.83V35.4499H64.97V37.6499ZM74.13 39.6999C74.13 40.1999 73.13 40.1999 73.13 40.1999C73.13 40.1999 73.13 41.8599 73.13 42.9999C73.13 44.1399 72.6 43.6999 72.34 42.9999C72.182 41.8054 72.3017 40.5905 72.69 39.4499C72.9467 38.2085 73.0939 36.947 73.13 35.6799C74.7 34.3199 74.13 39.1899 74.13 39.6799V39.6999ZM76.6 21.2599C76.08 21.2599 75.82 20.5999 75.33 20.3399C74.84 20.0799 74.46 20.4699 74.21 21.1299C74.0539 21.6722 74.0539 22.2476 74.21 22.7899C74.27 23.0999 73.21 22.8799 73.21 22.8799C73.1709 22.1597 73.0942 21.4421 72.98 20.7299C72.8 19.7299 72.19 20.3799 71.58 20.7299C70.97 21.0799 70.48 21.7299 69.87 21.9999C68.9983 22.735 68.336 23.687 67.95 24.7599C67.69 25.5899 68.08 28.1699 67.56 28.2499C67.04 28.3299 67.25 28.9599 66.94 29.6999C66.63 30.4399 66.16 31.0699 65.94 30.5399C65.8361 29.88 65.9446 29.2041 66.25 28.6099C66.6012 27.5725 66.836 26.4992 66.95 25.4099C67.1142 24.7724 67.3146 24.1447 67.55 23.5299C67.8541 22.7946 68.2839 22.1179 68.82 21.5299C69.358 20.837 69.9718 20.2064 70.65 19.6499C71 19.4299 71.65 18.5399 72.19 18.0199C72.73 17.4999 73.76 17.6699 73.85 18.0199C73.94 18.3699 76.38 19.1599 76.38 19.1599C76.7176 19.4382 76.9762 19.8003 77.13 20.2099C77.52 21.0399 77.13 21.2099 76.6 21.2599V21.2599ZM80.19 44.0499C79.89 44.1799 78.71 42.9899 78.45 42.7999C78.19 42.6099 78.32 40.5299 78.32 40.5299C78.48 40.3999 79.2 40.5299 79.2 40.5299L79.38 42.4399C79.6573 42.3898 79.9433 42.447 80.18 42.5999C80.64 42.8599 80.48 43.9099 80.18 44.0499H80.19ZM103.08 24.3599C102.661 25.4344 102.092 26.4444 101.39 27.3599C100.74 28.1399 100.39 30.3099 99.93 31.1499C99.4961 31.855 98.9448 32.4807 98.3 32.9999C97.77 33.4699 97.3 36.7499 97.3 36.7499C97.3 36.7499 97.24 34.1899 97.3 33.3999C97.6581 31.9658 98.3083 30.6211 99.21 29.4499C100.06 28.3999 100.78 25.8999 101.38 24.7199C101.98 23.5399 102.03 19.7199 102.03 19.7199C103.47 18.7199 103.93 24.4499 103.86 24.7799C103.79 25.1099 103.2 23.7799 103.08 24.3199V24.3599ZM104.92 31.7899C104.768 31.9027 104.584 31.9637 104.395 31.9637C104.206 31.9637 104.022 31.9027 103.87 31.7899C103.29 31.3899 103.87 27.3199 103.87 27.3199L104.92 27.0599V31.7899Z" stroke="white" mask="url(#path-11-outside-1_343_919)"/>
</svg>
