<svg width="22" height="34" viewBox="0 0 22 34" fill="none" xmlns="http://www.w3.org/2000/svg"><path fill-rule="evenodd" clip-rule="evenodd" d="M11 0.375C11.3149 0.375 11.617 0.500111 11.8397 0.722811C12.0624 0.94551 12.1875 1.24756 12.1875 1.5625V29.5709L19.6592 22.0968C19.8822 21.8738 20.1846 21.7485 20.5 21.7485C20.8153 21.7485 21.1177 21.8738 21.3407 22.0968C21.5637 22.3197 21.689 22.6222 21.689 22.9375C21.689 23.2528 21.5637 23.5553 21.3407 23.7782L11.8407 33.2783C11.7304 33.3888 11.5994 33.4766 11.4551 33.5364C11.3108 33.5963 11.1562 33.6271 11 33.6271C10.8438 33.6271 10.6891 33.5963 10.5448 33.5364C10.4006 33.4766 10.2695 33.3888 10.1592 33.2783L0.659224 23.7782C0.436243 23.5553 0.310974 23.2528 0.310974 22.9375C0.310974 22.6222 0.436243 22.3197 0.659224 22.0968C0.882205 21.8738 1.18463 21.7485 1.49997 21.7485C1.81532 21.7485 2.11774 21.8738 2.34072 22.0968L9.81247 29.5709V1.5625C9.81247 1.24756 9.93759 0.94551 10.1603 0.722811C10.383 0.500111 10.685 0.375 11 0.375Z" fill="white"></path></svg>