<svg width="508" height="751" viewBox="0 0 508 751" fill="none" xmlns="http://www.w3.org/2000/svg">
<path d="M44.77 85.3998L368.43 50.5498L460.2 104.88L454.98 224.43L365.44 204.39L44.77 212.94V85.3998Z" stroke="#F1F1F1" stroke-miterlimit="10"/>
<path d="M50.5498 91.9102L363.83 57.4502L356.94 197.62L50.5498 203.74V91.9102Z" stroke="#F1F1F1" stroke-miterlimit="10"/>
<path d="M374.55 63.5698L453.45 108L448.85 216.77L367.66 196.85L374.55 63.5698Z" stroke="#F1F1F1" stroke-miterlimit="10"/>
<path d="M50.5498 212.78V441.19H58.2098L62.8098 212.78" stroke="#F1F1F1" stroke-miterlimit="10"/>
<path d="M353.84 204.7L343.91 487.91L348.88 490.98L360.77 204.51L365.44 204.39L354.78 488.33" stroke="#F1F1F1" stroke-miterlimit="10"/>
<path d="M440.88 221.9L433.74 452.84" stroke="#F1F1F1" stroke-miterlimit="10"/>
<path d="M69.73 212.27L186.89 231.32V209.15" stroke="#F1F1F1" stroke-miterlimit="10"/>
<path d="M116.44 211.03L181.53 221.9V209.29" stroke="#F1F1F1" stroke-miterlimit="10"/>
<path d="M348.88 490.98L439.1 450.43L453.45 224.08" stroke="#F1F1F1" stroke-miterlimit="10"/>
<path d="M348.88 496.34L445.79 450.38V467.23L354.68 505.53L343.91 703.66L431.49 625.02L438.47 470.98" stroke="#F1F1F1" stroke-miterlimit="10"/>
<path d="M442.23 468.73L435.06 631.15L348.88 710.81V733.79L340.09 739.91L331.66 733.79V710.55L45.9599 624.77L41.3599 438.38H50.5499" stroke="#F1F1F1" stroke-miterlimit="10"/>
<path d="M445.79 450.38L439.1 450.43" stroke="#F1F1F1" stroke-miterlimit="10"/>
<path d="M58.27 438.38H67.61" stroke="#F1F1F1" stroke-miterlimit="10"/>
<path d="M67.61 441.19H58.21" stroke="#F1F1F1" stroke-miterlimit="10"/>
<path d="M50.5501 441.19L47.8301 441.67L228.67 469.92L343.91 487.91" stroke="#F1F1F1" stroke-miterlimit="10"/>
<path d="M41.5898 447.58L348.88 496.34" stroke="#F1F1F1" stroke-miterlimit="10"/>
<path d="M53.1101 458.04L341.87 506.55L335.74 703.66L51.0601 619.66L53.1101 458.04Z" stroke="#F1F1F1" stroke-miterlimit="10"/>
<path d="M58.71 628.59V654.3L68.77 659.06V631.61" stroke="#F1F1F1" stroke-miterlimit="10"/>
<path d="M68.77 659.06L73.87 655.32V633.15" stroke="#F1F1F1" stroke-miterlimit="10"/>
<path d="M431.18 634.74V657.36L425.53 664.85V640.94" stroke="#F1F1F1" stroke-miterlimit="10"/>
<path d="M417.4 647.47V662.13L425.53 664.85" stroke="#F1F1F1" stroke-miterlimit="10"/>
<path d="M72.6699 419.91L62.7899 420.88C61.2899 421.2 60.6699 422.3 62.4799 423.35C62.4899 423.35 63.2799 423.72 63.2999 423.72C76.7199 426.14 145.65 438.33 156.02 435.56L180.01 429.06" stroke="#F1F1F1" stroke-miterlimit="10"/>
<path d="M72.6699 421.68C72.6699 421.68 73.3999 422 73.4199 422C85.6699 424.1 148.56 434.68 158.02 432.28L181.54 425.58" stroke="#F1F1F1" stroke-miterlimit="10"/>
<path d="M66.1299 424.24L67.6099 444.76" stroke="#F1F1F1" stroke-miterlimit="10"/>
<path d="M154.56 435.82V458.04" stroke="#F1F1F1" stroke-miterlimit="10"/>
<path d="M189.7 396.26L183.57 413.62C183.57 413.62 184.59 415.41 186.25 414.9L208.08 400.09C208.08 400.09 210.12 397.54 209.61 396.77C209.1 396 189.7 396.26 189.7 396.26Z" stroke="#F1F1F1" stroke-miterlimit="10"/>
<path d="M163.92 459.8L171.57 441.19H174.64L186.26 414.89" stroke="#F1F1F1" stroke-miterlimit="10"/>
<path d="M180.89 462.45C180.89 462.45 177.7 445.27 174.64 441.19" stroke="#F1F1F1" stroke-miterlimit="10"/>
<path d="M252.77 400.6L270.64 402.64C270.64 402.64 268.34 416.99 265.28 424.24H262.98L252.77 402.13C252.77 402.13 252.26 403.66 252.77 400.6V400.6Z" stroke="#F1F1F1" stroke-miterlimit="10"/>
<path d="M247.91 471.96L254.55 452.22C254.55 452.22 255.83 450.38 251.23 453.19C246.63 456 231.83 465.96 231.83 465.96C231.83 465.96 230.1 465.96 228.67 469.92" stroke="#F1F1F1" stroke-miterlimit="10"/>
<path d="M206.03 401.48L253.78 404.31" stroke="#F1F1F1" stroke-miterlimit="10"/>
<path d="M262.98 424.24L252.54 452.22" stroke="#F1F1F1" stroke-miterlimit="10"/>
<path d="M198.13 406.84L256.5 410.21" stroke="#F1F1F1" stroke-miterlimit="10"/>
<path d="M260.37 419.14L248.16 453.97" stroke="#F1F1F1" stroke-miterlimit="10"/>
<path d="M192.43 410.7L177.03 446.6" stroke="#F1F1F1" stroke-miterlimit="10"/>
<path d="M179.99 458.04L233.58 464.78" stroke="#F1F1F1" stroke-miterlimit="10"/>
<path d="M270.64 402.64L292.85 404.31C292.85 404.31 294.38 407.77 292.85 408.52C291.32 409.27 270.64 424.23 270.64 424.23H265.28" stroke="#F1F1F1" stroke-miterlimit="10"/>
<path d="M254.72 453.97C254.72 453.97 258.02 451.43 260.37 453.97C260.37 453.97 268.03 471.16 268.09 473.62L268.14 476.08" stroke="#F1F1F1" stroke-miterlimit="10"/>
<path d="M318.75 483.98C318.75 483.98 340.34 469.22 343.92 464.78" stroke="#F1F1F1" stroke-miterlimit="10"/>
<path d="M346.24 421.68L340.35 410.21C340.35 410.21 340.29 409.33 346.24 410.21" stroke="#F1F1F1" stroke-miterlimit="10"/>
<path d="M357.66 411.62H364.34L356.82 434.03" stroke="#F1F1F1" stroke-miterlimit="10"/>
<path d="M292.85 408.52L340.34 411.62" stroke="#F1F1F1" stroke-miterlimit="10"/>
<path d="M267.06 424.24L256.5 452.84" stroke="#F1F1F1" stroke-miterlimit="10"/>
<path d="M283.65 414.89L345.33 419.91" stroke="#F1F1F1" stroke-miterlimit="10"/>
<path d="M267.06 470.07L325.22 479.47" stroke="#F1F1F1" stroke-miterlimit="10"/>
<path d="M277.72 419.14L263.6 461.41" stroke="#F1F1F1" stroke-miterlimit="10"/>
<path d="M270.64 424.24L260.37 453.97" stroke="#F1F1F1" stroke-miterlimit="10"/>
<path d="M411.32 462.45L412.34 413.44L364.34 436.55L363.16 484.56" stroke="#F1F1F1" stroke-miterlimit="10"/>
<path d="M362.04 428.39L408.45 408.33" stroke="#F1F1F1" stroke-miterlimit="10"/>
<path d="M252.77 400.6L263.6 386.55L302.55 389.62L292.85 404.31" stroke="#F1F1F1" stroke-miterlimit="10"/>
<path d="M272.17 386.55C272.17 386.55 272.92 378.38 283.65 378.64C283.65 378.64 294.81 377.51 295.07 389.03" stroke="#F1F1F1" stroke-miterlimit="10"/>
<path d="M347.03 398.87L341.87 406.84L297.45 404.31L306.38 390.89L347.03 392.94" stroke="#F1F1F1" stroke-miterlimit="10"/>
<path d="M316.6 390.89C316.6 390.89 316.86 382.21 326.56 382.46C326.56 382.46 338.27 380.89 339.05 392.53" stroke="#F1F1F1" stroke-miterlimit="10"/>
<path d="M306.38 390.89C306.38 390.89 305.19 377.38 326.55 375.57C326.55 375.57 342.68 374.8 346.23 385.53" stroke="#F1F1F1" stroke-miterlimit="10"/>
<path d="M356.74 435.98H358.47C360.22 435.36 365.44 415.75 365.44 415.75L364.34 411.62L389.87 413.44L396 398.87L358.24 396.22C358.24 396.22 363.07 386.67 373.33 386.67C373.33 386.67 383.75 387.47 386.46 398.2" stroke="#F1F1F1" stroke-miterlimit="10"/>
<path d="M389.87 413.44V415.75" stroke="#F1F1F1" stroke-miterlimit="10"/>
<path d="M341.87 406.84V409.81" stroke="#F1F1F1" stroke-miterlimit="10"/>
<path d="M297.45 404.31V408.33" stroke="#F1F1F1" stroke-miterlimit="10"/>
<path d="M358.65 385.29C358.65 385.29 362.05 380.17 375.07 380.93C375.07 380.93 395.24 382.58 396.01 398.86L402.97 410.7" stroke="#F1F1F1" stroke-miterlimit="10"/>
<path d="M399.25 404.39H412.34C412.34 404.39 415.91 404.71 415.91 408.52L414.66 461.41" stroke="#F1F1F1" stroke-miterlimit="10"/>
<path d="M401.56 408.33L407.58 408.57" stroke="#F1F1F1" stroke-miterlimit="10"/>
<path d="M359.7 434.03L358.65 486.59" stroke="#F1F1F1" stroke-miterlimit="10"/>
<path d="M257.76 394.12L254.26 395.43L237.7 401.48L236.17 402.9" stroke="#F1F1F1" stroke-miterlimit="10"/>
<path d="M241.69 403.6L254.72 398.07" stroke="#F1F1F1" stroke-miterlimit="10"/>
<path d="M228.67 372.37L232.85 317.62C242.26 325.82 252.46 316.46 250.09 316.62C249.9 316.63 250.44 316.57 250.42 316.75L246.96 369.45L228.66 372.37L181.53 366.89V314.8L189.7 303.31L241.69 304.33" stroke="#F1F1F1" stroke-miterlimit="10"/>
<path d="M181.53 314.81L232.85 317.62L241.69 304.34L250.47 316.09" stroke="#F1F1F1" stroke-miterlimit="10"/>
<path d="M201.19 303.32C201.19 303.32 202.95 291.58 215.98 292.34C215.98 292.34 228.99 291.06 229.9 303.32" stroke="#F1F1F1" stroke-miterlimit="10"/>
<path d="M189.7 303.32C189.7 303.32 189.7 287.23 213.96 283.92C213.96 283.92 240.32 283.92 241.69 304.35" stroke="#F1F1F1" stroke-miterlimit="10"/>
<path d="M181.53 366.89L177.76 369.19L227.31 373.79L257.76 370.34L259.54 368.67C260.69 367.59 261.1 365.94 260.58 364.45C260.45 364.08 260.11 363.83 259.72 363.83H247.34" stroke="#F1F1F1" stroke-miterlimit="10"/>
<path d="M247.28 366.13H261.04" stroke="#F1F1F1" stroke-miterlimit="10"/>
<path d="M177.76 369.19V373.79L225.7 378.61L257.76 373.79L259.54 368.67" stroke="#F1F1F1" stroke-miterlimit="10"/>
<path d="M177.43 376.6C177.43 376.6 173.67 383.9 172.47 389.59C172.39 389.96 169.54 396.7 178.97 398.07L188.77 398.87" stroke="#F1F1F1" stroke-miterlimit="10"/>
<path d="M207.33 400.6L219.83 401.48L224.17 380.86L257.76 375.56L263.6 386.55C263.6 386.55 267.76 371.49 283.63 372C283.63 372 301.79 372 302.56 389.62V396.65" stroke="#F1F1F1" stroke-miterlimit="10"/>
<path d="M178.98 373.79V376.56" stroke="#F1F1F1" stroke-miterlimit="10"/>
<path d="M256.5 373.98V375.76" stroke="#F1F1F1" stroke-miterlimit="10"/>
<path d="M227.31 373.79L225.7 378.61" stroke="#F1F1F1" stroke-miterlimit="10"/>
<path d="M224.51 402.58L241.01 400.27" stroke="#F1F1F1" stroke-miterlimit="10"/>
<path d="M209.16 398.51L217.01 399.21L221.01 382.95L178.98 379.17C178.98 379.17 174.38 390.09 174.64 392.53C174.9 394.24 176.29 395.55 178 395.71L189.49 396.86" stroke="#F1F1F1" stroke-miterlimit="10"/>
<path d="M130.97 430.72V409.82C130.97 409.82 135.83 408.74 144.34 409.82L154.56 409.34L153.19 424.11L151.39 432.6" stroke="#F1F1F1" stroke-miterlimit="10"/>
<path d="M107.73 427.51L106.72 408.52C106.72 408.52 114.82 407.1 118.43 408.08C119.36 408.33 120.31 408.48 121.27 408.43C124.3 408.27 130.24 407.93 131.48 407.74V409.34" stroke="#F1F1F1" stroke-miterlimit="10"/>
<path d="M85.9999 424.1L84.8999 405.6C84.8999 405.6 96.0099 402.64 100.09 404.68C100.09 404.68 104.55 406.38 106.98 405.42C107.29 405.3 107.62 405.51 107.62 405.84V408.38" stroke="#F1F1F1" stroke-miterlimit="10"/>
<path d="M73.4101 422L70.6401 403.96C70.6401 403.96 77.7901 401.53 80.3401 402.89C80.3401 402.89 84.9501 403.62 87.5701 403.01C88.2201 402.86 88.8501 403.32 88.8501 403.99V404.71" stroke="#F1F1F1" stroke-miterlimit="10"/>
<path d="M90.7202 403.96V400.7C90.7202 399.94 91.4102 399.35 92.1602 399.49C94.2202 399.86 98.1202 400.45 101.44 400.26C101.44 400.26 108.42 401.21 111.48 400.26" stroke="#F1F1F1" stroke-miterlimit="10"/>
<path d="M111.49 407.74V401.62C111.49 400.07 112.75 398.81 114.3 398.81C117.59 398.8 122.98 399 126.13 400.28C126.13 400.28 130.62 402.2 133.64 401.71C134.15 401.63 134.59 402.07 134.54 402.58L133.96 409.34" stroke="#F1F1F1" stroke-miterlimit="10"/>
<path d="M154.56 410.84L163.92 409.33C163.92 409.33 166.47 410.16 169.02 410.01C171.57 409.86 174.21 408.54 174.63 410.2C175.31 412.9 171.29 429.32 170.77 428.65" stroke="#F1F1F1" stroke-miterlimit="10"/>
<path d="M134.54 403.96C134.54 403.96 143.49 404.31 152.34 402.89L158.26 403.59" stroke="#F1F1F1" stroke-miterlimit="10"/>
<path d="M157.79 410.21L158.5 400.4C158.53 399.94 158.99 399.64 159.42 399.8C161.47 400.53 166.79 402.31 170.56 402.65C175.33 403.08 180.08 401.58 183.58 402.65C187.08 403.72 186.26 405.61 186.26 405.61" stroke="#F1F1F1" stroke-miterlimit="10"/>
<path d="M186.89 231.32L186.34 308.05" stroke="#F1F1F1" stroke-miterlimit="10"/>
<path d="M178.98 230.03L177.03 376.56L224.17 380.86L224.51 378.71" stroke="#F1F1F1" stroke-miterlimit="10"/>
<path d="M176.29 397.43V402.48" stroke="#F1F1F1" stroke-miterlimit="10"/>
<path d="M179.99 398.07V401.72" stroke="#F1F1F1" stroke-miterlimit="10"/>
<path d="M140.43 99.3998C140.43 99.3998 138.56 97.5298 138.05 98.0398C137.54 98.5498 137.03 101.78 137.03 101.78C137.03 101.78 138.05 106.38 137.03 107.06C136.01 107.74 133.97 109.61 132.43 111.32C130.89 113.03 129.54 115.23 129.03 117.28C128.52 119.33 128.12 123.92 128.32 127.49C128.52 131.06 129.37 134.13 129.37 134.13C129.37 134.13 126.48 134.3 126.31 132.26C126.31 132.26 124.78 130.22 124.95 124.26C125.12 118.3 125.97 112.17 119.67 109.96C119.67 109.96 108.27 108.6 109.12 121.36C109.12 121.36 107.76 128.59 115.08 130.59C115.08 130.59 114.08 122.72 116.45 124.76C116.96 125.2 117.37 125.67 117.71 126.13C118.66 127.44 119.12 129.06 119.11 130.68C119.11 132.03 119.17 134.61 120.07 136.56C120.45 137.38 121.14 138.01 121.96 138.4C125.11 139.93 134.16 142.9 142.99 135.95C143.61 135.46 144.11 134.83 144.41 134.1L144.69 133.43L143.6 133.09C142.77 132.83 142.37 131.92 142.72 131.12C143.65 129.01 144.68 125.22 140.95 123.9L140.61 119.23H144.7C144.7 119.23 146.06 118.79 144.7 116.41L142.15 115.22C142.15 115.22 142.32 110.62 142.66 109.6C143 108.58 146.92 108.41 147.77 106.37C148.62 104.33 151.17 100.24 140.45 99.3898L140.43 99.3998Z" stroke="#F1F1F1" stroke-miterlimit="10"/>
<path d="M247.67 89.4602C247.67 89.4602 249.73 87.4402 250.34 87.9302C250.95 88.4202 251.73 91.6602 251.73 91.6602C251.73 91.6602 250.81 96.3802 252.03 97.0102C253.25 97.6402 255.71 99.4002 257.57 101.03C259.43 102.66 260.07 104.6 260.77 106.63C261.47 108.66 262.2 113.3 262.16 116.94C262.12 120.58 260.04 123.2 260.04 123.2C260.04 123.2 266.13 118.76 264.76 112.86C263.31 106.56 262.69 97.9601 271.16 95.7001C271.16 95.7001 285.06 92.8202 283.65 109.41C283.65 109.41 282.68 116.57 276.12 119.17C276.12 119.17 278.03 112.48 275.86 112.61C274.46 112.69 273.73 114.05 273.05 115.04C272.07 116.46 272.18 119.4 272.28 121.04C272.37 122.41 271.18 124.24 270.24 126.27C269.85 127.12 266.94 129.14 266.03 129.59C262.48 131.34 253.94 135.49 243.36 129.01C242.62 128.56 242.01 127.95 241.62 127.23L241.26 126.57L242.5 126.15C243.44 125.84 243.85 124.88 243.41 124.1C242.22 122.02 240.81 118.24 245.05 116.66L245.18 111.91L240.47 112.17C240.47 112.17 238.87 111.81 240.31 109.31L243.19 107.94C243.19 107.94 246.14 100.98 245.69 99.9602C245.24 98.9402 240.71 99.0202 239.62 97.0102C238.53 95.0002 235.35 91.0202 247.67 89.4702V89.4602Z" stroke="#F1F1F1" stroke-miterlimit="10"/>
<path d="M160.08 96.0202C161.1 95.9202 162.2 96.6002 163.38 98.0602C164.37 99.1902 164.89 100.59 164.92 102.25C164.94 103.05 164.84 103.97 164.63 105C165.88 104.88 167.25 105.52 168.75 106.91C169.74 107.86 170.25 109.01 170.28 110.37C170.32 112.34 170.32 114.68 170.28 117.39C170.25 120.81 170.26 123.6 170.31 125.75C170.35 127.69 170.78 128.62 171.59 128.54C171.96 128.5 172.58 128.31 173.46 127.94L172.89 102.03C172.86 100.83 172.64 99.7002 172.23 98.6302C171.79 97.7802 171.57 97.0902 171.56 96.5702C171.53 95.3402 172.2 94.6602 173.55 94.5302C175.11 94.3802 176.42 94.7102 177.45 95.5402C178.51 96.4202 179.06 97.6502 179.1 99.2202L179.66 124.95C180.69 124.42 181.79 123.83 182.95 123.2C183.18 123.08 183.39 122.97 183.57 122.86L183.25 108.43C183.2 106.03 182.78 104.13 181.99 102.73C181.58 101.91 181.37 101.22 181.36 100.67C181.34 99.6902 182.06 99.1202 183.52 98.9802C184.75 98.8602 185.93 99.3002 187.08 100.3C188.2 101.27 188.78 102.63 188.82 104.38L189.45 133.15C189.49 134.75 188.6 135.63 186.8 135.81C184.79 136 181.68 135.3 177.46 133.71C176.91 133.52 176.42 133.33 176 133.16C173.16 134.55 171.21 135.29 170.17 135.39C168.4 135.56 167.12 135.16 166.34 134.19C165.5 133.01 165.06 131.11 165 128.5L164.65 112.45C164.62 111.16 164.38 109.78 163.93 108.31L163.89 108.18C163.35 109.87 162.66 111.75 161.82 113.83C161.99 114.28 162.13 114.72 162.24 115.17C162.89 117.45 163.31 122.78 163.49 131.18C163.55 133.76 163.34 135.61 162.87 136.74C162.39 137.71 161.83 138.23 161.18 138.29C160.21 138.38 159.39 137.89 158.72 136.82C157.8 135.46 157.32 133.91 157.29 132.15C157.27 131.26 157.42 129.86 157.75 127.95C158.11 125.27 158.27 122.39 158.23 119.31C157.97 119.46 157.73 119.54 157.49 119.57C155.48 119.76 154.45 118.51 154.39 115.8C154.37 114.66 154.57 113.67 154.99 112.83C156.28 110.7 157.4 108.36 158.36 105.8C158.78 104.68 158.98 103.55 158.95 102.42C158.94 101.74 158.82 101.09 158.59 100.47C158.4 99.9702 158.29 99.4202 158.28 98.8402C158.24 97.0902 158.85 96.1502 160.1 96.0302L160.08 96.0202ZM179.09 131.56C181.08 131.86 182.37 131.98 182.94 131.93C183.49 131.88 183.76 131.65 183.75 131.25L183.7 129.08C182 130.04 180.46 130.87 179.09 131.56V131.56Z" stroke="#F1F1F1"/>
<path d="M195.76 114.01C196.57 113.93 197.28 114.05 197.88 114.36H197.92L198.75 114.51C199.01 114.48 199.65 114.24 200.65 113.77C203.03 112.68 204.73 112.08 205.75 111.98C207.31 111.83 208.65 112.41 209.75 113.72C210.77 114.88 211.3 116.63 211.35 118.97L211.5 125.66C211.52 126.4 211.48 127.03 211.39 127.57C211.84 128.05 212.08 128.63 212.09 129.3C212.12 130.9 211.45 131.87 210.08 132.22C206.42 133.22 203.61 133.82 201.65 134.01C199.98 134.17 198.52 133.54 197.26 132.12C196.18 130.78 195.62 129.01 195.58 126.83L195.77 121.08C195.75 120.01 195.43 118.77 194.83 117.38C194.42 116.74 194.22 116.28 194.21 116.01C194.18 114.78 194.7 114.11 195.77 114.01H195.76ZM198.63 94.5101C199.52 94.4201 200.25 94.5501 200.83 94.9001H200.95L201.62 95.0101C202.12 94.9601 203.13 94.6801 204.66 94.1601C210.44 92.0901 214.57 90.9401 217.05 90.7001C220.02 90.4101 222.34 90.7701 224.01 91.7801C225.44 92.8401 226.18 94.1601 226.21 95.7201C226.25 97.3501 225.86 99.3401 225.05 101.7C225.61 102.29 225.9 103.04 225.92 103.93C225.95 105.16 225.19 105.91 223.66 106.18C217.28 107.11 211.78 108.3 207.16 109.77C205.97 110.16 205 110.39 204.27 110.47C202.24 110.67 200.64 110.05 199.49 108.62C198.34 107.25 197.73 105.31 197.68 102.79C197.62 100.12 197.39 98.4401 196.98 97.7701C196.66 97.3701 196.49 97.0301 196.49 96.7501C196.46 95.4001 197.18 94.6501 198.64 94.5101H198.63ZM205.66 127.19C205.66 126.42 205.7 125.54 205.76 124.55C205.8 122.88 205.8 121.02 205.76 118.96C205.74 117.98 205.4 117.52 204.75 117.58C204.44 117.61 203.14 118.21 200.87 119.39L200.44 126.36C200.47 127.71 200.94 128.34 201.85 128.26C202.71 128.18 203.81 127.88 205.16 127.39C205.37 127.31 205.54 127.24 205.67 127.2L205.66 127.19ZM217.94 100.86C218.06 100.3 218.24 99.6601 218.49 98.9601C218.85 97.5701 219.03 96.6601 219.02 96.2301C219.01 95.6501 218.58 95.3901 217.75 95.4801C216.24 95.6301 214.17 96.1501 211.55 97.0501C207.84 98.3301 205.09 99.2001 203.3 99.6501C203.39 100.26 203.46 100.91 203.5 101.62C203.54 103.5 204.19 104.37 205.44 104.25C206.01 104.19 207.12 103.89 208.75 103.33C212.64 102.03 215.71 101.21 217.95 100.87L217.94 100.86ZM214.04 110.76C214.85 110.68 215.58 110.83 216.24 111.19C216.29 111.16 216.33 111.13 216.36 111.13L217.19 111.23C217.48 111.2 218.12 110.92 219.13 110.4C221.64 109.23 223.42 108.6 224.46 108.5C226.05 108.35 227.41 108.92 228.54 110.23C229.53 111.4 230.05 113.16 230.11 115.53L230.27 123.05C230.29 123.94 230.23 124.7 230.08 125.33C230.48 125.78 230.69 126.3 230.7 126.89C230.74 128.52 230.06 129.52 228.69 129.9C224.95 130.85 222.08 131.42 220.1 131.61C218.43 131.77 216.97 131.16 215.71 129.77C214.63 128.42 214.07 126.65 214.02 124.43L214.04 118.14C214.02 117 213.67 115.7 213.01 114.22C212.58 113.55 212.36 113.07 212.35 112.76C212.32 111.53 212.88 110.86 214.03 110.75L214.04 110.76ZM224.38 124.82C224.38 123.9 224.41 122.81 224.47 121.58C224.51 119.76 224.5 117.73 224.45 115.48C224.43 114.53 224.12 114.08 223.52 114.14C223.18 114.17 221.82 114.8 219.44 116.01C219.44 116.07 219.44 116.12 219.44 116.15L219.18 123.94C219.21 125.29 219.75 125.92 220.79 125.82C221.57 125.74 222.61 125.47 223.91 125.01C224.09 124.93 224.25 124.87 224.38 124.83V124.82Z" stroke="#F1F1F1"/>
<path d="M165.72 490.45C166.46 490.55 167.12 491.21 167.72 492.44C168.23 493.41 168.37 494.48 168.12 495.66C168 496.23 167.78 496.86 167.46 497.56C168.36 497.68 169.23 498.36 170.05 499.59C170.59 500.43 170.76 501.32 170.56 502.29C170.27 503.69 169.88 505.34 169.4 507.25C168.81 509.67 168.36 511.64 168.04 513.17C167.75 514.55 167.9 515.27 168.48 515.35C168.74 515.39 169.22 515.35 169.9 515.24L173.78 496.83C173.96 495.98 173.99 495.14 173.87 494.32C173.7 493.65 173.66 493.12 173.74 492.75C173.92 491.88 174.51 491.5 175.49 491.64C176.62 491.79 177.49 492.24 178.08 493C178.69 493.8 178.87 494.75 178.64 495.87L174.79 514.15C175.61 513.95 176.48 513.72 177.41 513.46C177.59 513.42 177.76 513.37 177.9 513.32L180.06 503.07C180.42 501.37 180.43 499.95 180.11 498.83C179.96 498.18 179.92 497.66 180 497.27C180.15 496.57 180.75 496.29 181.8 496.43C182.69 496.55 183.45 497.06 184.1 497.95C184.73 498.82 184.91 499.88 184.65 501.12L180.34 521.56C180.1 522.7 179.33 523.18 178.03 523C176.58 522.8 174.49 521.8 171.78 519.97C171.42 519.74 171.11 519.53 170.84 519.34C168.6 519.85 167.1 520.05 166.35 519.95C165.07 519.78 164.23 519.28 163.84 518.47C163.45 517.5 163.44 516.08 163.84 514.22L166.24 502.82C166.43 501.9 166.49 500.89 166.42 499.78V499.68C165.75 500.78 164.95 502 164.01 503.33C164.05 503.67 164.08 504.01 164.09 504.35C164.17 506.07 163.59 509.91 162.33 515.87C161.94 517.7 161.49 518.98 160.97 519.7C160.47 520.31 159.99 520.58 159.52 520.52C158.82 520.43 158.32 519.94 158.02 519.07C157.6 517.96 157.51 516.78 157.78 515.53C157.91 514.9 158.25 513.93 158.8 512.64C159.5 510.8 160.09 508.79 160.56 506.61C160.35 506.67 160.17 506.69 160 506.67C158.55 506.48 158.03 505.42 158.43 503.5C158.6 502.69 158.9 502.03 159.35 501.5C160.61 500.21 161.79 498.74 162.9 497.09C163.38 496.37 163.71 495.6 163.88 494.8C163.98 494.32 164 493.84 163.95 493.36C163.9 492.97 163.91 492.57 164 492.15C164.26 490.91 164.85 490.34 165.75 490.46L165.72 490.45ZM173.28 518.71C174.64 519.25 175.53 519.55 175.94 519.61C176.34 519.66 176.56 519.55 176.62 519.26L176.95 517.72C175.59 518.12 174.36 518.45 173.28 518.71V518.71Z" stroke="#F1F1F1"/>
<path d="M187.97 509.06C188.55 509.14 189.04 509.34 189.41 509.66H189.44L190 509.91C190.19 509.94 190.68 509.87 191.47 509.7C193.33 509.32 194.63 509.18 195.37 509.28C196.5 509.43 197.35 510.06 197.91 511.17C198.44 512.16 198.53 513.49 198.18 515.15L197.18 519.9C197.07 520.42 196.94 520.87 196.78 521.23C197.02 521.64 197.09 522.09 196.99 522.57C196.75 523.7 196.12 524.28 195.08 524.3C192.33 524.4 190.24 524.36 188.83 524.17C187.62 524.01 186.69 523.32 186.04 522.11C185.5 520.98 185.4 519.64 185.72 518.09L186.8 514.06C186.96 513.3 186.94 512.37 186.74 511.29C186.56 510.77 186.49 510.41 186.53 510.22C186.71 509.35 187.19 508.96 187.97 509.07V509.06ZM192.79 520.01C192.92 519.47 193.09 518.85 193.3 518.16C193.6 516.99 193.91 515.67 194.22 514.21C194.37 513.51 194.21 513.13 193.73 513.07C193.5 513.04 192.49 513.25 190.69 513.71L189.23 518.57C189.03 519.53 189.26 520.06 189.92 520.14C190.54 520.22 191.37 520.2 192.41 520.07C192.57 520.05 192.7 520.03 192.8 520.02L192.79 520.01ZM193.22 495.75C193.86 495.84 194.36 496.05 194.71 496.39H194.79L195.24 496.6C195.6 496.65 196.36 496.62 197.53 496.5C201.96 495.99 205.07 495.86 206.86 496.1C209.01 496.39 210.59 497.02 211.6 498.01C212.44 499 212.74 500.05 212.51 501.16C212.27 502.32 211.66 503.66 210.7 505.2C211 505.71 211.08 506.28 210.95 506.92C210.77 507.79 210.11 508.2 208.98 508.14C204.31 507.74 200.23 507.68 196.72 507.95C195.81 508.03 195.09 508.04 194.57 507.97C193.1 507.77 192.07 507.08 191.49 505.87C190.9 504.71 190.79 503.24 191.17 501.45C191.57 499.55 191.68 498.33 191.51 497.79C191.35 497.45 191.29 497.19 191.33 496.99C191.53 496.03 192.16 495.62 193.22 495.76V495.75ZM205.82 503.43C206 503.05 206.23 502.63 206.52 502.18C207.01 501.26 207.28 500.64 207.35 500.34C207.44 499.93 207.18 499.68 206.58 499.6C205.49 499.45 203.94 499.48 201.94 499.69C199.11 499.98 197.02 500.14 195.68 500.16C195.65 500.6 195.58 501.08 195.5 501.58C195.22 502.91 195.53 503.64 196.44 503.76C196.85 503.81 197.69 503.78 198.93 503.65C201.89 503.37 204.2 503.3 205.84 503.43H205.82ZM201.43 509.78C202.01 509.86 202.51 510.08 202.92 510.45C202.96 510.43 202.99 510.43 203.01 510.43L203.58 510.64C203.79 510.67 204.29 510.58 205.09 510.37C207.06 509.96 208.42 509.81 209.17 509.91C210.32 510.06 211.18 510.7 211.76 511.81C212.27 512.8 212.35 514.13 211.99 515.82L210.87 521.16C210.74 521.79 210.57 522.32 210.36 522.74C210.57 523.13 210.63 523.53 210.54 523.94C210.3 525.1 209.66 525.7 208.62 525.74C205.82 525.79 203.7 525.72 202.27 525.53C201.06 525.37 200.13 524.69 199.47 523.51C198.93 522.38 198.83 521.03 199.16 519.46L200.21 515.02C200.38 514.21 200.35 513.23 200.13 512.08C199.93 511.54 199.86 511.16 199.91 510.94C200.09 510.07 200.6 509.69 201.43 509.8V509.78ZM206.42 521.43C206.58 520.78 206.78 520.02 207.02 519.15C207.35 517.87 207.68 516.43 208.02 514.84C208.16 514.16 208.02 513.8 207.58 513.74C207.33 513.71 206.27 513.92 204.39 514.39C204.39 514.43 204.37 514.47 204.37 514.49L202.9 519.95C202.7 520.91 202.97 521.44 203.73 521.54C204.29 521.62 205.07 521.6 206.07 521.48C206.21 521.45 206.33 521.44 206.43 521.43H206.42Z" stroke="#F1F1F1"/>
<path d="M151.15 140.17L233.87 135.83" stroke="#F1F1F1"/>
<path d="M158.81 150.13L170.55 147.83" stroke="#F1F1F1"/>
<path d="M167.23 143.23V151.66L164.68 152.94" stroke="#F1F1F1"/>
<path d="M161.36 145.02C161.36 145.02 160.85 155.49 162.89 157.28H167.23" stroke="#F1F1F1"/>
<path d="M180.51 141.45L177.13 150.17L174.38 157.28C174.38 157.28 178.98 146.56 181.53 151.15C181.53 151.15 179.49 157.79 181.53 157.28C183.57 156.77 186.89 154.22 186.89 154.22" stroke="#F1F1F1"/>
<path d="M195.06 145.02L199.4 143.23C199.4 143.23 191.23 154.97 199.4 154.97C199.4 154.97 205.87 152.79 204.65 145.04C204.56 144.47 204.43 143.86 204.25 143.23L207.19 149.37" stroke="#F1F1F1"/>
<path d="M217.28 140.37L211.41 154.98C211.41 154.98 216.01 145.53 218.56 148.98V154.98C218.56 154.98 219.75 158.81 224.52 152.94" stroke="#F1F1F1"/>
<path d="M99.1601 535.05C99.8101 535.25 100.32 535.69 100.69 536.36C101.25 537.49 101.49 538.64 101.43 539.82C101.4 540.27 101.34 540.79 101.23 541.39C101.46 541.04 101.67 540.72 101.86 540.45C103.1 538.73 104.03 537.89 104.65 537.93C106.51 538.04 107.38 539.19 107.26 541.37C107.19 542.5 106.92 543.28 106.45 543.7C106.08 544.13 105.58 544.36 104.95 544.41C103.99 544.8 102.81 545.44 101.41 546.34C101 546.92 100.64 547.37 100.35 547.68L100.32 548.23C100.26 548.67 100.22 549.1 100.2 549.5C101.12 549.11 101.76 548.86 102.11 548.76C104.37 549.17 105.44 550.44 105.32 552.54C105.24 553.88 104.86 554.83 104.17 555.4C103.46 556.29 102.37 556.88 100.9 557.16C100.5 557.46 100.02 557.72 99.4501 557.93C99.3801 558.62 99.3201 559.3 99.2801 559.99C99.4901 559.92 99.7201 559.89 99.9601 559.91C102.01 560.39 103.35 561.12 103.99 562.09C104.13 561.49 104.27 560.85 104.41 560.16C105.24 556.55 105.89 553.48 106.34 550.95C106.79 549.23 107.15 547.08 107.44 544.49C107.6 542.39 108.07 541.36 108.87 541.4C109.35 541.43 109.79 541.57 110.19 541.84C110.33 541.81 110.44 541.77 110.51 541.74C112.42 541.65 114.27 541.45 116.05 541.15C115.96 540.82 115.84 540.53 115.68 540.28C115.04 539.35 114.73 538.74 114.75 538.46C114.83 537.61 115.08 536.94 115.49 536.43C115.83 536 116.37 535.81 117.13 535.86C118.44 535.94 119.83 536.44 121.3 537.38C122.29 538.29 122.88 539.14 123.07 539.92C123.98 539.81 124.72 539.73 125.32 539.68C126.25 539.77 127.14 540.01 127.98 540.38C128.64 540.87 128.96 541.43 128.92 542.08C128.82 543.78 128 544.77 126.46 545.05C124.71 545.44 123.1 545.69 121.64 545.81C121.08 545.86 120.56 545.91 120.07 545.96C120.14 546.45 120.17 546.96 120.14 547.49C120.1 548.1 120.09 548.66 120.09 549.19C120.79 549.07 121.45 548.98 122.08 548.94C122.83 548.01 123.35 547.55 123.67 547.57C124.25 547.64 125.16 548.19 126.38 549.19C127.35 550.38 127.79 551.81 127.69 553.47C127.65 554.08 127.6 554.64 127.54 555.17C127.85 555.15 128.1 555.14 128.27 555.15C129.24 555.21 130.16 555.77 131.03 556.83C131.64 557.6 131.91 558.59 131.84 559.8C131.74 561.54 130.65 562.35 128.58 562.23C127.75 562.18 126.91 562.03 126.06 561.78C125.97 562.18 125.86 562.56 125.73 562.92C126.78 563.39 127.26 564.27 127.19 565.56C127.08 567.38 125.96 568.6 123.81 569.2C122.3 569.48 120.54 569.76 118.52 570.05C118.39 570.45 118.22 570.8 117.99 571.12C119.5 570.76 120.7 570.61 121.6 570.66C122.7 570.76 123.99 571.27 125.46 572.16C127.01 573.51 127.75 574.77 127.68 575.94C127.42 578 126.42 579.85 124.66 581.49C125.29 582.54 125.59 583.45 125.54 584.22C125.42 586.24 124.55 587.21 122.93 587.12C122.69 587.11 122.15 586.91 121.3 586.54C120.89 586.48 120.54 586.44 120.27 586.42C119.61 586.42 118.38 586.49 116.57 586.63C115.18 586.79 113.96 586.92 112.91 587.03C112.58 587.38 112.24 587.54 111.89 587.52C110.72 587.45 109.47 585.41 108.14 581.39C107.41 579.11 107.06 577.26 107.11 575.84C107.24 574.83 107.49 573.79 107.86 572.72C108.43 571.78 108.94 571.32 109.39 571.35C110.53 571.46 111.38 571.95 111.95 572.84C112.76 572.68 113.58 572.49 114.43 572.25C114.25 571.75 114.14 571.2 114.11 570.59C113.24 570.66 112.56 570.68 112.08 570.66C109.94 570.54 108.9 569.89 108.97 568.71C109.07 567.62 109.88 566.49 111.4 565.32C112.06 565.2 112.99 565.03 114.18 564.81L114.29 562.93C112.32 563.51 110.92 564.04 110.1 564.52C109.2 564.47 108.56 564.27 108.16 563.92C107.45 566.56 106.75 569.16 106.05 571.72C105.14 574.96 104.17 577.81 103.17 580.27C101.8 582.42 100.73 584.15 99.9601 585.45C99.8201 585.45 99.7101 585.21 99.6401 584.76C99.5201 584.51 99.4801 583.9 99.5401 582.93C99.9801 580.19 100.85 575.75 102.18 569.61C102.36 568.89 102.52 568.15 102.67 567.38C102.35 567.48 102.04 567.53 101.73 567.51C100.52 567.44 99.5401 567.08 98.7801 566.43L97.9801 580.28C97.8301 582.34 97.3801 584 96.6501 585.26C95.6401 586.58 94.8801 587.39 94.3801 587.69C93.5901 587.56 93.1201 586.95 92.9801 585.84C92.8101 585.18 92.7101 584 92.6701 582.29C92.9301 577.19 93.2101 571.96 93.5201 566.62C92.7901 567.84 92.0301 568.95 91.2501 569.96C90.5201 571.14 89.8101 572.07 89.1101 572.76C88.4801 573.45 87.9801 573.97 87.6201 574.32C86.4501 575.43 85.5501 575.97 84.9301 575.93C84.8601 575.84 84.8501 575.46 84.8901 574.77C85.0301 574.13 85.3101 573.27 85.7101 572.2C86.1201 571.05 86.5301 569.99 86.9301 569.04C87.5201 567.77 88.1401 566.45 88.7701 565.06C89.6601 563.4 90.4901 561.93 91.2601 560.63C90.7701 560.76 90.3801 560.82 90.1101 560.81C89.1101 560.75 88.2701 560.28 87.6001 559.38C86.7301 558.19 86.3301 557.01 86.4001 555.84C86.5301 554.18 87.4001 553.22 89.0101 552.94C90.3301 552.77 91.4901 552.56 92.4801 552.29C93.1401 552.17 93.8101 551.96 94.4901 551.68L95.1701 539.96C95.2601 538.34 95.6501 537.06 96.3301 536.13C97.2101 535.37 98.1401 535.02 99.1401 535.07L99.1601 535.05ZM92.1901 538.91C92.7801 538.94 93.2201 539.36 93.5201 540.15C93.9301 541.35 94.1001 542.62 94.0301 543.96C93.9201 545.9 93.7501 547.24 93.5401 547.95C93.3501 548.87 93.0401 549.32 92.6301 549.3C91.9101 549.26 91.0701 548.11 90.1301 545.86C89.3401 543.95 88.9401 542.72 88.9401 542.2C89.1101 539.89 90.1901 538.8 92.1901 538.91V538.91ZM114.96 550.16L114.98 549.86C115.01 549.37 114.95 548.84 114.81 548.27C114.7 547.78 114.63 547.41 114.61 547.16C114.29 547.22 114.03 547.29 113.82 547.36C113.07 547.8 112.41 548.07 111.85 548.16C111.62 549.08 111.33 550.24 110.97 551.64C110.47 554.21 110.02 556.34 109.61 558.02C110.07 557.84 110.53 557.69 110.99 557.55C111.59 557.38 112.81 557.15 114.67 556.85V556.79H114.62C112.55 556.67 111.33 555.3 110.96 552.68C111.01 551.87 111.32 551.26 111.9 550.84C112.61 550.52 113.42 550.34 114.32 550.31C114.57 550.24 114.78 550.19 114.95 550.16H114.96ZM113.85 580.99C115.86 580.94 117.18 580.57 117.81 579.88C118.99 579.14 119.81 577.92 120.25 576.24C119.24 576.99 117.96 577.51 116.42 577.79C115.43 578.1 114.51 578.51 113.65 579.03C113.72 579.64 113.78 580.3 113.85 580.99ZM119.52 562C119.48 562.69 119.46 563.34 119.46 563.95C119.78 563.85 120.04 563.74 120.26 563.63C120.47 563.03 120.66 562.41 120.83 561.77C120.38 561.83 119.94 561.9 119.52 562V562ZM122.07 555.69C122.14 555.04 122.19 554.5 122.22 554.05C122.27 553.24 122.19 552.83 121.98 552.82C121.28 553.47 120.59 554.02 119.91 554.47L119.82 555.99C120.59 555.91 121.34 555.81 122.07 555.69V555.69Z" stroke="#F1F1F1"/>
<path d="M147.5 584.01C145.87 586.58 143.68 589 140.92 591.3C139.37 593 137.08 594.35 134.06 595.36C134.2 594.63 135.11 592.88 136.79 590.1C138.95 587.41 140.73 584.77 142.14 582.19C143.68 579.75 144.85 576.45 145.65 572.29C146.63 567.75 147.42 561.87 148.04 554.65C148.29 552.14 148.73 550.26 149.35 549.01C150.35 547.31 151.11 546.48 151.62 546.52C152.39 546.63 153.22 547.4 154.1 548.82C154.92 550.11 155.25 551.71 155.09 553.61C155.02 554.43 154.93 555.23 154.83 556.01C155.77 555 156.5 554.52 157.01 554.56C158.82 554.71 159.63 555.89 159.44 558.1C159.33 559.4 158.99 560.31 158.43 560.82C158.02 561.31 157.44 561.59 156.69 561.65C155.81 561.97 154.8 562.47 153.67 563.16C153.26 565.31 152.82 567.49 152.33 569.71C151.82 573.11 151.15 575.95 150.33 578.23C151.51 578.81 152.43 579.54 153.1 580.43C153.82 581.54 154.12 582.8 154 584.23C153.76 587.04 152.76 588.37 150.99 588.22C150.25 588.16 149.62 587.67 149.11 586.75C148.51 585.48 147.98 584.56 147.5 584V584.01ZM143.69 556.63C145.13 556.75 145.71 559.29 145.44 564.23L145.08 568.51C144.68 571.88 143.91 573.51 142.77 573.41C141.07 573.27 139.98 571.08 139.48 566.86C139.35 564.45 139.32 562.84 139.39 562.01C139.54 560.72 140.04 559.34 140.91 557.89C141.92 556.97 142.84 556.55 143.69 556.62V556.63ZM177.34 570.4C179.53 570.8 180.52 572.26 180.31 574.77C180.19 576.2 179 578.19 176.74 580.74C173.98 583.99 170.57 587.39 166.52 590.92C161.65 595.39 157.5 598.72 154.09 600.91C153.65 601.27 152.95 601.64 151.99 602.04C150.96 602.39 150.28 602.55 149.94 602.52C149.61 602.49 149.46 602.3 149.49 601.96C149.55 601.7 150.61 600.31 152.69 597.79C156.37 593.31 159.52 589.7 162.13 586.96C164.25 584.7 166.66 582.14 169.35 579.27C172.41 576.04 174.15 573.95 174.56 572.98C174.93 572.53 175.28 571.91 175.61 571.11C175.97 570.75 176.55 570.51 177.34 570.41V570.4ZM159.68 560.54C160.56 560.66 161.26 561.13 161.79 561.96C162.82 562.05 163.79 561.76 164.7 561.1C164.99 561.17 165.13 561.31 165.11 561.53C163.79 563.12 162.91 564.66 162.49 566.15L162.19 569.72C162.06 570.84 161.03 571.32 159.12 571.16C157.21 570.96 156.38 569.36 156.63 566.37C156.76 565.21 157.07 563.97 157.56 562.66C158.5 561.21 159.21 560.51 159.69 560.55L159.68 560.54ZM168.23 545.12C170.44 545.31 171.95 546.15 172.75 547.66C173.19 548.57 173.42 550.51 173.43 553.47C173.41 558.92 173.29 563 173.06 565.73C172.79 568.98 172.32 571.59 171.67 573.59C171.32 575.48 170.45 576.82 169.05 577.62C168.66 577.85 168.17 578.11 167.59 578.41C167 578.75 166.34 579.18 165.59 579.68C164.94 580.37 164.28 580.86 163.63 581.15C163.04 581.49 162.47 581.64 161.92 581.59C160.84 581.24 160.34 580.13 160.42 578.26C160.39 577.3 160.16 576.47 159.74 575.78C159.32 575 159.08 574.35 159.01 573.82C159.09 573.3 159.26 573.06 159.52 573.08L162.12 573.3C163.78 573.44 164.77 572.24 165.1 569.7C165.7 567.05 166.31 561.98 166.95 554.49C167.1 552.67 167.13 551.22 167.04 550.12C166.75 548.26 166.62 547.17 166.65 546.82C166.89 545.71 167.42 545.14 168.24 545.12H168.23ZM177.34 559.23C179.04 559.37 180.79 560.18 182.6 561.64C184.19 563.43 184.92 565.19 184.77 566.92C184.67 568.13 184.27 569.04 183.59 569.63C182.72 570.69 181.86 571.18 181.01 571.11C180.53 571.07 179.93 570.74 179.2 570.11C178.54 569.53 178.11 568.77 177.89 567.84C177.72 566.74 177.3 565.79 176.63 564.99C175.27 563.52 174.61 562.57 174.64 562.14C174.76 561.15 175.09 560.39 175.61 559.87C175.91 559.37 176.49 559.16 177.34 559.23V559.23Z" stroke="#F1F1F1"/>
<path d="M200.56 569.98C201.47 570.04 202.19 570.23 202.72 570.55C204.84 569.69 206.7 569.01 208.31 568.5L208.37 567.3C208.42 567.08 208.47 566.86 208.53 566.63C207.44 566.88 206.37 567 205.33 566.98C203.71 566.95 202.49 566.4 201.67 565.31C200.72 564.31 200.28 563.17 200.34 561.87C200.47 559.95 201.8 558.68 204.33 558.05C205.97 557.76 208.06 557.48 210.61 557.21C212.99 557.03 215.73 556.55 218.85 555.8C222.41 555.19 224.8 554.82 226.01 554.71C229.56 555.17 231.29 556.49 231.18 558.68C231.08 560.87 229.93 562.17 227.75 562.58C226.24 562.82 224.88 563.05 223.66 563.25C223.8 563.79 223.85 564.41 223.82 565.13C223.8 565.62 223.73 566.13 223.62 566.67C224.65 566.87 225.67 567.15 226.7 567.52C227.86 566.69 228.74 566.24 229.32 566.16C232.33 566.61 233.76 568.46 233.61 571.72C233.47 574.71 232.74 577.31 231.43 579.52C230.74 580.85 229.86 581.93 228.78 582.76C227.83 583.46 226.84 583.8 225.8 583.78C225.05 583.77 224.46 583.56 224.02 583.15C223.42 583.59 222.72 583.89 221.92 584.05C220.94 584.48 219.59 584.93 217.86 585.39C218.02 585.53 218.16 585.66 218.28 585.8C218.63 586.21 218.91 586.93 219.11 587.96C220.62 587.76 222.08 587.56 223.5 587.36C226.04 587.18 228.3 586.83 230.28 586.33C231.41 586.17 232.31 586.09 232.97 586.1C234.5 586.17 235.95 586.93 237.29 588.38C238.28 589.38 238.73 590.77 238.65 592.55C238.53 595 236.83 596.21 233.55 596.15C232.26 596.13 230.9 595.97 229.46 595.68C228.31 595.44 227.11 595.26 225.87 595.15C223.82 595.47 221.77 595.78 219.72 596.06C219.77 597.62 219.77 598.9 219.72 599.88C219.56 603.27 219.18 606.03 218.58 608.17C218.28 610.17 217.35 611.66 215.81 612.61C215.38 612.83 214.87 613.11 214.27 613.46C213.71 613.85 213.04 614.33 212.27 614.9C211.61 615.69 210.96 616.26 210.32 616.61C209.68 617 209.09 617.19 208.55 617.18C207.27 616.89 206.64 615.76 206.65 613.8C206.57 612.9 206.3 612.1 205.83 611.38C205.37 610.66 205.08 610.03 204.99 609.49C205.1 608.95 205.28 608.67 205.53 608.63C206.49 608.55 207.26 608.52 207.84 608.53C209.71 608.56 210.77 607.24 211.02 604.56C211.34 603.05 211.62 600.62 211.87 597.27C209.9 597.6 207.95 597.97 206.02 598.38C201.19 599.46 197.79 600.5 195.83 601.5C193.96 601.47 192.72 600.91 192.1 599.83C191.29 598.48 190.91 597.38 190.95 596.53C191.17 594.48 193.2 592.95 197.03 591.94C198.88 591.48 203.87 590.49 212.01 588.96C212.01 588.83 212 588.69 211.97 588.56C211.76 587.75 211.62 587.13 211.56 586.68C211.01 586.81 210.51 586.93 210.05 587.06C208.62 587.44 207.57 587.62 206.91 587.61C206.41 587.61 205.96 587.51 205.55 587.32C205.29 588.43 204.68 588.98 203.72 588.96C201.81 588.93 199.92 587.07 198.06 583.38C196.89 580.9 196.35 578.73 196.44 576.86C196.57 575.03 196.96 573.39 197.61 571.92C198.79 570.6 199.78 569.95 200.57 569.96L200.56 569.98ZM198.58 600.96C199.62 601.02 200.45 601.48 201.07 602.34C202.44 602.36 203.7 601.71 204.84 600.39C205.21 600.44 205.39 600.58 205.38 600.8C203.38 602.73 202.1 604.61 201.56 606.43L201.36 610.58C201.26 611.83 200.09 612.43 197.84 612.4C195.97 612.33 195.12 610.64 195.28 607.34C195.38 606.14 195.67 604.8 196.16 603.34C197.19 601.75 198 600.96 198.58 600.97V600.96ZM204.7 581.23C205.04 581.1 205.4 580.97 205.78 580.85C207.2 580.69 208.46 580.51 209.55 580.31C208.55 579.53 208.05 577.81 208.05 575.13C207.5 575.39 206.99 575.6 206.52 575.77C205.63 576.16 204.86 576.61 204.21 577.14C204.35 578.53 204.52 579.89 204.7 581.23V581.23ZM212.86 573.52C212.89 573.7 212.9 573.88 212.9 574.06C213.04 575.53 213.09 576.54 213.07 577.08C213.01 578.37 212.78 579.31 212.38 579.88C213.09 579.71 213.79 579.55 214.46 579.38C214.6 578.27 215.05 576.98 215.83 575.52C216.34 574.32 216.7 573.32 216.91 572.52C215.56 572.86 214.26 573.17 213 573.46C212.96 573.46 212.92 573.48 212.87 573.52H212.86ZM218.16 564.36C216.44 564.73 214.78 565.11 213.18 565.49C213.29 565.85 213.33 566.21 213.32 566.56L213.29 567.09C215.1 566.67 216.67 566.43 218 566.36L218.06 565.02C218.07 564.75 218.1 564.53 218.15 564.35L218.16 564.36ZM222.18 571.52C221.99 571.92 221.83 572.34 221.68 572.78C221.04 574.87 220.31 576.6 219.5 577.97C221.27 577.46 222.39 577.14 222.85 577.02C223.22 577.07 223.51 577.14 223.71 577.24C224.02 576.8 224.32 576.18 224.61 575.38C225.38 573.96 225.82 572.16 225.93 569.98C224.52 570.67 223.27 571.19 222.18 571.53V571.52ZM226.23 597.84C227.81 597.87 229.45 598.81 231.15 600.66C232.74 602.96 233.48 605.34 233.37 607.8C233.32 608.91 232.94 609.84 232.24 610.59C231.32 611.6 230.4 612.1 229.49 612.09C228.99 612.09 228.34 611.83 227.53 611.32C226.81 610.77 226.3 610.03 226.02 609.09C225.89 607.39 225.61 605.94 225.17 604.72C224.32 602.56 223.91 601.08 223.95 600.28C224.03 599.52 224.26 598.92 224.66 598.48C224.97 598.04 225.5 597.82 226.25 597.84H226.23Z" stroke="#F1F1F1"/>
<path d="M268.75 586.43C269.65 586.43 270.56 586.72 271.48 587.28C271.78 586.15 272.23 584.77 272.84 583.15C273.81 580.88 274.3 579.53 274.31 579.08C274.34 578.23 274.14 577.8 273.73 577.8C273.2 577.84 271.83 578.75 269.6 580.53C268.55 581.83 267.64 582.92 266.86 583.81C266.13 584.54 265.54 584.9 265.09 584.9C261.98 584.9 260.01 583.19 259.18 579.79C259.27 578.13 260.53 576.57 262.97 575.11C265.13 574.18 269.13 573.72 274.98 573.72C276.69 573.07 277.82 572.75 278.38 572.75C279.76 572.75 281.49 573.85 283.56 576.04C284.8 577.3 285.39 578.76 285.34 580.42C285.29 582 284.34 583.05 282.49 583.58C281.02 583.98 279.49 584.98 277.91 586.55C276.56 587.85 275.17 588.74 273.73 589.22C273.69 589.26 273.67 589.26 273.67 589.22C274.21 589.91 274.66 590.58 275.01 591.23C275.18 591.68 275.34 592.12 275.47 592.57C276.33 592.49 277.16 592.39 277.95 592.27C280.09 592.15 282.01 591.93 283.7 591.61C285.02 591.41 286.03 591.31 286.74 591.31C288.42 591.35 290.03 592.14 291.56 593.68C292.61 594.82 293.11 596.36 293.05 598.3C292.97 601.01 291.15 602.37 287.59 602.37C286.17 602.37 284.66 602.18 283.06 601.82C281.79 601.62 280.47 601.47 279.08 601.39C278.4 601.47 277.73 601.57 277.05 601.69C277.11 603.39 277.11 605.42 277.04 607.77C276.9 612.27 276.27 616.02 275.13 619.01C273.74 622.86 272.17 624.78 270.41 624.78C269.64 625.35 268.94 625.81 268.29 626.18C267.67 626.79 266.97 627.19 266.18 627.39C265.46 627.75 264.76 627.96 264.08 628C262.32 628 261.26 627.05 260.91 625.14C260.91 624.13 260.47 623.13 259.6 622.16C258.21 621.15 257.52 620.46 257.53 620.09C257.58 619.81 257.64 619.56 257.72 619.36C259.25 619.4 260.81 619.42 262.38 619.42C266.76 619.42 269.1 614.46 269.4 604.53L269.45 602.83C267.12 603.19 264.8 603.6 262.5 604.04C258.43 604.97 255.57 605.8 253.94 606.53C251.84 606.53 250.38 605.94 249.56 604.76C248.67 603.18 248.24 601.9 248.27 600.93C248.45 598.54 250.76 596.74 255.17 595.53C256.79 595.17 261.18 594.44 268.32 593.35V593.29C267.95 592.03 267.51 590.98 267.01 590.13C266.62 589.56 266.43 588.97 266.45 588.37C266.64 587.07 267.41 586.43 268.75 586.43V586.43Z" stroke="#F1F1F1"/>
<path d="M153.53 521.87L216.68 533.45" stroke="#F1F1F1"/>
<path d="M160.81 530.98L169.19 530.47" stroke="#F1F1F1"/>
<path d="M167.31 526.96L166.53 532.83L164.63 533.48" stroke="#F1F1F1"/>
<path d="M163.06 527.66C163.06 527.66 161.73 534.9 162.98 536.33L166 536.73" stroke="#F1F1F1"/>
<path d="M176.85 529.41L174.71 534.94L172.97 539.44C172.97 539.44 175.88 532.65 177.5 535.56C177.5 535.56 176.21 539.77 177.5 539.44C178.79 539.11 180.9 537.5 180.9 537.5" stroke="#F1F1F1"/>
<path d="M188.01 537.37L191.16 535.68C191.16 535.68 186.17 543.83 192.48 542.64C192.48 542.64 197.23 540.41 195.42 535.99C195.29 535.66 195.12 535.33 194.91 534.98L197.86 538.19" stroke="#F1F1F1"/>
<path d="M205.28 534.44L201.67 544.35C201.67 544.35 204.5 537.94 206.07 540.28V544.35C206.07 544.35 206.8 546.95 209.73 542.96" stroke="#F1F1F1"/>
<path d="M143.23 490.85C143.23 490.85 142.59 485.49 143.23 485.49C143.87 485.49 146.17 487.92 146.17 487.92C146.17 487.92 151.02 488.94 151.02 490.86C151.02 490.86 151.15 494.05 147.83 495.58C147.83 495.58 145.76 498.52 146.99 500.3C146.99 500.3 150.88 502.6 149.48 504.9C149.48 504.9 146.76 505.03 145.51 504.26C144.26 503.49 146.17 507.07 146.17 507.07C146.17 507.07 148.7 506.56 146.99 512.3C146.99 512.3 150.75 513.7 149.48 514.72C148.21 515.74 134.94 524.68 128.55 508.85C128.55 508.85 127.66 499.13 126 501.82C126 501.82 124.21 504.51 125.11 506.3C125.11 506.3 117.68 499.92 122.22 492C122.22 492 127.79 484.6 133.02 495.7C133.02 495.7 132.64 509.23 135.19 511.15C135.19 511.15 134.28 499.15 135.88 496.34C137.48 493.53 143.23 490.85 143.23 490.85V490.85Z" stroke="#F1F1F1"/>
<path d="M252.75 513.96C249.88 511.58 245.19 509.56 241.8 517.4C241.8 517.4 241.11 526.08 238.56 528.16C238.56 528.16 239.47 515.11 237.87 512.05C236.27 508.99 230.52 506.08 230.52 506.08C230.52 506.08 231.16 500.25 230.52 500.25C229.88 500.25 227.58 502.89 227.58 502.89C227.58 502.89 222.73 502.3 222.73 504.38C222.73 504.38 222.63 508.08 225.94 509.74C225.94 509.74 228.37 512.77 227.15 514.72C227.15 514.72 222.78 515.66 224.18 518.15C224.18 518.15 227.43 520.53 228.68 519.7C229.93 518.87 227.72 522.81 227.72 522.81C227.72 522.81 225.06 523.16 226.77 529.41C226.77 529.41 223.68 529.86 224.95 530.97C226.22 532.08 243.47 545.95 249.86 528.74C249.86 528.74 249.9 525.39 250.51 523.1C250.86 521.79 252.71 521.75 253.07 523.05C253.68 525.23 254.22 528.61 252.21 529.91C252.21 529.91 258.98 529.98 255.72 518.57C255.21 516.78 254.2 515.14 252.77 513.96H252.75Z" stroke="#F1F1F1"/>
</svg>
