<svg width="297" height="360" viewBox="0 0 297 360" fill="none" xmlns="http://www.w3.org/2000/svg">
<path d="M102.64 28.09L101.11 43.4L59.74 45.96" stroke="#F1F1F1" stroke-miterlimit="10"/>
<path d="M75.0601 69.45C75.0601 69.45 105.7 99.07 115.4 102.64C115.4 102.64 121.02 104.68 124.08 95.49C124.08 95.49 100.59 73.53 101.1 43.4" stroke="#F1F1F1" stroke-miterlimit="10"/>
<path d="M102.26 31.9L164.43 60.76L120.77 83.23C120.77 83.23 120.26 85.53 121.79 85.78L168.51 63.06V58.84L113.87 33.44" stroke="#F1F1F1" stroke-miterlimit="10"/>
<path d="M159.14 58.3099L129.96 55.6599C129.96 55.6599 127.66 53.8699 129.96 51.5699L151.89 54.9399" stroke="#F1F1F1" stroke-miterlimit="10"/>
<path d="M131.58 51.57V45.51" stroke="#F1F1F1" stroke-miterlimit="10"/>
<path d="M131.58 55.8101C131.58 55.8101 125.75 66.6401 127.22 79.9201" stroke="#F1F1F1" stroke-miterlimit="10"/>
<path d="M126.98 83.26V91.4L124.09 95.49" stroke="#F1F1F1" stroke-miterlimit="10"/>
<path d="M95.7501 88.33C95.7501 88.33 90.3801 97.28 97.0201 104.94L115.15 117.45C115.15 117.45 127.41 122.3 132.77 113.11C132.77 113.11 146.95 97.6 140.28 76.8" stroke="#F1F1F1" stroke-miterlimit="10"/>
<path d="M173.11 188.43V196.77C173.11 198.32 173.78 199.77 174.9 200.64C177.25 202.47 181.41 204.28 184.32 197.53C184.76 196.52 184.99 195.39 184.99 194.26V185.31" stroke="#F1F1F1" stroke-miterlimit="10"/>
<path d="M40.3401 92.4301L168.51 165.96L167.23 200.43L72.5101 173.62" stroke="#F1F1F1" stroke-miterlimit="10"/>
<path d="M69.96 109.42L193.02 169.02L168.51 177.7" stroke="#F1F1F1" stroke-miterlimit="10"/>
<path d="M69.96 90.89V102.83L193.02 158.81V169.02C193.02 169.02 193.02 185.87 188.42 193.02L184.97 194.26" stroke="#F1F1F1" stroke-miterlimit="10"/>
<path d="M73.53 183.2L138.33 192.25" stroke="#F1F1F1" stroke-miterlimit="10"/>
<path d="M173.87 186.33C175.14 186.33 176.17 185.873 176.17 185.31C176.17 184.747 175.14 184.29 173.87 184.29C172.6 184.29 171.57 184.747 171.57 185.31C171.57 185.873 172.6 186.33 173.87 186.33Z" stroke="#F1F1F1" stroke-miterlimit="10"/>
<path d="M183.45 184.22C184.72 184.22 185.75 183.763 185.75 183.2C185.75 182.637 184.72 182.18 183.45 182.18C182.18 182.18 181.15 182.637 181.15 183.2C181.15 183.763 182.18 184.22 183.45 184.22Z" stroke="#F1F1F1" stroke-miterlimit="10"/>
<path d="M171.57 185.31V187.72C171.57 187.72 173.74 189.06 176.17 187.72V185.31" stroke="#F1F1F1" stroke-miterlimit="10"/>
<path d="M181.15 183.2V185.31C181.15 185.31 183.58 187.17 185.75 185.31V183.2" stroke="#F1F1F1" stroke-miterlimit="10"/>
<path d="M175.05 188.32V194.99C175.05 196.69 175.81 198.2 176.95 199.24C178.26 200.43 182.04 200.09 182.43 193.82V186.33" stroke="#F1F1F1" stroke-miterlimit="10"/>
<path d="M73.53 188.32L159.98 198.37" stroke="#F1F1F1" stroke-miterlimit="10"/>
<path d="M167.23 200.43L173.11 198.37" stroke="#F1F1F1" stroke-miterlimit="10"/>
<path d="M175.05 197.04L182.43 194.26" stroke="#F1F1F1" stroke-miterlimit="10"/>
<path d="M131.49 31.9C131.49 31.9 149.15 39.8 159.98 54.88" stroke="#F1F1F1" stroke-miterlimit="10"/>
<path d="M165.12 64.71C165.12 64.71 172.34 72.79 173.1 89.37L171.57 149.05" stroke="#F1F1F1" stroke-miterlimit="10"/>
<path d="M189.78 190.35L264.26 173.11" stroke="#F1F1F1" stroke-miterlimit="10"/>
<path d="M176.17 151.14L240.51 143.56V83.26C237.45 71.29 231.32 61.27 231.32 61.27" stroke="#F1F1F1" stroke-miterlimit="10"/>
<path d="M240.51 83.26L247.15 90.64V142.58L240.51 143.56" stroke="#F1F1F1" stroke-miterlimit="10"/>
<path d="M193.02 162.64L260.94 151.15" stroke="#F1F1F1" stroke-miterlimit="10"/>
<path d="M247.15 90.64L259.15 90.38" stroke="#F1F1F1" stroke-miterlimit="10"/>
<path d="M247.15 142.58L260.64 141.17" stroke="#F1F1F1" stroke-miterlimit="10"/>
<path d="M79.06 297.56L78.2 299.19C76.92 302.3 75.43 308.27 76.66 311.4C77.45 313.43 78.61 314.86 79.9 315.87C83.98 319.06 89.94 318.09 93.2 314.07C100.19 305.43 94.48 296.68 94.48 296.68L94.14 289.15L101.29 281.11H94.99V266.56L154.89 277.98L155.24 300.14L149.88 306.82L161.03 309.07" stroke="#F1F1F1" stroke-miterlimit="10"/>
<path d="M175.15 311.29L174.47 325.45C172.43 334.64 168.95 328.51 168.95 328.51C168.36 327.66 168.95 309.19 168.95 309.19L165.8 309.07H161.03L159.63 310.13C156.18 312.85 154.68 322.2 154.68 322.2C153.75 326.37 154.45 330.8 156.88 334.31C162.61 342.58 170.32 337.7 170.32 337.7C179.08 334.47 175.17 319.49 175.17 319.49V309.19L181.17 297.56L176.99 297.73L177.21 280.34L239 249.19L238.9 258.34L242.07 259.4V264C242.07 264 232.03 273.53 239.69 282.38C239.69 282.38 246.79 291.97 255.35 284.03C263.91 276.09 255.99 260.04 255.99 260.04L260.46 257.36L257.65 253.53L259.18 174.29" stroke="#F1F1F1" stroke-miterlimit="10"/>
<path d="M184.31 197.53L259.08 177.7" stroke="#F1F1F1" stroke-miterlimit="10"/>
<path d="M238.35 183.2L253.15 184.29V233.11L176.17 224.68" stroke="#F1F1F1" stroke-miterlimit="10"/>
<path d="M82.1699 189.32V257.11L169.11 225.45L168.51 200.23L172.96 202.32L176.16 201.88L177.45 271.91L247.15 237.12L176.66 229.27" stroke="#F1F1F1" stroke-miterlimit="10"/>
<path d="M82.1699 264.51L87.5699 265.79L87.6799 281.11H82.2699L82.1699 264.51Z" stroke="#F1F1F1" stroke-miterlimit="10"/>
<path d="M162.64 279.57L169.11 282.55L168.94 297.56H162.47L162.64 279.57Z" stroke="#F1F1F1" stroke-miterlimit="10"/>
<path d="M243.83 246.13V254.22L251.74 255.4V242.04L243.83 246.13Z" stroke="#F1F1F1" stroke-miterlimit="10"/>
<path d="M189.78 265.76V259.91C189.78 259.91 190.32 265.48 189.78 258.63C189.24 251.78 184.32 249.95 184.32 249.95V247.91L187.17 243.77L186.89 242.04V230.41" stroke="#F1F1F1" stroke-miterlimit="10"/>
<path d="M176.97 245.88L181.15 243.57V229.77" stroke="#F1F1F1" stroke-miterlimit="10"/>
<path d="M76.0901 283.91C76.0901 283.91 78.0401 286.72 82.1701 284.93V281.1" stroke="#F1F1F1" stroke-miterlimit="10"/>
<path d="M87.5701 281.11V285.53C87.5701 285.53 91.6201 288.74 94.9701 285.53V281.11" stroke="#F1F1F1" stroke-miterlimit="10"/>
<path d="M94.47 296.68L94.34 305.49C94.27 311.09 92.32 311.71 90.55 311.1C88.78 310.49 87.68 308.74 87.68 306.87L87.57 289.15H79.6L70.21 288.89L76.08 283.91L73.53 183.2L72.51 173.62L37.28 162.9L40.34 92.43L69.96 90.9L75.07 69.45L59.75 45.96L62.81 31.66L102.64 28.09L113.87 33.45C113.87 33.45 113.87 28.85 136.08 33.45L209.1 44.68C209.1 44.68 224.67 49.79 231.31 61.28L239.99 63.58L259.14 90.39L260.93 151.16L264.25 173.12" stroke="#F1F1F1" stroke-miterlimit="10"/>
<path d="M87.57 300.22C87.57 300.22 82.55 303.59 85.53 310.34C85.53 310.34 89.49 316.58 92.68 311.29" stroke="#F1F1F1" stroke-miterlimit="10"/>
<path d="M79.0601 297.56C79.0601 297.56 82.0801 292.43 87.6801 294.64" stroke="#F1F1F1" stroke-miterlimit="10"/>
<path d="M92.3 309.07C93.3107 309.07 94.13 308.063 94.13 306.82C94.13 305.577 93.3107 304.57 92.3 304.57C91.2893 304.57 90.47 305.577 90.47 306.82C90.47 308.063 91.2893 309.07 92.3 309.07Z" stroke="#F1F1F1" stroke-miterlimit="10"/>
<path d="M172.13 328.21C173.141 328.21 173.96 327.203 173.96 325.96C173.96 324.717 173.141 323.71 172.13 323.71C171.119 323.71 170.3 324.717 170.3 325.96C170.3 327.203 171.119 328.21 172.13 328.21Z" stroke="#F1F1F1" stroke-miterlimit="10"/>
<path d="M87.5701 289.15H94.1201" stroke="#F1F1F1" stroke-miterlimit="10"/>
<path d="M76.0901 289.15H76.9401V301.96" stroke="#F1F1F1" stroke-miterlimit="10"/>
<path d="M81.3601 289.15V295.21" stroke="#F1F1F1" stroke-miterlimit="10"/>
<path d="M162.64 295.66V300.22C162.4 304.21 155.35 307.55 155.24 300.14" stroke="#F1F1F1" stroke-miterlimit="10"/>
<path d="M168.94 297.56V301.68C168.94 301.68 173.1 305.73 176.16 301.68L176.97 297.73" stroke="#F1F1F1" stroke-miterlimit="10"/>
<path d="M156.6 309.22V314.99" stroke="#F1F1F1" stroke-miterlimit="10"/>
<path d="M168.51 316.09C168.51 316.09 162.9 325.28 165.79 330.73C165.79 330.73 169.11 335.67 172.13 330.33" stroke="#F1F1F1" stroke-miterlimit="10"/>
<path d="M247.79 277.27C248.635 277.27 249.32 276.585 249.32 275.74C249.32 274.895 248.635 274.21 247.79 274.21C246.945 274.21 246.26 274.895 246.26 275.74C246.26 276.585 246.945 277.27 247.79 277.27Z" stroke="#F1F1F1" stroke-miterlimit="10"/>
<path d="M185.63 262.35C186.773 262.35 187.7 261.423 187.7 260.28C187.7 259.137 186.773 258.21 185.63 258.21C184.487 258.21 183.56 259.137 183.56 260.28C183.56 261.423 184.487 262.35 185.63 262.35Z" stroke="#F1F1F1" stroke-miterlimit="10"/>
<path d="M242.04 259.4L251.74 260.42V271.27L247.78 271.91C247.78 271.91 243.31 272.8 244.72 276.63C244.72 276.63 245.36 279.44 249.95 278.29L254.42 275.74L256.72 277.27L259.39 271.91" stroke="#F1F1F1" stroke-miterlimit="10"/>
<path d="M177.03 249.03L180.43 251.62L181.15 258.04L177.22 259.4" stroke="#F1F1F1" stroke-miterlimit="10"/>
<path d="M177.31 264.51L182.43 263.83L185.74 264.51L187.17 266.55" stroke="#F1F1F1" stroke-miterlimit="10"/>
<path d="M180.43 251.62L184.31 249.96" stroke="#F1F1F1" stroke-miterlimit="10"/>
<path d="M251.74 260.43L255.96 260.04" stroke="#F1F1F1" stroke-miterlimit="10"/>
<path d="M242.04 264C242.04 264 244.42 261.59 251.74 263.83" stroke="#F1F1F1" stroke-miterlimit="10"/>
<path d="M251.74 268.99C251.74 268.99 246.35 268.12 245.77 272.81" stroke="#F1F1F1" stroke-miterlimit="10"/>
<path d="M246.89 278.57C246.89 278.57 251.74 282.55 253.15 276.47" stroke="#F1F1F1" stroke-miterlimit="10"/>
<path d="M238.92 254.22C238.92 254.22 241.11 255.71 243.83 254.22V252.17" stroke="#F1F1F1" stroke-miterlimit="10"/>
<path d="M251.74 255.4L253.89 257.1C253.89 257.1 256.08 256.84 257.61 253.53" stroke="#F1F1F1" stroke-miterlimit="10"/>
<path d="M181.15 243.57C181.15 243.57 184.98 244.68 187.17 243.77" stroke="#F1F1F1" stroke-miterlimit="10"/>
<path d="M127.68 67.86C127.68 67.86 135.58 68.71 138.33 74.19" stroke="#F1F1F1" stroke-miterlimit="10"/>
<path d="M102.64 102.9C103.629 102.9 104.43 102.099 104.43 101.11C104.43 100.121 103.629 99.32 102.64 99.32C101.652 99.32 100.85 100.121 100.85 101.11C100.85 102.099 101.652 102.9 102.64 102.9Z" stroke="#F1F1F1" stroke-miterlimit="10"/>
<path d="M109.79 109.26C110.806 109.26 111.63 108.436 111.63 107.42C111.63 106.404 110.806 105.58 109.79 105.58C108.774 105.58 107.95 106.404 107.95 107.42C107.95 108.436 108.774 109.26 109.79 109.26Z" stroke="#F1F1F1" stroke-miterlimit="10"/>
<path d="M120.26 113.41C121.448 113.41 122.41 112.447 122.41 111.26C122.41 110.073 121.448 109.11 120.26 109.11C119.073 109.11 118.11 110.073 118.11 111.26C118.11 112.447 119.073 113.41 120.26 113.41Z" stroke="#F1F1F1" stroke-miterlimit="10"/>
<path d="M130.6 107.23C131.787 107.23 132.75 106.267 132.75 105.08C132.75 103.893 131.787 102.93 130.6 102.93C129.413 102.93 128.45 103.893 128.45 105.08C128.45 106.267 129.413 107.23 130.6 107.23Z" stroke="#F1F1F1" stroke-miterlimit="10"/>
<path d="M133.01 96.51C134.198 96.51 135.16 95.5474 135.16 94.36C135.16 93.1726 134.198 92.21 133.01 92.21C131.823 92.21 130.86 93.1726 130.86 94.36C130.86 95.5474 131.823 96.51 133.01 96.51Z" stroke="#F1F1F1" stroke-miterlimit="10"/>
<path d="M168.94 309.19H175.15" stroke="#F1F1F1" stroke-miterlimit="10"/>
<path d="M87.5701 265.79L94.9801 266.55" stroke="#F1F1F1" stroke-miterlimit="10"/>
<path d="M154.88 277.97L162.64 279.57" stroke="#F1F1F1" stroke-miterlimit="10"/>
<path d="M238.98 249.19L243.83 246.13" stroke="#F1F1F1" stroke-miterlimit="10"/>
<path d="M82.1699 257.11L93.6999 258.89L168.51 229.28V273.96L92.6799 258.89" stroke="#F1F1F1" stroke-miterlimit="10"/>
</svg>
