<svg width="34" height="34" fill="none" xmlns="http://www.w3.org/2000/svg"><g clip-path="url(#a)" fill="#fff"><path d="M21 12H7a1 1 0 0 1-1-1V7a1 1 0 0 1 1-1h14a1 1 0 0 1 1 1v4a1 1 0 0 1-1 1ZM8 10h12V7.94H8V10ZM21 14.08H7a1 1 0 0 0-1 1V19a1 1 0 0 0 1 1h11.36L22 16.3v-1.22a1 1 0 0 0-1-1ZM20 18H8v-2h12v2Z"/><path d="M11.06 31.51v-.06l.32-1.39H4V4h20v10.25l2-1.89V3a1 1 0 0 0-1-1H3a1 1 0 0 0-1 1v28a1 1 0 0 0 1 1h8c.008-.165.028-.328.06-.49ZM22 19.17l-.78.79a1 1 0 0 0 .78-.79Z"/><path d="M6 26.94a1 1 0 0 0 1 1h4.84l.3-1.3.13-.55v-.05H8V24h6.34l2-2H7a1 1 0 0 0-1 1v3.94ZM33.49 16.67l-3.37-3.37a1.61 1.61 0 0 0-2.28 0L14.13 27.09 13 31.9a1.61 1.61 0 0 0 1.26 1.9c.103.01.207.01.31 0 .123.02.248.02.37 0l4.85-1.07L33.49 19a1.602 1.602 0 0 0 0-2.27v-.06ZM18.77 30.91l-3.66.81.89-3.63L26.28 17.7l2.82 2.82-10.33 10.39Zm11.46-11.52-2.82-2.82L29 15l2.84 2.84-1.61 1.55Z"/></g><defs><clipPath id="a"><path fill="#fff" d="M0 0h34v34H0z"/></clipPath></defs></svg>