<svg width="36" height="36" fill="none" xmlns="http://www.w3.org/2000/svg"><path d="M.758 32.882a1.844 1.844 0 0 0 .445 1.908l.007.007a1.845 1.845 0 0 0 1.908.445 47.965 47.965 0 0 0 18.41-11.445L33.88 11.442a6.593 6.593 0 1 0-9.323-9.324l-.708.708-1.543-1.543a3.74 3.74 0 0 0-5.29 0l-9.95 9.95 1.679 1.68 9.95-9.95a1.366 1.366 0 0 1 1.931 0l1.544 1.542-9.968 9.968A47.966 47.966 0 0 0 .758 32.883Zm25.48-29.084a4.219 4.219 0 0 1 5.964 5.965l-6.642 6.642-5.965-5.965 6.642-6.642Zm-8.322 8.321 5.965 5.965-4.034 4.034a45.598 45.598 0 0 1-16.485 10.52 45.6 45.6 0 0 1 10.52-16.486l4.034-4.033Z" fill="#F1F1F1"/></svg>