<svg width="40" height="32" fill="none" xmlns="http://www.w3.org/2000/svg"><path d="M14.453 31.921a10.01 10.01 0 0 1-3.71-1.333c-1.017-.64-8.695-8.03-9.07-8.723-.431-.791.32-2.233 1.393-2.674l.503-.207-1.548-1.549C1.17 16.58.362 15.671.234 15.418c-.303-.575-.311-1.81-.028-2.36.12-.224.403-.566.623-.756.376-.306.411-.415.376-1.19-.046-.684.018-.953.32-1.467.44-.738 1.348-1.234 2.236-1.242.494 0 .623-.063.834-.424.55-.945 2.125-1.288 3.326-.71l.651.306.32-.306c.44-.396 1.32-.747 1.897-.747 1.154 0 2.784 1.305 2.784 2.223 0 1.097-1.016 1.287-2.024.378-.669-.612-1.008-.676-1.283-.243-.137.207.192.594 2.162 2.547 1.97 1.945 2.328 2.36 2.328 2.728a1.125 1.125 0 0 1-.343.746 1.164 1.164 0 0 1-.766.325c-.357 0-.943-.504-3.646-3.15-2.759-2.702-3.262-3.134-3.482-2.998-.596.37-.394.64 2.83 3.817 1.751 1.728 3.19 3.258 3.19 3.403 0 .297-.274.847-.503.99-.188.081-.392.119-.596.11-.377.008-.954-.506-4.022-3.511-3.078-3.008-3.629-3.493-3.849-3.359-.605.379-.403.64 3.107 4.105 1.916 1.883 3.518 3.566 3.564 3.746.1.325-.12.892-.412 1.089a1.429 1.429 0 0 1-.614.109c-.376 0-.851-.405-3.39-2.899-2.446-2.404-3.015-2.898-3.326-2.87-.88.098-.568.485 3.976 4.96 3.94 3.88 4.443 4.43 4.443 4.834a.877.877 0 0 1-.394.757c-.705.55-.98.424-2.758-1.268-.908-.856-1.842-1.684-2.09-1.838-.449-.27-1.585-.387-1.796-.17-.074.061 1.602 1.8 3.72 3.86 3.527 3.43 3.93 3.782 4.966 4.268a7.037 7.037 0 0 0 6.149.017c2.959-1.386 4.6-4.753 3.792-7.805-.402-1.521-.907-2.25-2.941-4.313-2.345-2.359-2.887-3.007-3.464-4.141-.642-1.269-.916-2.503-.916-4.043 0-1.666.174-2.421.925-3.979.714-1.484 2.208-3.042 3.684-3.844 2.895-1.585 6.707-1.45 9.473.325.55.351 2.538 2.189 5.011 4.627 3.675 3.62 4.096 4.088 4.096 4.501 0 .982-.817 2.07-1.723 2.296-.34.09-.274.18 1.265 1.72.897.891 1.731 1.854 1.86 2.151.43 1.018.237 2.007-.55 2.817-.404.415-.458.559-.469 1.387-.009.729-.091 1.035-.385 1.45a2.587 2.587 0 0 1-.906.811c-.364.196-.77.303-1.184.314-.568 0-.677.053-.962.477-.642.973-2.31 1.314-3.39.684l-.54-.314-.385.37c-.852.802-2.227.909-3.27.252-.843-.522-1.466-1.251-1.466-1.711 0-.405.596-1.072.962-1.072.349 0 .817.27 1.348.757.531.495.99.495 1.062-.008.037-.27-.402-.783-2.181-2.54-1.87-1.854-2.227-2.277-2.227-2.637-.004-.2.034-.4.11-.586.203-.297.771-.505 1.118-.415.183.045 1.73 1.45 3.427 3.115 1.704 1.675 3.198 3.042 3.335 3.042.376 0 .623-.37.449-.684-.083-.144-1.522-1.594-3.19-3.233-2.61-2.556-3.032-3.033-3.032-3.411-.01-.204.029-.407.11-.595.157-.225.706-.494 1.017-.494.137 0 1.86 1.574 3.83 3.501 3.61 3.53 3.875 3.727 4.252 3.143.137-.216-.358-.766-3.419-3.782-3.16-3.115-3.581-3.583-3.581-3.988 0-.278.128-.566.33-.746.67-.62.871-.495 4.124 2.682 3.078 3.016 3.353 3.213 3.73 2.638.137-.216-.486-.882-4.307-4.646-4.16-4.105-4.461-4.439-4.461-4.916 0-.72.422-1.063 1.237-1.007.146.008 1.025.738 1.933 1.61.916.873 1.905 1.693 2.199 1.819.577.233 1.245.27 1.53.09.275-.171-7.33-7.526-8.319-8.04a7.177 7.177 0 0 0-5.58-.478 7.09 7.09 0 0 0-2.474 1.409 6.944 6.944 0 0 0-1.704 2.257c-.476.999-.54 1.296-.605 2.584-.054 1.215-.009 1.594.257 2.368.477 1.377.888 1.944 3.024 4.088 2.31 2.322 2.75 2.853 3.335 4.096 1.65 3.457.954 7.454-1.768 10.118-2.07 2.043-4.892 2.997-7.687 2.62v.002Z" fill="#F1F1F1"/></svg>